<svg fill="none" viewBox="0 0 60 60" xmlns="http://www.w3.org/2000/svg" xmlns:xlink="http://www.w3.org/1999/xlink"><clipPath id="a"><path d="m0 0h62v62h-62z"/></clipPath><g clip-path="url(#a)" stroke-width="1.03333" transform="scale(.96774194)"><path d="m50.3954 19.6365h-38.2697-1.1784v9.9389h2.3569 5.3008 2.3569 5.3008 2.3569 5.3008 2.3569 5.3008 2.357 5.3007 2.357v-9.9389h-1.1785zm-37.0912 8.0458v-6.1527h5.3008v6.1527zm7.653 0v-6.1527h5.3008v6.1527zm7.653 0v-6.1527h5.3007v6.1527zm7.6529 0v-6.1527h5.3008v6.1527zm7.653 0v-6.1527h5.3008v6.1527z" fill="#bc86b7"/><g fill="#fff"><path d="m44.5834 33.3617h-1.7653v7.5725h-2.9439v-7.5725h-1.8836-13.427-1.7654v7.5725h-2.9438v-7.5725h-1.7653-7.0662v1.8931h6.4746v5.6794 1.8931h5.3007 2.357v-7.5725h12.3621v5.6794 1.8931h2.3569 2.9439 2.3522v-7.5725h6.4792v-1.8931z"/><path d="m62 62h-62v-62h62zm-60.10687-1.8931h58.21377v-58.21377h-58.21377z"/></g></g></svg>
