<svg fill="none" viewBox="0 0 60 60" xmlns="http://www.w3.org/2000/svg"><path d="m.81081081.81081081h58.37837819v58.37837819h-58.37837819z" stroke="#fff" stroke-width="1.62162"/><g stroke-width=".999997"><path d="m29.972595 19.149568c-.503838 0-.916054-.412217-.916054-.915973v-3.577136c0-.503837.412216-.916054.916054-.916054.503837 0 .916054.412217.916054.916054v3.577136c0 .503756-.412217.915973-.916054.915973z" fill="#fff"/><path d="m29.972595 46.259513c-.503838 0-.916054-.412216-.916054-.916054v-17.949567c0-.503838.412216-.916054.916054-.916054.503837 0 .916054.412216.916054.916054v17.949567c0 .503838-.412217.916054-.916054.916054z" fill="#fff"/><path d="m30.068595 27.851838c-2.903838 0-5.26719-2.363352-5.26719-5.267108 0-2.903838 2.363352-5.267189 5.26719-5.267189 2.903756 0 5.267108 2.363351 5.267108 5.267189 0 2.903756-2.363352 5.267108-5.267108 5.267108zm0-8.70227c-1.896244 0-3.435163 1.538918-3.435163 3.435162 0 1.896162 1.538919 3.435081 3.435163 3.435081 1.896162 0 3.435081-1.538919 3.435081-3.435081 0-1.896244-1.538919-3.435162-3.435081-3.435162z" fill="#f77c47"/><path d="m41.422946 31.515973c-.503838 0-.916054-.412216-.916054-.915973v-15.943541c0-.503837.412216-.916054.916054-.916054.503757 0 .915973.412217.915973.916054v15.943541c0 .503757-.412216.915973-.915973.915973z" fill="#fff"/><path d="m41.422946 46.259513c-.503838 0-.916054-.412216-.916054-.916054v-5.125216c0-.503757.412216-.915973.916054-.915973.503757 0 .915973.412216.915973.915973v5.125216c0 .503838-.412216.916054-.915973.916054z" fill="#fff"/><path d="m41.518865 41.134378c-2.903757 0-5.267189-2.363432-5.267189-5.267189 0-2.903838 2.363432-5.267189 5.267189-5.267189 2.903838 0 5.267189 2.363351 5.267189 5.267189 0 2.903757-2.363351 5.267189-5.267189 5.267189zm0-8.702351c-1.896162 0-3.435081 1.538919-3.435081 3.435162 0 1.896162 1.538919 3.435081 3.435081 3.435081 1.896243 0 3.435162-1.538919 3.435162-3.435081 0-1.896243-1.538919-3.435162-3.435162-3.435162z" fill="#f77c47"/><path d="m18.521838 28.309865c-.503757 0-.915973-.412216-.915973-.915973v-12.737433c0-.503837.412216-.916054.915973-.916054.503838 0 .916054.412217.916054.916054v12.737433c0 .503757-.412216.915973-.916054.915973z" fill="#fff"/><path d="m18.521838 46.259513c-.503757 0-.915973-.412216-.915973-.915973v-8.789351c0-.503838.412216-.916054.915973-.916054.503838 0 .916054.412216.916054.916054v8.789351c0 .503757-.412216.915973-.916054.915973z" fill="#fff"/><path d="m18.618243 37.012216c-2.903838 0-5.267189-2.363351-5.267189-5.267189s2.363351-5.267189 5.267189-5.267189 5.267189 2.363351 5.267189 5.267189-2.363351 5.267189-5.267189 5.267189zm0-8.702351c-1.896162 0-3.435081 1.539-3.435081 3.435162s1.538919 3.435081 3.435081 3.435081 3.435081-1.538919 3.435081-3.435081-1.538919-3.435162-3.435081-3.435162z" fill="#f77c47"/></g></svg>
