<svg fill="none" viewBox="0 0 60 60" xmlns="http://www.w3.org/2000/svg"><path d="m1 1h58v58h-58z" stroke="#18465e" stroke-width="2"/><path d="m29.972772 19.219895c-.500572 0-.910116-.409545-.910116-.910037v-3.55395c0-.500572.409544-.910116.910116-.910116.500573 0 .910117.409544.910117.910116v3.55395c0 .500492-.409544.910037-.910117.910037z" fill="#18465e"/><path d="m29.972772 46.154128c-.500572 0-.910116-.409544-.910116-.910117v-17.833228c0-.500572.409544-.910116.910116-.910116.500573 0 .910117.409544.910117.910116v17.833228c0 .500573-.409544.910117-.910117.910117z" fill="#18465e"/><path d="m30.06815 27.865761c-2.885017 0-5.23305-2.348033-5.23305-5.232969 0-2.885017 2.348033-5.23305 5.23305-5.23305 2.884936 0 5.23297 2.348033 5.23297 5.23305 0 2.884936-2.348034 5.232969-5.23297 5.232969zm0-8.645866c-1.883953 0-3.412897 1.528944-3.412897 3.412897 0 1.883872 1.528944 3.412816 3.412897 3.412816 1.883872 0 3.412817-1.528944 3.412817-3.412816 0-1.883953-1.528945-3.412897-3.412817-3.412897z" fill="#f77c47"/><path d="m41.348909 31.506147c-.500573 0-.910117-.409544-.910117-.910036v-15.840203c0-.500572.409544-.910116.910117-.910116.500491 0 .910036.409544.910036.910116v15.840203c0 .500492-.409545.910036-.910036.910036z" fill="#18465e"/><path d="m41.348909 46.154128c-.500573 0-.910117-.409544-.910117-.910117v-5.091997c0-.500492.409544-.910036.910117-.910036.500491 0 .910036.409544.910036.910036v5.091997c0 .500573-.409545.910117-.910036.910117z" fill="#18465e"/><path d="m41.444206 41.062211c-2.884936 0-5.23305-2.348114-5.23305-5.23305 0-2.885016 2.348114-5.23305 5.23305-5.23305 2.885016 0 5.23305 2.348034 5.23305 5.23305 0 2.884936-2.348034 5.23305-5.23305 5.23305zm0-8.645947c-1.883872 0-3.412817 1.528945-3.412817 3.412897 0 1.883873 1.528945 3.412817 3.412817 3.412817 1.883953 0 3.412897-1.528944 3.412897-3.412817 0-1.883952-1.528944-3.412897-3.412897-3.412897z" fill="#f77c47"/><path d="m18.596233 28.32082c-.500491 0-.910036-.409545-.910036-.910037v-12.654875c0-.500572.409545-.910116.910036-.910116.500573 0 .910117.409544.910117.910116v12.654875c0 .500492-.409544.910037-.910117.910037z" fill="#18465e"/><path d="m18.596233 46.154128c-.500491 0-.910036-.409544-.910036-.910036v-8.732383c0-.500573.409545-.910117.910036-.910117.500573 0 .910117.409544.910117.910117v8.732383c0 .500492-.409544.910036-.910117.910036z" fill="#18465e"/><path d="m18.692014 36.966767c-2.885017 0-5.23305-2.348033-5.23305-5.23305s2.348033-5.23305 5.23305-5.23305 5.23305 2.348033 5.23305 5.23305-2.348033 5.23305-5.23305 5.23305zm0-8.645947c-1.883872 0-3.412817 1.529025-3.412817 3.412897s1.528945 3.412817 3.412817 3.412817 3.412817-1.528945 3.412817-3.412817-1.528945-3.412897-3.412817-3.412897z" fill="#f77c47"/></svg>
