<svg fill="none" viewBox="0 0 60 60" xmlns="http://www.w3.org/2000/svg" xmlns:xlink="http://www.w3.org/1999/xlink"><clipPath id="a"><path d="m0 0h65v65h-65z"/></clipPath><g clip-path="url(#a)" stroke-width="1.08333" transform="scale(.92307692)"><g fill="#fff"><path d="m42.4981 27.7267h-3.2996c-.3622 0-.6599.2977-.6599.6599s.2977.6599.6599.6599h3.2996c.3622 0 .6599-.2977.6599-.6599s-.2977-.6599-.6599-.6599z"/><path d="m26.0098 27.7267h-3.2996c-.3622 0-.6599.2977-.6599.6599s.2977.6599.6599.6599h3.2996c.3622 0 .66-.2977.66-.6599s-.2978-.6599-.66-.6599z"/><path d="m26.0098 17.8378h-3.2996c-.3622 0-.6599.2977-.6599.6599s.2977.6599.6599.6599h3.2996c.3622 0 .66-.2977.66-.6599s-.2978-.6599-.66-.6599z"/></g><path d="m44.1455 24.432h-2.6348v-4.287c0-1.2752-1.037-2.3073-2.3072-2.3073h-9.234v-.9874c0-1.2751-1.037-2.3072-2.3072-2.3072h-6.5943c-1.2752 0-2.3073 1.037-2.3073 2.3072v3.2997c0 1.2752 1.0371 2.3072 2.3073 2.3072h2.6397v1.9748h-2.6397c-1.2752 0-2.3073 1.037-2.3073 2.3073v3.2996c0 1.2752 1.0371 2.3072 2.3073 2.3072h6.5943c1.2752 0 2.3072-1.037 2.3072-2.3072v-.9874h1.9798l.0595 7.7603h1.3546l-.0943-7.7603h1.9748v.9874c0 1.2752 1.0371 2.3072 2.3073 2.3072h6.5943c1.2752 0 2.3072-1.037 2.3072-2.3072v-3.2996c0-1.2752-1.037-2.3073-2.3072-2.3073zm-15.5008 2.3073v3.2996c0 .5458-.4416.9874-.9874.9874h-6.5943c-.5458 0-.9874-.4416-.9874-.9874v-3.2996c0-.5458.4416-.9874.9874-.9874h6.5943c.5458 0 .9874.4416.9874.9874zm0-6.5943c0 .5458-.4416.9874-.9874.9874h-6.5943c-.5458 0-.9874-.4416-.9874-.9874v-3.2996c0-.5458.4416-.9874.9874-.9874h6.5943c.5458 0 .9874.4416.9874.9874zm-.9874 4.287h-2.6397v-1.9748h2.6397c1.2752 0 2.3073-1.037 2.3073-2.3072v-.9874h9.2339c.5458 0 .9874.4416.9874.9874v4.287h-2.6397c-1.2752 0-2.3072 1.037-2.3072 2.3072v.9874h-5.2744v-.9874c0-1.2752-1.0371-2.3072-2.3073-2.3072zm8.9065 2.3073c0-.5458.4416-.9874.9874-.9874h6.5943c.5458 0 .9874.4416.9874.9874v3.2996c0 .5458-.4416.9874-.9874.9874h-6.5943c-.5458 0-.9874-.4416-.9874-.9874z" fill="#f77c47"/><g fill="#fff"><path d="m50.7497 35.616c-1.434-1.3694-3.6321-1.6175-5.3439-.6053l-5.9741 3.5477-.0942-.1687c-.5756-1.0469-1.6672-1.6969-2.858-1.6969h-5.9046c-.521 0-1.042-.134-1.4985-.397l-3.776-2.1435c-1.2553-.7095-2.7885-.7741-4.0935-.1637l-.7492.3473-.0496-.2233c-.1737-.7443-.8237-1.2603-1.5828-1.2603h-3.5577c-.8981 0-1.6275.7294-1.6275 1.6275v14.0072c0 .8981.7294 1.6275 1.6275 1.6275h3.5577c.898 0 1.6274-.7294 1.6274-1.6275v-.392l1.7764-.7938 8.5839 2.848c.65.2134 1.3248.3176 2.0046.3176 1.4092 0 2.8183-.4515 3.9447-1.3099l13.8187-10.5241c.4614-.3523.7443-.8881.779-1.4687.0298-.5805-.1935-1.1412-.6103-1.5431zm-.8783 2.0592-.1587-.1886-13.8187 10.5241c-1.2951.9874-3.0665 1.2851-4.6195.774l-8.847-2.9374c-.0744-.0248-.1538-.0397-.2282-.0397-.0992 0-.1985.0199-.2977.0645l-1.4389.6401v-10.5836l1.3645-.6351c.8881-.4118 1.9252-.3721 2.7736.1092l3.776 2.1385c.6698.3821 1.429.5855 2.208.5855h5.9095c.9974 0 1.8111.8138 1.8111 1.8111v.8485c0 .1637-.134.3026-.3027.3026h-8.4649c-.3969 0-.7194.3226-.7194.7195s.3225.7195.7194.7195h8.4649c.9577 0 1.7416-.779 1.7416-1.7416v-.7294l6.4058-3.8107c1.1561-.6847 2.6397-.521 3.6122.4019.1191.1191.1836.2729.1687.4416-.0099.1439-.0844.2927-.2084.387l.1538.1935zm-30.8576-3.384v14.3844h-3.9347v-14.3844z"/><path d="m65 65h-65v-65h65zm-63.01527-1.9847h61.03057v-61.03057h-61.03057z"/></g></g></svg>
