<svg fill="none" viewBox="0 0 60 60" xmlns="http://www.w3.org/2000/svg" xmlns:xlink="http://www.w3.org/1999/xlink"><clipPath id="a"><path d="m0 0h62v62h-62z"/></clipPath><g clip-path="url(#a)" stroke-width="1.03333" transform="scale(.96774194)"><g fill="#18465e"><path d="m62 62h-62v-62h62zm-60.10687-1.8931h58.21377v-58.21377h-58.21377z"/><path d="m43.7976 49.8602h-26.0305v-26.0305h26.0305zm-24.1374-1.8931h22.2443v-22.2443h-22.2443z"/><path d="m42.4533 25.1455-11.6759-10.488-11.5149 10.3081-1.3631-1.1264 12.8828-11.5339 13.0389 11.7137z"/><path d="m62 62h-62v-62h62zm-60.10687-1.8931h58.21377v-58.21377h-58.21377z"/></g><path d="m36.0829 42.0748h-10.3886v-10.3885h10.3886zm-8.4954-1.8931h6.6023v-6.6023h-6.6023z" fill="#eb5757"/><path d="m62 62h-62v-62h62zm-60.10687-1.8931h58.21377v-58.21377h-58.21377z" fill="#18465e"/><path d="m62 62h-62v-62h62zm-60.10687-1.8931h58.21377v-58.21377h-58.21377z" fill="#18465e"/><path d="m36.0829 42.0748h-10.3886v-10.3885h10.3886zm-8.4954-1.8931h6.6023v-6.6023h-6.6023z" fill="#eb5757"/></g></svg>
