<svg fill="none" viewBox="0 0 45 45" xmlns="http://www.w3.org/2000/svg" xmlns:xlink="http://www.w3.org/1999/xlink"><clipPath id="a"><path d="m0 0h45v45h-45z"/></clipPath><g clip-path="url(#a)"><path d="m45 45h-45v-45h45zm-43.62595-1.374h42.25195v-42.25195h-42.25195z" fill="#19455e"/><path d="m31.8044 17.4335-.0172-.0171v-.1237h-.1374l-9.3092-8.36106-9.3401 8.36106h-.1099v18.8931h18.8932v-18.7385l.0171-.0138zm-9.4672-6.7946 7.4095 6.6538h-14.8431zm8.0725 24.1763h-16.145v-16.145h16.145z" fill="#fff"/><path d="m45 45h-45v-45h45zm-43.62595-1.374h42.25195v-42.25195h-42.25195z" fill="#19455e"/><path d="m26.1885 30.5381h-7.5401v-7.5401h7.5401zm-6.166-1.374h4.792v-4.792h-4.792z" fill="#f15a24"/><path d="m45 45h-45v-45h45zm-43.62595-1.374h42.25195v-42.25195h-42.25195z" fill="#19455e"/><path d="m45 45h-45v-45h45zm-43.62595-1.374h42.25195v-42.25195h-42.25195z" fill="#fff"/><path d="m26.1885 30.5381h-7.5401v-7.5401h7.5401zm-6.166-1.374h4.792v-4.792h-4.792z" fill="#f15a24"/></g></svg>
