<svg fill="none" viewBox="0 0 45 45" xmlns="http://www.w3.org/2000/svg" xmlns:xlink="http://www.w3.org/1999/xlink"><clipPath id="a"><path d="m0 0h45v45h-45z"/></clipPath><g clip-path="url(#a)"><g fill="#19455e"><path d="m45 45h-45v-45h45zm-43.62595-1.374h42.25195v-42.25195h-42.25195z"/><path d="m45 45h-45v-45h45zm-43.62595-1.374h42.25195v-42.25195h-42.25195z"/><path d="m45 45h-45v-45h45zm-43.62595-1.374h42.25195v-42.25195h-42.25195z"/></g><path d="m45 45h-45v-45h45zm-43.62595-1.374h42.25195v-42.25195h-42.25195z" fill="#fff"/><path d="m34.6124 10.8625c-1.7931-1.79311-4.1771-2.78242-6.7122-2.78242s-4.9191.98931-6.7122 2.78242c-2.5661 2.5661-3.4489 6.4374-2.2466 9.8588l.0343.1031-3.1156 3.1156c-.1271.1305-.213.3057-.2233.4706l-.2954 2.518-2.518.2954c-.3709.0412-.6526.3229-.6938.687l-.2955 2.5248-2.52821.2954c-.36755.0447-.66297.3401-.68359.687 0 0-.73168 4.4279-.73168 4.476 0 .4191.3023.766.69733.8416l-.0103.0172h5.49615c.2027-.0103.3058.0103.4397-.1271l10.1302-10.1302.103.0344c3.4214 1.2023 7.2928.3229 9.8588-2.2466 3.6996-3.703 3.6996-9.7248 0-13.4244zm-5.2008 14.5065c-1.5595.2989-3.1397.1374-4.5756-.4672-.316-.1649-.6801-.1099-.924.134l-10.3053 10.3053-3.99508.0413.47408-3.1775 2.5351-.2989c.3607-.0412.6492-.3297.6836-.6836l.2954-2.5248 2.5179-.2954c.3641-.0378.6561-.3229.6939-.6836l.3367-2.8717 3.2839-3.284c.2336-.2336.3023-.6011.158-.8725-.6217-1.4702-.79-3.0641-.4912-4.6237.718-3.7271 3.9985-6.43052 7.7977-6.43052 4.3764 0 7.9386 3.56222 7.9386 7.93852 0 3.7993-2.7035 7.0798-6.4306 7.7977z" fill="#fff"/><path d="m29.3591 12.418c-1.4771 0-2.6794 1.2023-2.6794 2.6794s1.2023 2.6793 2.6794 2.6793 2.6794-1.2022 2.6794-2.6793-1.2023-2.6794-2.6794-2.6794zm0 3.9881c-.7214 0-1.3054-.5874-1.3054-1.3053s.5874-1.3054 1.3054-1.3054c.7179 0 1.3053.5875 1.3053 1.3054s-.5874 1.3053-1.3053 1.3053z" fill="#f15a24"/></g></svg>
