<svg fill="none" viewBox="0 0 45 45" xmlns="http://www.w3.org/2000/svg" xmlns:xlink="http://www.w3.org/1999/xlink"><clipPath id="a"><path d="m0 0h45v45h-45z"/></clipPath><g clip-path="url(#a)"><g stroke="#19455e" stroke-miterlimit="10" stroke-width="4"><path d="m44.3135.6875h-43.626v43.626h43.626z"/><path d="m31.2613 17.9785h-17.5191v17.5191h17.5191z"/><path d="m44.3135.6875h-43.626v43.626h43.626z"/></g><path d="m22.4172 32.102-5.3313-5.3313 5.3313-5.3312 5.3313 5.3312zm-3.3904-5.3313 3.3904 3.3905 3.3905-3.3905-3.3905-3.3904z" fill="#f15a24"/><path d="m13.7422 17.8631c0-4.8367 3.9229-8.75958 8.7595-8.75958 3.8542 0 6.3996 2.76868 6.6298 3.03318" stroke="#19455e" stroke-linecap="round" stroke-miterlimit="10" stroke-width="4"/><path d="m44.3135.6875h-43.626v43.626h43.626z" stroke="#19455e" stroke-miterlimit="10" stroke-width="4"/><path d="m45 45h-45v-45h45zm-43.62595-1.374h42.25195v-42.25195h-42.25195z" fill="#fff"/><path d="m14.4484 17.2924c.292-4.1875 3.7889-7.50234 8.0485-7.50234 3.6481 0 6.0114 2.68284 6.111 2.79614.2474.2886.6836.3195.9687.0687.2852-.2473.3195-.6835.0687-.9687-.1167-.1339-2.8786-3.27018-7.1484-3.27018-5.0187 0-9.1306 3.93318-9.4294 8.87638h-.0206v18.8931h18.8931v-18.8931h-17.495zm16.121 17.519h-16.145v-16.145h16.145z" fill="#fff"/></g></svg>
