<svg fill="none" viewBox="0 0 45 45" xmlns="http://www.w3.org/2000/svg" xmlns:xlink="http://www.w3.org/1999/xlink"><clipPath id="a"><path d="m0 0h45v45h-45z"/></clipPath><g clip-path="url(#a)"><path d="m36.577 14.252h-27.77634-.85535v7.2137h1.71069 3.8473 1.7107 3.8473 1.7107 3.8474 1.7106 3.8474 1.7107 3.8473 1.7107v-7.2137h-.8554zm-26.92444 5.8396v-4.4656h3.84734v4.4656zm5.55454 0v-4.4656h3.8474v4.4656zm5.5546 0v-4.4656h3.8474v4.4656zm5.5546 0v-4.4656h3.8473v4.4656zm5.5546 0v-4.4656h3.8473v4.4656z" fill="#f15a24"/><g fill="#fff"><path d="m32.3584 24.2129h-1.2813v5.4962h-2.1366v-5.4962h-1.3672-9.7454-1.2813v5.4962h-2.1367v-5.4962h-1.2813-5.1286v1.374h4.6992v4.1222 1.374h3.8474 1.7107v-5.4962h8.9725v4.1222 1.374h1.7107 2.1366 1.7073v-5.4962h4.7026v-1.374z"/><path d="m45 45h-45v-45h45zm-43.62595-1.374h42.25195v-42.25195h-42.25195z"/></g></g></svg>
