<svg fill="none" viewBox="0 0 60 60" xmlns="http://www.w3.org/2000/svg"><path d="m1 1h58v58h-58z" stroke="#18465e" stroke-width="2"/><path d="m46.7462 14.0186c-2.4706-2.4705-5.7551-3.8335-9.248-3.8335-3.4928 0-6.7774 1.363-9.2479 3.8335-3.5354 3.5355-4.7518 8.8694-3.0953 13.5833l.0474.1419-4.2927 4.2927c-.1751.1799-.2935.4212-.3076.6484l-.4071 3.4692-3.4691.407c-.5112.0568-.8993.4449-.9561.9466l-.407 3.4786-3.4833.407c-.5065.0615-.9135.4686-.9419.9466l-1.00807 5.9302c-.03786.284 1.24477-.7005 1.41987-.4733.1183.1515.3029.4023.4733.4733l-.9466 1.4198h7.5725c.2793-.0142.4212.0142.6058-.1751l13.9571-13.9571.142.0474c4.7139 1.6564 10.0478.4448 13.5832-3.0953 5.0973-5.102 5.0973-13.3986 0-18.4959zm-7.1655 19.9868c-2.1487.4117-4.3258.1893-6.3041-.6437-.4355-.2272-.9371-.1515-1.2732.1846l-14.1984 14.1985-5.5043.0567.6531-4.3778 3.4928-.4118c.497-.0568.8945-.4543.9419-.9418l.407-3.4786 3.4691-.4071c.5017-.052.904-.4448.9561-.9418l.4638-3.9566 4.5246-4.5246c.3218-.3218.4165-.8283.2177-1.2021-.8567-2.0257-1.0886-4.2217-.6768-6.3704.9892-5.1351 5.509-8.8599 10.7435-8.8599 6.0296 0 10.9376 4.908 10.9376 10.9376 0 5.2345-3.7248 9.7543-8.8599 10.7435z" fill="#18465e"/><path d="m39.5051 16.1626c-2.0351 0-3.6916 1.6565-3.6916 3.6916s1.6565 3.6916 3.6916 3.6916 3.6916-1.6565 3.6916-3.6916-1.6565-3.6916-3.6916-3.6916zm0 5.4948c-.9939 0-1.7985-.8093-1.7985-1.7985 0-.9891.8093-1.7984 1.7985-1.7984.9891 0 1.7985.8093 1.7985 1.7984 0 .9892-.8094 1.7985-1.7985 1.7985z" fill="#eb5757"/></svg>