<svg fill="none" viewBox="0 0 60 60" xmlns="http://www.w3.org/2000/svg"><path d="m.80555499.80555499h58.38889001v58.38889001h-58.38889001z" stroke="#fff" stroke-width="1.61111"/><path d="m29.887115 42.803386-7.109659-7.109739 7.109659-7.109658 7.109658 7.109658zm-4.521409-7.109739 4.521409 4.521489 4.521408-4.521489-4.521408-4.521408z" fill="#eb5757"/><path d="m19.267554 23.055371c.38934-5.584248 5.052829-10.004854 10.733176-10.004854 4.865012 0 8.016714 3.577697 8.149629 3.728941.329817.384799.911597.425996 1.291774.09156.380257-.329815.426077-.911596.09164-1.291772-.155784-.178735-3.838826-4.361164-9.53304-4.361164-6.692745 0-12.176192 5.245269-12.574777 11.837293h-.02749v25.19537h25.195369v-25.195374h-23.330903zm21.498465 23.362937h-21.530579v-21.530579h21.530579z" fill="#fff"/></svg>
