<svg fill="none" viewBox="0 0 60 60" xmlns="http://www.w3.org/2000/svg"><path d="m1 1h58v58h-58z" stroke="#18465e" stroke-width="2"/><path d="m29.887867 42.718111-7.062306-7.062386 7.062306-7.062305 7.062305 7.062305zm-4.491295-7.062386 4.491295 4.491375 4.491294-4.491375-4.491294-4.491294z" fill="#eb5757"/><path d="m19.339036 23.101625c.386747-5.547055 5.019175-9.938219 10.661689-9.938219 4.832609 0 7.96332 3.553869 8.09535 3.704105.32762.382236.905525.423159 1.28317.09095.377725-.327619.423239-.905525.09103-1.283169-.154747-.177544-3.813258-4.332117-9.469547-4.332117-6.648169 0-12.095094 5.210334-12.491025 11.758453h-.02731v25.027561h25.027563v-25.027564h-23.175511zm21.355278 23.207331h-21.387178v-21.387178h21.387178z" fill="#18465e"/></svg>
