<svg fill="none" viewBox="0 0 60 60" xmlns="http://www.w3.org/2000/svg"><path d="m1 1h58v58h-58z" stroke="#000000" stroke-width="2"/><g fill="#f77c47" stroke-width="1.24138" transform="matrix(.80555556 0 0 .80555556 .194444 .194444)"><path d="m42.1744 26.8942c0-2.0901-1.2597-3.9825-3.1973-4.779-1.9319-.7965-4.1575-.3559-5.6375 1.1241s-1.9206 3.7057-1.1185 5.6376c.7965 1.9376 2.6889 3.1973 4.7789 3.1973 2.8527-.0057 5.1687-2.3217 5.1744-5.1744zm-8.0892 0c0-1.1807.7118-2.2426 1.7964-2.6945 1.0902-.452 2.3442-.2034 3.1746.6326.8361.8361 1.0846 2.0901.6327 3.1747-.4519 1.0902-1.5139 1.802-2.6945 1.802-1.6043-.0057-2.9092-1.3106-2.9148-2.9148z"/><path d="m48.9077 35.7289c2.0957.017 3.9994-1.2314 4.8128-3.1633.8191-1.9319.3841-4.1632-1.0902-5.6545-1.4744-1.4913-3.7057-1.9376-5.6432-1.1411-1.9376.7965-3.2029 2.6889-3.2029 4.7846 0 2.8414 2.2878 5.1517 5.1291 5.1743zm0-8.0891c1.1863-.017 2.2595.6778 2.7227 1.7681.4632 1.0902.226 2.3499-.6044 3.1916-.8304.8416-2.0901 1.1015-3.1803.6552-1.0959-.4462-1.8076-1.5139-1.8076-2.6945.0056-1.593 1.2823-2.8865 2.8696-2.9148z"/><path d="m30.2213 30.5546c0-2.0957-1.2597-3.9824-3.1973-4.7789-1.9319-.8021-4.1575-.3559-5.6375 1.1241s-1.9206 3.7057-1.1185 5.6376 2.6888 3.1972 4.7789 3.1972c2.8583 0 5.1744-2.316 5.1744-5.1743zm-8.0892 0c0-1.1806.7118-2.2426 1.802-2.6945s2.3386-.2033 3.1747.6327c.836.836 1.0845 2.0901.6326 3.1747-.4519 1.0902-1.5139 1.8019-2.6945 1.8019-1.5873-.0282-2.864-1.3274-2.8696-2.9148z"/></g><path d="m39.455692 30.414056c-1.0875.02272-2.152364.295719-3.112506.800803-.336722-.618828-.764472-1.18312-1.265044-1.674509-1.601767-1.588153-3.858772-2.329828-6.093061-1.997697-2.234289.327619-4.177289 1.688203-5.255767 3.672206-1.069375-.546006-2.257006-.823601-3.458331-.800803-1.924875.07274-3.740516.887319-5.06928 2.284314-1.328683 1.392402-2.056745 3.249047-2.03862 5.16933v3.485639c0 .505083.405034.910117.910117.910117s.910117-.405034.910117-.910117v-3.485639c-.041-3.007864 2.316214-5.506053 5.323997-5.633491.955631-.0228 1.897567.209283 2.73035.673444-.177464.655319-.268492 1.333275-.273083 2.011311v4.896328c0 1.35148 1.096683 2.448164 2.448164 2.448164 1.35148 0 2.448163-1.096684 2.448163-2.448164v-2.156956c-.0091-1.952102-.805394-3.81785-2.211491-5.16933l-.254878-.236592c.773575-1.54715 2.243392-2.625628 3.9498-2.894119 1.706408-.268492 3.440206.300311 4.650633 1.528944.42767.409545.778087.891911 1.046578 1.419792-1.592664 1.428814-2.498189 3.467433-2.493678 5.606183v1.947592c0 1.35148 1.096684 2.448164 2.448164 2.448164 1.351481 0 2.448164-1.096684 2.448164-2.448164v-5.151125c.0045-.614317-.07282-1.228634-.227569-1.820234.75545-.42775 1.606358-.664341 2.475472-.682547 1.456203-.02272 2.8623.536984 3.904286 1.556253 1.042067 1.014758 1.624564 2.411753 1.619972 3.867875v3.722311c0 .505083.405034.910117.910117.910117s.910117-.405034.910117-.910117v-3.695003c0-1.947591-.778167-3.813258-2.17057-5.182944-1.387891-1.369686-3.262741-2.125056-5.210333-2.097747zm-13.651347 7.280691v2.156956c0 .345825-.282187.627931-.628012.627931s-.62793-.282106-.62793-.627931v-5.615286c.814497.95555 1.269555 2.165978 1.28325 3.421919zm9.656033 2.120545c0 .345825-.282106.62793-.627931.62793s-.62793-.282105-.62793-.62793v-1.947592c0-1.292353.436772-2.552805 1.237655-3.567564v.409545z" fill="#fcf3e4"/></svg>
