<svg fill="none" viewBox="0 0 60 60" xmlns="http://www.w3.org/2000/svg"><path d="m.81081081.81081081h58.37837819v58.37837819h-58.37837819z" stroke="#fff" stroke-width="1.62162"/><g fill="#f77c47" stroke-width="1.23333" transform="scale(.81081081)"><path d="m42.1744 26.8942c0-2.0901-1.2597-3.9825-3.1973-4.779-1.9319-.7965-4.1575-.3559-5.6375 1.1241s-1.9206 3.7057-1.1185 5.6376c.7965 1.9376 2.6889 3.1973 4.7789 3.1973 2.8527-.0057 5.1687-2.3217 5.1744-5.1744zm-8.0892 0c0-1.1807.7118-2.2426 1.7964-2.6945 1.0902-.452 2.3442-.2034 3.1746.6326.8361.8361 1.0846 2.0901.6327 3.1747-.4519 1.0902-1.5139 1.802-2.6945 1.802-1.6043-.0057-2.9092-1.3106-2.9148-2.9148z"/><path d="m48.9077 35.7289c2.0957.017 3.9994-1.2314 4.8128-3.1633.8191-1.9319.3841-4.1632-1.0902-5.6545-1.4744-1.4913-3.7057-1.9376-5.6432-1.1411-1.9376.7965-3.2029 2.6889-3.2029 4.7846 0 2.8414 2.2878 5.1517 5.1291 5.1743zm0-8.0891c1.1863-.017 2.2595.6778 2.7227 1.7681.4632 1.0902.226 2.3499-.6044 3.1916-.8304.8416-2.0901 1.1015-3.1803.6552-1.0959-.4462-1.8076-1.5139-1.8076-2.6945.0056-1.593 1.2823-2.8865 2.8696-2.9148z"/><path d="m30.2213 30.5546c0-2.0957-1.2597-3.9824-3.1973-4.7789-1.9319-.8021-4.1575-.3559-5.6375 1.1241s-1.9206 3.7057-1.1185 5.6376 2.6888 3.1972 4.7789 3.1972c2.8583 0 5.1744-2.316 5.1744-5.1743zm-8.0892 0c0-1.1806.7118-2.2426 1.802-2.6945s2.3386-.2033 3.1747.6327c.836.836 1.0845 2.0901.6326 3.1747-.4519 1.0902-1.5139 1.8019-2.6945 1.8019-1.5873-.0282-2.864-1.3274-2.8696-2.9148z"/></g><path d="m39.517378 30.416757c-1.094594.02286-2.166405.297648-3.13281.806027-.338919-.622865-.76946-1.190838-1.273298-1.685433-1.612216-1.598513-3.883946-2.345027-6.132811-2.010729-2.248864.329756-4.20454 1.699216-5.290054 3.696162-1.076351-.549568-2.271729-.828973-3.480892-.806027-1.937432.07322-3.764918.893108-5.102351 2.299216-1.337351 1.401486-2.070162 3.270243-2.051919 5.203054v3.508378c0 .508379.407676.916054.916054.916054.508379 0 .916054-.407675.916054-.916054v-3.508378c-.04127-3.027486 2.331325-5.541973 5.35873-5.670243.961865-.02295 1.909946.210648 2.748162.677838-.178621.659594-.270243 1.341973-.274865 2.024432v4.92827c0 1.360298 1.103838 2.464135 2.464135 2.464135 1.360298 0 2.464136-1.103837 2.464136-2.464135v-2.171027c-.009163-1.964838-.810649-3.842756-2.225919-5.203054l-.256541-.238135c.778622-1.557243 2.258027-2.642757 3.975568-2.913 1.71754-.270243 3.462648.30227 4.680973 1.538919.430459.412216.783162.89773 1.053405 1.429054-1.603054 1.438135-2.514486 3.490054-2.509946 5.642757v1.960297c0 1.360297 1.103838 2.464135 2.464135 2.464135 1.360298 0 2.464135-1.103838 2.464135-2.464135v-5.18473c.0045-.618324-.0733-1.236648-.229054-1.832108.760379-.43054 1.616838-.668675 2.491622-.687 1.465703-.02287 2.880973.540487 3.929757 1.566406 1.048865 1.021378 1.635162 2.427486 1.63054 3.893108v3.746594c0 .508379.407676.916054.916054.916054.508379 0 .916054-.407675.916054-.916054v-3.719108c0-1.960297-.783243-3.838135-2.184729-5.216756-1.396946-1.378622-3.284027-2.138919-5.244325-2.111433zm-13.740405 7.328189v2.171027c0 .348081-.284027.632027-.632108.632027s-.632027-.283946-.632027-.632027v-5.651919c.819811.961784 1.277838 2.180108 1.291621 3.444243zm9.719027 2.134378c0 .348081-.283946.632027-.632027.632027s-.632027-.283946-.632027-.632027v-1.960297c0-1.300784.439622-2.569459 1.24573-3.590838v.412216z" fill="#fff" stroke-width=".999997"/></svg>
