<svg data-name="Layer 1" version="1.1" viewBox="0 0 565 365" xmlns="http://www.w3.org/2000/svg"><defs><style>.cls-1{stroke:#19455e}.cls-1,.cls-2{stroke-linecap:round;stroke-width:3px}.cls-1,.cls-2,.cls-3{fill:none}.cls-1,.cls-2,.cls-3,.cls-4{stroke-miterlimit:10}.cls-2,.cls-3{stroke:#14313f}.cls-5{font-size:14.04px}.cls-5,.cls-6,.cls-7{fill:#18465e}.cls-5,.cls-7{font-family:Poppins-Bold,Poppins;font-weight:700}.cls-8{fill:#00b6af}.cls-9{fill:#ffd647}.cls-10{fill:#a7a9ac}.cls-11{fill:#14313f}.cls-12{fill:#19455e}.cls-7{font-size:14px}.cls-3{stroke-width:4px}.cls-13{opacity:.8}.cls-4{fill:#f15a24;stroke:#f15a24;stroke-width:.75px}</style></defs><rect width="565" height="365" fill="#fff" stroke-linecap="round" stroke-width="1.002" style="font-variation-settings:'wght' 300"/><g class="cls-13"><rect class="cls-10" x="260.39" y="224.89" width=".13" height="73.71"/><rect class="cls-10" x="270.93" y="224.89" width=".13" height="73.71"/><rect class="cls-10" x="281.47" y="224.89" width=".13" height="73.71"/><rect class="cls-10" x="292.01" y="224.89" width=".13" height="73.71"/><rect class="cls-10" x="302.55" y="224.89" width=".13" height="73.71"/><rect class="cls-10" x="313.09" y="224.89" width=".13" height="73.71"/><rect class="cls-10" x="323.62" y="224.89" width=".13" height="73.71"/><rect class="cls-10" x="334.16" y="224.89" width=".13" height="73.71"/><rect class="cls-10" x="344.7" y="224.89" width=".13" height="73.71"/></g><g class="cls-13"><rect class="cls-10" x="253.3" y="235.62" width="99.04" height=".13"/><rect class="cls-10" x="253.3" y="246.16" width="99.04" height=".13"/><rect class="cls-10" x="253.3" y="256.7" width="99.04" height=".13"/><rect class="cls-10" x="253.3" y="267.24" width="99.04" height=".13"/><rect class="cls-10" x="253.3" y="277.78" width="99.04" height=".13"/><rect class="cls-10" x="253.3" y="288.32" width="99.04" height=".13"/></g><g class="cls-13"><rect class="cls-10" x="154.6" y="18.25" width=".13" height="73.71"/><rect class="cls-10" x="165.14" y="18.25" width=".13" height="73.71"/><rect class="cls-10" x="175.67" y="18.25" width=".13" height="73.71"/><rect class="cls-10" x="186.21" y="18.25" width=".13" height="73.71"/><rect class="cls-10" x="196.75" y="18.25" width=".13" height="73.71"/><rect class="cls-10" x="207.29" y="18.25" width=".13" height="73.71"/><rect class="cls-10" x="217.83" y="18.25" width=".13" height="73.71"/><rect class="cls-10" x="228.37" y="18.25" width=".13" height="73.71"/><rect class="cls-10" x="238.9" y="18.25" width=".13" height="73.71"/></g><g class="cls-13"><rect class="cls-10" x="147.51" y="28.99" width="99.04" height=".13"/><rect class="cls-10" x="147.51" y="39.53" width="99.04" height=".13"/><rect class="cls-10" x="147.51" y="50.06" width="99.04" height=".13"/><rect class="cls-10" x="147.51" y="60.6" width="99.04" height=".13"/><rect class="cls-10" x="147.51" y="71.14" width="99.04" height=".13"/><rect class="cls-10" x="147.51" y="81.68" width="99.04" height=".13"/></g><g class="cls-13"><rect class="cls-10" x="126.57" y="306.79" width=".13" height="42.81"/><rect class="cls-10" x="137.11" y="306.79" width=".13" height="42.81"/><rect class="cls-10" x="147.64" y="306.79" width=".13" height="42.81"/></g><g class="cls-13"><rect class="cls-10" x="118.54" y="312.93" width="36.75" height=".13"/><rect class="cls-10" x="118.54" y="323.46" width="36.75" height=".13"/><rect class="cls-10" x="118.54" y="334.01" width="36.75" height=".13"/><rect class="cls-10" x="118.54" y="344.54" width="36.75" height=".13"/></g><circle class="cls-12" cx="60.06" cy="60.72" r="29.4"/><polygon class="cls-9" points="253.3 110.74 253.3 94.45 264.97 87.45 278.87 94.44 278.42 110.74 266.31 117.74"/><polygon class="cls-9" points="329.1 237.78 329.1 221.48 340.77 214.49 354.67 221.48 354.22 237.78 342.11 244.78"/><polygon class="cls-9" points="177.66 237.76 177.66 221.47 189.33 214.47 203.23 221.46 202.78 237.76 190.67 244.76"/><text class="cls-7" transform="translate(236.54 180.41)"><tspan x="0" y="0">Provider</tspan><tspan x="-8.95" y="15">Ecosystem</tspan></text><path class="cls-6" d="m286.13 113.54-6.93-4v-13.99s0 0 0 0c0-0.07 0-0.15-0.03-0.22v-0.02c0-0.03-0.02-0.06-0.03-0.09v-0.02c-0.01-0.03-0.03-0.07-0.05-0.1l-0.06-0.09-0.01-0.01c-0.02-0.03-0.04-0.05-0.06-0.07l-0.01-0.01c-0.05-0.05-0.11-0.1-0.18-0.14l-12.11-6.99v-4.92c0-0.49-0.4-0.89-0.89-0.89s-0.89 0.4-0.89 0.89v4.92l-12.11 6.99s0 0 0 0c-0.06 0.04-0.12 0.08-0.18 0.13l-0.01 0.01c-0.02 0.02-0.04 0.05-0.06 0.07l-0.01 0.01-0.06 0.09c-0.02 0.03-0.03 0.06-0.05 0.1v0.02l-0.03 0.09v0.02c-0.02 0.07-0.03 0.15-0.03 0.22v13.99l-6.93 4c-0.43 0.25-0.57 0.79-0.33 1.22 0.16 0.29 0.46 0.45 0.77 0.45 0.15 0 0.3-0.04 0.44-0.12l6.93-4 12.11 6.99s0 0 0.01 0c0.03 0.02 0.06 0.03 0.09 0.04h0.03c0.02 0 0.05 0.02 0.07 0.02 0.01 0 0.03 0 0.04 0.01 0.02 0 0.04 0 0.06 0.01h0.04 0.07 0.03s0.02 0 0.03 0h0.07 0.04c0.02 0 0.04 0 0.06-0.01 0.01 0 0.03 0 0.04-0.01 0.02 0 0.05-0.02 0.07-0.02h0.03c0.03-0.01 0.06-0.03 0.09-0.04h0.01l12.11-6.99 6.93 4c0.14 0.08 0.29 0.12 0.44 0.12 0.31 0 0.61-0.16 0.77-0.45 0.25-0.43 0.1-0.97-0.33-1.22zm-20.38-24.21 10.78 6.22-10.78 6.22-10.78-6.22 10.78-6.22zm-11.67 7.77 8.08 4.67 2.7 1.56v12.45l-10.78-6.22v-12.45zm12.56 18.67v-12.45l2.69-1.56 8.08-4.67v12.45l-10.78 6.22z"/><path class="cls-6" d="m362.21 240.22-6.93-4v-13.99s0 0 0 0c0-0.07 0-0.15-0.03-0.22v-0.02c0-0.03-0.02-0.06-0.03-0.09v-0.02c-0.01-0.03-0.03-0.07-0.05-0.1l-0.06-0.09-0.01-0.01c-0.02-0.03-0.04-0.05-0.06-0.07l-0.01-0.01c-0.05-0.05-0.11-0.1-0.18-0.14l-12.11-6.99v-4.92c0-0.49-0.4-0.89-0.89-0.89s-0.89 0.4-0.89 0.89v4.92l-12.11 6.99s0 0 0 0c-0.06 0.04-0.12 0.08-0.18 0.13l-0.01 0.01c-0.02 0.02-0.04 0.05-0.06 0.07l-0.01 0.01-0.06 0.09c-0.02 0.03-0.03 0.06-0.05 0.1v0.02l-0.03 0.09v0.02c-0.02 0.07-0.03 0.15-0.03 0.22v13.99l-6.93 4c-0.43 0.25-0.57 0.79-0.33 1.22 0.16 0.29 0.46 0.45 0.77 0.45 0.15 0 0.3-0.04 0.44-0.12l6.93-4 12.11 6.99s0 0 0.01 0c0.03 0.02 0.06 0.03 0.09 0.04h0.03c0.02 0 0.05 0.02 0.07 0.02 0.01 0 0.03 0 0.04 0.01 0.02 0 0.04 0 0.06 0.01h0.04 0.07 0.03s0.02 0 0.03 0h0.07 0.04c0.02 0 0.04 0 0.06-0.01 0.01 0 0.03 0 0.04-0.01 0.02 0 0.05-0.02 0.07-0.02h0.03c0.03-0.01 0.06-0.03 0.09-0.04h0.01l12.11-6.99 6.93 4c0.14 0.08 0.29 0.12 0.44 0.12 0.31 0 0.61-0.16 0.77-0.45 0.25-0.43 0.1-0.97-0.33-1.22zm-20.38-24.21 10.78 6.22-10.78 6.22-10.78-6.22 10.78-6.22zm-11.67 7.77 8.08 4.67 2.7 1.56v12.45l-10.78-6.22v-12.45zm12.56 18.67v-12.45l2.69-1.56 8.08-4.67v12.45l-10.78 6.22z"/><path class="cls-6" d="m210.6 240.22-6.93-4v-13.99s0 0 0 0c0-0.07 0-0.15-0.03-0.22v-0.02c0-0.03-0.02-0.06-0.03-0.09v-0.02c-0.01-0.03-0.03-0.07-0.05-0.1l-0.06-0.09-0.01-0.01c-0.02-0.03-0.04-0.05-0.06-0.07l-0.01-0.01c-0.05-0.05-0.11-0.1-0.18-0.14l-12.11-6.99v-4.92c0-0.49-0.4-0.89-0.89-0.89s-0.89 0.4-0.89 0.89v4.92l-12.11 6.99s0 0 0 0c-0.06 0.04-0.12 0.08-0.18 0.13l-0.01 0.01c-0.02 0.02-0.04 0.05-0.06 0.07l-0.01 0.01-0.06 0.09c-0.02 0.03-0.03 0.06-0.05 0.1v0.02l-0.03 0.09v0.02c-0.02 0.07-0.03 0.15-0.03 0.22v13.99l-6.93 4c-0.43 0.25-0.57 0.79-0.33 1.22 0.16 0.29 0.46 0.45 0.77 0.45 0.15 0 0.3-0.04 0.44-0.12l6.93-4 12.11 6.99s0 0 0.01 0c0.03 0.02 0.06 0.03 0.09 0.04h0.03c0.02 0 0.05 0.02 0.07 0.02 0.01 0 0.03 0 0.04 0.01 0.02 0 0.04 0 0.06 0.01h0.04 0.07 0.03s0.02 0 0.03 0h0.07 0.04c0.02 0 0.04 0 0.06-0.01 0.01 0 0.03 0 0.04-0.01 0.02 0 0.05-0.02 0.07-0.02h0.03c0.03-0.01 0.06-0.03 0.09-0.04h0.01l12.11-6.99 6.93 4c0.14 0.08 0.29 0.12 0.44 0.12 0.31 0 0.61-0.16 0.77-0.45 0.25-0.43 0.1-0.97-0.33-1.22zm-20.38-24.21 10.78 6.22-10.78 6.22-10.78-6.22 10.78-6.22zm-11.67 7.77 8.08 4.67 2.7 1.56v12.45l-10.78-6.22v-12.45zm12.56 18.67v-12.45l2.69-1.56 8.08-4.67v12.45l-10.78 6.22z"/><path class="cls-3" d="m177.34 209.04c-2.19-7.24-3.35-14.88-3.35-22.76 0-36.56 25.11-67.73 60.33-79.69"/><polygon class="cls-11" points="227.73 126.77 224.15 124.99 232.96 107.35 214.72 99.85 216.24 96.14 238.46 105.28"/><path class="cls-3" d="m355.56 204.85c1.45-5.98 2.21-12.2 2.21-18.58 0-37.98-27.09-70.14-64.47-81"/><polygon class="cls-11" points="373.9 194.98 371.56 191.73 355.57 203.28 345.22 186.49 341.81 188.59 354.43 209.04"/><path class="cls-3" d="m208.59 252.68c4.46 4.24 9.46 8.01 14.99 11.2 32.9 18.97 74.29 11.57 102.37-15.38"/><polygon class="cls-11" points="207.99 273.5 211.97 273.1 209.95 253.48 229.67 252.9 229.55 248.9 205.54 249.61"/><polyline class="cls-2" points="339.19 116.1 374.37 92.58 357.53 82.75 387.71 60.99"/><polyline class="cls-2" points="177.32 243.73 142.14 267.25 158.98 277.08 128.8 298.84"/><text class="cls-5" transform="translate(388.72 77.95)"><tspan x="0" y="0">USER</tspan></text><text class="cls-5" transform="translate(64.08 318.25)"><tspan x="0" y="0">SOCIAL</tspan><tspan x="1.17" y="14">GRAPH</tspan></text><line class="cls-2" x1="84.9" x2="161.16" y1="98.7" y2="140.36"/><polygon class="cls-11" points="87.74 114.23 90.59 113.29 85.91 99.25 100.25 95.61 99.51 92.7 82.05 97.14"/><line class="cls-2" x1="368.18" x2="408.7" y1="243.46" y2="267.35"/><polygon class="cls-11" points="393.9 272.87 393.26 269.94 407.7 266.77 403.49 252.59 406.36 251.73 411.5 269"/><line class="cls-2" x1="109.77" x2="179.19" y1="92.58" y2="129.65"/><polygon class="cls-11" points="164.65 135.79 163.88 132.89 178.18 129.11 173.36 115.12 176.2 114.14 182.06 131.18"/><text class="cls-5" transform="translate(471.84 286.7)"><tspan x="0" y="0">STORE</tspan><tspan x="0" y="14.04">USER</tspan><tspan x="0" y="28.07">CONTENT</tspan></text><path class="cls-12" d="m424.47 275.76h5.57v11.14h-4.77v-2.39c0-2.2-1.78-3.98-3.98-3.98h-12.73c-2.2 0-3.98 1.78-3.98 3.98v6.36c0 2.2 1.78 3.98 3.98 3.98h5.57v8.75c0 2.2 1.78 3.98 3.98 3.98h18.29v2.39c0 2.2 1.78 3.98 3.98 3.98h12.73c2.2 0 3.98-1.78 3.98-3.98v-6.36c0-2.2-1.78-3.98-3.98-3.98h-5.57v-4.77h5.57c2.2 0 3.98-1.78 3.98-3.98v-6.36c0-2.2-1.78-3.98-3.98-3.98h-12.73c-2.2 0-3.98 1.78-3.98 3.98v2.39h-4.77v-11.14h5.57m-28.64 17.5c-1.32 0-2.39-1.07-2.39-2.39v-6.36c0-1.32 1.07-2.39 2.39-2.39h12.73c1.32 0 2.39 1.07 2.39 2.39v6.36c0 1.32-1.07 2.39-2.39 2.39h-12.73zm27.84 10.34v2.39h-18.29c-1.32 0-2.39-1.07-2.39-2.39v-8.75h5.57c2.2 0 3.98-1.78 3.98-3.98v-2.39h11.14v2.39c0 2.2 1.78 3.98 3.98 3.98h5.57v4.77h-5.57c-2.2 0-3.98 1.78-3.98 3.98zm16.7-2.39c1.32 0 2.39 1.07 2.39 2.39v6.36c0 1.32-1.07 2.39-2.39 2.39h-12.73c-1.32 0-2.39-1.07-2.39-2.39v-6.36c0-1.32 1.07-2.39 2.39-2.39h12.73zm2.39-10.34c0 1.32-1.07 2.39-2.39 2.39h-12.73c-1.32 0-2.39-1.07-2.39-2.39v-6.36c0-1.32 1.07-2.39 2.39-2.39h12.73c1.32 0 2.39 1.07 2.39 2.39v6.36z"/><path class="cls-12" d="m418.11,286.9h-6.36c-.44,0-.8.36-.8.8s.36.8.8.8h6.36c.44,0,.8-.36.8-.8s-.36-.8-.8-.8Z"/><path class="cls-12" d="m449.92,286.9h-6.36c-.44,0-.8.36-.8.8s.36.8.8.8h6.36c.44,0,.8-.36.8-.8s-.36-.8-.8-.8Z"/><path class="cls-12" d="m443.56,307.58h6.36c.44,0,.8-.36.8-.8s-.36-.8-.8-.8h-6.36c-.44,0-.8.36-.8.8s.36.8.8.8Z"/><polygon class="cls-8" points="49.77 43.34 49.77 81.08 56.4 81.08 56.4 69.36 69.71 63.66 69.55 56.92 56.46 62.45 56.46 49.64 73.33 49.64 73.33 43.34 49.77 43.34"/><path class="cls-6" d="m101.41,284.42c-1.41.03-2.8.38-4.04,1.04-.44-.8-.99-1.54-1.64-2.18-2.08-2.06-5.02-3.02-7.92-2.6-2.9.43-5.43,2.2-6.83,4.77-1.39-.71-2.93-1.07-4.49-1.04-2.5.09-4.86,1.15-6.59,2.96-1.72,1.81-2.67,4.22-2.65,6.72v4.53c0,.65.53,1.18,1.18,1.18s1.18-.53,1.18-1.18v-4.53c-.06-3.91,3.01-7.15,6.92-7.32,1.24-.03,2.46.27,3.55.88-.23.85-.35,1.73-.35,2.61v6.36c0,1.75,1.42,3.18,3.18,3.18s3.18-1.42,3.18-3.18v-2.8c0-2.53-1.05-4.96-2.87-6.71l-.33-.31c1-2.01,2.91-3.41,5.13-3.76,2.22-.35,4.47.39,6.04,1.99.55.53,1.01,1.16,1.36,1.84-2.07,1.86-3.24,4.51-3.24,7.28v2.53h0c0,1.75,1.42,3.18,3.18,3.18s3.18-1.42,3.18-3.18v-6.69c0-.8-.09-1.59-.3-2.36.98-.56,2.09-.86,3.21-.89,1.89-.03,3.72.7,5.07,2.02,1.35,1.32,2.11,3.13,2.1,5.02v4.84c0,.65.53,1.18,1.18,1.18s1.18-.53,1.18-1.18v-4.8c0-2.53-1.01-4.96-2.82-6.73-1.8-1.78-4.24-2.76-6.77-2.72v.05Zm-17.73,9.46v2.8c0,.45-.36.82-.82.82s-.82-.36-.82-.82v-7.29c1.06,1.24,1.65,2.81,1.67,4.45l-.03.05Zm12.54,2.75c0,.45-.36.82-.82.82s-.82-.36-.82-.82v-2.53c0-1.68.57-3.32,1.61-4.63v.53l.02,6.63Z"/><path class="cls-4" d="m89.06 277.48c-3.63 0-6.59-2.96-6.59-6.59s2.96-6.59 6.59-6.59 6.59 2.96 6.59 6.59-2.96 6.59-6.59 6.59zm0-11.98c-2.97 0-5.39 2.42-5.39 5.39s2.42 5.39 5.39 5.39 5.39-2.42 5.39-5.39-2.42-5.39-5.39-5.39z"/><path class="cls-4" d="m102.07 281.61c-2.46 0-4.46-2-4.46-4.46s2-4.46 4.46-4.46 4.46 2 4.46 4.46-2 4.46-4.46 4.46zm0-8.1c-2.01 0-3.64 1.63-3.64 3.64s1.63 3.64 3.64 3.64 3.64-1.63 3.64-3.64-1.63-3.64-3.64-3.64z"/><path class="cls-4" d="m75.39 281.47c-2.46 0-4.46-2-4.46-4.46s2-4.46 4.46-4.46 4.46 2 4.46 4.46-2 4.46-4.46 4.46zm0-8.1c-2.01 0-3.64 1.63-3.64 3.64s1.63 3.64 3.64 3.64 3.64-1.63 3.64-3.64-1.63-3.64-3.64-3.64z"/><path class="cls-4" d="m405.83 38.69c-3.63 0-6.59-2.96-6.59-6.59s2.96-6.59 6.59-6.59 6.59 2.96 6.59 6.59-2.96 6.59-6.59 6.59zm0-11.98c-2.97 0-5.39 2.42-5.39 5.39s2.42 5.39 5.39 5.39 5.39-2.42 5.39-5.39-2.42-5.39-5.39-5.39z"/><path class="cls-1" d="m397.5,60v-8.56s-.07-8.53,8.6-8.53"/><path class="cls-1" d="m414.5,60v-8.56s.07-8.53-8.6-8.53"/><path class="cls-4" d="m429.83 251.69c-3.63 0-6.59-2.96-6.59-6.59s2.96-6.59 6.59-6.59 6.59 2.96 6.59 6.59-2.96 6.59-6.59 6.59zm0-11.98c-2.97 0-5.39 2.42-5.39 5.39s2.42 5.39 5.39 5.39 5.39-2.42 5.39-5.39-2.42-5.39-5.39-5.39z"/><path class="cls-1" d="m421.5,273v-8.56s-.07-8.53,8.6-8.53"/><path class="cls-1" d="m438.5,273v-8.56s.07-8.53-8.6-8.53"/></svg>