<svg viewBox="0 0 565 365" xmlns="http://www.w3.org/2000/svg"><g fill="#a7a9ac" opacity=".8"><path d="m260.39 224.89h.13v73.71h-.13z"/><path d="m270.93 224.89h.13v73.71h-.13z"/><path d="m281.47 224.89h.13v73.71h-.13z"/><path d="m292.01 224.89h.13v73.71h-.13z"/><path d="m302.55 224.89h.13v73.71h-.13z"/><path d="m313.09 224.89h.13v73.71h-.13z"/><path d="m323.62 224.89h.13v73.71h-.13z"/><path d="m334.16 224.89h.13v73.71h-.13z"/><path d="m344.7 224.89h.13v73.71h-.13z"/></g><g fill="#a7a9ac" opacity=".8"><path d="m253.3 235.62h99.04v.13h-99.04z"/><path d="m253.3 246.16h99.04v.13h-99.04z"/><path d="m253.3 256.7h99.04v.13h-99.04z"/><path d="m253.3 267.24h99.04v.13h-99.04z"/><path d="m253.3 277.78h99.04v.13h-99.04z"/><path d="m253.3 288.32h99.04v.13h-99.04z"/></g><g fill="#a7a9ac" opacity=".8"><path d="m154.6 18.25h.13v73.71h-.13z"/><path d="m165.14 18.25h.13v73.71h-.13z"/><path d="m175.67 18.25h.13v73.71h-.13z"/><path d="m186.21 18.25h.13v73.71h-.13z"/><path d="m196.75 18.25h.13v73.71h-.13z"/><path d="m207.29 18.25h.13v73.71h-.13z"/><path d="m217.83 18.25h.13v73.71h-.13z"/><path d="m228.37 18.25h.13v73.71h-.13z"/><path d="m238.9 18.25h.13v73.71h-.13z"/></g><g fill="#a7a9ac" opacity=".8"><path d="m147.51 28.99h99.04v.13h-99.04z"/><path d="m147.51 39.53h99.04v.13h-99.04z"/><path d="m147.51 50.06h99.04v.13h-99.04z"/><path d="m147.51 60.6h99.04v.13h-99.04z"/><path d="m147.51 71.14h99.04v.13h-99.04z"/><path d="m147.51 81.68h99.04v.13h-99.04z"/></g><g fill="#a7a9ac" opacity=".8"><path d="m126.57 306.79h.13v42.81h-.13z"/><path d="m137.11 306.79h.13v42.81h-.13z"/><path d="m147.64 306.79h.13v42.81h-.13z"/></g><g fill="#a7a9ac" opacity=".8"><path d="m118.54 312.93h36.75v.13h-36.75z"/><path d="m118.54 323.46h36.75v.13h-36.75z"/><path d="m118.54 334.01h36.75v.13h-36.75z"/><path d="m118.54 344.54h36.75v.13h-36.75z"/></g><circle cx="60.06" cy="60.72" fill="#00b6af" r="29.4"/><path d="m253.3 110.74v-16.29l11.67-7 13.9 6.99-.45 16.3-12.11 7z" fill="#ffd647"/><path d="m329.1 237.78v-16.3l11.67-6.99 13.9 6.99-.45 16.3-12.11 7z" fill="#ffd647"/><path d="m177.66 237.76v-16.29l11.67-7 13.9 6.99-.45 16.3-12.11 7z" fill="#ffd647"/><text fill="#00b6af" font-family="Poppins-Bold, Poppins" font-size="14" font-weight="700" transform="translate(236.54 180.41)"><tspan x="0" y="0">Provider</tspan><tspan x="-8.95" y="15">Ecosystem</tspan></text><path d="m286.13 113.54-6.93-4v-13.99s0 0 0 0c0-.07 0-.15-.03-.22 0 0 0-.01 0-.02 0-.03-.02-.06-.03-.09 0 0 0-.01 0-.02-.01-.03-.03-.07-.05-.1s-.04-.06-.06-.09c0 0 0 0-.01-.01-.02-.03-.04-.05-.06-.07 0 0 0 0-.01-.01-.05-.05-.11-.1-.18-.14l-12.11-6.99v-4.92c0-.49-.4-.89-.89-.89s-.89.4-.89.89v4.92l-12.11 6.99s0 0 0 0c-.06.04-.12.08-.18.13 0 0 0 0-.01.01-.02.02-.04.05-.06.07 0 0 0 0-.01.01-.02.03-.04.06-.06.09s-.03.06-.05.1v.02c-.01.03-.02.06-.03.09v.02c-.02.07-.03.15-.03.22v13.99l-6.93 4c-.43.25-.57.79-.33 1.22.16.29.46.45.77.45.15 0 .3-.04.44-.12l6.93-4 12.11 6.99s0 0 .01 0c.03.02.06.03.09.04h.03c.02 0 .05.02.07.02.01 0 .03 0 .04.01.02 0 .04 0 .06.01h.04.07.03s.02 0 .03 0h.07.04c.02 0 .04 0 .06-.01.01 0 .03 0 .04-.01.02 0 .05-.02.07-.02h.03c.03-.01.06-.03.09-.04h.01l12.11-6.99 6.93 4c.14.08.29.12.44.12.31 0 .61-.16.77-.45.25-.43.1-.97-.33-1.22zm-20.38-24.21 10.78 6.22-10.78 6.22-10.78-6.22zm-11.67 7.77 8.08 4.67 2.7 1.56v12.45l-10.78-6.22v-12.45zm12.56 18.67v-12.45l2.69-1.56 8.08-4.67v12.45l-10.78 6.22z" fill="#fff"/><path d="m362.21 240.22-6.93-4v-13.99s0 0 0 0c0-.07 0-.15-.03-.22 0 0 0-.01 0-.02 0-.03-.02-.06-.03-.09 0 0 0-.01 0-.02-.01-.03-.03-.07-.05-.1s-.04-.06-.06-.09c0 0 0 0-.01-.01-.02-.03-.04-.05-.06-.07 0 0 0 0-.01-.01-.05-.05-.11-.1-.18-.14l-12.11-6.99v-4.92c0-.49-.4-.89-.89-.89s-.89.4-.89.89v4.92l-12.11 6.99s0 0 0 0c-.06.04-.12.08-.18.13 0 0 0 0-.01.01-.02.02-.04.05-.06.07 0 0 0 0-.01.01-.02.03-.04.06-.06.09s-.03.06-.05.1v.02c-.01.03-.02.06-.03.09v.02c-.02.07-.03.15-.03.22v13.99l-6.93 4c-.43.25-.57.79-.33 1.22.16.29.46.45.77.45.15 0 .3-.04.44-.12l6.93-4 12.11 6.99s0 0 .01 0c.03.02.06.03.09.04h.03c.02 0 .05.02.07.02.01 0 .03 0 .04.01.02 0 .04 0 .06.01h.04.07.03s.02 0 .03 0h.07.04c.02 0 .04 0 .06-.01.01 0 .03 0 .04-.01.02 0 .05-.02.07-.02h.03c.03-.01.06-.03.09-.04h.01l12.11-6.99 6.93 4c.14.08.29.12.44.12.31 0 .61-.16.77-.45.25-.43.1-.97-.33-1.22zm-20.38-24.21 10.78 6.22-10.78 6.22-10.78-6.22zm-11.67 7.77 8.08 4.67 2.7 1.56v12.45l-10.78-6.22v-12.45zm12.56 18.67v-12.45l2.69-1.56 8.08-4.67v12.45l-10.78 6.22z" fill="#fff"/><path d="m210.6 240.22-6.93-4v-13.99s0 0 0 0c0-.07 0-.15-.03-.22 0 0 0-.01 0-.02 0-.03-.02-.06-.03-.09 0 0 0-.01 0-.02-.01-.03-.03-.07-.05-.1s-.04-.06-.06-.09c0 0 0 0-.01-.01-.02-.03-.04-.05-.06-.07 0 0 0 0-.01-.01-.05-.05-.11-.1-.18-.14l-12.11-6.99v-4.92c0-.49-.4-.89-.89-.89s-.89.4-.89.89v4.92l-12.11 6.99s0 0 0 0c-.06.04-.12.08-.18.13 0 0 0 0-.01.01-.02.02-.04.05-.06.07 0 0 0 0-.01.01-.02.03-.04.06-.06.09s-.03.06-.05.1v.02c-.01.03-.02.06-.03.09v.02c-.02.07-.03.15-.03.22v13.99l-6.93 4c-.43.25-.57.79-.33 1.22.16.29.46.45.77.45.15 0 .3-.04.44-.12l6.93-4 12.11 6.99s0 0 .01 0c.03.02.06.03.09.04h.03c.02 0 .05.02.07.02.01 0 .03 0 .04.01.02 0 .04 0 .06.01h.04.07.03s.02 0 .03 0h.07.04c.02 0 .04 0 .06-.01.01 0 .03 0 .04-.01.02 0 .05-.02.07-.02h.03c.03-.01.06-.03.09-.04h.01l12.11-6.99 6.93 4c.14.08.29.12.44.12.31 0 .61-.16.77-.45.25-.43.1-.97-.33-1.22zm-20.38-24.21 10.78 6.22-10.78 6.22-10.78-6.22zm-11.67 7.77 8.08 4.67 2.7 1.56v12.45l-10.78-6.22v-12.45zm12.56 18.67v-12.45l2.69-1.56 8.08-4.67v12.45l-10.78 6.22z" fill="#fff"/><path d="m216.24 96.14-1.53 3.7 15.16 6.23c-34.78 13.44-57.88 45.2-57.88 80.2 0 7.92 1.16 15.78 3.44 23.34l3.83-1.15c-2.17-7.19-3.27-14.65-3.27-22.18 0-33.52 22.31-63.94 55.84-76.67l-7.68 15.39 3.58 1.78 10.73-21.49-22.22-9.14z" fill="#fff"/><path d="m371.56 191.73-13.19 9.53c.93-4.93 1.4-9.95 1.4-14.98 0-38.14-26.49-71.46-65.91-82.92l-1.12 3.84c37.7 10.96 63.03 42.73 63.03 79.08 0 5.03-.5 10.04-1.47 14.95l-9.08-14.73-3.41 2.1 12.61 20.45 19.47-14.06-2.34-3.25z" fill="#fff"/><path d="m324.57 247.06c-28.32 27.18-68.5 33.25-99.99 15.09-4.35-2.51-8.44-5.45-12.21-8.74l17.3-.51-.12-4-24.01.71 2.45 23.89 3.98-.41-1.66-16.18c3.8 3.26 7.92 6.19 12.27 8.7 12.73 7.34 26.8 10.92 40.99 10.92 22.64 0 45.56-9.11 63.77-26.59l-2.77-2.89z" fill="#fff"/><path d="m339.19 117.6c-.48 0-.96-.23-1.25-.67-.46-.69-.28-1.62.41-2.08l33.19-22.19-16.77-9.78 32.05-23.11c.67-.48 1.61-.33 2.09.34s.33 1.61-.34 2.09l-28.31 20.41 16.92 9.87-37.18 24.86c-.26.17-.55.25-.83.25z" fill="#fff"/><path d="m128.8 300.34c-.47 0-.92-.22-1.22-.62-.48-.67-.33-1.61.34-2.09l28.31-20.41-16.92-9.87 37.18-24.86c.69-.46 1.62-.28 2.08.41s.28 1.62-.41 2.08l-33.19 22.19 16.77 9.78-32.05 23.11c-.26.19-.57.28-.88.28z" fill="#fff"/><text fill="#00b6af" font-family="Poppins-Bold, Poppins" font-size="14.04" font-weight="700" transform="translate(388.72 77.95)"><tspan x="0" y="0">USER</tspan></text><text fill="#00b6af" font-family="Poppins-Bold, Poppins" font-size="14.04" font-weight="700" transform="translate(64.08 318.25)"><tspan x="0" y="0">SOCIAL</tspan><tspan x="1.17" y="14">GRAPH</tspan></text><path d="m406.36 251.73-2.88.85 3.59 12.06-38.13-22.48c-.71-.42-1.63-.18-2.05.53s-.18 1.63.53 2.05l38.14 22.48-12.3 2.7.65 2.93 17.6-3.87-5.13-17.27z" fill="#fff"/><path d="m161.88 139.04-73.83-40.33 12.2-3.1-.74-2.91-17.46 4.44 5.7 17.09 2.85-.95-3.99-11.95 73.84 40.34c.23.12.47.18.72.18.53 0 1.04-.28 1.32-.78.4-.73.13-1.64-.6-2.04z" fill="#fff"/><path d="m176.2 114.14-2.84.97 4.1 11.9-66.98-35.77c-.73-.39-1.64-.11-2.03.62s-.11 1.64.62 2.03l66.99 35.77-12.17 3.22.77 2.9 17.42-4.61-5.86-17.04z" fill="#fff"/><text fill="#00b6af" font-family="Poppins-Bold, Poppins" font-size="14.04" font-weight="700" transform="translate(471.84 286.7)"><tspan x="0" y="0">STORE</tspan><tspan x="0" y="14.04">USER</tspan><tspan x="0" y="28.07">CONTENT</tspan></text><g fill="#fff"><path d="m424.47 275.76h5.57v11.14h-4.77v-2.39c0-2.2-1.78-3.98-3.98-3.98h-12.73c-2.2 0-3.98 1.78-3.98 3.98v6.36c0 2.2 1.78 3.98 3.98 3.98h5.57v8.75c0 2.2 1.78 3.98 3.98 3.98h18.29v2.39c0 2.2 1.78 3.98 3.98 3.98h12.73c2.2 0 3.98-1.78 3.98-3.98v-6.36c0-2.2-1.78-3.98-3.98-3.98h-5.57v-4.77h5.57c2.2 0 3.98-1.78 3.98-3.98v-6.36c0-2.2-1.78-3.98-3.98-3.98h-12.73c-2.2 0-3.98 1.78-3.98 3.98v2.39h-4.77v-11.14h5.57m-28.64 17.5c-1.32 0-2.39-1.07-2.39-2.39v-6.36c0-1.32 1.07-2.39 2.39-2.39h12.73c1.32 0 2.39 1.07 2.39 2.39v6.36c0 1.32-1.07 2.39-2.39 2.39zm27.84 10.34v2.39h-18.29c-1.32 0-2.39-1.07-2.39-2.39v-8.75h5.57c2.2 0 3.98-1.78 3.98-3.98v-2.39h11.14v2.39c0 2.2 1.78 3.98 3.98 3.98h5.57v4.77h-5.57c-2.2 0-3.98 1.78-3.98 3.98zm16.7-2.39c1.32 0 2.39 1.07 2.39 2.39v6.36c0 1.32-1.07 2.39-2.39 2.39h-12.73c-1.32 0-2.39-1.07-2.39-2.39v-6.36c0-1.32 1.07-2.39 2.39-2.39zm2.39-10.34c0 1.32-1.07 2.39-2.39 2.39h-12.73c-1.32 0-2.39-1.07-2.39-2.39v-6.36c0-1.32 1.07-2.39 2.39-2.39h12.73c1.32 0 2.39 1.07 2.39 2.39z"/><path d="m418.11 286.9h-6.36c-.44 0-.8.36-.8.8s.36.8.8.8h6.36c.44 0 .8-.36.8-.8s-.36-.8-.8-.8z"/><path d="m449.92 286.9h-6.36c-.44 0-.8.36-.8.8s.36.8.8.8h6.36c.44 0 .8-.36.8-.8s-.36-.8-.8-.8z"/><path d="m443.56 307.58h6.36c.44 0 .8-.36.8-.8s-.36-.8-.8-.8h-6.36c-.44 0-.8.36-.8.8s.36.8.8.8z"/><path d="m49.77 43.34v37.74h6.63v-11.72l13.31-5.7-.16-6.74-13.09 5.53v-12.81h16.87v-6.3z"/><path d="m101.41 284.42c-1.41.03-2.8.38-4.04 1.04-.44-.8-.99-1.54-1.64-2.18-2.08-2.06-5.02-3.02-7.92-2.6-2.9.43-5.43 2.2-6.83 4.77-1.39-.71-2.93-1.07-4.49-1.04-2.5.09-4.86 1.15-6.59 2.96-1.72 1.81-2.67 4.22-2.65 6.72v4.53c0 .65.53 1.18 1.18 1.18s1.18-.53 1.18-1.18v-4.53c-.06-3.91 3.01-7.15 6.92-7.32 1.24-.03 2.46.27 3.55.88-.23.85-.35 1.73-.35 2.61v6.36c0 1.75 1.42 3.18 3.18 3.18s3.18-1.42 3.18-3.18v-2.8c0-2.53-1.05-4.96-2.87-6.71l-.33-.31c1-2.01 2.91-3.41 5.13-3.76s4.47.39 6.04 1.99c.55.53 1.01 1.16 1.36 1.84-2.07 1.86-3.24 4.51-3.24 7.28v2.53c0 1.75 1.42 3.18 3.18 3.18s3.18-1.42 3.18-3.18v-6.69c0-.8-.09-1.59-.3-2.36.98-.56 2.09-.86 3.21-.89 1.89-.03 3.72.7 5.07 2.02s2.11 3.13 2.1 5.02v4.84c0 .65.53 1.18 1.18 1.18s1.18-.53 1.18-1.18v-4.8c0-2.53-1.01-4.96-2.82-6.73-1.8-1.78-4.24-2.76-6.77-2.72v.05zm-17.73 9.46v2.8c0 .45-.36.82-.82.82s-.82-.36-.82-.82v-7.29c1.06 1.24 1.65 2.81 1.67 4.45l-.03.05zm12.54 2.75c0 .45-.36.82-.82.82s-.82-.36-.82-.82v-2.53c0-1.68.57-3.32 1.61-4.63v.53l.02 6.63z"/><path d="m89.06 263.8c-3.91 0-7.09 3.18-7.09 7.09s3.18 7.09 7.09 7.09 7.09-3.18 7.09-7.09-3.18-7.09-7.09-7.09zm4.89 7.09c0 2.7-2.19 4.89-4.89 4.89s-4.89-2.19-4.89-4.89 2.19-4.89 4.89-4.89 4.89 2.19 4.89 4.89z"/><path d="m102.07 272.2c-2.73 0-4.96 2.22-4.96 4.96s2.22 4.96 4.96 4.96 4.96-2.22 4.96-4.96-2.22-4.96-4.96-4.96zm0 8.1c-1.73 0-3.14-1.41-3.14-3.14s1.41-3.14 3.14-3.14 3.14 1.41 3.14 3.14-1.41 3.14-3.14 3.14z"/><path d="m75.39 272.05c-2.73 0-4.96 2.22-4.96 4.96s2.22 4.96 4.96 4.96 4.96-2.22 4.96-4.96-2.22-4.96-4.96-4.96zm0 1.81c1.73 0 3.14 1.41 3.14 3.14s-1.41 3.14-3.14 3.14-3.14-1.41-3.14-3.14 1.41-3.14 3.14-3.14z"/><path d="m405.83 25.14c-3.84 0-6.97 3.12-6.97 6.97s3.12 6.97 6.97 6.97 6.97-3.12 6.97-6.97-3.12-6.97-6.97-6.97zm5.01 6.97c0 2.76-2.25 5.01-5.01 5.01s-5.01-2.25-5.01-5.01 2.25-5.01 5.01-5.01 5.01 2.25 5.01 5.01z"/></g><path d="m397.5 60v-8.56s-.07-8.53 8.6-8.53" fill="none" stroke="#fff" stroke-linecap="round" stroke-miterlimit="10" stroke-width="3"/><path d="m414.5 60v-8.56s.07-8.53-8.6-8.53" fill="none" stroke="#fff" stroke-linecap="round" stroke-miterlimit="10" stroke-width="3"/><path d="m429.83 238.14c-3.84 0-6.97 3.12-6.97 6.97s3.12 6.97 6.97 6.97 6.97-3.12 6.97-6.97-3.12-6.97-6.97-6.97zm5.01 6.97c0 2.76-2.25 5.01-5.01 5.01s-5.01-2.25-5.01-5.01 2.25-5.01 5.01-5.01 5.01 2.25 5.01 5.01z" fill="#fff"/><path d="m421.5 273v-8.56s-.07-8.53 8.6-8.53" fill="none" stroke="#fff" stroke-linecap="round" stroke-miterlimit="10" stroke-width="3"/><path d="m438.5 273v-8.56s.07-8.53-8.6-8.53" fill="none" stroke="#fff" stroke-linecap="round" stroke-miterlimit="10" stroke-width="3"/></svg>