<svg viewBox="0 0 565 365" xmlns="http://www.w3.org/2000/svg"><g fill="#a7a9ac"><g opacity=".8"><path d="m260.39 224.89h.13v73.71h-.13z"/><path d="m270.93 224.89h.13v73.71h-.13z"/><path d="m281.47 224.89h.13v73.71h-.13z"/><path d="m292.01 224.89h.13v73.71h-.13z"/><path d="m302.55 224.89h.13v73.71h-.13z"/><path d="m313.09 224.89h.13v73.71h-.13z"/><path d="m323.62 224.89h.13v73.71h-.13z"/><path d="m334.16 224.89h.13v73.71h-.13z"/><path d="m344.7 224.89h.13v73.71h-.13z"/></g><g opacity=".8"><path d="m253.3 235.62h99.04v.13h-99.04z"/><path d="m253.3 246.16h99.04v.13h-99.04z"/><path d="m253.3 256.7h99.04v.13h-99.04z"/><path d="m253.3 267.24h99.04v.13h-99.04z"/><path d="m253.3 277.78h99.04v.13h-99.04z"/><path d="m253.3 288.32h99.04v.13h-99.04z"/></g><g opacity=".8"><path d="m154.6 18.25h.13v73.71h-.13z"/><path d="m165.14 18.25h.13v73.71h-.13z"/><path d="m175.67 18.25h.13v73.71h-.13z"/><path d="m186.21 18.25h.13v73.71h-.13z"/><path d="m196.75 18.25h.13v73.71h-.13z"/><path d="m207.29 18.25h.13v73.71h-.13z"/><path d="m217.83 18.25h.13v73.71h-.13z"/><path d="m228.37 18.25h.13v73.71h-.13z"/><path d="m238.9 18.25h.13v73.71h-.13z"/></g><g opacity=".8"><path d="m147.51 28.99h99.04v.13h-99.04z"/><path d="m147.51 39.53h99.04v.13h-99.04z"/><path d="m147.51 50.06h99.04v.13h-99.04z"/><path d="m147.51 60.6h99.04v.13h-99.04z"/><path d="m147.51 71.14h99.04v.13h-99.04z"/><path d="m147.51 81.68h99.04v.13h-99.04z"/></g><g opacity=".8"><path d="m126.57 306.79h.13v42.81h-.13z"/><path d="m137.11 306.79h.13v42.81h-.13z"/><path d="m147.64 306.79h.13v42.81h-.13z"/></g><g opacity=".8"><path d="m118.54 312.93h36.75v.13h-36.75z"/><path d="m118.54 323.46h36.75v.13h-36.75z"/><path d="m118.54 334.01h36.75v.13h-36.75z"/><path d="m118.54 344.54h36.75v.13h-36.75z"/></g></g><circle cx="60.06" cy="60.72" fill="#19455e" r="29.4"/><path d="m253.3 110.74v-16.29l11.67-7 13.9 6.99-.45 16.3-12.11 7z" fill="#ffd647"/><path d="m329.1 237.78v-16.3l11.67-6.99 13.9 6.99-.45 16.3-12.11 7z" fill="#ffd647"/><path d="m177.66 237.76v-16.29l11.67-7 13.9 6.99-.45 16.3-12.11 7z" fill="#ffd647"/><text fill="#18465e" font-family="Poppins-Bold, Poppins" font-size="14" font-weight="700" transform="translate(236.54 180.41)"><tspan x="0" y="0">Provider</tspan><tspan x="-8.95" y="15">Ecosystem</tspan></text><path d="m286.13 113.54-6.93-4v-13.99s0 0 0 0c0-.07 0-.15-.03-.22 0 0 0-.01 0-.02 0-.03-.02-.06-.03-.09 0 0 0-.01 0-.02-.01-.03-.03-.07-.05-.1s-.04-.06-.06-.09c0 0 0 0-.01-.01-.02-.03-.04-.05-.06-.07 0 0 0 0-.01-.01-.05-.05-.11-.1-.18-.14l-12.11-6.99v-4.92c0-.49-.4-.89-.89-.89s-.89.4-.89.89v4.92l-12.11 6.99s0 0 0 0c-.06.04-.12.08-.18.13 0 0 0 0-.01.01-.02.02-.04.05-.06.07 0 0 0 0-.01.01-.02.03-.04.06-.06.09s-.03.06-.05.1v.02c-.01.03-.02.06-.03.09v.02c-.02.07-.03.15-.03.22v13.99l-6.93 4c-.43.25-.57.79-.33 1.22.16.29.46.45.77.45.15 0 .3-.04.44-.12l6.93-4 12.11 6.99s0 0 .01 0c.03.02.06.03.09.04h.03c.02 0 .05.02.07.02.01 0 .03 0 .04.01.02 0 .04 0 .06.01h.04.07.03s.02 0 .03 0h.07.04c.02 0 .04 0 .06-.01.01 0 .03 0 .04-.01.02 0 .05-.02.07-.02h.03c.03-.01.06-.03.09-.04h.01l12.11-6.99 6.93 4c.14.08.29.12.44.12.31 0 .61-.16.77-.45.25-.43.1-.97-.33-1.22zm-20.38-24.21 10.78 6.22-10.78 6.22-10.78-6.22zm-11.67 7.77 8.08 4.67 2.7 1.56v12.45l-10.78-6.22v-12.45zm12.56 18.67v-12.45l2.69-1.56 8.08-4.67v12.45l-10.78 6.22z" fill="#18465e"/><path d="m362.21 240.22-6.93-4v-13.99s0 0 0 0c0-.07 0-.15-.03-.22 0 0 0-.01 0-.02 0-.03-.02-.06-.03-.09 0 0 0-.01 0-.02-.01-.03-.03-.07-.05-.1s-.04-.06-.06-.09c0 0 0 0-.01-.01-.02-.03-.04-.05-.06-.07 0 0 0 0-.01-.01-.05-.05-.11-.1-.18-.14l-12.11-6.99v-4.92c0-.49-.4-.89-.89-.89s-.89.4-.89.89v4.92l-12.11 6.99s0 0 0 0c-.06.04-.12.08-.18.13 0 0 0 0-.01.01-.02.02-.04.05-.06.07 0 0 0 0-.01.01-.02.03-.04.06-.06.09s-.03.06-.05.1v.02c-.01.03-.02.06-.03.09v.02c-.02.07-.03.15-.03.22v13.99l-6.93 4c-.43.25-.57.79-.33 1.22.16.29.46.45.77.45.15 0 .3-.04.44-.12l6.93-4 12.11 6.99s0 0 .01 0c.03.02.06.03.09.04h.03c.02 0 .05.02.07.02.01 0 .03 0 .04.01.02 0 .04 0 .06.01h.04.07.03s.02 0 .03 0h.07.04c.02 0 .04 0 .06-.01.01 0 .03 0 .04-.01.02 0 .05-.02.07-.02h.03c.03-.01.06-.03.09-.04h.01l12.11-6.99 6.93 4c.14.08.29.12.44.12.31 0 .61-.16.77-.45.25-.43.1-.97-.33-1.22zm-20.38-24.21 10.78 6.22-10.78 6.22-10.78-6.22zm-11.67 7.77 8.08 4.67 2.7 1.56v12.45l-10.78-6.22v-12.45zm12.56 18.67v-12.45l2.69-1.56 8.08-4.67v12.45l-10.78 6.22z" fill="#18465e"/><path d="m210.6 240.22-6.93-4v-13.99s0 0 0 0c0-.07 0-.15-.03-.22 0 0 0-.01 0-.02 0-.03-.02-.06-.03-.09 0 0 0-.01 0-.02-.01-.03-.03-.07-.05-.1s-.04-.06-.06-.09c0 0 0 0-.01-.01-.02-.03-.04-.05-.06-.07 0 0 0 0-.01-.01-.05-.05-.11-.1-.18-.14l-12.11-6.99v-4.92c0-.49-.4-.89-.89-.89s-.89.4-.89.89v4.92l-12.11 6.99s0 0 0 0c-.06.04-.12.08-.18.13 0 0 0 0-.01.01-.02.02-.04.05-.06.07 0 0 0 0-.01.01-.02.03-.04.06-.06.09s-.03.06-.05.1v.02c-.01.03-.02.06-.03.09v.02c-.02.07-.03.15-.03.22v13.99l-6.93 4c-.43.25-.57.79-.33 1.22.16.29.46.45.77.45.15 0 .3-.04.44-.12l6.93-4 12.11 6.99s0 0 .01 0c.03.02.06.03.09.04h.03c.02 0 .05.02.07.02.01 0 .03 0 .04.01.02 0 .04 0 .06.01h.04.07.03s.02 0 .03 0h.07.04c.02 0 .04 0 .06-.01.01 0 .03 0 .04-.01.02 0 .05-.02.07-.02h.03c.03-.01.06-.03.09-.04h.01l12.11-6.99 6.93 4c.14.08.29.12.44.12.31 0 .61-.16.77-.45.25-.43.1-.97-.33-1.22zm-20.38-24.21 10.78 6.22-10.78 6.22-10.78-6.22zm-11.67 7.77 8.08 4.67 2.7 1.56v12.45l-10.78-6.22v-12.45zm12.56 18.67v-12.45l2.69-1.56 8.08-4.67v12.45l-10.78 6.22z" fill="#18465e"/><path d="m177.34 209.04c-2.19-7.24-3.35-14.88-3.35-22.76 0-36.56 25.11-67.73 60.33-79.69" fill="none" stroke="#14313f" stroke-miterlimit="10" stroke-width="4"/><path d="m227.73 126.77-3.58-1.78 8.81-17.64-18.24-7.5 1.52-3.71 22.22 9.14z" fill="#14313f"/><path d="m355.56 204.85c1.45-5.98 2.21-12.2 2.21-18.58 0-37.98-27.09-70.14-64.47-81" fill="none" stroke="#14313f" stroke-miterlimit="10" stroke-width="4"/><path d="m373.9 194.98-2.34-3.25-15.99 11.55-10.35-16.79-3.41 2.1 12.62 20.45z" fill="#14313f"/><path d="m208.59 252.68c4.46 4.24 9.46 8.01 14.99 11.2 32.9 18.97 74.29 11.57 102.37-15.38" fill="none" stroke="#14313f" stroke-miterlimit="10" stroke-width="4"/><path d="m207.99 273.5 3.98-.4-2.02-19.62 19.72-.58-.12-4-24.01.71z" fill="#14313f"/><path d="m339.19 116.1 35.18-23.52-16.84-9.83 30.18-21.76" fill="none" stroke="#14313f" stroke-linecap="round" stroke-miterlimit="10" stroke-width="3"/><path d="m177.32 243.73-35.18 23.52 16.84 9.83-30.18 21.76" fill="none" stroke="#14313f" stroke-linecap="round" stroke-miterlimit="10" stroke-width="3"/><text fill="#18465e" font-family="Poppins-Bold, Poppins" font-size="14.04" font-weight="700" transform="translate(388.72 77.95)"><tspan x="0" y="0">USER</tspan></text><text fill="#18465e" font-family="Poppins-Bold, Poppins" font-size="14.04" font-weight="700" transform="translate(64.08 318.25)"><tspan x="0" y="0">SOCIAL</tspan><tspan x="1.17" y="14">GRAPH</tspan></text><path d="m84.9 98.7 76.26 41.66" fill="none" stroke="#14313f" stroke-linecap="round" stroke-miterlimit="10" stroke-width="3"/><path d="m87.74 114.23 2.85-.94-4.68-14.04 14.34-3.64-.74-2.91-17.46 4.44z" fill="#14313f"/><path d="m368.18 243.46 40.52 23.89" fill="none" stroke="#14313f" stroke-linecap="round" stroke-miterlimit="10" stroke-width="3"/><path d="m393.9 272.87-.64-2.93 14.44-3.17-4.21-14.18 2.87-.86 5.14 17.27z" fill="#14313f"/><path d="m109.77 92.58 69.42 37.07" fill="none" stroke="#14313f" stroke-linecap="round" stroke-miterlimit="10" stroke-width="3"/><path d="m164.65 135.79-.77-2.9 14.3-3.78-4.82-13.99 2.84-.98 5.86 17.04z" fill="#14313f"/><text fill="#18465e" font-family="Poppins-Bold, Poppins" font-size="14.04" font-weight="700" transform="translate(471.84 286.7)"><tspan x="0" y="0">STORE</tspan><tspan x="0" y="14.04">USER</tspan><tspan x="0" y="28.07">CONTENT</tspan></text><path d="m424.47 275.76h5.57v11.14h-4.77v-2.39c0-2.2-1.78-3.98-3.98-3.98h-12.73c-2.2 0-3.98 1.78-3.98 3.98v6.36c0 2.2 1.78 3.98 3.98 3.98h5.57v8.75c0 2.2 1.78 3.98 3.98 3.98h18.29v2.39c0 2.2 1.78 3.98 3.98 3.98h12.73c2.2 0 3.98-1.78 3.98-3.98v-6.36c0-2.2-1.78-3.98-3.98-3.98h-5.57v-4.77h5.57c2.2 0 3.98-1.78 3.98-3.98v-6.36c0-2.2-1.78-3.98-3.98-3.98h-12.73c-2.2 0-3.98 1.78-3.98 3.98v2.39h-4.77v-11.14h5.57m-28.64 17.5c-1.32 0-2.39-1.07-2.39-2.39v-6.36c0-1.32 1.07-2.39 2.39-2.39h12.73c1.32 0 2.39 1.07 2.39 2.39v6.36c0 1.32-1.07 2.39-2.39 2.39zm27.84 10.34v2.39h-18.29c-1.32 0-2.39-1.07-2.39-2.39v-8.75h5.57c2.2 0 3.98-1.78 3.98-3.98v-2.39h11.14v2.39c0 2.2 1.78 3.98 3.98 3.98h5.57v4.77h-5.57c-2.2 0-3.98 1.78-3.98 3.98zm16.7-2.39c1.32 0 2.39 1.07 2.39 2.39v6.36c0 1.32-1.07 2.39-2.39 2.39h-12.73c-1.32 0-2.39-1.07-2.39-2.39v-6.36c0-1.32 1.07-2.39 2.39-2.39zm2.39-10.34c0 1.32-1.07 2.39-2.39 2.39h-12.73c-1.32 0-2.39-1.07-2.39-2.39v-6.36c0-1.32 1.07-2.39 2.39-2.39h12.73c1.32 0 2.39 1.07 2.39 2.39z" fill="#19455e"/><path d="m418.11 286.9h-6.36c-.44 0-.8.36-.8.8s.36.8.8.8h6.36c.44 0 .8-.36.8-.8s-.36-.8-.8-.8z" fill="#19455e"/><path d="m449.92 286.9h-6.36c-.44 0-.8.36-.8.8s.36.8.8.8h6.36c.44 0 .8-.36.8-.8s-.36-.8-.8-.8z" fill="#19455e"/><path d="m443.56 307.58h6.36c.44 0 .8-.36.8-.8s-.36-.8-.8-.8h-6.36c-.44 0-.8.36-.8.8s.36.8.8.8z" fill="#19455e"/><path d="m49.77 43.34v37.74h6.63v-11.72l13.31-5.7-.16-6.74-13.09 5.53v-12.81h16.87v-6.3z" fill="#00b6af"/><path d="m101.41 284.42c-1.41.03-2.8.38-4.04 1.04-.44-.8-.99-1.54-1.64-2.18-2.08-2.06-5.02-3.02-7.92-2.6-2.9.43-5.43 2.2-6.83 4.77-1.39-.71-2.93-1.07-4.49-1.04-2.5.09-4.86 1.15-6.59 2.96-1.72 1.81-2.67 4.22-2.65 6.72v4.53c0 .65.53 1.18 1.18 1.18s1.18-.53 1.18-1.18v-4.53c-.06-3.91 3.01-7.15 6.92-7.32 1.24-.03 2.46.27 3.55.88-.23.85-.35 1.73-.35 2.61v6.36c0 1.75 1.42 3.18 3.18 3.18s3.18-1.42 3.18-3.18v-2.8c0-2.53-1.05-4.96-2.87-6.71l-.33-.31c1-2.01 2.91-3.41 5.13-3.76s4.47.39 6.04 1.99c.55.53 1.01 1.16 1.36 1.84-2.07 1.86-3.24 4.51-3.24 7.28v2.53c0 1.75 1.42 3.18 3.18 3.18s3.18-1.42 3.18-3.18v-6.69c0-.8-.09-1.59-.3-2.36.98-.56 2.09-.86 3.21-.89 1.89-.03 3.72.7 5.07 2.02s2.11 3.13 2.1 5.02v4.84c0 .65.53 1.18 1.18 1.18s1.18-.53 1.18-1.18v-4.8c0-2.53-1.01-4.96-2.82-6.73-1.8-1.78-4.24-2.76-6.77-2.72v.05zm-17.73 9.46v2.8c0 .45-.36.82-.82.82s-.82-.36-.82-.82v-7.29c1.06 1.24 1.65 2.81 1.67 4.45l-.03.05zm12.54 2.75c0 .45-.36.82-.82.82s-.82-.36-.82-.82v-2.53c0-1.68.57-3.32 1.61-4.63v.53l.02 6.63z" fill="#18465e"/><g stroke-miterlimit="10"><g fill="#f15a24" stroke="#f15a24" stroke-width=".75"><path d="m89.06 277.48c-3.63 0-6.59-2.96-6.59-6.59s2.96-6.59 6.59-6.59 6.59 2.96 6.59 6.59-2.96 6.59-6.59 6.59zm0-11.98c-2.97 0-5.39 2.42-5.39 5.39s2.42 5.39 5.39 5.39 5.39-2.42 5.39-5.39-2.42-5.39-5.39-5.39z"/><path d="m102.07 281.61c-2.46 0-4.46-2-4.46-4.46s2-4.46 4.46-4.46 4.46 2 4.46 4.46-2 4.46-4.46 4.46zm0-8.1c-2.01 0-3.64 1.63-3.64 3.64s1.63 3.64 3.64 3.64 3.64-1.63 3.64-3.64-1.63-3.64-3.64-3.64z"/><path d="m75.39 281.47c-2.46 0-4.46-2-4.46-4.46s2-4.46 4.46-4.46 4.46 2 4.46 4.46-2 4.46-4.46 4.46zm0-8.1c-2.01 0-3.64 1.63-3.64 3.64s1.63 3.64 3.64 3.64 3.64-1.63 3.64-3.64-1.63-3.64-3.64-3.64z"/><path d="m405.83 38.69c-3.63 0-6.59-2.96-6.59-6.59s2.96-6.59 6.59-6.59 6.59 2.96 6.59 6.59-2.96 6.59-6.59 6.59zm0-11.98c-2.97 0-5.39 2.42-5.39 5.39s2.42 5.39 5.39 5.39 5.39-2.42 5.39-5.39-2.42-5.39-5.39-5.39z"/></g><path d="m397.5 60v-8.56s-.07-8.53 8.6-8.53" fill="none" stroke="#19455e" stroke-linecap="round" stroke-width="3"/><path d="m414.5 60v-8.56s.07-8.53-8.6-8.53" fill="none" stroke="#19455e" stroke-linecap="round" stroke-width="3"/><path d="m429.83 251.69c-3.63 0-6.59-2.96-6.59-6.59s2.96-6.59 6.59-6.59 6.59 2.96 6.59 6.59-2.96 6.59-6.59 6.59zm0-11.98c-2.97 0-5.39 2.42-5.39 5.39s2.42 5.39 5.39 5.39 5.39-2.42 5.39-5.39-2.42-5.39-5.39-5.39z" fill="#f15a24" stroke="#f15a24" stroke-width=".75"/><path d="m421.5 273v-8.56s-.07-8.53 8.6-8.53" fill="none" stroke="#19455e" stroke-linecap="round" stroke-width="3"/><path d="m438.5 273v-8.56s.07-8.53-8.6-8.53" fill="none" stroke="#19455e" stroke-linecap="round" stroke-width="3"/></g></svg>