<svg xmlns="http://www.w3.org/2000/svg" viewBox="0 0 565 365" xmlns:v="https://vecta.io/nano"><style><![CDATA[.F,.G,.I{isolation:isolate}.R{fill:#fcf3e4}.S{font-family:Poppins-Bold,Poppins}.T{font-weight:700}.U{opacity:.8}.V{fill:#a7a9ac}.W{font-size:14.04px}.X{fill:#ff9a02}]]></style><g class="U V"><use href="#B"/><use href="#B" x="10.5"/><use href="#B" x="21.1"/><use href="#B" x="31.6"/><use href="#B" x="42.1"/><use href="#B" x="52.7"/><use href="#B" x="63.2"/><use href="#B" x="73.8"/><use href="#B" x="84.3"/></g><g class="U V"><use href="#C"/><use href="#C" y="10.6"/><use href="#C" y="21.1"/><use href="#C" y="31.6"/><use href="#C" y="42.2"/><use href="#C" y="52.7"/></g><g class="U V"><use href="#B" x="-105.8" y="-206.7"/><use href="#B" x="-95.3" y="-206.7"/><use href="#B" x="-84.7" y="-206.7"/><use href="#B" x="-74.2" y="-206.7"/><use href="#B" x="-63.6" y="-206.7"/><use href="#B" x="-53.1" y="-206.7"/><use href="#B" x="-42.6" y="-206.7"/><use href="#B" x="-32" y="-206.7"/><use href="#B" x="-21.5" y="-206.7"/></g><g class="U V"><use href="#C" x="-105.8" y="-206.6"/><use href="#C" x="-105.8" y="-196.1"/><use href="#C" x="-105.8" y="-185.5"/><use href="#C" x="-105.8" y="-175"/><use href="#C" x="-105.8" y="-164.5"/><use href="#C" x="-105.8" y="-153.9"/></g><g class="U V"><use href="#D"/><use href="#D" x="10.5"/><use href="#D" x="21"/></g><g class="U V"><use href="#E"/><use href="#E" y="10.6"/><use href="#E" y="21.1"/><use href="#E" y="31.6"/></g><path d="M243.23 110.01v-15.2l12.45-7.32 12.75 7.32-.1 15.2-12.1 7-13-7zm75.8 126.41v-15.61l11.7-7 13.9 7-.5 16.3-12.1 7-13-7.69zm-151.4.69v-16.3l11.6-7 13.9 7-.63 15.41-12.39 7.16-12.48-6.27z" class="X"/><text font-size="14" class="R S T"><tspan x="226.47" y="179.72">Provider</tspan><tspan x="217.52" y="194.72">Ecosystem</tspan></text><g class="R"><path d="M276.03 112.81l-6.9-4v-14h0v-.2h0v-.1h0v-.1s0-.1-.1-.1h0s0-.1-.1-.1h0c0-.1-.1-.1-.2-.1h0l-12.1-7v-4.9c0-.5-.4-.9-.9-.9s-.9.4-.9.9v4.9l-12.1 7h0c-.1 0-.1.1-.2.1h0s0 .1-.1.1h0s0 .1-.1.1 0 .1-.1.1h0v.1h0v.2h0v14l-6.9 4c-.4.2-.6.8-.3 1.2.2.3.5.4.8.4.1 0 .3 0 .4-.1l6.9-4 12.1 7h.8l12.1-7 6.9 4c.1.1.3.1.4.1.3 0 .6-.2.8-.4.4-.4.3-.9-.2-1.2h0zm-20.3-24.2l10.8 6.2-10.8 6.2-10.8-6.1 10.8-6.3zm-11.7 7.8l8.1 4.7 2.7 1.6v12.4l-10.8-6.2v-12.5h0zm12.5 18.7v-12.4l2.7-1.6 8.1-4.7v12.4l-10.8 6.3h0zm95.6 124.4l-6.9-4v-14h0v-.2h0v-.1h0v-.1s0-.1-.1-.1h0s0-.1-.1-.1h0c0-.1-.1-.1-.2-.1h0l-12.1-7v-4.9c0-.5-.4-.9-.9-.9s-.9.4-.9.9v4.9l-12.1 7h0c-.1 0-.1.1-.2.1h0s0 .1-.1.1h0s0 .1-.1.1 0 .1 0 .1h0v.1h0v.2h0v14l-6.9 4c-.4.2-.6.8-.3 1.2.2.3.5.4.8.4.1 0 .3 0 .4-.1l6.9-4 12.1 7h.8l12.1-7 6.9 4c.1.1.3.1.4.1.3 0 .6-.2.8-.4.3-.4.1-.9-.3-1.2h0zm-20.4-24.2l10.8 6.2-10.8 6.2-10.8-6.2 10.8-6.2zm-11.6 7.8l8.1 4.7 2.7 1.6v12.4l-10.8-6.2v-12.5h0zm12.5 18.7v-12.5l2.7-1.6 8.1-4.7v12.4l-10.8 6.4h0zm-132.1-2.3l-6.9-4v-14h0v-.2h0v-.1h0s0-.1-.1-.1 0-.1-.1-.1h0s0-.1-.1-.1h0q-.1-.1-.2-.1h0l-12.1-7v-4.9c0-.5-.4-.9-.9-.9s-.9.4-.9.9v4.9l-12.1 7h0c-.1 0-.1.1-.2.1h0s0 .1-.1.1h0s0 .1-.1.1 0 .1-.1.1h0v.1h0v.2h0v14l-6.9 4c-.4.2-.6.8-.3 1.2.2.3.5.4.8.4.1 0 .3 0 .4-.1l6.9-4 12.1 7h.8l12.1-7 6.9 4c.1.1.3.1.4.1.3 0 .6-.2.8-.4.5-.4.3-.9-.1-1.2h0zm-20.4-24.2l10.8 6.2-10.8 6.2-10.8-6.2 10.8-6.2zm-11.6 7.8l8.1 4.7 2.7 1.6v12.4l-10.8-6.2v-12.5h0zm12.5 18.7v-12.5l2.7-1.6 8.1-4.7v12.4l-10.8 6.4h0zm-15.71-32.91c-2.31-7.57-3.49-15.44-3.49-23.38 0-36.23 24.78-69.02 61.65-81.59l1.29 3.79c-35.26 12.02-58.95 43.29-58.95 77.81a75.94 75.94 0 0 0 3.31 22.22l-3.83 1.17z"/><path d="M217.63 126.11l-3.6-1.8 8.9-17.7-18.3-7.5 1.5-3.7 22.3 9.2-10.8 21.5zm129.84 78.59l-3.88-.97c1.42-5.68 2.14-11.78 2.14-18.11 0-36.31-25.34-68.09-63.06-79.08l1.12-3.84c39.44 11.49 65.94 44.82 65.94 82.92 0 6.67-.76 13.09-2.26 19.08z"/><path d="M363.83 194.31l-2.3-3.3-16 11.6-10.4-16.8-3.4 2.1 12.6 20.4 19.5-14zm-110.3 81.57c-14.19 0-28.27-3.58-41-10.94-5.42-3.15-10.58-7.01-15.36-11.47l2.73-2.92c4.56 4.26 9.49 7.93 14.64 10.93 31.49 18.18 71.68 12.11 100.01-15.11l2.77 2.88c-18.21 17.5-41.15 26.63-63.79 26.63z"/><path d="M197.93 272.81l4-.4-2.1-19.6 19.8-.6-.1-4-24.1.7 2.5 23.9zm131.2-155.9c-.48 0-.96-.23-1.25-.67-.46-.69-.27-1.62.41-2.08L361.49 92l-16.82-9.75 32.08-23.15a1.5 1.5 0 0 1 2.09.34c.49.67.33 1.61-.34 2.09l-28.33 20.45 16.98 9.85-37.2 24.84c-.26.17-.55.25-.83.25zm-210.4 182.7c-.47 0-.93-.22-1.22-.62a1.5 1.5 0 0 1 .34-2.09l28.33-20.35-16.98-9.94 37.19-24.83c.69-.46 1.62-.27 2.08.41.46.69.27 1.62-.41 2.08l-33.21 22.17 16.82 9.85-32.07 23.05a1.5 1.5 0 0 1-.87.28z"/><text class="S T W"><tspan x="378.65" y="77.26">USER</tspan><tspan x="54.01" y="317.56">SOCIAL</tspan><tspan x="55.18" y="331.56">GRAPH</tspan></text><path d="M151.13,141.22c-.24,0-.49-.06-.72-.18l-76.3-41.7c-.73-.4-.99-1.31-.6-2.04.4-.73,1.31-.99,2.04-.6l76.3,41.7c.73.4.99,1.31.6,2.04-.27.5-.79.78-1.32.78Z"/><path d="M77.63 113.51l2.9-.9-4.7-14.1 14.3-3.6-.7-2.9-17.4 4.4 5.6 17.1zm321 154.7c-.26 0-.52-.07-.76-.21l-40.5-23.9a1.5 1.5 0 0 1-.53-2.05 1.5 1.5 0 0 1 2.05-.53l40.5 23.9a1.5 1.5 0 0 1 .53 2.05 1.51 1.51 0 0 1-1.29.74z"/><path d="M383.83 272.21l-.6-3 14.4-3.1-4.2-14.2 2.9-.9 5.1 17.3-17.6 3.9zm-214.7-141.8a1.46 1.46 0 0 1-.7-.18l-69.4-37c-.73-.39-1.01-1.3-.62-2.03s1.3-1.01 2.03-.62l69.4 37c.73.39 1.01 1.3.62 2.03-.27.51-.79.79-1.33.79z"/><path d="M154.53 135.11l-.7-2.9 14.3-3.8-4.8-14 2.8-1 5.9 17.1-17.5 4.6z"/><text class="S T W"><tspan x="461.77" y="286.01">STORE</tspan><tspan x="461.77" y="300.05">USER</tspan><tspan x="461.77" y="314.08">CONTENT</tspan></text><path d="M421.63 275.11h-1.7v11.1h-4.8v-2.4c0-2.2-1.8-4-4-4h-12.7c-2.2 0-4 1.8-4 4v6.4c0 2.2 1.8 4 4 4h5.6v8.8c0 2.2 1.8 4 4 4h18.3v2.4c0 2.2 1.8 4 4 4h12.7c2.2 0 4-1.8 4-4v-6.4c0-2.2-1.8-4-4-4h-5.6v-4.8h5.6c2.2 0 4-1.8 4-4v-6.4c0-2.2-1.8-4-4-4h-12.7c-2.2 0-4 1.8-4 4v2.4h-4.8m-23 6.4c-1.3 0-2.4-1.1-2.4-2.4v-6.4c0-1.3 1.1-2.4 2.4-2.4h12.7c1.3 0 2.4 1.1 2.4 2.4v6.4c0 1.3-1.1 2.4-2.4 2.4h-12.7zm27.8 10.3v2.4h-18.3c-1.3 0-2.4-1.1-2.4-2.4v-8.8h5.6c2.2 0 4-1.8 4-4v-2.4h11.1v2.4c0 2.2 1.8 4 4 4h5.6v4.8h-5.6c-2.2 0-4 1.8-4 4h0zm16.7-2.4c1.3 0 2.4 1.1 2.4 2.4v6.4c0 1.3-1.1 2.4-2.4 2.4h-12.7c-1.3 0-2.4-1.1-2.4-2.4v-6.4c0-1.3 1.1-2.4 2.4-2.4h12.7zm2.4-10.3c0 1.3-1.1 2.4-2.4 2.4h-12.7c-1.3 0-2.4-1.1-2.4-2.4v-6.4c0-1.3 1.1-2.4 2.4-2.4h12.7c1.3 0 2.4 1.1 2.4 2.4v6.4z"/><path d="M408.03 286.21h-6.4c-.4 0-.8.4-.8.8s.4.8.8.8h6.4c.4 0 .8-.4.8-.8s-.4-.8-.8-.8zm31.8 0h-6.4c-.4 0-.8.4-.8.8s.4.8.8.8h6.4c.4 0 .8-.4.8-.8s-.3-.8-.8-.8zm-6.3 20.7h6.4c.4 0 .8-.4.8-.8s-.4-.8-.8-.8h-6.4c-.4 0-.8.4-.8.8s.3.8.8.8zm-342.2-23.2c-1.4 0-2.8.4-4 1-.4-.8-1-1.5-1.6-2.2-2.1-2.1-5-3-7.9-2.6s-5.4 2.2-6.8 4.8c-1.4-.7-2.9-1.1-4.5-1-2.5.1-4.9 1.1-6.6 3-1.7 1.8-2.7 4.2-2.7 6.7v4.5c0 .6.5 1.2 1.2 1.2s1.2-.5 1.2-1.2v-4.5c-.1-3.9 3-7.1 6.9-7.3 1.2 0 2.5.3 3.6.9-.2.9-.3 1.7-.3 2.6v6.4c0 1.8 1.4 3.2 3.2 3.2s3.2-1.4 3.2-3.2v-2.8c0-2.5-1.1-5-2.9-6.7l-.3-.3c1-2 2.9-3.4 5.1-3.8s4.5.4 6 2c.6.5 1 1.2 1.4 1.8-2.1 1.9-3.2 4.5-3.2 7.3v2.5h0c0 1.8 1.4 3.2 3.2 3.2s3.2-1.4 3.2-3.2v-6.7c0-.8-.1-1.6-.3-2.4 1-.6 2.1-.9 3.2-.9 1.9 0 3.7.7 5.1 2 1.3 1.3 2.1 3.1 2.1 5v4.8c0 .6.5 1.2 1.2 1.2s1.2-.5 1.2-1.2v-4.8c0-2.5-1-5-2.8-6.7-2.1-1.7-4.6-2.7-7.1-2.6h0zm-17.7 9.5v2.8c0 .5-.4.8-.8.8s-.8-.4-.8-.8v-7.3c1 1.2 1.6 2.8 1.6 4.5h0zm12.5 2.7c0 .5-.4.8-.8.8s-.8-.4-.8-.8v-2.5c0-1.7.6-3.3 1.6-4.6v7.1h0z"/></g><path d="M79.03 263.21c-3.8 0-7 3.1-7 7s3.1 7 7 7 7-3.1 7-7-3.2-7-7-7zm5 7a4.95 4.95 0 0 1-5 5 4.95 4.95 0 1 1 0-10 4.95 4.95 0 0 1 5 5zm8 1.4c-2.7 0-4.8 2.2-4.8 4.8s2.2 4.8 4.8 4.8 4.8-2.2 4.8-4.8-2.2-4.8-4.8-4.8zm3.2 4.8a3.33 3.33 0 0 1-3.3 3.3 3.33 3.33 0 0 1-3.3-3.3 3.33 3.33 0 0 1 3.3-3.3c1.8 0 3.3 1.6 3.3 3.3zm-29.9-4.9c-2.7 0-4.8 2.2-4.8 4.8s2.2 4.8 4.8 4.8 4.8-2.2 4.8-4.8-2.1-4.8-4.8-4.8zm3.3 4.8a3.33 3.33 0 0 1-3.3 3.3 3.33 3.33 0 0 1-3.3-3.3 3.33 3.33 0 0 1 3.3-3.3 3.33 3.33 0 0 1 3.3 3.3zm327.1-251.9c-3.8 0-7 3.1-7 7s3.1 7 7 7 7-3.1 7-7-3.1-7-7-7zm5 7a4.95 4.95 0 1 1-10 0 4.95 4.95 0 0 1 5-5c2.8 0 5 2.3 5 5z" class="X"/><path d="M403.05 43.42c-1.71-1.73-4.03-2.63-6.9-2.7-.04 0-.08-.01-.12-.01h-.1-.1c-.04 0-.08 0-.12.01-2.86.06-5.19.96-6.9 2.7-2.9 2.93-2.88 7.13-2.88 7.29v8.6a1.5 1.5 0 1 0 3 0V50.7s.01-3.17 2.03-5.19c1.17-1.18 2.85-1.78 4.97-1.8 2.13.02 3.8.62 4.97 1.8 2.02 2.02 2.03 5.16 2.03 5.2v8.6a1.5 1.5 0 1 0 3 0v-8.58c0-.18.02-4.38-2.88-7.31z" class="R"/><path d="M420.63 251.01c-3.6 0-6.6-3-6.6-6.6s3-6.6 6.6-6.6 6.6 3 6.6 6.6-3 6.6-6.6 6.6zm0-12c-3 0-5.4 2.4-5.4 5.4s2.4 5.4 5.4 5.4 5.4-2.4 5.4-5.4-2.5-5.4-5.4-5.4z" stroke="#ff9a02" stroke-miterlimit="10" class="X"/><path d="M427.85 256.42c-1.71-1.73-4.03-2.63-6.9-2.7-.04 0-.08-.01-.12-.01h-.1-.1c-.04 0-.08 0-.12.01-2.86.06-5.19.96-6.9 2.7-2.9 2.93-2.88 7.13-2.88 7.29v8.6a1.5 1.5 0 1 0 3 0v-8.61s.01-3.16 2.03-5.19c1.17-1.18 2.85-1.77 4.97-1.79 2.12.02 3.8.62 4.97 1.79 2.02 2.02 2.03 5.16 2.03 5.2v8.6a1.5 1.5 0 1 0 3 0v-8.58c0-.18.02-4.38-2.88-7.31z" class="R"/><circle cx="47.44" cy="68.82" r="26.59" fill="#790e70"/><path d="M65.83,57.68c-.2-.83-.94-1.42-1.79-1.42h-29.54c-1.02,0-1.85.83-1.85,1.85v25.85c0,.63.33,1.24.88,1.58.29.18.63.28.98.28.28,0,.57-.07.83-.2l22.15-11.08c.76-.39,1.17-1.24.98-2.08s-.94-1.42-1.79-1.42h-14.33l22.54-11.27c.76-.39,1.17-1.24.98-2.08h0l-.03-.02Z" class="R"/><defs ><path id="B" d="M250.33 224.21h.1v73.7h-.1z"/><path id="C" d="M243.23 234.91h99v.1h-99z"/><path id="D" d="M116.53 306.11h.1v42.8h-.1z"/><path id="E" d="M108.43 312.21h36.8v.1h-36.8z"/></defs></svg>
