<svg xmlns="http://www.w3.org/2000/svg" id="svg61" fill="none" version="1.1" viewBox="0 0 1022 405.762">
  <path id="path1" fill="#242527" d="M876.94 181.061a1.5 1.5 0 0 0 2.12 0l9.55-9.546c.58-.586.58-1.536 0-2.122a1.5 1.5 0 0 0-2.12 0l-8.49 8.486-8.49-8.486a1.5 1.5 0 0 0-2.12 0 1.511 1.511 0 0 0 0 2.122zM559 55v1.5h309v-3H559Zm319 10h-1.5v115h3V65Zm-10-10v1.5c4.69 0 8.5 3.806 8.5 8.5h3c0-6.351-5.15-11.5-11.5-11.5z"/>
  <path id="path2" fill="#242527" d="M515.061 156.939a1.502 1.502 0 0 0-2.122 0l-9.546 9.546a1.502 1.502 0 0 0 0 2.122 1.502 1.502 0 0 0 2.122 0l8.485-8.486 8.485 8.486a1.502 1.502 0 0 0 2.122 0 1.502 1.502 0 0 0 0-2.122zM717 265v-1.5H524v3h193Zm-203-10h1.5v-97h-3v97zm10 10v-1.5a8.5 8.5 0 0 1-8.5-8.5h-3c0 6.351 5.149 11.5 11.5 11.5z"/>
  <path id="path3" fill="#242527" d="M189.939 263.939a1.502 1.502 0 0 0 0 2.122l9.546 9.546a1.502 1.502 0 0 0 2.122 0 1.502 1.502 0 0 0 0-2.122L193.121 265l8.486-8.485a1.502 1.502 0 0 0 0-2.122 1.502 1.502 0 0 0-2.122 0zM437 158h-1.5v97h3v-97zm-10 107v-1.5H191v3h236zm10-10h-1.5a8.5 8.5 0 0 1-8.5 8.5v3c6.351 0 11.5-5.149 11.5-11.5z"/>
  <path id="path4" fill="#242527" d="M404.061 58.061a1.502 1.502 0 0 0 0-2.122l-9.546-9.546a1.502 1.502 0 0 0-2.122 0 1.502 1.502 0 0 0 0 2.122L400.879 57l-8.486 8.485a1.502 1.502 0 0 0 0 2.122 1.502 1.502 0 0 0 2.122 0zM82 182h1.5V67h-3v115ZM92 57v1.5h311v-3H92ZM82 67h1.5a8.5 8.5 0 0 1 8.5-8.5v-3c-6.351 0-11.5 5.149-11.5 11.5z"/>
  <path id="rect4" fill="#fff" d="M644 32h166v42H644z"/>
  <path id="path5" fill="#242527" d="M666.369 48.112c-.822 0-1.558-.133-2.208-.4-.651-.267-1.174-.661-1.568-1.184-.384-.523-.587-1.152-.608-1.888h2.912c.042.416.186.736.432.96.245.213.565.32.96.32.405 0 .725-.091.96-.272.234-.192.352-.453.352-.784a.906.906 0 0 0-.288-.688 2.147 2.147 0 0 0-.688-.448 10.447 10.447 0 0 0-1.152-.4c-.726-.224-1.318-.448-1.776-.672a3.277 3.277 0 0 1-1.184-.992c-.331-.437-.496-1.008-.496-1.712 0-1.045.378-1.861 1.136-2.448.757-.597 1.744-.896 2.96-.896 1.237 0 2.234.299 2.992.896.757.587 1.162 1.408 1.216 2.464h-2.96c-.022-.363-.155-.645-.4-.848-.246-.213-.56-.32-.945-.32-.33 0-.597.091-.799.272-.203.171-.304.421-.304.752 0 .363.17.645.511.848.342.203.875.421 1.601.656.725.245 1.312.48 1.76.704a3.35 3.35 0 0 1 1.184.976c.33.427.496.976.496 1.648 0 .64-.166 1.221-.496 1.744-.32.523-.79.939-1.408 1.248-.619.309-1.35.464-2.192.464zm8.515-7.776a2.975 2.975 0 0 1 1.104-1.008c.47-.256 1.019-.384 1.648-.384.736 0 1.403.187 2 .56.598.373 1.067.907 1.408 1.6.352.693.528 1.499.528 2.416 0 .917-.176 1.728-.528 2.432-.341.693-.81 1.232-1.408 1.616a3.699 3.699 0 0 1-2 .56c-.618 0-1.168-.128-1.648-.384a3.031 3.031 0 0 1-1.104-.992v5.504h-2.736V39.072h2.736zm3.904 3.184c0-.683-.192-1.216-.576-1.6a1.836 1.836 0 0 0-1.392-.592 1.87 1.87 0 0 0-1.392.592c-.373.395-.56.933-.56 1.616s.187 1.221.56 1.616a1.87 1.87 0 0 0 1.392.592 1.87 1.87 0 0 0 1.392-.592c.384-.405.576-.949.576-1.632zm12.636-.128c0 .256-.016.523-.048.8h-6.192c.042.555.218.981.528 1.28.32.288.709.432 1.168.432.682 0 1.157-.288 1.424-.864h2.912a3.957 3.957 0 0 1-.816 1.584c-.384.469-.87.837-1.456 1.104-.587.267-1.243.4-1.968.4-.875 0-1.654-.187-2.336-.56a3.981 3.981 0 0 1-1.6-1.6c-.384-.693-.576-1.504-.576-2.432 0-.928.186-1.739.56-2.432a3.981 3.981 0 0 1 1.6-1.6c.682-.373 1.466-.56 2.352-.56.864 0 1.632.181 2.304.544a3.86 3.86 0 0 1 1.568 1.552c.384.672.576 1.456.576 2.352zm-2.8-.72c0-.469-.16-.843-.48-1.12-.32-.277-.72-.416-1.2-.416-.459 0-.848.133-1.168.4-.31.267-.502.645-.576 1.136zm9.683-3.696c1.045 0 1.877.341 2.496 1.024.629.672.944 1.6.944 2.784V48h-2.72v-4.848c0-.597-.155-1.061-.464-1.392-.309-.331-.725-.496-1.248-.496s-.939.165-1.248.496c-.309.331-.464.795-.464 1.392V48h-2.736v-8.928h2.736v1.184a2.821 2.821 0 0 1 1.12-.928 3.487 3.487 0 0 1 1.584-.352zm4.797 4.544c0-.917.171-1.723.512-2.416.352-.693.827-1.227 1.424-1.6a3.701 3.701 0 0 1 2-.56c.587 0 1.12.123 1.6.368a2.91 2.91 0 0 1 1.152.992V36.16h2.736V48h-2.736v-1.28a2.772 2.772 0 0 1-1.104 1.024c-.469.256-1.018.384-1.648.384a3.701 3.701 0 0 1-2-.56c-.597-.384-1.072-.923-1.424-1.616-.341-.704-.512-1.515-.512-2.432zm6.688.016c0-.683-.192-1.221-.576-1.616a1.818 1.818 0 0 0-1.376-.592 1.87 1.87 0 0 0-1.392.592c-.373.384-.56.917-.56 1.6s.187 1.227.56 1.632a1.87 1.87 0 0 0 1.392.592c.544 0 1.003-.197 1.376-.592.384-.395.576-.933.576-1.616zm7.638-1.168c0-1.109.24-2.096.72-2.96a5.112 5.112 0 0 1 2-2.032c.87-.491 1.84-.736 2.93-.736 1.34 0 2.48.352 3.43 1.056.95.704 1.58 1.664 1.9 2.88h-3.01a2.368 2.368 0 0 0-.96-1.072c-.4-.245-.87-.368-1.39-.368-.84 0-1.53.293-2.05.88-.52.587-.78 1.371-.78 2.352 0 .981.26 1.765.78 2.352s1.21.88 2.05.88c.52 0 .99-.123 1.39-.368.42-.245.74-.603.96-1.072h3.01c-.32 1.216-.95 2.176-1.9 2.88-.95.693-2.09 1.04-3.43 1.04-1.09 0-2.06-.24-2.93-.72a5.256 5.256 0 0 1-2-2.032c-.48-.864-.72-1.851-.72-2.96zm12.11 1.152c0-.917.17-1.723.51-2.416.36-.693.83-1.227 1.43-1.6s1.26-.56 2-.56c.63 0 1.18.128 1.65.384.48.256.84.592 1.1 1.008v-1.264h2.74V48h-2.74v-1.264c-.27.416-.64.752-1.12 1.008-.47.256-1.02.384-1.65.384-.72 0-1.38-.187-1.98-.56-.6-.384-1.07-.923-1.43-1.616-.34-.704-.51-1.515-.51-2.432zm6.69.016c0-.683-.19-1.221-.58-1.616a1.807 1.807 0 0 0-1.37-.592c-.55 0-1.01.197-1.39.592-.38.384-.56.917-.56 1.6s.18 1.227.56 1.632c.38.395.84.592 1.39.592.54 0 1-.197 1.37-.592.39-.395.58-.933.58-1.616zm7.45-3.2a3.01 3.01 0 0 1 1.11-1.008c.46-.256 1.01-.384 1.64-.384.74 0 1.41.187 2 .56.6.373 1.07.907 1.41 1.6.35.693.53 1.499.53 2.416 0 .917-.18 1.728-.53 2.432-.34.693-.81 1.232-1.41 1.616-.59.373-1.26.56-2 .56-.62 0-1.16-.128-1.64-.384a3.067 3.067 0 0 1-1.11-.992v5.504h-2.73V39.072h2.73zm3.91 3.184c0-.683-.2-1.216-.58-1.6a1.835 1.835 0 0 0-1.39-.592c-.55 0-1.01.197-1.39.592-.38.395-.56.933-.56 1.616s.18 1.221.56 1.616c.38.395.84.592 1.39.592.54 0 1.01-.197 1.39-.592.38-.405.58-.949.58-1.632zm3.67 0c0-.917.17-1.723.51-2.416.35-.693.83-1.227 1.43-1.6.59-.373 1.26-.56 2-.56.63 0 1.18.128 1.64.384.48.256.85.592 1.11 1.008v-1.264h2.73V48h-2.73v-1.264c-.27.416-.64.752-1.12 1.008-.47.256-1.02.384-1.65.384-.72 0-1.39-.187-1.98-.56-.6-.384-1.08-.923-1.43-1.616-.34-.704-.51-1.515-.51-2.432zm6.69.016c0-.683-.19-1.221-.58-1.616a1.807 1.807 0 0 0-1.37-.592c-.55 0-1.01.197-1.4.592-.37.384-.56.917-.56 1.6s.19 1.227.56 1.632c.39.395.85.592 1.4.592.54 0 1-.197 1.37-.592.39-.395.58-.933.58-1.616zm4.17 0c0-.928.19-1.739.56-2.432a3.99 3.99 0 0 1 1.58-1.6c.69-.373 1.47-.56 2.34-.56 1.12 0 2.05.293 2.8.88.76.587 1.25 1.413 1.49 2.48h-2.91c-.25-.683-.72-1.024-1.43-1.024-.5 0-.9.197-1.2.592-.3.384-.45.939-.45 1.664s.15 1.285.45 1.68c.3.384.7.576 1.2.576.71 0 1.18-.341 1.43-1.024h2.91c-.24 1.045-.73 1.867-1.49 2.464s-1.69.896-2.8.896c-.87 0-1.65-.187-2.34-.56a3.99 3.99 0 0 1-1.58-1.6c-.37-.693-.56-1.504-.56-2.432zm11.61-5.392c-.48 0-.88-.139-1.19-.416-.3-.288-.44-.64-.44-1.056 0-.427.14-.779.44-1.056.31-.288.71-.432 1.19-.432.47 0 .85.144 1.15.432.31.277.46.629.46 1.056 0 .416-.15.768-.46 1.056-.3.277-.68.416-1.15.416zm1.36.928V48h-2.74v-8.928zm6.96 6.608V48h-1.4c-.99 0-1.76-.24-2.32-.72-.55-.491-.83-1.285-.83-2.384v-3.552h-1.09v-2.272h1.09v-2.176h2.74v2.176h1.79v2.272h-1.79v3.584c0 .267.06.459.19.576.13.117.34.176.64.176zm10.64-6.608-5.6 13.168h-2.94l2.04-4.544-3.63-8.624h3.06l2.06 5.584 2.05-5.584zM658.781 73.344c-1.034-.992-1.84-2.272-2.416-3.84-.576-1.568-.864-3.259-.864-5.072 0-1.835.299-3.547.896-5.136.598-1.6 1.446-2.901 2.544-3.904h2.688v.256c-1.12 1.109-1.984 2.443-2.592 4a12.966 12.966 0 0 0-.912 4.784c0 1.632.294 3.205.88 4.72.587 1.515 1.414 2.827 2.48 3.936v.256zm8.425-10h-1.472V70h-2.736v-6.656h-.992v-2.272h.992v-.256c0-1.099.315-1.931.944-2.496.63-.576 1.552-.864 2.768-.864.203 0 .352.005.448.016v2.32c-.522-.032-.89.043-1.104.224-.213.181-.32.507-.32.976v.08h1.472zm5.35 6.784c-.875 0-1.664-.187-2.368-.56a4.168 4.168 0 0 1-1.648-1.6c-.395-.693-.592-1.504-.592-2.432 0-.917.203-1.723.608-2.416a4.107 4.107 0 0 1 1.664-1.616c.704-.373 1.493-.56 2.368-.56.875 0 1.664.187 2.368.56a4.107 4.107 0 0 1 1.664 1.616c.405.693.608 1.499.608 2.416 0 .917-.208 1.728-.624 2.432a4.11 4.11 0 0 1-1.68 1.6c-.704.373-1.493.56-2.368.56zm0-2.368c.523 0 .965-.192 1.328-.576.373-.384.56-.933.56-1.648 0-.715-.181-1.264-.544-1.648a1.707 1.707 0 0 0-1.312-.576c-.533 0-.976.192-1.328.576-.352.373-.528.923-.528 1.648 0 .715.171 1.264.512 1.648.352.384.789.576 1.312.576zm8.86-5.2c.32-.491.72-.875 1.2-1.152a3.05 3.05 0 0 1 1.6-.432v2.896h-.752c-.683 0-1.195.149-1.536.448-.342.288-.512.8-.512 1.536V70h-2.736v-8.928h2.736zm10.186-3.792v6.72c0 .672.165 1.189.496 1.552.331.363.816.544 1.456.544s1.131-.181 1.472-.544c.341-.363.512-.88.512-1.552v-6.72h2.736v6.704c0 1.003-.213 1.851-.64 2.544a4.093 4.093 0 0 1-1.728 1.568c-.715.352-1.515.528-2.4.528s-1.68-.171-2.384-.512a3.954 3.954 0 0 1-1.648-1.568c-.405-.704-.608-1.557-.608-2.56v-6.704zm12.225 11.36c-.779 0-1.472-.133-2.08-.4-.608-.267-1.088-.629-1.44-1.088a2.926 2.926 0 0 1-.592-1.568h2.704c.032.309.176.56.432.752.256.192.571.288.944.288.341 0 .603-.064.784-.192.192-.139.288-.315.288-.528 0-.256-.133-.443-.4-.56-.267-.128-.699-.267-1.296-.416a13.14 13.14 0 0 1-1.6-.464 2.871 2.871 0 0 1-1.104-.784c-.309-.363-.464-.848-.464-1.456 0-.512.139-.976.416-1.392.288-.427.704-.763 1.248-1.008.555-.245 1.211-.368 1.968-.368 1.12 0 2 .277 2.64.832.651.555 1.024 1.291 1.12 2.208h-2.528a1.078 1.078 0 0 0-.416-.736c-.224-.181-.523-.272-.896-.272-.32 0-.565.064-.736.192a.567.567 0 0 0-.256.496c0 .256.133.448.4.576.277.128.704.256 1.28.384.661.171 1.2.341 1.616.512.416.16.779.427 1.088.8.32.363.485.853.496 1.472 0 .523-.149.992-.448 1.408-.288.405-.709.725-1.264.96-.544.235-1.179.352-1.904.352zm13.703-4.736c0 .256-.01.523-.04.8h-6.197c.043.555.219.981.528 1.28.32.288.709.432 1.168.432.681 0 1.161-.288 1.421-.864h2.92a4.016 4.016 0 0 1-.82 1.584c-.38.469-.87.837-1.46 1.104-.58.267-1.24.4-1.96.4-.88 0-1.658-.187-2.341-.56a3.981 3.981 0 0 1-1.6-1.6c-.384-.693-.576-1.504-.576-2.432 0-.928.187-1.739.56-2.432a3.981 3.981 0 0 1 1.6-1.6c.683-.373 1.467-.56 2.357-.56.86 0 1.63.181 2.3.544.67.363 1.19.88 1.57 1.552.38.672.57 1.456.57 2.352zm-2.8-.72c0-.469-.16-.843-.48-1.12-.32-.277-.72-.416-1.2-.416-.456 0-.845.133-1.165.4-.309.267-.501.645-.576 1.136zm6.98-2.112c.32-.491.72-.875 1.2-1.152a3.067 3.067 0 0 1 1.6-.432v2.896h-.75c-.68 0-1.19.149-1.54.448-.34.288-.51.8-.51 1.536V70h-2.73v-8.928h2.73zm14.49 5.456h-4.19L731.34 70h-2.87l4.07-11.232h3.17L739.77 70h-2.9zm-.7-2.112-1.39-4.112-1.38 4.112zm4.96-.368c0-.928.19-1.739.56-2.432.39-.693.92-1.227 1.59-1.6.68-.373 1.46-.56 2.33-.56 1.12 0 2.06.293 2.8.88.76.587 1.26 1.413 1.49 2.48h-2.91c-.25-.683-.72-1.024-1.42-1.024-.51 0-.91.197-1.2.592-.3.384-.45.939-.45 1.664s.15 1.285.45 1.68c.29.384.69.576 1.2.576.7 0 1.17-.341 1.42-1.024h2.91c-.23 1.045-.73 1.867-1.49 2.464-.75.597-1.69.896-2.8.896-.87 0-1.65-.187-2.33-.56a4.078 4.078 0 0 1-1.59-1.6c-.37-.693-.56-1.504-.56-2.432zm15.21 2.144V70h-1.39c-.99 0-1.77-.24-2.32-.72-.56-.491-.83-1.285-.83-2.384v-3.552h-1.09v-2.272h1.09v-2.176h2.73v2.176h1.8v2.272h-1.8v3.584c0 .267.07.459.2.576.12.117.34.176.64.176zm2.9-7.536c-.48 0-.87-.139-1.18-.416-.3-.288-.45-.64-.45-1.056 0-.427.15-.779.45-1.056.31-.288.7-.432 1.18-.432.47 0 .85.144 1.15.432.31.277.47.629.47 1.056 0 .416-.16.768-.47 1.056-.3.277-.68.416-1.15.416zm1.36.928V70h-2.73v-8.928zm6 6.368 1.94-6.368h2.91L767.61 70h-3.38l-3.16-8.928h2.92zm7.38-7.296c-.48 0-.88-.139-1.19-.416-.3-.288-.45-.64-.45-1.056 0-.427.15-.779.45-1.056.31-.288.71-.432 1.19-.432.46 0 .85.144 1.15.432.31.277.46.629.46 1.056 0 .416-.15.768-.46 1.056-.3.277-.69.416-1.15.416zm1.36.928V70h-2.74v-8.928zm6.95 6.608V70h-1.39c-.99 0-1.76-.24-2.32-.72-.55-.491-.83-1.285-.83-2.384v-3.552h-1.09v-2.272h1.09v-2.176h2.74v2.176h1.79v2.272h-1.79v3.584c0 .267.06.459.19.576.13.117.34.176.64.176zm10.65-6.608-5.6 13.168h-2.95l2.05-4.544-3.63-8.624h3.06l2.06 5.584 2.05-5.584zm.25 12.272v-.256c1.07-1.109 1.89-2.421 2.48-3.936.59-1.515.88-3.088.88-4.72 0-1.643-.3-3.237-.91-4.784-.61-1.557-1.47-2.891-2.59-4v-.256h2.69c1.09 1.003 1.94 2.304 2.54 3.904.6 1.589.9 3.301.9 5.136 0 1.813-.29 3.504-.87 5.072-.57 1.568-1.38 2.848-2.41 3.84z"/>
  <path id="rect5" fill="#fff" d="M540 232h141v64H540z"/>
  <path id="path6" fill="#242527" d="m572.9 248-2.336-4.24h-.656V248h-2.736v-11.232h4.592c.885 0 1.637.155 2.256.464.629.309 1.098.736 1.408 1.28a3.51 3.51 0 0 1 .464 1.792 3.32 3.32 0 0 1-.64 2c-.416.587-1.035 1.003-1.856 1.248l2.592 4.448zm-2.992-6.176h1.696c.501 0 .874-.123 1.12-.368.256-.245.384-.592.384-1.04 0-.427-.128-.763-.384-1.008-.246-.245-.619-.368-1.12-.368h-1.696zm16.117 1.568c0 .256-.016.523-.048.8h-6.192c.043.555.219.981.528 1.28.32.288.71.432 1.168.432.683 0 1.158-.288 1.424-.864h2.912a3.932 3.932 0 0 1-.816 1.584 3.976 3.976 0 0 1-1.456 1.104c-.586.267-1.242.4-1.968.4-.874 0-1.653-.187-2.336-.56a3.987 3.987 0 0 1-1.6-1.6c-.384-.693-.576-1.504-.576-2.432 0-.928.187-1.739.56-2.432a3.987 3.987 0 0 1 1.6-1.6c.683-.373 1.467-.56 2.352-.56.864 0 1.632.181 2.304.544.672.363 1.195.88 1.568 1.552.384.672.576 1.456.576 2.352zm-2.8-.72c0-.469-.16-.843-.48-1.12-.32-.277-.72-.416-1.2-.416-.458 0-.848.133-1.168.4-.309.267-.501.645-.576 1.136zm3.7.848c0-.917.17-1.723.512-2.416.352-.693.826-1.227 1.424-1.6a3.699 3.699 0 0 1 2-.56c.629 0 1.178.128 1.648.384.48.256.848.592 1.104 1.008v-1.264h2.736V248h-2.736v-1.264c-.267.416-.64.752-1.12 1.008-.47.256-1.019.384-1.648.384a3.669 3.669 0 0 1-1.984-.56c-.598-.384-1.072-.923-1.424-1.616-.342-.704-.512-1.515-.512-2.432zm6.688.016c0-.683-.192-1.221-.576-1.616a1.82 1.82 0 0 0-1.376-.592 1.87 1.87 0 0 0-1.392.592c-.374.384-.56.917-.56 1.6s.186 1.227.56 1.632a1.87 1.87 0 0 0 1.392.592 1.82 1.82 0 0 0 1.376-.592c.384-.395.576-.933.576-1.616zm4.171-.016c0-.917.171-1.723.512-2.416.352-.693.827-1.227 1.424-1.6a3.699 3.699 0 0 1 2-.56c.587 0 1.12.123 1.6.368a2.91 2.91 0 0 1 1.152.992v-4.144h2.736V248h-2.736v-1.28a2.772 2.772 0 0 1-1.104 1.024c-.469.256-1.019.384-1.648.384a3.699 3.699 0 0 1-2-.56c-.597-.384-1.072-.923-1.424-1.616-.341-.704-.512-1.515-.512-2.432zm6.688.016c0-.683-.192-1.221-.576-1.616a1.818 1.818 0 0 0-1.376-.592 1.87 1.87 0 0 0-1.392.592c-.373.384-.56.917-.56 1.6s.187 1.227.56 1.632a1.87 1.87 0 0 0 1.392.592c.544 0 1.003-.197 1.376-.592.384-.395.576-.933.576-1.616zm12.314-6.768c1.184 0 2.219.235 3.104.704a4.965 4.965 0 0 1 2.048 1.984c.491.843.736 1.819.736 2.928 0 1.099-.245 2.075-.736 2.928a4.94 4.94 0 0 1-2.064 1.984c-.885.469-1.915.704-3.088.704h-4.208v-11.232zm-.176 8.864c1.035 0 1.84-.283 2.416-.848.576-.565.864-1.365.864-2.4s-.288-1.84-.864-2.416c-.576-.576-1.381-.864-2.416-.864h-1.296v6.528zm7.049-2.112c0-.917.171-1.723.512-2.416.352-.693.827-1.227 1.424-1.6a3.699 3.699 0 0 1 2-.56c.629 0 1.179.128 1.648.384.48.256.848.592 1.104 1.008v-1.264h2.736V248h-2.736v-1.264c-.267.416-.64.752-1.12 1.008-.469.256-1.019.384-1.648.384a3.671 3.671 0 0 1-1.984-.56c-.597-.384-1.072-.923-1.424-1.616-.341-.704-.512-1.515-.512-2.432zm6.688.016c0-.683-.192-1.221-.576-1.616a1.818 1.818 0 0 0-1.376-.592 1.87 1.87 0 0 0-1.392.592c-.373.384-.56.917-.56 1.6s.187 1.227.56 1.632a1.87 1.87 0 0 0 1.392.592c.544 0 1.003-.197 1.376-.592.384-.395.576-.933.576-1.616zm9.691 2.144V248h-1.392c-.992 0-1.765-.24-2.32-.72-.554-.491-.832-1.285-.832-2.384v-3.552h-1.088v-2.272h1.088v-2.176h2.736v2.176h1.792v2.272h-1.792v3.584c0 .267.064.459.192.576.128.117.342.176.64.176zm.98-2.16c0-.917.171-1.723.512-2.416.352-.693.827-1.227 1.424-1.6a3.701 3.701 0 0 1 2-.56c.63 0 1.179.128 1.648.384.48.256.848.592 1.104 1.008v-1.264h2.736V248h-2.736v-1.264c-.266.416-.64.752-1.12 1.008-.469.256-1.018.384-1.648.384a3.674 3.674 0 0 1-1.984-.56c-.597-.384-1.072-.923-1.424-1.616-.341-.704-.512-1.515-.512-2.432zm6.688.016c0-.683-.192-1.221-.576-1.616a1.818 1.818 0 0 0-1.376-.592 1.87 1.87 0 0 0-1.392.592c-.373.384-.56.917-.56 1.6s.187 1.227.56 1.632a1.87 1.87 0 0 0 1.392.592c.544 0 1.003-.197 1.376-.592.384-.395.576-.933.576-1.616zm-69.589 29.808c-1.034-.992-1.84-2.272-2.416-3.84-.576-1.568-.864-3.259-.864-5.072 0-1.835.299-3.547.896-5.136.598-1.6 1.446-2.901 2.544-3.904h2.688v.256c-1.12 1.109-1.984 2.443-2.592 4a12.966 12.966 0 0 0-.912 4.784c0 1.632.294 3.205.88 4.72.587 1.515 1.414 2.827 2.48 3.936v.256zm8.425-10h-1.472V270h-2.736v-6.656h-.992v-2.272h.992v-.256c0-1.099.315-1.931.944-2.496.63-.576 1.552-.864 2.768-.864.203 0 .352.005.448.016v2.32c-.522-.032-.89.043-1.104.224-.213.181-.32.507-.32.976v.08h1.472zm5.35 6.784c-.875 0-1.664-.187-2.368-.56a4.168 4.168 0 0 1-1.648-1.6c-.395-.693-.592-1.504-.592-2.432 0-.917.203-1.723.608-2.416a4.107 4.107 0 0 1 1.664-1.616c.704-.373 1.493-.56 2.368-.56.875 0 1.664.187 2.368.56a4.107 4.107 0 0 1 1.664 1.616c.405.693.608 1.499.608 2.416 0 .917-.208 1.728-.624 2.432a4.11 4.11 0 0 1-1.68 1.6c-.704.373-1.493.56-2.368.56zm0-2.368c.523 0 .965-.192 1.328-.576.373-.384.56-.933.56-1.648 0-.715-.181-1.264-.544-1.648a1.707 1.707 0 0 0-1.312-.576c-.533 0-.976.192-1.328.576-.352.373-.528.923-.528 1.648 0 .715.171 1.264.512 1.648.352.384.789.576 1.312.576zm8.859-5.2c.32-.491.72-.875 1.2-1.152a3.052 3.052 0 0 1 1.6-.432v2.896h-.752c-.682 0-1.194.149-1.536.448-.341.288-.512.8-.512 1.536V270h-2.736v-8.928h2.736zm10.187-3.792v6.72c0 .672.165 1.189.496 1.552.33.363.816.544 1.456.544s1.13-.181 1.472-.544c.341-.363.512-.88.512-1.552v-6.72h2.736v6.704c0 1.003-.214 1.851-.64 2.544a4.093 4.093 0 0 1-1.728 1.568c-.715.352-1.515.528-2.4.528-.886 0-1.68-.171-2.384-.512a3.949 3.949 0 0 1-1.648-1.568c-.406-.704-.608-1.557-.608-2.56v-6.704zm12.225 11.36c-.779 0-1.472-.133-2.08-.4-.608-.267-1.088-.629-1.44-1.088a2.926 2.926 0 0 1-.592-1.568h2.704c.032.309.176.56.432.752.256.192.571.288.944.288.341 0 .603-.064.784-.192.192-.139.288-.315.288-.528 0-.256-.133-.443-.4-.56-.267-.128-.699-.267-1.296-.416a13.14 13.14 0 0 1-1.6-.464 2.871 2.871 0 0 1-1.104-.784c-.309-.363-.464-.848-.464-1.456 0-.512.139-.976.416-1.392.288-.427.704-.763 1.248-1.008.555-.245 1.211-.368 1.968-.368 1.12 0 2 .277 2.64.832.651.555 1.024 1.291 1.12 2.208h-2.528a1.078 1.078 0 0 0-.416-.736c-.224-.181-.523-.272-.896-.272-.32 0-.565.064-.736.192a.567.567 0 0 0-.256.496c0 .256.133.448.4.576.277.128.704.256 1.28.384.661.171 1.2.341 1.616.512.416.16.779.427 1.088.8.32.363.485.853.496 1.472 0 .523-.149.992-.448 1.408-.288.405-.709.725-1.264.96-.544.235-1.179.352-1.904.352zm13.706-4.736c0 .256-.016.523-.048.8h-6.192c.043.555.219.981.528 1.28.32.288.709.432 1.168.432.683 0 1.157-.288 1.424-.864h2.912a3.932 3.932 0 0 1-.816 1.584 3.976 3.976 0 0 1-1.456 1.104c-.587.267-1.243.4-1.968.4-.875 0-1.653-.187-2.336-.56a3.981 3.981 0 0 1-1.6-1.6c-.384-.693-.576-1.504-.576-2.432 0-.928.187-1.739.56-2.432a3.981 3.981 0 0 1 1.6-1.6c.683-.373 1.467-.56 2.352-.56.864 0 1.632.181 2.304.544.672.363 1.195.88 1.568 1.552.384.672.576 1.456.576 2.352zm-2.8-.72c0-.469-.16-.843-.48-1.12-.32-.277-.72-.416-1.2-.416-.459 0-.848.133-1.168.4-.309.267-.501.645-.576 1.136zm6.979-2.112c.32-.491.72-.875 1.2-1.152a3.052 3.052 0 0 1 1.6-.432v2.896h-.752c-.682 0-1.194.149-1.536.448-.341.288-.512.8-.512 1.536V270h-2.736v-8.928h2.736zm-90.254 23.808c0-1.109.24-2.096.72-2.96a5.086 5.086 0 0 1 2-2.032c.864-.491 1.84-.736 2.928-.736 1.333 0 2.474.352 3.424 1.056.949.704 1.584 1.664 1.904 2.88h-3.008a2.414 2.414 0 0 0-.96-1.072 2.641 2.641 0 0 0-1.392-.368c-.843 0-1.526.293-2.048.88-.523.587-.784 1.371-.784 2.352 0 .981.261 1.765.784 2.352.522.587 1.205.88 2.048.88.522 0 .986-.123 1.392-.368.416-.245.736-.603.96-1.072h3.008c-.32 1.216-.955 2.176-1.904 2.88-.95.693-2.091 1.04-3.424 1.04-1.088 0-2.064-.24-2.928-.72a5.23 5.23 0 0 1-2-2.032c-.48-.864-.72-1.851-.72-2.96zm16.715 5.76c-.875 0-1.664-.187-2.368-.56a4.168 4.168 0 0 1-1.648-1.6c-.395-.693-.592-1.504-.592-2.432 0-.917.203-1.723.608-2.416a4.107 4.107 0 0 1 1.664-1.616c.704-.373 1.493-.56 2.368-.56.875 0 1.664.187 2.368.56a4.107 4.107 0 0 1 1.664 1.616c.405.693.608 1.499.608 2.416 0 .917-.208 1.728-.624 2.432a4.11 4.11 0 0 1-1.68 1.6c-.704.373-1.493.56-2.368.56zm0-2.368c.523 0 .965-.192 1.328-.576.373-.384.56-.933.56-1.648 0-.715-.181-1.264-.544-1.648a1.707 1.707 0 0 0-1.312-.576c-.533 0-.976.192-1.328.576-.352.373-.528.923-.528 1.648 0 .715.171 1.264.512 1.648.352.384.789.576 1.312.576zm11.564-6.784c1.045 0 1.877.341 2.496 1.024.629.672.944 1.6.944 2.784V292h-2.72v-4.848c0-.597-.155-1.061-.464-1.392-.31-.331-.726-.496-1.248-.496-.523 0-.939.165-1.248.496-.31.331-.464.795-.464 1.392V292h-2.736v-8.928h2.736v1.184c.277-.395.65-.704 1.12-.928a3.487 3.487 0 0 1 1.584-.352zm8.973 9.152c-.779 0-1.472-.133-2.08-.4-.608-.267-1.088-.629-1.44-1.088a2.926 2.926 0 0 1-.592-1.568h2.704c.032.309.176.56.432.752.256.192.571.288.944.288.341 0 .603-.064.784-.192.192-.139.288-.315.288-.528 0-.256-.133-.443-.4-.56-.267-.128-.699-.267-1.296-.416a13.14 13.14 0 0 1-1.6-.464 2.871 2.871 0 0 1-1.104-.784c-.309-.363-.464-.848-.464-1.456 0-.512.139-.976.416-1.392.288-.427.704-.763 1.248-1.008.555-.245 1.211-.368 1.968-.368 1.12 0 2 .277 2.64.832.651.555 1.024 1.291 1.12 2.208h-2.528a1.078 1.078 0 0 0-.416-.736c-.224-.181-.523-.272-.896-.272-.32 0-.565.064-.736.192a.567.567 0 0 0-.256.496c0 .256.133.448.4.576.277.128.704.256 1.28.384.661.171 1.2.341 1.616.512.416.16.779.427 1.088.8.32.363.485.853.496 1.472 0 .523-.149.992-.448 1.408-.288.405-.709.725-1.264.96-.544.235-1.179.352-1.904.352zm14.106-9.056V292h-2.736v-1.216a3.054 3.054 0 0 1-1.136.96c-.47.235-.992.352-1.568.352-.683 0-1.286-.149-1.808-.448a3.122 3.122 0 0 1-1.216-1.328c-.288-.576-.432-1.253-.432-2.032v-5.216h2.72v4.848c0 .597.154 1.061.464 1.392.309.331.725.496 1.248.496.533 0 .954-.165 1.264-.496.309-.331.464-.795.464-1.392v-4.848zm13.357-.096c1.109 0 1.989.336 2.64 1.008.661.672.992 1.605.992 2.8V292h-2.72v-4.848c0-.576-.155-1.019-.464-1.328-.299-.32-.715-.48-1.248-.48s-.955.16-1.264.48c-.299.309-.448.752-.448 1.328V292h-2.72v-4.848c0-.576-.155-1.019-.464-1.328-.299-.32-.715-.48-1.248-.48s-.955.16-1.264.48c-.299.309-.448.752-.448 1.328V292h-2.736v-8.928h2.736v1.12c.277-.373.64-.667 1.088-.88a3.353 3.353 0 0 1 1.52-.336c.672 0 1.269.144 1.792.432a3.09 3.09 0 0 1 1.248 1.232 3.59 3.59 0 0 1 1.264-1.2 3.418 3.418 0 0 1 1.744-.464zm8.282 1.36a2.96 2.96 0 0 1 1.104-1.008c.469-.256 1.018-.384 1.648-.384.736 0 1.402.187 2 .56.597.373 1.066.907 1.408 1.6.352.693.528 1.499.528 2.416 0 .917-.176 1.728-.528 2.432-.342.693-.811 1.232-1.408 1.616a3.701 3.701 0 0 1-2 .56c-.619 0-1.168-.128-1.648-.384a3.015 3.015 0 0 1-1.104-.992v5.504h-2.736v-13.184h2.736zm3.904 3.184c0-.683-.192-1.216-.576-1.6a1.839 1.839 0 0 0-1.392-.592 1.87 1.87 0 0 0-1.392.592c-.374.395-.56.933-.56 1.616s.186 1.221.56 1.616a1.87 1.87 0 0 0 1.392.592 1.87 1.87 0 0 0 1.392-.592c.384-.405.576-.949.576-1.632zm9.195 2.16V292h-1.392c-.992 0-1.765-.24-2.32-.72-.555-.491-.832-1.285-.832-2.384v-3.552h-1.088v-2.272h1.088v-2.176h2.736v2.176h1.792v2.272h-1.792v3.584c0 .267.064.459.192.576.128.117.341.176.64.176zm2.9-7.536c-.48 0-.875-.139-1.184-.416a1.41 1.41 0 0 1-.448-1.056c0-.427.149-.779.448-1.056.309-.288.704-.432 1.184-.432.469 0 .853.144 1.152.432.309.277.464.629.464 1.056 0 .416-.155.768-.464 1.056-.299.277-.683.416-1.152.416zm1.36.928V292h-2.736v-8.928zm6.047 9.056c-.875 0-1.664-.187-2.368-.56a4.162 4.162 0 0 1-1.648-1.6c-.395-.693-.592-1.504-.592-2.432 0-.917.202-1.723.608-2.416a4.107 4.107 0 0 1 1.664-1.616c.704-.373 1.493-.56 2.368-.56.874 0 1.664.187 2.368.56a4.113 4.113 0 0 1 1.664 1.616c.405.693.608 1.499.608 2.416 0 .917-.208 1.728-.624 2.432a4.123 4.123 0 0 1-1.68 1.6c-.704.373-1.494.56-2.368.56zm0-2.368c.522 0 .965-.192 1.328-.576.373-.384.56-.933.56-1.648 0-.715-.182-1.264-.544-1.648a1.708 1.708 0 0 0-1.312-.576c-.534 0-.976.192-1.328.576-.352.373-.528.923-.528 1.648 0 .715.17 1.264.512 1.648.352.384.789.576 1.312.576zm11.563-6.784c1.045 0 1.877.341 2.496 1.024.629.672.944 1.6.944 2.784V292h-2.72v-4.848c0-.597-.155-1.061-.464-1.392-.309-.331-.725-.496-1.248-.496s-.939.165-1.248.496c-.309.331-.464.795-.464 1.392V292h-2.736v-8.928h2.736v1.184a2.821 2.821 0 0 1 1.12-.928 3.487 3.487 0 0 1 1.584-.352zm4.605 12.368v-.256c1.067-1.109 1.894-2.421 2.48-3.936.587-1.515.88-3.088.88-4.72 0-1.643-.304-3.237-.912-4.784-.608-1.557-1.472-2.891-2.592-4v-.256h2.688c1.099 1.003 1.947 2.304 2.544 3.904.598 1.589.896 3.301.896 5.136 0 1.813-.288 3.504-.864 5.072-.576 1.568-1.381 2.848-2.416 3.84z"/>
  <path id="rect6" fill="#fff" d="M172 32h137v42H172z"/>
  <path id="path7" fill="#242527" d="M186.072 38.96v2.272h3.664v2.112h-3.664v2.464h4.144V48h-6.88V36.768h6.88v2.192zm5.376 4.56c0-.917.171-1.723.512-2.416.352-.693.827-1.227 1.424-1.6a3.699 3.699 0 0 1 2-.56c.629 0 1.179.128 1.648.384.48.256.848.592 1.104 1.008v-1.264h2.736V48h-2.736v-1.264c-.267.416-.64.752-1.12 1.008-.469.256-1.019.384-1.648.384a3.671 3.671 0 0 1-1.984-.56c-.597-.384-1.072-.923-1.424-1.616-.341-.704-.512-1.515-.512-2.432zm6.688.016c0-.683-.192-1.221-.576-1.616a1.818 1.818 0 0 0-1.376-.592 1.87 1.87 0 0 0-1.392.592c-.373.384-.56.917-.56 1.6s.187 1.227.56 1.632a1.87 1.87 0 0 0 1.392.592c.544 0 1.003-.197 1.376-.592.384-.395.576-.933.576-1.616zm7.451-2.976c.32-.491.72-.875 1.2-1.152a3.052 3.052 0 0 1 1.6-.432v2.896h-.752c-.682 0-1.194.149-1.536.448-.341.288-.512.8-.512 1.536V48h-2.736v-8.928h2.736zm9.548-1.584c1.045 0 1.877.341 2.496 1.024.629.672.944 1.6.944 2.784V48h-2.72v-4.848c0-.597-.155-1.061-.464-1.392-.309-.331-.725-.496-1.248-.496s-.939.165-1.248.496c-.309.331-.464.795-.464 1.392V48h-2.736v-8.928h2.736v1.184a2.821 2.821 0 0 1 1.12-.928 3.487 3.487 0 0 1 1.584-.352zm8.268 3.392c0-1.109.24-2.096.72-2.96a5.093 5.093 0 0 1 2-2.032c.864-.491 1.84-.736 2.928-.736 1.333 0 2.475.352 3.424 1.056.949.704 1.584 1.664 1.904 2.88h-3.008a2.414 2.414 0 0 0-.96-1.072 2.636 2.636 0 0 0-1.392-.368c-.843 0-1.525.293-2.048.88-.523.587-.784 1.371-.784 2.352 0 .981.261 1.765.784 2.352s1.205.88 2.048.88c.523 0 .987-.123 1.392-.368.416-.245.736-.603.96-1.072h3.008c-.32 1.216-.955 2.176-1.904 2.88-.949.693-2.091 1.04-3.424 1.04-1.088 0-2.064-.24-2.928-.72a5.236 5.236 0 0 1-2-2.032c-.48-.864-.72-1.851-.72-2.96zm12.108 1.152c0-.917.17-1.723.512-2.416.352-.693.826-1.227 1.424-1.6a3.699 3.699 0 0 1 2-.56c.629 0 1.178.128 1.648.384.48.256.848.592 1.104 1.008v-1.264h2.736V48h-2.736v-1.264c-.267.416-.64.752-1.12 1.008-.47.256-1.019.384-1.648.384a3.669 3.669 0 0 1-1.984-.56c-.598-.384-1.072-.923-1.424-1.616-.342-.704-.512-1.515-.512-2.432zm6.688.016c0-.683-.192-1.221-.576-1.616a1.82 1.82 0 0 0-1.376-.592 1.87 1.87 0 0 0-1.392.592c-.374.384-.56.917-.56 1.6s.186 1.227.56 1.632a1.87 1.87 0 0 0 1.392.592 1.82 1.82 0 0 0 1.376-.592c.384-.395.576-.933.576-1.616zm7.451-3.2a2.975 2.975 0 0 1 1.104-1.008c.469-.256 1.019-.384 1.648-.384.736 0 1.403.187 2 .56.597.373 1.067.907 1.408 1.6.352.693.528 1.499.528 2.416 0 .917-.176 1.728-.528 2.432-.341.693-.811 1.232-1.408 1.616a3.699 3.699 0 0 1-2 .56c-.619 0-1.168-.128-1.648-.384a3.031 3.031 0 0 1-1.104-.992v5.504h-2.736V39.072h2.736zm3.904 3.184c0-.683-.192-1.216-.576-1.6a1.836 1.836 0 0 0-1.392-.592 1.87 1.87 0 0 0-1.392.592c-.373.395-.56.933-.56 1.616s.187 1.221.56 1.616a1.87 1.87 0 0 0 1.392.592 1.87 1.87 0 0 0 1.392-.592c.384-.405.576-.949.576-1.632zm3.675 0c0-.917.171-1.723.512-2.416.352-.693.827-1.227 1.424-1.6a3.701 3.701 0 0 1 2-.56c.63 0 1.179.128 1.648.384.48.256.848.592 1.104 1.008v-1.264h2.736V48h-2.736v-1.264c-.266.416-.64.752-1.12 1.008-.469.256-1.018.384-1.648.384a3.674 3.674 0 0 1-1.984-.56c-.597-.384-1.072-.923-1.424-1.616-.341-.704-.512-1.515-.512-2.432zm6.688.016c0-.683-.192-1.221-.576-1.616a1.818 1.818 0 0 0-1.376-.592 1.87 1.87 0 0 0-1.392.592c-.373.384-.56.917-.56 1.6s.187 1.227.56 1.632a1.87 1.87 0 0 0 1.392.592c.544 0 1.003-.197 1.376-.592.384-.395.576-.933.576-1.616zm4.172 0c0-.928.186-1.739.56-2.432a4.012 4.012 0 0 1 1.584-1.6c.682-.373 1.461-.56 2.336-.56 1.12 0 2.053.293 2.8.88.757.587 1.253 1.413 1.488 2.48h-2.912c-.246-.683-.72-1.024-1.424-1.024-.502 0-.902.197-1.2.592-.299.384-.448.939-.448 1.664s.149 1.285.448 1.68c.298.384.698.576 1.2.576.704 0 1.178-.341 1.424-1.024h2.912c-.235 1.045-.731 1.867-1.488 2.464-.758.597-1.691.896-2.8.896-.875 0-1.654-.187-2.336-.56a4.012 4.012 0 0 1-1.584-1.6c-.374-.693-.56-1.504-.56-2.432zm11.607-5.392c-.48 0-.875-.139-1.184-.416a1.41 1.41 0 0 1-.448-1.056c0-.427.149-.779.448-1.056.309-.288.704-.432 1.184-.432.469 0 .853.144 1.152.432.309.277.464.629.464 1.056 0 .416-.155.768-.464 1.056-.299.277-.683.416-1.152.416zm1.36.928V48h-2.736v-8.928zm6.959 6.608V48h-1.392c-.992 0-1.765-.24-2.32-.72-.555-.491-.832-1.285-.832-2.384v-3.552h-1.088v-2.272h1.088v-2.176h2.736v2.176h1.792v2.272h-1.792v3.584c0 .267.064.459.192.576.128.117.341.176.64.176zm10.644-6.608-5.6 13.168h-2.944l2.048-4.544-3.632-8.624h3.056l2.064 5.584 2.048-5.584zm-99.721 34.272c-1.035-.992-1.84-2.272-2.416-3.84-.576-1.568-.864-3.259-.864-5.072 0-1.835.298-3.547.896-5.136.597-1.6 1.445-2.901 2.544-3.904h2.688v.256c-1.12 1.109-1.984 2.443-2.592 4a12.966 12.966 0 0 0-.912 4.784c0 1.632.293 3.205.88 4.72.586 1.515 1.413 2.827 2.48 3.936v.256zm6.681-10.784c.32-.491.72-.875 1.2-1.152a3.05 3.05 0 0 1 1.6-.432v2.896h-.752c-.683 0-1.195.149-1.536.448-.342.288-.512.8-.512 1.536V70h-2.736v-8.928h2.736zm12.523 2.832c0 .256-.016.523-.048.8h-6.192c.043.555.219.981.528 1.28.32.288.71.432 1.168.432.683 0 1.158-.288 1.424-.864h2.912a3.932 3.932 0 0 1-.816 1.584 3.976 3.976 0 0 1-1.456 1.104c-.586.267-1.242.4-1.968.4-.874 0-1.653-.187-2.336-.56a3.987 3.987 0 0 1-1.6-1.6c-.384-.693-.576-1.504-.576-2.432 0-.928.187-1.739.56-2.432a3.987 3.987 0 0 1 1.6-1.6c.683-.373 1.467-.56 2.352-.56.864 0 1.632.181 2.304.544.672.363 1.195.88 1.568 1.552.384.672.576 1.456.576 2.352zm-2.8-.72c0-.469-.16-.843-.48-1.12-.32-.277-.72-.416-1.2-.416-.458 0-.848.133-1.168.4-.309.267-.501.645-.576 1.136zm3.7.864c0-.928.186-1.739.56-2.432a4.012 4.012 0 0 1 1.584-1.6c.682-.373 1.461-.56 2.336-.56 1.12 0 2.053.293 2.8.88.757.587 1.253 1.413 1.488 2.48h-2.912c-.246-.683-.72-1.024-1.424-1.024-.502 0-.902.197-1.2.592-.299.384-.448.939-.448 1.664s.149 1.285.448 1.68c.298.384.698.576 1.2.576.704 0 1.178-.341 1.424-1.024h2.912c-.235 1.045-.731 1.867-1.488 2.464-.758.597-1.691.896-2.8.896-.875 0-1.654-.187-2.336-.56a4.012 4.012 0 0 1-1.584-1.6c-.374-.693-.56-1.504-.56-2.432zm19.047-4.464V70h-2.736v-1.216a3.046 3.046 0 0 1-1.136.96 3.452 3.452 0 0 1-1.568.352c-.682 0-1.285-.149-1.808-.448a3.128 3.128 0 0 1-1.216-1.328c-.288-.576-.432-1.253-.432-2.032v-5.216h2.72v4.848c0 .597.155 1.061.464 1.392.31.331.726.496 1.248.496.534 0 .955-.165 1.264-.496.31-.331.464-.795.464-1.392v-4.848zm4.702 1.488c.32-.491.72-.875 1.2-1.152a3.05 3.05 0 0 1 1.6-.432v2.896h-.752c-.683 0-1.195.149-1.536.448-.342.288-.512.8-.512 1.536V70h-2.736v-8.928h2.736zm6.843 0c.32-.491.72-.875 1.2-1.152a3.052 3.052 0 0 1 1.6-.432v2.896h-.752c-.682 0-1.194.149-1.536.448-.341.288-.512.8-.512 1.536V70h-2.736v-8.928h2.736zm5.484-2.416c-.48 0-.875-.139-1.184-.416a1.41 1.41 0 0 1-.448-1.056c0-.427.149-.779.448-1.056.309-.288.704-.432 1.184-.432.469 0 .853.144 1.152.432.309.277.464.629.464 1.056 0 .416-.155.768-.464 1.056-.299.277-.683.416-1.152.416zm1.36.928V70h-2.736v-8.928zm7.423-.096c1.045 0 1.877.341 2.496 1.024.629.672.944 1.6.944 2.784V70h-2.72v-4.848c0-.597-.155-1.061-.464-1.392-.31-.331-.726-.496-1.248-.496-.523 0-.939.165-1.248.496-.31.331-.464.795-.464 1.392V70h-2.736v-8.928h2.736v1.184c.277-.395.65-.704 1.12-.928a3.487 3.487 0 0 1 1.584-.352zm8.733-.032c.629 0 1.179.128 1.648.384.48.256.848.592 1.104 1.008v-1.264h2.736v8.912c0 .821-.165 1.563-.496 2.224a3.648 3.648 0 0 1-1.488 1.6c-.661.395-1.488.592-2.48.592-1.323 0-2.395-.315-3.216-.944-.821-.619-1.291-1.461-1.408-2.528h2.704c.085.341.288.608.608.8.32.203.715.304 1.184.304.565 0 1.013-.165 1.344-.496.341-.32.512-.837.512-1.552V68.72a3.11 3.11 0 0 1-1.104 1.024c-.469.256-1.019.384-1.648.384a3.699 3.699 0 0 1-2-.56c-.597-.384-1.072-.923-1.424-1.616-.341-.704-.512-1.515-.512-2.432s.171-1.723.512-2.416c.352-.693.827-1.227 1.424-1.6a3.699 3.699 0 0 1 2-.56zm2.752 4.592c0-.683-.192-1.221-.576-1.616a1.818 1.818 0 0 0-1.376-.592 1.87 1.87 0 0 0-1.392.592c-.373.384-.56.917-.56 1.6s.187 1.227.56 1.632a1.87 1.87 0 0 0 1.392.592c.544 0 1.003-.197 1.376-.592.384-.395.576-.933.576-1.616zm3.979 7.808v-.256c1.067-1.109 1.894-2.421 2.48-3.936.587-1.515.88-3.088.88-4.72 0-1.643-.304-3.237-.912-4.784-.608-1.557-1.472-2.891-2.592-4v-.256h2.688c1.099 1.003 1.947 2.304 2.544 3.904.598 1.589.896 3.301.896 5.136 0 1.813-.288 3.504-.864 5.072-.576 1.568-1.381 2.848-2.416 3.84z"/>
  <path id="rect7" fill="#fff" d="M251 244h134v42H251z"/>
  <path id="path8" fill="#242527" d="M268.337 271.112c-.821 0-1.557-.133-2.208-.4a3.66 3.66 0 0 1-1.568-1.184c-.384-.523-.586-1.152-.608-1.888h2.912c.043.416.187.736.432.96.246.213.566.32.96.32.406 0 .726-.091.96-.272.235-.192.352-.453.352-.784a.906.906 0 0 0-.288-.688 2.125 2.125 0 0 0-.688-.448c-.266-.117-.65-.251-1.152-.4-.725-.224-1.317-.448-1.776-.672a3.293 3.293 0 0 1-1.184-.992c-.33-.437-.496-1.008-.496-1.712 0-1.045.379-1.861 1.136-2.448.758-.597 1.744-.896 2.96-.896 1.238 0 2.235.299 2.992.896.758.587 1.163 1.408 1.216 2.464h-2.96c-.021-.363-.154-.645-.4-.848-.245-.213-.56-.32-.944-.32-.33 0-.597.091-.8.272-.202.171-.304.421-.304.752 0 .363.171.645.512.848.342.203.875.421 1.6.656.726.245 1.312.48 1.76.704.459.224.854.549 1.184.976.331.427.496.976.496 1.648 0 .64-.165 1.221-.496 1.744-.32.523-.789.939-1.408 1.248-.618.309-1.349.464-2.192.464zm10.756-2.432V271h-1.392c-.992 0-1.765-.24-2.32-.72-.555-.491-.832-1.285-.832-2.384v-3.552h-1.088v-2.272h1.088v-2.176h2.736v2.176h1.792v2.272h-1.792v3.584c0 .267.064.459.192.576.128.117.341.176.64.176zm.98-2.16c0-.917.171-1.723.512-2.416.352-.693.827-1.227 1.424-1.6a3.699 3.699 0 0 1 2-.56c.629 0 1.179.128 1.648.384.48.256.848.592 1.104 1.008v-1.264h2.736V271h-2.736v-1.264c-.267.416-.64.752-1.12 1.008-.469.256-1.019.384-1.648.384a3.671 3.671 0 0 1-1.984-.56c-.597-.384-1.072-.923-1.424-1.616-.341-.704-.512-1.515-.512-2.432zm6.688.016c0-.683-.192-1.221-.576-1.616a1.818 1.818 0 0 0-1.376-.592 1.87 1.87 0 0 0-1.392.592c-.373.384-.56.917-.56 1.6s.187 1.227.56 1.632a1.87 1.87 0 0 0 1.392.592c.544 0 1.003-.197 1.376-.592.384-.395.576-.933.576-1.616zM296.932 271l-2.72-3.744V271h-2.736v-11.84h2.736v6.544l2.704-3.632h3.376l-3.712 4.48 3.744 4.448zm12.851-4.608c0 .256-.016.523-.048.8h-6.192c.043.555.219.981.528 1.28.32.288.709.432 1.168.432.683 0 1.157-.288 1.424-.864h2.912a3.932 3.932 0 0 1-.816 1.584 3.976 3.976 0 0 1-1.456 1.104c-.587.267-1.243.4-1.968.4-.875 0-1.653-.187-2.336-.56a3.981 3.981 0 0 1-1.6-1.6c-.384-.693-.576-1.504-.576-2.432 0-.928.187-1.739.56-2.432a3.981 3.981 0 0 1 1.6-1.6c.683-.373 1.467-.56 2.352-.56.864 0 1.632.181 2.304.544.672.363 1.195.88 1.568 1.552.384.672.576 1.456.576 2.352zm-2.8-.72c0-.469-.16-.843-.48-1.12-.32-.277-.72-.416-1.2-.416-.459 0-.848.133-1.168.4-.309.267-.501.645-.576 1.136zm15.714-5.904v2.192h-2.976V271h-2.736v-9.04h-2.976v-2.192zm5.437 11.36c-.875 0-1.664-.187-2.368-.56a4.168 4.168 0 0 1-1.648-1.6c-.395-.693-.592-1.504-.592-2.432 0-.917.203-1.723.608-2.416a4.107 4.107 0 0 1 1.664-1.616c.704-.373 1.493-.56 2.368-.56.875 0 1.664.187 2.368.56a4.107 4.107 0 0 1 1.664 1.616c.405.693.608 1.499.608 2.416 0 .917-.208 1.728-.624 2.432a4.11 4.11 0 0 1-1.68 1.6c-.704.373-1.493.56-2.368.56zm0-2.368c.523 0 .965-.192 1.328-.576.373-.384.56-.933.56-1.648 0-.715-.181-1.264-.544-1.648a1.707 1.707 0 0 0-1.312-.576c-.533 0-.976.192-1.328.576-.352.373-.528.923-.528 1.648 0 .715.171 1.264.512 1.648.352.384.789.576 1.312.576zm11.58 2.24-2.72-3.744V271h-2.736v-11.84h2.736v6.544l2.704-3.632h3.376l-3.712 4.48 3.744 4.448zm12.85-4.608c0 .256-.016.523-.048.8h-6.192c.043.555.219.981.528 1.28.32.288.71.432 1.168.432.683 0 1.158-.288 1.424-.864h2.912a3.932 3.932 0 0 1-.816 1.584 3.976 3.976 0 0 1-1.456 1.104c-.586.267-1.242.4-1.968.4-.874 0-1.653-.187-2.336-.56a3.987 3.987 0 0 1-1.6-1.6c-.384-.693-.576-1.504-.576-2.432 0-.928.187-1.739.56-2.432a3.987 3.987 0 0 1 1.6-1.6c.683-.373 1.467-.56 2.352-.56.864 0 1.632.181 2.304.544.672.363 1.195.88 1.568 1.552.384.672.576 1.456.576 2.352zm-2.8-.72c0-.469-.16-.843-.48-1.12-.32-.277-.72-.416-1.2-.416-.458 0-.848.133-1.168.4-.309.267-.501.645-.576 1.136zm9.684-3.696c1.045 0 1.877.341 2.496 1.024.629.672.944 1.6.944 2.784V271h-2.72v-4.848c0-.597-.155-1.061-.464-1.392-.31-.331-.726-.496-1.248-.496-.523 0-.939.165-1.248.496-.31.331-.464.795-.464 1.392V271h-2.736v-8.928h2.736v1.184c.277-.395.65-.704 1.12-.928a3.487 3.487 0 0 1 1.584-.352zm8.973 9.152c-.779 0-1.472-.133-2.08-.4-.608-.267-1.088-.629-1.44-1.088a2.926 2.926 0 0 1-.592-1.568h2.704c.032.309.176.56.432.752.256.192.571.288.944.288.341 0 .603-.064.784-.192.192-.139.288-.315.288-.528 0-.256-.133-.443-.4-.56-.267-.128-.699-.267-1.296-.416a13.14 13.14 0 0 1-1.6-.464 2.871 2.871 0 0 1-1.104-.784c-.309-.363-.464-.848-.464-1.456 0-.512.139-.976.416-1.392.288-.427.704-.763 1.248-1.008.555-.245 1.211-.368 1.968-.368 1.12 0 2 .277 2.64.832.651.555 1.024 1.291 1.12 2.208h-2.528a1.078 1.078 0 0 0-.416-.736c-.224-.181-.523-.272-.896-.272-.32 0-.565.064-.736.192a.567.567 0 0 0-.256.496c0 .256.133.448.4.576.277.128.704.256 1.28.384.661.171 1.2.341 1.616.512.416.16.779.427 1.088.8.32.363.485.853.496 1.472 0 .523-.149.992-.448 1.408-.288.405-.709.725-1.264.96-.544.235-1.179.352-1.904.352z"/>
  <g id="g38" filter="url(#filter0_d_2321_2969)" transform="translate(-287 -339)">
    <g id="g37" filter="url(#filter1_d_2321_2969)">
      <rect id="rect8" width="265" height="126" x="1019" y="535" fill="#fff" rx="10" ry="10"/>
      <rect id="rect9" width="262" height="123" x="1020.5" y="536.5" stroke="#331e49" stroke-linecap="round" stroke-width="3" rx="8.5" ry="8.5"/>
      <path id="path9" stroke="#f03b3b" stroke-miterlimit="10" stroke-width="2" d="m1088.37 601.77 10.35 5.985"/>
      <path id="path10" stroke="#f03b3b" stroke-miterlimit="10" stroke-width="2" d="m1098.72 588.438-10.35 5.985"/>
      <path id="path11" stroke="#f03b3b" stroke-miterlimit="10" stroke-width="2" d="M1082 582.39v8.328"/>
      <path id="path12" stroke="#f03b3b" stroke-miterlimit="10" stroke-width="2" d="M1082 605.475v7.853"/>
      <path id="path13" stroke="#f03b3b" stroke-miterlimit="10" stroke-width="2" d="M1098.75 588.436v-5.256l-10.35-5.985V579l-6.4 3.673-6.4-3.673v-1.837l-10.35 5.985v5.288l-4.59 2.66v14.06l4.59 2.629v5.225l10.35 5.985V617l6.4-3.674 6.4 3.674v1.931l10.35-5.953v-5.193l4.5-2.597v-14.155z"/>
      <path id="path14" stroke="#f03b3b" stroke-miterlimit="10" stroke-width="2" d="m1075.6 601.77-10.32 5.985"/>
      <path id="path15" stroke="#f03b3b" stroke-miterlimit="10" stroke-width="2" d="m1064.68 588.089 10.92 6.302"/>
      <path id="path16" stroke="#242527" stroke-miterlimit="10" stroke-width="2" d="m1088.4 617-6.4-3.674-6.4 3.674v7.41l6.4 3.673 6.4-3.673z"/>
      <path id="path17" stroke="#242527" stroke-miterlimit="10" stroke-width="2" d="m1088.4 617-6.4 3.705-6.4-3.705"/>
      <path id="path18" stroke="#242527" stroke-miterlimit="10" stroke-width="2" d="M1082 628.083v-7.378"/>
      <path id="path19" stroke="#242527" stroke-miterlimit="10" stroke-width="2" d="m1065.25 581.059-6.37-3.673-6.39 3.673v7.378l6.39 3.705 6.37-3.705z"/>
      <path id="path20" stroke="#242527" stroke-miterlimit="10" stroke-width="2" d="m1065.25 581.06-6.37 3.705-6.39-3.705"/>
      <path id="path21" stroke="#242527" stroke-miterlimit="10" stroke-width="2" d="M1058.88 592.143v-7.378"/>
      <path id="path22" stroke="#242527" stroke-miterlimit="10" stroke-width="2" d="m1098.75 581.059 6.37-3.673 6.39 3.673v7.378l-6.39 3.705-6.37-3.705z"/>
      <path id="path23" stroke="#242527" stroke-miterlimit="10" stroke-width="2" d="m1098.75 581.06 6.37 3.705 6.39-3.705"/>
      <path id="path24" stroke="#242527" stroke-miterlimit="10" stroke-width="2" d="M1105.12 592.143v-7.378"/>
      <path id="path25" stroke="#242527" stroke-miterlimit="10" stroke-width="2" d="m1065.25 607.784-6.37-3.674-6.39 3.674v7.378l6.39 3.705 6.37-3.705z"/>
      <path id="path26" stroke="#242527" stroke-miterlimit="10" stroke-width="2" d="m1065.25 607.784-6.37 3.705-6.39-3.705"/>
      <path id="path27" stroke="#242527" stroke-miterlimit="10" stroke-width="2" d="M1058.88 618.868v-7.379"/>
      <path id="path28" stroke="#242527" stroke-miterlimit="10" stroke-width="2" d="m1098.75 607.784 6.37-3.674 6.39 3.674v7.378l-6.39 3.705-6.37-3.705z"/>
      <path id="path29" stroke="#242527" stroke-miterlimit="10" stroke-width="2" d="m1098.75 607.784 6.37 3.705 6.39-3.705"/>
      <path id="path30" stroke="#242527" stroke-miterlimit="10" stroke-width="2" d="M1105.12 618.868v-7.379"/>
      <path id="path31" stroke="#242527" stroke-miterlimit="10" stroke-width="2" d="m1088.4 571.622-6.4-3.705-6.4 3.705V579l6.4 3.674 6.4-3.674z"/>
      <path id="path32" stroke="#242527" stroke-miterlimit="10" stroke-width="2" d="m1088.4 571.621-6.4 3.673-6.4-3.673"/>
      <path id="path33" stroke="#242527" stroke-miterlimit="10" stroke-width="2" d="M1082 582.673v-7.378"/>
      <path id="path34" stroke="#242527" stroke-miterlimit="10" stroke-width="2" d="m1088.4 594.422-6.4-3.705-6.4 3.705v7.378l6.4 3.673 6.4-3.673z"/>
      <path id="path35" stroke="#242527" stroke-miterlimit="10" stroke-width="2" d="m1088.4 594.422-6.4 3.673-6.4-3.673"/>
      <path id="path36" stroke="#242527" stroke-miterlimit="10" stroke-width="2" d="M1082 605.474v-7.378"/>
      <path id="path37" fill="#242527" d="M1141.34 604.112c-1.05 0-2.02-.245-2.91-.736a5.594 5.594 0 0 1-2.09-2.048c-.52-.885-.77-1.877-.77-2.976s.25-2.085.77-2.96a5.594 5.594 0 0 1 2.09-2.048 5.925 5.925 0 0 1 2.91-.736c1.06 0 2.02.245 2.9.736a5.359 5.359 0 0 1 2.08 2.048c.51.875.77 1.861.77 2.96s-.26 2.091-.77 2.976a5.496 5.496 0 0 1-2.08 2.048c-.88.491-1.84.736-2.9.736zm0-2.496c.9 0 1.61-.299 2.15-.896.54-.597.81-1.387.81-2.368 0-.992-.27-1.781-.81-2.368-.54-.597-1.25-.896-2.15-.896-.9 0-1.63.293-2.17.88s-.8 1.381-.8 2.384c0 .992.26 1.787.8 2.384.54.587 1.27.88 2.17.88zm12.71-6.64c1.04 0 1.88.341 2.5 1.024.62.672.94 1.6.94 2.784V604h-2.72v-4.848c0-.597-.16-1.061-.46-1.392-.31-.331-.73-.496-1.25-.496-.53 0-.94.165-1.25.496-.31.331-.46.795-.46 1.392V604h-2.74v-8.928h2.74v1.184c.27-.395.65-.704 1.12-.928.46-.235.99-.352 1.58-.352zm12.22 2.272v2.272h-7.04v-2.272zm1.94 1.12c0-1.109.24-2.096.72-2.96a5.048 5.048 0 0 1 2-2.032c.86-.491 1.84-.736 2.93-.736 1.33 0 2.47.352 3.42 1.056.95.704 1.58 1.664 1.9 2.88h-3a2.486 2.486 0 0 0-.96-1.072 2.66 2.66 0 0 0-1.4-.368c-.84 0-1.52.293-2.04.88-.53.587-.79 1.371-.79 2.352 0 .981.26 1.765.79 2.352.52.587 1.2.88 2.04.88.53 0 .99-.123 1.4-.368.41-.245.73-.603.96-1.072h3c-.32 1.216-.95 2.176-1.9 2.88-.95.693-2.09 1.04-3.42 1.04-1.09 0-2.07-.24-2.93-.72a5.189 5.189 0 0 1-2-2.032c-.48-.864-.72-1.851-.72-2.96zm18.14-3.392c1.02 0 1.84.341 2.46 1.024.62.672.93 1.6.93 2.784V604h-2.72v-4.848c0-.597-.16-1.061-.46-1.392-.31-.331-.73-.496-1.25-.496-.53 0-.94.165-1.25.496-.31.331-.46.795-.46 1.392V604h-2.74v-11.84h2.74v4.112c.27-.395.65-.709 1.13-.944a3.635 3.635 0 0 1 1.62-.352zm4.75 4.544c0-.917.17-1.723.51-2.416.35-.693.83-1.227 1.42-1.6a3.72 3.72 0 0 1 2-.56c.63 0 1.18.128 1.65.384.48.256.85.592 1.1 1.008v-1.264h2.74V604h-2.74v-1.264c-.26.416-.64.752-1.12 1.008-.46.256-1.01.384-1.64.384-.73 0-1.39-.187-1.99-.56a4.084 4.084 0 0 1-1.42-1.616c-.34-.704-.51-1.515-.51-2.432zm6.68.016c0-.683-.19-1.221-.57-1.616a1.813 1.813 0 0 0-1.38-.592c-.54 0-1.01.197-1.39.592-.37.384-.56.917-.56 1.6s.19 1.227.56 1.632c.38.395.85.592 1.39.592.55 0 1.01-.197 1.38-.592.38-.395.57-.933.57-1.616zm6.1-5.392c-.48 0-.88-.139-1.19-.416-.3-.288-.45-.64-.45-1.056 0-.427.15-.779.45-1.056.31-.288.71-.432 1.19-.432.47 0 .85.144 1.15.432.31.277.46.629.46 1.056 0 .416-.15.768-.46 1.056-.3.277-.68.416-1.15.416zm1.36.928V604h-2.74v-8.928zm7.42-.096c1.04 0 1.88.341 2.49 1.024.63.672.95 1.6.95 2.784V604h-2.72v-4.848c0-.597-.16-1.061-.47-1.392-.3-.331-.72-.496-1.24-.496-.53 0-.94.165-1.25.496-.31.331-.47.795-.47 1.392V604h-2.73v-8.928h2.73v1.184c.28-.395.66-.704 1.12-.928.47-.235 1-.352 1.59-.352zm16.81-2.208v2.192h-2.98V604h-2.73v-9.04h-2.98v-2.192zm6.65 11.232-1.71-2.48-1.44 2.48h-2.96l2.95-4.56-3.03-4.368h3.07l1.72 2.464 1.44-2.464h2.96l-3 4.496 3.08 4.432zm9.57-9.024c1.05 0 1.88.341 2.5 1.024.63.672.94 1.6.94 2.784V604h-2.72v-4.848c0-.597-.15-1.061-.46-1.392-.31-.331-.73-.496-1.25-.496s-.94.165-1.25.496c-.31.331-.46.795-.46 1.392V604h-2.74v-8.928h2.74v1.184c.27-.395.65-.704 1.12-.928.47-.235.99-.352 1.58-.352zm8.97 9.152c-.78 0-1.47-.133-2.08-.4-.6-.267-1.08-.629-1.44-1.088a2.915 2.915 0 0 1-.59-1.568h2.71c.03.309.17.56.43.752.25.192.57.288.94.288.34 0 .6-.064.79-.192a.625.625 0 0 0 .28-.528c0-.256-.13-.443-.4-.56-.26-.128-.7-.267-1.29-.416-.64-.149-1.18-.304-1.6-.464-.43-.171-.8-.432-1.11-.784-.31-.363-.46-.848-.46-1.456 0-.512.14-.976.42-1.392.28-.427.7-.763 1.24-1.008.56-.245 1.21-.368 1.97-.368 1.12 0 2 .277 2.64.832.65.555 1.03 1.291 1.12 2.208h-2.53a1.079 1.079 0 0 0-.41-.736c-.23-.181-.53-.272-.9-.272-.32 0-.56.064-.73.192a.55.55 0 0 0-.26.496c0 .256.13.448.4.576.28.128.7.256 1.28.384.66.171 1.2.341 1.62.512.41.16.77.427 1.08.8.32.363.49.853.5 1.472 0 .523-.15.992-.45 1.408-.29.405-.71.725-1.26.96s-1.18.352-1.91.352z"/>
    </g>
  </g>
  <g id="g44" filter="url(#filter2_d_2321_2969)" transform="translate(-287 -339)">
    <rect id="rect38" width="164" height="200" x="287" y="535" fill="#fff" rx="10" ry="10"/>
    <rect id="rect39" width="161" height="197" x="288.5" y="536.5" stroke="#242527" stroke-linecap="round" stroke-width="3" rx="8.5" ry="8.5"/>
    <path id="path39" fill="#242527" fill-rule="evenodd" d="M387.531 608.374c-2.996-1.213-7.253-1.999-12.031-1.999v-3.25c5.093 0 9.776.832 13.247 2.233 1.732.702 3.244 1.573 4.345 2.629 1.105 1.056 1.908 2.405 1.908 3.985 0 1.582-.799 2.928-1.908 3.987-1.105 1.053-2.613 1.928-4.345 2.626-3.471 1.404-8.157 2.233-13.247 2.233-5.093 0-9.776-.829-13.247-2.233-1.732-.698-3.244-1.573-4.345-2.626-1.105-1.059-1.908-2.405-1.908-3.987h3.25c0 .412.201.965.903 1.637.702.673 1.814 1.356 3.316 1.964 2.999 1.212 7.25 1.995 12.031 1.995 4.778 0 9.035-.783 12.031-1.995 1.502-.608 2.61-1.291 3.316-1.964.705-.672.903-1.225.903-1.637 0-.413-.201-.966-.903-1.635-.706-.676-1.814-1.359-3.316-1.963z" clip-rule="evenodd"/>
    <path id="path40" fill="#242527" fill-rule="evenodd" d="M357.625 611.793a1.624 1.624 0 0 1 1.625 1.625v10.107c0 .416.201.969.903 1.638.706.676 1.814 1.359 3.316 1.967 2.999 1.209 7.25 1.995 12.031 1.995 4.778 0 9.035-.786 12.031-1.995 1.502-.608 2.61-1.291 3.316-1.967.702-.669.903-1.222.903-1.634v-10.111a1.624 1.624 0 1 1 3.25 0v10.107c0 1.586-.799 2.932-1.908 3.988-1.108 1.056-2.613 1.927-4.345 2.629-3.471 1.401-8.157 2.233-13.247 2.233-5.093 0-9.776-.832-13.247-2.233-1.732-.698-3.244-1.573-4.345-2.629-1.105-1.056-1.908-2.405-1.908-3.984v-10.111a1.624 1.624 0 0 1 1.625-1.625z" clip-rule="evenodd"/>
    <path id="path41" fill="#242527" fill-rule="evenodd" d="M364.775 629.86v-12.11h3.25v12.11zm14.3-.735v-9.75h3.25v9.75zm-35.171-38.288c-.702.669-.904 1.222-.904 1.635 0 .412.202.965.904 1.637.702.673 1.813 1.356 3.315 1.964 2.999 1.212 7.25 1.995 12.031 1.995 4.778 0 9.035-.783 12.031-1.995 1.502-.608 2.61-1.291 3.316-1.964.705-.672.903-1.225.903-1.637 0-.413-.201-.966-.903-1.635-.706-.676-1.814-1.359-3.316-1.967-2.999-1.209-7.253-1.995-12.031-1.995-4.778 0-9.035.786-12.031 1.995-1.502.608-2.61 1.291-3.315 1.967zm2.099-4.979c3.471-1.401 8.157-2.233 13.247-2.233 5.093 0 9.776.832 13.247 2.233 1.732.702 3.244 1.573 4.345 2.629 1.105 1.056 1.908 2.405 1.908 3.985 0 1.582-.799 2.928-1.908 3.987-1.105 1.053-2.613 1.928-4.345 2.626-3.471 1.404-8.157 2.233-13.247 2.233-5.093 0-9.776-.829-13.247-2.233-1.732-.698-3.243-1.573-4.345-2.626-1.105-1.059-1.908-2.405-1.908-3.987 0-1.58.8-2.925 1.908-3.985 1.108-1.059 2.613-1.927 4.345-2.629z" clip-rule="evenodd"/>
    <path id="path42" fill="#242527" fill-rule="evenodd" d="M341.375 592.293a1.624 1.624 0 0 1 1.625 1.625v10.107c0 .416.202.969.904 1.638.705.676 1.813 1.359 3.315 1.967 2.999 1.209 7.25 1.995 12.031 1.995 4.778 0 9.035-.786 12.031-1.995 1.502-.608 2.61-1.291 3.316-1.967.702-.669.903-1.222.903-1.634v-10.111a1.624 1.624 0 1 1 3.25 0v10.107c0 1.586-.799 2.932-1.908 3.988-1.108 1.056-2.613 1.931-4.345 2.629-3.471 1.401-8.157 2.233-13.247 2.233-5.093 0-9.776-.832-13.247-2.233-1.732-.702-3.243-1.573-4.345-2.629-1.105-1.053-1.908-2.405-1.908-3.984v-10.111a1.624 1.624 0 0 1 1.625-1.625z" clip-rule="evenodd"/>
    <path id="path43" fill="#242527" fill-rule="evenodd" d="M348.525 609.624v-11.008h3.25v11.008zm14.3 0v-9.75h3.25v9.75z" clip-rule="evenodd"/>
    <path id="path44" fill="#242527" d="M331.637 672.868c0-1.109.24-2.096.72-2.96a5.093 5.093 0 0 1 2-2.032c.864-.491 1.84-.736 2.928-.736 1.334 0 2.475.352 3.424 1.056.95.704 1.584 1.664 1.904 2.88h-3.008a2.414 2.414 0 0 0-.96-1.072 2.636 2.636 0 0 0-1.392-.368c-.842 0-1.525.293-2.048.88-.522.587-.784 1.371-.784 2.352 0 .981.262 1.765.784 2.352.523.587 1.206.88 2.048.88.523 0 .987-.123 1.392-.368.416-.245.736-.603.96-1.072h3.008c-.32 1.216-.954 2.176-1.904 2.88-.949.693-2.09 1.04-3.424 1.04-1.088 0-2.064-.24-2.928-.72a5.236 5.236 0 0 1-2-2.032c-.48-.864-.72-1.851-.72-2.96zm12.108 1.152c0-.917.171-1.723.512-2.416.352-.693.827-1.227 1.424-1.6a3.699 3.699 0 0 1 2-.56c.629 0 1.179.128 1.648.384.48.256.848.592 1.104 1.008v-1.264h2.736v8.928h-2.736v-1.264c-.267.416-.64.752-1.12 1.008-.469.256-1.019.384-1.648.384a3.671 3.671 0 0 1-1.984-.56c-.597-.384-1.072-.923-1.424-1.616-.341-.704-.512-1.515-.512-2.432zm6.688.016c0-.683-.192-1.221-.576-1.616a1.818 1.818 0 0 0-1.376-.592 1.87 1.87 0 0 0-1.392.592c-.373.384-.56.917-.56 1.6s.187 1.227.56 1.632a1.87 1.87 0 0 0 1.392.592c.544 0 1.003-.197 1.376-.592.384-.395.576-.933.576-1.616zm7.451-3.2a2.975 2.975 0 0 1 1.104-1.008c.47-.256 1.019-.384 1.648-.384.736 0 1.403.187 2 .56.598.373 1.067.907 1.408 1.6.352.693.528 1.499.528 2.416 0 .917-.176 1.728-.528 2.432-.341.693-.81 1.232-1.408 1.616a3.699 3.699 0 0 1-2 .56c-.618 0-1.168-.128-1.648-.384a3.031 3.031 0 0 1-1.104-.992v5.504h-2.736v-13.184h2.736zm3.904 3.184c0-.683-.192-1.216-.576-1.6a1.836 1.836 0 0 0-1.392-.592 1.87 1.87 0 0 0-1.392.592c-.373.395-.56.933-.56 1.616s.187 1.221.56 1.616a1.87 1.87 0 0 0 1.392.592 1.87 1.87 0 0 0 1.392-.592c.384-.405.576-.949.576-1.632zm3.676 0c0-.917.17-1.723.512-2.416.352-.693.826-1.227 1.424-1.6a3.699 3.699 0 0 1 2-.56c.629 0 1.178.128 1.648.384.48.256.848.592 1.104 1.008v-1.264h2.736v8.928h-2.736v-1.264c-.267.416-.64.752-1.12 1.008-.47.256-1.019.384-1.648.384a3.669 3.669 0 0 1-1.984-.56c-.598-.384-1.072-.923-1.424-1.616-.342-.704-.512-1.515-.512-2.432zm6.688.016c0-.683-.192-1.221-.576-1.616a1.82 1.82 0 0 0-1.376-.592 1.87 1.87 0 0 0-1.392.592c-.374.384-.56.917-.56 1.6s.186 1.227.56 1.632a1.87 1.87 0 0 0 1.392.592 1.82 1.82 0 0 0 1.376-.592c.384-.395.576-.933.576-1.616zm4.171 0c0-.928.187-1.739.56-2.432a4.012 4.012 0 0 1 1.584-1.6c.683-.373 1.461-.56 2.336-.56 1.12 0 2.053.293 2.8.88.757.587 1.253 1.413 1.488 2.48h-2.912c-.245-.683-.72-1.024-1.424-1.024-.501 0-.901.197-1.2.592-.299.384-.448.939-.448 1.664s.149 1.285.448 1.68c.299.384.699.576 1.2.576.704 0 1.179-.341 1.424-1.024h2.912c-.235 1.045-.731 1.867-1.488 2.464s-1.691.896-2.8.896c-.875 0-1.653-.187-2.336-.56a4.012 4.012 0 0 1-1.584-1.6c-.373-.693-.56-1.504-.56-2.432zm11.608-5.392c-.48 0-.875-.139-1.184-.416a1.41 1.41 0 0 1-.448-1.056c0-.427.149-.779.448-1.056.309-.288.704-.432 1.184-.432.469 0 .853.144 1.152.432.309.277.464.629.464 1.056 0 .416-.155.768-.464 1.056-.299.277-.683.416-1.152.416zm1.36.928v8.928h-2.736v-8.928zm6.958 6.608v2.32h-1.392c-.992 0-1.765-.24-2.32-.72-.554-.491-.832-1.285-.832-2.384v-3.552h-1.088v-2.272h1.088v-2.176h2.736v2.176h1.792v2.272h-1.792v3.584c0 .267.064.459.192.576.128.117.342.176.64.176zm10.644-6.608-5.6 13.168h-2.944l2.048-4.544-3.632-8.624h3.056l2.064 5.584 2.048-5.584zm-64.564 31.04c-.821 0-1.557-.133-2.208-.4a3.66 3.66 0 0 1-1.568-1.184c-.384-.523-.586-1.152-.608-1.888h2.912c.043.416.187.736.432.96.246.213.566.32.96.32.406 0 .726-.091.96-.272.235-.192.352-.453.352-.784a.906.906 0 0 0-.288-.688 2.125 2.125 0 0 0-.688-.448c-.266-.117-.65-.251-1.152-.4-.725-.224-1.317-.448-1.776-.672a3.293 3.293 0 0 1-1.184-.992c-.33-.437-.496-1.008-.496-1.712 0-1.045.379-1.861 1.136-2.448.758-.597 1.744-.896 2.96-.896 1.238 0 2.235.299 2.992.896.758.587 1.163 1.408 1.216 2.464h-2.96c-.021-.363-.154-.645-.4-.848-.245-.213-.56-.32-.944-.32-.33 0-.597.091-.8.272-.202.171-.304.421-.304.752 0 .363.171.645.512.848.342.203.875.421 1.6.656.726.245 1.312.48 1.76.704.459.224.854.549 1.184.976.331.427.496.976.496 1.648 0 .64-.165 1.221-.496 1.744-.32.523-.789.939-1.408 1.248-.618.309-1.349.464-2.192.464zm10.756-2.432v2.32h-1.392c-.992 0-1.765-.24-2.32-.72-.554-.491-.832-1.285-.832-2.384v-3.552h-1.088v-2.272h1.088v-2.176h2.736v2.176h1.792v2.272h-1.792v3.584c0 .267.064.459.192.576.128.117.342.176.64.176zm.98-2.16c0-.917.171-1.723.512-2.416.352-.693.827-1.227 1.424-1.6a3.701 3.701 0 0 1 2-.56c.63 0 1.179.128 1.648.384.48.256.848.592 1.104 1.008v-1.264h2.736v8.928h-2.736v-1.264c-.266.416-.64.752-1.12 1.008-.469.256-1.018.384-1.648.384a3.674 3.674 0 0 1-1.984-.56c-.597-.384-1.072-.923-1.424-1.616-.341-.704-.512-1.515-.512-2.432zm6.688.016c0-.683-.192-1.221-.576-1.616a1.818 1.818 0 0 0-1.376-.592 1.87 1.87 0 0 0-1.392.592c-.373.384-.56.917-.56 1.6s.187 1.227.56 1.632a1.87 1.87 0 0 0 1.392.592c.544 0 1.003-.197 1.376-.592.384-.395.576-.933.576-1.616zm10.172 4.464-2.72-3.744v3.744h-2.736v-11.84h2.736v6.544l2.704-3.632h3.376l-3.712 4.48 3.744 4.448zm5.81-9.856c-.48 0-.874-.139-1.184-.416a1.413 1.413 0 0 1-.448-1.056c0-.427.15-.779.448-1.056.31-.288.704-.432 1.184-.432.47 0 .854.144 1.152.432.31.277.464.629.464 1.056 0 .416-.154.768-.464 1.056-.298.277-.682.416-1.152.416zm1.36.928v8.928h-2.736v-8.928zm7.423-.096c1.045 0 1.877.341 2.496 1.024.629.672.944 1.6.944 2.784v5.216h-2.72v-4.848c0-.597-.155-1.061-.464-1.392-.309-.331-.725-.496-1.248-.496s-.939.165-1.248.496c-.309.331-.464.795-.464 1.392v4.848h-2.736v-8.928h2.736v1.184a2.821 2.821 0 0 1 1.12-.928 3.487 3.487 0 0 1 1.584-.352zm8.733-.032c.63 0 1.179.128 1.648.384.48.256.848.592 1.104 1.008v-1.264h2.736v8.912c0 .821-.165 1.563-.496 2.224a3.648 3.648 0 0 1-1.488 1.6c-.661.395-1.488.592-2.48.592-1.322 0-2.394-.315-3.216-.944-.821-.619-1.29-1.461-1.408-2.528h2.704c.086.341.288.608.608.8.32.203.715.304 1.184.304.566 0 1.014-.165 1.344-.496.342-.32.512-.837.512-1.552v-1.264a3.093 3.093 0 0 1-1.104 1.024c-.469.256-1.018.384-1.648.384a3.701 3.701 0 0 1-2-.56c-.597-.384-1.072-.923-1.424-1.616-.341-.704-.512-1.515-.512-2.432s.171-1.723.512-2.416c.352-.693.827-1.227 1.424-1.6a3.701 3.701 0 0 1 2-.56zm2.752 4.592c0-.683-.192-1.221-.576-1.616a1.818 1.818 0 0 0-1.376-.592 1.87 1.87 0 0 0-1.392.592c-.373.384-.56.917-.56 1.6s.187 1.227.56 1.632a1.87 1.87 0 0 0 1.392.592c.544 0 1.003-.197 1.376-.592.384-.395.576-.933.576-1.616z"/>
  </g>
  <g id="g53" filter="url(#filter3_d_2321_2969)" transform="translate(-287 -339)">
    <rect id="rect44" width="129" height="135" x="704" y="339" fill="#fff" rx="10" ry="10"/>
    <rect id="rect45" width="126" height="132" x="705.5" y="340.5" stroke="#242527" stroke-linecap="round" stroke-width="3" rx="8.5" ry="8.5"/>
    <rect id="rect46" width="60" height="48" x="738.5" y="364" fill="#fff" rx="24" ry="24"/>
    <path id="path46" fill="#fff" stroke="#242527" stroke-width="2" d="m797.499 376-.045 31.409v.001c0 1.987-1.605 3.59-3.642 3.59h-50.67c-2.037 0-3.642-1.603-3.642-3.59V376Z"/>
    <path id="path47" fill="#fff" stroke="#242527" stroke-width="2" d="m797.494 376-.04-7.405v-.005c0-1.987-1.605-3.59-3.642-3.59h-50.67c-2.037 0-3.642 1.603-3.642 3.59V376Z"/>
    <ellipse id="ellipse47" cx="746.636" cy="370.5" fill="#242527" rx="1.525" ry="1.5"/>
    <ellipse id="ellipse48" cx="752.737" cy="370.5" fill="#242527" rx="1.525" ry="1.5"/>
    <ellipse id="ellipse49" cx="758.839" cy="370.5" fill="#242527" rx="1.525" ry="1.5"/>
    <path id="path49" fill="#242527" d="m781.621 392.494-5.799 4.779c-.55.439-.6 1.22-.15 1.707a1.243 1.243 0 0 0 1.75.147l6.899-5.706c.3-.244.45-.586.45-.927 0-.341-.15-.683-.45-.927l-6.899-5.706c-.5-.439-1.3-.39-1.75.147-.45.487-.4 1.268.15 1.707z"/>
    <path id="path50" fill="#242527" d="M752.229 392.494c0 .341.15.683.45.927l6.899 5.706a1.243 1.243 0 0 0 1.75-.147c.45-.487.4-1.268-.15-1.707l-5.799-4.779 5.799-4.779c.55-.439.6-1.171.15-1.707-.45-.537-1.2-.586-1.75-.147l-6.899 5.706c-.3.244-.45.586-.45.927z"/>
    <path id="path51" fill="#242527" d="m770.25 383.768-5.85 16.525c-.25.634.05 1.317.7 1.609.15.049.3.098.45.098.5 0 .95-.293 1.15-.78l5.9-16.525c.25-.634-.05-1.366-.7-1.609-.65-.244-1.4.048-1.65.682z"/>
    <path id="path52" fill="#fff" stroke="#242527" stroke-width="2" d="m797.499 376-.045 31.409v.001c0 1.987-1.605 3.59-3.642 3.59h-50.67c-2.037 0-3.642-1.603-3.642-3.59V376Z" opacity=".5"/>
    <path id="path53" fill="#242527" d="M738.935 436.384c0 .651-.15 1.248-.448 1.792-.299.533-.758.965-1.376 1.296-.619.331-1.387.496-2.304.496h-1.696V444h-2.736v-11.232h4.432c.896 0 1.653.155 2.272.464.618.309 1.082.736 1.392 1.28.309.544.464 1.168.464 1.872zm-4.336 1.408c.522 0 .912-.123 1.168-.368.256-.245.384-.592.384-1.04 0-.448-.128-.795-.384-1.04s-.646-.368-1.168-.368h-1.488v2.816zm8.496-1.232c.32-.491.72-.875 1.2-1.152a3.052 3.052 0 0 1 1.6-.432v2.896h-.752c-.682 0-1.194.149-1.536.448-.341.288-.512.8-.512 1.536V444h-2.736v-8.928h2.736zm8.172 7.568c-.875 0-1.664-.187-2.368-.56a4.168 4.168 0 0 1-1.648-1.6c-.395-.693-.592-1.504-.592-2.432 0-.917.203-1.723.608-2.416a4.107 4.107 0 0 1 1.664-1.616c.704-.373 1.493-.56 2.368-.56.875 0 1.664.187 2.368.56a4.107 4.107 0 0 1 1.664 1.616c.405.693.608 1.499.608 2.416 0 .917-.208 1.728-.624 2.432a4.11 4.11 0 0 1-1.68 1.6c-.704.373-1.493.56-2.368.56zm0-2.368c.523 0 .965-.192 1.328-.576.373-.384.56-.933.56-1.648 0-.715-.181-1.264-.544-1.648a1.707 1.707 0 0 0-1.312-.576c-.533 0-.976.192-1.328.576-.352.373-.528.923-.528 1.648 0 .715.171 1.264.512 1.648.352.384.789.576 1.312.576zm10.139-.32 1.936-6.368h2.912L763.086 444h-3.376l-3.168-8.928h2.928zm7.376-7.296c-.48 0-.875-.139-1.184-.416a1.41 1.41 0 0 1-.448-1.056c0-.427.149-.779.448-1.056.309-.288.704-.432 1.184-.432.469 0 .853.144 1.152.432.309.277.464.629.464 1.056 0 .416-.155.768-.464 1.056-.299.277-.683.416-1.152.416zm1.36.928V444h-2.736v-8.928zm1.439 4.448c0-.917.17-1.723.512-2.416.352-.693.826-1.227 1.424-1.6a3.699 3.699 0 0 1 2-.56c.586 0 1.12.123 1.6.368.49.245.874.576 1.152.992v-4.144h2.736V444h-2.736v-1.28a2.772 2.772 0 0 1-1.104 1.024c-.47.256-1.019.384-1.648.384a3.699 3.699 0 0 1-2-.56c-.598-.384-1.072-.923-1.424-1.616-.342-.704-.512-1.515-.512-2.432zm6.688.016c0-.683-.192-1.221-.576-1.616a1.82 1.82 0 0 0-1.376-.592 1.87 1.87 0 0 0-1.392.592c-.374.384-.56.917-.56 1.6s.186 1.227.56 1.632a1.87 1.87 0 0 0 1.392.592 1.82 1.82 0 0 0 1.376-.592c.384-.395.576-.933.576-1.616zm13.131-.144c0 .256-.016.523-.048.8h-6.192c.043.555.219.981.528 1.28.32.288.71.432 1.168.432.683 0 1.158-.288 1.424-.864h2.912a3.932 3.932 0 0 1-.816 1.584 3.976 3.976 0 0 1-1.456 1.104c-.586.267-1.242.4-1.968.4-.874 0-1.653-.187-2.336-.56a3.987 3.987 0 0 1-1.6-1.6c-.384-.693-.576-1.504-.576-2.432 0-.928.187-1.739.56-2.432a3.987 3.987 0 0 1 1.6-1.6c.683-.373 1.467-.56 2.352-.56.864 0 1.632.181 2.304.544.672.363 1.195.88 1.568 1.552.384.672.576 1.456.576 2.352zm-2.8-.72c0-.469-.16-.843-.48-1.12-.32-.277-.72-.416-1.2-.416-.458 0-.848.133-1.168.4-.309.267-.501.645-.576 1.136zm6.98-2.112c.32-.491.72-.875 1.2-1.152a3.05 3.05 0 0 1 1.6-.432v2.896h-.752c-.683 0-1.195.149-1.536.448-.342.288-.512.8-.512 1.536V444h-2.736v-8.928h2.736zm7.739 7.568c-.778 0-1.472-.133-2.08-.4-.608-.267-1.088-.629-1.44-1.088a2.926 2.926 0 0 1-.592-1.568h2.704c.032.309.176.56.432.752.256.192.571.288.944.288.342 0 .603-.064.784-.192.192-.139.288-.315.288-.528 0-.256-.133-.443-.4-.56-.266-.128-.698-.267-1.296-.416a13.14 13.14 0 0 1-1.6-.464 2.886 2.886 0 0 1-1.104-.784c-.309-.363-.464-.848-.464-1.456 0-.512.139-.976.416-1.392.288-.427.704-.763 1.248-1.008.555-.245 1.211-.368 1.968-.368 1.12 0 2 .277 2.64.832.651.555 1.024 1.291 1.12 2.208h-2.528a1.074 1.074 0 0 0-.416-.736c-.224-.181-.522-.272-.896-.272-.32 0-.565.064-.736.192a.569.569 0 0 0-.256.496c0 .256.134.448.4.576.278.128.704.256 1.28.384.662.171 1.2.341 1.616.512.416.16.779.427 1.088.8.32.363.486.853.496 1.472 0 .523-.149.992-.448 1.408-.288.405-.709.725-1.264.96-.544.235-1.178.352-1.904.352z"/>
  </g>
  <defs id="defs61">
    <filter id="filter0_d_2321_2969" width="295" height="156" x="1014" y="530" color-interpolation-filters="sRGB" filterUnits="userSpaceOnUse">
      <feFlood id="feFlood53" flood-opacity="0" result="BackgroundImageFix"/>
      <feColorMatrix id="feColorMatrix53" in="SourceAlpha" result="hardAlpha" type="matrix" values="0 0 0 0 0 0 0 0 0 0 0 0 0 0 0 0 0 0 127 0"/>
      <feOffset id="feOffset53" dx="10" dy="10"/>
      <feColorMatrix id="feColorMatrix54" type="matrix" values="0 0 0 0 0.19967 0 0 0 0 0.213215 0 0 0 0 0.220833 0 0 0 0.8 0"/>
      <feBlend id="feBlend54" in2="BackgroundImageFix" mode="normal" result="effect1_dropShadow_2321_2969"/>
      <feBlend id="feBlend55" in="SourceGraphic" in2="effect1_dropShadow_2321_2969" mode="normal" result="shape"/>
    </filter>
    <filter id="filter1_d_2321_2969" width="272" height="133" x="1019" y="535" color-interpolation-filters="sRGB" filterUnits="userSpaceOnUse">
      <feFlood id="feFlood55" flood-opacity="0" result="BackgroundImageFix"/>
      <feColorMatrix id="feColorMatrix55" in="SourceAlpha" result="hardAlpha" type="matrix" values="0 0 0 0 0 0 0 0 0 0 0 0 0 0 0 0 0 0 127 0"/>
      <feMorphology id="feMorphology55" in="SourceAlpha" operator="erode" radius="3" result="effect1_dropShadow_2321_2969"/>
      <feOffset id="feOffset55" dx="10" dy="10"/>
      <feColorMatrix id="feColorMatrix56" type="matrix" values="0 0 0 0 0.92 0 0 0 0 0.92 0 0 0 0 0.92 0 0 0 1 0"/>
      <feBlend id="feBlend56" in2="BackgroundImageFix" mode="normal" result="effect1_dropShadow_2321_2969"/>
      <feBlend id="feBlend57" in="SourceGraphic" in2="effect1_dropShadow_2321_2969" mode="normal" result="shape"/>
    </filter>
    <filter id="filter2_d_2321_2969" width="173.762" height="209.762" x="287" y="535" color-interpolation-filters="sRGB" filterUnits="userSpaceOnUse">
      <feFlood id="feFlood57" flood-opacity="0" result="BackgroundImageFix"/>
      <feColorMatrix id="feColorMatrix57" in="SourceAlpha" result="hardAlpha" type="matrix" values="0 0 0 0 0 0 0 0 0 0 0 0 0 0 0 0 0 0 127 0"/>
      <feMorphology id="feMorphology57" in="SourceAlpha" operator="erode" radius="4.184" result="effect1_dropShadow_2321_2969"/>
      <feOffset id="feOffset57" dx="13.946" dy="13.946"/>
      <feColorMatrix id="feColorMatrix58" type="matrix" values="0 0 0 0 0.92 0 0 0 0 0.92 0 0 0 0 0.92 0 0 0 1 0"/>
      <feBlend id="feBlend58" in2="BackgroundImageFix" mode="normal" result="effect1_dropShadow_2321_2969"/>
      <feBlend id="feBlend59" in="SourceGraphic" in2="effect1_dropShadow_2321_2969" mode="normal" result="shape"/>
    </filter>
    <filter id="filter3_d_2321_2969" width="136" height="142" x="704" y="339" color-interpolation-filters="sRGB" filterUnits="userSpaceOnUse">
      <feFlood id="feFlood59" flood-opacity="0" result="BackgroundImageFix"/>
      <feColorMatrix id="feColorMatrix59" in="SourceAlpha" result="hardAlpha" type="matrix" values="0 0 0 0 0 0 0 0 0 0 0 0 0 0 0 0 0 0 127 0"/>
      <feMorphology id="feMorphology59" in="SourceAlpha" operator="erode" radius="3" result="effect1_dropShadow_2321_2969"/>
      <feOffset id="feOffset59" dx="10" dy="10"/>
      <feColorMatrix id="feColorMatrix60" type="matrix" values="0 0 0 0 0.92 0 0 0 0 0.92 0 0 0 0 0.92 0 0 0 1 0"/>
      <feBlend id="feBlend60" in2="BackgroundImageFix" mode="normal" result="effect1_dropShadow_2321_2969"/>
      <feBlend id="feBlend61" in="SourceGraphic" in2="effect1_dropShadow_2321_2969" mode="normal" result="shape"/>
    </filter>
  </defs>
</svg>
