<svg xmlns="http://www.w3.org/2000/svg" id="svg62" fill="none" version="1.1" viewBox="0 0 1063 413">
  <g id="g19" filter="url(#filter0_d_2321_2764)" transform="translate(-264 -306)">
    <g id="g18" filter="url(#filter1_d_2321_2764)">
      <rect id="rect1" width="180" height="159" x="672" y="311" fill="#fff" rx="10" ry="10"/>
      <rect id="rect2" width="177" height="156" x="673.5" y="312.5" stroke="#331e49" stroke-linecap="round" stroke-width="3" rx="8.5" ry="8.5"/>
      <path id="path2" fill="#bc86b7" d="M791.923 355.574a3.152 3.152 0 0 0 3.144-3.162 3.153 3.153 0 0 0-3.144-3.162 3.153 3.153 0 0 0-3.143 3.162 3.152 3.152 0 0 0 3.143 3.162z"/>
      <path id="path3" fill="#bc86b7" d="M730.724 355.574a3.152 3.152 0 0 0 3.143-3.162 3.153 3.153 0 0 0-3.143-3.162 3.153 3.153 0 0 0-3.144 3.162 3.153 3.153 0 0 0 3.144 3.162z"/>
      <path id="path4" fill="#bc86b7" d="M746.553 388.033c3.806 0 6.89-3.103 6.89-6.931 0-3.827-3.084-6.93-6.89-6.93-3.805 0-6.89 3.103-6.89 6.93 0 3.828 3.085 6.931 6.89 6.931z"/>
      <path id="path5" fill="#bc86b7" d="M726.686 384.438a3.154 3.154 0 0 0 3.144-3.163 3.153 3.153 0 0 0-3.144-3.162 3.153 3.153 0 0 0-3.144 3.162 3.154 3.154 0 0 0 3.144 3.163z"/>
      <path id="path6" fill="#bc86b7" d="M731.098 400.079a3.153 3.153 0 0 0 3.144-3.162 3.153 3.153 0 0 0-3.144-3.162 3.153 3.153 0 0 0-3.143 3.162 3.153 3.153 0 0 0 3.143 3.162z"/>
      <path id="path7" fill="#bc86b7" d="M746.033 404.253a3.153 3.153 0 0 0 3.143-3.162 3.152 3.152 0 0 0-3.143-3.162 3.153 3.153 0 0 0-3.144 3.162 3.153 3.153 0 0 0 3.144 3.162z"/>
      <path id="path8" fill="#bc86b7" d="M776.247 388.033c3.805 0 6.89-3.103 6.89-6.931 0-3.827-3.085-6.93-6.89-6.93-3.805 0-6.89 3.103-6.89 6.93 0 3.828 3.085 6.931 6.89 6.931z"/>
      <path id="path9" fill="#bc86b7" d="M796.114 384.438a3.153 3.153 0 0 0 3.143-3.163 3.153 3.153 0 0 0-3.143-3.162 3.153 3.153 0 0 0-3.144 3.162 3.154 3.154 0 0 0 3.144 3.163z"/>
      <path id="path10" fill="#bc86b7" d="M791.702 400.079a3.153 3.153 0 0 0 3.143-3.162 3.153 3.153 0 0 0-3.143-3.162 3.153 3.153 0 0 0-3.144 3.162 3.153 3.153 0 0 0 3.144 3.162z"/>
      <path id="path11" fill="#bc86b7" d="M776.768 404.253a3.153 3.153 0 0 0 3.143-3.162 3.152 3.152 0 0 0-3.143-3.162 3.152 3.152 0 0 0-3.144 3.162 3.153 3.153 0 0 0 3.144 3.162z"/>
      <path id="path12" fill="#790e70" d="M761.324 365.275c7.062 0 12.787-5.759 12.787-12.863 0-7.103-5.725-12.862-12.787-12.862-7.063 0-12.788 5.759-12.788 12.862 0 7.104 5.725 12.863 12.788 12.863z"/>
      <path id="path13" fill="#fcf3e4" d="M765.859 359.513h-9.07a1.283 1.283 0 0 1-1.279-1.287v-11.627c0-.711.573-1.287 1.279-1.287h9.07c.706 0 1.279.576 1.279 1.287v11.627c0 .711-.572 1.287-1.279 1.287z"/>
      <path id="path14" fill="#242527" d="M799.144 378.226a4.273 4.273 0 0 0-6.061 0 4.291 4.291 0 0 0-1.096 1.88l-7.759.07a8.091 8.091 0 0 0-.684-2.451 7.997 7.997 0 0 0-4.511-4.201 7.95 7.95 0 0 0-5.116-.15l-4.677-10.579c-.246-.581-1.046-.91-1.659-.502a11.557 11.557 0 0 1-6.258 1.833c-6.421 0-11.645-5.255-11.645-11.713 0-6.459 5.224-11.713 11.645-11.713 6.421 0 11.645 5.254 11.645 11.713 0 2.299-.661 4.524-1.913 6.435a1.155 1.155 0 0 0 .325 1.593 1.14 1.14 0 0 0 1.583-.328 13.983 13.983 0 0 0 2.238-6.496l12.584-.077c.193.72.569 1.38 1.107 1.921a4.259 4.259 0 0 0 3.031 1.261 4.298 4.298 0 0 0 4.286-4.31 4.297 4.297 0 0 0-1.255-3.048 4.274 4.274 0 0 0-6.062 0 4.289 4.289 0 0 0-1.095 1.877l-12.586.076c-.557-7.216-6.573-12.917-13.888-12.917-7.314 0-13.33 5.701-13.887 12.917l-12.587-.076a4.287 4.287 0 0 0-1.094-1.877 4.274 4.274 0 0 0-6.062 0 4.297 4.297 0 0 0-1.255 3.048 4.298 4.298 0 0 0 4.286 4.31 4.293 4.293 0 0 0 4.138-3.182l12.583.077a14.032 14.032 0 0 0 5.695 10.127l-4.258 9.63a7.948 7.948 0 0 0-5.115.15 7.993 7.993 0 0 0-4.511 4.201 8.122 8.122 0 0 0-.685 2.451l-7.759-.07a4.299 4.299 0 0 0-1.095-1.88 4.274 4.274 0 0 0-6.062 0 4.298 4.298 0 0 0-1.255 3.049c0 1.151.446 2.234 1.255 3.049a4.258 4.258 0 0 0 3.031 1.26c1.098 0 2.195-.42 3.031-1.26.537-.541.913-1.2 1.106-1.919l7.814.071a8.06 8.06 0 0 0 1.646 3.674l-7.091 7.007a4.234 4.234 0 0 0-2.094-.552c-2.364 0-4.286 1.934-4.286 4.311 0 2.378 1.923 4.312 4.286 4.312 2.363 0 4.286-1.934 4.286-4.312 0-.779-.207-1.51-.568-2.141l7.136-7.052a8.014 8.014 0 0 0 2.99 1.295l-.071 7.924a4.298 4.298 0 0 0-3.124 4.149 4.3 4.3 0 0 0 1.255 3.049 4.262 4.262 0 0 0 3.031 1.26 4.26 4.26 0 0 0 3.03-1.26 4.296 4.296 0 0 0 1.256-3.049 4.294 4.294 0 0 0-1.256-3.049 4.25 4.25 0 0 0-1.907-1.11l.08-8.887-.001-.029a1.146 1.146 0 0 0-1.065-1.144 5.765 5.765 0 0 1-5.008-3.765 5.774 5.774 0 0 1 .17-4.421 5.722 5.722 0 0 1 3.228-3.006c2.972-1.106 6.285.427 7.384 3.417.816 2.221.181 4.768-1.581 6.336a1.155 1.155 0 0 0-.099 1.623c.418.476 1.14.52 1.613.099 2.463-2.193 3.351-5.751 2.21-8.855a8.021 8.021 0 0 0-3.134-3.953l4.154-9.397a13.785 13.785 0 0 0 6.217 1.475c2.219 0 4.387-.529 6.341-1.536l4.182 9.458a8.021 8.021 0 0 0-3.134 3.953 8.069 8.069 0 0 0 .237 6.179 7.998 7.998 0 0 0 4.511 4.202 7.964 7.964 0 0 0 2.113.473l.07 7.778a4.25 4.25 0 0 0-1.907 1.11 4.294 4.294 0 0 0-1.256 3.049c0 1.151.446 2.234 1.256 3.048a4.257 4.257 0 0 0 3.03 1.261 4.298 4.298 0 0 0 4.287-4.309 4.294 4.294 0 0 0-1.256-3.049 4.25 4.25 0 0 0-1.869-1.1l-.071-7.927a8.072 8.072 0 0 0 2.989-1.293l7.137 7.053a4.31 4.31 0 0 0-.568 2.141c0 2.377 1.923 4.312 4.286 4.312 2.364 0 4.286-1.935 4.286-4.312 0-2.378-1.922-4.312-4.286-4.312-.76 0-1.474.201-2.094.552l-7.09-7.005a8.042 8.042 0 0 0 1.263-2.247c.172-.468.298-.946.382-1.428l7.814-.071a4.29 4.29 0 0 0 1.106 1.918 4.259 4.259 0 0 0 3.031 1.261 4.298 4.298 0 0 0 4.286-4.31 4.294 4.294 0 0 0-1.256-3.048zm-7.221-27.825a2.007 2.007 0 0 1 2.001 2.011c0 .538-.208 1.043-.586 1.423a1.995 1.995 0 0 1-2.83 0 2.004 2.004 0 0 1-.586-1.423 2.007 2.007 0 0 1 2.001-2.011zm-59.784 3.434c-.78.785-2.05.785-2.83 0a2.004 2.004 0 0 1-.586-1.423 2.003 2.003 0 0 1 2.001-2.011 2.003 2.003 0 0 1 2.001 2.011c0 .538-.208 1.043-.586 1.423zm-4.038 28.863a2.003 2.003 0 0 1-3.416-1.423 2.004 2.004 0 0 1 2.001-2.012 2.004 2.004 0 0 1 2.001 2.012c0 .537-.208 1.043-.586 1.423zm2.997 16.231a2.009 2.009 0 0 1-2.001-2.013 2.01 2.01 0 0 1 2.001-2.012 2.01 2.01 0 0 1 2.001 2.012 2.01 2.01 0 0 1-2.001 2.013zm16.936 2.162c0 .537-.208 1.043-.586 1.423a2.003 2.003 0 0 1-3.416-1.423c0-.538.208-1.043.586-1.423a1.995 1.995 0 0 1 2.83 0c.377.38.586.885.586 1.423zm22.991-17.573a5.778 5.778 0 0 1-.169-4.421c1.099-2.99 4.412-4.523 7.384-3.417a5.722 5.722 0 0 1 3.228 3.006 5.774 5.774 0 0 1 .17 4.421c-1.099 2.99-4.412 4.523-7.385 3.417a5.722 5.722 0 0 1-3.228-3.006zm7.743 17.573c0 .537-.208 1.043-.586 1.423a2.003 2.003 0 0 1-3.416-1.423 2.004 2.004 0 0 1 2.001-2.012 2.004 2.004 0 0 1 2.001 2.012zm14.935-4.175a2.01 2.01 0 0 1-2.001 2.013 2.01 2.01 0 0 1-2.001-2.013 2.01 2.01 0 0 1 2.001-2.012 2.01 2.01 0 0 1 2.001 2.012zm3.826-14.218a1.997 1.997 0 0 1-2.831-.001 2.006 2.006 0 0 1-.585-1.422 2.007 2.007 0 0 1 2.001-2.012 2.008 2.008 0 0 1 2.001 2.012c0 .537-.208 1.043-.586 1.423z"/>
      <path id="path15" fill="#242527" d="M756.789 344.162a2.432 2.432 0 0 0-2.422 2.437v11.627a2.432 2.432 0 0 0 2.422 2.437h9.07a2.432 2.432 0 0 0 2.422-2.437v-11.627a2.432 2.432 0 0 0-2.422-2.437zm9.207 2.437v11.627a.138.138 0 0 1-.137.138h-9.07a.138.138 0 0 1-.137-.138v-11.627c0-.076.062-.138.137-.138h9.07c.075 0 .137.062.137.138z"/>
      <path id="path16" fill="#242527" d="M762.55 348.776h-2.453c-.631 0-1.143.515-1.143 1.15 0 .635.512 1.15 1.143 1.15h2.453c.631 0 1.142-.515 1.142-1.15 0-.635-.511-1.15-1.142-1.15z"/>
      <path id="path17" fill="#242527" d="M762.55 353.749h-2.453c-.631 0-1.143.515-1.143 1.15 0 .635.512 1.149 1.143 1.149h2.453c.631 0 1.142-.514 1.142-1.149s-.511-1.15-1.142-1.15z"/>
      <path id="path18" fill="#242527" d="M706.919 432.384c0 .651-.149 1.248-.448 1.792-.298.533-.757.965-1.376 1.296-.618.331-1.386.496-2.304.496h-1.696V440h-2.736v-11.232h4.432c.896 0 1.654.155 2.272.464.619.309 1.083.736 1.392 1.28.31.544.464 1.168.464 1.872zm-4.336 1.408c.523 0 .912-.123 1.168-.368.256-.245.384-.592.384-1.04 0-.448-.128-.795-.384-1.04s-.645-.368-1.168-.368h-1.488v2.816zm14.577-2.72V440h-2.736v-1.216a3.054 3.054 0 0 1-1.136.96c-.47.235-.992.352-1.568.352-.683 0-1.286-.149-1.808-.448a3.122 3.122 0 0 1-1.216-1.328c-.288-.576-.432-1.253-.432-2.032v-5.216h2.72v4.848c0 .597.154 1.061.464 1.392.309.331.725.496 1.248.496.533 0 .954-.165 1.264-.496.309-.331.464-.795.464-1.392v-4.848zm4.701 1.264c.256-.416.624-.752 1.104-1.008.48-.256 1.029-.384 1.648-.384.736 0 1.402.187 2 .56.597.373 1.066.907 1.408 1.6.352.693.528 1.499.528 2.416 0 .917-.176 1.728-.528 2.432-.342.693-.811 1.232-1.408 1.616a3.701 3.701 0 0 1-2 .56c-.63 0-1.179-.123-1.648-.368a2.96 2.96 0 0 1-1.104-1.008V440h-2.736v-11.84h2.736zm3.904 3.184c0-.683-.192-1.216-.576-1.6a1.839 1.839 0 0 0-1.392-.592 1.87 1.87 0 0 0-1.392.592c-.374.395-.56.933-.56 1.616s.186 1.221.56 1.616a1.87 1.87 0 0 0 1.392.592 1.87 1.87 0 0 0 1.392-.592c.384-.405.576-.949.576-1.632zm6.955-7.36V440h-2.736v-11.84zm3.359 1.984c-.48 0-.875-.139-1.184-.416a1.41 1.41 0 0 1-.448-1.056c0-.427.149-.779.448-1.056.309-.288.704-.432 1.184-.432.469 0 .853.144 1.152.432.309.277.464.629.464 1.056 0 .416-.155.768-.464 1.056-.299.277-.683.416-1.152.416zm1.36.928V440h-2.736v-8.928zm1.439 4.464c0-.928.186-1.739.56-2.432a4.012 4.012 0 0 1 1.584-1.6c.682-.373 1.461-.56 2.336-.56 1.12 0 2.053.293 2.8.88.757.587 1.253 1.413 1.488 2.48h-2.912c-.246-.683-.72-1.024-1.424-1.024-.502 0-.902.197-1.2.592-.299.384-.448.939-.448 1.664s.149 1.285.448 1.68c.298.384.698.576 1.2.576.704 0 1.178-.341 1.424-1.024h2.912c-.235 1.045-.731 1.867-1.488 2.464-.758.597-1.691.896-2.8.896-.875 0-1.654-.187-2.336-.56a4.012 4.012 0 0 1-1.584-1.6c-.374-.693-.56-1.504-.56-2.432zm13.158-1.168c0-1.109.24-2.096.72-2.96a5.086 5.086 0 0 1 2-2.032c.864-.491 1.84-.736 2.928-.736 1.333 0 2.474.352 3.424 1.056.949.704 1.584 1.664 1.904 2.88h-3.008a2.414 2.414 0 0 0-.96-1.072 2.641 2.641 0 0 0-1.392-.368c-.843 0-1.526.293-2.048.88-.523.587-.784 1.371-.784 2.352 0 .981.261 1.765.784 2.352.522.587 1.205.88 2.048.88.522 0 .986-.123 1.392-.368.416-.245.736-.603.96-1.072h3.008c-.32 1.216-.955 2.176-1.904 2.88-.95.693-2.091 1.04-3.424 1.04-1.088 0-2.064-.24-2.928-.72a5.23 5.23 0 0 1-2-2.032c-.48-.864-.72-1.851-.72-2.96zm16.715 5.76c-.874 0-1.664-.187-2.368-.56a4.175 4.175 0 0 1-1.648-1.6c-.394-.693-.592-1.504-.592-2.432 0-.917.203-1.723.608-2.416a4.113 4.113 0 0 1 1.664-1.616c.704-.373 1.494-.56 2.368-.56.875 0 1.664.187 2.368.56a4.107 4.107 0 0 1 1.664 1.616c.406.693.608 1.499.608 2.416 0 .917-.208 1.728-.624 2.432a4.11 4.11 0 0 1-1.68 1.6c-.704.373-1.493.56-2.368.56zm0-2.368c.523 0 .966-.192 1.328-.576.374-.384.56-.933.56-1.648 0-.715-.181-1.264-.544-1.648a1.707 1.707 0 0 0-1.312-.576c-.533 0-.976.192-1.328.576-.352.373-.528.923-.528 1.648 0 .715.171 1.264.512 1.648.352.384.79.576 1.312.576zm8.86-9.6V440h-2.736v-11.84zm4.719 0V440h-2.736v-11.84zm1.438 7.36c0-.917.171-1.723.512-2.416.352-.693.827-1.227 1.424-1.6a3.701 3.701 0 0 1 2-.56c.63 0 1.179.128 1.648.384.48.256.848.592 1.104 1.008v-1.264h2.736V440h-2.736v-1.264c-.266.416-.64.752-1.12 1.008-.469.256-1.018.384-1.648.384a3.674 3.674 0 0 1-1.984-.56c-.597-.384-1.072-.923-1.424-1.616-.341-.704-.512-1.515-.512-2.432zm6.688.016c0-.683-.192-1.221-.576-1.616a1.818 1.818 0 0 0-1.376-.592 1.87 1.87 0 0 0-1.392.592c-.373.384-.56.917-.56 1.6s.187 1.227.56 1.632a1.87 1.87 0 0 0 1.392.592c.544 0 1.003-.197 1.376-.592.384-.395.576-.933.576-1.616zm9.692 2.144V440h-1.392c-.992 0-1.766-.24-2.32-.72-.555-.491-.832-1.285-.832-2.384v-3.552h-1.088v-2.272h1.088v-2.176h2.736v2.176h1.792v2.272h-1.792v3.584c0 .267.064.459.192.576.128.117.341.176.64.176zm5.588 2.448c-.875 0-1.664-.187-2.368-.56a4.162 4.162 0 0 1-1.648-1.6c-.395-.693-.592-1.504-.592-2.432 0-.917.202-1.723.608-2.416a4.107 4.107 0 0 1 1.664-1.616c.704-.373 1.493-.56 2.368-.56.874 0 1.664.187 2.368.56a4.113 4.113 0 0 1 1.664 1.616c.405.693.608 1.499.608 2.416 0 .917-.208 1.728-.624 2.432a4.123 4.123 0 0 1-1.68 1.6c-.704.373-1.494.56-2.368.56zm0-2.368c.522 0 .965-.192 1.328-.576.373-.384.56-.933.56-1.648 0-.715-.182-1.264-.544-1.648a1.708 1.708 0 0 0-1.312-.576c-.534 0-.976.192-1.328.576-.352.373-.528.923-.528 1.648 0 .715.17 1.264.512 1.648.352.384.789.576 1.312.576zm8.859-5.2c.32-.491.72-.875 1.2-1.152a3.052 3.052 0 0 1 1.6-.432v2.896h-.752c-.682 0-1.194.149-1.536.448-.341.288-.512.8-.512 1.536V440h-2.736v-8.928h2.736zm7.74 7.568c-.779 0-1.472-.133-2.08-.4-.608-.267-1.088-.629-1.44-1.088a2.926 2.926 0 0 1-.592-1.568h2.704c.032.309.176.56.432.752.256.192.571.288.944.288.341 0 .603-.064.784-.192.192-.139.288-.315.288-.528 0-.256-.133-.443-.4-.56-.267-.128-.699-.267-1.296-.416a13.14 13.14 0 0 1-1.6-.464 2.871 2.871 0 0 1-1.104-.784c-.309-.363-.464-.848-.464-1.456 0-.512.139-.976.416-1.392.288-.427.704-.763 1.248-1.008.555-.245 1.211-.368 1.968-.368 1.12 0 2 .277 2.64.832.651.555 1.024 1.291 1.12 2.208h-2.528a1.078 1.078 0 0 0-.416-.736c-.224-.181-.523-.272-.896-.272-.32 0-.565.064-.736.192a.567.567 0 0 0-.256.496c0 .256.133.448.4.576.277.128.704.256 1.28.384.661.171 1.2.341 1.616.512.416.16.779.427 1.088.8.32.363.485.853.496 1.472 0 .523-.149.992-.448 1.408-.288.405-.709.725-1.264.96-.544.235-1.179.352-1.904.352z"/>
    </g>
  </g>
  <path id="path19" fill="#242527" d="M899.94 214.061a1.5 1.5 0 0 0 2.12 0l9.55-9.546c.58-.586.58-1.536 0-2.122a1.5 1.5 0 0 0-2.12 0l-8.49 8.486-8.49-8.486a1.5 1.5 0 0 0-2.12 0 1.511 1.511 0 0 0 0 2.122zM614 88v1.5h277v-3H614Zm287 10h-1.5v115h3V98Zm-10-10v1.5c4.69 0 8.5 3.806 8.5 8.5h3c0-6.351-5.15-11.5-11.5-11.5z"/>
  <path id="path20" fill="#242527" d="M538.061 189.939a1.502 1.502 0 0 0-2.122 0l-9.546 9.546a1.502 1.502 0 0 0 0 2.122 1.502 1.502 0 0 0 2.122 0l8.485-8.486 8.485 8.486a1.502 1.502 0 0 0 2.122 0 1.502 1.502 0 0 0 0-2.122zM740 298v-1.5H547v3h193Zm-203-10h1.5v-97h-3v97zm10 10v-1.5a8.5 8.5 0 0 1-8.5-8.5h-3c0 6.351 5.149 11.5 11.5 11.5z"/>
  <path id="path21" fill="#242527" d="M212.939 296.939a1.502 1.502 0 0 0 0 2.122l9.546 9.546a1.502 1.502 0 0 0 2.122 0 1.502 1.502 0 0 0 0-2.122L216.121 298l8.486-8.485a1.502 1.502 0 0 0 0-2.122 1.502 1.502 0 0 0-2.122 0zM460 191h-1.5v97h3v-97zm-10 107v-1.5H214v3h236zm10-10h-1.5a8.5 8.5 0 0 1-8.5 8.5v3c6.351 0 11.5-5.149 11.5-11.5z"/>
  <path id="path22" fill="#242527" d="M393.061 91.061a1.502 1.502 0 0 0 0-2.122l-9.546-9.546a1.502 1.502 0 0 0-2.122 0 1.502 1.502 0 0 0 0 2.122L389.879 90l-8.486 8.485a1.502 1.502 0 0 0 0 2.122 1.502 1.502 0 0 0 2.122 0zM105 215h1.5V100h-3v115Zm10-125v1.5h277v-3H115Zm-10 10h1.5a8.5 8.5 0 0 1 8.5-8.5v-3c-6.351 0-11.5 5.149-11.5 11.5z"/>
  <path id="rect22" fill="#fff" d="M667 69h166v42H667z"/>
  <path id="path23" fill="#242527" d="M711.038 73.768v2.192h-4.576v2.368h3.424v2.128h-3.424V85h-2.736V73.768Zm5.502 11.36c-.874 0-1.664-.187-2.368-.56a4.175 4.175 0 0 1-1.648-1.6c-.394-.693-.592-1.504-.592-2.432 0-.917.203-1.723.608-2.416a4.113 4.113 0 0 1 1.664-1.616c.704-.373 1.494-.56 2.368-.56.875 0 1.664.187 2.368.56a4.107 4.107 0 0 1 1.664 1.616c.406.693.608 1.499.608 2.416 0 .917-.208 1.728-.624 2.432a4.11 4.11 0 0 1-1.68 1.6c-.704.373-1.493.56-2.368.56zm0-2.368c.523 0 .966-.192 1.328-.576.374-.384.56-.933.56-1.648 0-.715-.181-1.264-.544-1.648a1.707 1.707 0 0 0-1.312-.576c-.533 0-.976.192-1.328.576-.352.373-.528.923-.528 1.648 0 .715.171 1.264.512 1.648.352.384.79.576 1.312.576zm8.86-5.2c.32-.491.72-.875 1.2-1.152a3.05 3.05 0 0 1 1.6-.432v2.896h-.752c-.683 0-1.195.149-1.536.448-.341.288-.512.8-.512 1.536V85h-2.736v-8.928h2.736zm15.5-1.584c1.11 0 1.99.336 2.64 1.008.66.672.99 1.605.99 2.8V85h-2.72v-4.848c0-.576-.15-1.019-.46-1.328-.3-.32-.72-.48-1.25-.48s-.96.16-1.26.48c-.3.309-.45.752-.45 1.328V85h-2.722v-4.848c0-.576-.155-1.019-.464-1.328-.299-.32-.715-.48-1.248-.48-.534 0-.955.16-1.264.48-.299.309-.448.752-.448 1.328V85h-2.736v-8.928h2.736v1.12c.277-.373.64-.667 1.088-.88a3.35 3.35 0 0 1 1.52-.336c.672 0 1.268.144 1.788.432.54.288.95.699 1.25 1.232a3.56 3.56 0 0 1 1.27-1.2 3.394 3.394 0 0 1 1.74-.464zm15.74 3.264a2.57 2.57 0 0 1 1.56.976c.4.501.6 1.077.6 1.728 0 .939-.33 1.685-1 2.24-.65.544-1.56.816-2.73.816h-5.23V73.768h5.05c1.14 0 2.03.261 2.67.784.65.523.98 1.232.98 2.128 0 .661-.18 1.211-.53 1.648-.34.437-.8.741-1.37.912zm-4.07-.928h1.79c.45 0 .79-.096 1.03-.288.24-.203.37-.496.37-.88s-.13-.677-.37-.88c-.24-.203-.58-.304-1.03-.304h-1.79zm2.02 4.48c.46 0 .81-.101 1.05-.304.26-.213.39-.517.39-.912s-.14-.704-.4-.928c-.26-.224-.62-.336-1.07-.336h-1.99v2.48zm8.53-9.632V85h-2.74V73.16Zm6.05 11.968c-.88 0-1.67-.187-2.37-.56a4.097 4.097 0 0 1-1.65-1.6c-.4-.693-.59-1.504-.59-2.432 0-.917.2-1.723.61-2.416a4.09 4.09 0 0 1 1.66-1.616c.7-.373 1.49-.56 2.37-.56.87 0 1.66.187 2.37.56.7.373 1.25.912 1.66 1.616.4.693.61 1.499.61 2.416 0 .917-.21 1.728-.63 2.432a4.05 4.05 0 0 1-1.68 1.6c-.7.373-1.49.56-2.36.56zm0-2.368c.52 0 .96-.192 1.32-.576.38-.384.56-.933.56-1.648 0-.715-.18-1.264-.54-1.648a1.704 1.704 0 0 0-1.31-.576c-.54 0-.98.192-1.33.576-.35.373-.53.923-.53 1.648 0 .715.17 1.264.51 1.648.36.384.79.576 1.32.576zm5.57-2.224c0-.928.19-1.739.56-2.432.39-.693.92-1.227 1.59-1.6.68-.373 1.46-.56 2.33-.56 1.12 0 2.06.293 2.8.88.76.587 1.26 1.413 1.49 2.48h-2.91c-.24-.683-.72-1.024-1.42-1.024-.5 0-.9.197-1.2.592-.3.384-.45.939-.45 1.664s.15 1.285.45 1.68c.3.384.7.576 1.2.576.7 0 1.18-.341 1.42-1.024h2.91c-.23 1.045-.73 1.867-1.49 2.464-.75.597-1.69.896-2.8.896-.87 0-1.65-.187-2.33-.56a4.078 4.078 0 0 1-1.59-1.6c-.37-.693-.56-1.504-.56-2.432zM790.43 85l-2.72-3.744V85h-2.73V73.16h2.73v6.544l2.71-3.632h3.37l-3.71 4.48L793.82 85zm-104.789 25.344c-1.035-.992-1.84-2.272-2.416-3.84-.576-1.568-.864-3.259-.864-5.072 0-1.835.298-3.547.896-5.136.597-1.6 1.445-2.901 2.544-3.904h2.688v.256c-1.12 1.109-1.984 2.443-2.592 4a12.966 12.966 0 0 0-.912 4.784c0 1.632.293 3.205.88 4.72.586 1.515 1.413 2.827 2.48 3.936v.256zm8.425-10h-1.472V107h-2.736v-6.656h-.992v-2.272h.992v-.256c0-1.099.314-1.931.944-2.496.629-.576 1.552-.864 2.768-.864.202 0 .352.005.448.016v2.32c-.523-.032-.891.043-1.104.224-.214.181-.32.507-.32.976v.08h1.472zm4.021-.784c.32-.491.72-.875 1.2-1.152a3.052 3.052 0 0 1 1.6-.432v2.896h-.752c-.682 0-1.194.149-1.536.448-.341.288-.512.8-.512 1.536V107h-2.736v-8.928h2.736zm8.172 7.568c-.875 0-1.664-.187-2.368-.56a4.168 4.168 0 0 1-1.648-1.6c-.395-.693-.592-1.504-.592-2.432 0-.917.203-1.723.608-2.416a4.107 4.107 0 0 1 1.664-1.616c.704-.373 1.493-.56 2.368-.56.875 0 1.664.187 2.368.56a4.107 4.107 0 0 1 1.664 1.616c.405.693.608 1.499.608 2.416 0 .917-.208 1.728-.624 2.432a4.11 4.11 0 0 1-1.68 1.6c-.704.373-1.493.56-2.368.56zm0-2.368c.523 0 .965-.192 1.328-.576.373-.384.56-.933.56-1.648 0-.715-.181-1.264-.544-1.648a1.707 1.707 0 0 0-1.312-.576c-.533 0-.976.192-1.328.576-.352.373-.528.923-.528 1.648 0 .715.171 1.264.512 1.648.352.384.789.576 1.312.576zm17.516-6.784c1.109 0 1.989.336 2.64 1.008.661.672.992 1.605.992 2.8V107h-2.72v-4.848c0-.576-.155-1.019-.464-1.328-.299-.32-.715-.48-1.248-.48-.534 0-.955.16-1.264.48-.299.309-.448.752-.448 1.328V107h-2.72v-4.848c0-.576-.155-1.019-.464-1.328-.299-.32-.715-.48-1.248-.48-.534 0-.955.16-1.264.48-.299.309-.448.752-.448 1.328V107h-2.736v-8.928h2.736v1.12c.277-.373.64-.667 1.088-.88a3.35 3.35 0 0 1 1.52-.336c.672 0 1.269.144 1.792.432a3.09 3.09 0 0 1 1.248 1.232c.309-.491.73-.891 1.264-1.2a3.416 3.416 0 0 1 1.744-.464zm20.325 0c1.11 0 1.99.336 2.64 1.008.66.672.99 1.605.99 2.8V107h-2.72v-4.848c0-.576-.15-1.019-.46-1.328-.3-.32-.71-.48-1.25-.48-.53 0-.95.16-1.26.48-.3.309-.45.752-.45 1.328V107h-2.72v-4.848c0-.576-.15-1.019-.46-1.328-.3-.32-.72-.48-1.25-.48s-.96.16-1.265.48c-.299.309-.448.752-.448 1.328V107h-2.736v-8.928h2.736v1.12a2.902 2.902 0 0 1 1.083-.88c.45-.224.96-.336 1.52-.336.68 0 1.27.144 1.8.432.53.288.95.699 1.24 1.232.31-.491.74-.891 1.27-1.2a3.394 3.394 0 0 1 1.74-.464zm13.96 4.416c0 .256-.01.523-.04.8h-6.2c.05.555.22.981.53 1.28.32.288.71.432 1.17.432.68 0 1.16-.288 1.42-.864h2.92a4.016 4.016 0 0 1-.82 1.584c-.38.469-.87.837-1.46 1.104-.58.267-1.24.4-1.96.4-.88 0-1.66-.187-2.34-.56a3.975 3.975 0 0 1-1.6-1.6c-.38-.693-.58-1.504-.58-2.432 0-.928.19-1.739.56-2.432.39-.693.92-1.227 1.6-1.6.69-.373 1.47-.56 2.36-.56.86 0 1.63.181 2.3.544.67.363 1.19.88 1.57 1.552.38.672.57 1.456.57 2.352zm-2.8-.72c0-.469-.16-.843-.48-1.12-.32-.277-.72-.416-1.2-.416-.45 0-.84.133-1.16.4-.31.267-.51.645-.58 1.136zm15.64-3.696c1.11 0 1.99.336 2.64 1.008.66.672.99 1.605.99 2.8V107h-2.72v-4.848c0-.576-.15-1.019-.46-1.328-.3-.32-.72-.48-1.25-.48s-.96.16-1.26.48c-.3.309-.45.752-.45 1.328V107h-2.72v-4.848c0-.576-.16-1.019-.47-1.328-.3-.32-.71-.48-1.24-.48-.54 0-.96.16-1.27.48-.3.309-.45.752-.45 1.328V107h-2.73v-8.928h2.73v1.12c.28-.373.64-.667 1.09-.88.45-.224.96-.336 1.52-.336.67 0 1.27.144 1.79.432.54.288.95.699 1.25 1.232a3.56 3.56 0 0 1 1.27-1.2 3.394 3.394 0 0 1 1.74-.464zm8.28 1.36a3.01 3.01 0 0 1 1.11-1.008c.46-.256 1.01-.384 1.64-.384.74 0 1.41.187 2 .56.6.373 1.07.907 1.41 1.6.35.693.53 1.499.53 2.416 0 .917-.18 1.728-.53 2.432-.34.693-.81 1.232-1.41 1.616-.59.373-1.26.56-2 .56-.62 0-1.16-.128-1.64-.384a3.067 3.067 0 0 1-1.11-.992v5.504h-2.73V98.072h2.73zm3.91 3.184c0-.683-.2-1.216-.58-1.6a1.835 1.835 0 0 0-1.39-.592c-.55 0-1.01.197-1.39.592-.38.395-.56.933-.56 1.616s.18 1.221.56 1.616c.38.395.84.592 1.39.592.54 0 1.01-.197 1.39-.592.38-.405.58-.949.58-1.632zm8.28 4.608c-.88 0-1.67-.187-2.37-.56a4.226 4.226 0 0 1-1.65-1.6c-.39-.693-.59-1.504-.59-2.432 0-.917.2-1.723.61-2.416a4.09 4.09 0 0 1 1.66-1.616c.71-.373 1.5-.56 2.37-.56.88 0 1.66.187 2.37.56.7.373 1.26.912 1.66 1.616.41.693.61 1.499.61 2.416 0 .917-.21 1.728-.62 2.432a4.173 4.173 0 0 1-1.68 1.6c-.71.373-1.5.56-2.37.56zm0-2.368c.52 0 .96-.192 1.33-.576.37-.384.56-.933.56-1.648 0-.715-.18-1.264-.55-1.648a1.704 1.704 0 0 0-1.31-.576c-.53 0-.98.192-1.33.576-.35.373-.53.923-.53 1.648 0 .715.18 1.264.52 1.648.35.384.79.576 1.31.576zm10.19 2.368c-.88 0-1.67-.187-2.37-.56a4.16 4.16 0 0 1-1.65-1.6c-.39-.693-.59-1.504-.59-2.432 0-.917.2-1.723.61-2.416a4.09 4.09 0 0 1 1.66-1.616c.7-.373 1.49-.56 2.37-.56.87 0 1.66.187 2.37.56.7.373 1.25.912 1.66 1.616.41.693.61 1.499.61 2.416 0 .917-.21 1.728-.63 2.432a4.05 4.05 0 0 1-1.68 1.6c-.7.373-1.49.56-2.36.56zm0-2.368c.52 0 .96-.192 1.32-.576.38-.384.56-.933.56-1.648 0-.715-.18-1.264-.54-1.648a1.704 1.704 0 0 0-1.31-.576c-.54 0-.98.192-1.33.576-.35.373-.53.923-.53 1.648 0 .715.17 1.264.51 1.648.36.384.79.576 1.32.576zm8.86-9.6V107h-2.74V95.16Zm1.24 15.184v-.256a11.55 11.55 0 0 0 2.48-3.936c.59-1.515.88-3.088.88-4.72 0-1.643-.3-3.237-.91-4.784-.61-1.557-1.47-2.891-2.59-4v-.256h2.69c1.09 1.003 1.94 2.304 2.54 3.904.6 1.589.9 3.301.9 5.136 0 1.813-.29 3.504-.87 5.072-.57 1.568-1.38 2.848-2.41 3.84z"/>
  <path id="rect23" fill="#fff" d="M563 265h154v64H563z"/>
  <path id="path24" fill="#242527" d="m579.751 281-2.336-4.24h-.656V281h-2.736v-11.232h4.592c.886 0 1.638.155 2.256.464.63.309 1.099.736 1.408 1.28a3.5 3.5 0 0 1 .464 1.792c0 .747-.213 1.413-.64 2-.416.587-1.034 1.003-1.856 1.248l2.592 4.448zm-2.992-6.176h1.696c.502 0 .875-.123 1.12-.368.256-.245.384-.592.384-1.04 0-.427-.128-.763-.384-1.008-.245-.245-.618-.368-1.12-.368h-1.696zm16.118 1.568c0 .256-.016.523-.048.8h-6.192c.042.555.218.981.528 1.28.32.288.709.432 1.168.432.682 0 1.157-.288 1.424-.864h2.912a3.957 3.957 0 0 1-.816 1.584c-.384.469-.87.837-1.456 1.104-.587.267-1.243.4-1.968.4-.875 0-1.654-.187-2.336-.56a3.981 3.981 0 0 1-1.6-1.6c-.384-.693-.576-1.504-.576-2.432 0-.928.186-1.739.56-2.432a3.981 3.981 0 0 1 1.6-1.6c.682-.373 1.466-.56 2.352-.56.864 0 1.632.181 2.304.544a3.86 3.86 0 0 1 1.568 1.552c.384.672.576 1.456.576 2.352zm-2.8-.72c0-.469-.16-.843-.48-1.12-.32-.277-.72-.416-1.2-.416-.459 0-.848.133-1.168.4-.31.267-.502.645-.576 1.136zm3.699.864c0-.928.187-1.739.56-2.432a4.012 4.012 0 0 1 1.584-1.6c.683-.373 1.461-.56 2.336-.56 1.12 0 2.053.293 2.8.88.757.587 1.253 1.413 1.488 2.48h-2.912c-.245-.683-.72-1.024-1.424-1.024-.501 0-.901.197-1.2.592-.299.384-.448.939-.448 1.664s.149 1.285.448 1.68c.299.384.699.576 1.2.576.704 0 1.179-.341 1.424-1.024h2.912c-.235 1.045-.731 1.867-1.488 2.464s-1.691.896-2.8.896c-.875 0-1.653-.187-2.336-.56a4.012 4.012 0 0 1-1.584-1.6c-.373-.693-.56-1.504-.56-2.432zm18.648-.144c0 .256-.016.523-.048.8h-6.192c.042.555.218.981.528 1.28.32.288.709.432 1.168.432.682 0 1.157-.288 1.424-.864h2.912a3.957 3.957 0 0 1-.816 1.584c-.384.469-.87.837-1.456 1.104-.587.267-1.243.4-1.968.4-.875 0-1.654-.187-2.336-.56a3.981 3.981 0 0 1-1.6-1.6c-.384-.693-.576-1.504-.576-2.432 0-.928.186-1.739.56-2.432a3.981 3.981 0 0 1 1.6-1.6c.682-.373 1.466-.56 2.352-.56.864 0 1.632.181 2.304.544a3.86 3.86 0 0 1 1.568 1.552c.384.672.576 1.456.576 2.352zm-2.8-.72c0-.469-.16-.843-.48-1.12-.32-.277-.72-.416-1.2-.416-.459 0-.848.133-1.168.4-.31.267-.502.645-.576 1.136zm5.619-4.528c-.48 0-.875-.139-1.184-.416a1.41 1.41 0 0 1-.448-1.056c0-.427.149-.779.448-1.056.309-.288.704-.432 1.184-.432.469 0 .853.144 1.152.432.309.277.464.629.464 1.056 0 .416-.155.768-.464 1.056-.299.277-.683.416-1.152.416zm1.36.928V281h-2.736v-8.928zm5.999 6.368 1.936-6.368h2.912L624.282 281h-3.376l-3.168-8.928h2.928zm14.415-2.048c0 .256-.016.523-.048.8h-6.192c.043.555.219.981.528 1.28.32.288.71.432 1.168.432.683 0 1.158-.288 1.424-.864h2.912a3.932 3.932 0 0 1-.816 1.584 3.976 3.976 0 0 1-1.456 1.104c-.586.267-1.242.4-1.968.4-.874 0-1.653-.187-2.336-.56a3.987 3.987 0 0 1-1.6-1.6c-.384-.693-.576-1.504-.576-2.432 0-.928.187-1.739.56-2.432a3.987 3.987 0 0 1 1.6-1.6c.683-.373 1.467-.56 2.352-.56.864 0 1.632.181 2.304.544.672.363 1.195.88 1.568 1.552.384.672.576 1.456.576 2.352zm-2.8-.72c0-.469-.16-.843-.48-1.12-.32-.277-.72-.416-1.2-.416-.458 0-.848.133-1.168.4-.309.267-.501.645-.576 1.136zM647.579 281l-2.336-4.24h-.656V281h-2.736v-11.232h4.592c.886 0 1.638.155 2.256.464.63.309 1.099.736 1.408 1.28a3.5 3.5 0 0 1 .464 1.792c0 .747-.213 1.413-.64 2-.416.587-1.034 1.003-1.856 1.248l2.592 4.448zm-2.992-6.176h1.696c.502 0 .875-.123 1.12-.368.256-.245.384-.592.384-1.04 0-.427-.128-.763-.384-1.008-.245-.245-.618-.368-1.12-.368h-1.696zm16.118 1.568c0 .256-.016.523-.048.8h-6.192c.043.555.219.981.528 1.28.32.288.709.432 1.168.432.683 0 1.157-.288 1.424-.864h2.912a3.932 3.932 0 0 1-.816 1.584 3.976 3.976 0 0 1-1.456 1.104c-.587.267-1.243.4-1.968.4-.875 0-1.653-.187-2.336-.56a3.981 3.981 0 0 1-1.6-1.6c-.384-.693-.576-1.504-.576-2.432 0-.928.187-1.739.56-2.432a3.981 3.981 0 0 1 1.6-1.6c.683-.373 1.467-.56 2.352-.56.864 0 1.632.181 2.304.544.672.363 1.195.88 1.568 1.552.384.672.576 1.456.576 2.352zm-2.8-.72c0-.469-.16-.843-.48-1.12-.32-.277-.72-.416-1.2-.416-.459 0-.848.133-1.168.4-.309.267-.501.645-.576 1.136zm17.059-3.6L672.548 281h-3.024l-1.408-5.792L666.66 281h-3.008l-2.432-8.928h2.736l1.264 6.384 1.504-6.384h2.896l1.52 6.352 1.248-6.352zm.5 4.448c0-.917.17-1.723.512-2.416.352-.693.826-1.227 1.424-1.6a3.699 3.699 0 0 1 2-.56c.629 0 1.178.128 1.648.384.48.256.848.592 1.104 1.008v-1.264h2.736V281h-2.736v-1.264c-.267.416-.64.752-1.12 1.008-.47.256-1.019.384-1.648.384a3.669 3.669 0 0 1-1.984-.56c-.598-.384-1.072-.923-1.424-1.616-.342-.704-.512-1.515-.512-2.432zm6.688.016c0-.683-.192-1.221-.576-1.616a1.82 1.82 0 0 0-1.376-.592 1.87 1.87 0 0 0-1.392.592c-.374.384-.56.917-.56 1.6s.186 1.227.56 1.632a1.87 1.87 0 0 0 1.392.592 1.82 1.82 0 0 0 1.376-.592c.384-.395.576-.933.576-1.616zm7.451-2.976c.32-.491.72-.875 1.2-1.152a3.05 3.05 0 0 1 1.6-.432v2.896h-.752c-.683 0-1.195.149-1.536.448-.341.288-.512.8-.512 1.536V281h-2.736v-8.928h2.736zm3.564 2.96c0-.917.17-1.723.512-2.416.352-.693.826-1.227 1.424-1.6a3.699 3.699 0 0 1 2-.56c.586 0 1.12.123 1.6.368.49.245.874.576 1.152.992v-4.144h2.736V281h-2.736v-1.28a2.772 2.772 0 0 1-1.104 1.024c-.47.256-1.019.384-1.648.384a3.699 3.699 0 0 1-2-.56c-.598-.384-1.072-.923-1.424-1.616-.342-.704-.512-1.515-.512-2.432zm6.688.016c0-.683-.192-1.221-.576-1.616a1.82 1.82 0 0 0-1.376-.592 1.87 1.87 0 0 0-1.392.592c-.374.384-.56.917-.56 1.6s.186 1.227.56 1.632a1.87 1.87 0 0 0 1.392.592 1.82 1.82 0 0 0 1.376-.592c.384-.395.576-.933.576-1.616zm-94.605 29.808c-1.035-.992-1.84-2.272-2.416-3.84-.576-1.568-.864-3.259-.864-5.072 0-1.835.299-3.547.896-5.136.597-1.6 1.445-2.901 2.544-3.904h2.688v.256c-1.12 1.109-1.984 2.443-2.592 4a12.966 12.966 0 0 0-.912 4.784c0 1.632.293 3.205.88 4.72.587 1.515 1.413 2.827 2.48 3.936v.256zm8.425-10h-1.472V303h-2.736v-6.656h-.992v-2.272h.992v-.256c0-1.099.315-1.931.944-2.496.629-.576 1.552-.864 2.768-.864.203 0 .352.005.448.016v2.32c-.523-.032-.891.043-1.104.224-.213.181-.32.507-.32.976v.08h1.472zm5.35 6.784c-.875 0-1.664-.187-2.368-.56a4.162 4.162 0 0 1-1.648-1.6c-.395-.693-.592-1.504-.592-2.432 0-.917.202-1.723.608-2.416a4.107 4.107 0 0 1 1.664-1.616c.704-.373 1.493-.56 2.368-.56.874 0 1.664.187 2.368.56a4.113 4.113 0 0 1 1.664 1.616c.405.693.608 1.499.608 2.416 0 .917-.208 1.728-.624 2.432a4.123 4.123 0 0 1-1.68 1.6c-.704.373-1.494.56-2.368.56zm0-2.368c.522 0 .965-.192 1.328-.576.373-.384.56-.933.56-1.648 0-.715-.182-1.264-.544-1.648a1.708 1.708 0 0 0-1.312-.576c-.534 0-.976.192-1.328.576-.352.373-.528.923-.528 1.648 0 .715.17 1.264.512 1.648.352.384.789.576 1.312.576zm8.859-5.2c.32-.491.72-.875 1.2-1.152a3.052 3.052 0 0 1 1.6-.432v2.896h-.752c-.682 0-1.194.149-1.536.448-.341.288-.512.8-.512 1.536V303h-2.736v-8.928h2.736zm14.299 1.68c.65.139 1.173.464 1.568.976.394.501.592 1.077.592 1.728 0 .939-.331 1.685-.992 2.24-.651.544-1.563.816-2.736.816h-5.232v-11.232h5.056c1.141 0 2.032.261 2.672.784.65.523.976 1.232.976 2.128 0 .661-.176 1.211-.528 1.648-.342.437-.8.741-1.376.912zm-4.064-.928h1.792c.448 0 .789-.096 1.024-.288.245-.203.368-.496.368-.88s-.123-.677-.368-.88c-.235-.203-.576-.304-1.024-.304h-1.792zm2.016 4.48c.458 0 .81-.101 1.056-.304.256-.213.384-.517.384-.912s-.134-.704-.4-.928c-.256-.224-.614-.336-1.072-.336h-1.984v2.48zm8.531-9.632V303h-2.736v-11.84zm6.046 11.968c-.874 0-1.664-.187-2.368-.56a4.175 4.175 0 0 1-1.648-1.6c-.394-.693-.592-1.504-.592-2.432 0-.917.203-1.723.608-2.416a4.113 4.113 0 0 1 1.664-1.616c.704-.373 1.494-.56 2.368-.56.875 0 1.664.187 2.368.56a4.107 4.107 0 0 1 1.664 1.616c.406.693.608 1.499.608 2.416 0 .917-.208 1.728-.624 2.432a4.11 4.11 0 0 1-1.68 1.6c-.704.373-1.493.56-2.368.56zm0-2.368c.523 0 .966-.192 1.328-.576.374-.384.56-.933.56-1.648 0-.715-.181-1.264-.544-1.648a1.707 1.707 0 0 0-1.312-.576c-.533 0-.976.192-1.328.576-.352.373-.528.923-.528 1.648 0 .715.171 1.264.512 1.648.352.384.79.576 1.312.576zm5.58-2.224c0-.928.186-1.739.56-2.432a4.012 4.012 0 0 1 1.584-1.6c.682-.373 1.461-.56 2.336-.56 1.12 0 2.053.293 2.8.88.757.587 1.253 1.413 1.488 2.48h-2.912c-.246-.683-.72-1.024-1.424-1.024-.502 0-.902.197-1.2.592-.299.384-.448.939-.448 1.664s.149 1.285.448 1.68c.298.384.698.576 1.2.576.704 0 1.178-.341 1.424-1.024h2.912c-.235 1.045-.731 1.867-1.488 2.464-.758.597-1.691.896-2.8.896-.875 0-1.654-.187-2.336-.56a4.012 4.012 0 0 1-1.584-1.6c-.374-.693-.56-1.504-.56-2.432zM675.979 303l-2.72-3.744V303h-2.736v-11.84h2.736v6.544l2.704-3.632h3.376l-3.712 4.48 3.744 4.448zm-74.37 10.768v2.192h-4.576v2.368h3.424v2.128h-3.424V325h-2.736v-11.232zm5.502 11.36c-.875 0-1.664-.187-2.368-.56a4.162 4.162 0 0 1-1.648-1.6c-.395-.693-.592-1.504-.592-2.432 0-.917.202-1.723.608-2.416a4.107 4.107 0 0 1 1.664-1.616c.704-.373 1.493-.56 2.368-.56.874 0 1.664.187 2.368.56a4.113 4.113 0 0 1 1.664 1.616c.405.693.608 1.499.608 2.416 0 .917-.208 1.728-.624 2.432a4.123 4.123 0 0 1-1.68 1.6c-.704.373-1.494.56-2.368.56zm0-2.368c.522 0 .965-.192 1.328-.576.373-.384.56-.933.56-1.648 0-.715-.182-1.264-.544-1.648a1.708 1.708 0 0 0-1.312-.576c-.534 0-.976.192-1.328.576-.352.373-.528.923-.528 1.648 0 .715.17 1.264.512 1.648.352.384.789.576 1.312.576zm8.859-5.2c.32-.491.72-.875 1.2-1.152a3.052 3.052 0 0 1 1.6-.432v2.896h-.752c-.682 0-1.194.149-1.536.448-.341.288-.512.8-.512 1.536V325h-2.736v-8.928h2.736zm15.5-1.584c1.109 0 1.989.336 2.64 1.008.661.672.992 1.605.992 2.8V325h-2.72v-4.848c0-.576-.155-1.019-.464-1.328-.299-.32-.715-.48-1.248-.48s-.955.16-1.264.48c-.299.309-.448.752-.448 1.328V325h-2.72v-4.848c0-.576-.155-1.019-.464-1.328-.299-.32-.715-.48-1.248-.48s-.955.16-1.264.48c-.299.309-.448.752-.448 1.328V325h-2.736v-8.928h2.736v1.12c.277-.373.64-.667 1.088-.88a3.353 3.353 0 0 1 1.52-.336c.672 0 1.269.144 1.792.432a3.09 3.09 0 0 1 1.248 1.232 3.59 3.59 0 0 1 1.264-1.2 3.418 3.418 0 0 1 1.744-.464zm5.001 4.544c0-.917.171-1.723.512-2.416.352-.693.827-1.227 1.424-1.6a3.701 3.701 0 0 1 2-.56c.63 0 1.179.128 1.648.384.48.256.848.592 1.104 1.008v-1.264h2.736V325h-2.736v-1.264c-.266.416-.64.752-1.12 1.008-.469.256-1.018.384-1.648.384a3.674 3.674 0 0 1-1.984-.56c-.597-.384-1.072-.923-1.424-1.616-.341-.704-.512-1.515-.512-2.432zm6.688.016c0-.683-.192-1.221-.576-1.616a1.818 1.818 0 0 0-1.376-.592 1.87 1.87 0 0 0-1.392.592c-.373.384-.56.917-.56 1.6s.187 1.227.56 1.632a1.87 1.87 0 0 0 1.392.592c.544 0 1.003-.197 1.376-.592.384-.395.576-.933.576-1.616zm9.692 2.144V325h-1.392c-.992 0-1.766-.24-2.32-.72-.555-.491-.832-1.285-.832-2.384v-3.552h-1.088v-2.272h1.088v-2.176h2.736v2.176h1.792v2.272h-1.792v3.584c0 .267.064.459.192.576.128.117.341.176.64.176zm2.9-7.536c-.48 0-.875-.139-1.184-.416a1.41 1.41 0 0 1-.448-1.056c0-.427.149-.779.448-1.056.309-.288.704-.432 1.184-.432.469 0 .853.144 1.152.432.309.277.464.629.464 1.056 0 .416-.155.768-.464 1.056-.299.277-.683.416-1.152.416zm1.36.928V325h-2.736v-8.928zm6.047 9.056c-.875 0-1.664-.187-2.368-.56a4.162 4.162 0 0 1-1.648-1.6c-.395-.693-.592-1.504-.592-2.432 0-.917.202-1.723.608-2.416a4.107 4.107 0 0 1 1.664-1.616c.704-.373 1.493-.56 2.368-.56.874 0 1.664.187 2.368.56a4.113 4.113 0 0 1 1.664 1.616c.405.693.608 1.499.608 2.416 0 .917-.208 1.728-.624 2.432a4.123 4.123 0 0 1-1.68 1.6c-.704.373-1.494.56-2.368.56zm0-2.368c.522 0 .965-.192 1.328-.576.373-.384.56-.933.56-1.648 0-.715-.182-1.264-.544-1.648a1.708 1.708 0 0 0-1.312-.576c-.534 0-.976.192-1.328.576-.352.373-.528.923-.528 1.648 0 .715.17 1.264.512 1.648.352.384.789.576 1.312.576zm11.563-6.784c1.045 0 1.877.341 2.496 1.024.629.672.944 1.6.944 2.784V325h-2.72v-4.848c0-.597-.155-1.061-.464-1.392-.309-.331-.725-.496-1.248-.496s-.939.165-1.248.496c-.309.331-.464.795-.464 1.392V325h-2.736v-8.928h2.736v1.184a2.821 2.821 0 0 1 1.12-.928 3.487 3.487 0 0 1 1.584-.352zm4.605 12.368v-.256c1.067-1.109 1.894-2.421 2.48-3.936.587-1.515.88-3.088.88-4.72 0-1.643-.304-3.237-.912-4.784-.608-1.557-1.472-2.891-2.592-4v-.256h2.688c1.099 1.003 1.947 2.304 2.544 3.904.598 1.589.896 3.301.896 5.136 0 1.813-.288 3.504-.864 5.072-.576 1.568-1.381 2.848-2.416 3.84z"/>
  <path id="rect24" fill="#fff" d="M153 65h190v42H153z"/>
  <path id="path25" fill="#242527" d="M215.767 81.112c-.821 0-1.557-.133-2.208-.4a3.655 3.655 0 0 1-1.568-1.184c-.384-.523-.587-1.152-.608-1.888h2.912c.043.416.187.736.432.96.245.213.565.32.96.32.405 0 .725-.091.96-.272.235-.192.352-.453.352-.784a.906.906 0 0 0-.288-.688 2.136 2.136 0 0 0-.688-.448 10.447 10.447 0 0 0-1.152-.4c-.725-.224-1.317-.448-1.776-.672a3.285 3.285 0 0 1-1.184-.992c-.331-.437-.496-1.008-.496-1.712 0-1.045.379-1.861 1.136-2.448.757-.597 1.744-.896 2.96-.896 1.237 0 2.235.299 2.992.896.757.587 1.163 1.408 1.216 2.464h-2.96c-.021-.363-.155-.645-.4-.848-.245-.213-.56-.32-.944-.32-.331 0-.597.091-.8.272-.203.171-.304.421-.304.752 0 .363.171.645.512.848.341.203.875.421 1.6.656.725.245 1.312.48 1.76.704a3.34 3.34 0 0 1 1.184.976c.331.427.496.976.496 1.648 0 .64-.165 1.221-.496 1.744-.32.523-.789.939-1.408 1.248-.619.309-1.349.464-2.192.464zm14.196-4.72c0 .256-.016.523-.048.8h-6.192c.042.555.218.981.528 1.28.32.288.709.432 1.168.432.682 0 1.157-.288 1.424-.864h2.912a3.957 3.957 0 0 1-.816 1.584c-.384.469-.87.837-1.456 1.104-.587.267-1.243.4-1.968.4-.875 0-1.654-.187-2.336-.56a3.981 3.981 0 0 1-1.6-1.6c-.384-.693-.576-1.504-.576-2.432 0-.928.186-1.739.56-2.432a3.981 3.981 0 0 1 1.6-1.6c.682-.373 1.466-.56 2.352-.56.864 0 1.632.181 2.304.544a3.86 3.86 0 0 1 1.568 1.552c.384.672.576 1.456.576 2.352zm-2.8-.72c0-.469-.16-.843-.48-1.12-.32-.277-.72-.416-1.2-.416-.459 0-.848.133-1.168.4-.31.267-.502.645-.576 1.136zm6.979-6.512V81h-2.736V69.16Zm10.399 7.232c0 .256-.016.523-.048.8h-6.192c.042.555.218.981.528 1.28.32.288.709.432 1.168.432.682 0 1.157-.288 1.424-.864h2.912a3.957 3.957 0 0 1-.816 1.584c-.384.469-.87.837-1.456 1.104-.587.267-1.243.4-1.968.4-.875 0-1.654-.187-2.336-.56a3.981 3.981 0 0 1-1.6-1.6c-.384-.693-.576-1.504-.576-2.432 0-.928.186-1.739.56-2.432a3.981 3.981 0 0 1 1.6-1.6c.682-.373 1.466-.56 2.352-.56.864 0 1.632.181 2.304.544a3.86 3.86 0 0 1 1.568 1.552c.384.672.576 1.456.576 2.352zm-2.8-.72c0-.469-.16-.843-.48-1.12-.32-.277-.72-.416-1.2-.416-.459 0-.848.133-1.168.4-.31.267-.502.645-.576 1.136zm3.699.864c0-.928.187-1.739.56-2.432a4.012 4.012 0 0 1 1.584-1.6c.683-.373 1.462-.56 2.336-.56 1.12 0 2.054.293 2.8.88.758.587 1.254 1.413 1.488 2.48h-2.912c-.245-.683-.72-1.024-1.424-1.024-.501 0-.901.197-1.2.592-.298.384-.448.939-.448 1.664s.15 1.285.448 1.68c.299.384.699.576 1.2.576.704 0 1.179-.341 1.424-1.024h2.912c-.234 1.045-.73 1.867-1.488 2.464-.757.597-1.69.896-2.8.896-.874 0-1.653-.187-2.336-.56a4.012 4.012 0 0 1-1.584-1.6c-.373-.693-.56-1.504-.56-2.432zm15.208 2.144V81h-1.392c-.992 0-1.766-.24-2.32-.72-.555-.491-.832-1.285-.832-2.384v-3.552h-1.088v-2.272h1.088v-2.176h2.736v2.176h1.792v2.272h-1.792v3.584c0 .267.064.459.192.576.128.117.341.176.64.176zm9.94-2.288c0 .256-.016.523-.048.8h-6.192c.042.555.218.981.528 1.28.32.288.709.432 1.168.432.682 0 1.157-.288 1.424-.864h2.912a3.957 3.957 0 0 1-.816 1.584c-.384.469-.87.837-1.456 1.104-.587.267-1.243.4-1.968.4-.875 0-1.654-.187-2.336-.56a3.981 3.981 0 0 1-1.6-1.6c-.384-.693-.576-1.504-.576-2.432 0-.928.186-1.739.56-2.432a3.981 3.981 0 0 1 1.6-1.6c.682-.373 1.466-.56 2.352-.56.864 0 1.632.181 2.304.544a3.86 3.86 0 0 1 1.568 1.552c.384.672.576 1.456.576 2.352zm-2.8-.72c0-.469-.16-.843-.48-1.12-.32-.277-.72-.416-1.2-.416-.459 0-.848.133-1.168.4-.31.267-.502.645-.576 1.136zm3.699.848c0-.917.171-1.723.512-2.416.352-.693.827-1.227 1.424-1.6a3.699 3.699 0 0 1 2-.56c.587 0 1.12.123 1.6.368a2.91 2.91 0 0 1 1.152.992V69.16h2.736V81h-2.736v-1.28a2.772 2.772 0 0 1-1.104 1.024c-.469.256-1.019.384-1.648.384a3.699 3.699 0 0 1-2-.56c-.597-.384-1.072-.923-1.424-1.616-.341-.704-.512-1.515-.512-2.432zm6.688.016c0-.683-.192-1.221-.576-1.616a1.818 1.818 0 0 0-1.376-.592 1.87 1.87 0 0 0-1.392.592c-.373.384-.56.917-.56 1.6s.187 1.227.56 1.632a1.87 1.87 0 0 0 1.392.592c.544 0 1.003-.197 1.376-.592.384-.395.576-.933.576-1.616zm-110.331 29.808c-1.035-.992-1.84-2.272-2.416-3.84-.576-1.568-.864-3.259-.864-5.072 0-1.835.299-3.547.896-5.136.597-1.6 1.445-2.901 2.544-3.904h2.688v.256c-1.12 1.109-1.984 2.443-2.592 4a12.966 12.966 0 0 0-.912 4.784c0 1.632.293 3.205.88 4.72.587 1.515 1.413 2.827 2.48 3.936v.256zm6.681-11.008c.256-.416.624-.752 1.104-1.008.48-.256 1.029-.384 1.648-.384.736 0 1.403.187 2 .56.597.373 1.067.907 1.408 1.6.352.693.528 1.499.528 2.416 0 .917-.176 1.728-.528 2.432-.341.693-.811 1.232-1.408 1.616a3.699 3.699 0 0 1-2 .56c-.629 0-1.179-.123-1.648-.368a2.975 2.975 0 0 1-1.104-1.008V103h-2.736V91.16h2.736zm3.904 3.184c0-.683-.192-1.216-.576-1.6a1.836 1.836 0 0 0-1.392-.592 1.87 1.87 0 0 0-1.392.592c-.373.395-.56.933-.56 1.616s.187 1.221.56 1.616a1.87 1.87 0 0 0 1.392.592 1.87 1.87 0 0 0 1.392-.592c.384-.405.576-.949.576-1.632zm3.675 0c0-.917.171-1.723.512-2.416.352-.693.827-1.227 1.424-1.6a3.701 3.701 0 0 1 2-.56c.63 0 1.179.128 1.648.384.48.256.848.592 1.104 1.008v-1.264h2.736V103h-2.736v-1.264c-.266.416-.64.752-1.12 1.008-.469.256-1.018.384-1.648.384a3.674 3.674 0 0 1-1.984-.56c-.597-.384-1.072-.923-1.424-1.616-.341-.704-.512-1.515-.512-2.432zm6.688.016c0-.683-.192-1.221-.576-1.616a1.818 1.818 0 0 0-1.376-.592 1.87 1.87 0 0 0-1.392.592c-.373.384-.56.917-.56 1.6s.187 1.227.56 1.632a1.87 1.87 0 0 0 1.392.592c.544 0 1.003-.197 1.376-.592.384-.395.576-.933.576-1.616zm8.348 4.592c-.779 0-1.472-.133-2.08-.4-.608-.267-1.088-.629-1.44-1.088a2.918 2.918 0 0 1-.592-1.568h2.704c.032.309.176.56.432.752.256.192.57.288.944.288.341 0 .602-.064.784-.192.192-.139.288-.315.288-.528 0-.256-.134-.443-.4-.56-.267-.128-.699-.267-1.296-.416a13.088 13.088 0 0 1-1.6-.464 2.871 2.871 0 0 1-1.104-.784c-.31-.363-.464-.848-.464-1.456 0-.512.138-.976.416-1.392.288-.427.704-.763 1.248-1.008.554-.245 1.21-.368 1.968-.368 1.12 0 2 .277 2.64.832.65.555 1.024 1.291 1.12 2.208h-2.528a1.082 1.082 0 0 0-.416-.736c-.224-.181-.523-.272-.896-.272-.32 0-.566.064-.736.192a.567.567 0 0 0-.256.496c0 .256.133.448.4.576.277.128.704.256 1.28.384.661.171 1.2.341 1.616.512.416.16.778.427 1.088.8.32.363.485.853.496 1.472 0 .523-.15.992-.448 1.408-.288.405-.71.725-1.264.96-.544.235-1.179.352-1.904.352zm13.705-4.736c0 .256-.015.523-.047.8h-6.192c.042.555.218.981.528 1.28.32.288.709.432 1.168.432.682 0 1.157-.288 1.424-.864h2.912a3.957 3.957 0 0 1-.816 1.584c-.384.469-.87.837-1.456 1.104-.587.267-1.243.4-1.968.4-.875 0-1.654-.187-2.336-.56a3.981 3.981 0 0 1-1.6-1.6c-.384-.693-.576-1.504-.576-2.432 0-.928.186-1.739.56-2.432a3.981 3.981 0 0 1 1.6-1.6c.682-.373 1.466-.56 2.352-.56.864 0 1.632.181 2.304.544a3.86 3.86 0 0 1 1.568 1.552c.384.672.575 1.456.575 2.352zm-2.799-.72c0-.469-.16-.843-.48-1.12-.32-.277-.72-.416-1.2-.416-.459 0-.848.133-1.168.4-.31.267-.502.645-.576 1.136zm3.699.848c0-.917.171-1.723.512-2.416.352-.693.827-1.227 1.424-1.6a3.699 3.699 0 0 1 2-.56c.587 0 1.12.123 1.6.368a2.91 2.91 0 0 1 1.152.992V91.16h2.736V103h-2.736v-1.28a2.772 2.772 0 0 1-1.104 1.024c-.469.256-1.019.384-1.648.384a3.699 3.699 0 0 1-2-.56c-.597-.384-1.072-.923-1.424-1.616-.341-.704-.512-1.515-.512-2.432zm6.688.016c0-.683-.192-1.221-.576-1.616a1.818 1.818 0 0 0-1.376-.592 1.87 1.87 0 0 0-1.392.592c-.373.384-.56.917-.56 1.6s.187 1.227.56 1.632a1.87 1.87 0 0 0 1.392.592c.544 0 1.003-.197 1.376-.592.384-.395.576-.933.576-1.616zm12.17 4.592c-.875 0-1.664-.187-2.368-.56a4.168 4.168 0 0 1-1.648-1.6c-.395-.693-.592-1.504-.592-2.432 0-.917.203-1.723.608-2.416a4.107 4.107 0 0 1 1.664-1.616c.704-.373 1.493-.56 2.368-.56.875 0 1.664.187 2.368.56a4.107 4.107 0 0 1 1.664 1.616c.405.693.608 1.499.608 2.416 0 .917-.208 1.728-.624 2.432a4.11 4.11 0 0 1-1.68 1.6c-.704.373-1.493.56-2.368.56zm0-2.368c.523 0 .965-.192 1.328-.576.373-.384.56-.933.56-1.648 0-.715-.181-1.264-.544-1.648a1.707 1.707 0 0 0-1.312-.576c-.533 0-.976.192-1.328.576-.352.373-.528.923-.528 1.648 0 .715.171 1.264.512 1.648.352.384.789.576 1.312.576zm11.563-6.784c1.046 0 1.878.341 2.496 1.024.63.672.944 1.6.944 2.784V103h-2.72v-4.848c0-.597-.154-1.061-.464-1.392-.309-.331-.725-.496-1.248-.496-.522 0-.938.165-1.248.496-.309.331-.464.795-.464 1.392V103h-2.736v-8.928h2.736v1.184a2.828 2.828 0 0 1 1.12-.928c.47-.235.998-.352 1.584-.352zm11.468-.016v2.272h3.664v2.112h-3.664v2.464h4.144V103h-6.88V91.768h6.88v2.192zm8.657-2.8V103h-2.736V91.16Zm3.358 1.984c-.48 0-.874-.139-1.184-.416a1.413 1.413 0 0 1-.448-1.056c0-.427.15-.779.448-1.056.31-.288.704-.432 1.184-.432.47 0 .854.144 1.152.432.31.277.464.629.464 1.056 0 .416-.154.768-.464 1.056-.298.277-.682.416-1.152.416zm1.36.928V103h-2.736v-8.928zm5.375-.128c.629 0 1.179.128 1.648.384.48.256.848.592 1.104 1.008v-1.264h2.736v8.912c0 .821-.165 1.563-.496 2.224a3.648 3.648 0 0 1-1.488 1.6c-.661.395-1.488.592-2.48.592-1.323 0-2.395-.315-3.216-.944-.821-.619-1.291-1.461-1.408-2.528h2.704c.085.341.288.608.608.8.32.203.715.304 1.184.304.565 0 1.013-.165 1.344-.496.341-.32.512-.837.512-1.552v-1.264a3.11 3.11 0 0 1-1.104 1.024c-.469.256-1.019.384-1.648.384a3.699 3.699 0 0 1-2-.56c-.597-.384-1.072-.923-1.424-1.616-.341-.704-.512-1.515-.512-2.432s.171-1.723.512-2.416c.352-.693.827-1.227 1.424-1.6a3.699 3.699 0 0 1 2-.56zm2.752 4.592c0-.683-.192-1.221-.576-1.616a1.818 1.818 0 0 0-1.376-.592 1.87 1.87 0 0 0-1.392.592c-.373.384-.56.917-.56 1.6s.187 1.227.56 1.632a1.87 1.87 0 0 0 1.392.592c.544 0 1.003-.197 1.376-.592.384-.395.576-.933.576-1.616zm6.091-5.392c-.48 0-.874-.139-1.184-.416a1.413 1.413 0 0 1-.448-1.056c0-.427.15-.779.448-1.056.31-.288.704-.432 1.184-.432.47 0 .854.144 1.152.432.31.277.464.629.464 1.056 0 .416-.154.768-.464 1.056-.298.277-.682.416-1.152.416zm1.36.928V103h-2.736v-8.928zm4.719 1.264c.256-.416.624-.752 1.104-1.008.48-.256 1.029-.384 1.648-.384.736 0 1.403.187 2 .56.597.373 1.067.907 1.408 1.6.352.693.528 1.499.528 2.416 0 .917-.176 1.728-.528 2.432-.341.693-.811 1.232-1.408 1.616a3.699 3.699 0 0 1-2 .56c-.629 0-1.179-.123-1.648-.368a2.975 2.975 0 0 1-1.104-1.008V103h-2.736V91.16h2.736zm3.904 3.184c0-.683-.192-1.216-.576-1.6a1.836 1.836 0 0 0-1.392-.592 1.87 1.87 0 0 0-1.392.592c-.373.395-.56.933-.56 1.616s.187 1.221.56 1.616a1.87 1.87 0 0 0 1.392.592 1.87 1.87 0 0 0 1.392-.592c.384-.405.576-.949.576-1.632zm5.596-5.376c-.48 0-.875-.139-1.184-.416a1.41 1.41 0 0 1-.448-1.056c0-.427.149-.779.448-1.056.309-.288.704-.432 1.184-.432.469 0 .853.144 1.152.432.309.277.464.629.464 1.056 0 .416-.155.768-.464 1.056-.299.277-.683.416-1.152.416zm1.36.928V103h-2.736v-8.928zm4.718-2.912V103h-2.736V91.16Zm3.359 1.984c-.48 0-.875-.139-1.184-.416a1.41 1.41 0 0 1-.448-1.056c0-.427.149-.779.448-1.056.309-.288.704-.432 1.184-.432.469 0 .853.144 1.152.432.309.277.464.629.464 1.056 0 .416-.155.768-.464 1.056-.299.277-.683.416-1.152.416zm1.36.928V103h-2.736v-8.928zm6.959 6.608V103h-1.392c-.992 0-1.766-.24-2.32-.72-.555-.491-.832-1.285-.832-2.384v-3.552h-1.088v-2.272h1.088v-2.176h2.736v2.176h1.792v2.272h-1.792v3.584c0 .267.064.459.192.576.128.117.341.176.64.176zm10.644-6.608-5.6 13.168h-2.944l2.048-4.544-3.632-8.624h3.056l2.064 5.584 2.048-5.584zm.253 12.272v-.256c1.067-1.109 1.893-2.421 2.48-3.936.587-1.515.88-3.088.88-4.72 0-1.643-.304-3.237-.912-4.784-.608-1.557-1.472-2.891-2.592-4v-.256h2.688c1.099 1.003 1.947 2.304 2.544 3.904.597 1.589.896 3.301.896 5.136 0 1.813-.288 3.504-.864 5.072-.576 1.568-1.381 2.848-2.416 3.84z"/>
  <path id="rect25" fill="#fff" d="M274 277h134v42H274z"/>
  <path id="path26" fill="#242527" d="M293.033 304.112c-.822 0-1.558-.133-2.208-.4-.651-.267-1.174-.661-1.568-1.184-.384-.523-.587-1.152-.608-1.888h2.912c.042.416.186.736.432.96.245.213.565.32.96.32.405 0 .725-.091.96-.272.234-.192.352-.453.352-.784a.906.906 0 0 0-.288-.688 2.147 2.147 0 0 0-.688-.448 10.447 10.447 0 0 0-1.152-.4c-.726-.224-1.318-.448-1.776-.672a3.277 3.277 0 0 1-1.184-.992c-.331-.437-.496-1.008-.496-1.712 0-1.045.378-1.861 1.136-2.448.757-.597 1.744-.896 2.96-.896 1.237 0 2.234.299 2.992.896.757.587 1.162 1.408 1.216 2.464h-2.96c-.022-.363-.155-.645-.4-.848-.246-.213-.56-.32-.944-.32-.331 0-.598.091-.8.272-.203.171-.304.421-.304.752 0 .363.17.645.512.848.341.203.874.421 1.6.656.725.245 1.312.48 1.76.704a3.35 3.35 0 0 1 1.184.976c.33.427.496.976.496 1.648 0 .64-.166 1.221-.496 1.744-.32.523-.79.939-1.408 1.248-.619.309-1.35.464-2.192.464zm10.755-2.432V304h-1.392c-.992 0-1.765-.24-2.32-.72-.554-.491-.832-1.285-.832-2.384v-3.552h-1.088v-2.272h1.088v-2.176h2.736v2.176h1.792v2.272h-1.792v3.584c0 .267.064.459.192.576.128.117.342.176.64.176zm.98-2.16c0-.917.171-1.723.512-2.416.352-.693.827-1.227 1.424-1.6a3.701 3.701 0 0 1 2-.56c.63 0 1.179.128 1.648.384.48.256.848.592 1.104 1.008v-1.264h2.736V304h-2.736v-1.264c-.266.416-.64.752-1.12 1.008-.469.256-1.018.384-1.648.384a3.674 3.674 0 0 1-1.984-.56c-.597-.384-1.072-.923-1.424-1.616-.341-.704-.512-1.515-.512-2.432zm6.688.016c0-.683-.192-1.221-.576-1.616a1.818 1.818 0 0 0-1.376-.592 1.87 1.87 0 0 0-1.392.592c-.373.384-.56.917-.56 1.6s.187 1.227.56 1.632a1.87 1.87 0 0 0 1.392.592c.544 0 1.003-.197 1.376-.592.384-.395.576-.933.576-1.616zm9.692 2.144V304h-1.392c-.992 0-1.766-.24-2.32-.72-.555-.491-.832-1.285-.832-2.384v-3.552h-1.088v-2.272h1.088v-2.176h2.736v2.176h1.792v2.272h-1.792v3.584c0 .267.064.459.192.576.128.117.341.176.64.176zm9.94-2.288c0 .256-.016.523-.048.8h-6.192c.042.555.218.981.528 1.28.32.288.709.432 1.168.432.682 0 1.157-.288 1.424-.864h2.912a3.957 3.957 0 0 1-.816 1.584c-.384.469-.87.837-1.456 1.104-.587.267-1.243.4-1.968.4-.875 0-1.654-.187-2.336-.56a3.981 3.981 0 0 1-1.6-1.6c-.384-.693-.576-1.504-.576-2.432 0-.928.186-1.739.56-2.432a3.981 3.981 0 0 1 1.6-1.6c.682-.373 1.466-.56 2.352-.56.864 0 1.632.181 2.304.544a3.86 3.86 0 0 1 1.568 1.552c.384.672.576 1.456.576 2.352zm-2.8-.72c0-.469-.16-.843-.48-1.12-.32-.277-.72-.416-1.2-.416-.459 0-.848.133-1.168.4-.31.267-.502.645-.576 1.136zm15.714-5.904v2.192h-2.976V304h-2.736v-9.04h-2.976v-2.192zm5.437 11.36c-.875 0-1.664-.187-2.368-.56a4.162 4.162 0 0 1-1.648-1.6c-.395-.693-.592-1.504-.592-2.432 0-.917.202-1.723.608-2.416a4.107 4.107 0 0 1 1.664-1.616c.704-.373 1.493-.56 2.368-.56.874 0 1.664.187 2.368.56a4.113 4.113 0 0 1 1.664 1.616c.405.693.608 1.499.608 2.416 0 .917-.208 1.728-.624 2.432a4.123 4.123 0 0 1-1.68 1.6c-.704.373-1.494.56-2.368.56zm0-2.368c.522 0 .965-.192 1.328-.576.373-.384.56-.933.56-1.648 0-.715-.182-1.264-.544-1.648a1.708 1.708 0 0 0-1.312-.576c-.534 0-.976.192-1.328.576-.352.373-.528.923-.528 1.648 0 .715.17 1.264.512 1.648.352.384.789.576 1.312.576zm11.579 2.24-2.72-3.744V304h-2.736v-11.84h2.736v6.544l2.704-3.632h3.376l-3.712 4.48L364.41 304zm12.851-4.608c0 .256-.016.523-.048.8h-6.192c.043.555.219.981.528 1.28.32.288.709.432 1.168.432.683 0 1.157-.288 1.424-.864h2.912a3.932 3.932 0 0 1-.816 1.584 3.976 3.976 0 0 1-1.456 1.104c-.587.267-1.243.4-1.968.4-.875 0-1.653-.187-2.336-.56a3.981 3.981 0 0 1-1.6-1.6c-.384-.693-.576-1.504-.576-2.432 0-.928.187-1.739.56-2.432a3.981 3.981 0 0 1 1.6-1.6c.683-.373 1.467-.56 2.352-.56.864 0 1.632.181 2.304.544.672.363 1.195.88 1.568 1.552.384.672.576 1.456.576 2.352zm-2.8-.72c0-.469-.16-.843-.48-1.12-.32-.277-.72-.416-1.2-.416-.459 0-.848.133-1.168.4-.309.267-.501.645-.576 1.136zm9.683-3.696c1.046 0 1.878.341 2.496 1.024.63.672.944 1.6.944 2.784V304h-2.72v-4.848c0-.597-.154-1.061-.464-1.392-.309-.331-.725-.496-1.248-.496-.522 0-.938.165-1.248.496-.309.331-.464.795-.464 1.392V304h-2.736v-8.928h2.736v1.184a2.828 2.828 0 0 1 1.12-.928c.47-.235.998-.352 1.584-.352zm8.974 9.152c-.779 0-1.472-.133-2.08-.4-.608-.267-1.088-.629-1.44-1.088a2.918 2.918 0 0 1-.592-1.568h2.704c.032.309.176.56.432.752.256.192.57.288.944.288.341 0 .602-.064.784-.192.192-.139.288-.315.288-.528 0-.256-.134-.443-.4-.56-.267-.128-.699-.267-1.296-.416a13.088 13.088 0 0 1-1.6-.464 2.871 2.871 0 0 1-1.104-.784c-.31-.363-.464-.848-.464-1.456 0-.512.138-.976.416-1.392.288-.427.704-.763 1.248-1.008.554-.245 1.21-.368 1.968-.368 1.12 0 2 .277 2.64.832.65.555 1.024 1.291 1.12 2.208h-2.528a1.082 1.082 0 0 0-.416-.736c-.224-.181-.523-.272-.896-.272-.32 0-.566.064-.736.192a.567.567 0 0 0-.256.496c0 .256.133.448.4.576.277.128.704.256 1.28.384.661.171 1.2.341 1.616.512.416.16.778.427 1.088.8.32.363.485.853.496 1.472 0 .523-.15.992-.448 1.408-.288.405-.71.725-1.264.96-.544.235-1.179.352-1.904.352z"/>
  <g id="g36" filter="url(#filter2_d_2321_2764)" transform="translate(-264 -306)">
    <g id="g35" filter="url(#filter3_d_2321_2764)">
      <rect id="rect26" width="283" height="128" x="1019" y="535" fill="#fff" rx="10" ry="10"/>
      <rect id="rect27" width="280" height="125" x="1020.5" y="536.5" stroke="#331e49" stroke-linecap="round" stroke-width="3" rx="8.5" ry="8.5"/>
      <path id="path27" fill="#fff" d="m1083.93 603.203-5.13-5.138c-4.67-4.666-12.26-4.666-16.93 0l-13.23 13.233c-4.66 4.666-4.66 12.258 0 16.924l5.14 5.138c4.66 4.665 12.26 4.665 16.92 0l8.67-8.666 4.56-4.567a11.835 11.835 0 0 0 3.05-5.183c1.14-4.039.13-8.567-3.05-11.741zm-4.27 12.653-6.54 6.548-6.69 6.686a5.933 5.933 0 0 1-8.38 0l-5.14-5.139a5.935 5.935 0 0 1 0-8.382l13.23-13.234c2.32-2.311 6.08-2.311 8.39 0l5.13 5.139a5.906 5.906 0 0 1 1.4 6.163 5.811 5.811 0 0 1-1.4 2.219z"/>
      <path id="path28" fill="#fff" d="m1082.06 594.797 5.14 5.138c4.67 4.666 12.26 4.666 16.93 0l13.23-13.233c4.66-4.666 4.66-12.258 0-16.924l-5.14-5.138c-4.66-4.665-12.26-4.665-16.92 0l-8.67 8.666-4.57 4.567a11.91 11.91 0 0 0-3.04 5.183c-1.14 4.04-.13 8.567 3.04 11.741zm4.27-12.653 6.55-6.548 6.69-6.686a5.933 5.933 0 0 1 8.38 0l5.14 5.139a5.935 5.935 0 0 1 0 8.382l-13.23 13.234c-2.32 2.311-6.08 2.311-8.39 0l-5.14-5.139a5.922 5.922 0 0 1-1.39-6.163c.28-.811.75-1.571 1.39-2.219z"/>
      <path id="path29" fill="#fff" d="M1083 618.828c10.95 0 19.83-8.877 19.83-19.828 0-10.951-8.88-19.828-19.83-19.828-10.95 0-19.83 8.877-19.83 19.828 0 10.951 8.88 19.828 19.83 19.828z"/>
      <path id="path30" fill="#fff" d="M1083.25 614.121c2.16.477 3.09 3.034 1.75 4.793-.33.422-.68.827-1.06 1.213l-4.57 4.567-6.25-2.29 6.54-6.548c.2-.196.38-.403.54-.619a3.016 3.016 0 0 1 3.05-1.116z"/>
      <path id="path31" fill="#fff" d="M1083.25 614.121c2.16.477 3.09 3.034 1.75 4.793-.33.422-.68.827-1.06 1.213l-4.57 4.567-1.68-2.972-4.57.682 6.54-6.548c.2-.196.38-.403.54-.619a3.016 3.016 0 0 1 3.05-1.116z"/>
      <path id="path32" fill="#fff" d="M1082.75 583.879c-2.16-.477-3.09-3.033-1.75-4.792.32-.422.68-.828 1.06-1.213l4.57-4.567 1.45 2.319 4.8-.03-6.55 6.548c-.19.197-.37.404-.53.619a3.012 3.012 0 0 1-3.05 1.116z"/>
      <path id="path33" fill="#242527" d="m1118.17 568.97-5.14-5.138c-5.11-5.109-13.43-5.109-18.54 0l-13.23 13.233c-.09.102-.23.184-1.03 1.149a21.016 21.016 0 0 0-12.06 5.957 20.927 20.927 0 0 0-5.95 12.058c-.4.32-.79.664-1.15 1.028l-13.24 13.234c-5.11 5.111-5.11 13.427 0 18.539l5.14 5.139a13.076 13.076 0 0 0 9.27 3.831c3.36 0 6.71-1.277 9.27-3.831.45-.446.45-1.17 0-1.616a1.147 1.147 0 0 0-1.62 0 10.783 10.783 0 0 1-7.65 3.163c-2.77 0-5.54-1.055-7.65-3.163l-5.14-5.139c-4.22-4.221-4.22-11.088 0-15.307l12.6-12.598c.03 1.571.25 3.138.63 4.669l-10.58 10.583c-2.75 2.755-2.75 7.24 0 9.999l5.14 5.139a7.056 7.056 0 0 0 5 2.065c1.81 0 3.62-.688 5-2.066 0 0 13.68-13.714 13.88-13.972.74-1.044 2.72-.953 3.24.495.34 1.125-.25 1.942-1.23 2.897l-9.46 9.454c-.44.446-3.77 3.75-4.23 4.207.22.223 1.45 1.441 1.6 1.635.38-.381 4.03-4.003 4.25-4.226l4.88-4.882c0-.002 0-.003.01-.004l4.56-4.567c.09-.106.22-.166 1.03-1.15a21.004 21.004 0 0 0 12.06-5.957 20.922 20.922 0 0 0 5.95-12.057c.4-.32.79-.664 1.15-1.028l13.24-13.235c5.11-5.109 5.11-13.425 0-18.538zm-45.86 52.626-6.69 6.686a4.785 4.785 0 0 1-6.76 0l-5.14-5.138a4.783 4.783 0 0 1 0-6.767l9.75-9.749a20.914 20.914 0 0 0 4.7 7.201 21.018 21.018 0 0 0 7.2 4.706zm23.9-9.383c-2.63 2.629-5.87 4.367-9.45 5.091a4.176 4.176 0 0 0-.25-1.668c-1.03-3.043-5.32-3.643-7.22-1.088-.13.175-2.13 2.202-2.13 2.202a18.707 18.707 0 0 1-7.37-4.537c-7.29-7.286-7.29-19.14 0-26.425 2.63-2.63 5.87-4.368 9.45-5.092-.03.558.05 1.124.25 1.668a4.15 4.15 0 0 0 3.01 2.631c1.62.412 3.61-.484 4.64-2.043l6.55-6.548 6.69-6.686a4.785 4.785 0 0 1 6.76 0l5.14 5.138a4.783 4.783 0 0 1 0 6.767l-9.75 9.75a20.914 20.914 0 0 0-4.7-7.201c-1.11-1.108-5.75-3.767-7.06-4.596-.53-.336-2.48 0-2.82.533-.34.534 1.91 1.448 2.36 1.676.46.229 4.91 3.015 5.9 4.003 7.29 7.285 7.29 19.139 0 26.425zm20.34-26.32-12.6 12.598a21.073 21.073 0 0 0-.63-4.669l10.58-10.583c2.75-2.755 2.75-7.24 0-9.998l-5.14-5.139a7.084 7.084 0 0 0-10 0l-13.23 13.235c-.46.546-1.38 1.747-2.54 1.426a1.838 1.838 0 0 1-1.35-1.184c-.34-1.124.25-1.945 1.23-2.897l13.24-13.234c4.22-4.218 11.08-4.218 15.3 0l5.14 5.138c4.22 4.221 4.22 11.088 0 15.307z"/>
      <path id="path34" fill="#242527" d="M1082.03 609.028v-9.239l-8.09-4.683v9.014a.383.383 0 0 0 .2.336zm1.94 0 7.89-4.572a.383.383 0 0 0 .2-.336v-9.014l-8.09 4.683zm-2.14 2.117-8.66-4.985a2.244 2.244 0 0 1-.86-.85 2.257 2.257 0 0 1-.31-1.17v-9.816c0-.424.1-.814.31-1.169.2-.356.49-.639.86-.851l8.66-4.985a2.31 2.31 0 0 1 2.34 0l8.66 4.985c.37.212.66.495.86.851.21.355.31.745.31 1.169v9.816c0 .424-.1.814-.31 1.17-.2.355-.49.638-.86.85l-8.66 4.985a2.31 2.31 0 0 1-2.34 0zm6.16-15.925 3-1.722-7.79-4.507a.38.38 0 0 0-.2-.062.38.38 0 0 0-.2.062l-2.81 1.618zm-4.99 2.897 3.01-1.742-7.99-4.619-3.01 1.742z"/>
      <path id="path35" fill="#242527" d="M1143.65 605.112c-1.06 0-2.03-.245-2.91-.736a5.549 5.549 0 0 1-2.1-2.048c-.51-.885-.77-1.877-.77-2.976s.26-2.085.77-2.96a5.549 5.549 0 0 1 2.1-2.048c.88-.491 1.85-.736 2.91-.736 1.05 0 2.02.245 2.89.736a5.293 5.293 0 0 1 2.08 2.048c.52.875.77 1.861.77 2.96s-.25 2.091-.77 2.976a5.427 5.427 0 0 1-2.08 2.048c-.87.491-1.84.736-2.89.736zm0-2.496c.89 0 1.61-.299 2.14-.896.55-.597.82-1.387.82-2.368 0-.992-.27-1.781-.82-2.368-.53-.597-1.25-.896-2.14-.896-.91 0-1.63.293-2.18.88-.53.587-.8 1.381-.8 2.384 0 .992.27 1.787.8 2.384.55.587 1.27.88 2.18.88zm12.7-6.64c1.05 0 1.88.341 2.5 1.024.63.672.94 1.6.94 2.784V605h-2.72v-4.848c0-.597-.15-1.061-.46-1.392-.31-.331-.73-.496-1.25-.496s-.94.165-1.25.496c-.31.331-.46.795-.46 1.392V605h-2.74v-8.928h2.74v1.184c.28-.395.65-.704 1.12-.928.47-.235 1-.352 1.58-.352zm12.23 2.272v2.272h-7.04v-2.272zm1.93 1.12c0-1.109.24-2.096.72-2.96a5.112 5.112 0 0 1 2-2.032c.87-.491 1.84-.736 2.93-.736 1.33 0 2.48.352 3.42 1.056.95.704 1.59 1.664 1.91 2.88h-3.01a2.368 2.368 0 0 0-.96-1.072c-.4-.245-.87-.368-1.39-.368-.84 0-1.53.293-2.05.88-.52.587-.78 1.371-.78 2.352 0 .981.26 1.765.78 2.352s1.21.88 2.05.88c.52 0 .99-.123 1.39-.368.42-.245.74-.603.96-1.072h3.01c-.32 1.216-.96 2.176-1.91 2.88-.94.693-2.09 1.04-3.42 1.04-1.09 0-2.06-.24-2.93-.72a5.256 5.256 0 0 1-2-2.032c-.48-.864-.72-1.851-.72-2.96zm18.14-3.392c1.03 0 1.85.341 2.47 1.024.61.672.92 1.6.92 2.784V605h-2.72v-4.848c0-.597-.15-1.061-.46-1.392-.31-.331-.73-.496-1.25-.496s-.94.165-1.25.496c-.31.331-.46.795-.46 1.392V605h-2.74v-11.84h2.74v4.112c.28-.395.66-.709 1.14-.944a3.592 3.592 0 0 1 1.61-.352zm4.75 4.544c0-.917.17-1.723.51-2.416.36-.693.83-1.227 1.43-1.6.59-.373 1.26-.56 2-.56.63 0 1.18.128 1.65.384.48.256.84.592 1.1 1.008v-1.264h2.74V605h-2.74v-1.264c-.27.416-.64.752-1.12 1.008-.47.256-1.02.384-1.65.384-.72 0-1.39-.187-1.98-.56-.6-.384-1.07-.923-1.43-1.616-.34-.704-.51-1.515-.51-2.432zm6.69.016c0-.683-.19-1.221-.58-1.616a1.807 1.807 0 0 0-1.37-.592c-.55 0-1.01.197-1.39.592-.38.384-.56.917-.56 1.6s.18 1.227.56 1.632c.38.395.84.592 1.39.592.54 0 1-.197 1.37-.592.39-.395.58-.933.58-1.616zm6.09-5.392c-.48 0-.87-.139-1.18-.416-.3-.288-.45-.64-.45-1.056 0-.427.15-.779.45-1.056.31-.288.7-.432 1.18-.432.47 0 .85.144 1.15.432.31.277.47.629.47 1.056 0 .416-.16.768-.47 1.056-.3.277-.68.416-1.15.416zm1.36.928V605h-2.74v-8.928zm7.42-.096c1.05 0 1.88.341 2.5 1.024.63.672.94 1.6.94 2.784V605h-2.72v-4.848c0-.597-.15-1.061-.46-1.392-.31-.331-.73-.496-1.25-.496s-.94.165-1.25.496c-.31.331-.46.795-.46 1.392V605h-2.74v-8.928h2.74v1.184c.28-.395.65-.704 1.12-.928.47-.235 1-.352 1.58-.352zm15.54 3.264a2.57 2.57 0 0 1 1.56.976c.4.501.6 1.077.6 1.728 0 .939-.34 1.685-1 2.24-.65.544-1.56.816-2.73.816h-5.23v-11.232h5.05c1.14 0 2.03.261 2.67.784.65.523.98 1.232.98 2.128 0 .661-.18 1.211-.53 1.648-.34.437-.8.741-1.37.912zm-4.07-.928h1.79c.45 0 .79-.096 1.03-.288.24-.203.37-.496.37-.88s-.13-.677-.37-.88c-.24-.203-.58-.304-1.03-.304h-1.79zm2.02 4.48c.46 0 .81-.101 1.05-.304.26-.213.39-.517.39-.912s-.14-.704-.4-.928c-.26-.224-.62-.336-1.07-.336h-1.99v2.48zm8.53-9.632V605h-2.74v-11.84zm6.04 11.968c-.87 0-1.66-.187-2.36-.56a4.097 4.097 0 0 1-1.65-1.6c-.4-.693-.59-1.504-.59-2.432 0-.917.2-1.723.6-2.416.41-.704.96-1.243 1.67-1.616.7-.373 1.49-.56 2.37-.56.87 0 1.66.187 2.36.56.71.373 1.26.912 1.67 1.616.4.693.61 1.499.61 2.416 0 .917-.21 1.728-.63 2.432a4.05 4.05 0 0 1-1.68 1.6c-.7.373-1.49.56-2.37.56zm0-2.368c.53 0 .97-.192 1.33-.576.38-.384.56-.933.56-1.648 0-.715-.18-1.264-.54-1.648a1.704 1.704 0 0 0-1.31-.576c-.54 0-.98.192-1.33.576-.35.373-.53.923-.53 1.648 0 .715.17 1.264.51 1.648.35.384.79.576 1.31.576zm5.58-2.224c0-.928.19-1.739.56-2.432.39-.693.92-1.227 1.59-1.6.68-.373 1.46-.56 2.33-.56 1.12 0 2.06.293 2.8.88.76.587 1.26 1.413 1.49 2.48h-2.91c-.25-.683-.72-1.024-1.42-1.024-.51 0-.91.197-1.2.592-.3.384-.45.939-.45 1.664s.15 1.285.45 1.68c.29.384.69.576 1.2.576.7 0 1.17-.341 1.42-1.024h2.91c-.23 1.045-.73 1.867-1.49 2.464-.75.597-1.69.896-2.8.896-.87 0-1.65-.187-2.33-.56a4.078 4.078 0 0 1-1.59-1.6c-.37-.693-.56-1.504-.56-2.432zm15.69 4.464-2.72-3.744V605h-2.73v-11.84h2.73v6.544l2.71-3.632h3.37l-3.71 4.48 3.74 4.448zm8.07.128c-.78 0-1.47-.133-2.08-.4-.61-.267-1.09-.629-1.44-1.088a2.915 2.915 0 0 1-.59-1.568h2.7c.03.309.18.56.43.752.26.192.57.288.95.288.34 0 .6-.064.78-.192.19-.139.29-.315.29-.528 0-.256-.13-.443-.4-.56-.27-.128-.7-.267-1.3-.416-.64-.149-1.17-.304-1.6-.464a2.919 2.919 0 0 1-1.1-.784c-.31-.363-.47-.848-.47-1.456 0-.512.14-.976.42-1.392.29-.427.7-.763 1.25-1.008s1.21-.368 1.97-.368c1.12 0 2 .277 2.64.832.65.555 1.02 1.291 1.12 2.208h-2.53a1.054 1.054 0 0 0-.42-.736c-.22-.181-.52-.272-.89-.272-.32 0-.57.064-.74.192a.572.572 0 0 0-.26.496c0 .256.14.448.4.576.28.128.71.256 1.28.384.67.171 1.2.341 1.62.512.42.16.78.427 1.09.8.32.363.48.853.49 1.472 0 .523-.14.992-.44 1.408-.29.405-.71.725-1.27.96-.54.235-1.18.352-1.9.352z"/>
    </g>
  </g>
  <g id="g50" filter="url(#filter4_d_2321_2764)" transform="translate(-264 -306)">
    <g id="g49" filter="url(#filter5_d_2321_2764)">
      <rect id="rect36" width="184" height="159" x="269" y="535" fill="#fff" rx="10" ry="10"/>
      <rect id="rect37" width="181" height="156" x="270.5" y="536.5" stroke="#331e49" stroke-linecap="round" stroke-width="3" rx="8.5" ry="8.5"/>
      <path id="path37" fill="#bc86b7" d="M390.923 579.574a3.152 3.152 0 0 0 3.144-3.162 3.153 3.153 0 0 0-3.144-3.162 3.153 3.153 0 0 0-3.143 3.162 3.152 3.152 0 0 0 3.143 3.162z"/>
      <path id="path38" fill="#bc86b7" d="M329.724 579.574a3.152 3.152 0 0 0 3.143-3.162 3.153 3.153 0 0 0-3.143-3.162 3.153 3.153 0 0 0-3.144 3.162 3.153 3.153 0 0 0 3.144 3.162z"/>
      <path id="path39" fill="#bc86b7" d="M345.553 612.033c3.806 0 6.89-3.103 6.89-6.931 0-3.827-3.084-6.93-6.89-6.93-3.805 0-6.89 3.103-6.89 6.93 0 3.828 3.085 6.931 6.89 6.931z"/>
      <path id="path40" fill="#bc86b7" d="M325.686 608.438a3.154 3.154 0 0 0 3.144-3.163 3.153 3.153 0 0 0-3.144-3.162 3.153 3.153 0 0 0-3.144 3.162 3.154 3.154 0 0 0 3.144 3.163z"/>
      <path id="path41" fill="#bc86b7" d="M330.098 624.079a3.153 3.153 0 0 0 3.144-3.162 3.153 3.153 0 0 0-3.144-3.162 3.153 3.153 0 0 0-3.143 3.162 3.153 3.153 0 0 0 3.143 3.162z"/>
      <path id="path42" fill="#bc86b7" d="M345.033 628.253a3.153 3.153 0 0 0 3.143-3.162 3.152 3.152 0 0 0-3.143-3.162 3.153 3.153 0 0 0-3.144 3.162 3.153 3.153 0 0 0 3.144 3.162z"/>
      <path id="path43" fill="#bc86b7" d="M375.247 612.033c3.805 0 6.89-3.103 6.89-6.931 0-3.827-3.085-6.93-6.89-6.93-3.805 0-6.89 3.103-6.89 6.93 0 3.828 3.085 6.931 6.89 6.931z"/>
      <path id="path44" fill="#bc86b7" d="M395.114 608.438a3.153 3.153 0 0 0 3.143-3.163 3.153 3.153 0 0 0-3.143-3.162 3.153 3.153 0 0 0-3.144 3.162 3.154 3.154 0 0 0 3.144 3.163z"/>
      <path id="path45" fill="#bc86b7" d="M390.702 624.079a3.153 3.153 0 0 0 3.143-3.162 3.153 3.153 0 0 0-3.143-3.162 3.153 3.153 0 0 0-3.144 3.162 3.153 3.153 0 0 0 3.144 3.162z"/>
      <path id="path46" fill="#bc86b7" d="M375.768 628.253a3.153 3.153 0 0 0 3.143-3.162 3.152 3.152 0 0 0-3.143-3.162 3.152 3.152 0 0 0-3.144 3.162 3.153 3.153 0 0 0 3.144 3.162z"/>
      <path id="path47" fill="#790e70" d="M360.324 589.275c7.062 0 12.787-5.759 12.787-12.863 0-7.103-5.725-12.862-12.787-12.862-7.063 0-12.788 5.759-12.788 12.862 0 7.104 5.725 12.863 12.788 12.863z"/>
      <path id="path48" fill="#242527" d="M398.144 602.226a4.273 4.273 0 0 0-6.061 0 4.291 4.291 0 0 0-1.096 1.88l-7.759.07a8.091 8.091 0 0 0-.684-2.451 7.997 7.997 0 0 0-4.511-4.201 7.95 7.95 0 0 0-5.116-.15l-4.677-10.579c-.246-.581-1.046-.91-1.659-.502a11.557 11.557 0 0 1-6.258 1.833c-6.421 0-11.645-5.255-11.645-11.713 0-6.459 5.224-11.713 11.645-11.713 6.421 0 11.645 5.254 11.645 11.713 0 2.299-.661 4.524-1.913 6.435a1.155 1.155 0 0 0 .325 1.593 1.14 1.14 0 0 0 1.583-.328 13.983 13.983 0 0 0 2.238-6.496l12.584-.077c.193.72.569 1.38 1.107 1.921a4.259 4.259 0 0 0 3.031 1.261 4.298 4.298 0 0 0 4.286-4.31 4.297 4.297 0 0 0-1.255-3.048 4.274 4.274 0 0 0-6.062 0 4.289 4.289 0 0 0-1.095 1.877l-12.586.076c-.557-7.216-6.573-12.917-13.888-12.917-7.314 0-13.33 5.701-13.887 12.917l-12.587-.076a4.287 4.287 0 0 0-1.094-1.877 4.274 4.274 0 0 0-6.062 0 4.297 4.297 0 0 0-1.255 3.048 4.298 4.298 0 0 0 4.286 4.31 4.293 4.293 0 0 0 4.138-3.182l12.583.077a14.032 14.032 0 0 0 5.695 10.127l-4.258 9.63a7.948 7.948 0 0 0-5.115.15 7.993 7.993 0 0 0-4.511 4.201 8.122 8.122 0 0 0-.685 2.451l-7.759-.07a4.299 4.299 0 0 0-1.095-1.88 4.274 4.274 0 0 0-6.062 0 4.298 4.298 0 0 0-1.255 3.049c0 1.151.446 2.234 1.255 3.049a4.258 4.258 0 0 0 3.031 1.26c1.098 0 2.195-.42 3.031-1.26.537-.541.913-1.2 1.106-1.919l7.814.071a8.06 8.06 0 0 0 1.646 3.674l-7.091 7.007a4.234 4.234 0 0 0-2.094-.552c-2.364 0-4.286 1.934-4.286 4.311 0 2.378 1.923 4.312 4.286 4.312 2.363 0 4.286-1.934 4.286-4.312 0-.779-.207-1.51-.568-2.141l7.136-7.052a8.014 8.014 0 0 0 2.99 1.295l-.071 7.924a4.298 4.298 0 0 0-3.124 4.149 4.3 4.3 0 0 0 1.255 3.049 4.262 4.262 0 0 0 3.031 1.26 4.26 4.26 0 0 0 3.03-1.26 4.296 4.296 0 0 0 1.256-3.049 4.294 4.294 0 0 0-1.256-3.049 4.25 4.25 0 0 0-1.907-1.11l.08-8.887-.001-.029a1.146 1.146 0 0 0-1.065-1.144 5.765 5.765 0 0 1-5.008-3.765 5.774 5.774 0 0 1 .17-4.421 5.722 5.722 0 0 1 3.228-3.006c2.972-1.106 6.285.427 7.384 3.417.816 2.221.181 4.768-1.581 6.336a1.155 1.155 0 0 0-.099 1.623c.418.476 1.14.52 1.613.099 2.463-2.193 3.351-5.751 2.21-8.855a8.021 8.021 0 0 0-3.134-3.953l4.154-9.397a13.785 13.785 0 0 0 6.217 1.475c2.219 0 4.387-.529 6.341-1.536l4.182 9.458a8.021 8.021 0 0 0-3.134 3.953 8.069 8.069 0 0 0 .237 6.179 7.998 7.998 0 0 0 4.511 4.202 7.964 7.964 0 0 0 2.113.473l.07 7.778a4.25 4.25 0 0 0-1.907 1.11 4.294 4.294 0 0 0-1.256 3.049c0 1.151.446 2.234 1.256 3.048a4.257 4.257 0 0 0 3.03 1.261 4.298 4.298 0 0 0 4.287-4.309 4.294 4.294 0 0 0-1.256-3.049 4.25 4.25 0 0 0-1.869-1.1l-.071-7.927a8.072 8.072 0 0 0 2.989-1.293l7.137 7.053a4.31 4.31 0 0 0-.568 2.141c0 2.377 1.923 4.312 4.286 4.312 2.364 0 4.286-1.935 4.286-4.312 0-2.378-1.922-4.312-4.286-4.312-.76 0-1.474.201-2.094.552l-7.09-7.005a8.042 8.042 0 0 0 1.263-2.247c.172-.468.298-.946.382-1.428l7.814-.071a4.29 4.29 0 0 0 1.106 1.918 4.259 4.259 0 0 0 3.031 1.261 4.298 4.298 0 0 0 4.286-4.31 4.294 4.294 0 0 0-1.256-3.048zm-7.221-27.825a2.007 2.007 0 0 1 2.001 2.011c0 .538-.208 1.043-.586 1.423a1.995 1.995 0 0 1-2.83 0 2.004 2.004 0 0 1-.586-1.423 2.007 2.007 0 0 1 2.001-2.011zm-59.784 3.434c-.78.785-2.05.785-2.83 0a2.004 2.004 0 0 1-.586-1.423 2.003 2.003 0 0 1 2.001-2.011 2.003 2.003 0 0 1 2.001 2.011c0 .538-.208 1.043-.586 1.423zm-4.038 28.863a2.003 2.003 0 0 1-3.416-1.423 2.004 2.004 0 0 1 2.001-2.012 2.004 2.004 0 0 1 2.001 2.012c0 .537-.208 1.043-.586 1.423zm2.997 16.231a2.009 2.009 0 0 1-2.001-2.013 2.01 2.01 0 0 1 2.001-2.012 2.01 2.01 0 0 1 2.001 2.012 2.01 2.01 0 0 1-2.001 2.013zm16.936 2.162c0 .537-.208 1.043-.586 1.423a2.003 2.003 0 0 1-3.416-1.423c0-.538.208-1.043.586-1.423a1.995 1.995 0 0 1 2.83 0c.377.38.586.885.586 1.423zm22.991-17.573a5.778 5.778 0 0 1-.169-4.421c1.099-2.99 4.412-4.523 7.384-3.417a5.722 5.722 0 0 1 3.228 3.006 5.774 5.774 0 0 1 .17 4.421c-1.099 2.99-4.412 4.523-7.385 3.417a5.722 5.722 0 0 1-3.228-3.006zm7.743 17.573c0 .537-.208 1.043-.586 1.423a2.003 2.003 0 0 1-3.416-1.423 2.004 2.004 0 0 1 2.001-2.012 2.004 2.004 0 0 1 2.001 2.012zm14.935-4.175a2.01 2.01 0 0 1-2.001 2.013 2.01 2.01 0 0 1-2.001-2.013 2.01 2.01 0 0 1 2.001-2.012 2.01 2.01 0 0 1 2.001 2.012zm3.826-14.218a1.997 1.997 0 0 1-2.831-.001 2.006 2.006 0 0 1-.585-1.422 2.007 2.007 0 0 1 2.001-2.012 2.004 2.004 0 0 1 2.001 2.012c0 .537-.208 1.043-.586 1.423z"/>
      <path id="path49" fill="#242527" d="M295.005 658.368c0-1.109.24-2.096.72-2.96a5.086 5.086 0 0 1 2-2.032c.864-.491 1.84-.736 2.928-.736 1.333 0 2.474.352 3.424 1.056.949.704 1.584 1.664 1.904 2.88h-3.008a2.414 2.414 0 0 0-.96-1.072 2.641 2.641 0 0 0-1.392-.368c-.843 0-1.526.293-2.048.88-.523.587-.784 1.371-.784 2.352 0 .981.261 1.765.784 2.352.522.587 1.205.88 2.048.88.522 0 .986-.123 1.392-.368.416-.245.736-.603.96-1.072h3.008c-.32 1.216-.955 2.176-1.904 2.88-.95.693-2.091 1.04-3.424 1.04-1.088 0-2.064-.24-2.928-.72a5.23 5.23 0 0 1-2-2.032c-.48-.864-.72-1.851-.72-2.96zm16.715 5.76c-.875 0-1.664-.187-2.368-.56a4.168 4.168 0 0 1-1.648-1.6c-.395-.693-.592-1.504-.592-2.432 0-.917.203-1.723.608-2.416a4.107 4.107 0 0 1 1.664-1.616c.704-.373 1.493-.56 2.368-.56.875 0 1.664.187 2.368.56a4.107 4.107 0 0 1 1.664 1.616c.405.693.608 1.499.608 2.416 0 .917-.208 1.728-.624 2.432a4.11 4.11 0 0 1-1.68 1.6c-.704.373-1.493.56-2.368.56zm0-2.368c.523 0 .965-.192 1.328-.576.373-.384.56-.933.56-1.648 0-.715-.181-1.264-.544-1.648a1.707 1.707 0 0 0-1.312-.576c-.533 0-.976.192-1.328.576-.352.373-.528.923-.528 1.648 0 .715.171 1.264.512 1.648.352.384.789.576 1.312.576zm8.86-9.6V664h-2.736v-11.84zm4.718 0V664h-2.736v-11.84zm1.439 7.36c0-.917.171-1.723.512-2.416.352-.693.827-1.227 1.424-1.6a3.699 3.699 0 0 1 2-.56c.629 0 1.179.128 1.648.384.48.256.848.592 1.104 1.008v-1.264h2.736V664h-2.736v-1.264c-.267.416-.64.752-1.12 1.008-.469.256-1.019.384-1.648.384a3.671 3.671 0 0 1-1.984-.56c-.597-.384-1.072-.923-1.424-1.616-.341-.704-.512-1.515-.512-2.432zm6.688.016c0-.683-.192-1.221-.576-1.616a1.818 1.818 0 0 0-1.376-.592 1.87 1.87 0 0 0-1.392.592c-.373.384-.56.917-.56 1.6s.187 1.227.56 1.632a1.87 1.87 0 0 0 1.392.592c.544 0 1.003-.197 1.376-.592.384-.395.576-.933.576-1.616zm9.691 2.144V664h-1.392c-.992 0-1.765-.24-2.32-.72-.554-.491-.832-1.285-.832-2.384v-3.552h-1.088v-2.272h1.088v-2.176h2.736v2.176h1.792v2.272h-1.792v3.584c0 .267.064.459.192.576.128.117.342.176.64.176zm5.588 2.448c-.874 0-1.664-.187-2.368-.56a4.175 4.175 0 0 1-1.648-1.6c-.394-.693-.592-1.504-.592-2.432 0-.917.203-1.723.608-2.416a4.113 4.113 0 0 1 1.664-1.616c.704-.373 1.494-.56 2.368-.56.875 0 1.664.187 2.368.56a4.107 4.107 0 0 1 1.664 1.616c.406.693.608 1.499.608 2.416 0 .917-.208 1.728-.624 2.432a4.11 4.11 0 0 1-1.68 1.6c-.704.373-1.493.56-2.368.56zm0-2.368c.523 0 .966-.192 1.328-.576.374-.384.56-.933.56-1.648 0-.715-.181-1.264-.544-1.648a1.707 1.707 0 0 0-1.312-.576c-.533 0-.976.192-1.328.576-.352.373-.528.923-.528 1.648 0 .715.171 1.264.512 1.648.352.384.79.576 1.312.576zm8.86-5.2c.32-.491.72-.875 1.2-1.152a3.05 3.05 0 0 1 1.6-.432v2.896h-.752c-.683 0-1.195.149-1.536.448-.341.288-.512.8-.512 1.536V664h-2.736v-8.928h2.736zm11.562 7.552c-.821 0-1.557-.133-2.208-.4a3.66 3.66 0 0 1-1.568-1.184c-.384-.523-.586-1.152-.608-1.888h2.912c.043.416.187.736.432.96.246.213.566.32.96.32.406 0 .726-.091.96-.272.235-.192.352-.453.352-.784a.906.906 0 0 0-.288-.688 2.125 2.125 0 0 0-.688-.448c-.266-.117-.65-.251-1.152-.4-.725-.224-1.317-.448-1.776-.672a3.293 3.293 0 0 1-1.184-.992c-.33-.437-.496-1.008-.496-1.712 0-1.045.379-1.861 1.136-2.448.758-.597 1.744-.896 2.96-.896 1.238 0 2.235.299 2.992.896.758.587 1.163 1.408 1.216 2.464h-2.96c-.021-.363-.154-.645-.4-.848-.245-.213-.56-.32-.944-.32-.33 0-.597.091-.8.272-.202.171-.304.421-.304.752 0 .363.171.645.512.848.342.203.875.421 1.6.656.726.245 1.312.48 1.76.704.459.224.854.549 1.184.976.331.427.496.976.496 1.648 0 .64-.165 1.221-.496 1.744-.32.523-.789.939-1.408 1.248-.618.309-1.349.464-2.192.464zm10.756-2.432V664h-1.392c-.992 0-1.765-.24-2.32-.72-.555-.491-.832-1.285-.832-2.384v-3.552h-1.088v-2.272h1.088v-2.176h2.736v2.176h1.792v2.272h-1.792v3.584c0 .267.064.459.192.576.128.117.341.176.64.176zm.98-2.16c0-.917.171-1.723.512-2.416.352-.693.827-1.227 1.424-1.6a3.699 3.699 0 0 1 2-.56c.629 0 1.179.128 1.648.384.48.256.848.592 1.104 1.008v-1.264h2.736V664h-2.736v-1.264c-.267.416-.64.752-1.12 1.008-.469.256-1.019.384-1.648.384a3.671 3.671 0 0 1-1.984-.56c-.597-.384-1.072-.923-1.424-1.616-.341-.704-.512-1.515-.512-2.432zm6.688.016c0-.683-.192-1.221-.576-1.616a1.818 1.818 0 0 0-1.376-.592 1.87 1.87 0 0 0-1.392.592c-.373.384-.56.917-.56 1.6s.187 1.227.56 1.632a1.87 1.87 0 0 0 1.392.592c.544 0 1.003-.197 1.376-.592.384-.395.576-.933.576-1.616zM397.721 664l-2.72-3.744V664h-2.736v-11.84h2.736v6.544l2.704-3.632h3.376l-3.712 4.48 3.744 4.448zm5.811-9.856c-.48 0-.875-.139-1.184-.416a1.41 1.41 0 0 1-.448-1.056c0-.427.149-.779.448-1.056.309-.288.704-.432 1.184-.432.469 0 .853.144 1.152.432.309.277.464.629.464 1.056 0 .416-.155.768-.464 1.056-.299.277-.683.416-1.152.416zm1.36.928V664h-2.736v-8.928zm7.423-.096c1.045 0 1.877.341 2.496 1.024.629.672.944 1.6.944 2.784V664h-2.72v-4.848c0-.597-.155-1.061-.464-1.392-.31-.331-.726-.496-1.248-.496-.523 0-.939.165-1.248.496-.31.331-.464.795-.464 1.392V664h-2.736v-8.928h2.736v1.184c.277-.395.65-.704 1.12-.928a3.487 3.487 0 0 1 1.584-.352zm8.733-.032c.629 0 1.179.128 1.648.384.48.256.848.592 1.104 1.008v-1.264h2.736v8.912c0 .821-.165 1.563-.496 2.224a3.648 3.648 0 0 1-1.488 1.6c-.661.395-1.488.592-2.48.592-1.323 0-2.395-.315-3.216-.944-.821-.619-1.291-1.461-1.408-2.528h2.704c.085.341.288.608.608.8.32.203.715.304 1.184.304.565 0 1.013-.165 1.344-.496.341-.32.512-.837.512-1.552v-1.264a3.11 3.11 0 0 1-1.104 1.024c-.469.256-1.019.384-1.648.384a3.699 3.699 0 0 1-2-.56c-.597-.384-1.072-.923-1.424-1.616-.341-.704-.512-1.515-.512-2.432s.171-1.723.512-2.416c.352-.693.827-1.227 1.424-1.6a3.699 3.699 0 0 1 2-.56zm2.752 4.592c0-.683-.192-1.221-.576-1.616a1.818 1.818 0 0 0-1.376-.592 1.87 1.87 0 0 0-1.392.592c-.373.384-.56.917-.56 1.6s.187 1.227.56 1.632a1.87 1.87 0 0 0 1.392.592c.544 0 1.003-.197 1.376-.592.384-.395.576-.933.576-1.616z"/>
    </g>
  </g>
  <defs id="defs62">
    <filter id="filter0_d_2321_2764" width="210" height="189" x="667" y="306" color-interpolation-filters="sRGB" filterUnits="userSpaceOnUse">
      <feFlood id="feFlood50" flood-opacity="0" result="BackgroundImageFix"/>
      <feColorMatrix id="feColorMatrix50" in="SourceAlpha" result="hardAlpha" type="matrix" values="0 0 0 0 0 0 0 0 0 0 0 0 0 0 0 0 0 0 127 0"/>
      <feOffset id="feOffset50" dx="10" dy="10"/>
      <feColorMatrix id="feColorMatrix51" type="matrix" values="0 0 0 0 0.19967 0 0 0 0 0.213215 0 0 0 0 0.220833 0 0 0 0.8 0"/>
      <feBlend id="feBlend51" in2="BackgroundImageFix" mode="normal" result="effect1_dropShadow_2321_2764"/>
      <feBlend id="feBlend52" in="SourceGraphic" in2="effect1_dropShadow_2321_2764" mode="normal" result="shape"/>
    </filter>
    <filter id="filter1_d_2321_2764" width="187" height="166" x="672" y="311" color-interpolation-filters="sRGB" filterUnits="userSpaceOnUse">
      <feFlood id="feFlood52" flood-opacity="0" result="BackgroundImageFix"/>
      <feColorMatrix id="feColorMatrix52" in="SourceAlpha" result="hardAlpha" type="matrix" values="0 0 0 0 0 0 0 0 0 0 0 0 0 0 0 0 0 0 127 0"/>
      <feMorphology id="feMorphology52" in="SourceAlpha" operator="erode" radius="3" result="effect1_dropShadow_2321_2764"/>
      <feOffset id="feOffset52" dx="10" dy="10"/>
      <feColorMatrix id="feColorMatrix53" type="matrix" values="0 0 0 0 0.92 0 0 0 0 0.92 0 0 0 0 0.92 0 0 0 1 0"/>
      <feBlend id="feBlend53" in2="BackgroundImageFix" mode="normal" result="effect1_dropShadow_2321_2764"/>
      <feBlend id="feBlend54" in="SourceGraphic" in2="effect1_dropShadow_2321_2764" mode="normal" result="shape"/>
    </filter>
    <filter id="filter2_d_2321_2764" width="313" height="158" x="1014" y="530" color-interpolation-filters="sRGB" filterUnits="userSpaceOnUse">
      <feFlood id="feFlood54" flood-opacity="0" result="BackgroundImageFix"/>
      <feColorMatrix id="feColorMatrix54" in="SourceAlpha" result="hardAlpha" type="matrix" values="0 0 0 0 0 0 0 0 0 0 0 0 0 0 0 0 0 0 127 0"/>
      <feOffset id="feOffset54" dx="10" dy="10"/>
      <feColorMatrix id="feColorMatrix55" type="matrix" values="0 0 0 0 0.19967 0 0 0 0 0.213215 0 0 0 0 0.220833 0 0 0 0.8 0"/>
      <feBlend id="feBlend55" in2="BackgroundImageFix" mode="normal" result="effect1_dropShadow_2321_2764"/>
      <feBlend id="feBlend56" in="SourceGraphic" in2="effect1_dropShadow_2321_2764" mode="normal" result="shape"/>
    </filter>
    <filter id="filter3_d_2321_2764" width="290" height="135" x="1019" y="535" color-interpolation-filters="sRGB" filterUnits="userSpaceOnUse">
      <feFlood id="feFlood56" flood-opacity="0" result="BackgroundImageFix"/>
      <feColorMatrix id="feColorMatrix56" in="SourceAlpha" result="hardAlpha" type="matrix" values="0 0 0 0 0 0 0 0 0 0 0 0 0 0 0 0 0 0 127 0"/>
      <feMorphology id="feMorphology56" in="SourceAlpha" operator="erode" radius="3" result="effect1_dropShadow_2321_2764"/>
      <feOffset id="feOffset56" dx="10" dy="10"/>
      <feColorMatrix id="feColorMatrix57" type="matrix" values="0 0 0 0 0.92 0 0 0 0 0.92 0 0 0 0 0.92 0 0 0 1 0"/>
      <feBlend id="feBlend57" in2="BackgroundImageFix" mode="normal" result="effect1_dropShadow_2321_2764"/>
      <feBlend id="feBlend58" in="SourceGraphic" in2="effect1_dropShadow_2321_2764" mode="normal" result="shape"/>
    </filter>
    <filter id="filter4_d_2321_2764" width="214" height="189" x="264" y="530" color-interpolation-filters="sRGB" filterUnits="userSpaceOnUse">
      <feFlood id="feFlood58" flood-opacity="0" result="BackgroundImageFix"/>
      <feColorMatrix id="feColorMatrix58" in="SourceAlpha" result="hardAlpha" type="matrix" values="0 0 0 0 0 0 0 0 0 0 0 0 0 0 0 0 0 0 127 0"/>
      <feOffset id="feOffset58" dx="10" dy="10"/>
      <feColorMatrix id="feColorMatrix59" type="matrix" values="0 0 0 0 0.19967 0 0 0 0 0.213215 0 0 0 0 0.220833 0 0 0 0.8 0"/>
      <feBlend id="feBlend59" in2="BackgroundImageFix" mode="normal" result="effect1_dropShadow_2321_2764"/>
      <feBlend id="feBlend60" in="SourceGraphic" in2="effect1_dropShadow_2321_2764" mode="normal" result="shape"/>
    </filter>
    <filter id="filter5_d_2321_2764" width="191" height="166" x="269" y="535" color-interpolation-filters="sRGB" filterUnits="userSpaceOnUse">
      <feFlood id="feFlood60" flood-opacity="0" result="BackgroundImageFix"/>
      <feColorMatrix id="feColorMatrix60" in="SourceAlpha" result="hardAlpha" type="matrix" values="0 0 0 0 0 0 0 0 0 0 0 0 0 0 0 0 0 0 127 0"/>
      <feMorphology id="feMorphology60" in="SourceAlpha" operator="erode" radius="3" result="effect1_dropShadow_2321_2764"/>
      <feOffset id="feOffset60" dx="10" dy="10"/>
      <feColorMatrix id="feColorMatrix61" type="matrix" values="0 0 0 0 0.92 0 0 0 0 0.92 0 0 0 0 0.92 0 0 0 1 0"/>
      <feBlend id="feBlend61" in2="BackgroundImageFix" mode="normal" result="effect1_dropShadow_2321_2764"/>
      <feBlend id="feBlend62" in="SourceGraphic" in2="effect1_dropShadow_2321_2764" mode="normal" result="shape"/>
    </filter>
  </defs>
</svg>
