<svg xmlns="http://www.w3.org/2000/svg" id="Layer_2" version="1.1" viewBox="0 0 818 365"><defs id="defs1"><style id="style1">.st3,.st5{stroke-miterlimit:10}.st3{fill:none}.st5{stroke:#ff9a02}.st7,.st8{fill:#fcf3e4}.st7{font-family:Poppins-Bold,Poppins;font-size:14px;font-weight:700}.st3{stroke:#fcf3e4}.st10{fill:#c44bbf}.st5{stroke-width:.75px;fill:#ff9a02}.st12{opacity:.8}.st13{fill:#790e70}.st14{fill:#a7a9ac}</style></defs><g id="g16"><g id="g9" class="st12"><path id="rect1" d="M328.1 89.03h.19v105.02h-.19z" class="st14"/><path id="rect2" d="M343.12 89.03h.19v105.02h-.19z" class="st14"/><path id="rect3" d="M358.13 89.03h.19v105.02h-.19z" class="st14"/><path id="rect4" d="M373.15 89.03h.19v105.02h-.19z" class="st14"/><path id="rect5" d="M388.16 89.03h.19v105.02h-.19z" class="st14"/><path id="rect6" d="M403.18 89.03h.19v105.02h-.19z" class="st14"/><path id="rect7" d="M418.19 89.03h.19v105.02h-.19z" class="st14"/><path id="rect8" d="M433.21 89.03h.19v105.02h-.19z" class="st14"/><path id="rect9" d="M448.22 89.03h.19v105.02h-.19z" class="st14"/></g><g id="g15" class="st12"><path id="rect10" d="M318 104.33h141.12v.19H318z" class="st14"/><path id="rect11" d="M318 119.34h141.12v.19H318z" class="st14"/><path id="rect12" d="M318 134.36h141.12v.19H318z" class="st14"/><path id="rect13" d="M318 149.37h141.12v.19H318z" class="st14"/><path id="rect14" d="M318 164.39h141.12v.19H318z" class="st14"/><path id="rect15" d="M318 179.41h141.12v.19H318z" class="st14"/></g></g><g id="g23"><g id="g18" class="st12"><path id="rect16" d="M683.43 206.02h.19v61h-.19z" class="st14"/><path id="rect17" d="M698.45 206.02h.19v61h-.19z" class="st14"/><path id="rect18" d="M713.46 206.02h.19v61h-.19z" class="st14"/></g><g id="g22" class="st12"><path id="rect19" d="M672 214.76h52.36v.19H672z" class="st14"/><path id="rect20" d="M672 229.77h52.36v.19H672z" class="st14"/><path id="rect21" d="M672 244.79h52.36v.19H672z" class="st14"/><path id="rect22" d="M672 259.81h52.36v.19H672z" class="st14"/></g></g><text id="text23" style="fill:#fcf3e4;font-family:Poppins-Bold,Poppins;font-size:14px;font-weight:700;isolation:isolate" transform="translate(108.53 69.38)"><tspan id="tspan23" x="0" y="0">DECENTRALIZED IDENTITY</tspan></text><g id="g31"><path id="path23" d="M83.28 228.2c-.44 0-.79-.35-.79-.79v-3.09c0-.44.35-.79.79-.79s.79.35.79.79v3.09c0 .44-.35.79-.79.79" class="st8"/><path id="path24" d="M83.28 251.62c-.44 0-.79-.35-.79-.79v-15.51c0-.44.35-.79.79-.79s.79.35.79.79v15.51c0 .44-.35.79-.79.79" class="st8"/><path id="path25" d="M83.36 235.72c-2.51 0-4.55-2.04-4.55-4.55s2.04-4.55 4.55-4.55 4.55 2.04 4.55 4.55-2.04 4.55-4.55 4.55m0-7.52a2.97 2.97 0 1 0 0 5.94 2.97 2.97 0 0 0 0-5.94" class="st13"/><path id="path26" d="M93.18 238.88c-.44 0-.79-.35-.79-.79v-13.77c0-.44.35-.79.79-.79s.79.35.79.79v13.77c0 .44-.35.79-.79.79" class="st8"/><path id="path27" d="M93.18 251.62c-.44 0-.79-.35-.79-.79v-4.43c0-.44.35-.79.79-.79s.79.35.79.79v4.43c0 .44-.35.79-.79.79" class="st8"/><path id="path28" d="M93.26 247.19c-2.51 0-4.55-2.04-4.55-4.55s2.04-4.55 4.55-4.55 4.55 2.04 4.55 4.55-2.04 4.55-4.55 4.55m0-7.52a2.97 2.97 0 1 0 0 5.94 2.97 2.97 0 0 0 0-5.94" class="st13"/><path id="path29" d="M73.39 236.11c-.44 0-.79-.35-.79-.79v-11c0-.44.35-.79.79-.79s.79.35.79.79v11c0 .44-.35.79-.79.79" class="st8"/><path id="path30" d="M73.39 251.62c-.44 0-.79-.35-.79-.79v-7.6c0-.44.35-.79.79-.79s.79.35.79.79v7.6c0 .44-.35.79-.79.79" class="st8"/><path id="path31" d="M73.47 243.63c-2.51 0-4.55-2.04-4.55-4.55s2.04-4.55 4.55-4.55 4.55 2.04 4.55 4.55-2.04 4.55-4.55 4.55m0-7.52a2.97 2.97 0 1 0 0 5.94 2.97 2.97 0 0 0 0-5.94" class="st13"/></g><text id="text31" class="st7" transform="translate(108.54 126.94)"><tspan id="tspan31" x="0" y="0">NETWORK OPERATIONS</tspan></text><text id="text32" class="st7" transform="translate(108.54 187.38)"><tspan id="tspan32" x="0" y="0">SOCIAL GRAPH</tspan></text><text id="text33" class="st7" transform="translate(108.54 241.69)"><tspan id="tspan33" x="0" y="0">CONTENT MANAGEMENT</tspan></text><g id="g33"><path id="line33" d="M614.81 74.39H108" class="st3"/><path id="polygon33" d="m611.49 70.3-.68.73 3.61 3.36-3.61 3.36.68.73 4.4-4.09z" class="st3"/></g><g id="g34"><path id="line34" d="M596.81 133.39H108" class="st3"/><path id="polygon34" d="m593.49 129.3-.68.73 3.61 3.36-3.61 3.36.68.73 4.4-4.09z" class="st3"/></g><g id="g35"><path id="line35" d="M564.92 192.39H108" class="st3"/><path id="polygon35" d="m561.6 188.3-.68.73 3.61 3.36-3.61 3.36.68.73 4.4-4.09z" class="st3"/></g><g id="g36"><path id="line36" d="M517.49 246.39H108" class="st3"/><path id="polygon36" d="m514.18 242.3-.68.73 3.61 3.36-3.61 3.36.68.73 4.4-4.09z" class="st3"/></g><g id="g46"><path id="path36" d="M89.69 54.08c-.11 0-.22-.03-.32-.08-2.45-1.26-6.94-1.44-9.06-.37-.34.17-.76.04-.93-.31a.69.69 0 0 1 .31-.93c2.48-1.26 7.5-1.06 10.32.37.34.17.48.59.31.93-.12.24-.36.39-.63.38Z" class="st10"/><path id="path37" d="M92.33 64.46a.69.69 0 0 1-.61-.36c-1.46-2.73-4.36-4.57-7.75-4.94-3.53-.38-6.94.91-8.91 3.37-.24.3-.68.34-.98.1a.693.693 0 0 1-.11-.96c2.25-2.83 6.14-4.32 10.14-3.89 3.85.42 7.15 2.53 8.82 5.66a.7.7 0 0 1-.28.94.7.7 0 0 1-.33.08z" class="st10"/><g id="g39"><path id="path38" d="M87.5 55.17c-3.99-1.16-8.61-.61-11.29 1.33-.02 0-.03.02-.05.03-.3.24-.35.67-.12.97.24.3.67.35.97.12 2.46-1.78 6.91-2.2 10.58-.98 0 0 .58.2.77-.43.11-.34.02-.8-.87-1.05h.01Z" class="st10"/><path id="path39" d="M92.66 58.14s-.6-.69-1.29-1.15c-.47-.35-.95-.65-1.44-.88-.47-.22-.81 0-.96.34-.15.35.02.76.37.91.71.34 1.41.84 2.06 1.46.08.08.15.16.23.24.24.3.68.34.98.1s.4-.63.06-1.02z" class="st10"/></g><path id="path40" d="M88.41 74.76c-.03.24-.07.47-.13.71A3.493 3.493 0 0 1 84 77.93a3.75 3.75 0 0 1-2.6-4.28c.38-2.12.29-1.65.6-2.74.17-.51.7-.59 1.02-.38.55.36.19.9-.25 3.35-.26 1.18.43 2.36 1.58 2.72 1.12.3 2.27-.36 2.57-1.48v-.02l.09-.54c.17-1.08 1.54-.84 1.39.2z" class="st10"/><path id="path41" d="M88.14 73.27s-.09 0-.14-.01a.684.684 0 0 1-.53-.81c.01-.05.64-3.25-.83-5.37-.69-1-1.77-1.62-3.2-1.84-1.36-.21-2.57.14-3.61 1.04-1.87 1.62-2.63 4.53-2.62 5.41 0 .38-.3.69-.68.7a.69.69 0 0 1-.69-.68c-.01-1.27.91-4.57 3.1-6.47 1.36-1.18 2.95-1.64 4.72-1.36 1.82.28 3.21 1.1 4.12 2.42 1.81 2.62 1.08 6.28 1.04 6.43-.07.32-.35.55-.67.55h-.01Z" class="st10"/><g id="g43"><path id="path42" d="M80.16 69.55c-.11-.04-.22-.06-.33-.04-.68.09-.92 1.37-.99 1.67-.28 1.06-.51 2.44-.24 3.95a.694.694 0 0 0 .81.57c.38-.07.63-.43.57-.81-.26-1.44.02-2.75.31-3.73.06-.2.19-.51.26-.69a.694.694 0 0 0-.4-.9v-.02Z" class="st10"/><path id="path43" d="M83.29 66.75c-.92-.18-2.16-.03-3.08.94a.69.69 0 0 0 .02.99c.28.27.72.26.99-.02.09-.09.17-.22.45-.37.4-.21.88-.29 1.36-.2a2.34 2.34 0 0 1 1.76 2.61c-.27 2.47-.37 2.48-.63 3.15a.7.7 0 0 0 1.3.52c.42-1.06.49-1.4.72-3.54.23-1.9-1.01-3.67-2.88-4.09h-.01Z" class="st10"/></g><g id="g45"><path id="path44" d="M91.7 68c-.58-3.58-4.09-7-7.67-7.43-1.87-.23-3.25.1-3.45.15-.01 0-.67.11-.54.85.07.38.47.58.84.5.14-.03.28-.05.41-.07.47-.06 1.24-.22 2.57-.06 2.98.37 5.99 3.31 6.48 6.29.06.34.35.58.69.58h.1c.38-.07.63-.43.57-.81" class="st10"/><path id="path45" d="M78.78 61.6c-.24 0-.58.2-.58.2s-3.22 1.9-4.46 6.01v.04c-.09.37.13.75.5.84s.73-.14.84-.5c.98-3.29 3.6-5.06 3.6-5.06.07-.04.36-.27.45-.33.55-.42.05-1.2-.34-1.2Z" class="st10"/></g></g><g id="g50"><path id="path46" d="M75.67 131.34c.87.38 1.8.57 2.76.57 2.42 0 4.68-1.28 5.93-3.35l3.67 1.82.62-.99-3.77-1.87c.32-.8.48-1.65.48-2.53 0-1.3-.36-2.56-1.05-3.66l2.19-1.88-.42-1.26-2.46 2.21a6.914 6.914 0 0 0-8.99-1.2l-2.09-2.66-.9.74 2.07 2.64a6.95 6.95 0 0 0-2.21 5.07c0 2.36 1.17 4.52 3.14 5.8l-1.54 2.85.97.66zm-3.01-6.36c0-3.18 2.58-5.76 5.76-5.76 1.81 0 3.47.82 4.57 2.26v.14h.1c.71.98 1.08 2.14 1.08 3.36 0 1.54-.6 2.98-1.69 4.07a5.7 5.7 0 0 1-4.07 1.69c-3.18 0-5.76-2.58-5.76-5.76z" class="st13"/><path id="path47" d="M71.99 139.46c-1.73 0-3.14-1.41-3.14-3.14s1.41-3.14 3.14-3.14 3.14 1.41 3.14 3.14-1.41 3.14-3.14 3.14m0-5.19c-1.13 0-2.05.92-2.05 2.05s.92 2.05 2.05 2.05 2.05-.92 2.05-2.05-.92-2.05-2.05-2.05" class="st13"/><path id="path48" d="M93.23 138.1c-3.32 0-6.02-2.7-6.02-6.02s2.7-6.02 6.02-6.02 6.02 2.7 6.02 6.02-2.7 6.02-6.02 6.02m0-10.95c-2.71 0-4.92 2.21-4.92 4.92s2.21 4.92 4.92 4.92 4.92-2.21 4.92-4.92-2.21-4.92-4.92-4.92" class="st13"/><path id="path49" d="M70.07 117.96c-2.2 0-3.99-1.79-3.99-3.99s1.79-3.99 3.99-3.99 3.99 1.79 3.99 3.99-1.79 3.99-3.99 3.99m0-6.74c-1.51 0-2.74 1.23-2.74 2.74s1.23 2.74 2.74 2.74 2.74-1.23 2.74-2.74-1.23-2.74-2.74-2.74" class="st13"/><path id="path50" d="M88.43 120.41c-1.68 0-3.05-1.37-3.05-3.05s1.37-3.05 3.05-3.05 3.05 1.37 3.05 3.05-1.37 3.05-3.05 3.05m0-5.01c-1.08 0-1.95.88-1.95 1.95s.88 1.95 1.95 1.95 1.95-.88 1.95-1.95-.88-1.95-1.95-1.95" class="st13"/></g><g id="g54"><path id="path51" d="M92.29 182.4c-1.02.02-2.03.28-2.94.75-.32-.58-.72-1.12-1.19-1.58a6.73 6.73 0 0 0-5.75-1.88 6.76 6.76 0 0 0-4.96 3.46 6.73 6.73 0 0 0-3.26-.75c-1.81.07-3.53.84-4.78 2.15s-1.94 3.06-1.92 4.88v3.29c0 .47.38.86.86.86s.86-.38.86-.86v-3.29a5.243 5.243 0 0 1 5.02-5.31c.9-.02 1.79.2 2.58.64-.17.62-.25 1.26-.26 1.9v4.62a2.311 2.311 0 0 0 4.62 0v-2.04c0-1.84-.76-3.6-2.09-4.88l-.24-.22a5.05 5.05 0 0 1 3.72-2.73c1.61-.25 3.24.28 4.39 1.44.4.39.74.84.99 1.34a7.07 7.07 0 0 0-2.35 5.29v1.84a2.311 2.311 0 0 0 4.62 0v-4.86c0-.58-.07-1.16-.21-1.72.71-.4 1.51-.63 2.33-.64 1.37-.02 2.7.51 3.68 1.47s1.53 2.28 1.53 3.65v3.51c0 .47.38.86.86.86s.86-.38.86-.86v-3.49c0-1.84-.74-3.6-2.05-4.89a6.9 6.9 0 0 0-4.92-1.98v.04Zm-12.88 6.87v2.03c0 .33-.26.59-.59.59s-.59-.26-.59-.59V186c.77.9 1.2 2.04 1.21 3.23zm9.11 2c0 .33-.26.59-.59.59s-.59-.26-.59-.59v-1.84c0-1.22.41-2.41 1.17-3.37v.39l.02 4.82z" style="fill:#ff9a02"/><path id="path52" d="M83.31 177.36c-2.64 0-4.79-2.15-4.79-4.79s2.15-4.79 4.79-4.79 4.79 2.15 4.79 4.79-2.15 4.79-4.79 4.79Zm0-8.7c-2.16 0-3.91 1.76-3.91 3.91s1.76 3.91 3.91 3.91 3.91-1.76 3.91-3.91-1.76-3.91-3.91-3.91Z" class="st5"/><path id="path53" d="M92.76 180.36a3.24 3.24 0 1 1 3.24-3.24 3.24 3.24 0 0 1-3.24 3.24Zm0-5.88c-1.46 0-2.65 1.19-2.65 2.65s1.19 2.65 2.65 2.65 2.65-1.19 2.65-2.65-1.19-2.65-2.65-2.65Z" class="st5"/><path id="path54" d="M73.39 180.26a3.24 3.24 0 1 1 3.24-3.24 3.24 3.24 0 0 1-3.24 3.24Zm0-5.88c-1.46 0-2.65 1.19-2.65 2.65s1.19 2.65 2.65 2.65 2.65-1.19 2.65-2.65-1.19-2.65-2.65-2.65Z" class="st5"/></g><path id="path55" d="M292 281.12c0-129.51 104.99-234.5 234.5-234.5S761 151.61 761 281.12" style="stroke-miterlimit:10;fill:none;stroke-width:6px;stroke:#c44bbf"/><path id="path56" d="M292 281.12c0-108.25 87.75-196 196-196s196 87.75 196 196" style="stroke-miterlimit:10;fill:none;stroke-width:6px;stroke:#790e70"/><path id="path57" d="M292 281.12c0-88.09 71.41-159.5 159.5-159.5S611 193.03 611 281.12" style="stroke-miterlimit:10;fill:none;stroke-width:6px;stroke:#ff9a02"/><path id="path58" d="M292 281.12c0-67.38 54.62-122 122-122s122 54.62 122 122" style="stroke:#f2d8b6;stroke-miterlimit:10;fill:none;stroke-width:6px"/><path id="line58" d="M770 279.63H62" style="stroke-miterlimit:10;fill:#fcf3e4;stroke:#fcf3e4;stroke-width:2px"/><circle id="circle58" cx="348.86" cy="278.33" r="56.83" class="st13"/><path id="path59" d="M382.7 255.83a3.474 3.474 0 0 0-3.37-2.66h-55.62c-1.93 0-3.49 1.56-3.49 3.49v48.67c0 1.19.61 2.33 1.65 2.97a3.5 3.5 0 0 0 3.4.15l41.72-20.86c1.44-.74 2.21-2.33 1.84-3.92s-1.78-2.66-3.37-2.66h-26.98l42.45-21.23c1.44-.74 2.21-2.33 1.84-3.92l-.06-.03Z" class="st8"/></svg>