<svg xmlns="http://www.w3.org/2000/svg" viewBox="0 0 818 365" xmlns:v="https://vecta.io/nano"><style><![CDATA[.C{isolation:isolate}.S{stroke-miterlimit:10}.T{fill:#331e49}.U{stroke-linecap:round}.V{fill:#a7a9ac}.W{font-family:Poppins-Bold,Poppins}.X{font-size:14px}.Y{font-weight:700}.Z{fill:#19455e}.a{fill:#f2d8b6}.b{stroke:#331e49}]]></style><g opacity=".8" class="V"><use href="#B"/><use href="#B" x="15.02"/><use href="#B" x="30.03"/><use href="#B" x="45.05"/><use href="#B" x="60.06"/><use href="#B" x="75.08"/><use href="#B" x="90.09"/><use href="#B" x="105.11"/><use href="#B" x="120.12"/></g><g opacity=".8" class="V"><use href="#C"/><use href="#C" y="15.01"/><use href="#C" y="30.03"/><use href="#C" y="45.04"/><use href="#C" y="60.06"/><use href="#C" y="75.08"/></g><g opacity=".8" class="V"><path d="M683.43 206h.19v61h-.19zm15.02 0h.19v61h-.19zm15.01 0h.19v61h-.19z"/></g><g opacity=".8" class="V"><use href="#D"/><use href="#D" y="15.01"/><use href="#D" y="30.03"/><use href="#D" y="45.05"/></g><text class="C T W X Y"><tspan x="108.53" y="69.36">DECENTRALIZED IDENTITY</tspan></text><path d="M83.28 228.18c-.44 0-.79-.35-.79-.79v-3.09c0-.44.35-.79.79-.79s.79.35.79.79v3.09c0 .44-.35.79-.79.79zm0 23.42c-.44 0-.79-.35-.79-.79V235.3c0-.44.35-.79.79-.79s.79.35.79.79v15.51c0 .44-.35.79-.79.79z" class="Z"/><use href="#E" class="a"/><path d="M93.18 238.86c-.44 0-.79-.35-.79-.79V224.3c0-.44.35-.79.79-.79s.79.35.79.79v13.77c0 .44-.35.79-.79.79zm0 12.74c-.44 0-.79-.35-.79-.79v-4.43c0-.44.35-.79.79-.79s.79.35.79.79v4.43c0 .44-.35.79-.79.79z" class="Z"/><use href="#E" x="9.9" y="11.47" class="a"/><path d="M73.39 236.09c-.44 0-.79-.35-.79-.79v-11c0-.44.35-.79.79-.79s.79.35.79.79v11c0 .44-.35.79-.79.79zm0 15.51c-.44 0-.79-.35-.79-.79v-7.6c0-.44.35-.79.79-.79s.79.35.79.79v7.6c0 .44-.35.79-.79.79z" class="Z"/><use href="#E" x="-9.89" y="7.91" class="a"/><text class="T W X Y"><tspan x="108.54" y="126.92">NETWORK OPERATIONS</tspan><tspan x="108.54" y="187.36">SOCIAL GRAPH</tspan><tspan x="108.54" y="241.67">CONTENT MANAGEMENT</tspan></text><g class="S T b"><path d="M614.81 74.37H108" class="U"/><use href="#F"/><path d="M596.81 133.37H108" class="U"/><use href="#F" x="-18" y="59"/><path d="M564.92 192.37H108" class="U"/><use href="#F" x="-49.89" y="118"/><path d="M517.49 246.37H108" class="U"/><use href="#F" x="-97.31" y="172"/></g><path d="M89.69 54.06a.72.72 0 0 1-.32-.08c-2.45-1.26-6.94-1.44-9.06-.37-.34.17-.76.04-.93-.31-.17-.34-.04-.76.31-.93 2.48-1.26 7.5-1.06 10.32.37.34.17.48.59.31.93-.12.24-.36.39-.63.38h0zm2.64 10.38a.69.69 0 0 1-.61-.36c-1.46-2.73-4.36-4.57-7.75-4.94-3.53-.38-6.94.91-8.91 3.37-.24.3-.68.34-.98.1-.29-.24-.34-.66-.11-.96 2.25-2.83 6.14-4.32 10.14-3.89 3.85.42 7.15 2.53 8.82 5.66a.7.7 0 0 1-.28.94h0a.73.73 0 0 1-.33.08h.01zm-4.83-9.29c-3.99-1.16-8.61-.61-11.29 1.33-.02 0-.03.02-.05.03-.3.24-.35.67-.12.97.24.3.67.35.97.12 2.46-1.78 6.91-2.2 10.58-.98 0 0 .58.2.77-.43.11-.34.02-.8-.87-1.05h.01zm5.16 2.97s-.6-.69-1.29-1.15c-.47-.35-.95-.65-1.44-.88-.47-.22-.81 0-.96.34a.7.7 0 0 0 .37.91c.71.34 1.41.84 2.06 1.46l.23.24c.24.3.68.34.98.1s.4-.63.06-1.02h-.01zm-4.25 16.62a5.89 5.89 0 0 1-.13.71c-.5 1.86-2.42 2.96-4.28 2.46-1.83-.55-2.95-2.4-2.6-4.28l.6-2.74c.17-.51.7-.59 1.02-.38.55.36.19.9-.25 3.35a2.33 2.33 0 0 0 1.58 2.72c1.12.3 2.27-.36 2.57-1.48v-.02l.09-.54c.17-1.08 1.54-.84 1.39.2h.01zm-.27-1.49s-.09 0-.14-.01c-.37-.08-.61-.44-.53-.81.01-.05.64-3.25-.83-5.37-.69-1-1.77-1.62-3.2-1.84-1.36-.21-2.57.14-3.61 1.04-1.87 1.62-2.63 4.53-2.62 5.41a.7.7 0 0 1-.68.7h0a.69.69 0 0 1-.69-.68c-.01-1.27.91-4.57 3.1-6.47 1.36-1.18 2.95-1.64 4.72-1.36 1.82.28 3.21 1.1 4.12 2.42 1.81 2.62 1.08 6.28 1.04 6.43-.07.32-.35.55-.67.55h-.01zm-7.98-3.72a.63.63 0 0 0-.33-.04c-.68.09-.92 1.37-.99 1.67h0c-.28 1.06-.51 2.44-.24 3.95.04.26.23.47.48.55a.74.74 0 0 0 .33.02.71.71 0 0 0 .57-.81h0c-.26-1.44.02-2.75.31-3.73.06-.2.19-.51.26-.69h0c.14-.36-.04-.76-.4-.9v-.02zm3.13-2.8c-.92-.18-2.16-.03-3.08.94a.69.69 0 0 0-.16.71.75.75 0 0 0 .18.28c.28.27.72.26.99-.02h0c.09-.09.17-.22.45-.37a2.1 2.1 0 0 1 1.36-.2 2.34 2.34 0 0 1 1.76 2.61c-.27 2.47-.37 2.48-.63 3.15a.7.7 0 1 0 1.3.52c.42-1.06.49-1.4.72-3.54a3.73 3.73 0 0 0-2.88-4.09h-.01zm8.41 1.25c-.58-3.58-4.09-7-7.67-7.43-1.87-.23-3.25.1-3.45.15-.01 0-.67.11-.54.85.07.38.47.58.84.5.14-.03.28-.05.41-.07.47-.06 1.24-.22 2.57-.06 2.98.37 5.99 3.31 6.48 6.29.06.34.35.58.69.58h.1a.71.71 0 0 0 .57-.81zm-12.92-6.4c-.24 0-.58.2-.58.2s-3.22 1.9-4.46 6.01v.04c-.09.37.13.75.5.84s.73-.14.84-.5c.98-3.29 3.6-5.06 3.6-5.06.07-.04.36-.27.45-.33.55-.42.05-1.2-.34-1.2h0z" class="T"/><g fill="#790e70"><path d="M75.67 131.32c.87.38 1.8.57 2.76.57a6.95 6.95 0 0 0 5.93-3.35l3.67 1.82.62-.99-3.77-1.87c.32-.8.48-1.65.48-2.53a6.86 6.86 0 0 0-1.05-3.66l2.19-1.88-.42-1.26-2.46 2.21c-1.32-1.49-3.2-2.34-5.18-2.34a6.89 6.89 0 0 0-3.81 1.14l-2.09-2.66-.9.74 2.07 2.64c-1.4 1.31-2.21 3.14-2.21 5.07 0 2.36 1.17 4.52 3.14 5.8l-1.54 2.85.97.66 1.6-2.96h0zm-3.01-6.36c0-3.18 2.58-5.76 5.76-5.76 1.81 0 3.47.82 4.57 2.26v.14h.1a5.68 5.68 0 0 1 1.08 3.36 5.71 5.71 0 0 1-5.76 5.76h0c-3.18 0-5.76-2.58-5.76-5.76h.01z"/><path d="M71.99 139.44c-1.73 0-3.14-1.41-3.14-3.14s1.41-3.14 3.14-3.14 3.14 1.41 3.14 3.14-1.41 3.14-3.14 3.14zm0-5.19c-1.13 0-2.05.92-2.05 2.05s.92 2.05 2.05 2.05 2.05-.92 2.05-2.05-.92-2.05-2.05-2.05zm21.24 3.83a6.03 6.03 0 0 1-6.02-6.02 6.03 6.03 0 0 1 6.02-6.02 6.03 6.03 0 0 1 6.02 6.02 6.03 6.03 0 0 1-6.02 6.02zm0-10.95a4.93 4.93 0 0 0-4.92 4.92 4.93 4.93 0 0 0 4.92 4.92 4.93 4.93 0 0 0 4.92-4.92 4.93 4.93 0 0 0-4.92-4.92zm-23.16-9.19c-2.2 0-3.99-1.79-3.99-3.99s1.79-3.99 3.99-3.99 3.99 1.79 3.99 3.99-1.79 3.99-3.99 3.99zm0-6.74c-1.51 0-2.74 1.23-2.74 2.74s1.23 2.74 2.74 2.74 2.74-1.23 2.74-2.74-1.23-2.74-2.74-2.74zm18.36 9.19c-1.68 0-3.05-1.37-3.05-3.05s1.37-3.05 3.05-3.05 3.05 1.37 3.05 3.05-1.37 3.05-3.05 3.05zm0-5.01c-1.08 0-1.95.88-1.95 1.95a1.96 1.96 0 0 0 1.95 1.95 1.96 1.96 0 0 0 1.95-1.95 1.96 1.96 0 0 0-1.95-1.95z"/></g><g fill="#ff9a02"><path d="M92.29,182.38c-1.02.02-2.03.28-2.94.75-.32-.58-.72-1.12-1.19-1.58-1.51-1.5-3.64-2.2-5.75-1.88-2.11.31-3.94,1.59-4.96,3.46-1.01-.52-2.13-.78-3.26-.75-1.81.07-3.53.84-4.78,2.15s-1.94,3.06-1.92,4.88v3.29c0,.47.38.86.86.86s.86-.38.86-.86v-3.29c-.04-2.84,2.19-5.19,5.02-5.31.9-.02,1.79.2,2.58.64-.17.62-.25,1.26-.26,1.9v4.62c0,1.27,1.03,2.31,2.31,2.31s2.31-1.03,2.31-2.31v-2.04c0-1.84-.76-3.6-2.09-4.88l-.24-.22c.73-1.46,2.11-2.47,3.72-2.73,1.61-.25,3.24.28,4.39,1.44.4.39.74.84.99,1.34-1.5,1.35-2.36,3.27-2.35,5.29v1.84h0c0,1.27,1.03,2.31,2.31,2.31s2.31-1.03,2.31-2.31v-4.86c0-.58-.07-1.16-.21-1.72.71-.4,1.51-.63,2.33-.64,1.37-.02,2.7.51,3.68,1.47s1.53,2.28,1.53,3.65v3.51c0,.47.38.86.86.86s.86-.38.86-.86v-3.49c0-1.84-.74-3.6-2.05-4.89-1.31-1.29-3.08-2-4.92-1.98v.04h0ZM79.41,189.25v2.03c0,.33-.26.59-.59.59s-.59-.26-.59-.59v-5.3c.77.9,1.2,2.04,1.21,3.23l-.03.04h0ZM88.52,191.25c0,.33-.26.59-.59.59s-.59-.26-.59-.59v-1.84c0-1.22.41-2.41,1.17-3.37v.39l.02,4.82h-.01Z"/><g stroke="#ff9a02" stroke-width=".75" class="S"><path d="M83.31,177.34c-2.64,0-4.79-2.15-4.79-4.79s2.15-4.79,4.79-4.79,4.79,2.15,4.79,4.79-2.15,4.79-4.79,4.79ZM83.31,168.64c-2.16,0-3.91,1.76-3.91,3.91s1.76,3.91,3.91,3.91,3.91-1.76,3.91-3.91-1.76-3.91-3.91-3.91Z"/><use href="#G"/><use href="#G" x="-19.37" y="-0.1"/></g></g><g fill="none" class="S"><g stroke-width="6"><path d="M292 281.1c0-129.51 104.99-234.5 234.5-234.5S761 151.59 761 281.1" class="b"/><path d="M292,281.1c0-108.25,87.75-196,196-196s196,87.75,196,196" stroke="#790e70"/><path d="M292 281.1c0-88.09 71.41-159.5 159.5-159.5S611 193.01 611 281.1" stroke="#ff9a02"/><path d="M292,281.1c0-67.38,54.62-122,122-122s122,54.62,122,122" stroke="#f2d8b6"/></g><path d="M770 279.61H62" stroke-width="4" class="U b"/></g><circle cx="348.86" cy="278.31" r="56.83" fill="#790e70"/><path d="M382.7,255.82c-.37-1.56-1.78-2.66-3.37-2.66h-55.62c-1.93,0-3.49,1.56-3.49,3.49v48.67c0,1.19.61,2.33,1.65,2.97.55.34,1.19.52,1.84.52.52,0,1.07-.12,1.56-.37l41.72-20.86c1.44-.74,2.21-2.33,1.84-3.92s-1.78-2.66-3.37-2.66h-26.98l42.45-21.23c1.44-.74,2.21-2.33,1.84-3.92h0l-.06-.03Z" fill="#fcf3e4"/><defs ><path id="B" d="M328.1 89.01h.19v105.02h-.19z"/><path id="C" d="M318 104.31h141.12v.19H318z"/><path id="D" d="M672 214.74h52.36v.19H672z"/><path id="E" d="M83.36 235.7c-2.51 0-4.55-2.04-4.55-4.55s2.04-4.55 4.55-4.55 4.55 2.04 4.55 4.55-2.04 4.55-4.55 4.55zm0-7.52a2.97 2.97 0 0 0 0 5.94 2.97 2.97 0 1 0 0-5.94z"/><path id="F" d="M611.49 70.28l-.68.73 3.61 3.36-3.61 3.36.68.73 4.4-4.09-4.4-4.09z"/><path id="G" d="M92.76 180.34c-1.78 0-3.24-1.45-3.24-3.24a3.24 3.24 0 0 1 6.48 0 3.24 3.24 0 0 1-3.24 3.24zm0-5.88c-1.46 0-2.65 1.19-2.65 2.65s1.19 2.65 2.65 2.65 2.65-1.19 2.65-2.65-1.19-2.65-2.65-2.65z"/></defs></svg>
