<svg viewBox="0 0 818 365" xmlns="http://www.w3.org/2000/svg"><g fill="#a7a9ac" opacity=".8"><path d="m328.1 89.01h.19v105.02h-.19z"/><path d="m343.12 89.01h.19v105.02h-.19z"/><path d="m358.13 89.01h.19v105.02h-.19z"/><path d="m373.15 89.01h.19v105.02h-.19z"/><path d="m388.16 89.01h.19v105.02h-.19z"/><path d="m403.18 89.01h.19v105.02h-.19z"/><path d="m418.19 89.01h.19v105.02h-.19z"/><path d="m433.21 89.01h.19v105.02h-.19z"/><path d="m448.22 89.01h.19v105.02h-.19z"/></g><g fill="#a7a9ac" opacity=".8"><path d="m318 104.31h141.12v.19h-141.12z"/><path d="m318 119.32h141.12v.19h-141.12z"/><path d="m318 134.34h141.12v.19h-141.12z"/><path d="m318 149.35h141.12v.19h-141.12z"/><path d="m318 164.37h141.12v.19h-141.12z"/><path d="m318 179.39h141.12v.19h-141.12z"/></g><g fill="#a7a9ac" opacity=".8"><path d="m683.43 206h.19v61h-.19z"/><path d="m698.45 206h.19v61h-.19z"/><path d="m713.46 206h.19v61h-.19z"/></g><g fill="#a7a9ac" opacity=".8"><path d="m672 214.74h52.36v.19h-52.36z"/><path d="m672 229.75h52.36v.19h-52.36z"/><path d="m672 244.77h52.36v.19h-52.36z"/><path d="m672 259.79h52.36v.19h-52.36z"/></g><text fill="#fff" font-family="Poppins-Bold, Poppins" font-size="14" font-weight="700" transform="translate(108.53 69.36)"><tspan x="0" y="0">DECENTRALIZED IDENTITY</tspan></text><path d="m83.28 228.18c-.44 0-.79-.35-.79-.79v-3.09c0-.44.35-.79.79-.79s.79.35.79.79v3.09c0 .44-.35.79-.79.79z" fill="#fff"/><path d="m83.28 251.6c-.44 0-.79-.35-.79-.79v-15.51c0-.44.35-.79.79-.79s.79.35.79.79v15.51c0 .44-.35.79-.79.79z" fill="#fff"/><path d="m83.36 235.7c-2.51 0-4.55-2.04-4.55-4.55s2.04-4.55 4.55-4.55 4.55 2.04 4.55 4.55-2.04 4.55-4.55 4.55zm0-7.52c-1.64 0-2.97 1.33-2.97 2.97s1.33 2.97 2.97 2.97 2.97-1.33 2.97-2.97-1.33-2.97-2.97-2.97z" fill="#00b6af"/><path d="m93.18 238.86c-.44 0-.79-.35-.79-.79v-13.77c0-.44.35-.79.79-.79s.79.35.79.79v13.77c0 .44-.35.79-.79.79z" fill="#fff"/><path d="m93.18 251.6c-.44 0-.79-.35-.79-.79v-4.43c0-.44.35-.79.79-.79s.79.35.79.79v4.43c0 .44-.35.79-.79.79z" fill="#fff"/><path d="m93.26 247.17c-2.51 0-4.55-2.04-4.55-4.55s2.04-4.55 4.55-4.55 4.55 2.04 4.55 4.55-2.04 4.55-4.55 4.55zm0-7.52c-1.64 0-2.97 1.33-2.97 2.97s1.33 2.97 2.97 2.97 2.97-1.33 2.97-2.97-1.33-2.97-2.97-2.97z" fill="#00b6af"/><path d="m73.39 236.09c-.44 0-.79-.35-.79-.79v-11c0-.44.35-.79.79-.79s.79.35.79.79v11c0 .44-.35.79-.79.79z" fill="#fff"/><path d="m73.39 251.6c-.44 0-.79-.35-.79-.79v-7.6c0-.44.35-.79.79-.79s.79.35.79.79v7.6c0 .44-.35.79-.79.79z" fill="#fff"/><path d="m73.47 243.61c-2.51 0-4.55-2.04-4.55-4.55s2.04-4.55 4.55-4.55 4.55 2.04 4.55 4.55-2.04 4.55-4.55 4.55zm0-7.52c-1.64 0-2.97 1.33-2.97 2.97s1.33 2.97 2.97 2.97 2.97-1.33 2.97-2.97-1.33-2.97-2.97-2.97z" fill="#00b6af"/><text fill="#fff" font-family="Poppins-Bold, Poppins" font-size="14" font-weight="700" transform="translate(108.54 126.92)"><tspan x="0" y="0">NETWORK OPERATIONS</tspan></text><text fill="#fff" font-family="Poppins-Bold, Poppins" font-size="14" font-weight="700" transform="translate(108.54 187.36)"><tspan x="0" y="0">SOCIAL GRAPH</tspan></text><text fill="#fff" font-family="Poppins-Bold, Poppins" font-size="14" font-weight="700" transform="translate(108.54 241.67)"><tspan x="0" y="0">CONTENT MANAGEMENT</tspan></text><path d="m614.81 74.37h-506.81" fill="none" stroke="#fff" stroke-linecap="round" stroke-miterlimit="10"/><path d="m611.49 70.28-.68.73 3.61 3.36-3.61 3.36.68.73 4.4-4.09z" fill="#fff"/><path d="m596.81 133.37h-488.81" fill="none" stroke="#fff" stroke-linecap="round" stroke-miterlimit="10"/><path d="m593.49 129.28-.68.73 3.61 3.36-3.61 3.36.68.73 4.4-4.09z" fill="#fff"/><path d="m564.92 192.37h-456.92" fill="none" stroke="#fff" stroke-linecap="round" stroke-miterlimit="10"/><path d="m561.6 188.28-.68.73 3.61 3.36-3.61 3.36.68.73 4.4-4.09z" fill="#fff"/><path d="m517.49 246.37h-409.49" fill="none" stroke="#fff" stroke-linecap="round" stroke-miterlimit="10"/><path d="m514.18 242.28-.68.73 3.61 3.36-3.61 3.36.68.73 4.4-4.09z" fill="#fff"/><path d="m89.69 54.06c-.11 0-.22-.03-.32-.08-2.45-1.26-6.94-1.44-9.06-.37-.34.17-.76.04-.93-.31-.17-.34-.04-.76.31-.93 2.48-1.26 7.5-1.06 10.32.37.34.17.48.59.31.93-.12.24-.36.39-.63.38z" fill="#fff"/><path d="m92.33 64.44c-.26 0-.49-.14-.61-.36-1.46-2.73-4.36-4.57-7.75-4.94-3.53-.38-6.94.91-8.91 3.37-.24.3-.68.34-.98.1-.29-.24-.34-.66-.11-.96 2.25-2.83 6.14-4.32 10.14-3.89 3.85.42 7.15 2.53 8.82 5.66.18.34.05.76-.28.94-.1.05-.21.08-.33.08z" fill="#fff"/><path d="m87.5 55.15c-3.99-1.16-8.61-.61-11.29 1.33-.02.01-.03.02-.05.03-.3.24-.35.67-.12.97.24.3.67.35.97.12 2.46-1.78 6.91-2.2 10.58-.98 0 0 .58.2.77-.43.11-.34.02-.8-.87-1.05z" fill="#ffd647"/><path d="m92.66 58.12s-.6-.69-1.29-1.15c-.47-.35-.95-.65-1.44-.88-.47-.22-.81 0-.96.34-.15.35.02.76.37.91.71.34 1.41.84 2.06 1.46.08.08.15.16.23.24.24.3.68.34.98.1s.4-.63.06-1.02z" fill="#ffd647"/><path d="m88.41 74.74c-.03.24-.07.47-.13.71-.5 1.86-2.42 2.96-4.28 2.46-1.83-.55-2.95-2.4-2.6-4.28.38-2.12.29-1.65.6-2.74.17-.51.7-.59 1.02-.38.55.36.19.9-.25 3.35-.26 1.18.43 2.36 1.58 2.72 1.12.3 2.27-.36 2.57-1.48 0 0 0-.01 0-.02l.09-.54c.17-1.08 1.54-.84 1.39.2z" fill="#fff"/><path d="m88.14 73.25s-.09 0-.14-.01c-.37-.08-.61-.44-.53-.81.01-.05.64-3.25-.83-5.37-.69-1-1.77-1.62-3.2-1.84-1.36-.21-2.57.14-3.61 1.04-1.87 1.62-2.63 4.53-2.62 5.41 0 .38-.3.69-.68.7-.38 0-.68-.3-.69-.68-.01-1.27.91-4.57 3.1-6.47 1.36-1.18 2.95-1.64 4.72-1.36 1.82.28 3.21 1.1 4.12 2.42 1.81 2.62 1.08 6.28 1.04 6.43-.07.32-.35.55-.67.55z" fill="#fff"/><path d="m80.16 69.53c-.11-.04-.22-.06-.33-.04-.68.09-.92 1.37-.99 1.67-.28 1.06-.51 2.44-.24 3.95.04.26.23.47.48.55.11.03.22.04.33.02.38-.07.63-.43.57-.81-.26-1.44.02-2.75.31-3.73.06-.2.19-.51.26-.69.14-.36-.04-.76-.4-.9z" fill="#ffd647"/><path d="m83.29 66.73c-.92-.18-2.16-.03-3.08.94-.18.19-.25.46-.16.71.04.11.1.2.18.28.28.27.72.26.99-.02.09-.09.17-.22.45-.37.4-.21.88-.29 1.36-.2 1.17.29 1.94 1.42 1.76 2.61-.27 2.47-.37 2.48-.63 3.15-.14.36.03.77.39.91s.77-.03.91-.39c.42-1.06.49-1.4.72-3.54.23-1.9-1.01-3.67-2.88-4.09z" fill="#ffd647"/><path d="m91.7 67.98c-.58-3.58-4.09-7-7.67-7.43-1.87-.23-3.25.1-3.45.15-.01 0-.67.11-.54.85.07.38.47.58.84.5.14-.03.28-.05.41-.07.47-.06 1.24-.22 2.57-.06 2.98.37 5.99 3.31 6.48 6.29.06.34.35.58.69.58h.1s0-.01 0-.01c.38-.06.63-.42.57-.8z" fill="#ffd647"/><path d="m78.78 61.58c-.24 0-.58.2-.58.2s-3.22 1.9-4.46 6.01v.04c-.09.37.13.75.5.84s.73-.14.84-.5c.98-3.29 3.6-5.06 3.6-5.06.07-.04.36-.27.45-.33.55-.42.05-1.2-.34-1.2z" fill="#ffd647"/><g fill="#fff"><path d="m75.67 131.32c.87.38 1.8.57 2.76.57 2.42 0 4.68-1.28 5.93-3.35l3.67 1.82.62-.99-3.77-1.87c.32-.8.48-1.65.48-2.53 0-1.3-.36-2.56-1.05-3.66l2.19-1.88-.42-1.26-2.46 2.21c-1.32-1.49-3.2-2.34-5.18-2.34-1.36 0-2.67.39-3.81 1.14l-2.09-2.66-.9.74 2.07 2.64c-1.4 1.31-2.21 3.14-2.21 5.07 0 2.36 1.17 4.52 3.14 5.8l-1.54 2.85.97.66zm-3.01-6.36c0-3.18 2.58-5.76 5.76-5.76 1.81 0 3.47.82 4.57 2.26v.14h.1c.71.98 1.08 2.14 1.08 3.36 0 1.54-.6 2.98-1.69 4.07s-2.53 1.69-4.07 1.69c-3.18 0-5.76-2.58-5.76-5.76z"/><path d="m71.99 139.44c-1.73 0-3.14-1.41-3.14-3.14s1.41-3.14 3.14-3.14 3.14 1.41 3.14 3.14-1.41 3.14-3.14 3.14zm0-5.19c-1.13 0-2.05.92-2.05 2.05s.92 2.05 2.05 2.05 2.05-.92 2.05-2.05-.92-2.05-2.05-2.05z"/><path d="m93.23 138.08c-3.32 0-6.02-2.7-6.02-6.02s2.7-6.02 6.02-6.02 6.02 2.7 6.02 6.02-2.7 6.02-6.02 6.02zm0-10.95c-2.71 0-4.92 2.21-4.92 4.92s2.21 4.92 4.92 4.92 4.92-2.21 4.92-4.92-2.21-4.92-4.92-4.92z"/><path d="m70.07 117.94c-2.2 0-3.99-1.79-3.99-3.99s1.79-3.99 3.99-3.99 3.99 1.79 3.99 3.99-1.79 3.99-3.99 3.99zm0-6.74c-1.51 0-2.74 1.23-2.74 2.74s1.23 2.74 2.74 2.74 2.74-1.23 2.74-2.74-1.23-2.74-2.74-2.74z"/><path d="m88.43 120.39c-1.68 0-3.05-1.37-3.05-3.05s1.37-3.05 3.05-3.05 3.05 1.37 3.05 3.05-1.37 3.05-3.05 3.05zm0-5.01c-1.08 0-1.95.88-1.95 1.95s.88 1.95 1.95 1.95 1.95-.88 1.95-1.95-.88-1.95-1.95-1.95z"/></g><path d="m92.29 182.38c-1.02.02-2.03.28-2.94.75-.32-.58-.72-1.12-1.19-1.58-1.51-1.5-3.64-2.2-5.75-1.88-2.11.31-3.94 1.59-4.96 3.46-1.01-.52-2.13-.78-3.26-.75-1.81.07-3.53.84-4.78 2.15s-1.94 3.06-1.92 4.88v3.29c0 .47.38.86.86.86s.86-.38.86-.86v-3.29c-.04-2.84 2.19-5.19 5.02-5.31.9-.02 1.79.2 2.58.64-.17.62-.25 1.26-.26 1.9v4.62c0 1.27 1.03 2.31 2.31 2.31s2.31-1.03 2.31-2.31v-2.04c0-1.84-.76-3.6-2.09-4.88l-.24-.22c.73-1.46 2.11-2.47 3.72-2.73 1.61-.25 3.24.28 4.39 1.44.4.39.74.84.99 1.34-1.5 1.35-2.36 3.27-2.35 5.29v1.84c0 1.27 1.03 2.31 2.31 2.31s2.31-1.03 2.31-2.31v-4.86c0-.58-.07-1.16-.21-1.72.71-.4 1.51-.63 2.33-.64 1.37-.02 2.7.51 3.68 1.47s1.53 2.28 1.53 3.65v3.51c0 .47.38.86.86.86s.86-.38.86-.86v-3.49c0-1.84-.74-3.6-2.05-4.89s-3.08-2-4.92-1.98v.04zm-12.88 6.87v2.03c0 .33-.26.59-.59.59s-.59-.26-.59-.59v-5.3c.77.9 1.2 2.04 1.21 3.23zm9.11 2c0 .33-.26.59-.59.59s-.59-.26-.59-.59v-1.84c0-1.22.41-2.41 1.17-3.37v.39l.02 4.82z" fill="#18465e"/><path d="m83.31 167.4c-2.85 0-5.16 2.32-5.16 5.16s2.32 5.16 5.16 5.16 5.16-2.32 5.16-5.16-2.32-5.16-5.16-5.16zm0 8.7c-1.95 0-3.54-1.59-3.54-3.54s1.59-3.54 3.54-3.54 3.54 1.59 3.54 3.54-1.59 3.54-3.54 3.54z" fill="#f77c47"/><path d="m92.76 173.5c-1.99 0-3.61 1.62-3.61 3.61s1.62 3.61 3.61 3.61 3.61-1.62 3.61-3.61-1.62-3.61-3.61-3.61zm0 5.88c-1.25 0-2.27-1.02-2.27-2.27s1.02-2.27 2.27-2.27 2.27 1.02 2.27 2.27-1.02 2.27-2.27 2.27z" fill="#f77c47"/><path d="m73.39 173.39c-1.99 0-3.61 1.62-3.61 3.61s1.62 3.61 3.61 3.61 3.61-1.62 3.61-3.61-1.62-3.61-3.61-3.61zm0 5.88c-1.25 0-2.27-1.02-2.27-2.27s1.02-2.27 2.27-2.27 2.27 1.02 2.27 2.27-1.02 2.27-2.27 2.27z" fill="#f77c47"/><path d="m292 281.1c0-129.51 104.99-234.5 234.5-234.5s234.5 104.99 234.5 234.5" fill="none" stroke="#ffd647" stroke-miterlimit="10" stroke-width="6"/><path d="m292 281.1c0-108.25 87.75-196 196-196s196 87.75 196 196" fill="none" stroke="#fff" stroke-miterlimit="10" stroke-width="6"/><path d="m292 281.1c0-88.09 71.41-159.5 159.5-159.5s159.5 71.41 159.5 159.5" fill="none" stroke="#f77c47" stroke-miterlimit="10" stroke-width="6"/><path d="m292 281.1c0-67.38 54.62-122 122-122s122 54.62 122 122" fill="none" stroke="#00b6af" stroke-miterlimit="10" stroke-width="6"/><path d="m770 279.61h-708" fill="none" stroke="#00b6af" stroke-linecap="round" stroke-miterlimit="10" stroke-width="4"/><circle cx="349.5" cy="278.1" fill="#00b6af" r="59.5"/><path d="m331.81 250.19v62.4h10.96v-19.38l22-9.42-.27-11.14-21.64 9.15v-21.2h27.89v-10.41z" fill="#fff"/></svg>