<svg id="Layer_1" data-name="Layer 1" viewBox="0 0 818 365" version="1.1" xmlns="http://www.w3.org/2000/svg" xmlns:svg="http://www.w3.org/2000/svg"><defs id="defs1"><style id="style1">.cls-1,.cls-2,.cls-3,.cls-4{stroke-width:6px}.cls-1,.cls-2,.cls-3,.cls-4,.cls-5,.cls-6{fill:none}.cls-1,.cls-2,.cls-3,.cls-4,.cls-5,.cls-6,.cls-7{stroke-miterlimit:10}.cls-1,.cls-5,.cls-6{stroke:#14313f}.cls-2{stroke:#00b6af}.cls-3{stroke:#ffd647}.cls-4,.cls-7{stroke:#f15a24}.cls-8{fill:#00b6af}.cls-9{fill:#fff}.cls-10{fill:#ffd647}.cls-11{fill:#a7a9ac}.cls-12{fill:#14313f}.cls-13{fill:#19455e}.cls-14,.cls-15{fill:#18465e}.cls-15{font-family:Poppins-Bold,Poppins;font-size:14px;font-weight:700}.cls-5,.cls-6{stroke-linecap:round}.cls-6{stroke-width:4px}.cls-16{opacity:.8}.cls-7{fill:#f15a24;stroke-width:.75px}</style></defs><rect style="font-variation-settings:'wght' 300" id="rect61" width="818" height="365" x="0" y="0" fill="#fff" stroke-width="1.002" stroke-linecap="round"/><g id="g16"><g class="cls-16" id="g9"><rect class="cls-11" x="328.1" y="89.01" width=".19" height="105.02" id="rect1"/><rect class="cls-11" x="343.12" y="89.01" width=".19" height="105.02" id="rect2"/><rect class="cls-11" x="358.13" y="89.01" width=".19" height="105.02" id="rect3"/><rect class="cls-11" x="373.15" y="89.01" width=".19" height="105.02" id="rect4"/><rect class="cls-11" x="388.16" y="89.01" width=".19" height="105.02" id="rect5"/><rect class="cls-11" x="403.18" y="89.01" width=".19" height="105.02" id="rect6"/><rect class="cls-11" x="418.19" y="89.01" width=".19" height="105.02" id="rect7"/><rect class="cls-11" x="433.21" y="89.01" width=".19" height="105.02" id="rect8"/><rect class="cls-11" x="448.22" y="89.01" width=".19" height="105.02" id="rect9"/></g><g class="cls-16" id="g15"><rect class="cls-11" x="318" y="104.31" width="141.12" height=".19" id="rect10"/><rect class="cls-11" x="318" y="119.32" width="141.12" height=".19" id="rect11"/><rect class="cls-11" x="318" y="134.34" width="141.12" height=".19" id="rect12"/><rect class="cls-11" x="318" y="149.35" width="141.12" height=".19" id="rect13"/><rect class="cls-11" x="318" y="164.37" width="141.12" height=".19" id="rect14"/><rect class="cls-11" x="318" y="179.39" width="141.12" height=".19" id="rect15"/></g></g><g id="g23"><g class="cls-16" id="g18"><rect class="cls-11" x="683.43" y="206" width=".19" height="61" id="rect16"/><rect class="cls-11" x="698.45" y="206" width=".19" height="61" id="rect17"/><rect class="cls-11" x="713.46" y="206" width=".19" height="61" id="rect18"/></g><g class="cls-16" id="g22"><rect class="cls-11" x="672" y="214.74" width="52.36" height=".19" id="rect19"/><rect class="cls-11" x="672" y="229.75" width="52.36" height=".19" id="rect20"/><rect class="cls-11" x="672" y="244.77" width="52.36" height=".19" id="rect21"/><rect class="cls-11" x="672" y="259.79" width="52.36" height=".19" id="rect22"/></g></g><text class="cls-15" transform="translate(108.53 69.36)" id="text23"><tspan x="0" y="0" id="tspan23">DECENTRALIZED IDENTITY</tspan></text><g id="g31"><path class="cls-13" d="m83.28,228.18c-.44,0-.79-.35-.79-.79v-3.09c0-.44.35-.79.79-.79s.79.35.79.79v3.09c0,.44-.35.79-.79.79Z" id="path23"/><path class="cls-13" d="m83.28,251.6c-.44,0-.79-.35-.79-.79v-15.51c0-.44.35-.79.79-.79s.79.35.79.79v15.51c0,.44-.35.79-.79.79Z" id="path24"/><path class="cls-8" d="m83.36,235.7c-2.51,0-4.55-2.04-4.55-4.55s2.04-4.55,4.55-4.55,4.55,2.04,4.55,4.55-2.04,4.55-4.55,4.55Zm0-7.52c-1.64,0-2.97,1.33-2.97,2.97s1.33,2.97,2.97,2.97,2.97-1.33,2.97-2.97-1.33-2.97-2.97-2.97Z" id="path25"/><path class="cls-13" d="m93.18,238.86c-.44,0-.79-.35-.79-.79v-13.77c0-.44.35-.79.79-.79s.79.35.79.79v13.77c0,.44-.35.79-.79.79Z" id="path26"/><path class="cls-13" d="m93.18,251.6c-.44,0-.79-.35-.79-.79v-4.43c0-.44.35-.79.79-.79s.79.35.79.79v4.43c0,.44-.35.79-.79.79Z" id="path27"/><path class="cls-8" d="m93.26,247.17c-2.51,0-4.55-2.04-4.55-4.55s2.04-4.55,4.55-4.55,4.55,2.04,4.55,4.55-2.04,4.55-4.55,4.55Zm0-7.52c-1.64,0-2.97,1.33-2.97,2.97s1.33,2.97,2.97,2.97,2.97-1.33,2.97-2.97-1.33-2.97-2.97-2.97Z" id="path28"/><path class="cls-13" d="m73.39,236.09c-.44,0-.79-.35-.79-.79v-11c0-.44.35-.79.79-.79s.79.35.79.79v11c0,.44-.35.79-.79.79Z" id="path29"/><path class="cls-13" d="m73.39,251.6c-.44,0-.79-.35-.79-.79v-7.6c0-.44.35-.79.79-.79s.79.35.79.79v7.6c0,.44-.35.79-.79.79Z" id="path30"/><path class="cls-8" d="m73.47,243.61c-2.51,0-4.55-2.04-4.55-4.55s2.04-4.55,4.55-4.55,4.55,2.04,4.55,4.55-2.04,4.55-4.55,4.55Zm0-7.52c-1.64,0-2.97,1.33-2.97,2.97s1.33,2.97,2.97,2.97,2.97-1.33,2.97-2.97-1.33-2.97-2.97-2.97Z" id="path31"/></g><text class="cls-15" transform="translate(108.54 126.92)" id="text31"><tspan x="0" y="0" id="tspan31">NETWORK OPERATIONS</tspan></text><text class="cls-15" transform="translate(108.54 187.36)" id="text32"><tspan x="0" y="0" id="tspan32">SOCIAL GRAPH</tspan></text><text class="cls-15" transform="translate(108.54 241.67)" id="text33"><tspan x="0" y="0" id="tspan33">CONTENT MANAGEMENT</tspan></text><line class="cls-6" x1="770" y1="279.61" x2="62" y2="279.61" id="line33"/><g id="g34"><line class="cls-5" x1="614.81" y1="74.37" x2="108" y2="74.37" id="line34"/><polygon class="cls-12" points="611.49 70.28 610.81 71.01 614.42 74.37 610.81 77.73 611.49 78.46 615.89 74.37 611.49 70.28" id="polygon34"/></g><g id="g35"><line class="cls-5" x1="596.81" y1="133.37" x2="108" y2="133.37" id="line35"/><polygon class="cls-12" points="593.49 129.28 592.81 130.01 596.42 133.37 592.81 136.73 593.49 137.46 597.89 133.37 593.49 129.28" id="polygon35"/></g><g id="g36"><line class="cls-5" x1="564.92" y1="192.37" x2="108" y2="192.37" id="line36"/><polygon class="cls-12" points="561.6 188.28 560.92 189.01 564.53 192.37 560.92 195.73 561.6 196.46 566 192.37 561.6 188.28" id="polygon36"/></g><g id="g37"><line class="cls-5" x1="517.49" y1="246.37" x2="108" y2="246.37" id="line37"/><polygon class="cls-12" points="514.18 242.28 513.5 243.01 517.11 246.37 513.5 249.73 514.18 250.46 518.58 246.37 514.18 242.28" id="polygon37"/></g><g id="g47"><path class="cls-13" d="m89.69,54.06c-.11,0-.22-.03-.32-.08-2.45-1.26-6.94-1.44-9.06-.37-.34.17-.76.04-.93-.31-.17-.34-.04-.76.31-.93,2.48-1.26,7.5-1.06,10.32.37.34.17.48.59.31.93-.12.24-.36.39-.63.38Z" id="path37"/><path class="cls-13" d="m92.33,64.44c-.26,0-.49-.14-.61-.36-1.46-2.73-4.36-4.57-7.75-4.94-3.53-.38-6.94.91-8.91,3.37-.24.3-.68.34-.98.1-.29-.24-.34-.66-.11-.96,2.25-2.83,6.14-4.32,10.14-3.89,3.85.42,7.15,2.53,8.82,5.66.18.34.05.76-.28.94,0,0,0,0,0,0-.1.05-.21.08-.33.08Z" id="path38"/><g id="g40"><path class="cls-10" d="m87.5,55.15c-3.99-1.16-8.61-.61-11.29,1.33-.02.01-.03.02-.05.03-.3.24-.35.67-.12.97.24.3.67.35.97.12,2.46-1.78,6.91-2.2,10.58-.98,0,0,.58.2.77-.43.11-.34.02-.8-.87-1.05Z" id="path39"/><path class="cls-10" d="m92.66,58.12s-.6-.69-1.29-1.15c-.47-.35-.95-.65-1.44-.88-.47-.22-.81,0-.96.34-.15.35.02.76.37.91.71.34,1.41.84,2.06,1.46.08.08.15.16.23.24.24.3.68.34.98.1.3-.24.4-.63.06-1.02Z" id="path40"/></g><path class="cls-13" d="m88.41,74.74c-.03.24-.07.47-.13.71-.5,1.86-2.42,2.96-4.28,2.46-1.83-.55-2.95-2.4-2.6-4.28.38-2.12.29-1.65.6-2.74.17-.51.7-.59,1.02-.38.55.36.19.9-.25,3.35-.26,1.18.43,2.36,1.58,2.72,1.12.3,2.27-.36,2.57-1.48,0,0,0-.01,0-.02l.09-.54c.17-1.08,1.54-.84,1.39.2Z" id="path41"/><path class="cls-13" d="m88.14,73.25s-.09,0-.14-.01c-.37-.08-.61-.44-.53-.81.01-.05.64-3.25-.83-5.37-.69-1-1.77-1.62-3.2-1.84-1.36-.21-2.57.14-3.61,1.04-1.87,1.62-2.63,4.53-2.62,5.41,0,.38-.3.69-.68.7,0,0,0,0,0,0-.38,0-.68-.3-.69-.68-.01-1.27.91-4.57,3.1-6.47,1.36-1.18,2.95-1.64,4.72-1.36,1.82.28,3.21,1.1,4.12,2.42,1.81,2.62,1.08,6.28,1.04,6.43-.07.32-.35.55-.67.55Z" id="path42"/><g id="g44"><path class="cls-10" d="m80.16,69.53c-.11-.04-.22-.06-.33-.04-.68.09-.92,1.37-.99,1.67h0c-.28,1.06-.51,2.44-.24,3.95.04.26.23.47.48.55.11.03.22.04.33.02.38-.07.63-.43.57-.81,0,0,0,0,0,0-.26-1.44.02-2.75.31-3.73.06-.2.19-.51.26-.69,0,0,0,0,0,0,.14-.36-.04-.76-.4-.9Z" id="path43"/><path class="cls-10" d="m83.29,66.73c-.92-.18-2.16-.03-3.08.94-.18.19-.25.46-.16.71.04.11.1.2.18.28.28.27.72.26.99-.02,0,0,0,0,0,0,.09-.09.17-.22.45-.37.4-.21.88-.29,1.36-.2,1.17.29,1.94,1.42,1.76,2.61-.27,2.47-.37,2.48-.63,3.15-.14.36.03.77.39.91s.77-.03.91-.39c.42-1.06.49-1.4.72-3.54.23-1.9-1.01-3.67-2.88-4.09Z" id="path44"/></g><g id="g46"><path class="cls-10" d="m91.7,67.98c-.58-3.58-4.09-7-7.67-7.43-1.87-.23-3.25.1-3.45.15-.01,0-.67.11-.54.85.07.38.47.58.84.5.14-.03.28-.05.41-.07.47-.06,1.24-.22,2.57-.06,2.98.37,5.99,3.31,6.48,6.29.06.34.35.58.69.58h.1s0-.01,0-.01c.38-.06.63-.42.57-.8Z" id="path45"/><path class="cls-10" d="m78.78,61.58c-.24,0-.58.2-.58.2,0,0-3.22,1.9-4.46,6.01,0,.01,0,.02,0,.04-.09.37.13.75.5.84.37.09.73-.14.84-.5.98-3.29,3.6-5.06,3.6-5.06.07-.04.36-.27.45-.33.55-.42.05-1.2-.34-1.2Z" id="path46"/></g></g><g id="g52"><g id="g48"><path class="cls-9" d="m78.43,130.73c1.54,0,2.98-.6,4.07-1.69s1.69-2.54,1.69-4.07c0-1.22-.37-2.38-1.08-3.36h-.1v-.14c-1.1-1.44-2.77-2.26-4.57-2.26-3.18,0-5.76,2.58-5.76,5.76s2.58,5.76,5.76,5.76h0Z" id="path47"/><path class="cls-13" d="m75.67,131.32c.87.38,1.8.57,2.76.57,2.42,0,4.68-1.28,5.93-3.35l3.67,1.82.62-.99-3.77-1.87c.32-.8.48-1.65.48-2.53,0-1.3-.36-2.56-1.05-3.66l2.19-1.88-.42-1.26-2.46,2.21c-1.32-1.49-3.2-2.34-5.18-2.34-1.36,0-2.67.39-3.81,1.14l-2.09-2.66-.9.74,2.07,2.64c-1.4,1.31-2.21,3.14-2.21,5.07,0,2.36,1.17,4.52,3.14,5.8l-1.54,2.85.97.66,1.6-2.96Zm-3.01-6.36c0-3.18,2.58-5.76,5.76-5.76,1.81,0,3.47.82,4.57,2.26v.14h.1c.71.98,1.08,2.14,1.08,3.36,0,1.54-.6,2.98-1.69,4.07s-2.53,1.69-4.07,1.69h0c-3.18,0-5.76-2.58-5.76-5.76Z" id="path48"/></g><path class="cls-13" d="m71.99,139.44c-1.73,0-3.14-1.41-3.14-3.14s1.41-3.14,3.14-3.14,3.14,1.41,3.14,3.14-1.41,3.14-3.14,3.14Zm0-5.19c-1.13,0-2.05.92-2.05,2.05s.92,2.05,2.05,2.05,2.05-.92,2.05-2.05-.92-2.05-2.05-2.05Z" id="path49"/><path class="cls-13" d="m93.23,138.08c-3.32,0-6.02-2.7-6.02-6.02s2.7-6.02,6.02-6.02,6.02,2.7,6.02,6.02-2.7,6.02-6.02,6.02Zm0-10.95c-2.71,0-4.92,2.21-4.92,4.92s2.21,4.92,4.92,4.92,4.92-2.21,4.92-4.92-2.21-4.92-4.92-4.92Z" id="path50"/><path class="cls-13" d="m70.07,117.94c-2.2,0-3.99-1.79-3.99-3.99s1.79-3.99,3.99-3.99,3.99,1.79,3.99,3.99-1.79,3.99-3.99,3.99Zm0-6.74c-1.51,0-2.74,1.23-2.74,2.74s1.23,2.74,2.74,2.74,2.74-1.23,2.74-2.74-1.23-2.74-2.74-2.74Z" id="path51"/><path class="cls-13" d="m88.43,120.39c-1.68,0-3.05-1.37-3.05-3.05s1.37-3.05,3.05-3.05,3.05,1.37,3.05,3.05-1.37,3.05-3.05,3.05Zm0-5.01c-1.08,0-1.95.88-1.95,1.95s.88,1.95,1.95,1.95,1.95-.88,1.95-1.95-.88-1.95-1.95-1.95Z" id="path52"/></g><g id="g56"><path class="cls-14" d="m92.29,182.38c-1.02.02-2.03.28-2.94.75-.32-.58-.72-1.12-1.19-1.58-1.51-1.5-3.64-2.2-5.75-1.88-2.11.31-3.94,1.59-4.96,3.46-1.01-.52-2.13-.78-3.26-.75-1.81.07-3.53.84-4.78,2.15-1.25,1.31-1.94,3.06-1.92,4.88v3.29c0,.47.38.86.86.86s.86-.38.86-.86v-3.29c-.04-2.84,2.19-5.19,5.02-5.31.9-.02,1.79.2,2.58.64-.17.62-.25,1.26-.26,1.9v4.62c0,1.27,1.03,2.31,2.31,2.31s2.31-1.03,2.31-2.31v-2.04c0-1.84-.76-3.6-2.09-4.88l-.24-.22c.73-1.46,2.11-2.47,3.72-2.73,1.61-.25,3.24.28,4.39,1.44.4.39.74.84.99,1.34-1.5,1.35-2.36,3.27-2.35,5.29v1.84h0c0,1.27,1.03,2.31,2.31,2.31s2.31-1.03,2.31-2.31v-4.86c0-.58-.07-1.16-.21-1.72.71-.4,1.51-.63,2.33-.64,1.37-.02,2.7.51,3.68,1.47.98.96,1.53,2.28,1.53,3.65v3.51c0,.47.38.86.86.86s.86-.38.86-.86v-3.49c0-1.84-.74-3.6-2.05-4.89-1.31-1.29-3.08-2-4.92-1.98v.04Zm-12.88,6.87v2.03c0,.33-.26.59-.59.59s-.59-.26-.59-.59v-5.3c.77.9,1.2,2.04,1.21,3.23l-.03.04Zm9.11,2c0,.33-.26.59-.59.59s-.59-.26-.59-.59v-1.84c0-1.22.41-2.41,1.17-3.37v.39l.02,4.82Z" id="path53"/><path class="cls-7" d="m83.31,177.34c-2.64,0-4.79-2.15-4.79-4.79s2.15-4.79,4.79-4.79,4.79,2.15,4.79,4.79-2.15,4.79-4.79,4.79Zm0-8.7c-2.16,0-3.91,1.76-3.91,3.91s1.76,3.91,3.91,3.91,3.91-1.76,3.91-3.91-1.76-3.91-3.91-3.91Z" id="path54"/><path class="cls-7" d="m92.76,180.34c-1.78,0-3.24-1.45-3.24-3.24s1.45-3.24,3.24-3.24,3.24,1.45,3.24,3.24-1.45,3.24-3.24,3.24Zm0-5.88c-1.46,0-2.65,1.19-2.65,2.65s1.19,2.65,2.65,2.65,2.65-1.19,2.65-2.65-1.19-2.65-2.65-2.65Z" id="path55"/><path class="cls-7" d="m73.39,180.24c-1.78,0-3.24-1.45-3.24-3.24s1.45-3.24,3.24-3.24,3.24,1.45,3.24,3.24-1.45,3.24-3.24,3.24Zm0-5.88c-1.46,0-2.65,1.19-2.65,2.65s1.19,2.65,2.65,2.65,2.65-1.19,2.65-2.65-1.19-2.65-2.65-2.65Z" id="path56"/></g><path class="cls-3" d="m292,281.1c0-129.51,104.99-234.5,234.5-234.5s234.5,104.99,234.5,234.5" id="path57"/><path class="cls-1" d="m292,281.1c0-108.25,87.75-196,196-196s196,87.75,196,196" id="path58"/><path class="cls-4" d="m292,281.1c0-88.09,71.41-159.5,159.5-159.5s159.5,71.41,159.5,159.5" id="path59"/><path class="cls-2" d="m292,281.1c0-67.38,54.62-122,122-122s122,54.62,122,122" id="path60"/><circle class="cls-13" cx="349.5" cy="278.1" r="59.5" id="circle60"/><g id="g61"><circle class="cls-13" cx="351.28" cy="278.93" r="48.62" id="circle61"/><polygon class="cls-8" points="331.81 250.19 331.81 312.59 342.77 312.59 342.77 293.21 364.77 283.79 364.5 272.65 342.86 281.8 342.86 260.6 370.75 260.6 370.75 250.19 331.81 250.19 331.81 250.19" id="polygon61"/></g></svg>