<svg fill="none" viewBox="0 0 751 800" xmlns="http://www.w3.org/2000/svg"><path d="m0 0h751v800h-751z" fill="none"/><rect fill="#ffd647" height="137" rx="8.5" width="358" x="77.5" y="46.5"/><rect height="137" rx="8.5" stroke="#18465e" stroke-width="3" width="358" x="77.5" y="46.5"/><path d="m151.395 134.966h18.896c-.123.387-.323.833-.648 1.276-.698.953-2.066 2.022-4.85 2.369-.057.007-.112.018-.165.034-1.27.226-2.244 1.328-2.244 2.668 0 1.505 1.229 2.71 2.726 2.71h26.461c1.497 0 2.726-1.205 2.726-2.71 0-1.259-.859-2.307-2.015-2.617-.092-.043-.193-.072-.299-.085-2.784-.347-4.152-1.416-4.85-2.369-.325-.443-.525-.889-.648-1.276h18.896c2.63 0 4.793-2.034 4.955-4.619.008-.051.013-.103.013-.156v-7.356c0-.017-.001-.035-.002-.052v-31.3223c0-3.0202-2.476-5.4607-5.502-5.4607h-52.913c-3.026 0-5.503 2.4396-5.503 5.4607v32.1573c0 .017.001.031.001.042l.001.022v5.94l-.001.016c-.001.015-.001.041-.001.071v.328c0 .03 0 .056.001.072l.001.016v.066c0 .037.002.075.006.111.139 2.607 2.313 4.664 4.958 4.664z" fill="#fff" stroke="#18465e" stroke-linejoin="round" stroke-width="2"/><path clip-rule="evenodd" d="m209.347 91.4607v32.1133l.002-.002v6.683h-.006c-.081 2.098-1.824 3.775-3.962 3.775h-20.088c.035.882.531 4.885 6.567 5.637h-.289c.953 0 1.726.765 1.726 1.71 0 .944-.773 1.71-1.726 1.71h-26.461c-.953 0-1.726-.766-1.726-1.71 0-.945.773-1.71 1.726-1.71h-.194c6.036-.752 6.531-4.755 6.567-5.637h-20.088c-2.138 0-3.881-1.677-3.962-3.775h-.002v-.084l-.001-.022c-.001-.016-.001-.032-.001-.048v-.328c0-.015 0-.031.001-.046l.001-.024v-5.293c0-.009-.001-.018-.001-.027 0-.01-.001-.019-.001-.028v-32.8943c0-2.4599 2.021-4.4607 4.503-4.4607h52.913c2.483 0 4.502 2.0015 4.502 4.4607zm-3.822 37.9073c.435 0 1.468-1.024 1.468-1.455v-37.1255c0-.4309-1.034-1.4548-1.469-1.4548h-54.272c-.435 0-1.468 1.0239-1.468 1.4548v37.1255c0 .431 1.033 1.455 1.468 1.455zm-25.125 2.966c.356 0 .666-.203.824-.501.072-.136.113-.291.113-.456s-.041-.321-.113-.457c-.158-.298-.468-.501-.824-.501h-3.486c-.259 0-.493.107-.663.281-.05.051-.095.11-.132.172-.09.147-.142.319-.142.505 0 .529.419.957.937.957z" fill="#ffd647" fill-rule="evenodd" opacity=".2"/><path d="m184.739 103.424c.002-.071.003-.14.003-.207 0-3.2564-2.437-5.8967-5.897-5.8967-3.461 0-6.266 2.6403-6.266 5.8967 0 .148.006.305.017.469.001.359.041.722.133 1.081.018.108.038.218.06.329-.018-.001-.036-.001-.054-.001-.479 0-.971.374-.445 2.24.411 1.453.793 1.861 1.082 1.884.162 1.051.527 2.275 1.313 3.295-.067.424-.199 1.018-.45 1.429 0 0-.006.003-.014.009-.179.114-2.047 1.303-4.987 2.021-.166.04-.32.534-.463.994-.119.379-.23.736-.334.796 2.33 3.434 5.549 4.219 10.04 4.219 4.49 0 7.71-.785 10.039-4.219-.104-.06-.215-.417-.333-.796-.144-.46-.298-.954-.463-.994-3.09-.755-4.916-1.904-4.916-1.904-.321-.424-.474-1.141-.544-1.61.697-.934 1.051-2.03 1.225-3.006.063.043.136.072.216.072.292 0 .685-.387 1.108-1.885.438-1.551.172-2.071-.206-2.202.155-.745.191-1.414.136-2.014z" fill="#18465e"/><path d="m151.114 90.6855h54.5485v37.5942h-54.5485z" fill="#ffd647" opacity=".5"/><path d="m230.065 110.83v2.556h4.122v2.376h-4.122v2.772h4.662v2.466h-7.74v-12.636h7.74v2.466zm12.78.018c1.176 0 2.112.384 2.808 1.152.708.756 1.062 1.8 1.062 3.132v5.868h-3.06v-5.454c0-.672-.174-1.194-.522-1.566s-.816-.558-1.404-.558-1.056.186-1.404.558-.522.894-.522 1.566v5.454h-3.078v-10.044h3.078v1.332c.312-.444.732-.792 1.26-1.044.528-.264 1.122-.396 1.782-.396zm5.397 5.112c0-1.032.192-1.938.576-2.718.396-.78.93-1.38 1.602-1.8s1.422-.63 2.25-.63c.66 0 1.26.138 1.8.414.552.276.984.648 1.296 1.116v-4.662h3.078v13.32h-3.078v-1.44c-.288.48-.702.864-1.242 1.152-.528.288-1.146.432-1.854.432-.828 0-1.578-.21-2.25-.63-.672-.432-1.206-1.038-1.602-1.818-.384-.792-.576-1.704-.576-2.736zm7.524.018c0-.768-.216-1.374-.648-1.818-.42-.444-.936-.666-1.548-.666s-1.134.222-1.566.666c-.42.432-.63 1.032-.63 1.8s.21 1.38.63 1.836c.432.444.954.666 1.566.666s1.128-.222 1.548-.666c.432-.444.648-1.05.648-1.818zm12.144-7.614v7.56c0 .756.186 1.338.558 1.746s.918.612 1.638.612 1.272-.204 1.656-.612.576-.99.576-1.746v-7.56h3.078v7.542c0 1.128-.24 2.082-.72 2.862s-1.128 1.368-1.944 1.764c-.804.396-1.704.594-2.7.594s-1.89-.192-2.682-.576c-.78-.396-1.398-.984-1.854-1.764-.456-.792-.684-1.752-.684-2.88v-7.542zm13.753 12.78c-.876 0-1.656-.15-2.34-.45s-1.224-.708-1.62-1.224c-.396-.528-.618-1.116-.666-1.764h3.042c.036.348.198.63.486.846s.642.324 1.062.324c.384 0 .678-.072.882-.216.216-.156.324-.354.324-.594 0-.288-.15-.498-.45-.63-.3-.144-.786-.3-1.458-.468-.72-.168-1.32-.342-1.8-.522-.48-.192-.894-.486-1.242-.882-.348-.408-.522-.954-.522-1.638 0-.576.156-1.098.468-1.566.324-.48.792-.858 1.404-1.134.624-.276 1.362-.414 2.214-.414 1.26 0 2.25.312 2.97.936.732.624 1.152 1.452 1.26 2.484h-2.844c-.048-.348-.204-.624-.468-.828-.252-.204-.588-.306-1.008-.306-.36 0-.636.072-.828.216-.192.132-.288.318-.288.558 0 .288.15.504.45.648.312.144.792.288 1.44.432.744.192 1.35.384 1.818.576.468.18.876.48 1.224.9.36.408.546.96.558 1.656 0 .588-.168 1.116-.504 1.584-.324.456-.798.816-1.422 1.08-.612.264-1.326.396-2.142.396zm15.419-5.328c0 .288-.018.588-.054.9h-6.966c.048.624.246 1.104.594 1.44.36.324.798.486 1.314.486.768 0 1.302-.324 1.602-.972h3.276c-.168.66-.474 1.254-.918 1.782-.432.528-.978.942-1.638 1.242s-1.398.45-2.214.45c-.984 0-1.86-.21-2.628-.63s-1.368-1.02-1.8-1.8-.648-1.692-.648-2.736.21-1.956.63-2.736c.432-.78 1.032-1.38 1.8-1.8s1.65-.63 2.646-.63c.972 0 1.836.204 2.592.612s1.344.99 1.764 1.746c.432.756.648 1.638.648 2.646zm-3.15-.81c0-.528-.18-.948-.54-1.26s-.81-.468-1.35-.468c-.516 0-.954.15-1.314.45-.348.3-.564.726-.648 1.278zm7.852-2.376c.36-.552.81-.984 1.35-1.296.54-.324 1.14-.486 1.8-.486v3.258h-.846c-.768 0-1.344.168-1.728.504-.384.324-.576.9-.576 1.728v4.662h-3.078v-10.044h3.078zm12.576 12.132c-1.164-1.116-2.07-2.556-2.718-4.32s-.972-3.666-.972-5.706c0-2.064.336-3.99 1.008-5.778.672-1.8 1.626-3.264 2.862-4.392h3.024v.288c-1.26 1.248-2.232 2.748-2.916 4.5-.684 1.74-1.026 3.534-1.026 5.382 0 1.836.33 3.606.99 5.31s1.59 3.18 2.79 4.428v.288zm18.748-16.398v12.636h-3.078v-7.578l-2.826 7.578h-2.484l-2.844-7.596v7.596h-3.078v-12.636h3.636l3.546 8.748 3.51-8.748zm6.785 12.762c-.924 0-1.752-.15-2.484-.45s-1.32-.744-1.764-1.332c-.432-.588-.66-1.296-.684-2.124h3.276c.048.468.21.828.486 1.08.276.24.636.36 1.08.36.456 0 .816-.102 1.08-.306.264-.216.396-.51.396-.882 0-.312-.108-.57-.324-.774-.204-.204-.462-.372-.774-.504-.3-.132-.732-.282-1.296-.45-.816-.252-1.482-.504-1.998-.756s-.96-.624-1.332-1.116-.558-1.134-.558-1.926c0-1.176.426-2.094 1.278-2.754.852-.672 1.962-1.008 3.33-1.008 1.392 0 2.514.336 3.366 1.008.852.66 1.308 1.584 1.368 2.772h-3.33c-.024-.408-.174-.726-.45-.954-.276-.24-.63-.36-1.062-.36-.372 0-.672.102-.9.306-.228.192-.342.474-.342.846 0 .408.192.726.576.954s.984.474 1.8.738c.816.276 1.476.54 1.98.792.516.252.96.618 1.332 1.098s.558 1.098.558 1.854c0 .72-.186 1.374-.558 1.962-.36.588-.888 1.056-1.584 1.404s-1.518.522-2.466.522zm14.368-2.358h-4.716l-.756 2.232h-3.222l4.572-12.636h3.564l4.572 12.636h-3.258zm-.792-2.376-1.566-4.626-1.548 4.626zm5.37 8.37v-.288c1.2-1.248 2.13-2.724 2.79-4.428s.99-3.474.99-5.31c0-1.848-.342-3.642-1.026-5.382-.684-1.752-1.656-3.252-2.916-4.5v-.288h3.024c1.236 1.128 2.19 2.592 2.862 4.392.672 1.788 1.008 3.714 1.008 5.778 0 2.04-.324 3.942-.972 5.706s-1.554 3.204-2.718 4.32z" fill="#18465e"/><rect fill="#5e69ff" height="137" rx="8.5" width="358" x="315.5" y="331.5"/><rect height="137" rx="8.5" stroke="#18465e" stroke-width="3" width="358" x="315.5" y="331.5"/><rect fill="#fff" height="48" rx="5" width="60" x="353.5" y="376"/><path d="m412.454 419.409v.001c0 1.987-1.605 3.59-3.642 3.59h-50.67c-2.037 0-3.642-1.603-3.642-3.59v-31.41h57.999z" fill="#fff" stroke="#18465e" stroke-width="2"/><path d="m412.454 380.595v-.005c0-1.987-1.605-3.59-3.642-3.59h-50.67c-2.037 0-3.642 1.603-3.642 3.59v7.41h57.994z" fill="#5e69ff" stroke="#18465e" stroke-width="2"/><g fill="#18465e"><ellipse cx="361.636" cy="382.5" rx="1.52542" ry="1.5"/><ellipse cx="367.737" cy="382.5" rx="1.52542" ry="1.5"/><ellipse cx="373.839" cy="382.5" rx="1.52542" ry="1.5"/><path d="m396.621 404.494-5.799 4.779c-.55.439-.6 1.22-.15 1.707.25.293.6.439.95.439.3 0 .55-.097.8-.292l6.899-5.706c.3-.244.45-.586.45-.927s-.15-.683-.45-.927l-6.899-5.706c-.5-.439-1.3-.39-1.75.147-.45.487-.4 1.268.15 1.707z"/><path d="m367.229 404.494c0 .341.15.683.45.927l6.899 5.706c.25.195.5.292.8.292.35 0 .7-.146.95-.439.45-.487.4-1.268-.15-1.707l-5.799-4.779 5.799-4.779c.55-.439.6-1.171.15-1.707-.45-.537-1.2-.586-1.75-.147l-6.899 5.706c-.3.244-.45.586-.45.927z"/><path d="m385.25 395.768-5.85 16.525c-.25.634.05 1.317.7 1.609.15.049.3.098.45.098.5 0 .95-.293 1.15-.78l5.9-16.525c.25-.634-.05-1.366-.7-1.609-.65-.244-1.4.048-1.65.682z"/></g><path d="m412.454 419.409v.001c0 1.987-1.605 3.59-3.642 3.59h-50.67c-2.037 0-3.642-1.603-3.642-3.59v-31.41h57.999z" fill="#5e69ff" opacity=".5" stroke="#18465e" stroke-width="2"/><path d="m437.684 404.268h-4.716l-.756 2.232h-3.222l4.572-12.636h3.564l4.572 12.636h-3.258zm-.792-2.376-1.566-4.626-1.548 4.626zm9.276-4.014c.3-.468.714-.846 1.242-1.134s1.146-.432 1.854-.432c.828 0 1.578.21 2.25.63s1.2 1.02 1.584 1.8c.396.78.594 1.686.594 2.718s-.198 1.944-.594 2.736c-.384.78-.912 1.386-1.584 1.818-.672.42-1.422.63-2.25.63-.696 0-1.314-.144-1.854-.432-.528-.288-.942-.66-1.242-1.116v6.192h-3.078v-14.832h3.078zm4.392 3.582c0-.768-.216-1.368-.648-1.8-.42-.444-.942-.666-1.566-.666-.612 0-1.134.222-1.566.666-.42.444-.63 1.05-.63 1.818s.21 1.374.63 1.818c.432.444.954.666 1.566.666s1.134-.222 1.566-.666c.432-.456.648-1.068.648-1.836zm7.824-3.582c.3-.468.714-.846 1.242-1.134s1.146-.432 1.854-.432c.828 0 1.578.21 2.25.63s1.2 1.02 1.584 1.8c.396.78.594 1.686.594 2.718s-.198 1.944-.594 2.736c-.384.78-.912 1.386-1.584 1.818-.672.42-1.422.63-2.25.63-.696 0-1.314-.144-1.854-.432-.528-.288-.942-.66-1.242-1.116v6.192h-3.078v-14.832h3.078zm4.392 3.582c0-.768-.216-1.368-.648-1.8-.42-.444-.942-.666-1.566-.666-.612 0-1.134.222-1.566.666-.42.444-.63 1.05-.63 1.818s.21 1.374.63 1.818c.432.444.954.666 1.566.666s1.134-.222 1.566-.666c.432-.456.648-1.068.648-1.836zm7.825-8.28v13.32h-3.078v-13.32zm3.779 2.232c-.54 0-.984-.156-1.332-.468-.336-.324-.504-.72-.504-1.188 0-.48.168-.876.504-1.188.348-.324.792-.486 1.332-.486.528 0 .96.162 1.296.486.348.312.522.708.522 1.188 0 .468-.174.864-.522 1.188-.336.312-.768.468-1.296.468zm1.53 1.044v10.044h-3.078v-10.044zm1.618 5.022c0-1.044.21-1.956.63-2.736.432-.78 1.026-1.38 1.782-1.8.768-.42 1.644-.63 2.628-.63 1.26 0 2.31.33 3.15.99.852.66 1.41 1.59 1.674 2.79h-3.276c-.276-.768-.81-1.152-1.602-1.152-.564 0-1.014.222-1.35.666-.336.432-.504 1.056-.504 1.872s.168 1.446.504 1.89c.336.432.786.648 1.35.648.792 0 1.326-.384 1.602-1.152h3.276c-.264 1.176-.822 2.1-1.674 2.772s-1.902 1.008-3.15 1.008c-.984 0-1.86-.21-2.628-.63-.756-.42-1.35-1.02-1.782-1.8-.42-.78-.63-1.692-.63-2.736zm10.899-.018c0-1.032.192-1.938.576-2.718.396-.78.93-1.38 1.602-1.8s1.422-.63 2.25-.63c.708 0 1.326.144 1.854.432.54.288.954.666 1.242 1.134v-1.422h3.078v10.044h-3.078v-1.422c-.3.468-.72.846-1.26 1.134-.528.288-1.146.432-1.854.432-.816 0-1.56-.21-2.232-.63-.672-.432-1.206-1.038-1.602-1.818-.384-.792-.576-1.704-.576-2.736zm7.524.018c0-.768-.216-1.374-.648-1.818-.42-.444-.936-.666-1.548-.666s-1.134.222-1.566.666c-.42.432-.63 1.032-.63 1.8s.21 1.38.63 1.836c.432.444.954.666 1.566.666s1.128-.222 1.548-.666c.432-.444.648-1.05.648-1.818zm10.903 2.412v2.61h-1.566c-1.116 0-1.986-.27-2.61-.81-.624-.552-.936-1.446-.936-2.682v-3.996h-1.224v-2.556h1.224v-2.448h3.078v2.448h2.016v2.556h-2.016v4.032c0 .3.072.516.216.648s.384.198.72.198zm3.262-8.478c-.54 0-.984-.156-1.332-.468-.336-.324-.504-.72-.504-1.188 0-.48.168-.876.504-1.188.348-.324.792-.486 1.332-.486.528 0 .96.162 1.296.486.348.312.522.708.522 1.188 0 .468-.174.864-.522 1.188-.336.312-.768.468-1.296.468zm1.53 1.044v10.044h-3.078v-10.044zm6.803 10.188c-.984 0-1.872-.21-2.664-.63-.78-.42-1.398-1.02-1.854-1.8-.444-.78-.666-1.692-.666-2.736 0-1.032.228-1.938.684-2.718.456-.792 1.08-1.398 1.872-1.818s1.68-.63 2.664-.63 1.872.21 2.664.63 1.416 1.026 1.872 1.818c.456.78.684 1.686.684 2.718s-.234 1.944-.702 2.736c-.456.78-1.086 1.38-1.89 1.8-.792.42-1.68.63-2.664.63zm0-2.664c.588 0 1.086-.216 1.494-.648.42-.432.63-1.05.63-1.854s-.204-1.422-.612-1.854c-.396-.432-.888-.648-1.476-.648-.6 0-1.098.216-1.494.648-.396.42-.594 1.038-.594 1.854 0 .804.192 1.422.576 1.854.396.432.888.648 1.476.648zm13.009-7.632c1.176 0 2.112.384 2.808 1.152.708.756 1.062 1.8 1.062 3.132v5.868h-3.06v-5.454c0-.672-.174-1.194-.522-1.566s-.816-.558-1.404-.558-1.056.186-1.404.558-.522.894-.522 1.566v5.454h-3.078v-10.044h3.078v1.332c.312-.444.732-.792 1.26-1.044.528-.264 1.122-.396 1.782-.396zm13.963 13.914c-1.164-1.116-2.07-2.556-2.718-4.32s-.972-3.666-.972-5.706c0-2.064.336-3.99 1.008-5.778.672-1.8 1.626-3.264 2.862-4.392h3.024v.288c-1.26 1.248-2.232 2.748-2.916 4.5-.684 1.74-1.026 3.534-1.026 5.382 0 1.836.33 3.606.99 5.31s1.59 3.18 2.79 4.428v.288zm14.068-12.33c0 .732-.168 1.404-.504 2.016-.336.6-.852 1.086-1.548 1.458s-1.56.558-2.592.558h-1.908v4.536h-3.078v-12.636h4.986c1.008 0 1.86.174 2.556.522s1.218.828 1.566 1.44.522 1.314.522 2.106zm-4.878 1.584c.588 0 1.026-.138 1.314-.414s.432-.666.432-1.17-.144-.894-.432-1.17-.726-.414-1.314-.414h-1.674v3.168zm9.559-1.386c.36-.552.81-.984 1.35-1.296.54-.324 1.14-.486 1.8-.486v3.258h-.846c-.768 0-1.344.168-1.728.504-.384.324-.576.9-.576 1.728v4.662h-3.078v-10.044h3.078zm9.193 8.514c-.984 0-1.872-.21-2.664-.63-.78-.42-1.398-1.02-1.854-1.8-.444-.78-.666-1.692-.666-2.736 0-1.032.228-1.938.684-2.718.456-.792 1.08-1.398 1.872-1.818s1.68-.63 2.664-.63 1.872.21 2.664.63 1.416 1.026 1.872 1.818c.456.78.684 1.686.684 2.718s-.234 1.944-.702 2.736c-.456.78-1.086 1.38-1.89 1.8-.792.42-1.68.63-2.664.63zm0-2.664c.588 0 1.086-.216 1.494-.648.42-.432.63-1.05.63-1.854s-.204-1.422-.612-1.854c-.396-.432-.888-.648-1.476-.648-.6 0-1.098.216-1.494.648-.396.42-.594 1.038-.594 1.854 0 .804.192 1.422.576 1.854.396.432.888.648 1.476.648zm11.407-.36 2.178-7.164h3.276l-3.564 10.044h-3.798l-3.564-10.044h3.294zm8.297-8.208c-.54 0-.984-.156-1.332-.468-.336-.324-.504-.72-.504-1.188 0-.48.168-.876.504-1.188.348-.324.792-.486 1.332-.486.528 0 .96.162 1.296.486.348.312.522.708.522 1.188 0 .468-.174.864-.522 1.188-.336.312-.768.468-1.296.468zm1.53 1.044v10.044h-3.078v-10.044zm1.619 5.004c0-1.032.192-1.938.576-2.718.396-.78.93-1.38 1.602-1.8s1.422-.63 2.25-.63c.66 0 1.26.138 1.8.414.552.276.984.648 1.296 1.116v-4.662h3.078v13.32h-3.078v-1.44c-.288.48-.702.864-1.242 1.152-.528.288-1.146.432-1.854.432-.828 0-1.578-.21-2.25-.63-.672-.432-1.206-1.038-1.602-1.818-.384-.792-.576-1.704-.576-2.736zm7.524.018c0-.768-.216-1.374-.648-1.818-.42-.444-.936-.666-1.548-.666s-1.134.222-1.566.666c-.42.432-.63 1.032-.63 1.8s.21 1.38.63 1.836c.432.444.954.666 1.566.666s1.128-.222 1.548-.666c.432-.444.648-1.05.648-1.818zm14.773-.162c0 .288-.018.588-.054.9h-6.966c.048.624.246 1.104.594 1.44.36.324.798.486 1.314.486.768 0 1.302-.324 1.602-.972h3.276c-.168.66-.474 1.254-.918 1.782-.432.528-.978.942-1.638 1.242s-1.398.45-2.214.45c-.984 0-1.86-.21-2.628-.63s-1.368-1.02-1.8-1.8-.648-1.692-.648-2.736.21-1.956.63-2.736c.432-.78 1.032-1.38 1.8-1.8s1.65-.63 2.646-.63c.972 0 1.836.204 2.592.612s1.344.99 1.764 1.746c.432.756.648 1.638.648 2.646zm-3.15-.81c0-.528-.18-.948-.54-1.26s-.81-.468-1.35-.468c-.516 0-.954.15-1.314.45-.348.3-.564.726-.648 1.278zm7.852-2.376c.36-.552.81-.984 1.35-1.296.54-.324 1.14-.486 1.8-.486v3.258h-.846c-.768 0-1.344.168-1.728.504-.384.324-.576.9-.576 1.728v4.662h-3.078v-10.044h3.078zm3.793 12.132v-.288c1.2-1.248 2.13-2.724 2.79-4.428s.99-3.474.99-5.31c0-1.848-.342-3.642-1.026-5.382-.684-1.752-1.656-3.252-2.916-4.5v-.288h3.024c1.236 1.128 2.19 2.592 2.862 4.392.672 1.788 1.008 3.714 1.008 5.778 0 2.04-.324 3.942-.972 5.706s-1.554 3.204-2.718 4.32z" fill="#fff"/><path d="m157.5 449c0-.828-.672-1.5-1.5-1.5s-1.5.672-1.5 1.5zm-2.561 152.061c.586.585 1.536.585 2.122 0l9.546-9.546c.585-.586.585-1.536 0-2.122-.586-.585-1.536-.585-2.122 0l-8.485 8.486-8.485-8.486c-.586-.585-1.536-.585-2.122 0-.585.586-.585 1.536 0 2.122zm-.439-152.061v151h3v-151z" fill="#18465e"/><path d="m156 200v151" stroke="#18465e" stroke-linecap="round" stroke-width="3"/><path d="m452 116h133c5.523 0 10 4.477 10 10v65" stroke="#18465e" stroke-linecap="round" stroke-width="3"/><path d="m592.939 316.061c.586.585 1.536.585 2.122 0l9.546-9.546c.585-.586.585-1.536 0-2.122-.586-.585-1.536-.585-2.122 0l-8.485 8.486-8.485-8.486c-.586-.585-1.536-.585-2.122 0-.585.586-.585 1.536 0 2.122zm2.561-47.061c0-.828-.672-1.5-1.5-1.5s-1.5.672-1.5 1.5zm0 46v-46h-3v46z" fill="#18465e"/><path d="m594 485v23.5" stroke="#18465e" stroke-linecap="round" stroke-width="3"/><path d="m592.425 601.048c.577.594 1.527.607 2.121.03l9.677-9.413c.594-.577.607-1.527.03-2.121-.578-.594-1.527-.607-2.121-.029l-8.603 8.366-8.366-8.602c-.578-.594-1.527-.607-2.121-.029-.594.577-.607 1.527-.03 2.121zm3.075-37.027c.011-.829-.651-1.509-1.479-1.521-.829-.011-1.509.651-1.521 1.479zm-.5 36.002.5-36.002-3-.042-.5 36.003z" fill="#18465e"/><rect fill="#55b1ab" height="137" rx="8.5" width="596" x="77.5" y="616.5"/><rect height="137" rx="8.5" stroke="#18465e" stroke-width="3" width="596" x="77.5" y="616.5"/><rect fill="#fff" height="48" rx="8" width="60" x="284" y="661"/><path d="m342.954 704.409v.001c0 1.987-1.605 3.59-3.642 3.59h-50.67c-2.037 0-3.642-1.603-3.642-3.59v-31.41h57.999z" stroke="#18465e" stroke-width="2"/><path d="m342.954 665.595v-.005c0-1.987-1.605-3.59-3.642-3.59h-50.67c-2.037 0-3.642 1.603-3.642 3.59v7.41h57.994z" fill="#55b1ab" stroke="#18465e" stroke-width="2"/><ellipse cx="292.136" cy="667.5" fill="#18465e" rx="1.52542" ry="1.5"/><ellipse cx="298.237" cy="667.5" fill="#18465e" rx="1.52542" ry="1.5"/><ellipse cx="304.339" cy="667.5" fill="#18465e" rx="1.52542" ry="1.5"/><path d="m342.954 704.409v.001c0 1.987-1.605 3.59-3.642 3.59h-50.67c-2.037 0-3.642-1.603-3.642-3.59v-31.41h57.999z" fill="#55b1ab" opacity=".5" stroke="#18465e" stroke-width="2"/><path d="m307 703v-24h15.385v4.103h-10.77v7.692l8.206-3.59v4.616l-8.206 3.589v7.59z" fill="#18465e"/><path d="m368.711 678.864v2.466h-5.148v2.664h3.852v2.394h-3.852v5.112h-3.078v-12.636zm8.062 12.636-2.628-4.77h-.738v4.77h-3.078v-12.636h5.166c.996 0 1.842.174 2.538.522.708.348 1.236.828 1.584 1.44.348.6.522 1.272.522 2.016 0 .84-.24 1.59-.72 2.25-.468.66-1.164 1.128-2.088 1.404l2.916 5.004zm-3.366-6.948h1.908c.564 0 .984-.138 1.26-.414.288-.276.432-.666.432-1.17 0-.48-.144-.858-.432-1.134-.276-.276-.696-.414-1.26-.414h-1.908zm11.742-3.222v2.556h4.122v2.376h-4.122v2.772h4.662v2.466h-7.74v-12.636h7.74v2.466zm15.66 12.33-1.62-2.178c-.48.096-.948.144-1.404.144-1.188 0-2.28-.276-3.276-.828-.984-.552-1.77-1.32-2.358-2.304-.576-.996-.864-2.112-.864-3.348s.288-2.346.864-3.33c.588-.984 1.374-1.752 2.358-2.304.996-.552 2.088-.828 3.276-.828s2.274.276 3.258.828c.996.552 1.776 1.32 2.34 2.304.576.984.864 2.094.864 3.33 0 1.08-.222 2.07-.666 2.97-.432.888-1.038 1.626-1.818 2.214l2.772 3.33zm-6.372-8.514c0 1.116.3 2.01.9 2.682.612.66 1.428.99 2.448.99 1.008 0 1.812-.336 2.412-1.008.612-.672.918-1.56.918-2.664 0-1.116-.306-2.004-.918-2.664-.6-.672-1.404-1.008-2.412-1.008-1.02 0-1.836.33-2.448.99-.6.66-.9 1.554-.9 2.682zm14.582-6.282v7.56c0 .756.186 1.338.558 1.746s.918.612 1.638.612 1.272-.204 1.656-.612.576-.99.576-1.746v-7.56h3.078v7.542c0 1.128-.24 2.082-.72 2.862s-1.128 1.368-1.944 1.764c-.804.396-1.704.594-2.7.594s-1.89-.192-2.682-.576c-.78-.396-1.398-.984-1.854-1.764-.456-.792-.684-1.752-.684-2.88v-7.542zm12.745 2.466v2.556h4.122v2.376h-4.122v2.772h4.662v2.466h-7.74v-12.636h7.74v2.466zm17.965 10.17h-3.078l-5.148-7.794v7.794h-3.078v-12.636h3.078l5.148 7.83v-7.83h3.078zm1.709-6.336c0-1.248.27-2.358.81-3.33.54-.984 1.29-1.746 2.25-2.286.972-.552 2.07-.828 3.294-.828 1.5 0 2.784.396 3.852 1.188s1.782 1.872 2.142 3.24h-3.384c-.252-.528-.612-.93-1.08-1.206-.456-.276-.978-.414-1.566-.414-.948 0-1.716.33-2.304.99s-.882 1.542-.882 2.646.294 1.986.882 2.646 1.356.99 2.304.99c.588 0 1.11-.138 1.566-.414.468-.276.828-.678 1.08-1.206h3.384c-.36 1.368-1.074 2.448-2.142 3.24-1.068.78-2.352 1.17-3.852 1.17-1.224 0-2.322-.27-3.294-.81-.96-.552-1.71-1.314-2.25-2.286s-.81-2.082-.81-3.33zm25.069-6.3-4.374 8.46v4.176h-3.078v-4.176l-4.374-8.46h3.492l2.448 5.292 2.43-5.292z" fill="#18465e"/><path d="m73.0671 385.368c0-1.109.24-2.096.72-2.96.48-.875 1.1466-1.552 2-2.032.864-.491 1.84-.736 2.928-.736 1.3333 0 2.4746.352 3.424 1.056.9493.704 1.584 1.664 1.904 2.88h-3.008c-.224-.469-.544-.827-.96-1.072-.4054-.245-.8694-.368-1.392-.368-.8427 0-1.5254.293-2.048.88-.5227.587-.784 1.371-.784 2.352s.2613 1.765.784 2.352c.5226.587 1.2053.88 2.048.88.5226 0 .9866-.123 1.392-.368.416-.245.736-.603.96-1.072h3.008c-.32 1.216-.9547 2.176-1.904 2.88-.9494.693-2.0907 1.04-3.424 1.04-1.088 0-2.064-.24-2.928-.72-.8534-.491-1.52-1.168-2-2.032s-.72-1.851-.72-2.96zm16.7155 5.76c-.8747 0-1.664-.187-2.368-.56-.6934-.373-1.2427-.907-1.648-1.6-.3947-.693-.592-1.504-.592-2.432 0-.917.2026-1.723.608-2.416.4053-.704.96-1.243 1.664-1.616s1.4933-.56 2.368-.56c.8746 0 1.664.187 2.368.56s1.2586.912 1.664 1.616c.4053.693.608 1.499.608 2.416s-.208 1.728-.624 2.432c-.4054.693-.9654 1.227-1.68 1.6-.704.373-1.4934.56-2.368.56zm0-2.368c.5226 0 .9653-.192 1.328-.576.3733-.384.56-.933.56-1.648s-.1814-1.264-.544-1.648c-.352-.384-.7894-.576-1.312-.576-.5334 0-.976.192-1.328.576-.352.373-.528.923-.528 1.648 0 .715.1706 1.264.512 1.648.352.384.7893.576 1.312.576zm7.4995-7.616c-.48 0-.8747-.139-1.184-.416-.2987-.288-.448-.64-.448-1.056 0-.427.1493-.779.448-1.056.3093-.288.704-.432 1.184-.432.4693 0 .8533.144 1.152.432.3093.277.464.629.464 1.056 0 .416-.1547.768-.464 1.056-.2987.277-.6827.416-1.152.416zm1.36.928v8.928h-2.736v-8.928zm7.4229-.096c1.045 0 1.877.341 2.496 1.024.629.672.944 1.6.944 2.784v5.216h-2.72v-4.848c0-.597-.155-1.061-.464-1.392-.31-.331-.726-.496-1.248-.496-.523 0-.939.165-1.248.496-.31.331-.464.795-.464 1.392v4.848h-2.736v-8.928h2.736v1.184c.277-.395.65-.704 1.12-.928.469-.235.997-.352 1.584-.352zm8.077-2.816v11.84h-2.736v-11.84zm10.399 7.232c0 .256-.016.523-.048.8h-6.192c.042.555.218.981.528 1.28.32.288.709.432 1.168.432.682 0 1.157-.288 1.424-.864h2.912c-.15.587-.422 1.115-.816 1.584-.384.469-.87.837-1.456 1.104-.587.267-1.243.4-1.968.4-.875 0-1.654-.187-2.336-.56-.683-.373-1.216-.907-1.6-1.6s-.576-1.504-.576-2.432.186-1.739.56-2.432c.384-.693.917-1.227 1.6-1.6.682-.373 1.466-.56 2.352-.56.864 0 1.632.181 2.304.544s1.194.88 1.568 1.552c.384.672.576 1.456.576 2.352zm-2.8-.72c0-.469-.16-.843-.48-1.12s-.72-.416-1.2-.416c-.459 0-.848.133-1.168.4-.31.267-.502.645-.576 1.136zm7.875 5.456c-.778 0-1.472-.133-2.08-.4s-1.088-.629-1.44-1.088c-.352-.469-.549-.992-.592-1.568h2.704c.032.309.176.56.432.752s.571.288.944.288c.342 0 .603-.064.784-.192.192-.139.288-.315.288-.528 0-.256-.133-.443-.4-.56-.266-.128-.698-.267-1.296-.416-.64-.149-1.173-.304-1.6-.464-.426-.171-.794-.432-1.104-.784-.309-.363-.464-.848-.464-1.456 0-.512.139-.976.416-1.392.288-.427.704-.763 1.248-1.008.555-.245 1.211-.368 1.968-.368 1.12 0 2 .277 2.64.832.651.555 1.024 1.291 1.12 2.208h-2.528c-.042-.309-.181-.555-.416-.736-.224-.181-.522-.272-.896-.272-.32 0-.565.064-.736.192-.17.117-.256.283-.256.496 0 .256.134.448.4.576.278.128.704.256 1.28.384.662.171 1.2.341 1.616.512.416.16.779.427 1.088.8.32.363.486.853.496 1.472 0 .523-.149.992-.448 1.408-.288.405-.709.725-1.264.96-.544.235-1.178.352-1.904.352zm8.922 0c-.779 0-1.472-.133-2.08-.4s-1.088-.629-1.44-1.088c-.352-.469-.549-.992-.592-1.568h2.704c.032.309.176.56.432.752s.571.288.944.288c.341 0 .603-.064.784-.192.192-.139.288-.315.288-.528 0-.256-.133-.443-.4-.56-.267-.128-.699-.267-1.296-.416-.64-.149-1.173-.304-1.6-.464-.427-.171-.795-.432-1.104-.784-.309-.363-.464-.848-.464-1.456 0-.512.139-.976.416-1.392.288-.427.704-.763 1.248-1.008.555-.245 1.211-.368 1.968-.368 1.12 0 2 .277 2.64.832.651.555 1.024 1.291 1.12 2.208h-2.528c-.043-.309-.181-.555-.416-.736-.224-.181-.523-.272-.896-.272-.32 0-.565.064-.736.192-.171.117-.256.283-.256.496 0 .256.133.448.4.576.277.128.704.256 1.28.384.661.171 1.2.341 1.616.512.416.16.779.427 1.088.8.32.363.485.853.496 1.472 0 .523-.149.992-.448 1.408-.288.405-.709.725-1.264.96-.544.235-1.179.352-1.904.352zm14.409-.128-2.336-4.24h-.656v4.24h-2.736v-11.232h4.592c.885 0 1.637.155 2.256.464.629.309 1.098.736 1.408 1.28.309.533.464 1.131.464 1.792 0 .747-.214 1.413-.64 2-.416.587-1.035 1.003-1.856 1.248l2.592 4.448zm-2.992-6.176h1.696c.501 0 .874-.123 1.12-.368.256-.245.384-.592.384-1.04 0-.427-.128-.763-.384-1.008-.246-.245-.619-.368-1.12-.368h-1.696zm16.117 1.568c0 .256-.016.523-.048.8h-6.192c.043.555.219.981.528 1.28.32.288.709.432 1.168.432.683 0 1.157-.288 1.424-.864h2.912c-.149.587-.421 1.115-.816 1.584-.384.469-.869.837-1.456 1.104s-1.243.4-1.968.4c-.875 0-1.653-.187-2.336-.56s-1.216-.907-1.6-1.6-.576-1.504-.576-2.432.187-1.739.56-2.432c.384-.693.917-1.227 1.6-1.6s1.467-.56 2.352-.56c.864 0 1.632.181 2.304.544s1.195.88 1.568 1.552c.384.672.576 1.456.576 2.352zm-2.8-.72c0-.469-.16-.843-.48-1.12s-.72-.416-1.2-.416c-.459 0-.848.133-1.168.4-.309.267-.501.645-.576 1.136zm8.259 2.768 1.936-6.368h2.912l-3.168 8.928h-3.376l-3.168-8.928h2.928zm10.064 2.688c-.875 0-1.664-.187-2.368-.56-.693-.373-1.243-.907-1.648-1.6-.395-.693-.592-1.504-.592-2.432 0-.917.203-1.723.608-2.416.405-.704.96-1.243 1.664-1.616s1.493-.56 2.368-.56 1.664.187 2.368.56 1.259.912 1.664 1.616c.405.693.608 1.499.608 2.416s-.208 1.728-.624 2.432c-.405.693-.965 1.227-1.68 1.6-.704.373-1.493.56-2.368.56zm0-2.368c.523 0 .965-.192 1.328-.576.373-.384.56-.933.56-1.648s-.181-1.264-.544-1.648c-.352-.384-.789-.576-1.312-.576-.533 0-.976.192-1.328.576-.352.373-.528.923-.528 1.648 0 .715.171 1.264.512 1.648.352.384.789.576 1.312.576zm5.58-2.224c0-.928.186-1.739.56-2.432.384-.693.912-1.227 1.584-1.6.682-.373 1.461-.56 2.336-.56 1.12 0 2.053.293 2.8.88.757.587 1.253 1.413 1.488 2.48h-2.912c-.246-.683-.72-1.024-1.424-1.024-.502 0-.902.197-1.2.592-.299.384-.448.939-.448 1.664s.149 1.285.448 1.68c.298.384.698.576 1.2.576.704 0 1.178-.341 1.424-1.024h2.912c-.235 1.045-.731 1.867-1.488 2.464-.758.597-1.691.896-2.8.896-.875 0-1.654-.187-2.336-.56-.672-.373-1.2-.907-1.584-1.6-.374-.693-.56-1.504-.56-2.432zm9.687-.016c0-.917.171-1.723.512-2.416.352-.693.827-1.227 1.424-1.6s1.264-.56 2-.56c.629 0 1.179.128 1.648.384.48.256.848.592 1.104 1.008v-1.264h2.736v8.928h-2.736v-1.264c-.267.416-.64.752-1.12 1.008-.469.256-1.019.384-1.648.384-.725 0-1.387-.187-1.984-.56-.597-.384-1.072-.923-1.424-1.616-.341-.704-.512-1.515-.512-2.432zm6.688.016c0-.683-.192-1.221-.576-1.616-.373-.395-.832-.592-1.376-.592s-1.008.197-1.392.592c-.373.384-.56.917-.56 1.6s.187 1.227.56 1.632c.384.395.848.592 1.392.592s1.003-.197 1.376-.592c.384-.395.576-.933.576-1.616zm9.691 2.144v2.32h-1.392c-.992 0-1.765-.24-2.32-.72-.554-.491-.832-1.285-.832-2.384v-3.552h-1.088v-2.272h1.088v-2.176h2.736v2.176h1.792v2.272h-1.792v3.584c0 .267.064.459.192.576s.342.176.64.176zm2.9-7.536c-.48 0-.874-.139-1.184-.416-.298-.288-.448-.64-.448-1.056 0-.427.15-.779.448-1.056.31-.288.704-.432 1.184-.432.47 0 .854.144 1.152.432.31.277.464.629.464 1.056 0 .416-.154.768-.464 1.056-.298.277-.682.416-1.152.416zm1.36.928v8.928h-2.736v-8.928zm6.047 9.056c-.874 0-1.664-.187-2.368-.56-.693-.373-1.242-.907-1.648-1.6-.394-.693-.592-1.504-.592-2.432 0-.917.203-1.723.608-2.416.406-.704.96-1.243 1.664-1.616s1.494-.56 2.368-.56c.875 0 1.664.187 2.368.56s1.259.912 1.664 1.616c.406.693.608 1.499.608 2.416s-.208 1.728-.624 2.432c-.405.693-.965 1.227-1.68 1.6-.704.373-1.493.56-2.368.56zm0-2.368c.523 0 .966-.192 1.328-.576.374-.384.56-.933.56-1.648s-.181-1.264-.544-1.648c-.352-.384-.789-.576-1.312-.576-.533 0-.976.192-1.328.576-.352.373-.528.923-.528 1.648 0 .715.171 1.264.512 1.648.352.384.79.576 1.312.576zm11.564-6.784c1.045 0 1.877.341 2.496 1.024.629.672.944 1.6.944 2.784v5.216h-2.72v-4.848c0-.597-.155-1.061-.464-1.392-.31-.331-.726-.496-1.248-.496-.523 0-.939.165-1.248.496-.31.331-.464.795-.464 1.392v4.848h-2.736v-8.928h2.736v1.184c.277-.395.65-.704 1.12-.928.469-.235.997-.352 1.584-.352zm-109.287 25.392c0-1.109.24-2.096.72-2.96.48-.875 1.147-1.552 2-2.032.864-.491 1.84-.736 2.928-.736 1.333 0 2.475.352 3.424 1.056s1.584 1.664 1.904 2.88h-3.008c-.224-.469-.544-.827-.96-1.072-.405-.245-.869-.368-1.392-.368-.843 0-1.525.293-2.048.88s-.784 1.371-.784 2.352.261 1.765.784 2.352 1.205.88 2.048.88c.523 0 .987-.123 1.392-.368.416-.245.736-.603.96-1.072h3.008c-.32 1.216-.955 2.176-1.904 2.88-.949.693-2.091 1.04-3.424 1.04-1.088 0-2.064-.24-2.928-.72-.853-.491-1.52-1.168-2-2.032s-.72-1.851-.72-2.96zm16.715 5.76c-.874 0-1.664-.187-2.368-.56-.693-.373-1.242-.907-1.648-1.6-.394-.693-.592-1.504-.592-2.432 0-.917.203-1.723.608-2.416.406-.704.96-1.243 1.664-1.616s1.494-.56 2.368-.56c.875 0 1.664.187 2.368.56s1.259.912 1.664 1.616c.406.693.608 1.499.608 2.416s-.208 1.728-.624 2.432c-.405.693-.965 1.227-1.68 1.6-.704.373-1.493.56-2.368.56zm0-2.368c.523 0 .966-.192 1.328-.576.374-.384.56-.933.56-1.648s-.181-1.264-.544-1.648c-.352-.384-.789-.576-1.312-.576-.533 0-.976.192-1.328.576-.352.373-.528.923-.528 1.648 0 .715.171 1.264.512 1.648.352.384.79.576 1.312.576zm11.564-6.784c1.045 0 1.877.341 2.496 1.024.629.672.944 1.6.944 2.784v5.216h-2.72v-4.848c0-.597-.155-1.061-.464-1.392s-.725-.496-1.248-.496-.939.165-1.248.496-.464.795-.464 1.392v4.848h-2.736v-8.928h2.736v1.184c.277-.395.651-.704 1.12-.928.469-.235.997-.352 1.584-.352zm10.317 6.704v2.32h-1.392c-.992 0-1.765-.24-2.32-.72-.555-.491-.832-1.285-.832-2.384v-3.552h-1.088v-2.272h1.088v-2.176h2.736v2.176h1.792v2.272h-1.792v3.584c0 .267.064.459.192.576s.341.176.64.176zm4.26-5.12c.32-.491.72-.875 1.2-1.152.48-.288 1.013-.432 1.6-.432v2.896h-.752c-.683 0-1.195.149-1.536.448-.341.288-.512.8-.512 1.536v4.144h-2.736v-8.928h2.736zm8.172 7.568c-.875 0-1.664-.187-2.368-.56-.693-.373-1.243-.907-1.648-1.6-.395-.693-.592-1.504-.592-2.432 0-.917.203-1.723.608-2.416.405-.704.96-1.243 1.664-1.616s1.493-.56 2.368-.56 1.664.187 2.368.56 1.259.912 1.664 1.616c.405.693.608 1.499.608 2.416s-.208 1.728-.624 2.432c-.405.693-.965 1.227-1.68 1.6-.704.373-1.493.56-2.368.56zm0-2.368c.523 0 .965-.192 1.328-.576.373-.384.56-.933.56-1.648s-.181-1.264-.544-1.648c-.352-.384-.789-.576-1.312-.576-.533 0-.976.192-1.328.576-.352.373-.528.923-.528 1.648 0 .715.171 1.264.512 1.648.352.384.789.576 1.312.576zm8.859-9.6v11.84h-2.736v-11.84z" fill="#18465e"/><path d="m563.13 221.768c1.184 0 2.218.235 3.104.704.885.469 1.568 1.131 2.048 1.984.49.843.736 1.819.736 2.928 0 1.099-.246 2.075-.736 2.928-.48.853-1.168 1.515-2.064 1.984-.886.469-1.915.704-3.088.704h-4.208v-11.232zm-.176 8.864c1.034 0 1.84-.283 2.416-.848s.864-1.365.864-2.4-.288-1.84-.864-2.416-1.382-.864-2.416-.864h-1.296v6.528zm16.009-2.24c0 .256-.016.523-.048.8h-6.192c.042.555.218.981.528 1.28.32.288.709.432 1.168.432.682 0 1.157-.288 1.424-.864h2.912c-.15.587-.422 1.115-.816 1.584-.384.469-.87.837-1.456 1.104-.587.267-1.243.4-1.968.4-.875 0-1.654-.187-2.336-.56-.683-.373-1.216-.907-1.6-1.6s-.576-1.504-.576-2.432.186-1.739.56-2.432c.384-.693.917-1.227 1.6-1.6.682-.373 1.466-.56 2.352-.56.864 0 1.632.181 2.304.544s1.194.88 1.568 1.552c.384.672.576 1.456.576 2.352zm-2.8-.72c0-.469-.16-.843-.48-1.12s-.72-.416-1.2-.416c-.459 0-.848.133-1.168.4-.31.267-.502.645-.576 1.136zm6.979-6.512v11.84h-2.736v-11.84zm10.399 7.232c0 .256-.016.523-.048.8h-6.192c.042.555.218.981.528 1.28.32.288.709.432 1.168.432.682 0 1.157-.288 1.424-.864h2.912c-.15.587-.422 1.115-.816 1.584-.384.469-.87.837-1.456 1.104-.587.267-1.243.4-1.968.4-.875 0-1.654-.187-2.336-.56-.683-.373-1.216-.907-1.6-1.6s-.576-1.504-.576-2.432.186-1.739.56-2.432c.384-.693.917-1.227 1.6-1.6.682-.373 1.466-.56 2.352-.56.864 0 1.632.181 2.304.544s1.194.88 1.568 1.552c.384.672.576 1.456.576 2.352zm-2.8-.72c0-.469-.16-.843-.48-1.12s-.72-.416-1.2-.416c-.459 0-.848.133-1.168.4-.31.267-.502.645-.576 1.136zm7.635-3.728c.63 0 1.179.128 1.648.384.48.256.848.592 1.104 1.008v-1.264h2.736v8.912c0 .821-.165 1.563-.496 2.224-.32.672-.816 1.205-1.488 1.6-.661.395-1.488.592-2.48.592-1.322 0-2.394-.315-3.216-.944-.821-.619-1.29-1.461-1.408-2.528h2.704c.086.341.288.608.608.8.32.203.715.304 1.184.304.566 0 1.014-.165 1.344-.496.342-.32.512-.837.512-1.552v-1.264c-.266.416-.634.757-1.104 1.024-.469.256-1.018.384-1.648.384-.736 0-1.402-.187-2-.56-.597-.384-1.072-.923-1.424-1.616-.341-.704-.512-1.515-.512-2.432s.171-1.723.512-2.416c.352-.693.827-1.227 1.424-1.6.598-.373 1.264-.56 2-.56zm2.752 4.592c0-.683-.192-1.221-.576-1.616-.373-.395-.832-.592-1.376-.592s-1.008.197-1.392.592c-.373.384-.56.917-.56 1.6s.187 1.227.56 1.632c.384.395.848.592 1.392.592s1.003-.197 1.376-.592c.384-.395.576-.933.576-1.616zm4.172-.016c0-.917.17-1.723.512-2.416.352-.693.826-1.227 1.424-1.6.597-.373 1.264-.56 2-.56.629 0 1.178.128 1.648.384.48.256.848.592 1.104 1.008v-1.264h2.736v8.928h-2.736v-1.264c-.267.416-.64.752-1.12 1.008-.47.256-1.019.384-1.648.384-.726 0-1.387-.187-1.984-.56-.598-.384-1.072-.923-1.424-1.616-.342-.704-.512-1.515-.512-2.432zm6.688.016c0-.683-.192-1.221-.576-1.616-.374-.395-.832-.592-1.376-.592s-1.008.197-1.392.592c-.374.384-.56.917-.56 1.6s.186 1.227.56 1.632c.384.395.848.592 1.392.592s1.002-.197 1.376-.592c.384-.395.576-.933.576-1.616zm9.691 2.144v2.32h-1.392c-.992 0-1.765-.24-2.32-.72-.555-.491-.832-1.285-.832-2.384v-3.552h-1.088v-2.272h1.088v-2.176h2.736v2.176h1.792v2.272h-1.792v3.584c0 .267.064.459.192.576s.341.176.64.176zm9.94-2.288c0 .256-.016.523-.048.8h-6.192c.043.555.219.981.528 1.28.32.288.709.432 1.168.432.683 0 1.157-.288 1.424-.864h2.912c-.149.587-.421 1.115-.816 1.584-.384.469-.869.837-1.456 1.104s-1.243.4-1.968.4c-.875 0-1.653-.187-2.336-.56s-1.216-.907-1.6-1.6-.576-1.504-.576-2.432.187-1.739.56-2.432c.384-.693.917-1.227 1.6-1.6s1.467-.56 2.352-.56c.864 0 1.632.181 2.304.544s1.195.88 1.568 1.552c.384.672.576 1.456.576 2.352zm-2.8-.72c0-.469-.16-.843-.48-1.12s-.72-.416-1.2-.416c-.459 0-.848.133-1.168.4-.309.267-.501.645-.576 1.136z" fill="#18465e"/><path d="m525.056 519.768v11.232h-2.736v-11.232zm7.423 2.208c1.045 0 1.877.341 2.496 1.024.629.672.944 1.6.944 2.784v5.216h-2.72v-4.848c0-.597-.155-1.061-.464-1.392s-.725-.496-1.248-.496-.939.165-1.248.496-.464.795-.464 1.392v4.848h-2.736v-8.928h2.736v1.184c.277-.395.651-.704 1.12-.928.469-.235.997-.352 1.584-.352zm10.317 6.704v2.32h-1.392c-.992 0-1.765-.24-2.32-.72-.555-.491-.832-1.285-.832-2.384v-3.552h-1.088v-2.272h1.088v-2.176h2.736v2.176h1.792v2.272h-1.792v3.584c0 .267.064.459.192.576s.341.176.64.176zm9.94-2.288c0 .256-.016.523-.048.8h-6.192c.043.555.219.981.528 1.28.32.288.709.432 1.168.432.683 0 1.157-.288 1.424-.864h2.912c-.149.587-.421 1.115-.816 1.584-.384.469-.869.837-1.456 1.104s-1.243.4-1.968.4c-.875 0-1.653-.187-2.336-.56s-1.216-.907-1.6-1.6-.576-1.504-.576-2.432.187-1.739.56-2.432c.384-.693.917-1.227 1.6-1.6s1.467-.56 2.352-.56c.864 0 1.632.181 2.304.544s1.195.88 1.568 1.552c.384.672.576 1.456.576 2.352zm-2.8-.72c0-.469-.16-.843-.48-1.12s-.72-.416-1.2-.416c-.459 0-.848.133-1.168.4-.309.267-.501.645-.576 1.136zm6.98-2.112c.32-.491.72-.875 1.2-1.152.48-.288 1.013-.432 1.6-.432v2.896h-.752c-.683 0-1.195.149-1.536.448-.342.288-.512.8-.512 1.536v4.144h-2.736v-8.928h2.736zm3.563 2.96c0-.917.171-1.723.512-2.416.352-.693.827-1.227 1.424-1.6.598-.373 1.264-.56 2-.56.63 0 1.179.128 1.648.384.48.256.848.592 1.104 1.008v-1.264h2.736v8.928h-2.736v-1.264c-.266.416-.64.752-1.12 1.008-.469.256-1.018.384-1.648.384-.725 0-1.386-.187-1.984-.56-.597-.384-1.072-.923-1.424-1.616-.341-.704-.512-1.515-.512-2.432zm6.688.016c0-.683-.192-1.221-.576-1.616-.373-.395-.832-.592-1.376-.592s-1.008.197-1.392.592c-.373.384-.56.917-.56 1.6s.187 1.227.56 1.632c.384.395.848.592 1.392.592s1.003-.197 1.376-.592c.384-.395.576-.933.576-1.616zm4.172 0c0-.928.186-1.739.56-2.432.384-.693.912-1.227 1.584-1.6.682-.373 1.461-.56 2.336-.56 1.12 0 2.053.293 2.8.88.757.587 1.253 1.413 1.488 2.48h-2.912c-.246-.683-.72-1.024-1.424-1.024-.502 0-.902.197-1.2.592-.299.384-.448.939-.448 1.664s.149 1.285.448 1.68c.298.384.698.576 1.2.576.704 0 1.178-.341 1.424-1.024h2.912c-.235 1.045-.731 1.867-1.488 2.464-.758.597-1.691.896-2.8.896-.875 0-1.654-.187-2.336-.56-.672-.373-1.2-.907-1.584-1.6-.374-.693-.56-1.504-.56-2.432zm15.207 2.144v2.32h-1.392c-.992 0-1.765-.24-2.32-.72-.555-.491-.832-1.285-.832-2.384v-3.552h-1.088v-2.272h1.088v-2.176h2.736v2.176h1.792v2.272h-1.792v3.584c0 .267.064.459.192.576s.341.176.64.176zm8.979 2.448c-.875 0-1.664-.187-2.368-.56-.694-.373-1.243-.907-1.648-1.6-.395-.693-.592-1.504-.592-2.432 0-.917.202-1.723.608-2.416.405-.704.96-1.243 1.664-1.616s1.493-.56 2.368-.56c.874 0 1.664.187 2.368.56s1.258.912 1.664 1.616c.405.693.608 1.499.608 2.416s-.208 1.728-.624 2.432c-.406.693-.966 1.227-1.68 1.6-.704.373-1.494.56-2.368.56zm0-2.368c.522 0 .965-.192 1.328-.576.373-.384.56-.933.56-1.648s-.182-1.264-.544-1.648c-.352-.384-.79-.576-1.312-.576-.534 0-.976.192-1.328.576-.352.373-.528.923-.528 1.648 0 .715.17 1.264.512 1.648.352.384.789.576 1.312.576zm11.563-6.784c1.046 0 1.878.341 2.496 1.024.63.672.944 1.6.944 2.784v5.216h-2.72v-4.848c0-.597-.154-1.061-.464-1.392-.309-.331-.725-.496-1.248-.496-.522 0-.938.165-1.248.496-.309.331-.464.795-.464 1.392v4.848h-2.736v-8.928h2.736v1.184c.278-.395.651-.704 1.12-.928.47-.235.998-.352 1.584-.352zm11.468 1.36c.256-.416.624-.752 1.104-1.008s1.029-.384 1.648-.384c.736 0 1.403.187 2 .56s1.067.907 1.408 1.6c.352.693.528 1.499.528 2.416s-.176 1.728-.528 2.432c-.341.693-.811 1.232-1.408 1.616-.597.373-1.264.56-2 .56-.629 0-1.179-.123-1.648-.368-.469-.256-.837-.592-1.104-1.008v1.248h-2.736v-11.84h2.736zm3.904 3.184c0-.683-.192-1.216-.576-1.6-.373-.395-.837-.592-1.392-.592-.544 0-1.008.197-1.392.592-.373.395-.56.933-.56 1.616s.187 1.221.56 1.616c.384.395.848.592 1.392.592s1.008-.197 1.392-.592c.384-.405.576-.949.576-1.632zm12.635-.128c0 .256-.015.523-.047.8h-6.192c.042.555.218.981.528 1.28.32.288.709.432 1.168.432.682 0 1.157-.288 1.424-.864h2.912c-.15.587-.422 1.115-.816 1.584-.384.469-.87.837-1.456 1.104-.587.267-1.243.4-1.968.4-.875 0-1.654-.187-2.336-.56-.683-.373-1.216-.907-1.6-1.6s-.576-1.504-.576-2.432.186-1.739.56-2.432c.384-.693.917-1.227 1.6-1.6.682-.373 1.466-.56 2.352-.56.864 0 1.632.181 2.304.544s1.194.88 1.568 1.552c.384.672.575 1.456.575 2.352zm-2.799-.72c0-.469-.16-.843-.48-1.12s-.72-.416-1.2-.416c-.459 0-.848.133-1.168.4-.31.267-.502.645-.576 1.136zm9.731-3.696c1.024 0 1.845.341 2.464 1.024.619.672.928 1.6.928 2.784v5.216h-2.72v-4.848c0-.597-.155-1.061-.464-1.392s-.725-.496-1.248-.496-.939.165-1.248.496-.464.795-.464 1.392v4.848h-2.736v-11.84h2.736v4.112c.277-.395.656-.709 1.136-.944s1.019-.352 1.616-.352zm4.749 4.544c0-.917.171-1.723.512-2.416.352-.693.827-1.227 1.424-1.6s1.264-.56 2-.56c.629 0 1.179.128 1.648.384.48.256.848.592 1.104 1.008v-1.264h2.736v8.928h-2.736v-1.264c-.267.416-.64.752-1.12 1.008-.469.256-1.019.384-1.648.384-.725 0-1.387-.187-1.984-.56-.597-.384-1.072-.923-1.424-1.616-.341-.704-.512-1.515-.512-2.432zm6.688.016c0-.683-.192-1.221-.576-1.616-.373-.395-.832-.592-1.376-.592s-1.008.197-1.392.592c-.373.384-.56.917-.56 1.6s.187 1.227.56 1.632c.384.395.848.592 1.392.592s1.003-.197 1.376-.592c.384-.395.576-.933.576-1.616zm7.452-7.376v11.84h-2.736v-11.84zm6.462 5.184h-1.472v6.656h-2.736v-6.656h-.992v-2.272h.992v-.256c0-1.099.315-1.931.944-2.496.63-.576 1.552-.864 2.768-.864.203 0 .352.005.448.016v2.32c-.522-.032-.89.043-1.104.224-.213.181-.32.507-.32.976v.08h1.472zm-111.213 28.784c-.874 0-1.664-.187-2.368-.56-.693-.373-1.242-.907-1.648-1.6-.394-.693-.592-1.504-.592-2.432 0-.917.203-1.723.608-2.416.406-.704.96-1.243 1.664-1.616s1.494-.56 2.368-.56c.875 0 1.664.187 2.368.56s1.259.912 1.664 1.616c.406.693.608 1.499.608 2.416s-.208 1.728-.624 2.432c-.405.693-.965 1.227-1.68 1.6-.704.373-1.493.56-2.368.56zm0-2.368c.523 0 .966-.192 1.328-.576.374-.384.56-.933.56-1.648s-.181-1.264-.544-1.648c-.352-.384-.789-.576-1.312-.576-.533 0-.976.192-1.328.576-.352.373-.528.923-.528 1.648 0 .715.171 1.264.512 1.648.352.384.79.576 1.312.576zm10.604-4.416h-1.472v6.656h-2.736v-6.656h-.992v-2.272h.992v-.256c0-1.099.315-1.931.944-2.496.629-.576 1.552-.864 2.768-.864.203 0 .352.005.448.016v2.32c-.523-.032-.891.043-1.104.224s-.32.507-.32.976v.08h1.472zm9.652 4.336v2.32h-1.392c-.992 0-1.765-.24-2.32-.72-.555-.491-.832-1.285-.832-2.384v-3.552h-1.088v-2.272h1.088v-2.176h2.736v2.176h1.792v2.272h-1.792v3.584c0 .267.064.459.192.576s.341.176.64.176zm7.012-6.704c1.024 0 1.845.341 2.464 1.024.619.672.928 1.6.928 2.784v5.216h-2.72v-4.848c0-.597-.155-1.061-.464-1.392s-.725-.496-1.248-.496-.939.165-1.248.496-.464.795-.464 1.392v4.848h-2.736v-11.84h2.736v4.112c.277-.395.656-.709 1.136-.944s1.019-.352 1.616-.352zm13.709 4.416c0 .256-.016.523-.048.8h-6.192c.043.555.219.981.528 1.28.32.288.71.432 1.168.432.683 0 1.158-.288 1.424-.864h2.912c-.149.587-.421 1.115-.816 1.584-.384.469-.869.837-1.456 1.104-.586.267-1.242.4-1.968.4-.874 0-1.653-.187-2.336-.56-.682-.373-1.216-.907-1.6-1.6s-.576-1.504-.576-2.432.187-1.739.56-2.432c.384-.693.918-1.227 1.6-1.6.683-.373 1.467-.56 2.352-.56.864 0 1.632.181 2.304.544s1.195.88 1.568 1.552c.384.672.576 1.456.576 2.352zm-2.8-.72c0-.469-.16-.843-.48-1.12s-.72-.416-1.2-.416c-.458 0-.848.133-1.168.4-.309.267-.501.645-.576 1.136zm10.322-5.904v6.72c0 .672.166 1.189.496 1.552.331.363.816.544 1.456.544s1.131-.181 1.472-.544c.342-.363.512-.88.512-1.552v-6.72h2.736v6.704c0 1.003-.213 1.851-.64 2.544-.426.693-1.002 1.216-1.728 1.568-.714.352-1.514.528-2.4.528-.885 0-1.68-.171-2.384-.512-.693-.352-1.242-.875-1.648-1.568-.405-.704-.608-1.557-.608-2.56v-6.704zm12.226 11.36c-.779 0-1.472-.133-2.08-.4s-1.088-.629-1.44-1.088c-.352-.469-.55-.992-.592-1.568h2.704c.032.309.176.56.432.752s.57.288.944.288c.341 0 .602-.064.784-.192.192-.139.288-.315.288-.528 0-.256-.134-.443-.4-.56-.267-.128-.699-.267-1.296-.416-.64-.149-1.174-.304-1.6-.464-.427-.171-.795-.432-1.104-.784-.31-.363-.464-.848-.464-1.456 0-.512.138-.976.416-1.392.288-.427.704-.763 1.248-1.008.554-.245 1.21-.368 1.968-.368 1.12 0 2 .277 2.64.832.65.555 1.024 1.291 1.12 2.208h-2.528c-.043-.309-.182-.555-.416-.736-.224-.181-.523-.272-.896-.272-.32 0-.566.064-.736.192-.171.117-.256.283-.256.496 0 .256.133.448.4.576.277.128.704.256 1.28.384.661.171 1.2.341 1.616.512.416.16.778.427 1.088.8.32.363.485.853.496 1.472 0 .523-.15.992-.448 1.408-.288.405-.71.725-1.264.96-.544.235-1.179.352-1.904.352zm13.705-4.736c0 .256-.015.523-.047.8h-6.192c.042.555.218.981.528 1.28.32.288.709.432 1.168.432.682 0 1.157-.288 1.424-.864h2.912c-.15.587-.422 1.115-.816 1.584-.384.469-.87.837-1.456 1.104-.587.267-1.243.4-1.968.4-.875 0-1.654-.187-2.336-.56-.683-.373-1.216-.907-1.6-1.6s-.576-1.504-.576-2.432.186-1.739.56-2.432c.384-.693.917-1.227 1.6-1.6.682-.373 1.466-.56 2.352-.56.864 0 1.632.181 2.304.544s1.194.88 1.568 1.552c.384.672.575 1.456.575 2.352zm-2.799-.72c0-.469-.16-.843-.48-1.12s-.72-.416-1.2-.416c-.459 0-.848.133-1.168.4-.31.267-.502.645-.576 1.136zm6.979-2.112c.32-.491.72-.875 1.2-1.152.48-.288 1.013-.432 1.6-.432v2.896h-.752c-.683 0-1.195.149-1.536.448-.341.288-.512.8-.512 1.536v4.144h-2.736v-8.928h2.736z" fill="#18465e"/></svg>
<svg fill="none" viewBox="0 0 751 800" xmlns="http://www.w3.org/2000/svg"><path d="m0 0h751v800h-751z" fill="none"/><rect fill="#ffd647" height="137" rx="8.5" width="358" x="77.5" y="46.5"/><rect height="137" rx="8.5" stroke="#18465e" stroke-width="3" width="358" x="77.5" y="46.5"/><path d="m151.395 134.966h18.896c-.123.387-.323.833-.648 1.276-.698.953-2.066 2.022-4.85 2.369-.057.007-.112.018-.165.034-1.27.226-2.244 1.328-2.244 2.668 0 1.505 1.229 2.71 2.726 2.71h26.461c1.497 0 2.726-1.205 2.726-2.71 0-1.259-.859-2.307-2.015-2.617-.092-.043-.193-.072-.299-.085-2.784-.347-4.152-1.416-4.85-2.369-.325-.443-.525-.889-.648-1.276h18.896c2.63 0 4.793-2.034 4.955-4.619.008-.051.013-.103.013-.156v-7.356c0-.017-.001-.035-.002-.052v-31.3223c0-3.0202-2.476-5.4607-5.502-5.4607h-52.913c-3.026 0-5.503 2.4396-5.503 5.4607v32.1573c0 .017.001.031.001.042l.001.022v5.94l-.001.016c-.001.015-.001.041-.001.071v.328c0 .03 0 .056.001.072l.001.016v.066c0 .037.002.075.006.111.139 2.607 2.313 4.664 4.958 4.664z" fill="#fff" stroke="#18465e" stroke-linejoin="round" stroke-width="2"/><path clip-rule="evenodd" d="m209.347 91.4607v32.1133l.002-.002v6.683h-.006c-.081 2.098-1.824 3.775-3.962 3.775h-20.088c.035.882.531 4.885 6.567 5.637h-.289c.953 0 1.726.765 1.726 1.71 0 .944-.773 1.71-1.726 1.71h-26.461c-.953 0-1.726-.766-1.726-1.71 0-.945.773-1.71 1.726-1.71h-.194c6.036-.752 6.531-4.755 6.567-5.637h-20.088c-2.138 0-3.881-1.677-3.962-3.775h-.002v-.084l-.001-.022c-.001-.016-.001-.032-.001-.048v-.328c0-.015 0-.031.001-.046l.001-.024v-5.293c0-.009-.001-.018-.001-.027 0-.01-.001-.019-.001-.028v-32.8943c0-2.4599 2.021-4.4607 4.503-4.4607h52.913c2.483 0 4.502 2.0015 4.502 4.4607zm-3.822 37.9073c.435 0 1.468-1.024 1.468-1.455v-37.1255c0-.4309-1.034-1.4548-1.469-1.4548h-54.272c-.435 0-1.468 1.0239-1.468 1.4548v37.1255c0 .431 1.033 1.455 1.468 1.455zm-25.125 2.966c.356 0 .666-.203.824-.501.072-.136.113-.291.113-.456s-.041-.321-.113-.457c-.158-.298-.468-.501-.824-.501h-3.486c-.259 0-.493.107-.663.281-.05.051-.095.11-.132.172-.09.147-.142.319-.142.505 0 .529.419.957.937.957z" fill="#ffd647" fill-rule="evenodd" opacity=".2"/><path d="m184.739 103.424c.002-.071.003-.14.003-.207 0-3.2564-2.437-5.8967-5.897-5.8967-3.461 0-6.266 2.6403-6.266 5.8967 0 .148.006.305.017.469.001.359.041.722.133 1.081.018.108.038.218.06.329-.018-.001-.036-.001-.054-.001-.479 0-.971.374-.445 2.24.411 1.453.793 1.861 1.082 1.884.162 1.051.527 2.275 1.313 3.295-.067.424-.199 1.018-.45 1.429 0 0-.006.003-.014.009-.179.114-2.047 1.303-4.987 2.021-.166.04-.32.534-.463.994-.119.379-.23.736-.334.796 2.33 3.434 5.549 4.219 10.04 4.219 4.49 0 7.71-.785 10.039-4.219-.104-.06-.215-.417-.333-.796-.144-.46-.298-.954-.463-.994-3.09-.755-4.916-1.904-4.916-1.904-.321-.424-.474-1.141-.544-1.61.697-.934 1.051-2.03 1.225-3.006.063.043.136.072.216.072.292 0 .685-.387 1.108-1.885.438-1.551.172-2.071-.206-2.202.155-.745.191-1.414.136-2.014z" fill="#18465e"/><path d="m151.114 90.6855h54.5485v37.5942h-54.5485z" fill="#ffd647" opacity=".5"/><path d="m230.065 110.83v2.556h4.122v2.376h-4.122v2.772h4.662v2.466h-7.74v-12.636h7.74v2.466zm12.78.018c1.176 0 2.112.384 2.808 1.152.708.756 1.062 1.8 1.062 3.132v5.868h-3.06v-5.454c0-.672-.174-1.194-.522-1.566s-.816-.558-1.404-.558-1.056.186-1.404.558-.522.894-.522 1.566v5.454h-3.078v-10.044h3.078v1.332c.312-.444.732-.792 1.26-1.044.528-.264 1.122-.396 1.782-.396zm5.397 5.112c0-1.032.192-1.938.576-2.718.396-.78.93-1.38 1.602-1.8s1.422-.63 2.25-.63c.66 0 1.26.138 1.8.414.552.276.984.648 1.296 1.116v-4.662h3.078v13.32h-3.078v-1.44c-.288.48-.702.864-1.242 1.152-.528.288-1.146.432-1.854.432-.828 0-1.578-.21-2.25-.63-.672-.432-1.206-1.038-1.602-1.818-.384-.792-.576-1.704-.576-2.736zm7.524.018c0-.768-.216-1.374-.648-1.818-.42-.444-.936-.666-1.548-.666s-1.134.222-1.566.666c-.42.432-.63 1.032-.63 1.8s.21 1.38.63 1.836c.432.444.954.666 1.566.666s1.128-.222 1.548-.666c.432-.444.648-1.05.648-1.818zm12.144-7.614v7.56c0 .756.186 1.338.558 1.746s.918.612 1.638.612 1.272-.204 1.656-.612.576-.99.576-1.746v-7.56h3.078v7.542c0 1.128-.24 2.082-.72 2.862s-1.128 1.368-1.944 1.764c-.804.396-1.704.594-2.7.594s-1.89-.192-2.682-.576c-.78-.396-1.398-.984-1.854-1.764-.456-.792-.684-1.752-.684-2.88v-7.542zm13.753 12.78c-.876 0-1.656-.15-2.34-.45s-1.224-.708-1.62-1.224c-.396-.528-.618-1.116-.666-1.764h3.042c.036.348.198.63.486.846s.642.324 1.062.324c.384 0 .678-.072.882-.216.216-.156.324-.354.324-.594 0-.288-.15-.498-.45-.63-.3-.144-.786-.3-1.458-.468-.72-.168-1.32-.342-1.8-.522-.48-.192-.894-.486-1.242-.882-.348-.408-.522-.954-.522-1.638 0-.576.156-1.098.468-1.566.324-.48.792-.858 1.404-1.134.624-.276 1.362-.414 2.214-.414 1.26 0 2.25.312 2.97.936.732.624 1.152 1.452 1.26 2.484h-2.844c-.048-.348-.204-.624-.468-.828-.252-.204-.588-.306-1.008-.306-.36 0-.636.072-.828.216-.192.132-.288.318-.288.558 0 .288.15.504.45.648.312.144.792.288 1.44.432.744.192 1.35.384 1.818.576.468.18.876.48 1.224.9.36.408.546.96.558 1.656 0 .588-.168 1.116-.504 1.584-.324.456-.798.816-1.422 1.08-.612.264-1.326.396-2.142.396zm15.419-5.328c0 .288-.018.588-.054.9h-6.966c.048.624.246 1.104.594 1.44.36.324.798.486 1.314.486.768 0 1.302-.324 1.602-.972h3.276c-.168.66-.474 1.254-.918 1.782-.432.528-.978.942-1.638 1.242s-1.398.45-2.214.45c-.984 0-1.86-.21-2.628-.63s-1.368-1.02-1.8-1.8-.648-1.692-.648-2.736.21-1.956.63-2.736c.432-.78 1.032-1.38 1.8-1.8s1.65-.63 2.646-.63c.972 0 1.836.204 2.592.612s1.344.99 1.764 1.746c.432.756.648 1.638.648 2.646zm-3.15-.81c0-.528-.18-.948-.54-1.26s-.81-.468-1.35-.468c-.516 0-.954.15-1.314.45-.348.3-.564.726-.648 1.278zm7.852-2.376c.36-.552.81-.984 1.35-1.296.54-.324 1.14-.486 1.8-.486v3.258h-.846c-.768 0-1.344.168-1.728.504-.384.324-.576.9-.576 1.728v4.662h-3.078v-10.044h3.078zm12.576 12.132c-1.164-1.116-2.07-2.556-2.718-4.32s-.972-3.666-.972-5.706c0-2.064.336-3.99 1.008-5.778.672-1.8 1.626-3.264 2.862-4.392h3.024v.288c-1.26 1.248-2.232 2.748-2.916 4.5-.684 1.74-1.026 3.534-1.026 5.382 0 1.836.33 3.606.99 5.31s1.59 3.18 2.79 4.428v.288zm18.748-16.398v12.636h-3.078v-7.578l-2.826 7.578h-2.484l-2.844-7.596v7.596h-3.078v-12.636h3.636l3.546 8.748 3.51-8.748zm6.785 12.762c-.924 0-1.752-.15-2.484-.45s-1.32-.744-1.764-1.332c-.432-.588-.66-1.296-.684-2.124h3.276c.048.468.21.828.486 1.08.276.24.636.36 1.08.36.456 0 .816-.102 1.08-.306.264-.216.396-.51.396-.882 0-.312-.108-.57-.324-.774-.204-.204-.462-.372-.774-.504-.3-.132-.732-.282-1.296-.45-.816-.252-1.482-.504-1.998-.756s-.96-.624-1.332-1.116-.558-1.134-.558-1.926c0-1.176.426-2.094 1.278-2.754.852-.672 1.962-1.008 3.33-1.008 1.392 0 2.514.336 3.366 1.008.852.66 1.308 1.584 1.368 2.772h-3.33c-.024-.408-.174-.726-.45-.954-.276-.24-.63-.36-1.062-.36-.372 0-.672.102-.9.306-.228.192-.342.474-.342.846 0 .408.192.726.576.954s.984.474 1.8.738c.816.276 1.476.54 1.98.792.516.252.96.618 1.332 1.098s.558 1.098.558 1.854c0 .72-.186 1.374-.558 1.962-.36.588-.888 1.056-1.584 1.404s-1.518.522-2.466.522zm14.368-2.358h-4.716l-.756 2.232h-3.222l4.572-12.636h3.564l4.572 12.636h-3.258zm-.792-2.376-1.566-4.626-1.548 4.626zm5.37 8.37v-.288c1.2-1.248 2.13-2.724 2.79-4.428s.99-3.474.99-5.31c0-1.848-.342-3.642-1.026-5.382-.684-1.752-1.656-3.252-2.916-4.5v-.288h3.024c1.236 1.128 2.19 2.592 2.862 4.392.672 1.788 1.008 3.714 1.008 5.778 0 2.04-.324 3.942-.972 5.706s-1.554 3.204-2.718 4.32z" fill="#18465e"/><rect fill="#5e69ff" height="137" rx="8.5" width="358" x="315.5" y="331.5"/><rect height="137" rx="8.5" stroke="#18465e" stroke-width="3" width="358" x="315.5" y="331.5"/><rect fill="#fff" height="48" rx="5" width="60" x="353.5" y="376"/><path d="m412.454 419.409v.001c0 1.987-1.605 3.59-3.642 3.59h-50.67c-2.037 0-3.642-1.603-3.642-3.59v-31.41h57.999z" fill="#fff" stroke="#18465e" stroke-width="2"/><path d="m412.454 380.595v-.005c0-1.987-1.605-3.59-3.642-3.59h-50.67c-2.037 0-3.642 1.603-3.642 3.59v7.41h57.994z" fill="#5e69ff" stroke="#18465e" stroke-width="2"/><g fill="#18465e"><ellipse cx="361.636" cy="382.5" rx="1.52542" ry="1.5"/><ellipse cx="367.737" cy="382.5" rx="1.52542" ry="1.5"/><ellipse cx="373.839" cy="382.5" rx="1.52542" ry="1.5"/><path d="m396.621 404.494-5.799 4.779c-.55.439-.6 1.22-.15 1.707.25.293.6.439.95.439.3 0 .55-.097.8-.292l6.899-5.706c.3-.244.45-.586.45-.927s-.15-.683-.45-.927l-6.899-5.706c-.5-.439-1.3-.39-1.75.147-.45.487-.4 1.268.15 1.707z"/><path d="m367.229 404.494c0 .341.15.683.45.927l6.899 5.706c.25.195.5.292.8.292.35 0 .7-.146.95-.439.45-.487.4-1.268-.15-1.707l-5.799-4.779 5.799-4.779c.55-.439.6-1.171.15-1.707-.45-.537-1.2-.586-1.75-.147l-6.899 5.706c-.3.244-.45.586-.45.927z"/><path d="m385.25 395.768-5.85 16.525c-.25.634.05 1.317.7 1.609.15.049.3.098.45.098.5 0 .95-.293 1.15-.78l5.9-16.525c.25-.634-.05-1.366-.7-1.609-.65-.244-1.4.048-1.65.682z"/></g><path d="m412.454 419.409v.001c0 1.987-1.605 3.59-3.642 3.59h-50.67c-2.037 0-3.642-1.603-3.642-3.59v-31.41h57.999z" fill="#5e69ff" opacity=".5" stroke="#18465e" stroke-width="2"/><path d="m437.684 404.268h-4.716l-.756 2.232h-3.222l4.572-12.636h3.564l4.572 12.636h-3.258zm-.792-2.376-1.566-4.626-1.548 4.626zm9.276-4.014c.3-.468.714-.846 1.242-1.134s1.146-.432 1.854-.432c.828 0 1.578.21 2.25.63s1.2 1.02 1.584 1.8c.396.78.594 1.686.594 2.718s-.198 1.944-.594 2.736c-.384.78-.912 1.386-1.584 1.818-.672.42-1.422.63-2.25.63-.696 0-1.314-.144-1.854-.432-.528-.288-.942-.66-1.242-1.116v6.192h-3.078v-14.832h3.078zm4.392 3.582c0-.768-.216-1.368-.648-1.8-.42-.444-.942-.666-1.566-.666-.612 0-1.134.222-1.566.666-.42.444-.63 1.05-.63 1.818s.21 1.374.63 1.818c.432.444.954.666 1.566.666s1.134-.222 1.566-.666c.432-.456.648-1.068.648-1.836zm7.824-3.582c.3-.468.714-.846 1.242-1.134s1.146-.432 1.854-.432c.828 0 1.578.21 2.25.63s1.2 1.02 1.584 1.8c.396.78.594 1.686.594 2.718s-.198 1.944-.594 2.736c-.384.78-.912 1.386-1.584 1.818-.672.42-1.422.63-2.25.63-.696 0-1.314-.144-1.854-.432-.528-.288-.942-.66-1.242-1.116v6.192h-3.078v-14.832h3.078zm4.392 3.582c0-.768-.216-1.368-.648-1.8-.42-.444-.942-.666-1.566-.666-.612 0-1.134.222-1.566.666-.42.444-.63 1.05-.63 1.818s.21 1.374.63 1.818c.432.444.954.666 1.566.666s1.134-.222 1.566-.666c.432-.456.648-1.068.648-1.836zm7.825-8.28v13.32h-3.078v-13.32zm3.779 2.232c-.54 0-.984-.156-1.332-.468-.336-.324-.504-.72-.504-1.188 0-.48.168-.876.504-1.188.348-.324.792-.486 1.332-.486.528 0 .96.162 1.296.486.348.312.522.708.522 1.188 0 .468-.174.864-.522 1.188-.336.312-.768.468-1.296.468zm1.53 1.044v10.044h-3.078v-10.044zm1.618 5.022c0-1.044.21-1.956.63-2.736.432-.78 1.026-1.38 1.782-1.8.768-.42 1.644-.63 2.628-.63 1.26 0 2.31.33 3.15.99.852.66 1.41 1.59 1.674 2.79h-3.276c-.276-.768-.81-1.152-1.602-1.152-.564 0-1.014.222-1.35.666-.336.432-.504 1.056-.504 1.872s.168 1.446.504 1.89c.336.432.786.648 1.35.648.792 0 1.326-.384 1.602-1.152h3.276c-.264 1.176-.822 2.1-1.674 2.772s-1.902 1.008-3.15 1.008c-.984 0-1.86-.21-2.628-.63-.756-.42-1.35-1.02-1.782-1.8-.42-.78-.63-1.692-.63-2.736zm10.899-.018c0-1.032.192-1.938.576-2.718.396-.78.93-1.38 1.602-1.8s1.422-.63 2.25-.63c.708 0 1.326.144 1.854.432.54.288.954.666 1.242 1.134v-1.422h3.078v10.044h-3.078v-1.422c-.3.468-.72.846-1.26 1.134-.528.288-1.146.432-1.854.432-.816 0-1.56-.21-2.232-.63-.672-.432-1.206-1.038-1.602-1.818-.384-.792-.576-1.704-.576-2.736zm7.524.018c0-.768-.216-1.374-.648-1.818-.42-.444-.936-.666-1.548-.666s-1.134.222-1.566.666c-.42.432-.63 1.032-.63 1.8s.21 1.38.63 1.836c.432.444.954.666 1.566.666s1.128-.222 1.548-.666c.432-.444.648-1.05.648-1.818zm10.903 2.412v2.61h-1.566c-1.116 0-1.986-.27-2.61-.81-.624-.552-.936-1.446-.936-2.682v-3.996h-1.224v-2.556h1.224v-2.448h3.078v2.448h2.016v2.556h-2.016v4.032c0 .3.072.516.216.648s.384.198.72.198zm3.262-8.478c-.54 0-.984-.156-1.332-.468-.336-.324-.504-.72-.504-1.188 0-.48.168-.876.504-1.188.348-.324.792-.486 1.332-.486.528 0 .96.162 1.296.486.348.312.522.708.522 1.188 0 .468-.174.864-.522 1.188-.336.312-.768.468-1.296.468zm1.53 1.044v10.044h-3.078v-10.044zm6.803 10.188c-.984 0-1.872-.21-2.664-.63-.78-.42-1.398-1.02-1.854-1.8-.444-.78-.666-1.692-.666-2.736 0-1.032.228-1.938.684-2.718.456-.792 1.08-1.398 1.872-1.818s1.68-.63 2.664-.63 1.872.21 2.664.63 1.416 1.026 1.872 1.818c.456.78.684 1.686.684 2.718s-.234 1.944-.702 2.736c-.456.78-1.086 1.38-1.89 1.8-.792.42-1.68.63-2.664.63zm0-2.664c.588 0 1.086-.216 1.494-.648.42-.432.63-1.05.63-1.854s-.204-1.422-.612-1.854c-.396-.432-.888-.648-1.476-.648-.6 0-1.098.216-1.494.648-.396.42-.594 1.038-.594 1.854 0 .804.192 1.422.576 1.854.396.432.888.648 1.476.648zm13.009-7.632c1.176 0 2.112.384 2.808 1.152.708.756 1.062 1.8 1.062 3.132v5.868h-3.06v-5.454c0-.672-.174-1.194-.522-1.566s-.816-.558-1.404-.558-1.056.186-1.404.558-.522.894-.522 1.566v5.454h-3.078v-10.044h3.078v1.332c.312-.444.732-.792 1.26-1.044.528-.264 1.122-.396 1.782-.396zm13.963 13.914c-1.164-1.116-2.07-2.556-2.718-4.32s-.972-3.666-.972-5.706c0-2.064.336-3.99 1.008-5.778.672-1.8 1.626-3.264 2.862-4.392h3.024v.288c-1.26 1.248-2.232 2.748-2.916 4.5-.684 1.74-1.026 3.534-1.026 5.382 0 1.836.33 3.606.99 5.31s1.59 3.18 2.79 4.428v.288zm14.068-12.33c0 .732-.168 1.404-.504 2.016-.336.6-.852 1.086-1.548 1.458s-1.56.558-2.592.558h-1.908v4.536h-3.078v-12.636h4.986c1.008 0 1.86.174 2.556.522s1.218.828 1.566 1.44.522 1.314.522 2.106zm-4.878 1.584c.588 0 1.026-.138 1.314-.414s.432-.666.432-1.17-.144-.894-.432-1.17-.726-.414-1.314-.414h-1.674v3.168zm9.559-1.386c.36-.552.81-.984 1.35-1.296.54-.324 1.14-.486 1.8-.486v3.258h-.846c-.768 0-1.344.168-1.728.504-.384.324-.576.9-.576 1.728v4.662h-3.078v-10.044h3.078zm9.193 8.514c-.984 0-1.872-.21-2.664-.63-.78-.42-1.398-1.02-1.854-1.8-.444-.78-.666-1.692-.666-2.736 0-1.032.228-1.938.684-2.718.456-.792 1.08-1.398 1.872-1.818s1.68-.63 2.664-.63 1.872.21 2.664.63 1.416 1.026 1.872 1.818c.456.78.684 1.686.684 2.718s-.234 1.944-.702 2.736c-.456.78-1.086 1.38-1.89 1.8-.792.42-1.68.63-2.664.63zm0-2.664c.588 0 1.086-.216 1.494-.648.42-.432.63-1.05.63-1.854s-.204-1.422-.612-1.854c-.396-.432-.888-.648-1.476-.648-.6 0-1.098.216-1.494.648-.396.42-.594 1.038-.594 1.854 0 .804.192 1.422.576 1.854.396.432.888.648 1.476.648zm11.407-.36 2.178-7.164h3.276l-3.564 10.044h-3.798l-3.564-10.044h3.294zm8.297-8.208c-.54 0-.984-.156-1.332-.468-.336-.324-.504-.72-.504-1.188 0-.48.168-.876.504-1.188.348-.324.792-.486 1.332-.486.528 0 .96.162 1.296.486.348.312.522.708.522 1.188 0 .468-.174.864-.522 1.188-.336.312-.768.468-1.296.468zm1.53 1.044v10.044h-3.078v-10.044zm1.619 5.004c0-1.032.192-1.938.576-2.718.396-.78.93-1.38 1.602-1.8s1.422-.63 2.25-.63c.66 0 1.26.138 1.8.414.552.276.984.648 1.296 1.116v-4.662h3.078v13.32h-3.078v-1.44c-.288.48-.702.864-1.242 1.152-.528.288-1.146.432-1.854.432-.828 0-1.578-.21-2.25-.63-.672-.432-1.206-1.038-1.602-1.818-.384-.792-.576-1.704-.576-2.736zm7.524.018c0-.768-.216-1.374-.648-1.818-.42-.444-.936-.666-1.548-.666s-1.134.222-1.566.666c-.42.432-.63 1.032-.63 1.8s.21 1.38.63 1.836c.432.444.954.666 1.566.666s1.128-.222 1.548-.666c.432-.444.648-1.05.648-1.818zm14.773-.162c0 .288-.018.588-.054.9h-6.966c.048.624.246 1.104.594 1.44.36.324.798.486 1.314.486.768 0 1.302-.324 1.602-.972h3.276c-.168.66-.474 1.254-.918 1.782-.432.528-.978.942-1.638 1.242s-1.398.45-2.214.45c-.984 0-1.86-.21-2.628-.63s-1.368-1.02-1.8-1.8-.648-1.692-.648-2.736.21-1.956.63-2.736c.432-.78 1.032-1.38 1.8-1.8s1.65-.63 2.646-.63c.972 0 1.836.204 2.592.612s1.344.99 1.764 1.746c.432.756.648 1.638.648 2.646zm-3.15-.81c0-.528-.18-.948-.54-1.26s-.81-.468-1.35-.468c-.516 0-.954.15-1.314.45-.348.3-.564.726-.648 1.278zm7.852-2.376c.36-.552.81-.984 1.35-1.296.54-.324 1.14-.486 1.8-.486v3.258h-.846c-.768 0-1.344.168-1.728.504-.384.324-.576.9-.576 1.728v4.662h-3.078v-10.044h3.078zm3.793 12.132v-.288c1.2-1.248 2.13-2.724 2.79-4.428s.99-3.474.99-5.31c0-1.848-.342-3.642-1.026-5.382-.684-1.752-1.656-3.252-2.916-4.5v-.288h3.024c1.236 1.128 2.19 2.592 2.862 4.392.672 1.788 1.008 3.714 1.008 5.778 0 2.04-.324 3.942-.972 5.706s-1.554 3.204-2.718 4.32z" fill="#fff"/><path d="m157.5 449c0-.828-.672-1.5-1.5-1.5s-1.5.672-1.5 1.5zm-2.561 152.061c.586.585 1.536.585 2.122 0l9.546-9.546c.585-.586.585-1.536 0-2.122-.586-.585-1.536-.585-2.122 0l-8.485 8.486-8.485-8.486c-.586-.585-1.536-.585-2.122 0-.585.586-.585 1.536 0 2.122zm-.439-152.061v151h3v-151z" fill="#18465e"/><path d="m156 200v151" stroke="#18465e" stroke-linecap="round" stroke-width="3"/><path d="m452 116h133c5.523 0 10 4.477 10 10v65" stroke="#18465e" stroke-linecap="round" stroke-width="3"/><path d="m592.939 316.061c.586.585 1.536.585 2.122 0l9.546-9.546c.585-.586.585-1.536 0-2.122-.586-.585-1.536-.585-2.122 0l-8.485 8.486-8.485-8.486c-.586-.585-1.536-.585-2.122 0-.585.586-.585 1.536 0 2.122zm2.561-47.061c0-.828-.672-1.5-1.5-1.5s-1.5.672-1.5 1.5zm0 46v-46h-3v46z" fill="#18465e"/><path d="m594 485v23.5" stroke="#18465e" stroke-linecap="round" stroke-width="3"/><path d="m592.425 601.048c.577.594 1.527.607 2.121.03l9.677-9.413c.594-.577.607-1.527.03-2.121-.578-.594-1.527-.607-2.121-.029l-8.603 8.366-8.366-8.602c-.578-.594-1.527-.607-2.121-.029-.594.577-.607 1.527-.03 2.121zm3.075-37.027c.011-.829-.651-1.509-1.479-1.521-.829-.011-1.509.651-1.521 1.479zm-.5 36.002.5-36.002-3-.042-.5 36.003z" fill="#18465e"/><rect fill="#55b1ab" height="137" rx="8.5" width="596" x="77.5" y="616.5"/><rect height="137" rx="8.5" stroke="#18465e" stroke-width="3" width="596" x="77.5" y="616.5"/><rect fill="#fff" height="48" rx="8" width="60" x="284" y="661"/><path d="m342.954 704.409v.001c0 1.987-1.605 3.59-3.642 3.59h-50.67c-2.037 0-3.642-1.603-3.642-3.59v-31.41h57.999z" stroke="#18465e" stroke-width="2"/><path d="m342.954 665.595v-.005c0-1.987-1.605-3.59-3.642-3.59h-50.67c-2.037 0-3.642 1.603-3.642 3.59v7.41h57.994z" fill="#55b1ab" stroke="#18465e" stroke-width="2"/><ellipse cx="292.136" cy="667.5" fill="#18465e" rx="1.52542" ry="1.5"/><ellipse cx="298.237" cy="667.5" fill="#18465e" rx="1.52542" ry="1.5"/><ellipse cx="304.339" cy="667.5" fill="#18465e" rx="1.52542" ry="1.5"/><path d="m342.954 704.409v.001c0 1.987-1.605 3.59-3.642 3.59h-50.67c-2.037 0-3.642-1.603-3.642-3.59v-31.41h57.999z" fill="#55b1ab" opacity=".5" stroke="#18465e" stroke-width="2"/><path d="m307 703v-24h15.385v4.103h-10.77v7.692l8.206-3.59v4.616l-8.206 3.589v7.59z" fill="#18465e"/><path d="m368.711 678.864v2.466h-5.148v2.664h3.852v2.394h-3.852v5.112h-3.078v-12.636zm8.062 12.636-2.628-4.77h-.738v4.77h-3.078v-12.636h5.166c.996 0 1.842.174 2.538.522.708.348 1.236.828 1.584 1.44.348.6.522 1.272.522 2.016 0 .84-.24 1.59-.72 2.25-.468.66-1.164 1.128-2.088 1.404l2.916 5.004zm-3.366-6.948h1.908c.564 0 .984-.138 1.26-.414.288-.276.432-.666.432-1.17 0-.48-.144-.858-.432-1.134-.276-.276-.696-.414-1.26-.414h-1.908zm11.742-3.222v2.556h4.122v2.376h-4.122v2.772h4.662v2.466h-7.74v-12.636h7.74v2.466zm15.66 12.33-1.62-2.178c-.48.096-.948.144-1.404.144-1.188 0-2.28-.276-3.276-.828-.984-.552-1.77-1.32-2.358-2.304-.576-.996-.864-2.112-.864-3.348s.288-2.346.864-3.33c.588-.984 1.374-1.752 2.358-2.304.996-.552 2.088-.828 3.276-.828s2.274.276 3.258.828c.996.552 1.776 1.32 2.34 2.304.576.984.864 2.094.864 3.33 0 1.08-.222 2.07-.666 2.97-.432.888-1.038 1.626-1.818 2.214l2.772 3.33zm-6.372-8.514c0 1.116.3 2.01.9 2.682.612.66 1.428.99 2.448.99 1.008 0 1.812-.336 2.412-1.008.612-.672.918-1.56.918-2.664 0-1.116-.306-2.004-.918-2.664-.6-.672-1.404-1.008-2.412-1.008-1.02 0-1.836.33-2.448.99-.6.66-.9 1.554-.9 2.682zm14.582-6.282v7.56c0 .756.186 1.338.558 1.746s.918.612 1.638.612 1.272-.204 1.656-.612.576-.99.576-1.746v-7.56h3.078v7.542c0 1.128-.24 2.082-.72 2.862s-1.128 1.368-1.944 1.764c-.804.396-1.704.594-2.7.594s-1.89-.192-2.682-.576c-.78-.396-1.398-.984-1.854-1.764-.456-.792-.684-1.752-.684-2.88v-7.542zm12.745 2.466v2.556h4.122v2.376h-4.122v2.772h4.662v2.466h-7.74v-12.636h7.74v2.466zm17.965 10.17h-3.078l-5.148-7.794v7.794h-3.078v-12.636h3.078l5.148 7.83v-7.83h3.078zm1.709-6.336c0-1.248.27-2.358.81-3.33.54-.984 1.29-1.746 2.25-2.286.972-.552 2.07-.828 3.294-.828 1.5 0 2.784.396 3.852 1.188s1.782 1.872 2.142 3.24h-3.384c-.252-.528-.612-.93-1.08-1.206-.456-.276-.978-.414-1.566-.414-.948 0-1.716.33-2.304.99s-.882 1.542-.882 2.646.294 1.986.882 2.646 1.356.99 2.304.99c.588 0 1.11-.138 1.566-.414.468-.276.828-.678 1.08-1.206h3.384c-.36 1.368-1.074 2.448-2.142 3.24-1.068.78-2.352 1.17-3.852 1.17-1.224 0-2.322-.27-3.294-.81-.96-.552-1.71-1.314-2.25-2.286s-.81-2.082-.81-3.33zm25.069-6.3-4.374 8.46v4.176h-3.078v-4.176l-4.374-8.46h3.492l2.448 5.292 2.43-5.292z" fill="#18465e"/><path d="m73.0671 385.368c0-1.109.24-2.096.72-2.96.48-.875 1.1466-1.552 2-2.032.864-.491 1.84-.736 2.928-.736 1.3333 0 2.4746.352 3.424 1.056.9493.704 1.584 1.664 1.904 2.88h-3.008c-.224-.469-.544-.827-.96-1.072-.4054-.245-.8694-.368-1.392-.368-.8427 0-1.5254.293-2.048.88-.5227.587-.784 1.371-.784 2.352s.2613 1.765.784 2.352c.5226.587 1.2053.88 2.048.88.5226 0 .9866-.123 1.392-.368.416-.245.736-.603.96-1.072h3.008c-.32 1.216-.9547 2.176-1.904 2.88-.9494.693-2.0907 1.04-3.424 1.04-1.088 0-2.064-.24-2.928-.72-.8534-.491-1.52-1.168-2-2.032s-.72-1.851-.72-2.96zm16.7155 5.76c-.8747 0-1.664-.187-2.368-.56-.6934-.373-1.2427-.907-1.648-1.6-.3947-.693-.592-1.504-.592-2.432 0-.917.2026-1.723.608-2.416.4053-.704.96-1.243 1.664-1.616s1.4933-.56 2.368-.56c.8746 0 1.664.187 2.368.56s1.2586.912 1.664 1.616c.4053.693.608 1.499.608 2.416s-.208 1.728-.624 2.432c-.4054.693-.9654 1.227-1.68 1.6-.704.373-1.4934.56-2.368.56zm0-2.368c.5226 0 .9653-.192 1.328-.576.3733-.384.56-.933.56-1.648s-.1814-1.264-.544-1.648c-.352-.384-.7894-.576-1.312-.576-.5334 0-.976.192-1.328.576-.352.373-.528.923-.528 1.648 0 .715.1706 1.264.512 1.648.352.384.7893.576 1.312.576zm7.4995-7.616c-.48 0-.8747-.139-1.184-.416-.2987-.288-.448-.64-.448-1.056 0-.427.1493-.779.448-1.056.3093-.288.704-.432 1.184-.432.4693 0 .8533.144 1.152.432.3093.277.464.629.464 1.056 0 .416-.1547.768-.464 1.056-.2987.277-.6827.416-1.152.416zm1.36.928v8.928h-2.736v-8.928zm7.4229-.096c1.045 0 1.877.341 2.496 1.024.629.672.944 1.6.944 2.784v5.216h-2.72v-4.848c0-.597-.155-1.061-.464-1.392-.31-.331-.726-.496-1.248-.496-.523 0-.939.165-1.248.496-.31.331-.464.795-.464 1.392v4.848h-2.736v-8.928h2.736v1.184c.277-.395.65-.704 1.12-.928.469-.235.997-.352 1.584-.352zm8.077-2.816v11.84h-2.736v-11.84zm10.399 7.232c0 .256-.016.523-.048.8h-6.192c.042.555.218.981.528 1.28.32.288.709.432 1.168.432.682 0 1.157-.288 1.424-.864h2.912c-.15.587-.422 1.115-.816 1.584-.384.469-.87.837-1.456 1.104-.587.267-1.243.4-1.968.4-.875 0-1.654-.187-2.336-.56-.683-.373-1.216-.907-1.6-1.6s-.576-1.504-.576-2.432.186-1.739.56-2.432c.384-.693.917-1.227 1.6-1.6.682-.373 1.466-.56 2.352-.56.864 0 1.632.181 2.304.544s1.194.88 1.568 1.552c.384.672.576 1.456.576 2.352zm-2.8-.72c0-.469-.16-.843-.48-1.12s-.72-.416-1.2-.416c-.459 0-.848.133-1.168.4-.31.267-.502.645-.576 1.136zm7.875 5.456c-.778 0-1.472-.133-2.08-.4s-1.088-.629-1.44-1.088c-.352-.469-.549-.992-.592-1.568h2.704c.032.309.176.56.432.752s.571.288.944.288c.342 0 .603-.064.784-.192.192-.139.288-.315.288-.528 0-.256-.133-.443-.4-.56-.266-.128-.698-.267-1.296-.416-.64-.149-1.173-.304-1.6-.464-.426-.171-.794-.432-1.104-.784-.309-.363-.464-.848-.464-1.456 0-.512.139-.976.416-1.392.288-.427.704-.763 1.248-1.008.555-.245 1.211-.368 1.968-.368 1.12 0 2 .277 2.64.832.651.555 1.024 1.291 1.12 2.208h-2.528c-.042-.309-.181-.555-.416-.736-.224-.181-.522-.272-.896-.272-.32 0-.565.064-.736.192-.17.117-.256.283-.256.496 0 .256.134.448.4.576.278.128.704.256 1.28.384.662.171 1.2.341 1.616.512.416.16.779.427 1.088.8.32.363.486.853.496 1.472 0 .523-.149.992-.448 1.408-.288.405-.709.725-1.264.96-.544.235-1.178.352-1.904.352zm8.922 0c-.779 0-1.472-.133-2.08-.4s-1.088-.629-1.44-1.088c-.352-.469-.549-.992-.592-1.568h2.704c.032.309.176.56.432.752s.571.288.944.288c.341 0 .603-.064.784-.192.192-.139.288-.315.288-.528 0-.256-.133-.443-.4-.56-.267-.128-.699-.267-1.296-.416-.64-.149-1.173-.304-1.6-.464-.427-.171-.795-.432-1.104-.784-.309-.363-.464-.848-.464-1.456 0-.512.139-.976.416-1.392.288-.427.704-.763 1.248-1.008.555-.245 1.211-.368 1.968-.368 1.12 0 2 .277 2.64.832.651.555 1.024 1.291 1.12 2.208h-2.528c-.043-.309-.181-.555-.416-.736-.224-.181-.523-.272-.896-.272-.32 0-.565.064-.736.192-.171.117-.256.283-.256.496 0 .256.133.448.4.576.277.128.704.256 1.28.384.661.171 1.2.341 1.616.512.416.16.779.427 1.088.8.32.363.485.853.496 1.472 0 .523-.149.992-.448 1.408-.288.405-.709.725-1.264.96-.544.235-1.179.352-1.904.352zm14.409-.128-2.336-4.24h-.656v4.24h-2.736v-11.232h4.592c.885 0 1.637.155 2.256.464.629.309 1.098.736 1.408 1.28.309.533.464 1.131.464 1.792 0 .747-.214 1.413-.64 2-.416.587-1.035 1.003-1.856 1.248l2.592 4.448zm-2.992-6.176h1.696c.501 0 .874-.123 1.12-.368.256-.245.384-.592.384-1.04 0-.427-.128-.763-.384-1.008-.246-.245-.619-.368-1.12-.368h-1.696zm16.117 1.568c0 .256-.016.523-.048.8h-6.192c.043.555.219.981.528 1.28.32.288.709.432 1.168.432.683 0 1.157-.288 1.424-.864h2.912c-.149.587-.421 1.115-.816 1.584-.384.469-.869.837-1.456 1.104s-1.243.4-1.968.4c-.875 0-1.653-.187-2.336-.56s-1.216-.907-1.6-1.6-.576-1.504-.576-2.432.187-1.739.56-2.432c.384-.693.917-1.227 1.6-1.6s1.467-.56 2.352-.56c.864 0 1.632.181 2.304.544s1.195.88 1.568 1.552c.384.672.576 1.456.576 2.352zm-2.8-.72c0-.469-.16-.843-.48-1.12s-.72-.416-1.2-.416c-.459 0-.848.133-1.168.4-.309.267-.501.645-.576 1.136zm8.259 2.768 1.936-6.368h2.912l-3.168 8.928h-3.376l-3.168-8.928h2.928zm10.064 2.688c-.875 0-1.664-.187-2.368-.56-.693-.373-1.243-.907-1.648-1.6-.395-.693-.592-1.504-.592-2.432 0-.917.203-1.723.608-2.416.405-.704.96-1.243 1.664-1.616s1.493-.56 2.368-.56 1.664.187 2.368.56 1.259.912 1.664 1.616c.405.693.608 1.499.608 2.416s-.208 1.728-.624 2.432c-.405.693-.965 1.227-1.68 1.6-.704.373-1.493.56-2.368.56zm0-2.368c.523 0 .965-.192 1.328-.576.373-.384.56-.933.56-1.648s-.181-1.264-.544-1.648c-.352-.384-.789-.576-1.312-.576-.533 0-.976.192-1.328.576-.352.373-.528.923-.528 1.648 0 .715.171 1.264.512 1.648.352.384.789.576 1.312.576zm5.58-2.224c0-.928.186-1.739.56-2.432.384-.693.912-1.227 1.584-1.6.682-.373 1.461-.56 2.336-.56 1.12 0 2.053.293 2.8.88.757.587 1.253 1.413 1.488 2.48h-2.912c-.246-.683-.72-1.024-1.424-1.024-.502 0-.902.197-1.2.592-.299.384-.448.939-.448 1.664s.149 1.285.448 1.68c.298.384.698.576 1.2.576.704 0 1.178-.341 1.424-1.024h2.912c-.235 1.045-.731 1.867-1.488 2.464-.758.597-1.691.896-2.8.896-.875 0-1.654-.187-2.336-.56-.672-.373-1.2-.907-1.584-1.6-.374-.693-.56-1.504-.56-2.432zm9.687-.016c0-.917.171-1.723.512-2.416.352-.693.827-1.227 1.424-1.6s1.264-.56 2-.56c.629 0 1.179.128 1.648.384.48.256.848.592 1.104 1.008v-1.264h2.736v8.928h-2.736v-1.264c-.267.416-.64.752-1.12 1.008-.469.256-1.019.384-1.648.384-.725 0-1.387-.187-1.984-.56-.597-.384-1.072-.923-1.424-1.616-.341-.704-.512-1.515-.512-2.432zm6.688.016c0-.683-.192-1.221-.576-1.616-.373-.395-.832-.592-1.376-.592s-1.008.197-1.392.592c-.373.384-.56.917-.56 1.6s.187 1.227.56 1.632c.384.395.848.592 1.392.592s1.003-.197 1.376-.592c.384-.395.576-.933.576-1.616zm9.691 2.144v2.32h-1.392c-.992 0-1.765-.24-2.32-.72-.554-.491-.832-1.285-.832-2.384v-3.552h-1.088v-2.272h1.088v-2.176h2.736v2.176h1.792v2.272h-1.792v3.584c0 .267.064.459.192.576s.342.176.64.176zm2.9-7.536c-.48 0-.874-.139-1.184-.416-.298-.288-.448-.64-.448-1.056 0-.427.15-.779.448-1.056.31-.288.704-.432 1.184-.432.47 0 .854.144 1.152.432.31.277.464.629.464 1.056 0 .416-.154.768-.464 1.056-.298.277-.682.416-1.152.416zm1.36.928v8.928h-2.736v-8.928zm6.047 9.056c-.874 0-1.664-.187-2.368-.56-.693-.373-1.242-.907-1.648-1.6-.394-.693-.592-1.504-.592-2.432 0-.917.203-1.723.608-2.416.406-.704.96-1.243 1.664-1.616s1.494-.56 2.368-.56c.875 0 1.664.187 2.368.56s1.259.912 1.664 1.616c.406.693.608 1.499.608 2.416s-.208 1.728-.624 2.432c-.405.693-.965 1.227-1.68 1.6-.704.373-1.493.56-2.368.56zm0-2.368c.523 0 .966-.192 1.328-.576.374-.384.56-.933.56-1.648s-.181-1.264-.544-1.648c-.352-.384-.789-.576-1.312-.576-.533 0-.976.192-1.328.576-.352.373-.528.923-.528 1.648 0 .715.171 1.264.512 1.648.352.384.79.576 1.312.576zm11.564-6.784c1.045 0 1.877.341 2.496 1.024.629.672.944 1.6.944 2.784v5.216h-2.72v-4.848c0-.597-.155-1.061-.464-1.392-.31-.331-.726-.496-1.248-.496-.523 0-.939.165-1.248.496-.31.331-.464.795-.464 1.392v4.848h-2.736v-8.928h2.736v1.184c.277-.395.65-.704 1.12-.928.469-.235.997-.352 1.584-.352zm-109.287 25.392c0-1.109.24-2.096.72-2.96.48-.875 1.147-1.552 2-2.032.864-.491 1.84-.736 2.928-.736 1.333 0 2.475.352 3.424 1.056s1.584 1.664 1.904 2.88h-3.008c-.224-.469-.544-.827-.96-1.072-.405-.245-.869-.368-1.392-.368-.843 0-1.525.293-2.048.88s-.784 1.371-.784 2.352.261 1.765.784 2.352 1.205.88 2.048.88c.523 0 .987-.123 1.392-.368.416-.245.736-.603.96-1.072h3.008c-.32 1.216-.955 2.176-1.904 2.88-.949.693-2.091 1.04-3.424 1.04-1.088 0-2.064-.24-2.928-.72-.853-.491-1.52-1.168-2-2.032s-.72-1.851-.72-2.96zm16.715 5.76c-.874 0-1.664-.187-2.368-.56-.693-.373-1.242-.907-1.648-1.6-.394-.693-.592-1.504-.592-2.432 0-.917.203-1.723.608-2.416.406-.704.96-1.243 1.664-1.616s1.494-.56 2.368-.56c.875 0 1.664.187 2.368.56s1.259.912 1.664 1.616c.406.693.608 1.499.608 2.416s-.208 1.728-.624 2.432c-.405.693-.965 1.227-1.68 1.6-.704.373-1.493.56-2.368.56zm0-2.368c.523 0 .966-.192 1.328-.576.374-.384.56-.933.56-1.648s-.181-1.264-.544-1.648c-.352-.384-.789-.576-1.312-.576-.533 0-.976.192-1.328.576-.352.373-.528.923-.528 1.648 0 .715.171 1.264.512 1.648.352.384.79.576 1.312.576zm11.564-6.784c1.045 0 1.877.341 2.496 1.024.629.672.944 1.6.944 2.784v5.216h-2.72v-4.848c0-.597-.155-1.061-.464-1.392s-.725-.496-1.248-.496-.939.165-1.248.496-.464.795-.464 1.392v4.848h-2.736v-8.928h2.736v1.184c.277-.395.651-.704 1.12-.928.469-.235.997-.352 1.584-.352zm10.317 6.704v2.32h-1.392c-.992 0-1.765-.24-2.32-.72-.555-.491-.832-1.285-.832-2.384v-3.552h-1.088v-2.272h1.088v-2.176h2.736v2.176h1.792v2.272h-1.792v3.584c0 .267.064.459.192.576s.341.176.64.176zm4.26-5.12c.32-.491.72-.875 1.2-1.152.48-.288 1.013-.432 1.6-.432v2.896h-.752c-.683 0-1.195.149-1.536.448-.341.288-.512.8-.512 1.536v4.144h-2.736v-8.928h2.736zm8.172 7.568c-.875 0-1.664-.187-2.368-.56-.693-.373-1.243-.907-1.648-1.6-.395-.693-.592-1.504-.592-2.432 0-.917.203-1.723.608-2.416.405-.704.96-1.243 1.664-1.616s1.493-.56 2.368-.56 1.664.187 2.368.56 1.259.912 1.664 1.616c.405.693.608 1.499.608 2.416s-.208 1.728-.624 2.432c-.405.693-.965 1.227-1.68 1.6-.704.373-1.493.56-2.368.56zm0-2.368c.523 0 .965-.192 1.328-.576.373-.384.56-.933.56-1.648s-.181-1.264-.544-1.648c-.352-.384-.789-.576-1.312-.576-.533 0-.976.192-1.328.576-.352.373-.528.923-.528 1.648 0 .715.171 1.264.512 1.648.352.384.789.576 1.312.576zm8.859-9.6v11.84h-2.736v-11.84z" fill="#18465e"/><path d="m563.13 221.768c1.184 0 2.218.235 3.104.704.885.469 1.568 1.131 2.048 1.984.49.843.736 1.819.736 2.928 0 1.099-.246 2.075-.736 2.928-.48.853-1.168 1.515-2.064 1.984-.886.469-1.915.704-3.088.704h-4.208v-11.232zm-.176 8.864c1.034 0 1.84-.283 2.416-.848s.864-1.365.864-2.4-.288-1.84-.864-2.416-1.382-.864-2.416-.864h-1.296v6.528zm16.009-2.24c0 .256-.016.523-.048.8h-6.192c.042.555.218.981.528 1.28.32.288.709.432 1.168.432.682 0 1.157-.288 1.424-.864h2.912c-.15.587-.422 1.115-.816 1.584-.384.469-.87.837-1.456 1.104-.587.267-1.243.4-1.968.4-.875 0-1.654-.187-2.336-.56-.683-.373-1.216-.907-1.6-1.6s-.576-1.504-.576-2.432.186-1.739.56-2.432c.384-.693.917-1.227 1.6-1.6.682-.373 1.466-.56 2.352-.56.864 0 1.632.181 2.304.544s1.194.88 1.568 1.552c.384.672.576 1.456.576 2.352zm-2.8-.72c0-.469-.16-.843-.48-1.12s-.72-.416-1.2-.416c-.459 0-.848.133-1.168.4-.31.267-.502.645-.576 1.136zm6.979-6.512v11.84h-2.736v-11.84zm10.399 7.232c0 .256-.016.523-.048.8h-6.192c.042.555.218.981.528 1.28.32.288.709.432 1.168.432.682 0 1.157-.288 1.424-.864h2.912c-.15.587-.422 1.115-.816 1.584-.384.469-.87.837-1.456 1.104-.587.267-1.243.4-1.968.4-.875 0-1.654-.187-2.336-.56-.683-.373-1.216-.907-1.6-1.6s-.576-1.504-.576-2.432.186-1.739.56-2.432c.384-.693.917-1.227 1.6-1.6.682-.373 1.466-.56 2.352-.56.864 0 1.632.181 2.304.544s1.194.88 1.568 1.552c.384.672.576 1.456.576 2.352zm-2.8-.72c0-.469-.16-.843-.48-1.12s-.72-.416-1.2-.416c-.459 0-.848.133-1.168.4-.31.267-.502.645-.576 1.136zm7.635-3.728c.63 0 1.179.128 1.648.384.48.256.848.592 1.104 1.008v-1.264h2.736v8.912c0 .821-.165 1.563-.496 2.224-.32.672-.816 1.205-1.488 1.6-.661.395-1.488.592-2.48.592-1.322 0-2.394-.315-3.216-.944-.821-.619-1.29-1.461-1.408-2.528h2.704c.086.341.288.608.608.8.32.203.715.304 1.184.304.566 0 1.014-.165 1.344-.496.342-.32.512-.837.512-1.552v-1.264c-.266.416-.634.757-1.104 1.024-.469.256-1.018.384-1.648.384-.736 0-1.402-.187-2-.56-.597-.384-1.072-.923-1.424-1.616-.341-.704-.512-1.515-.512-2.432s.171-1.723.512-2.416c.352-.693.827-1.227 1.424-1.6.598-.373 1.264-.56 2-.56zm2.752 4.592c0-.683-.192-1.221-.576-1.616-.373-.395-.832-.592-1.376-.592s-1.008.197-1.392.592c-.373.384-.56.917-.56 1.6s.187 1.227.56 1.632c.384.395.848.592 1.392.592s1.003-.197 1.376-.592c.384-.395.576-.933.576-1.616zm4.172-.016c0-.917.17-1.723.512-2.416.352-.693.826-1.227 1.424-1.6.597-.373 1.264-.56 2-.56.629 0 1.178.128 1.648.384.48.256.848.592 1.104 1.008v-1.264h2.736v8.928h-2.736v-1.264c-.267.416-.64.752-1.12 1.008-.47.256-1.019.384-1.648.384-.726 0-1.387-.187-1.984-.56-.598-.384-1.072-.923-1.424-1.616-.342-.704-.512-1.515-.512-2.432zm6.688.016c0-.683-.192-1.221-.576-1.616-.374-.395-.832-.592-1.376-.592s-1.008.197-1.392.592c-.374.384-.56.917-.56 1.6s.186 1.227.56 1.632c.384.395.848.592 1.392.592s1.002-.197 1.376-.592c.384-.395.576-.933.576-1.616zm9.691 2.144v2.32h-1.392c-.992 0-1.765-.24-2.32-.72-.555-.491-.832-1.285-.832-2.384v-3.552h-1.088v-2.272h1.088v-2.176h2.736v2.176h1.792v2.272h-1.792v3.584c0 .267.064.459.192.576s.341.176.64.176zm9.94-2.288c0 .256-.016.523-.048.8h-6.192c.043.555.219.981.528 1.28.32.288.709.432 1.168.432.683 0 1.157-.288 1.424-.864h2.912c-.149.587-.421 1.115-.816 1.584-.384.469-.869.837-1.456 1.104s-1.243.4-1.968.4c-.875 0-1.653-.187-2.336-.56s-1.216-.907-1.6-1.6-.576-1.504-.576-2.432.187-1.739.56-2.432c.384-.693.917-1.227 1.6-1.6s1.467-.56 2.352-.56c.864 0 1.632.181 2.304.544s1.195.88 1.568 1.552c.384.672.576 1.456.576 2.352zm-2.8-.72c0-.469-.16-.843-.48-1.12s-.72-.416-1.2-.416c-.459 0-.848.133-1.168.4-.309.267-.501.645-.576 1.136z" fill="#18465e"/><path d="m525.056 519.768v11.232h-2.736v-11.232zm7.423 2.208c1.045 0 1.877.341 2.496 1.024.629.672.944 1.6.944 2.784v5.216h-2.72v-4.848c0-.597-.155-1.061-.464-1.392s-.725-.496-1.248-.496-.939.165-1.248.496-.464.795-.464 1.392v4.848h-2.736v-8.928h2.736v1.184c.277-.395.651-.704 1.12-.928.469-.235.997-.352 1.584-.352zm10.317 6.704v2.32h-1.392c-.992 0-1.765-.24-2.32-.72-.555-.491-.832-1.285-.832-2.384v-3.552h-1.088v-2.272h1.088v-2.176h2.736v2.176h1.792v2.272h-1.792v3.584c0 .267.064.459.192.576s.341.176.64.176zm9.94-2.288c0 .256-.016.523-.048.8h-6.192c.043.555.219.981.528 1.28.32.288.709.432 1.168.432.683 0 1.157-.288 1.424-.864h2.912c-.149.587-.421 1.115-.816 1.584-.384.469-.869.837-1.456 1.104s-1.243.4-1.968.4c-.875 0-1.653-.187-2.336-.56s-1.216-.907-1.6-1.6-.576-1.504-.576-2.432.187-1.739.56-2.432c.384-.693.917-1.227 1.6-1.6s1.467-.56 2.352-.56c.864 0 1.632.181 2.304.544s1.195.88 1.568 1.552c.384.672.576 1.456.576 2.352zm-2.8-.72c0-.469-.16-.843-.48-1.12s-.72-.416-1.2-.416c-.459 0-.848.133-1.168.4-.309.267-.501.645-.576 1.136zm6.98-2.112c.32-.491.72-.875 1.2-1.152.48-.288 1.013-.432 1.6-.432v2.896h-.752c-.683 0-1.195.149-1.536.448-.342.288-.512.8-.512 1.536v4.144h-2.736v-8.928h2.736zm3.563 2.96c0-.917.171-1.723.512-2.416.352-.693.827-1.227 1.424-1.6.598-.373 1.264-.56 2-.56.63 0 1.179.128 1.648.384.48.256.848.592 1.104 1.008v-1.264h2.736v8.928h-2.736v-1.264c-.266.416-.64.752-1.12 1.008-.469.256-1.018.384-1.648.384-.725 0-1.386-.187-1.984-.56-.597-.384-1.072-.923-1.424-1.616-.341-.704-.512-1.515-.512-2.432zm6.688.016c0-.683-.192-1.221-.576-1.616-.373-.395-.832-.592-1.376-.592s-1.008.197-1.392.592c-.373.384-.56.917-.56 1.6s.187 1.227.56 1.632c.384.395.848.592 1.392.592s1.003-.197 1.376-.592c.384-.395.576-.933.576-1.616zm4.172 0c0-.928.186-1.739.56-2.432.384-.693.912-1.227 1.584-1.6.682-.373 1.461-.56 2.336-.56 1.12 0 2.053.293 2.8.88.757.587 1.253 1.413 1.488 2.48h-2.912c-.246-.683-.72-1.024-1.424-1.024-.502 0-.902.197-1.2.592-.299.384-.448.939-.448 1.664s.149 1.285.448 1.68c.298.384.698.576 1.2.576.704 0 1.178-.341 1.424-1.024h2.912c-.235 1.045-.731 1.867-1.488 2.464-.758.597-1.691.896-2.8.896-.875 0-1.654-.187-2.336-.56-.672-.373-1.2-.907-1.584-1.6-.374-.693-.56-1.504-.56-2.432zm15.207 2.144v2.32h-1.392c-.992 0-1.765-.24-2.32-.72-.555-.491-.832-1.285-.832-2.384v-3.552h-1.088v-2.272h1.088v-2.176h2.736v2.176h1.792v2.272h-1.792v3.584c0 .267.064.459.192.576s.341.176.64.176zm8.979 2.448c-.875 0-1.664-.187-2.368-.56-.694-.373-1.243-.907-1.648-1.6-.395-.693-.592-1.504-.592-2.432 0-.917.202-1.723.608-2.416.405-.704.96-1.243 1.664-1.616s1.493-.56 2.368-.56c.874 0 1.664.187 2.368.56s1.258.912 1.664 1.616c.405.693.608 1.499.608 2.416s-.208 1.728-.624 2.432c-.406.693-.966 1.227-1.68 1.6-.704.373-1.494.56-2.368.56zm0-2.368c.522 0 .965-.192 1.328-.576.373-.384.56-.933.56-1.648s-.182-1.264-.544-1.648c-.352-.384-.79-.576-1.312-.576-.534 0-.976.192-1.328.576-.352.373-.528.923-.528 1.648 0 .715.17 1.264.512 1.648.352.384.789.576 1.312.576zm11.563-6.784c1.046 0 1.878.341 2.496 1.024.63.672.944 1.6.944 2.784v5.216h-2.72v-4.848c0-.597-.154-1.061-.464-1.392-.309-.331-.725-.496-1.248-.496-.522 0-.938.165-1.248.496-.309.331-.464.795-.464 1.392v4.848h-2.736v-8.928h2.736v1.184c.278-.395.651-.704 1.12-.928.47-.235.998-.352 1.584-.352zm11.468 1.36c.256-.416.624-.752 1.104-1.008s1.029-.384 1.648-.384c.736 0 1.403.187 2 .56s1.067.907 1.408 1.6c.352.693.528 1.499.528 2.416s-.176 1.728-.528 2.432c-.341.693-.811 1.232-1.408 1.616-.597.373-1.264.56-2 .56-.629 0-1.179-.123-1.648-.368-.469-.256-.837-.592-1.104-1.008v1.248h-2.736v-11.84h2.736zm3.904 3.184c0-.683-.192-1.216-.576-1.6-.373-.395-.837-.592-1.392-.592-.544 0-1.008.197-1.392.592-.373.395-.56.933-.56 1.616s.187 1.221.56 1.616c.384.395.848.592 1.392.592s1.008-.197 1.392-.592c.384-.405.576-.949.576-1.632zm12.635-.128c0 .256-.015.523-.047.8h-6.192c.042.555.218.981.528 1.28.32.288.709.432 1.168.432.682 0 1.157-.288 1.424-.864h2.912c-.15.587-.422 1.115-.816 1.584-.384.469-.87.837-1.456 1.104-.587.267-1.243.4-1.968.4-.875 0-1.654-.187-2.336-.56-.683-.373-1.216-.907-1.6-1.6s-.576-1.504-.576-2.432.186-1.739.56-2.432c.384-.693.917-1.227 1.6-1.6.682-.373 1.466-.56 2.352-.56.864 0 1.632.181 2.304.544s1.194.88 1.568 1.552c.384.672.575 1.456.575 2.352zm-2.799-.72c0-.469-.16-.843-.48-1.12s-.72-.416-1.2-.416c-.459 0-.848.133-1.168.4-.31.267-.502.645-.576 1.136zm9.731-3.696c1.024 0 1.845.341 2.464 1.024.619.672.928 1.6.928 2.784v5.216h-2.72v-4.848c0-.597-.155-1.061-.464-1.392s-.725-.496-1.248-.496-.939.165-1.248.496-.464.795-.464 1.392v4.848h-2.736v-11.84h2.736v4.112c.277-.395.656-.709 1.136-.944s1.019-.352 1.616-.352zm4.749 4.544c0-.917.171-1.723.512-2.416.352-.693.827-1.227 1.424-1.6s1.264-.56 2-.56c.629 0 1.179.128 1.648.384.48.256.848.592 1.104 1.008v-1.264h2.736v8.928h-2.736v-1.264c-.267.416-.64.752-1.12 1.008-.469.256-1.019.384-1.648.384-.725 0-1.387-.187-1.984-.56-.597-.384-1.072-.923-1.424-1.616-.341-.704-.512-1.515-.512-2.432zm6.688.016c0-.683-.192-1.221-.576-1.616-.373-.395-.832-.592-1.376-.592s-1.008.197-1.392.592c-.373.384-.56.917-.56 1.6s.187 1.227.56 1.632c.384.395.848.592 1.392.592s1.003-.197 1.376-.592c.384-.395.576-.933.576-1.616zm7.452-7.376v11.84h-2.736v-11.84zm6.462 5.184h-1.472v6.656h-2.736v-6.656h-.992v-2.272h.992v-.256c0-1.099.315-1.931.944-2.496.63-.576 1.552-.864 2.768-.864.203 0 .352.005.448.016v2.32c-.522-.032-.89.043-1.104.224-.213.181-.32.507-.32.976v.08h1.472zm-111.213 28.784c-.874 0-1.664-.187-2.368-.56-.693-.373-1.242-.907-1.648-1.6-.394-.693-.592-1.504-.592-2.432 0-.917.203-1.723.608-2.416.406-.704.96-1.243 1.664-1.616s1.494-.56 2.368-.56c.875 0 1.664.187 2.368.56s1.259.912 1.664 1.616c.406.693.608 1.499.608 2.416s-.208 1.728-.624 2.432c-.405.693-.965 1.227-1.68 1.6-.704.373-1.493.56-2.368.56zm0-2.368c.523 0 .966-.192 1.328-.576.374-.384.56-.933.56-1.648s-.181-1.264-.544-1.648c-.352-.384-.789-.576-1.312-.576-.533 0-.976.192-1.328.576-.352.373-.528.923-.528 1.648 0 .715.171 1.264.512 1.648.352.384.79.576 1.312.576zm10.604-4.416h-1.472v6.656h-2.736v-6.656h-.992v-2.272h.992v-.256c0-1.099.315-1.931.944-2.496.629-.576 1.552-.864 2.768-.864.203 0 .352.005.448.016v2.32c-.523-.032-.891.043-1.104.224s-.32.507-.32.976v.08h1.472zm9.652 4.336v2.32h-1.392c-.992 0-1.765-.24-2.32-.72-.555-.491-.832-1.285-.832-2.384v-3.552h-1.088v-2.272h1.088v-2.176h2.736v2.176h1.792v2.272h-1.792v3.584c0 .267.064.459.192.576s.341.176.64.176zm7.012-6.704c1.024 0 1.845.341 2.464 1.024.619.672.928 1.6.928 2.784v5.216h-2.72v-4.848c0-.597-.155-1.061-.464-1.392s-.725-.496-1.248-.496-.939.165-1.248.496-.464.795-.464 1.392v4.848h-2.736v-11.84h2.736v4.112c.277-.395.656-.709 1.136-.944s1.019-.352 1.616-.352zm13.709 4.416c0 .256-.016.523-.048.8h-6.192c.043.555.219.981.528 1.28.32.288.71.432 1.168.432.683 0 1.158-.288 1.424-.864h2.912c-.149.587-.421 1.115-.816 1.584-.384.469-.869.837-1.456 1.104-.586.267-1.242.4-1.968.4-.874 0-1.653-.187-2.336-.56-.682-.373-1.216-.907-1.6-1.6s-.576-1.504-.576-2.432.187-1.739.56-2.432c.384-.693.918-1.227 1.6-1.6.683-.373 1.467-.56 2.352-.56.864 0 1.632.181 2.304.544s1.195.88 1.568 1.552c.384.672.576 1.456.576 2.352zm-2.8-.72c0-.469-.16-.843-.48-1.12s-.72-.416-1.2-.416c-.458 0-.848.133-1.168.4-.309.267-.501.645-.576 1.136zm10.322-5.904v6.72c0 .672.166 1.189.496 1.552.331.363.816.544 1.456.544s1.131-.181 1.472-.544c.342-.363.512-.88.512-1.552v-6.72h2.736v6.704c0 1.003-.213 1.851-.64 2.544-.426.693-1.002 1.216-1.728 1.568-.714.352-1.514.528-2.4.528-.885 0-1.68-.171-2.384-.512-.693-.352-1.242-.875-1.648-1.568-.405-.704-.608-1.557-.608-2.56v-6.704zm12.226 11.36c-.779 0-1.472-.133-2.08-.4s-1.088-.629-1.44-1.088c-.352-.469-.55-.992-.592-1.568h2.704c.032.309.176.56.432.752s.57.288.944.288c.341 0 .602-.064.784-.192.192-.139.288-.315.288-.528 0-.256-.134-.443-.4-.56-.267-.128-.699-.267-1.296-.416-.64-.149-1.174-.304-1.6-.464-.427-.171-.795-.432-1.104-.784-.31-.363-.464-.848-.464-1.456 0-.512.138-.976.416-1.392.288-.427.704-.763 1.248-1.008.554-.245 1.21-.368 1.968-.368 1.12 0 2 .277 2.64.832.65.555 1.024 1.291 1.12 2.208h-2.528c-.043-.309-.182-.555-.416-.736-.224-.181-.523-.272-.896-.272-.32 0-.566.064-.736.192-.171.117-.256.283-.256.496 0 .256.133.448.4.576.277.128.704.256 1.28.384.661.171 1.2.341 1.616.512.416.16.778.427 1.088.8.32.363.485.853.496 1.472 0 .523-.15.992-.448 1.408-.288.405-.71.725-1.264.96-.544.235-1.179.352-1.904.352zm13.705-4.736c0 .256-.015.523-.047.8h-6.192c.042.555.218.981.528 1.28.32.288.709.432 1.168.432.682 0 1.157-.288 1.424-.864h2.912c-.15.587-.422 1.115-.816 1.584-.384.469-.87.837-1.456 1.104-.587.267-1.243.4-1.968.4-.875 0-1.654-.187-2.336-.56-.683-.373-1.216-.907-1.6-1.6s-.576-1.504-.576-2.432.186-1.739.56-2.432c.384-.693.917-1.227 1.6-1.6.682-.373 1.466-.56 2.352-.56.864 0 1.632.181 2.304.544s1.194.88 1.568 1.552c.384.672.575 1.456.575 2.352zm-2.799-.72c0-.469-.16-.843-.48-1.12s-.72-.416-1.2-.416c-.459 0-.848.133-1.168.4-.31.267-.502.645-.576 1.136zm6.979-2.112c.32-.491.72-.875 1.2-1.152.48-.288 1.013-.432 1.6-.432v2.896h-.752c-.683 0-1.195.149-1.536.448-.341.288-.512.8-.512 1.536v4.144h-2.736v-8.928h2.736z" fill="#18465e"/></svg>
