<svg xmlns="http://www.w3.org/2000/svg" width="601.933" height="729" fill="none"><rect width="358" height="137" x="4.433" y="1.5" fill="#ffd647" rx="8.5" ry="8.5"/><rect width="358" height="137" x="4.433" y="1.5" stroke="#242527" stroke-width="3" rx="8.5" ry="8.5"/><path fill="#fff" stroke="#242527" stroke-linejoin="round" stroke-width="2" d="M131.778 41c3.026 0 5.503 2.441 5.503 5.461v31.36l.001.014v7.355c0 .053-.006.105-.014.156-.161 2.586-2.324 4.62-4.954 4.62h-18.893c.123.387.32.833.645 1.276.698.953 2.066 2.022 4.85 2.368l.097.017c.075.017.145.042.212.074a2.71 2.71 0 0 1 2.005 2.611 2.718 2.718 0 0 1-2.726 2.71H92.043a2.718 2.718 0 0 1-2.726-2.71c0-1.336.969-2.434 2.234-2.664a1.11 1.11 0 0 1 .175-.038l.506-.073c2.446-.406 3.689-1.402 4.344-2.295.324-.443.521-.889.644-1.276H78.329c-2.642 0-4.811-2.051-4.957-4.652a1.006 1.006 0 0 1-.008-.124v-.068l-.001-.014-.001-.071v-.328l.001-.071.001-.014v-5.941l-.001-.023V46.461c0-3.021 2.476-5.461 5.502-5.461Z"/><path fill="#ffd647" fill-rule="evenodd" d="M136.28 46.461v32.113l.002-.002v6.683h-.006c-.081 2.098-1.824 3.775-3.962 3.775h-20.088c.035.882.531 4.885 6.567 5.637h-.289c.953 0 1.726.765 1.726 1.71 0 .944-.773 1.71-1.726 1.71H92.043a1.718 1.718 0 0 1-1.726-1.71c0-.945.773-1.71 1.726-1.71h-.194c6.036-.752 6.531-4.755 6.567-5.637H78.328c-2.138 0-3.881-1.677-3.962-3.775h-.002v-.084l-.001-.022-.001-.048v-.328l.001-.046.001-.024V79.41l-.001-.027-.001-.028V46.461c0-2.46 2.021-4.461 4.503-4.461h52.913c2.483 0 4.502 2.001 4.502 4.461zm-3.822 37.907c.435 0 1.468-1.024 1.468-1.455V45.787c0-.43-1.034-1.454-1.469-1.454H78.185c-.434 0-1.468 1.024-1.468 1.454v37.126c0 .431 1.034 1.455 1.468 1.455zm-25.124 2.966a.934.934 0 0 0 .823-.501.971.971 0 0 0 0-.913.934.934 0 0 0-.823-.501h-3.487a.923.923 0 0 0-.795.453.97.97 0 0 0-.142.505c0 .529.42.957.937.957z" clip-rule="evenodd" opacity=".2"/><path fill="#242527" d="m111.672 58.424.003-.207c0-3.257-2.437-5.897-5.897-5.897-3.461 0-6.266 2.64-6.266 5.897 0 .148.006.304.017.469.001.359.041.722.133 1.081.018.108.038.218.06.329l-.054-.001c-.479 0-.971.374-.445 2.239.411 1.454.793 1.862 1.082 1.885.163 1.051.527 2.275 1.313 3.295-.067.424-.198 1.017-.45 1.429l-.014.008c-.179.114-2.047 1.303-4.987 2.021-.166.041-.32.535-.463.995-.118.379-.229.735-.334.796 2.33 3.434 5.549 4.219 10.04 4.219 4.49 0 7.71-.785 10.039-4.219-.104-.061-.215-.417-.333-.796-.144-.46-.298-.954-.463-.995-3.09-.754-4.916-1.903-4.916-1.903-.321-.424-.474-1.141-.544-1.611.698-.933 1.052-2.029 1.225-3.005a.383.383 0 0 0 .216.072c.292 0 .685-.387 1.108-1.886.439-1.551.172-2.07-.206-2.202a6.807 6.807 0 0 0 .136-2.013z"/><path fill="#ffd647" d="M78.048 45.686h54.548V83.28H78.048z" opacity=".5"/><path fill="#242527" d="M156.998 65.83v2.556h4.122v2.376h-4.122v2.772h4.662V76h-7.74V63.364h7.74v2.466zm12.78.018c1.176 0 2.112.384 2.808 1.152.708.756 1.062 1.8 1.062 3.132V76h-3.06v-5.454c0-.672-.174-1.194-.522-1.566-.348-.372-.816-.558-1.404-.558s-1.056.186-1.404.558c-.348.372-.522.894-.522 1.566V76h-3.078V65.956h3.078v1.332a3.177 3.177 0 0 1 1.26-1.044c.528-.264 1.122-.396 1.782-.396zm5.397 5.112c0-1.032.192-1.938.576-2.718.396-.78.93-1.38 1.602-1.8a4.159 4.159 0 0 1 2.25-.63c.66 0 1.26.138 1.8.414.552.276.984.648 1.296 1.116V62.68h3.078V76h-3.078v-1.44c-.288.48-.702.864-1.242 1.152-.528.288-1.146.432-1.854.432-.828 0-1.578-.21-2.25-.63-.672-.432-1.206-1.038-1.602-1.818-.384-.792-.576-1.704-.576-2.736zm7.524.018c0-.768-.216-1.374-.648-1.818a2.048 2.048 0 0 0-1.548-.666c-.612 0-1.134.222-1.566.666-.42.432-.63 1.032-.63 1.8s.21 1.38.63 1.836c.432.444.954.666 1.566.666.612 0 1.128-.222 1.548-.666.432-.444.648-1.05.648-1.818zm12.144-7.614v7.56c0 .756.186 1.338.558 1.746.372.408.918.612 1.638.612.72 0 1.272-.204 1.656-.612.384-.408.576-.99.576-1.746v-7.56h3.078v7.542c0 1.128-.24 2.082-.72 2.862a4.598 4.598 0 0 1-1.944 1.764c-.804.396-1.704.594-2.7.594-.996 0-1.89-.192-2.682-.576a4.446 4.446 0 0 1-1.854-1.764c-.456-.792-.684-1.752-.684-2.88v-7.542zm13.753 12.78c-.876 0-1.656-.15-2.34-.45-.684-.3-1.224-.708-1.62-1.224a3.29 3.29 0 0 1-.666-1.764h3.042c.036.348.198.63.486.846.288.216.642.324 1.062.324.384 0 .678-.072.882-.216.216-.156.324-.354.324-.594 0-.288-.15-.498-.45-.63-.3-.144-.786-.3-1.458-.468-.72-.168-1.32-.342-1.8-.522a3.232 3.232 0 0 1-1.242-.882c-.348-.408-.522-.954-.522-1.638 0-.576.156-1.098.468-1.566.324-.48.792-.858 1.404-1.134.624-.276 1.362-.414 2.214-.414 1.26 0 2.25.312 2.97.936.732.624 1.152 1.452 1.26 2.484h-2.844a1.213 1.213 0 0 0-.468-.828c-.252-.204-.588-.306-1.008-.306-.36 0-.636.072-.828.216a.638.638 0 0 0-.288.558c0 .288.15.504.45.648.312.144.792.288 1.44.432.744.192 1.35.384 1.818.576.468.18.876.48 1.224.9.36.408.546.96.558 1.656a2.65 2.65 0 0 1-.504 1.584c-.324.456-.798.816-1.422 1.08-.612.264-1.326.396-2.142.396zm15.419-5.328c0 .288-.018.588-.054.9h-6.966c.048.624.246 1.104.594 1.44.36.324.798.486 1.314.486.768 0 1.302-.324 1.602-.972h3.276a4.437 4.437 0 0 1-.918 1.782 4.468 4.468 0 0 1-1.638 1.242c-.66.3-1.398.45-2.214.45-.984 0-1.86-.21-2.628-.63a4.481 4.481 0 0 1-1.8-1.8c-.432-.78-.648-1.692-.648-2.736 0-1.044.21-1.956.63-2.736a4.481 4.481 0 0 1 1.8-1.8c.768-.42 1.65-.63 2.646-.63.972 0 1.836.204 2.592.612.756.408 1.344.99 1.764 1.746.432.756.648 1.638.648 2.646zm-3.15-.81c0-.528-.18-.948-.54-1.26-.36-.312-.81-.468-1.35-.468-.516 0-.954.15-1.314.45-.348.3-.564.726-.648 1.278zm7.852-2.376c.36-.552.81-.984 1.35-1.296a3.432 3.432 0 0 1 1.8-.486v3.258h-.846c-.768 0-1.344.168-1.728.504-.384.324-.576.9-.576 1.728V76h-3.078V65.956h3.078zm12.576 12.132c-1.164-1.116-2.07-2.556-2.718-4.32-.648-1.764-.972-3.666-.972-5.706 0-2.064.336-3.99 1.008-5.778.672-1.8 1.626-3.264 2.862-4.392h3.024v.288c-1.26 1.248-2.232 2.748-2.916 4.5a14.587 14.587 0 0 0-1.026 5.382c0 1.836.33 3.606.99 5.31.66 1.704 1.59 3.18 2.79 4.428v.288zm18.748-16.398V76h-3.078v-7.578L254.137 76h-2.484l-2.844-7.596V76h-3.078V63.364h3.636l3.546 8.748 3.51-8.748zm6.785 12.762c-.924 0-1.752-.15-2.484-.45-.732-.3-1.32-.744-1.764-1.332-.432-.588-.66-1.296-.684-2.124h3.276c.048.468.21.828.486 1.08.276.24.636.36 1.08.36.456 0 .816-.102 1.08-.306.264-.216.396-.51.396-.882 0-.312-.108-.57-.324-.774a2.403 2.403 0 0 0-.774-.504c-.3-.132-.732-.282-1.296-.45-.816-.252-1.482-.504-1.998-.756a3.692 3.692 0 0 1-1.332-1.116c-.372-.492-.558-1.134-.558-1.926 0-1.176.426-2.094 1.278-2.754.852-.672 1.962-1.008 3.33-1.008 1.392 0 2.514.336 3.366 1.008.852.66 1.308 1.584 1.368 2.772h-3.33c-.024-.408-.174-.726-.45-.954-.276-.24-.63-.36-1.062-.36-.372 0-.672.102-.9.306-.228.192-.342.474-.342.846 0 .408.192.726.576.954.384.228.984.474 1.8.738.816.276 1.476.54 1.98.792.516.252.96.618 1.332 1.098.372.48.558 1.098.558 1.854 0 .72-.186 1.374-.558 1.962-.36.588-.888 1.056-1.584 1.404-.696.348-1.518.522-2.466.522zm14.368-2.358h-4.716L275.722 76H272.5l4.572-12.636h3.564L285.208 76h-3.258zm-.792-2.376-1.566-4.626-1.548 4.626zm5.37 8.37v-.288c1.2-1.248 2.13-2.724 2.79-4.428.66-1.704.99-3.474.99-5.31 0-1.848-.342-3.642-1.026-5.382-.684-1.752-1.656-3.252-2.916-4.5v-.288h3.024c1.236 1.128 2.19 2.592 2.862 4.392.672 1.788 1.008 3.714 1.008 5.778 0 2.04-.324 3.942-.972 5.706-.648 1.764-1.554 3.204-2.718 4.32z"/><rect width="358" height="137" x="242.433" y="286.5" fill="#ff9a02" rx="8.5" ry="8.5"/><rect width="358" height="137" x="242.433" y="286.5" stroke="#242527" stroke-width="3" rx="8.5" ry="8.5"/><rect width="60" height="48" x="280.433" y="331" fill="#fff" rx="5" ry="5"/><path fill="#fff" stroke="#242527" stroke-width="2" d="m339.432 343-.045 31.409v.001c0 1.987-1.605 3.59-3.642 3.59h-50.67c-2.037 0-3.642-1.603-3.642-3.59V343Z"/><path fill="#ff9a02" stroke="#242527" stroke-width="2" d="m339.427 343-.04-7.405v-.005c0-1.987-1.605-3.59-3.642-3.59h-50.67c-2.037 0-3.642 1.603-3.642 3.59V343Z"/><ellipse cx="288.569" cy="337.5" fill="#242527" rx="1.525" ry="1.5"/><ellipse cx="294.67" cy="337.5" fill="#242527" rx="1.525" ry="1.5"/><ellipse cx="300.772" cy="337.5" fill="#242527" rx="1.525" ry="1.5"/><path fill="#242527" d="m323.554 359.494-5.799 4.779c-.55.439-.6 1.22-.15 1.707a1.243 1.243 0 0 0 1.75.147l6.899-5.706c.3-.244.45-.586.45-.927 0-.341-.15-.683-.45-.927l-6.899-5.706c-.5-.439-1.3-.39-1.75.147-.45.487-.4 1.268.15 1.707zM294.162 359.494c0 .341.15.683.45.927l6.899 5.706a1.243 1.243 0 0 0 1.75-.147c.45-.487.4-1.268-.15-1.707l-5.799-4.779 5.799-4.779c.55-.439.6-1.171.15-1.707-.45-.537-1.2-.586-1.75-.147l-6.899 5.706c-.3.244-.45.586-.45.927zM312.183 350.768l-5.85 16.525c-.25.634.05 1.317.7 1.609.15.049.3.098.45.098.5 0 .95-.293 1.15-.78l5.9-16.525c.25-.634-.05-1.366-.7-1.609-.65-.244-1.4.048-1.65.682z"/><path fill="#ff9a02" stroke="#242527" stroke-width="2" d="m339.432 343-.045 31.409v.001c0 1.987-1.605 3.59-3.642 3.59h-50.67c-2.037 0-3.642-1.603-3.642-3.59V343Z" opacity=".5"/><path fill="#242527" d="M364.617 359.268h-4.716l-.756 2.232h-3.222l4.572-12.636h3.564l4.572 12.636h-3.258zm-.792-2.376-1.566-4.626-1.548 4.626zm9.276-4.014c.3-.468.714-.846 1.242-1.134.528-.288 1.146-.432 1.854-.432.828 0 1.578.21 2.25.63.672.42 1.2 1.02 1.584 1.8.396.78.594 1.686.594 2.718s-.198 1.944-.594 2.736c-.384.78-.912 1.386-1.584 1.818-.672.42-1.422.63-2.25.63-.696 0-1.314-.144-1.854-.432a3.4 3.4 0 0 1-1.242-1.116v6.192h-3.078v-14.832h3.078zm4.392 3.582c0-.768-.216-1.368-.648-1.8a2.068 2.068 0 0 0-1.566-.666c-.612 0-1.134.222-1.566.666-.42.444-.63 1.05-.63 1.818s.21 1.374.63 1.818c.432.444.954.666 1.566.666.612 0 1.134-.222 1.566-.666.432-.456.648-1.068.648-1.836zm7.824-3.582c.3-.468.714-.846 1.242-1.134.528-.288 1.146-.432 1.854-.432.828 0 1.578.21 2.25.63.672.42 1.2 1.02 1.584 1.8.396.78.594 1.686.594 2.718s-.198 1.944-.594 2.736c-.384.78-.912 1.386-1.584 1.818-.672.42-1.422.63-2.25.63-.696 0-1.314-.144-1.854-.432a3.4 3.4 0 0 1-1.242-1.116v6.192h-3.078v-14.832h3.078zm4.392 3.582c0-.768-.216-1.368-.648-1.8a2.068 2.068 0 0 0-1.566-.666c-.612 0-1.134.222-1.566.666-.42.444-.63 1.05-.63 1.818s.21 1.374.63 1.818c.432.444.954.666 1.566.666.612 0 1.134-.222 1.566-.666.432-.456.648-1.068.648-1.836zm7.825-8.28v13.32h-3.078v-13.32zm3.779 2.232c-.54 0-.984-.156-1.332-.468a1.587 1.587 0 0 1-.504-1.188c0-.48.168-.876.504-1.188.348-.324.792-.486 1.332-.486.528 0 .96.162 1.296.486.348.312.522.708.522 1.188 0 .468-.174.864-.522 1.188-.336.312-.768.468-1.296.468zm1.53 1.044V361.5h-3.078v-10.044zm1.618 5.022c0-1.044.21-1.956.63-2.736a4.513 4.513 0 0 1 1.782-1.8c.768-.42 1.644-.63 2.628-.63 1.26 0 2.31.33 3.15.99.852.66 1.41 1.59 1.674 2.79h-3.276c-.276-.768-.81-1.152-1.602-1.152-.564 0-1.014.222-1.35.666-.336.432-.504 1.056-.504 1.872 0 .816.168 1.446.504 1.89.336.432.786.648 1.35.648.792 0 1.326-.384 1.602-1.152h3.276c-.264 1.176-.822 2.1-1.674 2.772-.852.672-1.902 1.008-3.15 1.008-.984 0-1.86-.21-2.628-.63a4.513 4.513 0 0 1-1.782-1.8c-.42-.78-.63-1.692-.63-2.736zm10.899-.018c0-1.032.192-1.938.576-2.718.396-.78.93-1.38 1.602-1.8a4.159 4.159 0 0 1 2.25-.63c.708 0 1.326.144 1.854.432.54.288.954.666 1.242 1.134v-1.422h3.078V361.5h-3.078v-1.422c-.3.468-.72.846-1.26 1.134-.528.288-1.146.432-1.854.432-.816 0-1.56-.21-2.232-.63-.672-.432-1.206-1.038-1.602-1.818-.384-.792-.576-1.704-.576-2.736zm7.524.018c0-.768-.216-1.374-.648-1.818a2.048 2.048 0 0 0-1.548-.666c-.612 0-1.134.222-1.566.666-.42.432-.63 1.032-.63 1.8s.21 1.38.63 1.836c.432.444.954.666 1.566.666.612 0 1.128-.222 1.548-.666.432-.444.648-1.05.648-1.818zm10.903 2.412v2.61h-1.566c-1.116 0-1.986-.27-2.61-.81-.624-.552-.936-1.446-.936-2.682v-3.996h-1.224v-2.556h1.224v-2.448h3.078v2.448h2.016v2.556h-2.016v4.032c0 .3.072.516.216.648.144.132.384.198.72.198zm3.262-8.478c-.54 0-.984-.156-1.332-.468a1.587 1.587 0 0 1-.504-1.188c0-.48.168-.876.504-1.188.348-.324.792-.486 1.332-.486.528 0 .96.162 1.296.486.348.312.522.708.522 1.188 0 .468-.174.864-.522 1.188-.336.312-.768.468-1.296.468zm1.53 1.044V361.5h-3.078v-10.044zm6.803 10.188c-.984 0-1.872-.21-2.664-.63a4.69 4.69 0 0 1-1.854-1.8c-.444-.78-.666-1.692-.666-2.736 0-1.032.228-1.938.684-2.718a4.625 4.625 0 0 1 1.872-1.818c.792-.42 1.68-.63 2.664-.63.984 0 1.872.21 2.664.63a4.625 4.625 0 0 1 1.872 1.818c.456.78.684 1.686.684 2.718s-.234 1.944-.702 2.736a4.629 4.629 0 0 1-1.89 1.8c-.792.42-1.68.63-2.664.63zm0-2.664c.588 0 1.086-.216 1.494-.648.42-.432.63-1.05.63-1.854s-.204-1.422-.612-1.854a1.92 1.92 0 0 0-1.476-.648c-.6 0-1.098.216-1.494.648-.396.42-.594 1.038-.594 1.854 0 .804.192 1.422.576 1.854a1.92 1.92 0 0 0 1.476.648zm13.009-7.632c1.176 0 2.112.384 2.808 1.152.708.756 1.062 1.8 1.062 3.132v5.868h-3.06v-5.454c0-.672-.174-1.194-.522-1.566-.348-.372-.816-.558-1.404-.558s-1.056.186-1.404.558c-.348.372-.522.894-.522 1.566v5.454h-3.078v-10.044h3.078v1.332a3.177 3.177 0 0 1 1.26-1.044c.528-.264 1.122-.396 1.782-.396zm13.963 13.914c-1.164-1.116-2.07-2.556-2.718-4.32-.648-1.764-.972-3.666-.972-5.706 0-2.064.336-3.99 1.008-5.778.672-1.8 1.626-3.264 2.862-4.392h3.024v.288c-1.26 1.248-2.232 2.748-2.916 4.5a14.587 14.587 0 0 0-1.026 5.382c0 1.836.33 3.606.99 5.31.66 1.704 1.59 3.18 2.79 4.428v.288zm14.068-12.33a4.12 4.12 0 0 1-.504 2.016c-.336.6-.852 1.086-1.548 1.458-.696.372-1.56.558-2.592.558h-1.908v4.536h-3.078v-12.636h4.986c1.008 0 1.86.174 2.556.522.696.348 1.218.828 1.566 1.44.348.612.522 1.314.522 2.106zm-4.878 1.584c.588 0 1.026-.138 1.314-.414.288-.276.432-.666.432-1.17 0-.504-.144-.894-.432-1.17-.288-.276-.726-.414-1.314-.414h-1.674v3.168zm9.559-1.386c.36-.552.81-.984 1.35-1.296a3.432 3.432 0 0 1 1.8-.486v3.258h-.846c-.768 0-1.344.168-1.728.504-.384.324-.576.9-.576 1.728v4.662h-3.078v-10.044h3.078zm9.193 8.514c-.984 0-1.872-.21-2.664-.63a4.69 4.69 0 0 1-1.854-1.8c-.444-.78-.666-1.692-.666-2.736 0-1.032.228-1.938.684-2.718a4.625 4.625 0 0 1 1.872-1.818c.792-.42 1.68-.63 2.664-.63.984 0 1.872.21 2.664.63a4.625 4.625 0 0 1 1.872 1.818c.456.78.684 1.686.684 2.718s-.234 1.944-.702 2.736a4.629 4.629 0 0 1-1.89 1.8c-.792.42-1.68.63-2.664.63zm0-2.664c.588 0 1.086-.216 1.494-.648.42-.432.63-1.05.63-1.854s-.204-1.422-.612-1.854a1.92 1.92 0 0 0-1.476-.648c-.6 0-1.098.216-1.494.648-.396.42-.594 1.038-.594 1.854 0 .804.192 1.422.576 1.854a1.92 1.92 0 0 0 1.476.648zm11.407-.36 2.18-7.164h3.27l-3.56 10.044h-3.798l-3.564-10.044h3.294zm8.3-8.208c-.54 0-.99-.156-1.33-.468-.34-.324-.51-.72-.51-1.188 0-.48.17-.876.51-1.188.34-.324.79-.486 1.33-.486.53 0 .96.162 1.29.486.35.312.53.708.53 1.188 0 .468-.18.864-.53 1.188-.33.312-.76.468-1.29.468zm1.53 1.044V361.5h-3.08v-10.044zm1.62 5.004c0-1.032.19-1.938.57-2.718.4-.78.93-1.38 1.6-1.8.68-.42 1.43-.63 2.25-.63.66 0 1.26.138 1.8.414.56.276.99.648 1.3 1.116v-4.662h3.08v13.32h-3.08v-1.44c-.29.48-.7.864-1.24 1.152-.53.288-1.15.432-1.86.432-.82 0-1.57-.21-2.25-.63-.67-.432-1.2-1.038-1.6-1.818-.38-.792-.57-1.704-.57-2.736zm7.52.018c0-.768-.22-1.374-.65-1.818a2.04 2.04 0 0 0-1.55-.666c-.61 0-1.13.222-1.56.666-.42.432-.63 1.032-.63 1.8s.21 1.38.63 1.836c.43.444.95.666 1.56.666.62 0 1.13-.222 1.55-.666.43-.444.65-1.05.65-1.818zm14.77-.162c0 .288-.02.588-.05.9h-6.97c.05.624.25 1.104.6 1.44.36.324.79.486 1.31.486.77 0 1.3-.324 1.6-.972h3.28c-.17.66-.48 1.254-.92 1.782-.43.528-.98.942-1.64 1.242-.66.3-1.4.45-2.21.45-.99 0-1.86-.21-2.63-.63a4.457 4.457 0 0 1-1.8-1.8c-.43-.78-.65-1.692-.65-2.736 0-1.044.21-1.956.63-2.736.43-.78 1.03-1.38 1.8-1.8.77-.42 1.65-.63 2.65-.63.97 0 1.83.204 2.59.612.76.408 1.34.99 1.76 1.746.44.756.65 1.638.65 2.646zm-3.15-.81c0-.528-.18-.948-.54-1.26-.36-.312-.81-.468-1.35-.468-.51 0-.95.15-1.31.45-.35.3-.57.726-.65 1.278zm7.85-2.376c.36-.552.81-.984 1.35-1.296a3.432 3.432 0 0 1 1.8-.486v3.258h-.84c-.77 0-1.35.168-1.73.504-.38.324-.58.9-.58 1.728v4.662h-3.07v-10.044h3.07zm3.8 12.132v-.288c1.2-1.248 2.13-2.724 2.79-4.428.66-1.704.99-3.474.99-5.31 0-1.848-.34-3.642-1.03-5.382-.68-1.752-1.65-3.252-2.91-4.5v-.288h3.02c1.24 1.128 2.19 2.592 2.86 4.392.67 1.788 1.01 3.714 1.01 5.778 0 2.04-.32 3.942-.97 5.706-.65 1.764-1.56 3.204-2.72 4.32zM84.433 404a1.5 1.5 0 0 0-3 0zm-2.561 152.061a1.502 1.502 0 0 0 2.122 0l9.546-9.546a1.502 1.502 0 0 0 0-2.122 1.502 1.502 0 0 0-2.122 0l-8.485 8.486-8.485-8.486a1.502 1.502 0 0 0-2.122 0 1.502 1.502 0 0 0 0 2.122zM81.433 404v151h3V404Z"/><path stroke="#242527" stroke-linecap="round" stroke-width="3" d="M82.933 155v151M378.933 71h133c5.52 0 10 4.477 10 10v65"/><path fill="#242527" d="M519.873 271.061a1.5 1.5 0 0 0 2.12 0l9.55-9.546c.58-.586.58-1.536 0-2.122a1.5 1.5 0 0 0-2.12 0l-8.49 8.486-8.49-8.486a1.496 1.496 0 0 0-2.117 0 1.502 1.502 0 0 0 0 2.122zm2.56-47.061a1.5 1.5 0 1 0-3 0zm0 46v-46h-3v46z"/><path stroke="#242527" stroke-linecap="round" stroke-width="3" d="M520.933 440v23.5"/><path fill="#242527" d="M519.353 556.048c.58.594 1.53.607 2.13.03l9.67-9.413c.6-.577.61-1.527.03-2.121a1.498 1.498 0 0 0-2.12-.029l-8.6 8.366-8.37-8.602a1.5 1.5 0 0 0-2.148 2.092zm3.08-37.027a1.5 1.5 0 0 0-3-.042zm-.5 36.002.5-36.002-3-.042-.5 36.003zM0 340.368c0-1.109.24-2.096.72-2.96a5.093 5.093 0 0 1 2-2.032c.864-.491 1.84-.736 2.928-.736 1.333 0 2.475.352 3.424 1.056.949.704 1.584 1.664 1.904 2.88H7.968a2.414 2.414 0 0 0-.96-1.072 2.636 2.636 0 0 0-1.392-.368c-.843 0-1.525.293-2.048.88-.523.587-.784 1.371-.784 2.352 0 .981.261 1.765.784 2.352s1.205.88 2.048.88c.523 0 .987-.123 1.392-.368.416-.245.736-.603.96-1.072h3.008c-.32 1.216-.955 2.176-1.904 2.88-.949.693-2.091 1.04-3.424 1.04-1.088 0-2.064-.24-2.928-.72a5.236 5.236 0 0 1-2-2.032c-.48-.864-.72-1.851-.72-2.96Zm16.716 5.76c-.875 0-1.664-.187-2.368-.56a4.162 4.162 0 0 1-1.648-1.6c-.395-.693-.592-1.504-.592-2.432 0-.917.202-1.723.608-2.416a4.107 4.107 0 0 1 1.664-1.616c.704-.373 1.493-.56 2.368-.56.874 0 1.664.187 2.368.56a4.113 4.113 0 0 1 1.664 1.616c.405.693.608 1.499.608 2.416 0 .917-.208 1.728-.624 2.432a4.123 4.123 0 0 1-1.68 1.6c-.704.373-1.494.56-2.368.56zm0-2.368c.522 0 .965-.192 1.328-.576.373-.384.56-.933.56-1.648 0-.715-.182-1.264-.544-1.648a1.708 1.708 0 0 0-1.312-.576c-.534 0-.976.192-1.328.576-.352.373-.528.923-.528 1.648 0 .715.17 1.264.512 1.648.352.384.789.576 1.312.576zm7.499-7.616c-.48 0-.875-.139-1.184-.416a1.41 1.41 0 0 1-.448-1.056c0-.427.149-.779.448-1.056.309-.288.704-.432 1.184-.432.469 0 .853.144 1.152.432.309.277.464.629.464 1.056 0 .416-.155.768-.464 1.056-.299.277-.683.416-1.152.416zm1.36.928V346h-2.736v-8.928zm7.423-.096c1.045 0 1.877.341 2.496 1.024.629.672.944 1.6.944 2.784V346h-2.72v-4.848c0-.597-.155-1.061-.464-1.392-.31-.331-.726-.496-1.248-.496-.523 0-.939.165-1.248.496-.31.331-.464.795-.464 1.392V346h-2.736v-8.928h2.736v1.184c.277-.395.65-.704 1.12-.928a3.487 3.487 0 0 1 1.584-.352zm8.077-2.816V346h-2.736v-11.84zm10.399 7.232c0 .256-.016.523-.048.8h-6.192c.042.555.218.981.528 1.28.32.288.709.432 1.168.432.682 0 1.157-.288 1.424-.864h2.912a3.957 3.957 0 0 1-.816 1.584c-.384.469-.87.837-1.456 1.104-.587.267-1.243.4-1.968.4-.875 0-1.654-.187-2.336-.56a3.981 3.981 0 0 1-1.6-1.6c-.384-.693-.576-1.504-.576-2.432 0-.928.186-1.739.56-2.432a3.981 3.981 0 0 1 1.6-1.6c.682-.373 1.466-.56 2.352-.56.864 0 1.632.181 2.304.544a3.86 3.86 0 0 1 1.568 1.552c.384.672.576 1.456.576 2.352zm-2.8-.72c0-.469-.16-.843-.48-1.12-.32-.277-.72-.416-1.2-.416-.459 0-.848.133-1.168.4-.31.267-.502.645-.576 1.136zm7.875 5.456c-.778 0-1.472-.133-2.08-.4-.608-.267-1.088-.629-1.44-1.088a2.926 2.926 0 0 1-.592-1.568h2.704c.032.309.176.56.432.752.256.192.571.288.944.288.342 0 .603-.064.784-.192.192-.139.288-.315.288-.528 0-.256-.133-.443-.4-.56-.266-.128-.698-.267-1.296-.416a13.14 13.14 0 0 1-1.6-.464 2.886 2.886 0 0 1-1.104-.784c-.309-.363-.464-.848-.464-1.456 0-.512.139-.976.416-1.392.288-.427.704-.763 1.248-1.008.555-.245 1.211-.368 1.968-.368 1.12 0 2 .277 2.64.832.651.555 1.024 1.291 1.12 2.208h-2.528a1.074 1.074 0 0 0-.416-.736c-.224-.181-.522-.272-.896-.272-.32 0-.565.064-.736.192a.569.569 0 0 0-.256.496c0 .256.134.448.4.576.278.128.704.256 1.28.384.662.171 1.2.341 1.616.512.416.16.779.427 1.088.8.32.363.486.853.496 1.472 0 .523-.149.992-.448 1.408-.288.405-.709.725-1.264.96-.544.235-1.178.352-1.904.352zm8.922 0c-.779 0-1.472-.133-2.08-.4-.608-.267-1.088-.629-1.44-1.088a2.926 2.926 0 0 1-.592-1.568h2.704c.032.309.176.56.432.752.256.192.571.288.944.288.341 0 .603-.064.784-.192.192-.139.288-.315.288-.528 0-.256-.133-.443-.4-.56-.267-.128-.699-.267-1.296-.416a13.14 13.14 0 0 1-1.6-.464 2.871 2.871 0 0 1-1.104-.784c-.309-.363-.464-.848-.464-1.456 0-.512.139-.976.416-1.392.288-.427.704-.763 1.248-1.008.555-.245 1.211-.368 1.968-.368 1.12 0 2 .277 2.64.832.651.555 1.024 1.291 1.12 2.208h-2.528a1.078 1.078 0 0 0-.416-.736c-.224-.181-.523-.272-.896-.272-.32 0-.565.064-.736.192a.567.567 0 0 0-.256.496c0 .256.133.448.4.576.277.128.704.256 1.28.384.661.171 1.2.341 1.616.512.416.16.779.427 1.088.8.32.363.485.853.496 1.472 0 .523-.149.992-.448 1.408-.288.405-.709.725-1.264.96-.544.235-1.179.352-1.904.352zM79.88 346l-2.336-4.24h-.656V346h-2.736v-11.232h4.592c.885 0 1.637.155 2.256.464.629.309 1.098.736 1.408 1.28a3.51 3.51 0 0 1 .464 1.792 3.32 3.32 0 0 1-.64 2c-.416.587-1.035 1.003-1.856 1.248L82.968 346Zm-2.992-6.176h1.696c.501 0 .874-.123 1.12-.368.256-.245.384-.592.384-1.04 0-.427-.128-.763-.384-1.008-.246-.245-.619-.368-1.12-.368h-1.696zm16.117 1.568c0 .256-.016.523-.048.8h-6.192c.043.555.219.981.528 1.28.32.288.709.432 1.168.432.683 0 1.157-.288 1.424-.864h2.912a3.932 3.932 0 0 1-.816 1.584 3.976 3.976 0 0 1-1.456 1.104c-.587.267-1.243.4-1.968.4-.875 0-1.653-.187-2.336-.56a3.981 3.981 0 0 1-1.6-1.6c-.384-.693-.576-1.504-.576-2.432 0-.928.187-1.739.56-2.432a3.981 3.981 0 0 1 1.6-1.6c.683-.373 1.467-.56 2.352-.56.864 0 1.632.181 2.304.544.672.363 1.195.88 1.568 1.552.384.672.576 1.456.576 2.352zm-2.8-.72c0-.469-.16-.843-.48-1.12-.32-.277-.72-.416-1.2-.416-.459 0-.848.133-1.168.4-.309.267-.501.645-.576 1.136zm8.259 2.768 1.936-6.368h2.912L100.144 346h-3.376l-3.168-8.928h2.928zm10.064 2.688c-.875 0-1.664-.187-2.368-.56a4.168 4.168 0 0 1-1.648-1.6c-.395-.693-.592-1.504-.592-2.432 0-.917.203-1.723.608-2.416a4.107 4.107 0 0 1 1.664-1.616c.704-.373 1.493-.56 2.368-.56.875 0 1.664.187 2.368.56a4.107 4.107 0 0 1 1.664 1.616c.405.693.608 1.499.608 2.416 0 .917-.208 1.728-.624 2.432a4.11 4.11 0 0 1-1.68 1.6c-.704.373-1.493.56-2.368.56zm0-2.368c.523 0 .965-.192 1.328-.576.373-.384.56-.933.56-1.648 0-.715-.181-1.264-.544-1.648a1.707 1.707 0 0 0-1.312-.576c-.533 0-.976.192-1.328.576-.352.373-.528.923-.528 1.648 0 .715.171 1.264.512 1.648.352.384.789.576 1.312.576zm5.58-2.224c0-.928.186-1.739.56-2.432a4.012 4.012 0 0 1 1.584-1.6c.682-.373 1.461-.56 2.336-.56 1.12 0 2.053.293 2.8.88.757.587 1.253 1.413 1.488 2.48h-2.912c-.246-.683-.72-1.024-1.424-1.024-.502 0-.902.197-1.2.592-.299.384-.448.939-.448 1.664s.149 1.285.448 1.68c.298.384.698.576 1.2.576.704 0 1.178-.341 1.424-1.024h2.912c-.235 1.045-.731 1.867-1.488 2.464-.758.597-1.691.896-2.8.896-.875 0-1.654-.187-2.336-.56a4.012 4.012 0 0 1-1.584-1.6c-.374-.693-.56-1.504-.56-2.432zm9.687-.016c0-.917.171-1.723.512-2.416.352-.693.827-1.227 1.424-1.6a3.699 3.699 0 0 1 2-.56c.629 0 1.179.128 1.648.384.48.256.848.592 1.104 1.008v-1.264h2.736V346h-2.736v-1.264c-.267.416-.64.752-1.12 1.008-.469.256-1.019.384-1.648.384a3.671 3.671 0 0 1-1.984-.56c-.597-.384-1.072-.923-1.424-1.616-.341-.704-.512-1.515-.512-2.432zm6.688.016c0-.683-.192-1.221-.576-1.616a1.818 1.818 0 0 0-1.376-.592 1.87 1.87 0 0 0-1.392.592c-.373.384-.56.917-.56 1.6s.187 1.227.56 1.632a1.87 1.87 0 0 0 1.392.592c.544 0 1.003-.197 1.376-.592.384-.395.576-.933.576-1.616zm9.691 2.144V346h-1.392c-.992 0-1.765-.24-2.32-.72-.554-.491-.832-1.285-.832-2.384v-3.552h-1.088v-2.272h1.088v-2.176h2.736v2.176h1.792v2.272h-1.792v3.584c0 .267.064.459.192.576.128.117.342.176.64.176zm2.9-7.536c-.48 0-.874-.139-1.184-.416a1.413 1.413 0 0 1-.448-1.056c0-.427.15-.779.448-1.056.31-.288.704-.432 1.184-.432.47 0 .854.144 1.152.432.31.277.464.629.464 1.056 0 .416-.154.768-.464 1.056-.298.277-.682.416-1.152.416zm1.36.928V346h-2.736v-8.928zm6.047 9.056c-.874 0-1.664-.187-2.368-.56a4.175 4.175 0 0 1-1.648-1.6c-.394-.693-.592-1.504-.592-2.432 0-.917.203-1.723.608-2.416a4.113 4.113 0 0 1 1.664-1.616c.704-.373 1.494-.56 2.368-.56.875 0 1.664.187 2.368.56a4.107 4.107 0 0 1 1.664 1.616c.406.693.608 1.499.608 2.416 0 .917-.208 1.728-.624 2.432a4.11 4.11 0 0 1-1.68 1.6c-.704.373-1.493.56-2.368.56zm0-2.368c.523 0 .966-.192 1.328-.576.374-.384.56-.933.56-1.648 0-.715-.181-1.264-.544-1.648a1.707 1.707 0 0 0-1.312-.576c-.533 0-.976.192-1.328.576-.352.373-.528.923-.528 1.648 0 .715.171 1.264.512 1.648.352.384.79.576 1.312.576zm11.564-6.784c1.045 0 1.877.341 2.496 1.024.629.672.944 1.6.944 2.784V346h-2.72v-4.848c0-.597-.155-1.061-.464-1.392-.31-.331-.726-.496-1.248-.496-.523 0-.939.165-1.248.496-.31.331-.464.795-.464 1.392V346h-2.736v-8.928h2.736v1.184c.277-.395.65-.704 1.12-.928a3.487 3.487 0 0 1 1.584-.352zM52.758 362.368c0-1.109.24-2.096.72-2.96a5.093 5.093 0 0 1 2-2.032c.864-.491 1.84-.736 2.928-.736 1.333 0 2.475.352 3.424 1.056.949.704 1.584 1.664 1.904 2.88h-3.008a2.414 2.414 0 0 0-.96-1.072 2.636 2.636 0 0 0-1.392-.368c-.843 0-1.525.293-2.048.88-.523.587-.784 1.371-.784 2.352 0 .981.261 1.765.784 2.352s1.205.88 2.048.88c.523 0 .987-.123 1.392-.368.416-.245.736-.603.96-1.072h3.008c-.32 1.216-.955 2.176-1.904 2.88-.949.693-2.091 1.04-3.424 1.04-1.088 0-2.064-.24-2.928-.72a5.236 5.236 0 0 1-2-2.032c-.48-.864-.72-1.851-.72-2.96zm16.715 5.76c-.874 0-1.664-.187-2.368-.56a4.175 4.175 0 0 1-1.648-1.6c-.394-.693-.592-1.504-.592-2.432 0-.917.203-1.723.608-2.416a4.113 4.113 0 0 1 1.664-1.616c.704-.373 1.494-.56 2.368-.56.875 0 1.664.187 2.368.56a4.107 4.107 0 0 1 1.664 1.616c.406.693.608 1.499.608 2.416 0 .917-.208 1.728-.624 2.432a4.11 4.11 0 0 1-1.68 1.6c-.704.373-1.493.56-2.368.56zm0-2.368c.523 0 .966-.192 1.328-.576.374-.384.56-.933.56-1.648 0-.715-.181-1.264-.544-1.648a1.707 1.707 0 0 0-1.312-.576c-.533 0-.976.192-1.328.576-.352.373-.528.923-.528 1.648 0 .715.171 1.264.512 1.648.352.384.79.576 1.312.576zm11.564-6.784c1.045 0 1.877.341 2.496 1.024.629.672.944 1.6.944 2.784V368h-2.72v-4.848c0-.597-.155-1.061-.464-1.392-.309-.331-.725-.496-1.248-.496s-.939.165-1.248.496c-.309.331-.464.795-.464 1.392V368h-2.736v-8.928h2.736v1.184a2.821 2.821 0 0 1 1.12-.928 3.487 3.487 0 0 1 1.584-.352zm10.317 6.704V368h-1.392c-.992 0-1.765-.24-2.32-.72-.555-.491-.832-1.285-.832-2.384v-3.552h-1.088v-2.272h1.088v-2.176h2.736v2.176h1.792v2.272h-1.792v3.584c0 .267.064.459.192.576.128.117.341.176.64.176zm4.26-5.12c.32-.491.72-.875 1.2-1.152a3.05 3.05 0 0 1 1.6-.432v2.896h-.752c-.683 0-1.195.149-1.536.448-.341.288-.512.8-.512 1.536V368h-2.736v-8.928h2.736zm8.172 7.568c-.875 0-1.664-.187-2.368-.56a4.168 4.168 0 0 1-1.648-1.6c-.395-.693-.592-1.504-.592-2.432 0-.917.203-1.723.608-2.416a4.107 4.107 0 0 1 1.664-1.616c.704-.373 1.493-.56 2.368-.56.875 0 1.664.187 2.368.56a4.107 4.107 0 0 1 1.664 1.616c.405.693.608 1.499.608 2.416 0 .917-.208 1.728-.624 2.432a4.11 4.11 0 0 1-1.68 1.6c-.704.373-1.493.56-2.368.56zm0-2.368c.523 0 .965-.192 1.328-.576.373-.384.56-.933.56-1.648 0-.715-.181-1.264-.544-1.648a1.707 1.707 0 0 0-1.312-.576c-.533 0-.976.192-1.328.576-.352.373-.528.923-.528 1.648 0 .715.171 1.264.512 1.648.352.384.789.576 1.312.576zm8.859-9.6V368h-2.736v-11.84zM490.063 176.768c1.184 0 2.218.235 3.104.704a4.965 4.965 0 0 1 2.048 1.984c.49.843.736 1.819.736 2.928 0 1.099-.246 2.075-.736 2.928a4.94 4.94 0 0 1-2.064 1.984c-.886.469-1.915.704-3.088.704h-4.208v-11.232zm-.176 8.864c1.034 0 1.84-.283 2.416-.848.576-.565.864-1.365.864-2.4s-.288-1.84-.864-2.416c-.576-.576-1.382-.864-2.416-.864h-1.296v6.528zm16.009-2.24c0 .256-.016.523-.048.8h-6.192c.042.555.218.981.528 1.28.32.288.709.432 1.168.432.682 0 1.157-.288 1.424-.864h2.912a3.957 3.957 0 0 1-.816 1.584c-.384.469-.87.837-1.456 1.104-.587.267-1.243.4-1.968.4-.875 0-1.654-.187-2.336-.56a3.981 3.981 0 0 1-1.6-1.6c-.384-.693-.576-1.504-.576-2.432 0-.928.186-1.739.56-2.432a3.981 3.981 0 0 1 1.6-1.6c.682-.373 1.466-.56 2.352-.56.864 0 1.632.181 2.304.544a3.86 3.86 0 0 1 1.568 1.552c.384.672.576 1.456.576 2.352zm-2.8-.72c0-.469-.16-.843-.48-1.12-.32-.277-.72-.416-1.2-.416-.459 0-.848.133-1.168.4-.31.267-.502.645-.576 1.136zm6.979-6.512V188h-2.736v-11.84zm10.398 7.232c0 .256-.02.523-.05.8h-6.19c.04.555.22.981.53 1.28.32.288.71.432 1.17.432.68 0 1.15-.288 1.42-.864h2.91a3.996 3.996 0 0 1-.81 1.584c-.39.469-.87.837-1.46 1.104-.59.267-1.24.4-1.97.4-.87 0-1.65-.187-2.33-.56a3.915 3.915 0 0 1-1.6-1.6c-.387-.693-.579-1.504-.579-2.432 0-.928.186-1.739.559-2.432.38-.693.92-1.227 1.6-1.6s1.47-.56 2.35-.56c.87 0 1.63.181 2.31.544.67.363 1.19.88 1.56 1.552.39.672.58 1.456.58 2.352zm-2.8-.72c0-.469-.16-.843-.48-1.12-.32-.277-.72-.416-1.2-.416-.46 0-.85.133-1.17.4-.31.267-.5.645-.57 1.136zm7.64-3.728c.63 0 1.17.128 1.64.384.48.256.85.592 1.11 1.008v-1.264h2.73v8.912c0 .821-.16 1.563-.49 2.224-.32.672-.82 1.205-1.49 1.6-.66.395-1.49.592-2.48.592-1.32 0-2.39-.315-3.22-.944-.82-.619-1.29-1.461-1.4-2.528h2.7c.09.341.29.608.61.8.32.203.71.304 1.18.304.57 0 1.02-.165 1.35-.496.34-.32.51-.837.51-1.552v-1.264c-.27.416-.64.757-1.11 1.024-.47.256-1.01.384-1.64.384-.74 0-1.41-.187-2-.56-.6-.384-1.08-.923-1.43-1.616-.34-.704-.51-1.515-.51-2.432s.17-1.723.51-2.416c.35-.693.83-1.227 1.43-1.6.59-.373 1.26-.56 2-.56zm2.75 4.592c0-.683-.19-1.221-.58-1.616a1.807 1.807 0 0 0-1.37-.592c-.55 0-1.01.197-1.4.592-.37.384-.56.917-.56 1.6s.19 1.227.56 1.632c.39.395.85.592 1.4.592.54 0 1-.197 1.37-.592.39-.395.58-.933.58-1.616zm4.17-.016c0-.917.17-1.723.51-2.416.35-.693.83-1.227 1.43-1.6.59-.373 1.26-.56 2-.56.62 0 1.17.128 1.64.384.48.256.85.592 1.11 1.008v-1.264h2.73V188h-2.73v-1.264c-.27.416-.64.752-1.12 1.008-.47.256-1.02.384-1.65.384-.73 0-1.39-.187-1.98-.56-.6-.384-1.08-.923-1.43-1.616-.34-.704-.51-1.515-.51-2.432zm6.69.016c0-.683-.19-1.221-.58-1.616a1.807 1.807 0 0 0-1.37-.592c-.55 0-1.01.197-1.4.592-.37.384-.56.917-.56 1.6s.19 1.227.56 1.632c.39.395.85.592 1.4.592.54 0 1-.197 1.37-.592.39-.395.58-.933.58-1.616zm9.69 2.144V188h-1.39c-1 0-1.77-.24-2.32-.72-.56-.491-.84-1.285-.84-2.384v-3.552h-1.08v-2.272h1.08v-2.176h2.74v2.176h1.79v2.272h-1.79v3.584c0 .267.06.459.19.576.13.117.34.176.64.176zm9.94-2.288c0 .256-.02.523-.05.8h-6.19c.04.555.22.981.53 1.28.32.288.71.432 1.16.432.69 0 1.16-.288 1.43-.864h2.91a3.89 3.89 0 0 1-.82 1.584c-.38.469-.86.837-1.45 1.104-.59.267-1.24.4-1.97.4-.87 0-1.65-.187-2.34-.56a4.037 4.037 0 0 1-1.6-1.6c-.38-.693-.57-1.504-.57-2.432 0-.928.19-1.739.56-2.432.38-.693.92-1.227 1.6-1.6s1.47-.56 2.35-.56c.86 0 1.63.181 2.3.544.68.363 1.2.88 1.57 1.552.39.672.58 1.456.58 2.352zm-2.8-.72c0-.469-.16-.843-.48-1.12-.32-.277-.72-.416-1.2-.416-.46 0-.85.133-1.17.4-.31.267-.5.645-.58 1.136zM451.989 474.768V486h-2.736v-11.232zm7.423 2.208c1.045 0 1.877.341 2.496 1.024.629.672.944 1.6.944 2.784V486h-2.72v-4.848c0-.597-.155-1.061-.464-1.392-.309-.331-.725-.496-1.248-.496s-.939.165-1.248.496c-.309.331-.464.795-.464 1.392V486h-2.736v-8.928h2.736v1.184a2.821 2.821 0 0 1 1.12-.928 3.487 3.487 0 0 1 1.584-.352zm10.317 6.704V486h-1.392c-.992 0-1.765-.24-2.32-.72-.555-.491-.832-1.285-.832-2.384v-3.552h-1.088v-2.272h1.088v-2.176h2.736v2.176h1.792v2.272h-1.792v3.584c0 .267.064.459.192.576.128.117.341.176.64.176zm9.94-2.288c0 .256-.016.523-.048.8h-6.192c.043.555.219.981.528 1.28.32.288.709.432 1.168.432.683 0 1.157-.288 1.424-.864h2.912a3.932 3.932 0 0 1-.816 1.584 3.976 3.976 0 0 1-1.456 1.104c-.587.267-1.243.4-1.968.4-.875 0-1.653-.187-2.336-.56a3.981 3.981 0 0 1-1.6-1.6c-.384-.693-.576-1.504-.576-2.432 0-.928.187-1.739.56-2.432a3.981 3.981 0 0 1 1.6-1.6c.683-.373 1.467-.56 2.352-.56.864 0 1.632.181 2.304.544.672.363 1.195.88 1.568 1.552.384.672.576 1.456.576 2.352zm-2.8-.72c0-.469-.16-.843-.48-1.12-.32-.277-.72-.416-1.2-.416-.459 0-.848.133-1.168.4-.309.267-.501.645-.576 1.136zm6.98-2.112c.32-.491.72-.875 1.2-1.152a3.05 3.05 0 0 1 1.6-.432v2.896h-.752c-.683 0-1.195.149-1.536.448-.342.288-.512.8-.512 1.536V486h-2.736v-8.928h2.736zm3.563 2.96c0-.917.171-1.723.512-2.416.352-.693.827-1.227 1.424-1.6a3.701 3.701 0 0 1 2-.56c.63 0 1.179.128 1.648.384.48.256.848.592 1.104 1.008v-1.264h2.736V486H494.1v-1.264c-.266.416-.64.752-1.12 1.008-.469.256-1.018.384-1.648.384a3.674 3.674 0 0 1-1.984-.56c-.597-.384-1.072-.923-1.424-1.616-.341-.704-.512-1.515-.512-2.432zm6.688.016c0-.683-.192-1.221-.576-1.616a1.818 1.818 0 0 0-1.376-.592 1.87 1.87 0 0 0-1.392.592c-.373.384-.56.917-.56 1.6s.187 1.227.56 1.632a1.87 1.87 0 0 0 1.392.592c.544 0 1.003-.197 1.376-.592.384-.395.576-.933.576-1.616zm4.172 0c0-.928.186-1.739.56-2.432a4.012 4.012 0 0 1 1.584-1.6c.682-.373 1.461-.56 2.336-.56 1.12 0 2.053.293 2.8.88.757.587 1.253 1.413 1.488 2.48h-2.912c-.246-.683-.72-1.024-1.424-1.024-.502 0-.902.197-1.2.592-.299.384-.448.939-.448 1.664s.149 1.285.448 1.68c.298.384.698.576 1.2.576.704 0 1.178-.341 1.424-1.024h2.912c-.235 1.045-.731 1.867-1.488 2.464-.758.597-1.691.896-2.8.896-.875 0-1.654-.187-2.336-.56a4.012 4.012 0 0 1-1.584-1.6c-.374-.693-.56-1.504-.56-2.432zm15.211 2.144V486h-1.4c-.988 0-1.761-.24-2.316-.72-.555-.491-.832-1.285-.832-2.384v-3.552h-1.088v-2.272h1.088v-2.176h2.736v2.176h1.792v2.272h-1.792v3.584c0 .267.064.459.192.576.13.117.34.176.64.176zm8.97 2.448c-.87 0-1.66-.187-2.36-.56a4.097 4.097 0 0 1-1.65-1.6c-.4-.693-.59-1.504-.59-2.432 0-.917.2-1.723.6-2.416.41-.704.96-1.243 1.67-1.616.7-.373 1.49-.56 2.37-.56.87 0 1.66.187 2.36.56.71.373 1.26.912 1.67 1.616.4.693.61 1.499.61 2.416 0 .917-.21 1.728-.63 2.432a4.05 4.05 0 0 1-1.68 1.6c-.7.373-1.49.56-2.37.56zm0-2.368c.53 0 .97-.192 1.33-.576.38-.384.56-.933.56-1.648 0-.715-.18-1.264-.54-1.648a1.704 1.704 0 0 0-1.31-.576c-.54 0-.98.192-1.33.576-.35.373-.53.923-.53 1.648 0 .715.17 1.264.51 1.648.35.384.79.576 1.31.576zm11.57-6.784c1.04 0 1.88.341 2.49 1.024.63.672.95 1.6.95 2.784V486h-2.72v-4.848c0-.597-.16-1.061-.47-1.392-.31-.331-.72-.496-1.24-.496-.53 0-.94.165-1.25.496-.31.331-.47.795-.47 1.392V486h-2.73v-8.928h2.73v1.184c.28-.395.65-.704 1.12-.928.47-.235 1-.352 1.59-.352zm11.47 1.36c.25-.416.62-.752 1.1-1.008.48-.256 1.03-.384 1.65-.384.73 0 1.4.187 2 .56.6.373 1.06.907 1.41 1.6.35.693.52 1.499.52 2.416 0 .917-.17 1.728-.52 2.432-.35.693-.81 1.232-1.41 1.616-.6.373-1.27.56-2 .56-.63 0-1.18-.123-1.65-.368a2.903 2.903 0 0 1-1.1-1.008V486h-2.74v-11.84h2.74zm3.9 3.184c0-.683-.19-1.216-.58-1.6-.37-.395-.83-.592-1.39-.592-.54 0-1.01.197-1.39.592-.37.395-.56.933-.56 1.616s.19 1.221.56 1.616c.38.395.85.592 1.39.592.55 0 1.01-.197 1.39-.592.39-.405.58-.949.58-1.632zm12.64-.128c0 .256-.02.523-.05.8h-6.19c.04.555.21.981.52 1.28.32.288.71.432 1.17.432.68 0 1.16-.288 1.43-.864h2.91a3.89 3.89 0 0 1-.82 1.584 3.98 3.98 0 0 1-1.45 1.104c-.59.267-1.25.4-1.97.4-.88 0-1.66-.187-2.34-.56a4.037 4.037 0 0 1-1.6-1.6c-.38-.693-.57-1.504-.57-2.432 0-.928.18-1.739.56-2.432.38-.693.91-1.227 1.6-1.6.68-.373 1.46-.56 2.35-.56.86 0 1.63.181 2.3.544.67.363 1.2.88 1.57 1.552.38.672.58 1.456.58 2.352zm-2.8-.72c0-.469-.16-.843-.48-1.12-.32-.277-.72-.416-1.2-.416-.46 0-.85.133-1.17.4-.31.267-.5.645-.58 1.136zm9.73-3.696c1.02 0 1.84.341 2.46 1.024.62.672.93 1.6.93 2.784V486h-2.72v-4.848c0-.597-.16-1.061-.47-1.392-.3-.331-.72-.496-1.24-.496-.53 0-.94.165-1.25.496-.31.331-.47.795-.47 1.392V486h-2.73v-11.84h2.73v4.112c.28-.395.66-.709 1.14-.944a3.635 3.635 0 0 1 1.62-.352zm4.75 4.544c0-.917.17-1.723.51-2.416.35-.693.82-1.227 1.42-1.6a3.72 3.72 0 0 1 2-.56c.63 0 1.18.128 1.65.384.48.256.85.592 1.1 1.008v-1.264h2.74V486h-2.74v-1.264c-.26.416-.64.752-1.12 1.008-.47.256-1.01.384-1.64.384-.73 0-1.39-.187-1.99-.56-.6-.384-1.07-.923-1.42-1.616-.34-.704-.51-1.515-.51-2.432zm6.68.016c0-.683-.19-1.221-.57-1.616a1.828 1.828 0 0 0-1.38-.592c-.54 0-1.01.197-1.39.592-.37.384-.56.917-.56 1.6s.19 1.227.56 1.632c.38.395.85.592 1.39.592.55 0 1-.197 1.38-.592.38-.395.57-.933.57-1.616zm7.46-7.376V486h-2.74v-11.84zm6.46 5.184h-1.47V486h-2.74v-6.656h-.99v-2.272h.99v-.256c0-1.099.31-1.931.94-2.496.63-.576 1.56-.864 2.77-.864.2 0 .35.005.45.016v2.32c-.52-.032-.89.043-1.1.224-.22.181-.32.507-.32.976v.08h1.47zm-111.215 28.784c-.874 0-1.664-.187-2.368-.56a4.175 4.175 0 0 1-1.648-1.6c-.394-.693-.592-1.504-.592-2.432 0-.917.203-1.723.608-2.416a4.113 4.113 0 0 1 1.664-1.616c.704-.373 1.494-.56 2.368-.56.875 0 1.664.187 2.368.56a4.107 4.107 0 0 1 1.664 1.616c.406.693.608 1.499.608 2.416 0 .917-.208 1.728-.624 2.432a4.11 4.11 0 0 1-1.68 1.6c-.704.373-1.493.56-2.368.56zm0-2.368c.523 0 .966-.192 1.328-.576.374-.384.56-.933.56-1.648 0-.715-.181-1.264-.544-1.648a1.707 1.707 0 0 0-1.312-.576c-.533 0-.976.192-1.328.576-.352.373-.528.923-.528 1.648 0 .715.171 1.264.512 1.648.352.384.79.576 1.312.576zm10.604-4.416h-1.472V508h-2.736v-6.656h-.992v-2.272h.992v-.256c0-1.099.315-1.931.944-2.496.629-.576 1.552-.864 2.768-.864.203 0 .352.005.448.016v2.32c-.523-.032-.891.043-1.104.224-.213.181-.32.507-.32.976v.08h1.472zm9.652 4.336V508h-1.392c-.992 0-1.765-.24-2.32-.72-.555-.491-.832-1.285-.832-2.384v-3.552h-1.088v-2.272h1.088v-2.176h2.736v2.176h1.792v2.272h-1.792v3.584c0 .267.064.459.192.576.128.117.341.176.64.176zm7.012-6.704c1.024 0 1.847.341 2.467 1.024.62.672.93 1.6.93 2.784V508h-2.725v-4.848c0-.597-.155-1.061-.464-1.392-.309-.331-.725-.496-1.248-.496s-.939.165-1.248.496c-.309.331-.464.795-.464 1.392V508h-2.736v-11.84h2.736v4.112a2.922 2.922 0 0 1 1.136-.944 3.627 3.627 0 0 1 1.616-.352zm13.707 4.416c0 .256-.01.523-.05.8h-6.19c.05.555.22.981.53 1.28.32.288.71.432 1.17.432.68 0 1.16-.288 1.42-.864h2.91a3.87 3.87 0 0 1-.81 1.584c-.39.469-.87.837-1.46 1.104-.58.267-1.24.4-1.97.4-.87 0-1.65-.187-2.33-.56a3.975 3.975 0 0 1-1.6-1.6c-.39-.693-.58-1.504-.58-2.432 0-.928.19-1.739.56-2.432.39-.693.92-1.227 1.6-1.6.69-.373 1.47-.56 2.35-.56.87 0 1.64.181 2.31.544.67.363 1.19.88 1.57 1.552.38.672.57 1.456.57 2.352zm-2.8-.72c0-.469-.16-.843-.48-1.12-.32-.277-.72-.416-1.2-.416-.46 0-.85.133-1.17.4-.3.267-.5.645-.57 1.136zm10.32-5.904v6.72c0 .672.17 1.189.5 1.552.33.363.82.544 1.46.544s1.13-.181 1.47-.544c.34-.363.51-.88.51-1.552v-6.72h2.74v6.704c0 1.003-.22 1.851-.64 2.544a4.145 4.145 0 0 1-1.73 1.568c-.72.352-1.52.528-2.4.528-.89 0-1.68-.171-2.39-.512a3.924 3.924 0 0 1-1.64-1.568c-.41-.704-.61-1.557-.61-2.56v-6.704zm12.23 11.36c-.78 0-1.47-.133-2.08-.4-.61-.267-1.09-.629-1.44-1.088a2.915 2.915 0 0 1-.59-1.568h2.7c.03.309.18.56.43.752.26.192.57.288.95.288.34 0 .6-.064.78-.192.19-.139.29-.315.29-.528 0-.256-.13-.443-.4-.56-.27-.128-.7-.267-1.3-.416-.64-.149-1.17-.304-1.6-.464a2.919 2.919 0 0 1-1.1-.784c-.31-.363-.46-.848-.46-1.456 0-.512.13-.976.41-1.392.29-.427.71-.763 1.25-1.008.55-.245 1.21-.368 1.97-.368 1.12 0 2 .277 2.64.832.65.555 1.02 1.291 1.12 2.208h-2.53a1.054 1.054 0 0 0-.42-.736c-.22-.181-.52-.272-.89-.272-.32 0-.57.064-.74.192a.564.564 0 0 0-.25.496c0 .256.13.448.4.576.27.128.7.256 1.28.384.66.171 1.2.341 1.61.512.42.16.78.427 1.09.8.32.363.48.853.5 1.472 0 .523-.15.992-.45 1.408-.29.405-.71.725-1.27.96-.54.235-1.18.352-1.9.352zm13.71-4.736c0 .256-.02.523-.05.8h-6.19c.04.555.21.981.52 1.28.32.288.71.432 1.17.432.68 0 1.16-.288 1.43-.864h2.91a3.89 3.89 0 0 1-.82 1.584 3.98 3.98 0 0 1-1.45 1.104c-.59.267-1.25.4-1.97.4-.88 0-1.66-.187-2.34-.56a4.037 4.037 0 0 1-1.6-1.6c-.38-.693-.57-1.504-.57-2.432 0-.928.18-1.739.56-2.432.38-.693.91-1.227 1.6-1.6.68-.373 1.46-.56 2.35-.56.86 0 1.63.181 2.3.544.67.363 1.2.88 1.57 1.552.38.672.58 1.456.58 2.352zm-2.8-.72c0-.469-.16-.843-.48-1.12-.32-.277-.72-.416-1.2-.416-.46 0-.85.133-1.17.4-.31.267-.5.645-.58 1.136zm6.97-2.112c.32-.491.72-.875 1.2-1.152a3.067 3.067 0 0 1 1.6-.432v2.896h-.75c-.68 0-1.19.149-1.53.448-.34.288-.52.8-.52 1.536V508h-2.73v-8.928h2.73z"/><rect width="596" height="137" x="4.433" y="590.5" fill="url(#a)" rx="8.5" ry="8.5" style="fill:url(#a)"/><rect width="596" height="137" x="4.433" y="590.5" stroke="url(#b)" stroke-width="3" rx="8.5" ry="8.5" style="stroke:url(#b)"/><rect width="69" height="63.48" x="206.433" y="627.26" fill="#fcf3e4" rx="6.9" ry="6.9"/><path fill="#790e70" d="M269.508 627.26h-57.147c-3.272 0-5.928 2.687-5.928 5.999v51.482c0 3.315 2.656 5.999 5.928 5.999h57.144c3.276 0 5.928-2.687 5.928-5.999v-51.482c0-3.315-2.656-5.999-5.928-5.999zm-2.077 12.362-38.3 19.38h24.353a3.145 3.145 0 0 1 3.053 2.444 3.187 3.187 0 0 1-1.648 3.569l-37.638 19.045a3.11 3.11 0 0 1-3.053-.137 3.189 3.189 0 0 1-1.488-2.702v-44.438c0-1.753 1.404-3.175 3.136-3.175h50.184a3.146 3.146 0 0 1 3.053 2.444 3.19 3.19 0 0 1-1.648 3.57z"/><path fill="#fff" d="M300.144 652.864v2.466h-5.148v2.664h3.852v2.394h-3.852v5.112h-3.078v-12.636zm8.062 12.636-2.628-4.77h-.738v4.77h-3.078v-12.636h5.166c.996 0 1.842.174 2.538.522.708.348 1.236.828 1.584 1.44.348.6.522 1.272.522 2.016 0 .84-.24 1.59-.72 2.25-.468.66-1.164 1.128-2.088 1.404l2.916 5.004zm-3.366-6.948h1.908c.564 0 .984-.138 1.26-.414.288-.276.432-.666.432-1.17 0-.48-.144-.858-.432-1.134-.276-.276-.696-.414-1.26-.414h-1.908zm11.742-3.222v2.556h4.122v2.376h-4.122v2.772h4.662v2.466h-7.74v-12.636h7.74v2.466zm15.66 12.33-1.62-2.178a7.15 7.15 0 0 1-1.404.144 6.645 6.645 0 0 1-3.276-.828 6.295 6.295 0 0 1-2.358-2.304c-.576-.996-.864-2.112-.864-3.348 0-1.236.288-2.346.864-3.33a6.295 6.295 0 0 1 2.358-2.304 6.645 6.645 0 0 1 3.276-.828c1.188 0 2.274.276 3.258.828a5.999 5.999 0 0 1 2.34 2.304c.576.984.864 2.094.864 3.33 0 1.08-.222 2.07-.666 2.97a6.042 6.042 0 0 1-1.818 2.214l2.772 3.33zm-6.372-8.514c0 1.116.3 2.01.9 2.682.612.66 1.428.99 2.448.99 1.008 0 1.812-.336 2.412-1.008.612-.672.918-1.56.918-2.664 0-1.116-.306-2.004-.918-2.664-.6-.672-1.404-1.008-2.412-1.008-1.02 0-1.836.33-2.448.99-.6.66-.9 1.554-.9 2.682zm14.582-6.282v7.56c0 .756.186 1.338.558 1.746.372.408.918.612 1.638.612.72 0 1.272-.204 1.656-.612.384-.408.576-.99.576-1.746v-7.56h3.078v7.542c0 1.128-.24 2.082-.72 2.862a4.598 4.598 0 0 1-1.944 1.764c-.804.396-1.704.594-2.7.594-.996 0-1.89-.192-2.682-.576a4.446 4.446 0 0 1-1.854-1.764c-.456-.792-.684-1.752-.684-2.88v-7.542zm12.745 2.466v2.556h4.122v2.376h-4.122v2.772h4.662v2.466h-7.74v-12.636h7.74v2.466zm17.965 10.17h-3.078l-5.148-7.794v7.794h-3.078v-12.636h3.078l5.148 7.83v-7.83h3.078zm1.709-6.336c0-1.248.27-2.358.81-3.33a5.73 5.73 0 0 1 2.25-2.286c.972-.552 2.07-.828 3.294-.828 1.5 0 2.784.396 3.852 1.188 1.068.792 1.782 1.872 2.142 3.24h-3.384a2.716 2.716 0 0 0-1.08-1.206c-.456-.276-.978-.414-1.566-.414-.948 0-1.716.33-2.304.99-.588.66-.882 1.542-.882 2.646 0 1.104.294 1.986.882 2.646.588.66 1.356.99 2.304.99.588 0 1.11-.138 1.566-.414a2.716 2.716 0 0 0 1.08-1.206h3.384c-.36 1.368-1.074 2.448-2.142 3.24-1.068.78-2.352 1.17-3.852 1.17-1.224 0-2.322-.27-3.294-.81a5.885 5.885 0 0 1-2.25-2.286c-.54-.972-.81-2.082-.81-3.33zm25.069-6.3-4.374 8.46v4.176h-3.078v-4.176l-4.374-8.46h3.492l2.448 5.292 2.43-5.292z"/><defs><linearGradient id="a" x1="1090" x2="594.199" y1="739.5" y2="1041.45" gradientTransform="translate(-488.067 -143)" gradientUnits="userSpaceOnUse"><stop stop-color="#311E48"/><stop offset=".458" stop-color="#790E70"/><stop offset="1" stop-color="#AA40A1"/></linearGradient><linearGradient id="b" x1="790.5" x2="790.5" y1="732" y2="872" gradientTransform="translate(-488.067 -143)" gradientUnits="userSpaceOnUse"><stop stop-color="#311E48"/><stop offset=".5" stop-color="#790E70"/><stop offset="1" stop-color="#AA40A1"/></linearGradient></defs></svg>
