<svg id="Layer_1" data-name="Layer 1" viewBox="0 0 818 365" version="1.1" xmlns="http://www.w3.org/2000/svg" xmlns:svg="http://www.w3.org/2000/svg"><defs id="defs1"><style id="style1">.cls-1,.cls-2{fill:none}.cls-3{fill:#00b6af}.cls-4{fill:#f15a24}.cls-5{fill:#a7a9ac}.cls-6,.cls-7,.cls-8,.cls-9{fill:#19455e}.cls-10,.cls-11{fill:#18465e}.cls-2{stroke-width:5px}.cls-2,.cls-7,.cls-8{stroke-miterlimit:10}.cls-2,.cls-8{stroke:#19455e}.cls-7{fill-rule:evenodd;stroke:#fff}.cls-11{font-size:11px}.cls-11,.cls-9{font-family:Poppins-Bold,Poppins;font-weight:700}.cls-8{opacity:.1;stroke-width:.25px}.cls-12{opacity:.8}.cls-9{font-size:28.9px}</style></defs><rect style="font-variation-settings:'wght' 300" id="rect95" width="818" height="365" x="0" y="0" fill="#fff" stroke-width="1.002" stroke-linecap="round"/><text class="cls-11" transform="translate(180.34 93.67)" id="text1"><tspan x="0" y="0" id="tspan1">APPLICATIONS</tspan></text><text class="cls-11" transform="translate(292.2 93.67)" id="text2"><tspan x="0" y="0" id="tspan2">CONTENT</tspan></text><path class="cls-6" d="m266.2,192.78h-90.87v-90.87h90.87v90.87Zm-88.1-2.77h85.32v-85.32h-85.32v85.32Z" id="path2"/><path class="cls-6" d="m467.2,192.78h-90.87v-90.87h90.87v90.87Zm-88.1-2.77h85.32v-85.32h-85.32v85.32Z" id="path3"/><g id="g7"><path class="cls-4" d="m428.12,134.94c0-2.57-1.55-4.89-3.92-5.87-2.37-.98-5.11-.44-6.92,1.38-1.82,1.82-2.36,4.55-1.38,6.92.98,2.38,3.3,3.92,5.87,3.92,3.51,0,6.35-2.85,6.35-6.35Zm-9.93,0c0-1.45.87-2.75,2.21-3.31,1.34-.56,2.88-.25,3.9.77,1.02,1.02,1.33,2.56.77,3.9-.55,1.34-1.86,2.21-3.31,2.21-1.97,0-3.57-1.61-3.58-3.58Z" id="path4"/><path class="cls-4" d="m436.38,145.79c2.58.02,4.91-1.51,5.91-3.89,1-2.37.47-5.11-1.34-6.94-1.81-1.83-4.55-2.38-6.93-1.4-2.38.98-3.93,3.3-3.93,5.88,0,3.49,2.81,6.32,6.3,6.35h0Zm0-9.93c1.46-.02,2.77.83,3.35,2.17.57,1.34.28,2.88-.74,3.92-1.02,1.04-2.56,1.35-3.91.8-1.34-.55-2.22-1.86-2.22-3.31,0-1.95,1.57-3.54,3.52-3.58h0Z" id="path5"/><path class="cls-4" d="m413.44,139.43c0-2.57-1.55-4.89-3.92-5.87-2.37-.98-5.11-.44-6.92,1.38-1.82,1.82-2.36,4.55-1.38,6.92.98,2.37,3.3,3.92,5.87,3.92,3.51,0,6.35-2.85,6.35-6.35Zm-9.93,0c0-1.45.87-2.75,2.21-3.31,1.34-.55,2.87-.25,3.9.78,1.02,1.02,1.33,2.56.77,3.9-.55,1.34-1.86,2.21-3.31,2.21-1.95-.04-3.52-1.63-3.52-3.58h-.06Z" id="path6"/><path class="cls-6" d="m436.18,147.98c-1.66.03-3.28.45-4.74,1.22-.51-.94-1.16-1.8-1.93-2.55-2.44-2.42-5.89-3.55-9.29-3.05-3.4.5-6.37,2.58-8.01,5.6-1.63-.83-3.44-1.25-5.27-1.22-2.93.11-5.7,1.35-7.73,3.48-2.02,2.12-3.14,4.95-3.11,7.88v5.31c0,.77.62,1.39,1.39,1.39s1.39-.62,1.39-1.39v-5.31c-.07-4.59,3.53-8.39,8.12-8.59,1.46-.04,2.89.32,4.16,1.03-.27,1-.41,2.03-.41,3.06v7.47c0,2.06,1.67,3.73,3.73,3.73s3.73-1.67,3.73-3.73v-3.29c-.01-2.97-1.23-5.82-3.37-7.88l-.39-.36c1.18-2.36,3.42-4,6.02-4.41,2.6-.41,5.24.46,7.09,2.33.65.63,1.19,1.36,1.6,2.17-2.43,2.18-3.81,5.29-3.8,8.55v2.97h0c0,2.06,1.67,3.73,3.73,3.73s3.73-1.67,3.73-3.73v-7.85c0-.93-.11-1.87-.35-2.77,1.15-.65,2.45-1.01,3.77-1.04,2.22-.04,4.37.82,5.95,2.37,1.59,1.55,2.48,3.68,2.47,5.9v5.67c0,.77.62,1.39,1.39,1.39s1.39-.62,1.39-1.39v-5.63c0-2.97-1.19-5.81-3.31-7.9-2.11-2.09-4.97-3.24-7.94-3.2v.06Zm-20.81,11.1v3.29c0,.53-.43.96-.96.96s-.96-.43-.96-.96v-8.56c1.24,1.46,1.94,3.3,1.96,5.22l-.04.06Zm14.72,3.23c0,.53-.43.96-.96.96s-.96-.43-.96-.96v-2.97c0-1.97.66-3.89,1.89-5.44v.62l.03,7.78Z" id="path7"/></g><g id="g17"><g id="g16"><rect class="cls-1" x="295.86" y="150.2" width="6.19" height="20.8" id="rect7"/><path class="cls-1" d="m324.75,139.3c0-1.59,1.29-2.88,2.88-2.88h4.03v-6.34c0-.95-.77-1.73-1.73-1.73h-13.25v1.73c0,1.59-1.29,2.88-2.88,2.88h-4.03v3.46h4.03c1.59,0,2.88,1.29,2.88,2.88v1.73h8.07v-1.73Z" id="path8"/><path class="cls-1" d="m325.9,139.3v4.61c0,.95.77,1.73,1.73,1.73h9.22c.95,0,1.73-.77,1.73-1.73v-4.61c0-.95-.77-1.73-1.73-1.73h-9.22c-.95,0-1.73.77-1.73,1.73Zm4.03,1.73h4.61c.32,0,.58.26.58.58s-.26.58-.58.58h-4.61c-.32,0-.58-.26-.58-.58s.26-.58.58-.58Z" id="path9"/><path class="cls-1" d="m313.8,137.57h-9.22c-.95,0-1.73.77-1.73,1.73v4.61c0,.95.77,1.73,1.73,1.73h9.22c.95,0,1.73-.77,1.73-1.73v-4.61c0-.95-.77-1.73-1.73-1.73Zm-2.31,4.61h-4.61c-.32,0-.58-.26-.58-.58s.26-.58.58-.58h4.61c.32,0,.58.26.58.58s-.26.58-.58.58Z" id="path10"/><path class="cls-1" d="m315.52,130.07v-4.61c0-.95-.77-1.73-1.73-1.73h-9.22c-.95,0-1.73.77-1.73,1.73v4.61c0,.95.77,1.73,1.73,1.73h9.22c.95,0,1.73-.77,1.73-1.73Zm-4.03-1.73h-4.61c-.32,0-.58-.26-.58-.58s.26-.58.58-.58h4.61c.32,0,.58.26.58.58s-.26.58-.58.58Z" id="path11"/><path class="cls-6" d="m334.54,140.68h-4.61c-.51,0-.92.41-.92.92s.41.92.92.92h4.61c.51,0,.92-.41.92-.92s-.41-.92-.92-.92Z" id="path12"/><path class="cls-6" d="m311.49,140.68h-4.61c-.51,0-.92.41-.92.92s.41.92.92.92h4.61c.51,0,.92-.41.92-.92s-.41-.92-.92-.92Z" id="path13"/><path class="cls-6" d="m311.49,126.85h-4.61c-.51,0-.92.41-.92.92s.41.92.92.92h4.61c.51,0,.92-.41.92-.92s-.41-.92-.92-.92Z" id="path14"/><path class="cls-4" d="m336.85,136.07h-3.69v-5.99c0-1.78-1.45-3.23-3.23-3.23h-12.91v-1.38c0-1.78-1.45-3.23-3.23-3.23h-9.22c-1.78,0-3.23,1.45-3.23,3.23v4.61c0,1.78,1.45,3.23,3.23,3.23h3.69v2.76h-3.69c-1.78,0-3.23,1.45-3.23,3.23v4.61c0,1.78,1.45,3.23,3.23,3.23h9.22c1.78,0,3.23-1.45,3.23-3.23v-1.38h2.77l.08,10.85h1.9l-.13-10.85h2.76v1.38c0,1.78,1.45,3.23,3.23,3.23h9.22c1.78,0,3.23-1.45,3.23-3.23v-4.61c0-1.78-1.45-3.23-3.23-3.23Zm-21.67,3.23v4.61c0,.76-.62,1.38-1.38,1.38h-9.22c-.76,0-1.38-.62-1.38-1.38v-4.61c0-.76.62-1.38,1.38-1.38h9.22c.76,0,1.38.62,1.38,1.38Zm0-9.22c0,.76-.62,1.38-1.38,1.38h-9.22c-.76,0-1.38-.62-1.38-1.38v-4.61c0-.76.62-1.38,1.38-1.38h9.22c.76,0,1.38.62,1.38,1.38v4.61Zm-1.38,5.99h-3.69v-2.76h3.69c1.78,0,3.23-1.45,3.23-3.23v-1.38h12.91c.76,0,1.38.62,1.38,1.38v5.99h-3.69c-1.78,0-3.23,1.45-3.23,3.23v1.38h-7.38v-1.38c0-1.78-1.45-3.23-3.23-3.23Zm12.45,3.23c0-.76.62-1.38,1.38-1.38h9.22c.76,0,1.38.62,1.38,1.38v4.61c0,.76-.62,1.38-1.38,1.38h-9.22c-.76,0-1.38-.62-1.38-1.38v-4.61Z" id="path15"/><path class="cls-6" d="m346.08,151.7h0c-2.01-1.92-5.08-2.26-7.47-.85l-8.35,4.96-.13-.24c-.8-1.46-2.33-2.37-3.99-2.37h-8.26c-.73,0-1.46-.19-2.1-.55l-5.28-2.99c-1.76-.99-3.9-1.08-5.72-.23l-1.05.49-.07-.31c-.24-1.04-1.15-1.76-2.21-1.76h-4.98c-1.25,0-2.28,1.02-2.28,2.28v19.58c0,1.25,1.02,2.28,2.28,2.28h4.98c1.25,0,2.28-1.02,2.28-2.28v-.55l2.49-1.11,12,3.98c.91.3,1.86.45,2.8.45,1.97,0,3.94-.63,5.52-1.83l19.32-14.71c.65-.49,1.04-1.24,1.09-2.05.04-.81-.27-1.6-.86-2.16Zm-1.23,2.88l-.22-.27-19.32,14.71c-1.81,1.38-4.29,1.8-6.46,1.08l-12.37-4.11c-.11-.04-.21-.05-.32-.05-.14,0-.28.03-.42.09l-2.01.9v-14.79l1.91-.89c1.24-.58,2.69-.52,3.88.15l5.28,2.99c.93.53,2,.82,3.09.82h8.26c1.4,0,2.53,1.14,2.53,2.53v1.19c0,.23-.19.42-.42.42h-11.84c-.55,0-1.01.45-1.01,1s.45,1.01,1.01,1.01h11.83c1.34,0,2.43-1.09,2.43-2.43v-1.02l8.96-5.33c1.61-.96,3.69-.73,5.05.57.17.16.25.38.23.61-.01.2-.12.41-.29.54l.22.27h0Zm-43.14-4.73v20.11h-5.5v-20.11h5.5Z" id="path16"/></g><path class="cls-6" d="m366,192.78h-90.87v-90.87h90.87v90.87Zm-88.1-2.77h85.32v-85.32h-85.32v85.32Z" id="path17"/></g><path class="cls-6" d="m669.2,192.78h-90.87v-90.87h90.87v90.87Zm-88.1-2.77h85.32v-85.32h-85.32v85.32Z" id="path18"/><path class="cls-6" d="m568,192.78h-90.87v-90.87h90.87v90.87Zm-88.1-2.77h85.32v-85.32h-85.32v85.32Z" id="path19"/><path class="cls-4" d="m231.17,137.1c1.29,0,2.33-1.04,2.33-2.33s-1.04-2.33-2.33-2.33-2.33,1.04-2.33,2.33,1.04,2.33,2.33,2.33Z" id="path20"/><path class="cls-4" d="m225.92,134.77c0,1.29-1.04,2.33-2.33,2.33s-2.33-1.04-2.33-2.33,1.04-2.33,2.33-2.33,2.33,1.04,2.33,2.33Z" id="path21"/><path class="cls-4" d="m238.75,137.1c1.29,0,2.33-1.04,2.33-2.33s-1.04-2.33-2.33-2.33-2.33,1.04-2.33,2.33,1.04,2.33,2.33,2.33Z" id="path22"/><path class="cls-7" d="m200.25,126.6c-2.9,0-5.25,2.35-5.25,5.25v31.5c0,2.9,2.35,5.25,5.25,5.25h42c2.9,0,5.25-2.35,5.25-5.25v-31.5c0-2.9-2.35-5.25-5.25-5.25h-42Zm-1.75,5.25c0-.97.78-1.75,1.75-1.75h42c.97,0,1.75.78,1.75,1.75v7.58h-45.5v-7.58Zm45.5,11.08v20.42c0,.97-.78,1.75-1.75,1.75h-42c-.97,0-1.75-.78-1.75-1.75v-20.42h45.5Z" id="path23"/><path class="cls-4" d="m508.26,148.23l4.35-4.35-1.81-1.81-5.25,5.26c-.24.24-.38.56-.38.9s.14.66.38.9l15.69,15.69c.24.24.57.38.91.38s.66-.14.91-.38l5.25-5.25-1.81-1.81-4.35,4.35-13.88-13.88Z" id="path24"/><g id="g36"><path class="cls-1" d="m510.38,130.84c-.09-.32-.25-.62-.5-.86l-4.07-4.07c-.39-.39-.9-.58-1.41-.58s-1.02.19-1.41.58l-1.18,1.18c-.78.78-.78,2.04,0,2.82l4.07,4.07c.25.25.55.41.86.5-.15-.35-.23-.72-.23-1.11,0-.74.29-1.43.81-1.95.83-.83,2.05-1.01,3.06-.57Z" id="path25"/><path class="cls-1" d="m507.3,136.37c-.98,0-1.95-.37-2.7-1.12l-4.07-4.07c-1.49-1.49-1.49-3.91,0-5.4l1.18-1.18c1.49-1.49,3.91-1.49,5.4,0l4.07,4.07c.72.72,1.12,1.68,1.12,2.7,0,.33-.05.66-.13.97l1.42,1.41c.97-2.09.61-4.65-1.11-6.37l-4.07-4.07c-1.1-1.1-2.54-1.65-3.99-1.65s-2.89.55-3.99,1.65l-1.18,1.18c-2.2,2.2-2.2,5.78,0,7.97l4.07,4.07c1.72,1.72,4.28,2.09,6.37,1.11l-1.42-1.42c-.32.08-.64.13-.97.13Z" id="path26"/><path class="cls-1" d="m537.68,161.76c.36-.36.36-.95,0-1.31l-9.06-9.06c-.17-.17-.41-.27-.65-.27s-.48.1-.66.27c-.18.18-.27.41-.27.66s.1.48.27.66l9.06,9.06c.36.36.95.36,1.31,0Z" id="path27"/><path class="cls-1" d="m508.62,132.7c-.18.18-.27.41-.27.66s.1.48.27.65l9.06,9.06c.35.35.96.35,1.31,0,.18-.18.27-.41.27-.66s-.1-.48-.27-.66l-9.06-9.06c-.36-.36-.95-.36-1.31,0Z" id="path28"/><path class="cls-1" d="m547.05,161.98l-4.07-4.07c-1.06-1.06-2.48-1.65-3.99-1.65h0c-.84,0-1.65.19-2.39.53l1.42,1.42c.31-.08.64-.13.97-.13h0c1.02,0,1.98.4,2.7,1.12l4.07,4.07c1.49,1.49,1.49,3.91,0,5.4l-1.18,1.18c-.72.72-1.68,1.12-2.7,1.12h0c-1.02,0-1.98-.4-2.7-1.12l-4.07-4.07c-.99-.99-1.32-2.4-.99-3.67l-1.42-1.42c-.97,2.09-.61,4.65,1.11,6.37l4.07,4.07c2.2,2.2,5.77,2.2,7.97,0l1.18-1.18c1.06-1.06,1.65-2.48,1.65-3.99,0-1.51-.59-2.92-1.65-3.99Z" id="path29"/><path class="cls-1" d="m537.03,163.86c-.38,0-.76-.08-1.11-.24.09.32.25.62.5.86l4.07,4.07c.38.37.87.58,1.41.58h0c.53,0,1.03-.21,1.41-.58l1.18-1.18c.78-.78.78-2.04,0-2.82l-4.07-4.07c-.24-.24-.54-.41-.86-.5.44,1.01.26,2.23-.57,3.06-.54.54-1.24.8-1.95.8Z" id="path30"/><path class="cls-6" d="m516.35,136.53h0s-1.42-1.42-1.42-1.42c1.65-2.85,1.27-6.57-1.17-9.01l-4.07-4.07c-2.91-2.91-7.64-2.91-10.55,0l-1.18,1.18c-2.91,2.91-2.91,7.64,0,10.55l4.07,4.07c1.45,1.45,3.37,2.18,5.28,2.18,1.29,0,2.58-.34,3.74-1.01l1.42,1.42h0s1.44,1.43,1.44,1.43l.37.37,2.13,2.13c.52.52,1.21.81,1.95.81s1.43-.29,1.95-.81c.52-.52.81-1.21.81-1.95,0-.74-.29-1.43-.81-1.95l-2.13-2.13-1.8-1.81Zm-13.04,0l-4.07-4.07c-2.2-2.2-2.2-5.77,0-7.97l1.18-1.18c1.1-1.1,2.54-1.65,3.99-1.65s2.89.55,3.99,1.65l4.07,4.07c1.72,1.72,2.09,4.28,1.11,6.37l-1.42-1.41c.08-.31.13-.64.13-.97,0-1.02-.4-1.98-1.12-2.7l-4.07-4.07c-1.49-1.49-3.91-1.49-5.4,0l-1.18,1.18c-1.49,1.49-1.49,3.91,0,5.4l4.07,4.07c.74.74,1.72,1.12,2.7,1.12.33,0,.65-.05.97-.13l1.42,1.42c-2.09.97-4.65.61-6.37-1.11Zm3.44-2.08c-.31-.09-.61-.25-.86-.5l-4.07-4.07c-.78-.78-.78-2.04,0-2.82l1.18-1.18c.39-.39.9-.58,1.41-.58s1.02.19,1.41.58l4.07,4.07c.24.24.41.54.5.86-1.01-.44-2.23-.26-3.06.57-.52.52-.81,1.21-.81,1.95,0,.39.08.76.23,1.11Zm12.24,7.3c.17.18.27.41.27.66s-.1.48-.27.66c-.35.35-.96.35-1.31,0l-9.06-9.06c-.17-.17-.27-.41-.27-.65s.1-.48.27-.66c.36-.36.95-.36,1.31,0l9.06,9.06Z" id="path31"/><g id="g35"><path class="cls-1" d="m537.03,163.86c-.38,0-.76-.08-1.11-.24.09.32.25.62.5.86l4.07,4.07c.38.37.87.58,1.41.58h0c.53,0,1.03-.21,1.41-.58l1.18-1.18c.78-.78.78-2.04,0-2.82l-4.07-4.07c-.24-.24-.54-.41-.86-.5.44,1.01.26,2.23-.57,3.06-.54.54-1.24.8-1.95.8Z" id="path32"/><path class="cls-1" d="m537.68,161.76c.36-.36.36-.95,0-1.31l-9.06-9.06c-.17-.17-.41-.27-.65-.27s-.48.1-.66.27c-.18.18-.27.41-.27.66s.1.48.27.66l9.06,9.06c.36.36.95.36,1.31,0Z" id="path33"/><path class="cls-1" d="m547.05,161.98l-4.07-4.07c-1.06-1.06-2.48-1.65-3.99-1.65h0c-.84,0-1.65.19-2.39.53l1.42,1.42c.31-.08.64-.13.97-.13,1.02,0,1.98.4,2.7,1.12l4.07,4.07c1.49,1.49,1.49,3.91,0,5.4l-1.18,1.18c-.72.72-1.68,1.12-2.7,1.12h0c-1.02,0-1.98-.4-2.7-1.12l-4.07-4.07c-.99-.99-1.32-2.4-.99-3.67l-1.42-1.42c-.97,2.09-.61,4.65,1.11,6.37l4.07,4.07c2.2,2.2,5.77,2.2,7.97,0l1.18-1.18c1.06-1.06,1.65-2.48,1.65-3.99,0-1.51-.59-2.92-1.65-3.99Z" id="path34"/><path class="cls-6" d="m548.34,160.69l-4.07-4.07c-2.44-2.44-6.16-2.82-9.01-1.17l-1.42-1.42-3.93-3.93c-.52-.52-1.21-.81-1.95-.81s-1.43.29-1.95.81c-.52.52-.81,1.21-.81,1.95s.29,1.43.81,1.95l2.13,2.13.41.41,1.4,1.4h0s1.42,1.42,1.42,1.42c-1.65,2.85-1.27,6.57,1.17,9.01l4.07,4.07c1.46,1.45,3.37,2.18,5.28,2.18s3.82-.73,5.28-2.18l1.18-1.18c1.41-1.41,2.18-3.28,2.18-5.28,0-2-.78-3.87-2.18-5.28Zm-21.03-7.99c-.17-.17-.27-.41-.27-.66s.1-.48.27-.66c.17-.17.41-.27.66-.27s.48.1.65.27l9.06,9.06c.36.36.36.95,0,1.31-.36.36-.95.36-1.31,0m3.17-1.77c.32.09.62.25.86.5l4.07,4.07c.78.78.78,2.04,0,2.82l-1.18,1.18c-.38.37-.88.58-1.41.58h0c-.53,0-1.03-.21-1.41-.58l-4.07-4.07c-.25-.25-.41-.55-.5-.86.35.16.73.24,1.11.24.7,0,1.41-.27,1.95-.8.83-.83,1.01-2.05.57-3.06Zm7.51,9.96l-1.18,1.18c-2.2,2.2-5.77,2.2-7.97,0l-4.07-4.07c-1.72-1.72-2.09-4.28-1.11-6.37l1.42,1.42c-.33,1.27,0,2.68.99,3.67l4.07,4.07c.72.72,1.68,1.12,2.7,1.12h0c1.02,0,1.98-.4,2.7-1.12l1.18-1.18c1.49-1.49,1.49-3.91,0-5.4l-4.07-4.07c-.72-.72-1.68-1.12-2.7-1.12-.33,0-.66.05-.97.13l-1.42-1.42c.74-.34,1.55-.53,2.39-.53h0c1.51,0,2.92.59,3.99,1.65l4.07,4.07c1.06,1.06,1.65,2.48,1.65,3.99,0,1.51-.59,2.92-1.65,3.99Z" id="path35"/></g></g><path class="cls-4" d="m538.07,146.62l-4.35,4.35,1.81,1.81,5.25-5.26c.24-.24.38-.56.38-.9s-.14-.66-.38-.9l-15.69-15.69c-.24-.24-.57-.38-.91-.38s-.66.14-.91.38l-5.25,5.25,1.81,1.81,4.35-4.35,13.88,13.88Z" id="path36"/><g id="g37"><path class="cls-3" d="m675,193.92c-.46-.45-1.2-.43-1.65.03-.45.46-.43,1.2.03,1.65l7.61,7.33h-11.03v2.33h11.03l-7.61,7.33c-.24.23-.36.53-.36.84s.11.58.33.81c.45.46,1.19.48,1.65.03l9.69-9.33c.23-.22.36-.52.36-.84s-.13-.62-.36-.84l-9.69-9.33Z" id="path37"/><rect class="cls-3" x="175" y="202.56" width="507" height="3.06" id="rect37"/></g><polyline class="cls-2" points="175.38 221.6 264.6 221.6 264.6 312 332.01 312 332.01 221.6 512.68 221.6 512.68 312 580.11 312 580.11 221.6 669.38 221.6" id="polyline37"/><ellipse class="cls-8" cx="422.38" cy="314.55" rx="263.24" ry="6.94" id="ellipse37"/><path class="cls-6" d="m598.78,130.02v32.28h21.52v3.59h-7.17v3.59h21.52v-3.59h-7.17v-3.59h21.52v-32.28h-50.22Zm3.59,3.59h43.05v25.11h-43.05v-25.11Z" id="path38"/><path class="cls-4" d="m640.85,152.4l6.56,8.76c.6.8.43,1.93-.36,2.53l-.36.27c-.8.6-1.93.43-2.53-.36l-6.51-8.7" id="path39"/><path class="cls-4" d="m622.35,142.96c1.26-5.81,6.99-9.5,12.8-8.24s9.5,6.99,8.24,12.8c-1.26,5.81-6.99,9.5-12.8,8.24-5.81-1.26-9.5-6.99-8.24-12.8Zm8.99,10c4.25.92,8.44-1.77,9.36-6.02s-1.77-8.44-6.02-9.36-8.44,1.77-9.36,6.02c-.92,4.25,1.77,8.44,6.02,9.36Z" id="path40"/><text class="cls-11" transform="translate(378.86 93.67)" id="text40"><tspan x="0" y="0" id="tspan40">SOCIAL GRAPH</tspan></text><text class="cls-11" transform="translate(484.72 93.67)" id="text41"><tspan x="0" y="0" id="tspan41">BLOCK CHAIN</tspan></text><g id="g61"><path class="cls-10" d="m598.39,73.76c.33-.6.79-1.06,1.38-1.4.59-.33,1.26-.5,2.01-.5.92,0,1.7.24,2.35.73.65.48,1.09,1.14,1.31,1.98h-2.07c-.15-.32-.37-.57-.65-.74-.28-.17-.6-.25-.96-.25-.58,0-1.05.2-1.41.61-.36.4-.54.94-.54,1.62s.18,1.21.54,1.62c.36.4.83.6,1.41.6.36,0,.68-.08.96-.25.28-.17.5-.41.65-.74h2.07c-.22.84-.66,1.49-1.31,1.97-.65.48-1.44.72-2.35.72-.75,0-1.42-.17-2.01-.5-.59-.33-1.05-.8-1.38-1.39-.33-.59-.5-1.27-.5-2.04s.17-1.44.5-2.04Z" id="path41"/><path class="cls-10" d="m608.25,79.24c-.61-.34-1.09-.81-1.44-1.41s-.53-1.29-.53-2.04.18-1.43.53-2.04c.36-.6.84-1.07,1.44-1.41.6-.34,1.27-.51,2-.51s1.39.17,2,.51c.61.34,1.08.81,1.43,1.41.35.6.52,1.28.52,2.04s-.18,1.44-.53,2.04c-.35.6-.83,1.08-1.43,1.41-.6.34-1.27.51-1.99.51s-1.39-.17-2-.51Zm3.48-1.83c.37-.41.56-.95.56-1.63s-.19-1.23-.56-1.63c-.37-.41-.86-.61-1.48-.61s-1.12.2-1.49.6c-.37.4-.56.95-.56,1.64s.18,1.23.56,1.63c.37.41.87.61,1.49.61s1.11-.21,1.48-.62Z" id="path42"/><path class="cls-10" d="m622.15,79.67h-1.88l-3.15-4.76v4.76h-1.88v-7.72h1.88l3.15,4.79v-4.79h1.88v7.72Z" id="path43"/><path class="cls-10" d="m629.07,71.95v1.51h-2.05v6.21h-1.88v-6.21h-2.05v-1.51h5.97Z" id="path44"/><path class="cls-10" d="m631.89,73.46v1.56h2.52v1.45h-2.52v1.69h2.85v1.51h-4.73v-7.72h4.73v1.51h-2.85Z" id="path45"/><path class="cls-10" d="m642.87,79.67h-1.88l-3.15-4.76v4.76h-1.88v-7.72h1.88l3.15,4.79v-4.79h1.88v7.72Z" id="path46"/><path class="cls-10" d="m649.79,71.95v1.51h-2.05v6.21h-1.88v-6.21h-2.05v-1.51h5.97Z" id="path47"/><path class="cls-10" d="m587.57,85.95l-2.01,7.72h-2.28l-1.23-5.08-1.28,5.08h-2.28l-1.96-7.72h2.01l1.11,5.62,1.38-5.62h2.07l1.32,5.62,1.12-5.62h2.02Z" id="path48"/><path class="cls-10" d="m592.88,92.31h-2.88l-.46,1.36h-1.97l2.79-7.72h2.18l2.79,7.72h-1.99l-.46-1.36Zm-.48-1.45l-.96-2.83-.95,2.83h1.9Z" id="path49"/><path class="cls-10" d="m601.3,85.95v1.51h-2.05v6.21h-1.88v-6.21h-2.05v-1.51h5.97Z" id="path50"/><path class="cls-10" d="m601.98,87.76c.33-.6.79-1.06,1.38-1.4.59-.33,1.26-.5,2.01-.5.92,0,1.7.24,2.35.73.65.48,1.09,1.14,1.31,1.98h-2.07c-.15-.32-.37-.57-.65-.74-.28-.17-.6-.25-.96-.25-.58,0-1.05.2-1.41.61-.36.4-.54.94-.54,1.62s.18,1.21.54,1.62c.36.4.83.6,1.41.6.36,0,.68-.08.96-.25.28-.17.5-.41.65-.74h2.07c-.22.84-.66,1.49-1.31,1.97-.65.48-1.44.72-2.35.72-.75,0-1.42-.17-2.01-.5-.59-.33-1.05-.8-1.38-1.39-.33-.59-.5-1.27-.5-2.04s.17-1.44.5-2.04Z" id="path51"/><path class="cls-10" d="m616.43,85.95v7.72h-1.88v-3.18h-2.93v3.18h-1.88v-7.72h1.88v3.03h2.93v-3.03h1.88Z" id="path52"/><path class="cls-10" d="m619.23,87.46v1.56h2.52v1.45h-2.52v1.69h2.85v1.51h-4.73v-7.72h4.73v1.51h-2.85Z" id="path53"/><path class="cls-10" d="m626.79,93.67l-1.61-2.92h-.45v2.92h-1.88v-7.72h3.16c.61,0,1.13.11,1.56.32.43.21.75.5.96.87.21.37.32.78.32,1.24,0,.51-.14.97-.43,1.38-.29.4-.72.69-1.28.86l1.78,3.06h-2.12Zm-2.06-4.25h1.17c.34,0,.6-.08.78-.25.17-.17.26-.41.26-.71s-.09-.52-.26-.69c-.17-.17-.43-.25-.78-.25h-1.17v1.91Z" id="path54"/><path class="cls-10" d="m632.76,93.48c-.45-.18-.8-.45-1.07-.81-.27-.36-.41-.79-.42-1.3h2c.03.29.13.5.3.65s.39.23.66.23.5-.06.66-.19c.16-.13.24-.31.24-.53,0-.19-.06-.35-.19-.47-.13-.12-.29-.23-.47-.31-.19-.08-.45-.17-.8-.27-.5-.15-.91-.31-1.22-.46-.32-.15-.59-.38-.81-.68-.23-.3-.34-.69-.34-1.18,0-.72.26-1.28.78-1.69.52-.41,1.2-.61,2.04-.61s1.54.2,2.06.61c.52.41.8.97.84,1.7h-2.04c-.01-.25-.11-.45-.28-.59s-.38-.21-.65-.21c-.23,0-.41.06-.55.18-.14.12-.21.3-.21.52,0,.25.12.44.35.58.23.14.6.29,1.1.45.5.17.9.33,1.22.48s.58.38.81.67c.23.29.34.67.34,1.13s-.11.84-.34,1.2c-.22.36-.55.65-.97.86s-.93.32-1.51.32-1.07-.09-1.52-.28Z" id="path55"/><path class="cls-10" d="m639.69,87.46v1.56h2.52v1.45h-2.52v1.69h2.85v1.51h-4.73v-7.72h4.73v1.51h-2.85Z" id="path56"/><path class="cls-10" d="m647.25,93.67l-1.61-2.92h-.45v2.92h-1.88v-7.72h3.16c.61,0,1.13.11,1.56.32.43.21.75.5.96.87.21.37.32.78.32,1.24,0,.51-.14.97-.43,1.38-.29.4-.72.69-1.28.86l1.78,3.06h-2.12Zm-2.06-4.25h1.17c.34,0,.6-.08.78-.25.17-.17.26-.41.26-.71s-.09-.52-.26-.69c-.17-.17-.43-.25-.78-.25h-1.17v1.91Z" id="path57"/><path class="cls-10" d="m657.3,85.95l-2.74,7.72h-2.35l-2.74-7.72h2l1.91,5.83,1.93-5.83h1.99Z" id="path58"/><path class="cls-10" d="m659.52,85.95v7.72h-1.88v-7.72h1.88Z" id="path59"/><path class="cls-10" d="m660.62,87.76c.33-.6.79-1.06,1.38-1.4.59-.33,1.26-.5,2.01-.5.92,0,1.7.24,2.35.73.65.48,1.09,1.14,1.31,1.98h-2.07c-.15-.32-.37-.57-.65-.74-.28-.17-.6-.25-.96-.25-.58,0-1.05.2-1.41.61-.36.4-.54.94-.54,1.62s.18,1.21.54,1.62c.36.4.83.6,1.41.6.36,0,.68-.08.96-.25.28-.17.5-.41.65-.74h2.07c-.22.84-.66,1.49-1.31,1.97-.65.48-1.44.72-2.35.72-.75,0-1.42-.17-2.01-.5-.59-.33-1.05-.8-1.38-1.39-.33-.59-.5-1.27-.5-2.04s.17-1.44.5-2.04Z" id="path60"/><path class="cls-10" d="m670.27,87.46v1.56h2.52v1.45h-2.52v1.69h2.85v1.51h-4.73v-7.72h4.73v1.51h-2.85Z" id="path61"/></g><text class="cls-9" transform="translate(77.34 214.14)" id="text61"><tspan x="0" y="0" id="tspan61">WEB 2</tspan></text><text class="cls-9" transform="translate(688.85 214.14)" id="text62"><tspan x="0" y="0" id="tspan62">WEB 3</tspan></text><g id="g95"><g id="g73"><g class="cls-12" id="g68"><rect class="cls-5" x="401.11" y="295.06" width=".19" height="105.02" id="rect62"/><rect class="cls-5" x="416.13" y="295.06" width=".19" height="105.02" id="rect63"/><rect class="cls-5" x="431.14" y="295.06" width=".19" height="105.02" id="rect64"/><rect class="cls-5" x="446.16" y="295.06" width=".19" height="105.02" id="rect65"/><rect class="cls-5" x="461.17" y="295.06" width=".19" height="105.02" id="rect66"/><rect class="cls-5" x="476.19" y="295.06" width=".19" height="105.02" id="rect67"/><rect class="cls-5" x="491.2" y="295.06" width=".19" height="105.02" id="rect68"/></g><g class="cls-12" id="g72"><rect class="cls-5" x="400.98" y="310.35" width="101.12" height=".19" id="rect69"/><rect class="cls-5" x="400.98" y="325.37" width="101.12" height=".19" id="rect70"/><rect class="cls-5" x="400.98" y="340.38" width="101.12" height=".19" id="rect71"/><rect class="cls-5" x="400.98" y="355.4" width="101.12" height=".19" id="rect72"/></g></g><g id="g80"><g class="cls-12" id="g75"><rect class="cls-5" x="142.41" y="244.04" width=".19" height="61" id="rect73"/><rect class="cls-5" x="157.43" y="244.04" width=".19" height="61" id="rect74"/><rect class="cls-5" x="172.44" y="244.04" width=".19" height="61" id="rect75"/></g><g class="cls-12" id="g79"><rect class="cls-5" x="130.98" y="252.78" width="52.36" height=".19" id="rect76"/><rect class="cls-5" x="130.98" y="267.8" width="52.36" height=".19" id="rect77"/><rect class="cls-5" x="130.98" y="282.82" width="52.36" height=".19" id="rect78"/><rect class="cls-5" x="130.98" y="297.83" width="52.36" height=".19" id="rect79"/></g></g><g id="g87"><g class="cls-12" id="g82"><rect class="cls-5" x="666.82" y="9.01" width=".19" height="61" id="rect80"/><rect class="cls-5" x="681.83" y="9.01" width=".19" height="61" id="rect81"/><rect class="cls-5" x="696.85" y="9.01" width=".19" height="61" id="rect82"/></g><g class="cls-12" id="g86"><rect class="cls-5" x="655.39" y="17.75" width="52.36" height=".19" id="rect83"/><rect class="cls-5" x="655.39" y="32.76" width="52.36" height=".19" id="rect84"/><rect class="cls-5" x="655.39" y="47.78" width="52.36" height=".19" id="rect85"/><rect class="cls-5" x="655.39" y="62.8" width="52.36" height=".19" id="rect86"/></g></g><g id="g94"><g class="cls-12" id="g89"><rect class="cls-5" x="374.33" y="16.52" width=".19" height="61" id="rect87"/><rect class="cls-5" x="389.35" y="16.52" width=".19" height="61" id="rect88"/><rect class="cls-5" x="404.36" y="16.52" width=".19" height="61" id="rect89"/></g><g class="cls-12" id="g93"><rect class="cls-5" x="362.9" y="25.26" width="52.36" height=".19" id="rect90"/><rect class="cls-5" x="362.9" y="40.28" width="52.36" height=".19" id="rect91"/><rect class="cls-5" x="362.9" y="55.3" width="52.36" height=".19" id="rect92"/><rect class="cls-5" x="362.9" y="70.31" width="52.36" height=".19" id="rect93"/></g></g></g></svg>