<svg xmlns="http://www.w3.org/2000/svg" viewBox="0 0 818 365" xmlns:v="https://vecta.io/nano"><style><![CDATA[.A,.H,.I{isolation:isolate}.M{fill:#fcf3e4}.N{opacity:.8}.O{fill:#a7a9ac}.P{font-family:Poppins-Bold,Poppins}.Q{font-weight:700}.R{fill:#ff9a02}.S{font-size:11px}]]></style><text class="A M P Q S"><tspan x="180.34" y="93.67">APPLICATIONS</tspan><tspan x="292.2" y="93.67">CONTENT</tspan></text><path d="M266.2 192.78h-90.87v-90.87h90.87v90.87zm-88.1-2.77h85.32v-85.32H178.1v85.32zm289.1 2.77h-90.87v-90.87h90.87v90.87zm-88.1-2.77h85.32v-85.32H379.1v85.32z" class="M"/><path d="M428.12 134.94c0-2.57-1.55-4.89-3.92-5.87s-5.11-.44-6.92 1.38a6.35 6.35 0 0 0-1.38 6.92 6.34 6.34 0 0 0 5.87 3.92c3.51 0 6.35-2.85 6.35-6.35h0zm-9.93 0c0-1.45.87-2.75 2.21-3.31a3.57 3.57 0 0 1 4.67 4.67c-.55 1.34-1.86 2.21-3.31 2.21-1.97 0-3.57-1.61-3.58-3.58h.01zm18.19 10.85c2.58.02 4.91-1.51 5.91-3.89 1-2.37.47-5.11-1.34-6.94a6.35 6.35 0 1 0-4.56 10.83h-.01zm0-9.93a3.58 3.58 0 0 1 2.61 6.09c-1.02 1.04-2.56 1.35-3.91.8-1.34-.55-2.22-1.86-2.22-3.31a3.59 3.59 0 0 1 3.52-3.58h0zm-22.94 3.57c0-2.57-1.55-4.89-3.92-5.87s-5.11-.44-6.92 1.38a6.35 6.35 0 0 0-1.38 6.92c.98 2.37 3.3 3.92 5.87 3.92 3.51 0 6.35-2.85 6.35-6.35h0zm-9.93 0c0-1.45.87-2.75 2.21-3.31 1.34-.55 2.87-.25 3.9.78a3.57 3.57 0 0 1 .77 3.9c-.55 1.34-1.86 2.21-3.31 2.21a3.59 3.59 0 0 1-3.52-3.58h-.06.01z" class="R"/><g class="M"><path d="M436.18 147.98a10.56 10.56 0 0 0-4.74 1.22 10.65 10.65 0 0 0-1.93-2.55c-2.44-2.42-5.89-3.55-9.29-3.05s-6.37 2.58-8.01 5.6a11.21 11.21 0 0 0-5.27-1.22c-2.93.11-5.7 1.35-7.73 3.48-2.02 2.12-3.14 4.95-3.11 7.88v5.31c0 .77.62 1.39 1.39 1.39s1.39-.62 1.39-1.39v-5.31c-.07-4.59 3.53-8.39 8.12-8.59 1.46-.04 2.89.32 4.16 1.03a11.75 11.75 0 0 0-.41 3.06v7.47a3.73 3.73 0 1 0 7.46 0v-3.29c-.01-2.97-1.23-5.82-3.37-7.88l-.39-.36c1.18-2.36 3.42-4 6.02-4.41s5.24.46 7.09 2.33c.65.63 1.19 1.36 1.6 2.17-2.43 2.18-3.81 5.29-3.8 8.55v2.97h0a3.73 3.73 0 1 0 7.46 0v-7.85a10.79 10.79 0 0 0-.35-2.77 8.05 8.05 0 0 1 3.77-1.04 8.3 8.3 0 0 1 5.95 2.37c1.59 1.55 2.48 3.68 2.47 5.9v5.67c0 .77.62 1.39 1.39 1.39s1.39-.62 1.39-1.39v-5.63c0-2.97-1.19-5.81-3.31-7.9-2.11-2.09-4.97-3.24-7.94-3.2v.06-.02zm-20.81 11.1v3.29a.96.96 0 0 1-1.92 0v-8.56c1.24 1.46 1.94 3.3 1.96 5.22l-.04.06h0zm14.72 3.23a.96.96 0 0 1-1.92 0v-2.97a8.75 8.75 0 0 1 1.89-5.44v.62l.03 7.78h0z"/><use href="#B"/><use href="#B" x="-23.05"/><use href="#B" x="-23.05" y="-13.83"/></g><path d="M336.85 136.07h-3.69v-5.99c0-1.78-1.45-3.23-3.23-3.23h-12.91v-1.38c0-1.78-1.45-3.23-3.23-3.23h-9.22c-1.78 0-3.23 1.45-3.23 3.23v4.61c0 1.78 1.45 3.23 3.23 3.23h3.69v2.76h-3.69c-1.78 0-3.23 1.45-3.23 3.23v4.61c0 1.78 1.45 3.23 3.23 3.23h9.22c1.78 0 3.23-1.45 3.23-3.23v-1.38h2.77l.08 10.85h1.9l-.13-10.85h2.76v1.38c0 1.78 1.45 3.23 3.23 3.23h9.22c1.78 0 3.23-1.45 3.23-3.23v-4.61c0-1.78-1.45-3.23-3.23-3.23h0zm-21.67 3.23v4.61c0 .76-.62 1.38-1.38 1.38h-9.22c-.76 0-1.38-.62-1.38-1.38v-4.61c0-.76.62-1.38 1.38-1.38h9.22c.76 0 1.38.62 1.38 1.38zm0-9.22c0 .76-.62 1.38-1.38 1.38h-9.22c-.76 0-1.38-.62-1.38-1.38v-4.61c0-.76.62-1.38 1.38-1.38h9.22c.76 0 1.38.62 1.38 1.38v4.61zm-1.38 5.99h-3.69v-2.76h3.69c1.78 0 3.23-1.45 3.23-3.23v-1.38h12.91c.76 0 1.38.62 1.38 1.38v5.99h-3.69c-1.78 0-3.23 1.45-3.23 3.23v1.38h-7.38v-1.38c0-1.78-1.45-3.23-3.23-3.23h.01zm12.45 3.23c0-.76.62-1.38 1.38-1.38h9.22c.76 0 1.38.62 1.38 1.38v4.61c0 .76-.62 1.38-1.38 1.38h-9.22c-.76 0-1.38-.62-1.38-1.38v-4.61z" class="R"/><path d="M346.08 151.7h0c-2.01-1.92-5.08-2.26-7.47-.85l-8.35 4.96-.13-.24c-.8-1.46-2.33-2.37-3.99-2.37h-8.26c-.73 0-1.46-.19-2.1-.55l-5.28-2.99a6.28 6.28 0 0 0-5.72-.23l-1.05.49-.07-.31c-.24-1.04-1.15-1.76-2.21-1.76h-4.98c-1.25 0-2.28 1.02-2.28 2.28v19.58c0 1.25 1.02 2.28 2.28 2.28h4.98c1.25 0 2.28-1.02 2.28-2.28v-.55l2.49-1.11 12 3.98c.91.3 1.86.45 2.8.45 1.97 0 3.94-.63 5.52-1.83l19.32-14.71a2.77 2.77 0 0 0 1.09-2.05c.04-.81-.27-1.6-.86-2.16v-.03zm-1.23 2.88l-.22-.27-19.32 14.71c-1.81 1.38-4.29 1.8-6.46 1.08l-12.37-4.11c-.11-.04-.21-.05-.32-.05a1.06 1.06 0 0 0-.42.09l-2.01.9v-14.79l1.91-.89c1.24-.58 2.69-.52 3.88.15l5.28 2.99a6.26 6.26 0 0 0 3.09.82h8.26c1.4 0 2.53 1.14 2.53 2.53v1.19c0 .23-.19.42-.42.42h-11.84c-.55 0-1.01.45-1.01 1s.45 1.01 1.01 1.01h11.83c1.34 0 2.43-1.09 2.43-2.43v-1.02l8.96-5.33c1.61-.96 3.69-.73 5.05.57.17.16.25.38.23.61-.01.2-.12.41-.29.54l.22.27h0zm-43.14-4.73v20.11h-5.5v-20.11h5.5zM366 192.78h-90.87v-90.87H366v90.87zm-88.1-2.77h85.32v-85.32H277.9v85.32zm391.3 2.77h-90.87v-90.87h90.87v90.87zm-88.1-2.77h85.32v-85.32H581.1v85.32zm-13.1 2.77h-90.87v-90.87H568v90.87zm-88.1-2.77h85.32v-85.32H479.9v85.32h0z" class="M"/><g class="R"><use href="#C"/><path d="M225.92,134.77c0,1.29-1.04,2.33-2.33,2.33s-2.33-1.04-2.33-2.33,1.04-2.33,2.33-2.33,2.33,1.04,2.33,2.33Z"/><use href="#C" x="7.58"/></g><path d="M200.25 126.6a5.25 5.25 0 0 0-5.25 5.25v31.5a5.25 5.25 0 0 0 5.25 5.25h42a5.25 5.25 0 0 0 5.25-5.25v-31.5a5.25 5.25 0 0 0-5.25-5.25h-42zm-1.75 5.25c0-.97.78-1.75 1.75-1.75h42c.97 0 1.75.78 1.75 1.75v7.58h-45.5v-7.58zm45.5 11.08v20.42c0 .97-.78 1.75-1.75 1.75h-42c-.97 0-1.75-.78-1.75-1.75v-20.42H244z" fill-rule="evenodd" class="M"/><path d="M508.26,148.23l4.35-4.35-1.81-1.81-5.25,5.26c-.24.24-.38.56-.38.9s.14.66.38.9l15.69,15.69c.24.24.57.38.91.38s.66-.14.91-.38l5.25-5.25-1.81-1.81-4.35,4.35-13.88-13.88h0Z" class="R"/><path d="M516.35 136.53h0l-1.42-1.42c1.65-2.85 1.27-6.57-1.17-9.01l-4.07-4.07a7.47 7.47 0 0 0-10.55 0l-1.18 1.18a7.47 7.47 0 0 0 0 10.55l4.07 4.07c1.45 1.45 3.37 2.18 5.28 2.18 1.29 0 2.58-.34 3.74-1.01l1.42 1.42h0l1.44 1.43.37.37 2.13 2.13a2.74 2.74 0 1 0 3.9-3.9l-2.13-2.13-1.8-1.81-.03.02zm-13.04 0l-4.07-4.07a5.64 5.64 0 0 1 0-7.97l1.18-1.18c1.1-1.1 2.54-1.65 3.99-1.65s2.89.55 3.99 1.65l4.07 4.07c1.72 1.72 2.09 4.28 1.11 6.37l-1.42-1.41a3.91 3.91 0 0 0 .13-.97c0-1.02-.4-1.98-1.12-2.7l-4.07-4.07a3.82 3.82 0 0 0-5.4 0l-1.18 1.18a3.82 3.82 0 0 0 0 5.4l4.07 4.07c.74.74 1.72 1.12 2.7 1.12.33 0 .65-.05.97-.13l1.42 1.42c-2.09.97-4.65.61-6.37-1.11v-.02zm3.44-2.08a1.99 1.99 0 0 1-.86-.5l-4.07-4.07a1.99 1.99 0 0 1 0-2.82l1.18-1.18c.39-.39.9-.58 1.41-.58s1.02.19 1.41.58l4.07 4.07c.24.24.41.54.5.86a2.76 2.76 0 0 0-3.06.57 2.74 2.74 0 0 0-.81 1.95c0 .39.08.76.23 1.11h0zm12.24 7.3c.17.18.27.41.27.66s-.1.48-.27.66a.95.95 0 0 1-1.31 0l-9.06-9.06c-.17-.17-.27-.41-.27-.65s.1-.48.27-.66a.93.93 0 0 1 1.31 0l9.06 9.06h0zm9.95 15.25h0l1.42 1.42c-1.65 2.85-1.27 6.57 1.17 9.01l4.07 4.07a7.47 7.47 0 0 0 10.55 0l1.18-1.18a7.47 7.47 0 0 0 0-10.55l-4.07-4.07c-1.45-1.45-3.37-2.18-5.28-2.18-1.29 0-2.58.34-3.74 1.01l-1.42-1.42h0l-1.44-1.43-.37-.37-2.13-2.13a2.74 2.74 0 1 0-3.9 3.9l2.13 2.13 1.8 1.81.03-.02zm13.04 0l4.07 4.07a5.64 5.64 0 0 1 0 7.97l-1.18 1.18c-1.1 1.1-2.54 1.65-3.99 1.65s-2.89-.55-3.99-1.65l-4.07-4.07c-1.72-1.72-2.09-4.28-1.11-6.37l1.42 1.41a3.91 3.91 0 0 0-.13.97c0 1.02.4 1.98 1.12 2.7l4.07 4.07a3.82 3.82 0 0 0 5.4 0l1.18-1.18a3.82 3.82 0 0 0 0-5.4l-4.07-4.07c-.74-.74-1.72-1.12-2.7-1.12-.33 0-.65.05-.97.13l-1.42-1.42c2.09-.97 4.65-.61 6.37 1.11v.02zm-3.44 2.08a1.99 1.99 0 0 1 .86.5l4.07 4.07a1.99 1.99 0 0 1 0 2.82l-1.18 1.18c-.39.39-.9.58-1.41.58s-1.02-.19-1.41-.58l-4.07-4.07c-.24-.24-.41-.54-.5-.86a2.76 2.76 0 0 0 3.06-.57 2.74 2.74 0 0 0 .81-1.95c0-.39-.08-.76-.23-1.11h0zm-12.24-7.3c-.17-.18-.27-.41-.27-.66s.1-.48.27-.66a.95.95 0 0 1 1.31 0l9.06 9.06c.17.17.27.41.27.65s-.1.48-.27.66a.93.93 0 0 1-1.31 0l-9.06-9.06h0z" class="M"/><g class="R"><path d="M538.07 146.62l-4.35 4.35 1.81 1.81 5.25-5.26c.24-.24.38-.56.38-.9s-.14-.66-.38-.9l-15.69-15.69c-.24-.24-.57-.38-.91-.38s-.66.14-.91.38l-5.25 5.25 1.81 1.81 4.35-4.35 13.88 13.88h0zM675 193.92c-.46-.45-1.2-.43-1.65.03s-.43 1.2.03 1.65l7.61 7.33h-11.03v2.33h11.03l-7.61 7.33a1.15 1.15 0 0 0-.36.84c0 .31.11.58.33.81.45.46 1.19.48 1.65.03l9.69-9.33c.23-.22.36-.52.36-.84s-.13-.62-.36-.84l-9.69-9.33h0z"/><path d="M175 202.56h507v3.06H175z"/></g><path d="M175.38 221.6h89.22V312h67.41v-90.4h180.67V312h67.43v-90.4h89.27" fill="none" stroke-miterlimit="10" stroke="#790e70" stroke-width="5"/><ellipse class="H" cx="422.38" cy="314.55" rx="263.24" ry="6.94" fill="#19455e" opacity=".1" stroke="#19455e" stroke-width=".25"/><path d="M598.78 130.02v32.28h21.52v3.59h-7.17v3.59h21.52v-3.59h-7.17v-3.59H649v-32.28h-50.22zm3.59 3.59h43.05v25.11h-43.05v-25.11z" class="M"/><g class="R"><path d="M640.85,152.4l6.56,8.76c.6.8.43,1.93-.36,2.53l-.36.27c-.8.6-1.93.43-2.53-.36l-6.51-8.7"/><path d="M622.35 142.96c1.26-5.81 6.99-9.5 12.8-8.24s9.5 6.99 8.24 12.8-6.99 9.5-12.8 8.24-9.5-6.99-8.24-12.8zm8.99 10c4.25.92 8.44-1.77 9.36-6.02s-1.77-8.44-6.02-9.36-8.44 1.77-9.36 6.02 1.77 8.44 6.02 9.36z"/></g><text class="A M P Q S"><tspan x="378.86" y="93.67">SOCIAL GRAPH</tspan><tspan x="484.72" y="93.67">BLOCK CHAIN</tspan></text><g class="M"><path d="M598.39 73.76a3.57 3.57 0 0 1 1.38-1.4c.59-.33 1.26-.5 2.01-.5.92 0 1.7.24 2.35.73.65.48 1.09 1.14 1.31 1.98h-2.07a1.68 1.68 0 0 0-.65-.74 1.81 1.81 0 0 0-.96-.25c-.58 0-1.05.2-1.41.61-.36.4-.54.94-.54 1.62s.18 1.21.54 1.62c.36.4.83.61 1.41.61a1.81 1.81 0 0 0 .96-.25 1.68 1.68 0 0 0 .65-.74h2.07c-.22.84-.66 1.49-1.31 1.97s-1.44.72-2.35.72c-.75 0-1.42-.17-2.01-.5s-1.05-.8-1.38-1.39-.5-1.27-.5-2.04.17-1.44.5-2.04h0zm9.86 5.48a3.75 3.75 0 0 1-1.44-1.41c-.36-.61-.53-1.29-.53-2.04s.18-1.43.53-2.04c.36-.6.84-1.07 1.44-1.41s1.27-.51 2-.51a4.02 4.02 0 0 1 2 .51c.61.34 1.08.81 1.43 1.41s.52 1.28.52 2.04-.18 1.44-.53 2.04-.83 1.08-1.43 1.41c-.6.34-1.27.51-1.99.51s-1.39-.17-2-.51zm3.48-1.83c.37-.41.56-.95.56-1.63s-.19-1.23-.56-1.63c-.37-.41-.86-.61-1.48-.61s-1.12.2-1.49.61c-.37.4-.56.95-.56 1.64s.18 1.23.56 1.63c.37.41.87.61 1.49.61s1.11-.21 1.48-.62z"/><use href="#D"/><use href="#E"/><path d="M631.89,73.46v1.56h2.52v1.45h-2.52v1.69h2.85v1.51h-4.73v-7.72h4.73v1.51h-2.85Z"/><use href="#D" x="20.72"/><use href="#E" x="20.72"/><path d="M587.57 85.95l-2.01 7.72h-2.28l-1.23-5.08-1.28 5.08h-2.28l-1.96-7.72h2.01l1.11 5.62 1.38-5.62h2.07l1.32 5.62 1.12-5.62h2.03zm5.31 6.36H590l-.46 1.36h-1.97l2.79-7.72h2.18l2.79 7.72h-1.99l-.46-1.36h0zm-.48-1.45l-.96-2.83-.95 2.83h1.91zm8.9-4.91v1.51h-2.05v6.21h-1.88v-6.21h-2.05v-1.51h5.98z"/><use href="#F"/><path d="M616.43,85.95v7.72h-1.88v-3.18h-2.93v3.18h-1.88v-7.72h1.88v3.03h2.93v-3.03h1.88Z"/><use href="#G"/><path d="M626.79 93.67l-1.61-2.92h-.45v2.92h-1.88v-7.72h3.16c.61 0 1.13.11 1.56.32s.75.5.96.87a2.46 2.46 0 0 1 .32 1.24c0 .51-.14.97-.43 1.38-.29.4-.72.69-1.28.86l1.78 3.06h-2.13zm-2.06-4.25h1.17c.34 0 .6-.08.78-.25.17-.17.26-.41.26-.71s-.09-.52-.26-.69-.43-.25-.78-.25h-1.17v1.91h0zm8.03 4.05c-.45-.18-.8-.45-1.07-.81s-.41-.79-.42-1.3h2c.03.29.13.5.3.65s.39.23.66.23.5-.06.66-.19a.65.65 0 0 0 .24-.53.61.61 0 0 0-.19-.47c-.13-.12-.29-.23-.47-.31-.19-.08-.45-.17-.8-.28-.5-.15-.91-.31-1.22-.46a2.19 2.19 0 0 1-.81-.68c-.23-.3-.34-.69-.34-1.18 0-.72.26-1.28.78-1.69s1.2-.61 2.04-.61 1.54.2 2.06.61.8.97.84 1.7h-2.04c-.01-.25-.11-.45-.28-.59s-.38-.21-.65-.21c-.23 0-.41.06-.55.18s-.21.3-.21.52c0 .25.12.44.35.58s.6.29 1.1.45l1.22.48c.31.15.58.38.81.67s.34.67.34 1.13a2.13 2.13 0 0 1-.34 1.2c-.23.36-.55.65-.97.86-.43.21-.93.32-1.51.32s-1.07-.09-1.52-.28h0z"/><use href="#G" x="20.46"/><path d="M647.25 93.67l-1.61-2.92h-.45v2.92h-1.88v-7.72h3.16c.61 0 1.13.11 1.56.32s.75.5.96.87a2.46 2.46 0 0 1 .32 1.24c0 .51-.14.97-.43 1.38-.29.4-.72.69-1.28.86l1.78 3.06h-2.13zm-2.06-4.25h1.17c.34 0 .6-.08.78-.25.17-.17.26-.41.26-.71s-.09-.52-.26-.69-.43-.25-.78-.25h-1.17v1.91h0zm12.11-3.47l-2.74 7.72h-2.35l-2.74-7.72h2l1.91 5.83 1.93-5.83h1.99zm2.22 0v7.72h-1.88v-7.72h1.88z"/><use href="#F" x="58.64"/><use href="#G" x="51.04"/><text class="I P Q" font-size="28.9"><tspan x="77.34" y="214.14">WEB 2</tspan></text><text class="A P Q" font-size="28.9"><tspan x="688.85" y="214.14">WEB 3</tspan></text></g><g class="N O"><use href="#H"/><use href="#H" x="15.02"/><use href="#H" x="30.03"/><use href="#H" x="45.05"/><use href="#H" x="60.06"/><use href="#H" x="75.08"/><use href="#H" x="90.09"/></g><g class="N O"><use href="#I"/><use href="#I" y="15.02"/><use href="#I" y="30.03"/><use href="#I" y="45.05"/></g><g class="N O"><path d="M142.41 244.04h.19v61h-.19zm15.02 0h.19v61h-.19zm15.01 0h.19v61h-.19z"/></g><g class="N O"><use href="#J"/><use href="#J" y="15.02"/><use href="#J" y="30.04"/><use href="#J" y="45.05"/></g><g class="N O"><path d="M666.82 9.01h.19v61h-.19zm15.01 0h.19v61h-.19zm15.02 0h.19v61h-.19z"/></g><g class="N O"><use href="#J" x="524.41" y="-235.03"/><use href="#J" x="524.41" y="-220.02"/><use href="#J" x="524.41" y="-205"/><use href="#J" x="524.41" y="-189.98"/></g><g class="N O"><path d="M374.33 16.52h.19v61h-.19zm15.02 0h.19v61h-.19zm15.01 0h.19v61h-.19z"/></g><g class="N O"><use href="#K"/><use href="#K" y="15.02"/><use href="#K" y="30.04"/><use href="#K" y="45.05"/></g><defs ><path id="B" d="M334.54 140.68h-4.61a.92.92 0 1 0 0 1.84h4.61a.92.92 0 1 0 0-1.84z"/><path id="C" d="M231.17,137.1c1.29,0,2.33-1.04,2.33-2.33s-1.04-2.33-2.33-2.33-2.33,1.04-2.33,2.33,1.04,2.33,2.33,2.33Z"/><path id="D" d="M622.15,79.67h-1.88l-3.15-4.76v4.76h-1.88v-7.72h1.88l3.15,4.79v-4.79h1.88v7.72Z"/><path id="E" d="M629.07,71.95v1.51h-2.05v6.21h-1.88v-6.21h-2.05v-1.51h5.98Z"/><path id="F" d="M601.98,87.76c.33-.6.79-1.06,1.38-1.4.59-.33,1.26-.5,2.01-.5.92,0,1.7.24,2.35.73.65.48,1.09,1.14,1.31,1.98h-2.07c-.15-.32-.37-.57-.65-.74s-.6-.25-.96-.25c-.58,0-1.05.2-1.41.61-.36.4-.54.94-.54,1.62s.18,1.21.54,1.62c.36.4.83.61,1.41.61.36,0,.68-.08.96-.25s.5-.42.65-.74h2.07c-.22.84-.66,1.49-1.31,1.97s-1.44.72-2.35.72c-.75,0-1.42-.17-2.01-.5s-1.05-.8-1.38-1.39-.5-1.27-.5-2.04.17-1.44.5-2.04h0Z"/><path id="G" d="M619.23,87.46v1.56h2.52v1.45h-2.52v1.69h2.85v1.51h-4.73v-7.72h4.73v1.51h-2.85Z"/><path id="H" d="M401.11 295.06h.19v105.02h-.19z"/><path id="I" d="M400.98 310.35H502.1v.19H400.98z"/><path id="J" d="M130.98 252.78h52.36v.19h-52.36z"/><path id="K" d="M362.9 25.26h52.36v.19H362.9z"/></defs></svg>
