<svg viewBox="0 0 818 365" xmlns="http://www.w3.org/2000/svg"><text fill="#18465e" font-family="Poppins-Bold, Poppins" font-size="11" font-weight="700" transform="translate(180.34 93.67)"><tspan x="0" y="0">APPLICATIONS</tspan></text><text fill="#18465e" font-family="Poppins-Bold, Poppins" font-size="11" font-weight="700" transform="translate(292.2 93.67)"><tspan x="0" y="0">CONTENT</tspan></text><path d="m266.2 192.78h-90.87v-90.87h90.87zm-88.1-2.77h85.32v-85.32h-85.32z" fill="#19455e"/><path d="m467.2 192.78h-90.87v-90.87h90.87zm-88.1-2.77h85.32v-85.32h-85.32z" fill="#19455e"/><path d="m428.12 134.94c0-2.57-1.55-4.89-3.92-5.87s-5.11-.44-6.92 1.38c-1.82 1.82-2.36 4.55-1.38 6.92.98 2.38 3.3 3.92 5.87 3.92 3.51 0 6.35-2.85 6.35-6.35zm-9.93 0c0-1.45.87-2.75 2.21-3.31s2.88-.25 3.9.77 1.33 2.56.77 3.9c-.55 1.34-1.86 2.21-3.31 2.21-1.97 0-3.57-1.61-3.58-3.58z" fill="#f15a24"/><path d="m436.38 145.79c2.58.02 4.91-1.51 5.91-3.89 1-2.37.47-5.11-1.34-6.94s-4.55-2.38-6.93-1.4-3.93 3.3-3.93 5.88c0 3.49 2.81 6.32 6.3 6.35zm0-9.93c1.46-.02 2.77.83 3.35 2.17.57 1.34.28 2.88-.74 3.92s-2.56 1.35-3.91.8c-1.34-.55-2.22-1.86-2.22-3.31 0-1.95 1.57-3.54 3.52-3.58z" fill="#f15a24"/><path d="m413.44 139.43c0-2.57-1.55-4.89-3.92-5.87s-5.11-.44-6.92 1.38c-1.82 1.82-2.36 4.55-1.38 6.92s3.3 3.92 5.87 3.92c3.51 0 6.35-2.85 6.35-6.35zm-9.93 0c0-1.45.87-2.75 2.21-3.31 1.34-.55 2.87-.25 3.9.78 1.02 1.02 1.33 2.56.77 3.9-.55 1.34-1.86 2.21-3.31 2.21-1.95-.04-3.52-1.63-3.52-3.58h-.06z" fill="#f15a24"/><path d="m436.18 147.98c-1.66.03-3.28.45-4.74 1.22-.51-.94-1.16-1.8-1.93-2.55-2.44-2.42-5.89-3.55-9.29-3.05s-6.37 2.58-8.01 5.6c-1.63-.83-3.44-1.25-5.27-1.22-2.93.11-5.7 1.35-7.73 3.48-2.02 2.12-3.14 4.95-3.11 7.88v5.31c0 .77.62 1.39 1.39 1.39s1.39-.62 1.39-1.39v-5.31c-.07-4.59 3.53-8.39 8.12-8.59 1.46-.04 2.89.32 4.16 1.03-.27 1-.41 2.03-.41 3.06v7.47c0 2.06 1.67 3.73 3.73 3.73s3.73-1.67 3.73-3.73v-3.29c-.01-2.97-1.23-5.82-3.37-7.88l-.39-.36c1.18-2.36 3.42-4 6.02-4.41s5.24.46 7.09 2.33c.65.63 1.19 1.36 1.6 2.17-2.43 2.18-3.81 5.29-3.8 8.55v2.97c0 2.06 1.67 3.73 3.73 3.73s3.73-1.67 3.73-3.73v-7.85c0-.93-.11-1.87-.35-2.77 1.15-.65 2.45-1.01 3.77-1.04 2.22-.04 4.37.82 5.95 2.37 1.59 1.55 2.48 3.68 2.47 5.9v5.67c0 .77.62 1.39 1.39 1.39s1.39-.62 1.39-1.39v-5.63c0-2.97-1.19-5.81-3.31-7.9-2.11-2.09-4.97-3.24-7.94-3.2v.06zm-20.81 11.1v3.29c0 .53-.43.96-.96.96s-.96-.43-.96-.96v-8.56c1.24 1.46 1.94 3.3 1.96 5.22l-.04.06zm14.72 3.23c0 .53-.43.96-.96.96s-.96-.43-.96-.96v-2.97c0-1.97.66-3.89 1.89-5.44v.62l.03 7.78z" fill="#19455e"/><path d="m295.86 150.2h6.19v20.8h-6.19z" fill="none"/><path d="m324.75 139.3c0-1.59 1.29-2.88 2.88-2.88h4.03v-6.34c0-.95-.77-1.73-1.73-1.73h-13.25v1.73c0 1.59-1.29 2.88-2.88 2.88h-4.03v3.46h4.03c1.59 0 2.88 1.29 2.88 2.88v1.73h8.07z" fill="none"/><path d="m325.9 139.3v4.61c0 .95.77 1.73 1.73 1.73h9.22c.95 0 1.73-.77 1.73-1.73v-4.61c0-.95-.77-1.73-1.73-1.73h-9.22c-.95 0-1.73.77-1.73 1.73zm4.03 1.73h4.61c.32 0 .58.26.58.58s-.26.58-.58.58h-4.61c-.32 0-.58-.26-.58-.58s.26-.58.58-.58z" fill="none"/><path d="m313.8 137.57h-9.22c-.95 0-1.73.77-1.73 1.73v4.61c0 .95.77 1.73 1.73 1.73h9.22c.95 0 1.73-.77 1.73-1.73v-4.61c0-.95-.77-1.73-1.73-1.73zm-2.31 4.61h-4.61c-.32 0-.58-.26-.58-.58s.26-.58.58-.58h4.61c.32 0 .58.26.58.58s-.26.58-.58.58z" fill="none"/><path d="m315.52 130.07v-4.61c0-.95-.77-1.73-1.73-1.73h-9.22c-.95 0-1.73.77-1.73 1.73v4.61c0 .95.77 1.73 1.73 1.73h9.22c.95 0 1.73-.77 1.73-1.73zm-4.03-1.73h-4.61c-.32 0-.58-.26-.58-.58s.26-.58.58-.58h4.61c.32 0 .58.26.58.58s-.26.58-.58.58z" fill="none"/><path d="m334.54 140.68h-4.61c-.51 0-.92.41-.92.92s.41.92.92.92h4.61c.51 0 .92-.41.92-.92s-.41-.92-.92-.92z" fill="#19455e"/><path d="m311.49 140.68h-4.61c-.51 0-.92.41-.92.92s.41.92.92.92h4.61c.51 0 .92-.41.92-.92s-.41-.92-.92-.92z" fill="#19455e"/><path d="m311.49 126.85h-4.61c-.51 0-.92.41-.92.92s.41.92.92.92h4.61c.51 0 .92-.41.92-.92s-.41-.92-.92-.92z" fill="#19455e"/><path d="m336.85 136.07h-3.69v-5.99c0-1.78-1.45-3.23-3.23-3.23h-12.91v-1.38c0-1.78-1.45-3.23-3.23-3.23h-9.22c-1.78 0-3.23 1.45-3.23 3.23v4.61c0 1.78 1.45 3.23 3.23 3.23h3.69v2.76h-3.69c-1.78 0-3.23 1.45-3.23 3.23v4.61c0 1.78 1.45 3.23 3.23 3.23h9.22c1.78 0 3.23-1.45 3.23-3.23v-1.38h2.77l.08 10.85h1.9l-.13-10.85h2.76v1.38c0 1.78 1.45 3.23 3.23 3.23h9.22c1.78 0 3.23-1.45 3.23-3.23v-4.61c0-1.78-1.45-3.23-3.23-3.23zm-21.67 3.23v4.61c0 .76-.62 1.38-1.38 1.38h-9.22c-.76 0-1.38-.62-1.38-1.38v-4.61c0-.76.62-1.38 1.38-1.38h9.22c.76 0 1.38.62 1.38 1.38zm0-9.22c0 .76-.62 1.38-1.38 1.38h-9.22c-.76 0-1.38-.62-1.38-1.38v-4.61c0-.76.62-1.38 1.38-1.38h9.22c.76 0 1.38.62 1.38 1.38zm-1.38 5.99h-3.69v-2.76h3.69c1.78 0 3.23-1.45 3.23-3.23v-1.38h12.91c.76 0 1.38.62 1.38 1.38v5.99h-3.69c-1.78 0-3.23 1.45-3.23 3.23v1.38h-7.38v-1.38c0-1.78-1.45-3.23-3.23-3.23zm12.45 3.23c0-.76.62-1.38 1.38-1.38h9.22c.76 0 1.38.62 1.38 1.38v4.61c0 .76-.62 1.38-1.38 1.38h-9.22c-.76 0-1.38-.62-1.38-1.38z" fill="#f15a24"/><path d="m346.08 151.7c-2.01-1.92-5.08-2.26-7.47-.85l-8.35 4.96-.13-.24c-.8-1.46-2.33-2.37-3.99-2.37h-8.26c-.73 0-1.46-.19-2.1-.55l-5.28-2.99c-1.76-.99-3.9-1.08-5.72-.23l-1.05.49-.07-.31c-.24-1.04-1.15-1.76-2.21-1.76h-4.98c-1.25 0-2.28 1.02-2.28 2.28v19.58c0 1.25 1.02 2.28 2.28 2.28h4.98c1.25 0 2.28-1.02 2.28-2.28v-.55l2.49-1.11 12 3.98c.91.3 1.86.45 2.8.45 1.97 0 3.94-.63 5.52-1.83l19.32-14.71c.65-.49 1.04-1.24 1.09-2.05.04-.81-.27-1.6-.86-2.16zm-1.23 2.88-.22-.27-19.32 14.71c-1.81 1.38-4.29 1.8-6.46 1.08l-12.37-4.11c-.11-.04-.21-.05-.32-.05-.14 0-.28.03-.42.09l-2.01.9v-14.79l1.91-.89c1.24-.58 2.69-.52 3.88.15l5.28 2.99c.93.53 2 .82 3.09.82h8.26c1.4 0 2.53 1.14 2.53 2.53v1.19c0 .23-.19.42-.42.42h-11.84c-.55 0-1.01.45-1.01 1s.45 1.01 1.01 1.01h11.83c1.34 0 2.43-1.09 2.43-2.43v-1.02l8.96-5.33c1.61-.96 3.69-.73 5.05.57.17.16.25.38.23.61-.01.2-.12.41-.29.54l.22.27zm-43.14-4.73v20.11h-5.5v-20.11z" fill="#19455e"/><path d="m366 192.78h-90.87v-90.87h90.87zm-88.1-2.77h85.32v-85.32h-85.32z" fill="#19455e"/><path d="m669.2 192.78h-90.87v-90.87h90.87zm-88.1-2.77h85.32v-85.32h-85.32z" fill="#19455e"/><path d="m568 192.78h-90.87v-90.87h90.87zm-88.1-2.77h85.32v-85.32h-85.32z" fill="#19455e"/><path d="m231.17 137.1c1.29 0 2.33-1.04 2.33-2.33s-1.04-2.33-2.33-2.33-2.33 1.04-2.33 2.33 1.04 2.33 2.33 2.33z" fill="#f15a24"/><path d="m225.92 134.77c0 1.29-1.04 2.33-2.33 2.33s-2.33-1.04-2.33-2.33 1.04-2.33 2.33-2.33 2.33 1.04 2.33 2.33z" fill="#f15a24"/><path d="m238.75 137.1c1.29 0 2.33-1.04 2.33-2.33s-1.04-2.33-2.33-2.33-2.33 1.04-2.33 2.33 1.04 2.33 2.33 2.33z" fill="#f15a24"/><path d="m200.25 126.6c-2.9 0-5.25 2.35-5.25 5.25v31.5c0 2.9 2.35 5.25 5.25 5.25h42c2.9 0 5.25-2.35 5.25-5.25v-31.5c0-2.9-2.35-5.25-5.25-5.25zm-1.75 5.25c0-.97.78-1.75 1.75-1.75h42c.97 0 1.75.78 1.75 1.75v7.58h-45.5zm45.5 11.08v20.42c0 .97-.78 1.75-1.75 1.75h-42c-.97 0-1.75-.78-1.75-1.75v-20.42z" fill="#19455e" fill-rule="evenodd" stroke="#fff" stroke-miterlimit="10"/><path d="m508.26 148.23 4.35-4.35-1.81-1.81-5.25 5.26c-.24.24-.38.56-.38.9s.14.66.38.9l15.69 15.69c.24.24.57.38.91.38s.66-.14.91-.38l5.25-5.25-1.81-1.81-4.35 4.35-13.88-13.88z" fill="#f15a24"/><path d="m510.38 130.84c-.09-.32-.25-.62-.5-.86l-4.07-4.07c-.39-.39-.9-.58-1.41-.58s-1.02.19-1.41.58l-1.18 1.18c-.78.78-.78 2.04 0 2.82l4.07 4.07c.25.25.55.41.86.5-.15-.35-.23-.72-.23-1.11 0-.74.29-1.43.81-1.95.83-.83 2.05-1.01 3.06-.57z" fill="none"/><path d="m507.3 136.37c-.98 0-1.95-.37-2.7-1.12l-4.07-4.07c-1.49-1.49-1.49-3.91 0-5.4l1.18-1.18c1.49-1.49 3.91-1.49 5.4 0l4.07 4.07c.72.72 1.12 1.68 1.12 2.7 0 .33-.05.66-.13.97l1.42 1.41c.97-2.09.61-4.65-1.11-6.37l-4.07-4.07c-1.1-1.1-2.54-1.65-3.99-1.65s-2.89.55-3.99 1.65l-1.18 1.18c-2.2 2.2-2.2 5.78 0 7.97l4.07 4.07c1.72 1.72 4.28 2.09 6.37 1.11l-1.42-1.42c-.32.08-.64.13-.97.13z" fill="none"/><path d="m537.68 161.76c.36-.36.36-.95 0-1.31l-9.06-9.06c-.17-.17-.41-.27-.65-.27s-.48.1-.66.27c-.18.18-.27.41-.27.66s.1.48.27.66l9.06 9.06c.36.36.95.36 1.31 0z" fill="none"/><path d="m508.62 132.7c-.18.18-.27.41-.27.66s.1.48.27.65l9.06 9.06c.35.35.96.35 1.31 0 .18-.18.27-.41.27-.66s-.1-.48-.27-.66l-9.06-9.06c-.36-.36-.95-.36-1.31 0z" fill="none"/><path d="m547.05 161.98-4.07-4.07c-1.06-1.06-2.48-1.65-3.99-1.65-.84 0-1.65.19-2.39.53l1.42 1.42c.31-.08.64-.13.97-.13 1.02 0 1.98.4 2.7 1.12l4.07 4.07c1.49 1.49 1.49 3.91 0 5.4l-1.18 1.18c-.72.72-1.68 1.12-2.7 1.12s-1.98-.4-2.7-1.12l-4.07-4.07c-.99-.99-1.32-2.4-.99-3.67l-1.42-1.42c-.97 2.09-.61 4.65 1.11 6.37l4.07 4.07c2.2 2.2 5.77 2.2 7.97 0l1.18-1.18c1.06-1.06 1.65-2.48 1.65-3.99s-.59-2.92-1.65-3.99z" fill="none"/><path d="m537.03 163.86c-.38 0-.76-.08-1.11-.24.09.32.25.62.5.86l4.07 4.07c.38.37.87.58 1.41.58.53 0 1.03-.21 1.41-.58l1.18-1.18c.78-.78.78-2.04 0-2.82l-4.07-4.07c-.24-.24-.54-.41-.86-.5.44 1.01.26 2.23-.57 3.06-.54.54-1.24.8-1.95.8z" fill="none"/><path d="m516.35 136.53s-1.42-1.42-1.42-1.42c1.65-2.85 1.27-6.57-1.17-9.01l-4.07-4.07c-2.91-2.91-7.64-2.91-10.55 0l-1.18 1.18c-2.91 2.91-2.91 7.64 0 10.55l4.07 4.07c1.45 1.45 3.37 2.18 5.28 2.18 1.29 0 2.58-.34 3.74-1.01l1.42 1.42s1.44 1.43 1.44 1.43l.37.37 2.13 2.13c.52.52 1.21.81 1.95.81s1.43-.29 1.95-.81.81-1.21.81-1.95-.29-1.43-.81-1.95l-2.13-2.13-1.8-1.81zm-13.04 0-4.07-4.07c-2.2-2.2-2.2-5.77 0-7.97l1.18-1.18c1.1-1.1 2.54-1.65 3.99-1.65s2.89.55 3.99 1.65l4.07 4.07c1.72 1.72 2.09 4.28 1.11 6.37l-1.42-1.41c.08-.31.13-.64.13-.97 0-1.02-.4-1.98-1.12-2.7l-4.07-4.07c-1.49-1.49-3.91-1.49-5.4 0l-1.18 1.18c-1.49 1.49-1.49 3.91 0 5.4l4.07 4.07c.74.74 1.72 1.12 2.7 1.12.33 0 .65-.05.97-.13l1.42 1.42c-2.09.97-4.65.61-6.37-1.11zm3.44-2.08c-.31-.09-.61-.25-.86-.5l-4.07-4.07c-.78-.78-.78-2.04 0-2.82l1.18-1.18c.39-.39.9-.58 1.41-.58s1.02.19 1.41.58l4.07 4.07c.24.24.41.54.5.86-1.01-.44-2.23-.26-3.06.57-.52.52-.81 1.21-.81 1.95 0 .39.08.76.23 1.11zm12.24 7.3c.17.18.27.41.27.66s-.1.48-.27.66c-.35.35-.96.35-1.31 0l-9.06-9.06c-.17-.17-.27-.41-.27-.65s.1-.48.27-.66c.36-.36.95-.36 1.31 0l9.06 9.06z" fill="#19455e"/><path d="m537.03 163.86c-.38 0-.76-.08-1.11-.24.09.32.25.62.5.86l4.07 4.07c.38.37.87.58 1.41.58.53 0 1.03-.21 1.41-.58l1.18-1.18c.78-.78.78-2.04 0-2.82l-4.07-4.07c-.24-.24-.54-.41-.86-.5.44 1.01.26 2.23-.57 3.06-.54.54-1.24.8-1.95.8z" fill="none"/><path d="m537.68 161.76c.36-.36.36-.95 0-1.31l-9.06-9.06c-.17-.17-.41-.27-.65-.27s-.48.1-.66.27c-.18.18-.27.41-.27.66s.1.48.27.66l9.06 9.06c.36.36.95.36 1.31 0z" fill="none"/><path d="m547.05 161.98-4.07-4.07c-1.06-1.06-2.48-1.65-3.99-1.65-.84 0-1.65.19-2.39.53l1.42 1.42c.31-.08.64-.13.97-.13 1.02 0 1.98.4 2.7 1.12l4.07 4.07c1.49 1.49 1.49 3.91 0 5.4l-1.18 1.18c-.72.72-1.68 1.12-2.7 1.12s-1.98-.4-2.7-1.12l-4.07-4.07c-.99-.99-1.32-2.4-.99-3.67l-1.42-1.42c-.97 2.09-.61 4.65 1.11 6.37l4.07 4.07c2.2 2.2 5.77 2.2 7.97 0l1.18-1.18c1.06-1.06 1.65-2.48 1.65-3.99s-.59-2.92-1.65-3.99z" fill="none"/><path d="m548.34 160.69-4.07-4.07c-2.44-2.44-6.16-2.82-9.01-1.17l-1.42-1.42-3.93-3.93c-.52-.52-1.21-.81-1.95-.81s-1.43.29-1.95.81-.81 1.21-.81 1.95.29 1.43.81 1.95l2.13 2.13.41.41 1.4 1.4s1.42 1.42 1.42 1.42c-1.65 2.85-1.27 6.57 1.17 9.01l4.07 4.07c1.46 1.45 3.37 2.18 5.28 2.18s3.82-.73 5.28-2.18l1.18-1.18c1.41-1.41 2.18-3.28 2.18-5.28s-.78-3.87-2.18-5.28zm-21.03-7.99c-.17-.17-.27-.41-.27-.66s.1-.48.27-.66c.17-.17.41-.27.66-.27s.48.1.65.27l9.06 9.06c.36.36.36.95 0 1.31s-.95.36-1.31 0m3.17-1.77c.32.09.62.25.86.5l4.07 4.07c.78.78.78 2.04 0 2.82l-1.18 1.18c-.38.37-.88.58-1.41.58s-1.03-.21-1.41-.58l-4.07-4.07c-.25-.25-.41-.55-.5-.86.35.16.73.24 1.11.24.7 0 1.41-.27 1.95-.8.83-.83 1.01-2.05.57-3.06zm7.51 9.96-1.18 1.18c-2.2 2.2-5.77 2.2-7.97 0l-4.07-4.07c-1.72-1.72-2.09-4.28-1.11-6.37l1.42 1.42c-.33 1.27 0 2.68.99 3.67l4.07 4.07c.72.72 1.68 1.12 2.7 1.12s1.98-.4 2.7-1.12l1.18-1.18c1.49-1.49 1.49-3.91 0-5.4l-4.07-4.07c-.72-.72-1.68-1.12-2.7-1.12-.33 0-.66.05-.97.13l-1.42-1.42c.74-.34 1.55-.53 2.39-.53 1.51 0 2.92.59 3.99 1.65l4.07 4.07c1.06 1.06 1.65 2.48 1.65 3.99s-.59 2.92-1.65 3.99z" fill="#19455e"/><path d="m538.07 146.62-4.35 4.35 1.81 1.81 5.25-5.26c.24-.24.38-.56.38-.9s-.14-.66-.38-.9l-15.69-15.69c-.24-.24-.57-.38-.91-.38s-.66.14-.91.38l-5.25 5.25 1.81 1.81 4.35-4.35 13.88 13.88z" fill="#f15a24"/><path d="m675 193.92c-.46-.45-1.2-.43-1.65.03s-.43 1.2.03 1.65l7.61 7.33h-11.03v2.33h11.03l-7.61 7.33c-.24.23-.36.53-.36.84s.11.58.33.81c.45.46 1.19.48 1.65.03l9.69-9.33c.23-.22.36-.52.36-.84s-.13-.62-.36-.84l-9.69-9.33z" fill="#00b6af"/><path d="m175 202.56h507v3.06h-507z" fill="#00b6af"/><path d="m175.38 221.6h89.22v90.4h67.41v-90.4h180.67v90.4h67.43v-90.4h89.27" fill="none" stroke="#19455e" stroke-miterlimit="10" stroke-width="5"/><ellipse cx="422.38" cy="314.55" fill="#19455e" opacity=".1" rx="263.24" ry="6.94" stroke="#19455e" stroke-miterlimit="10" stroke-width=".25"/><path d="m598.78 130.02v32.28h21.52v3.59h-7.17v3.59h21.52v-3.59h-7.17v-3.59h21.52v-32.28zm3.59 3.59h43.05v25.11h-43.05z" fill="#19455e"/><path d="m640.85 152.4 6.56 8.76c.6.8.43 1.93-.36 2.53l-.36.27c-.8.6-1.93.43-2.53-.36l-6.51-8.7" fill="#f15a24"/><path d="m622.35 142.96c1.26-5.81 6.99-9.5 12.8-8.24s9.5 6.99 8.24 12.8-6.99 9.5-12.8 8.24-9.5-6.99-8.24-12.8zm8.99 10c4.25.92 8.44-1.77 9.36-6.02s-1.77-8.44-6.02-9.36-8.44 1.77-9.36 6.02 1.77 8.44 6.02 9.36z" fill="#f15a24"/><g fill="#18465e"><text font-family="Poppins-Bold, Poppins" font-size="11" font-weight="700" transform="translate(378.86 93.67)"><tspan x="0" y="0">SOCIAL GRAPH</tspan></text><text font-family="Poppins-Bold, Poppins" font-size="11" font-weight="700" transform="translate(484.72 93.67)"><tspan x="0" y="0">BLOCK CHAIN</tspan></text><path d="m598.39 73.76c.33-.6.79-1.06 1.38-1.4.59-.33 1.26-.5 2.01-.5.92 0 1.7.24 2.35.73.65.48 1.09 1.14 1.31 1.98h-2.07c-.15-.32-.37-.57-.65-.74s-.6-.25-.96-.25c-.58 0-1.05.2-1.41.61-.36.4-.54.94-.54 1.62s.18 1.21.54 1.62c.36.4.83.6 1.41.6.36 0 .68-.08.96-.25s.5-.41.65-.74h2.07c-.22.84-.66 1.49-1.31 1.97s-1.44.72-2.35.72c-.75 0-1.42-.17-2.01-.5s-1.05-.8-1.38-1.39-.5-1.27-.5-2.04.17-1.44.5-2.04z"/><path d="m608.25 79.24c-.61-.34-1.09-.81-1.44-1.41s-.53-1.29-.53-2.04.18-1.43.53-2.04c.36-.6.84-1.07 1.44-1.41s1.27-.51 2-.51 1.39.17 2 .51 1.08.81 1.43 1.41.52 1.28.52 2.04-.18 1.44-.53 2.04-.83 1.08-1.43 1.41c-.6.34-1.27.51-1.99.51s-1.39-.17-2-.51zm3.48-1.83c.37-.41.56-.95.56-1.63s-.19-1.23-.56-1.63c-.37-.41-.86-.61-1.48-.61s-1.12.2-1.49.6-.56.95-.56 1.64.18 1.23.56 1.63c.37.41.87.61 1.49.61s1.11-.21 1.48-.62z"/><path d="m622.15 79.67h-1.88l-3.15-4.76v4.76h-1.88v-7.72h1.88l3.15 4.79v-4.79h1.88z"/><path d="m629.07 71.95v1.51h-2.05v6.21h-1.88v-6.21h-2.05v-1.51h5.97z"/><path d="m631.89 73.46v1.56h2.52v1.45h-2.52v1.69h2.85v1.51h-4.73v-7.72h4.73v1.51z"/><path d="m642.87 79.67h-1.88l-3.15-4.76v4.76h-1.88v-7.72h1.88l3.15 4.79v-4.79h1.88z"/><path d="m649.79 71.95v1.51h-2.05v6.21h-1.88v-6.21h-2.05v-1.51h5.97z"/><path d="m587.57 85.95-2.01 7.72h-2.28l-1.23-5.08-1.28 5.08h-2.28l-1.96-7.72h2.01l1.11 5.62 1.38-5.62h2.07l1.32 5.62 1.12-5.62h2.02z"/><path d="m592.88 92.31h-2.88l-.46 1.36h-1.97l2.79-7.72h2.18l2.79 7.72h-1.99zm-.48-1.45-.96-2.83-.95 2.83h1.9z"/><path d="m601.3 85.95v1.51h-2.05v6.21h-1.88v-6.21h-2.05v-1.51h5.97z"/><path d="m601.98 87.76c.33-.6.79-1.06 1.38-1.4.59-.33 1.26-.5 2.01-.5.92 0 1.7.24 2.35.73.65.48 1.09 1.14 1.31 1.98h-2.07c-.15-.32-.37-.57-.65-.74s-.6-.25-.96-.25c-.58 0-1.05.2-1.41.61-.36.4-.54.94-.54 1.62s.18 1.21.54 1.62c.36.4.83.6 1.41.6.36 0 .68-.08.96-.25s.5-.41.65-.74h2.07c-.22.84-.66 1.49-1.31 1.97s-1.44.72-2.35.72c-.75 0-1.42-.17-2.01-.5s-1.05-.8-1.38-1.39-.5-1.27-.5-2.04.17-1.44.5-2.04z"/><path d="m616.43 85.95v7.72h-1.88v-3.18h-2.93v3.18h-1.88v-7.72h1.88v3.03h2.93v-3.03z"/><path d="m619.23 87.46v1.56h2.52v1.45h-2.52v1.69h2.85v1.51h-4.73v-7.72h4.73v1.51z"/><path d="m626.79 93.67-1.61-2.92h-.45v2.92h-1.88v-7.72h3.16c.61 0 1.13.11 1.56.32s.75.5.96.87.32.78.32 1.24c0 .51-.14.97-.43 1.38-.29.4-.72.69-1.28.86l1.78 3.06h-2.12zm-2.06-4.25h1.17c.34 0 .6-.08.78-.25.17-.17.26-.41.26-.71s-.09-.52-.26-.69-.43-.25-.78-.25h-1.17v1.91z"/><path d="m632.76 93.48c-.45-.18-.8-.45-1.07-.81s-.41-.79-.42-1.3h2c.03.29.13.5.3.65s.39.23.66.23.5-.06.66-.19.24-.31.24-.53c0-.19-.06-.35-.19-.47s-.29-.23-.47-.31c-.19-.08-.45-.17-.8-.27-.5-.15-.91-.31-1.22-.46-.32-.15-.59-.38-.81-.68-.23-.3-.34-.69-.34-1.18 0-.72.26-1.28.78-1.69s1.2-.61 2.04-.61 1.54.2 2.06.61.8.97.84 1.7h-2.04c-.01-.25-.11-.45-.28-.59s-.38-.21-.65-.21c-.23 0-.41.06-.55.18s-.21.3-.21.52c0 .25.12.44.35.58s.6.29 1.1.45c.5.17.9.33 1.22.48s.58.38.81.67.34.67.34 1.13-.11.84-.34 1.2c-.22.36-.55.65-.97.86s-.93.32-1.51.32-1.07-.09-1.52-.28z"/><path d="m639.69 87.46v1.56h2.52v1.45h-2.52v1.69h2.85v1.51h-4.73v-7.72h4.73v1.51z"/><path d="m647.25 93.67-1.61-2.92h-.45v2.92h-1.88v-7.72h3.16c.61 0 1.13.11 1.56.32s.75.5.96.87.32.78.32 1.24c0 .51-.14.97-.43 1.38-.29.4-.72.69-1.28.86l1.78 3.06h-2.12zm-2.06-4.25h1.17c.34 0 .6-.08.78-.25.17-.17.26-.41.26-.71s-.09-.52-.26-.69-.43-.25-.78-.25h-1.17v1.91z"/><path d="m657.3 85.95-2.74 7.72h-2.35l-2.74-7.72h2l1.91 5.83 1.93-5.83z"/><path d="m659.52 85.95v7.72h-1.88v-7.72z"/><path d="m660.62 87.76c.33-.6.79-1.06 1.38-1.4.59-.33 1.26-.5 2.01-.5.92 0 1.7.24 2.35.73.65.48 1.09 1.14 1.31 1.98h-2.07c-.15-.32-.37-.57-.65-.74s-.6-.25-.96-.25c-.58 0-1.05.2-1.41.61-.36.4-.54.94-.54 1.62s.18 1.21.54 1.62c.36.4.83.6 1.41.6.36 0 .68-.08.96-.25s.5-.41.65-.74h2.07c-.22.84-.66 1.49-1.31 1.97s-1.44.72-2.35.72c-.75 0-1.42-.17-2.01-.5s-1.05-.8-1.38-1.39-.5-1.27-.5-2.04.17-1.44.5-2.04z"/><path d="m670.27 87.46v1.56h2.52v1.45h-2.52v1.69h2.85v1.51h-4.73v-7.72h4.73v1.51z"/></g><text fill="#19455e" font-family="Poppins-Bold, Poppins" font-size="28.9" font-weight="700" transform="translate(77.34 214.14)"><tspan x="0" y="0">WEB 2</tspan></text><text fill="#19455e" font-family="Poppins-Bold, Poppins" font-size="28.9" font-weight="700" transform="translate(688.85 214.14)"><tspan x="0" y="0">WEB 3</tspan></text><g fill="#a7a9ac"><g opacity=".8"><path d="m401.11 295.06h.19v105.02h-.19z"/><path d="m416.13 295.06h.19v105.02h-.19z"/><path d="m431.14 295.06h.19v105.02h-.19z"/><path d="m446.16 295.06h.19v105.02h-.19z"/><path d="m461.17 295.06h.19v105.02h-.19z"/><path d="m476.19 295.06h.19v105.02h-.19z"/><path d="m491.2 295.06h.19v105.02h-.19z"/></g><g opacity=".8"><path d="m400.98 310.35h101.12v.19h-101.12z"/><path d="m400.98 325.37h101.12v.19h-101.12z"/><path d="m400.98 340.38h101.12v.19h-101.12z"/><path d="m400.98 355.4h101.12v.19h-101.12z"/></g><g opacity=".8"><path d="m142.41 244.04h.19v61h-.19z"/><path d="m157.43 244.04h.19v61h-.19z"/><path d="m172.44 244.04h.19v61h-.19z"/></g><g opacity=".8"><path d="m130.98 252.78h52.36v.19h-52.36z"/><path d="m130.98 267.8h52.36v.19h-52.36z"/><path d="m130.98 282.82h52.36v.19h-52.36z"/><path d="m130.98 297.83h52.36v.19h-52.36z"/></g><g opacity=".8"><path d="m666.82 9.01h.19v61h-.19z"/><path d="m681.83 9.01h.19v61h-.19z"/><path d="m696.85 9.01h.19v61h-.19z"/></g><g opacity=".8"><path d="m655.39 17.75h52.36v.19h-52.36z"/><path d="m655.39 32.76h52.36v.19h-52.36z"/><path d="m655.39 47.78h52.36v.19h-52.36z"/><path d="m655.39 62.8h52.36v.19h-52.36z"/></g><g opacity=".8"><path d="m374.33 16.52h.19v61h-.19z"/><path d="m389.35 16.52h.19v61h-.19z"/><path d="m404.36 16.52h.19v61h-.19z"/></g><g opacity=".8"><path d="m362.9 25.26h52.36v.19h-52.36z"/><path d="m362.9 40.28h52.36v.19h-52.36z"/><path d="m362.9 55.3h52.36v.19h-52.36z"/><path d="m362.9 70.31h52.36v.19h-52.36z"/></g></g></svg>