<svg xmlns="http://www.w3.org/2000/svg" id="svg73" fill="none" version="1.1" viewBox="0 0 1016 523">
  <path id="path1" fill="#242527" d="M870.94 181.061a1.5 1.5 0 0 0 2.12 0l9.55-9.546c.58-.586.58-1.536 0-2.122a1.5 1.5 0 0 0-2.12 0l-8.49 8.486-8.49-8.486a1.5 1.5 0 0 0-2.12 0 1.511 1.511 0 0 0 0 2.122zM553 55v1.5h309v-3H553Zm319 10h-1.5v115h3V65Zm-10-10v1.5c4.69 0 8.5 3.806 8.5 8.5h3c0-6.351-5.15-11.5-11.5-11.5z"/>
  <path id="path2" fill="#242527" d="M509.061 156.939a1.502 1.502 0 0 0-2.122 0l-9.546 9.546a1.502 1.502 0 0 0 0 2.122 1.502 1.502 0 0 0 2.122 0l8.485-8.486 8.485 8.486a1.502 1.502 0 0 0 2.122 0 1.502 1.502 0 0 0 0-2.122zM714 265v-1.5H518v3h196Zm-206-10h1.5v-97h-3v97zm10 10v-1.5a8.5 8.5 0 0 1-8.5-8.5h-3c0 6.351 5.149 11.5 11.5 11.5z"/>
  <path id="path3" fill="#242527" d="M177.939 250.061a1.502 1.502 0 0 1 0-2.122l9.546-9.546a1.502 1.502 0 0 1 2.122 0 1.502 1.502 0 0 1 0 2.122L181.121 249l8.486 8.485a1.502 1.502 0 0 1 0 2.122 1.502 1.502 0 0 1-2.122 0zM425 356h-1.5v-97h3v97zm-10-107v1.5H179v-3h236zm10 10h-1.5a8.5 8.5 0 0 0-8.5-8.5v-3c6.351 0 11.5 5.149 11.5 11.5z"/>
  <path id="path4" fill="#242527" d="M398.061 58.061a1.502 1.502 0 0 0 0-2.122l-9.546-9.546a1.502 1.502 0 0 0-2.122 0 1.502 1.502 0 0 0 0 2.122L394.879 57l-8.486 8.485a1.502 1.502 0 0 0 0 2.122 1.502 1.502 0 0 0 2.122 0zM76 182h1.5V67h-3v115ZM86 57v1.5h311v-3H86ZM76 67h1.5a8.5 8.5 0 0 1 8.5-8.5v-3c-6.351 0-11.5 5.149-11.5 11.5z"/>
  <path id="path5" fill="#242527" d="M398.061 496.939a1.502 1.502 0 0 1 0 2.122l-9.546 9.546a1.502 1.502 0 0 1-2.122 0 1.502 1.502 0 0 1 0-2.122l8.486-8.485-8.486-8.485a1.502 1.502 0 0 1 0-2.122 1.502 1.502 0 0 1 2.122 0zM82 414h1.5v74h-3v-74zm10 84v-1.5h305v3H92Zm-10-10h1.5a8.5 8.5 0 0 0 8.5 8.5v3c-6.351 0-11.5-5.149-11.5-11.5z"/>
  <path id="rect5" fill="#fff" d="M638 32h166v42H638z"/>
  <path id="path6" fill="#242527" d="M660.369 48.112c-.822 0-1.558-.133-2.208-.4-.651-.267-1.174-.661-1.568-1.184-.384-.523-.587-1.152-.608-1.888h2.912c.042.416.186.736.432.96.245.213.565.32.96.32.405 0 .725-.091.96-.272.234-.192.352-.453.352-.784a.906.906 0 0 0-.288-.688 2.147 2.147 0 0 0-.688-.448 10.447 10.447 0 0 0-1.152-.4c-.726-.224-1.318-.448-1.776-.672a3.277 3.277 0 0 1-1.184-.992c-.331-.437-.496-1.008-.496-1.712 0-1.045.378-1.861 1.136-2.448.757-.597 1.744-.896 2.96-.896 1.237 0 2.234.299 2.992.896.757.587 1.162 1.408 1.216 2.464h-2.96c-.022-.363-.155-.645-.4-.848-.246-.213-.56-.32-.945-.32-.33 0-.597.091-.799.272-.203.171-.304.421-.304.752 0 .363.17.645.511.848.342.203.875.421 1.601.656.725.245 1.312.48 1.76.704a3.35 3.35 0 0 1 1.184.976c.33.427.496.976.496 1.648 0 .64-.166 1.221-.496 1.744-.32.523-.79.939-1.408 1.248-.619.309-1.35.464-2.192.464zm8.515-7.776a2.975 2.975 0 0 1 1.104-1.008c.47-.256 1.019-.384 1.648-.384.736 0 1.403.187 2 .56.598.373 1.067.907 1.408 1.6.352.693.528 1.499.528 2.416 0 .917-.176 1.728-.528 2.432-.341.693-.81 1.232-1.408 1.616a3.699 3.699 0 0 1-2 .56c-.618 0-1.168-.128-1.648-.384a3.031 3.031 0 0 1-1.104-.992v5.504h-2.736V39.072h2.736zm3.904 3.184c0-.683-.192-1.216-.576-1.6a1.836 1.836 0 0 0-1.392-.592 1.87 1.87 0 0 0-1.392.592c-.373.395-.56.933-.56 1.616s.187 1.221.56 1.616a1.87 1.87 0 0 0 1.392.592 1.87 1.87 0 0 0 1.392-.592c.384-.405.576-.949.576-1.632zm12.636-.128c0 .256-.016.523-.048.8h-6.192c.042.555.218.981.528 1.28.32.288.709.432 1.168.432.682 0 1.157-.288 1.424-.864h2.912a3.957 3.957 0 0 1-.816 1.584c-.384.469-.87.837-1.456 1.104-.587.267-1.243.4-1.968.4-.875 0-1.654-.187-2.336-.56a3.981 3.981 0 0 1-1.6-1.6c-.384-.693-.576-1.504-.576-2.432 0-.928.186-1.739.56-2.432a3.981 3.981 0 0 1 1.6-1.6c.682-.373 1.466-.56 2.352-.56.864 0 1.632.181 2.304.544a3.86 3.86 0 0 1 1.568 1.552c.384.672.576 1.456.576 2.352zm-2.8-.72c0-.469-.16-.843-.48-1.12-.32-.277-.72-.416-1.2-.416-.459 0-.848.133-1.168.4-.31.267-.502.645-.576 1.136zm9.683-3.696c1.045 0 1.877.341 2.496 1.024.629.672.944 1.6.944 2.784V48h-2.72v-4.848c0-.597-.155-1.061-.464-1.392-.309-.331-.725-.496-1.248-.496s-.939.165-1.248.496c-.309.331-.464.795-.464 1.392V48h-2.736v-8.928h2.736v1.184a2.821 2.821 0 0 1 1.12-.928 3.487 3.487 0 0 1 1.584-.352zm4.797 4.544c0-.917.171-1.723.512-2.416.352-.693.827-1.227 1.424-1.6a3.701 3.701 0 0 1 2-.56c.587 0 1.12.123 1.6.368a2.91 2.91 0 0 1 1.152.992V36.16h2.736V48h-2.736v-1.28a2.772 2.772 0 0 1-1.104 1.024c-.469.256-1.018.384-1.648.384a3.701 3.701 0 0 1-2-.56c-.597-.384-1.072-.923-1.424-1.616-.341-.704-.512-1.515-.512-2.432zm6.688.016c0-.683-.192-1.221-.576-1.616a1.818 1.818 0 0 0-1.376-.592 1.87 1.87 0 0 0-1.392.592c-.373.384-.56.917-.56 1.6s.187 1.227.56 1.632a1.87 1.87 0 0 0 1.392.592c.544 0 1.003-.197 1.376-.592.384-.395.576-.933.576-1.616zm7.638-1.168c0-1.109.24-2.096.72-2.96a5.112 5.112 0 0 1 2-2.032c.87-.491 1.84-.736 2.93-.736 1.34 0 2.48.352 3.43 1.056.95.704 1.58 1.664 1.9 2.88h-3.01a2.368 2.368 0 0 0-.96-1.072c-.4-.245-.87-.368-1.39-.368-.84 0-1.53.293-2.05.88-.52.587-.78 1.371-.78 2.352 0 .981.26 1.765.78 2.352s1.21.88 2.05.88c.52 0 .99-.123 1.39-.368.42-.245.74-.603.96-1.072h3.01c-.32 1.216-.95 2.176-1.9 2.88-.95.693-2.09 1.04-3.43 1.04-1.09 0-2.06-.24-2.93-.72a5.256 5.256 0 0 1-2-2.032c-.48-.864-.72-1.851-.72-2.96zm12.11 1.152c0-.917.17-1.723.51-2.416.36-.693.83-1.227 1.43-1.6s1.26-.56 2-.56c.63 0 1.18.128 1.65.384.48.256.84.592 1.1 1.008v-1.264h2.74V48h-2.74v-1.264c-.27.416-.64.752-1.12 1.008-.47.256-1.02.384-1.65.384-.72 0-1.38-.187-1.98-.56-.6-.384-1.07-.923-1.43-1.616-.34-.704-.51-1.515-.51-2.432zm6.69.016c0-.683-.19-1.221-.58-1.616a1.807 1.807 0 0 0-1.37-.592c-.55 0-1.01.197-1.39.592-.38.384-.56.917-.56 1.6s.18 1.227.56 1.632c.38.395.84.592 1.39.592.54 0 1-.197 1.37-.592.39-.395.58-.933.58-1.616zm7.45-3.2a3.01 3.01 0 0 1 1.11-1.008c.46-.256 1.01-.384 1.64-.384.74 0 1.41.187 2 .56.6.373 1.07.907 1.41 1.6.35.693.53 1.499.53 2.416 0 .917-.18 1.728-.53 2.432-.34.693-.81 1.232-1.41 1.616-.59.373-1.26.56-2 .56-.62 0-1.16-.128-1.64-.384a3.067 3.067 0 0 1-1.11-.992v5.504h-2.73V39.072h2.73zm3.91 3.184c0-.683-.2-1.216-.58-1.6a1.835 1.835 0 0 0-1.39-.592c-.55 0-1.01.197-1.39.592-.38.395-.56.933-.56 1.616s.18 1.221.56 1.616c.38.395.84.592 1.39.592.54 0 1.01-.197 1.39-.592.38-.405.58-.949.58-1.632zm3.67 0c0-.917.17-1.723.51-2.416.35-.693.83-1.227 1.43-1.6.59-.373 1.26-.56 2-.56.63 0 1.18.128 1.64.384.48.256.85.592 1.11 1.008v-1.264h2.73V48h-2.73v-1.264c-.27.416-.64.752-1.12 1.008-.47.256-1.02.384-1.65.384-.72 0-1.39-.187-1.98-.56-.6-.384-1.08-.923-1.43-1.616-.34-.704-.51-1.515-.51-2.432zm6.69.016c0-.683-.19-1.221-.58-1.616a1.807 1.807 0 0 0-1.37-.592c-.55 0-1.01.197-1.4.592-.37.384-.56.917-.56 1.6s.19 1.227.56 1.632c.39.395.85.592 1.4.592.54 0 1-.197 1.37-.592.39-.395.58-.933.58-1.616zm4.17 0c0-.928.19-1.739.56-2.432a3.99 3.99 0 0 1 1.58-1.6c.69-.373 1.47-.56 2.34-.56 1.12 0 2.05.293 2.8.88.76.587 1.25 1.413 1.49 2.48h-2.91c-.25-.683-.72-1.024-1.43-1.024-.5 0-.9.197-1.2.592-.3.384-.45.939-.45 1.664s.15 1.285.45 1.68c.3.384.7.576 1.2.576.71 0 1.18-.341 1.43-1.024h2.91c-.24 1.045-.73 1.867-1.49 2.464s-1.69.896-2.8.896c-.87 0-1.65-.187-2.34-.56a3.99 3.99 0 0 1-1.58-1.6c-.37-.693-.56-1.504-.56-2.432zm11.61-5.392c-.48 0-.88-.139-1.19-.416-.3-.288-.44-.64-.44-1.056 0-.427.14-.779.44-1.056.31-.288.71-.432 1.19-.432.47 0 .85.144 1.15.432.31.277.46.629.46 1.056 0 .416-.15.768-.46 1.056-.3.277-.68.416-1.15.416zm1.36.928V48h-2.74v-8.928zm6.96 6.608V48h-1.4c-.99 0-1.76-.24-2.32-.72-.55-.491-.83-1.285-.83-2.384v-3.552h-1.09v-2.272h1.09v-2.176h2.74v2.176h1.79v2.272h-1.79v3.584c0 .267.06.459.19.576.13.117.34.176.64.176zm10.64-6.608-5.6 13.168h-2.94l2.04-4.544-3.63-8.624h3.06l2.06 5.584 2.05-5.584zM652.781 73.344c-1.034-.992-1.84-2.272-2.416-3.84-.576-1.568-.864-3.259-.864-5.072 0-1.835.299-3.547.896-5.136.598-1.6 1.446-2.901 2.544-3.904h2.688v.256c-1.12 1.109-1.984 2.443-2.592 4a12.966 12.966 0 0 0-.912 4.784c0 1.632.294 3.205.88 4.72.587 1.515 1.414 2.827 2.48 3.936v.256zm8.425-10h-1.472V70h-2.736v-6.656h-.992v-2.272h.992v-.256c0-1.099.315-1.931.944-2.496.63-.576 1.552-.864 2.768-.864.203 0 .352.005.448.016v2.32c-.522-.032-.89.043-1.104.224-.213.181-.32.507-.32.976v.08h1.472zm5.35 6.784c-.875 0-1.664-.187-2.368-.56a4.168 4.168 0 0 1-1.648-1.6c-.395-.693-.592-1.504-.592-2.432 0-.917.203-1.723.608-2.416a4.107 4.107 0 0 1 1.664-1.616c.704-.373 1.493-.56 2.368-.56.875 0 1.664.187 2.368.56a4.107 4.107 0 0 1 1.664 1.616c.405.693.608 1.499.608 2.416 0 .917-.208 1.728-.624 2.432a4.11 4.11 0 0 1-1.68 1.6c-.704.373-1.493.56-2.368.56zm0-2.368c.523 0 .965-.192 1.328-.576.373-.384.56-.933.56-1.648 0-.715-.181-1.264-.544-1.648a1.707 1.707 0 0 0-1.312-.576c-.533 0-.976.192-1.328.576-.352.373-.528.923-.528 1.648 0 .715.171 1.264.512 1.648.352.384.789.576 1.312.576zm8.86-5.2c.32-.491.72-.875 1.2-1.152a3.05 3.05 0 0 1 1.6-.432v2.896h-.752c-.683 0-1.195.149-1.536.448-.342.288-.512.8-.512 1.536V70h-2.736v-8.928h2.736zm10.186-3.792v6.72c0 .672.165 1.189.496 1.552.331.363.816.544 1.456.544s1.131-.181 1.472-.544c.341-.363.512-.88.512-1.552v-6.72h2.736v6.704c0 1.003-.213 1.851-.64 2.544a4.093 4.093 0 0 1-1.728 1.568c-.715.352-1.515.528-2.4.528s-1.68-.171-2.384-.512a3.954 3.954 0 0 1-1.648-1.568c-.405-.704-.608-1.557-.608-2.56v-6.704zm12.225 11.36c-.779 0-1.472-.133-2.08-.4-.608-.267-1.088-.629-1.44-1.088a2.926 2.926 0 0 1-.592-1.568h2.704c.032.309.176.56.432.752.256.192.571.288.944.288.341 0 .603-.064.784-.192.192-.139.288-.315.288-.528 0-.256-.133-.443-.4-.56-.267-.128-.699-.267-1.296-.416a13.14 13.14 0 0 1-1.6-.464 2.871 2.871 0 0 1-1.104-.784c-.309-.363-.464-.848-.464-1.456 0-.512.139-.976.416-1.392.288-.427.704-.763 1.248-1.008.555-.245 1.211-.368 1.968-.368 1.12 0 2 .277 2.64.832.651.555 1.024 1.291 1.12 2.208h-2.528a1.078 1.078 0 0 0-.416-.736c-.224-.181-.523-.272-.896-.272-.32 0-.565.064-.736.192a.567.567 0 0 0-.256.496c0 .256.133.448.4.576.277.128.704.256 1.28.384.661.171 1.2.341 1.616.512.416.16.779.427 1.088.8.32.363.485.853.496 1.472 0 .523-.149.992-.448 1.408-.288.405-.709.725-1.264.96-.544.235-1.179.352-1.904.352zm13.703-4.736c0 .256-.01.523-.04.8h-6.197c.043.555.219.981.528 1.28.32.288.709.432 1.168.432.683 0 1.157-.288 1.424-.864h2.917a4.016 4.016 0 0 1-.82 1.584c-.38.469-.87.837-1.457 1.104-.587.267-1.243.4-1.968.4-.875 0-1.653-.187-2.336-.56a3.981 3.981 0 0 1-1.6-1.6c-.384-.693-.576-1.504-.576-2.432 0-.928.187-1.739.56-2.432a3.981 3.981 0 0 1 1.6-1.6c.683-.373 1.467-.56 2.352-.56.864 0 1.632.181 2.304.544a3.91 3.91 0 0 1 1.571 1.552c.38.672.57 1.456.57 2.352zm-2.797-.72c0-.469-.16-.843-.48-1.12-.32-.277-.72-.416-1.2-.416-.459 0-.848.133-1.168.4-.309.267-.501.645-.576 1.136zm6.977-2.112c.32-.491.72-.875 1.2-1.152a3.067 3.067 0 0 1 1.6-.432v2.896h-.75c-.68 0-1.19.149-1.54.448-.34.288-.51.8-.51 1.536V70h-2.73v-8.928h2.73zm14.49 5.456h-4.19L725.34 70h-2.87l4.07-11.232h3.17L733.77 70h-2.9zm-.7-2.112-1.39-4.112-1.38 4.112zm4.96-.368c0-.928.19-1.739.56-2.432.39-.693.92-1.227 1.59-1.6.68-.373 1.46-.56 2.33-.56 1.12 0 2.06.293 2.8.88.76.587 1.26 1.413 1.49 2.48h-2.91c-.25-.683-.72-1.024-1.42-1.024-.51 0-.91.197-1.2.592-.3.384-.45.939-.45 1.664s.15 1.285.45 1.68c.29.384.69.576 1.2.576.7 0 1.17-.341 1.42-1.024h2.91c-.23 1.045-.73 1.867-1.49 2.464-.75.597-1.69.896-2.8.896-.87 0-1.65-.187-2.33-.56a4.078 4.078 0 0 1-1.59-1.6c-.37-.693-.56-1.504-.56-2.432zm15.21 2.144V70h-1.39c-.99 0-1.77-.24-2.32-.72-.56-.491-.83-1.285-.83-2.384v-3.552h-1.09v-2.272h1.09v-2.176h2.73v2.176h1.8v2.272h-1.8v3.584c0 .267.07.459.2.576.12.117.34.176.64.176zm2.9-7.536c-.48 0-.87-.139-1.18-.416-.3-.288-.45-.64-.45-1.056 0-.427.15-.779.45-1.056.31-.288.7-.432 1.18-.432.47 0 .85.144 1.15.432.31.277.47.629.47 1.056 0 .416-.16.768-.47 1.056-.3.277-.68.416-1.15.416zm1.36.928V70h-2.73v-8.928zm6 6.368 1.94-6.368h2.91L761.61 70h-3.38l-3.16-8.928h2.92zm7.38-7.296c-.48 0-.88-.139-1.19-.416-.3-.288-.45-.64-.45-1.056 0-.427.15-.779.45-1.056.31-.288.71-.432 1.19-.432.46 0 .85.144 1.15.432.31.277.46.629.46 1.056 0 .416-.15.768-.46 1.056-.3.277-.69.416-1.15.416zm1.36.928V70h-2.74v-8.928zm6.95 6.608V70h-1.39c-.99 0-1.76-.24-2.32-.72-.55-.491-.83-1.285-.83-2.384v-3.552h-1.09v-2.272h1.09v-2.176h2.74v2.176h1.79v2.272h-1.79v3.584c0 .267.06.459.19.576.13.117.34.176.64.176zm10.65-6.608-5.6 13.168h-2.95l2.05-4.544-3.63-8.624h3.06l2.06 5.584 2.05-5.584zm.25 12.272v-.256c1.07-1.109 1.89-2.421 2.48-3.936.59-1.515.88-3.088.88-4.72 0-1.643-.3-3.237-.91-4.784-.61-1.557-1.47-2.891-2.59-4v-.256h2.69c1.09 1.003 1.94 2.304 2.54 3.904.6 1.589.9 3.301.9 5.136 0 1.813-.29 3.504-.87 5.072-.57 1.568-1.38 2.848-2.41 3.84z"/>
  <path id="rect6" fill="#fff" d="M534 232h141v64H534z"/>
  <path id="path7" fill="#242527" d="m566.9 248-2.336-4.24h-.656V248h-2.736v-11.232h4.592c.885 0 1.637.155 2.256.464.629.309 1.098.736 1.408 1.28a3.51 3.51 0 0 1 .464 1.792 3.32 3.32 0 0 1-.64 2c-.416.587-1.035 1.003-1.856 1.248l2.592 4.448zm-2.992-6.176h1.696c.501 0 .874-.123 1.12-.368.256-.245.384-.592.384-1.04 0-.427-.128-.763-.384-1.008-.246-.245-.619-.368-1.12-.368h-1.696zm16.117 1.568c0 .256-.016.523-.048.8h-6.192c.043.555.219.981.528 1.28.32.288.71.432 1.168.432.683 0 1.158-.288 1.424-.864h2.912a3.932 3.932 0 0 1-.816 1.584 3.976 3.976 0 0 1-1.456 1.104c-.586.267-1.242.4-1.968.4-.874 0-1.653-.187-2.336-.56a3.987 3.987 0 0 1-1.6-1.6c-.384-.693-.576-1.504-.576-2.432 0-.928.187-1.739.56-2.432a3.987 3.987 0 0 1 1.6-1.6c.683-.373 1.467-.56 2.352-.56.864 0 1.632.181 2.304.544.672.363 1.195.88 1.568 1.552.384.672.576 1.456.576 2.352zm-2.8-.72c0-.469-.16-.843-.48-1.12-.32-.277-.72-.416-1.2-.416-.458 0-.848.133-1.168.4-.309.267-.501.645-.576 1.136zm3.7.848c0-.917.17-1.723.512-2.416.352-.693.826-1.227 1.424-1.6a3.699 3.699 0 0 1 2-.56c.629 0 1.178.128 1.648.384.48.256.848.592 1.104 1.008v-1.264h2.736V248h-2.736v-1.264c-.267.416-.64.752-1.12 1.008-.47.256-1.019.384-1.648.384a3.669 3.669 0 0 1-1.984-.56c-.598-.384-1.072-.923-1.424-1.616-.342-.704-.512-1.515-.512-2.432zm6.688.016c0-.683-.192-1.221-.576-1.616a1.82 1.82 0 0 0-1.376-.592 1.87 1.87 0 0 0-1.392.592c-.374.384-.56.917-.56 1.6s.186 1.227.56 1.632a1.87 1.87 0 0 0 1.392.592 1.82 1.82 0 0 0 1.376-.592c.384-.395.576-.933.576-1.616zm4.171-.016c0-.917.171-1.723.512-2.416.352-.693.827-1.227 1.424-1.6a3.699 3.699 0 0 1 2-.56c.587 0 1.12.123 1.6.368a2.91 2.91 0 0 1 1.152.992v-4.144h2.736V248h-2.736v-1.28a2.772 2.772 0 0 1-1.104 1.024c-.469.256-1.019.384-1.648.384a3.699 3.699 0 0 1-2-.56c-.597-.384-1.072-.923-1.424-1.616-.341-.704-.512-1.515-.512-2.432zm6.688.016c0-.683-.192-1.221-.576-1.616a1.818 1.818 0 0 0-1.376-.592 1.87 1.87 0 0 0-1.392.592c-.373.384-.56.917-.56 1.6s.187 1.227.56 1.632a1.87 1.87 0 0 0 1.392.592c.544 0 1.003-.197 1.376-.592.384-.395.576-.933.576-1.616zm12.314-6.768c1.184 0 2.219.235 3.104.704a4.965 4.965 0 0 1 2.048 1.984c.491.843.736 1.819.736 2.928 0 1.099-.245 2.075-.736 2.928a4.94 4.94 0 0 1-2.064 1.984c-.885.469-1.915.704-3.088.704h-4.208v-11.232zm-.176 8.864c1.035 0 1.84-.283 2.416-.848.576-.565.864-1.365.864-2.4s-.288-1.84-.864-2.416c-.576-.576-1.381-.864-2.416-.864h-1.296v6.528zm7.049-2.112c0-.917.171-1.723.512-2.416.352-.693.827-1.227 1.424-1.6a3.699 3.699 0 0 1 2-.56c.629 0 1.179.128 1.648.384.48.256.848.592 1.104 1.008v-1.264h2.736V248h-2.736v-1.264c-.267.416-.64.752-1.12 1.008-.469.256-1.019.384-1.648.384a3.671 3.671 0 0 1-1.984-.56c-.597-.384-1.072-.923-1.424-1.616-.341-.704-.512-1.515-.512-2.432zm6.688.016c0-.683-.192-1.221-.576-1.616a1.818 1.818 0 0 0-1.376-.592 1.87 1.87 0 0 0-1.392.592c-.373.384-.56.917-.56 1.6s.187 1.227.56 1.632a1.87 1.87 0 0 0 1.392.592c.544 0 1.003-.197 1.376-.592.384-.395.576-.933.576-1.616zm9.691 2.144V248h-1.392c-.992 0-1.765-.24-2.32-.72-.554-.491-.832-1.285-.832-2.384v-3.552h-1.088v-2.272h1.088v-2.176h2.736v2.176h1.792v2.272h-1.792v3.584c0 .267.064.459.192.576.128.117.342.176.64.176zm.98-2.16c0-.917.171-1.723.512-2.416.352-.693.827-1.227 1.424-1.6a3.701 3.701 0 0 1 2-.56c.63 0 1.179.128 1.648.384.48.256.848.592 1.104 1.008v-1.264h2.736V248h-2.736v-1.264c-.266.416-.64.752-1.12 1.008-.469.256-1.018.384-1.648.384a3.674 3.674 0 0 1-1.984-.56c-.597-.384-1.072-.923-1.424-1.616-.341-.704-.512-1.515-.512-2.432zm6.688.016c0-.683-.192-1.221-.576-1.616a1.818 1.818 0 0 0-1.376-.592 1.87 1.87 0 0 0-1.392.592c-.373.384-.56.917-.56 1.6s.187 1.227.56 1.632a1.87 1.87 0 0 0 1.392.592c.544 0 1.003-.197 1.376-.592.384-.395.576-.933.576-1.616zm-69.589 29.808c-1.034-.992-1.84-2.272-2.416-3.84-.576-1.568-.864-3.259-.864-5.072 0-1.835.299-3.547.896-5.136.598-1.6 1.446-2.901 2.544-3.904h2.688v.256c-1.12 1.109-1.984 2.443-2.592 4a12.966 12.966 0 0 0-.912 4.784c0 1.632.294 3.205.88 4.72.587 1.515 1.414 2.827 2.48 3.936v.256zm8.425-10h-1.472V270h-2.736v-6.656h-.992v-2.272h.992v-.256c0-1.099.315-1.931.944-2.496.63-.576 1.552-.864 2.768-.864.203 0 .352.005.448.016v2.32c-.522-.032-.89.043-1.104.224-.213.181-.32.507-.32.976v.08h1.472zm5.35 6.784c-.875 0-1.664-.187-2.368-.56a4.168 4.168 0 0 1-1.648-1.6c-.395-.693-.592-1.504-.592-2.432 0-.917.203-1.723.608-2.416a4.107 4.107 0 0 1 1.664-1.616c.704-.373 1.493-.56 2.368-.56.875 0 1.664.187 2.368.56a4.107 4.107 0 0 1 1.664 1.616c.405.693.608 1.499.608 2.416 0 .917-.208 1.728-.624 2.432a4.11 4.11 0 0 1-1.68 1.6c-.704.373-1.493.56-2.368.56zm0-2.368c.523 0 .965-.192 1.328-.576.373-.384.56-.933.56-1.648 0-.715-.181-1.264-.544-1.648a1.707 1.707 0 0 0-1.312-.576c-.533 0-.976.192-1.328.576-.352.373-.528.923-.528 1.648 0 .715.171 1.264.512 1.648.352.384.789.576 1.312.576zm8.859-5.2c.32-.491.72-.875 1.2-1.152a3.052 3.052 0 0 1 1.6-.432v2.896h-.752c-.682 0-1.194.149-1.536.448-.341.288-.512.8-.512 1.536V270h-2.736v-8.928h2.736zm10.187-3.792v6.72c0 .672.165 1.189.496 1.552.33.363.816.544 1.456.544s1.13-.181 1.472-.544c.341-.363.512-.88.512-1.552v-6.72h2.736v6.704c0 1.003-.214 1.851-.64 2.544a4.093 4.093 0 0 1-1.728 1.568c-.715.352-1.515.528-2.4.528-.886 0-1.68-.171-2.384-.512a3.949 3.949 0 0 1-1.648-1.568c-.406-.704-.608-1.557-.608-2.56v-6.704zm12.225 11.36c-.779 0-1.472-.133-2.08-.4-.608-.267-1.088-.629-1.44-1.088a2.926 2.926 0 0 1-.592-1.568h2.704c.032.309.176.56.432.752.256.192.571.288.944.288.341 0 .603-.064.784-.192.192-.139.288-.315.288-.528 0-.256-.133-.443-.4-.56-.267-.128-.699-.267-1.296-.416a13.14 13.14 0 0 1-1.6-.464 2.871 2.871 0 0 1-1.104-.784c-.309-.363-.464-.848-.464-1.456 0-.512.139-.976.416-1.392.288-.427.704-.763 1.248-1.008.555-.245 1.211-.368 1.968-.368 1.12 0 2 .277 2.64.832.651.555 1.024 1.291 1.12 2.208h-2.528a1.078 1.078 0 0 0-.416-.736c-.224-.181-.523-.272-.896-.272-.32 0-.565.064-.736.192a.567.567 0 0 0-.256.496c0 .256.133.448.4.576.277.128.704.256 1.28.384.661.171 1.2.341 1.616.512.416.16.779.427 1.088.8.32.363.485.853.496 1.472 0 .523-.149.992-.448 1.408-.288.405-.709.725-1.264.96-.544.235-1.179.352-1.904.352zm13.706-4.736c0 .256-.016.523-.048.8h-6.192c.043.555.219.981.528 1.28.32.288.709.432 1.168.432.683 0 1.157-.288 1.424-.864h2.912a3.932 3.932 0 0 1-.816 1.584 3.976 3.976 0 0 1-1.456 1.104c-.587.267-1.243.4-1.968.4-.875 0-1.653-.187-2.336-.56a3.981 3.981 0 0 1-1.6-1.6c-.384-.693-.576-1.504-.576-2.432 0-.928.187-1.739.56-2.432a3.981 3.981 0 0 1 1.6-1.6c.683-.373 1.467-.56 2.352-.56.864 0 1.632.181 2.304.544.672.363 1.195.88 1.568 1.552.384.672.576 1.456.576 2.352zm-2.8-.72c0-.469-.16-.843-.48-1.12-.32-.277-.72-.416-1.2-.416-.459 0-.848.133-1.168.4-.309.267-.501.645-.576 1.136zm6.979-2.112c.32-.491.72-.875 1.2-1.152a3.052 3.052 0 0 1 1.6-.432v2.896h-.752c-.682 0-1.194.149-1.536.448-.341.288-.512.8-.512 1.536V270h-2.736v-8.928h2.736zm-90.254 23.808c0-1.109.24-2.096.72-2.96a5.086 5.086 0 0 1 2-2.032c.864-.491 1.84-.736 2.928-.736 1.333 0 2.474.352 3.424 1.056.949.704 1.584 1.664 1.904 2.88h-3.008a2.414 2.414 0 0 0-.96-1.072 2.641 2.641 0 0 0-1.392-.368c-.843 0-1.526.293-2.048.88-.523.587-.784 1.371-.784 2.352 0 .981.261 1.765.784 2.352.522.587 1.205.88 2.048.88.522 0 .986-.123 1.392-.368.416-.245.736-.603.96-1.072h3.008c-.32 1.216-.955 2.176-1.904 2.88-.95.693-2.091 1.04-3.424 1.04-1.088 0-2.064-.24-2.928-.72a5.23 5.23 0 0 1-2-2.032c-.48-.864-.72-1.851-.72-2.96zm16.715 5.76c-.875 0-1.664-.187-2.368-.56a4.168 4.168 0 0 1-1.648-1.6c-.395-.693-.592-1.504-.592-2.432 0-.917.203-1.723.608-2.416a4.107 4.107 0 0 1 1.664-1.616c.704-.373 1.493-.56 2.368-.56.875 0 1.664.187 2.368.56a4.107 4.107 0 0 1 1.664 1.616c.405.693.608 1.499.608 2.416 0 .917-.208 1.728-.624 2.432a4.11 4.11 0 0 1-1.68 1.6c-.704.373-1.493.56-2.368.56zm0-2.368c.523 0 .965-.192 1.328-.576.373-.384.56-.933.56-1.648 0-.715-.181-1.264-.544-1.648a1.707 1.707 0 0 0-1.312-.576c-.533 0-.976.192-1.328.576-.352.373-.528.923-.528 1.648 0 .715.171 1.264.512 1.648.352.384.789.576 1.312.576zm11.564-6.784c1.045 0 1.877.341 2.496 1.024.629.672.944 1.6.944 2.784V292h-2.72v-4.848c0-.597-.155-1.061-.464-1.392-.31-.331-.726-.496-1.248-.496-.523 0-.939.165-1.248.496-.31.331-.464.795-.464 1.392V292h-2.736v-8.928h2.736v1.184c.277-.395.65-.704 1.12-.928a3.487 3.487 0 0 1 1.584-.352zm8.973 9.152c-.779 0-1.472-.133-2.08-.4-.608-.267-1.088-.629-1.44-1.088a2.926 2.926 0 0 1-.592-1.568h2.704c.032.309.176.56.432.752.256.192.571.288.944.288.341 0 .603-.064.784-.192.192-.139.288-.315.288-.528 0-.256-.133-.443-.4-.56-.267-.128-.699-.267-1.296-.416a13.14 13.14 0 0 1-1.6-.464 2.871 2.871 0 0 1-1.104-.784c-.309-.363-.464-.848-.464-1.456 0-.512.139-.976.416-1.392.288-.427.704-.763 1.248-1.008.555-.245 1.211-.368 1.968-.368 1.12 0 2 .277 2.64.832.651.555 1.024 1.291 1.12 2.208h-2.528a1.078 1.078 0 0 0-.416-.736c-.224-.181-.523-.272-.896-.272-.32 0-.565.064-.736.192a.567.567 0 0 0-.256.496c0 .256.133.448.4.576.277.128.704.256 1.28.384.661.171 1.2.341 1.616.512.416.16.779.427 1.088.8.32.363.485.853.496 1.472 0 .523-.149.992-.448 1.408-.288.405-.709.725-1.264.96-.544.235-1.179.352-1.904.352zm14.106-9.056V292h-2.736v-1.216a3.054 3.054 0 0 1-1.136.96c-.47.235-.992.352-1.568.352-.683 0-1.286-.149-1.808-.448a3.122 3.122 0 0 1-1.216-1.328c-.288-.576-.432-1.253-.432-2.032v-5.216h2.72v4.848c0 .597.154 1.061.464 1.392.309.331.725.496 1.248.496.533 0 .954-.165 1.264-.496.309-.331.464-.795.464-1.392v-4.848zm13.357-.096c1.109 0 1.989.336 2.64 1.008.661.672.992 1.605.992 2.8V292h-2.72v-4.848c0-.576-.155-1.019-.464-1.328-.299-.32-.715-.48-1.248-.48s-.955.16-1.264.48c-.299.309-.448.752-.448 1.328V292h-2.72v-4.848c0-.576-.155-1.019-.464-1.328-.299-.32-.715-.48-1.248-.48s-.955.16-1.264.48c-.299.309-.448.752-.448 1.328V292h-2.736v-8.928h2.736v1.12c.277-.373.64-.667 1.088-.88a3.353 3.353 0 0 1 1.52-.336c.672 0 1.269.144 1.792.432a3.09 3.09 0 0 1 1.248 1.232 3.59 3.59 0 0 1 1.264-1.2 3.418 3.418 0 0 1 1.744-.464zm8.282 1.36a2.96 2.96 0 0 1 1.104-1.008c.469-.256 1.018-.384 1.648-.384.736 0 1.402.187 2 .56.597.373 1.066.907 1.408 1.6.352.693.528 1.499.528 2.416 0 .917-.176 1.728-.528 2.432-.342.693-.811 1.232-1.408 1.616a3.701 3.701 0 0 1-2 .56c-.619 0-1.168-.128-1.648-.384a3.015 3.015 0 0 1-1.104-.992v5.504h-2.736v-13.184h2.736zm3.904 3.184c0-.683-.192-1.216-.576-1.6a1.839 1.839 0 0 0-1.392-.592 1.87 1.87 0 0 0-1.392.592c-.374.395-.56.933-.56 1.616s.186 1.221.56 1.616a1.87 1.87 0 0 0 1.392.592 1.87 1.87 0 0 0 1.392-.592c.384-.405.576-.949.576-1.632zm9.195 2.16V292h-1.392c-.992 0-1.765-.24-2.32-.72-.555-.491-.832-1.285-.832-2.384v-3.552h-1.088v-2.272h1.088v-2.176h2.736v2.176h1.792v2.272h-1.792v3.584c0 .267.064.459.192.576.128.117.341.176.64.176zm2.9-7.536c-.48 0-.875-.139-1.184-.416a1.41 1.41 0 0 1-.448-1.056c0-.427.149-.779.448-1.056.309-.288.704-.432 1.184-.432.469 0 .853.144 1.152.432.309.277.464.629.464 1.056 0 .416-.155.768-.464 1.056-.299.277-.683.416-1.152.416zm1.36.928V292h-2.736v-8.928zm6.047 9.056c-.875 0-1.664-.187-2.368-.56a4.162 4.162 0 0 1-1.648-1.6c-.395-.693-.592-1.504-.592-2.432 0-.917.202-1.723.608-2.416a4.107 4.107 0 0 1 1.664-1.616c.704-.373 1.493-.56 2.368-.56.874 0 1.664.187 2.368.56a4.113 4.113 0 0 1 1.664 1.616c.405.693.608 1.499.608 2.416 0 .917-.208 1.728-.624 2.432a4.123 4.123 0 0 1-1.68 1.6c-.704.373-1.494.56-2.368.56zm0-2.368c.522 0 .965-.192 1.328-.576.373-.384.56-.933.56-1.648 0-.715-.182-1.264-.544-1.648a1.708 1.708 0 0 0-1.312-.576c-.534 0-.976.192-1.328.576-.352.373-.528.923-.528 1.648 0 .715.17 1.264.512 1.648.352.384.789.576 1.312.576zm11.563-6.784c1.045 0 1.877.341 2.496 1.024.629.672.944 1.6.944 2.784V292h-2.72v-4.848c0-.597-.155-1.061-.464-1.392-.309-.331-.725-.496-1.248-.496s-.939.165-1.248.496c-.309.331-.464.795-.464 1.392V292h-2.736v-8.928h2.736v1.184a2.821 2.821 0 0 1 1.12-.928 3.487 3.487 0 0 1 1.584-.352zm4.605 12.368v-.256c1.067-1.109 1.894-2.421 2.48-3.936.587-1.515.88-3.088.88-4.72 0-1.643-.304-3.237-.912-4.784-.608-1.557-1.472-2.891-2.592-4v-.256h2.688c1.099 1.003 1.947 2.304 2.544 3.904.598 1.589.896 3.301.896 5.136 0 1.813-.288 3.504-.864 5.072-.576 1.568-1.381 2.848-2.416 3.84z"/>
  <path id="rect7" fill="#fff" d="M166 32h140v42H166z"/>
  <path id="path8" fill="#242527" d="M179.876 38.96v2.272h3.664v2.112h-3.664v2.464h4.144V48h-6.88V36.768h6.88v2.192zm5.377 4.56c0-.917.17-1.723.512-2.416.352-.693.826-1.227 1.424-1.6a3.699 3.699 0 0 1 2-.56c.629 0 1.178.128 1.648.384.48.256.848.592 1.104 1.008v-1.264h2.736V48h-2.736v-1.264c-.267.416-.64.752-1.12 1.008-.47.256-1.019.384-1.648.384a3.669 3.669 0 0 1-1.984-.56c-.598-.384-1.072-.923-1.424-1.616-.342-.704-.512-1.515-.512-2.432zm6.688.016c0-.683-.192-1.221-.576-1.616a1.82 1.82 0 0 0-1.376-.592 1.87 1.87 0 0 0-1.392.592c-.374.384-.56.917-.56 1.6s.186 1.227.56 1.632a1.87 1.87 0 0 0 1.392.592 1.82 1.82 0 0 0 1.376-.592c.384-.395.576-.933.576-1.616zm7.451-2.976c.32-.491.72-.875 1.2-1.152a3.05 3.05 0 0 1 1.6-.432v2.896h-.752c-.683 0-1.195.149-1.536.448-.341.288-.512.8-.512 1.536V48h-2.736v-8.928h2.736zm9.548-1.584c1.045 0 1.877.341 2.496 1.024.629.672.944 1.6.944 2.784V48h-2.72v-4.848c0-.597-.155-1.061-.464-1.392-.31-.331-.726-.496-1.248-.496-.523 0-.939.165-1.248.496-.31.331-.464.795-.464 1.392V48H203.5v-8.928h2.736v1.184c.277-.395.65-.704 1.12-.928a3.487 3.487 0 0 1 1.584-.352zm8.268 3.392c0-1.109.24-2.096.72-2.96a5.086 5.086 0 0 1 2-2.032c.864-.491 1.84-.736 2.928-.736 1.333 0 2.474.352 3.424 1.056.949.704 1.584 1.664 1.904 2.88h-3.008a2.414 2.414 0 0 0-.96-1.072 2.641 2.641 0 0 0-1.392-.368c-.843 0-1.526.293-2.048.88-.523.587-.784 1.371-.784 2.352 0 .981.261 1.765.784 2.352.522.587 1.205.88 2.048.88.522 0 .986-.123 1.392-.368.416-.245.736-.603.96-1.072h3.008c-.32 1.216-.955 2.176-1.904 2.88-.95.693-2.091 1.04-3.424 1.04-1.088 0-2.064-.24-2.928-.72a5.23 5.23 0 0 1-2-2.032c-.48-.864-.72-1.851-.72-2.96zm12.107 1.152c0-.917.171-1.723.512-2.416.352-.693.827-1.227 1.424-1.6a3.701 3.701 0 0 1 2-.56c.63 0 1.179.128 1.648.384.48.256.848.592 1.104 1.008v-1.264h2.736V48h-2.736v-1.264c-.266.416-.64.752-1.12 1.008-.469.256-1.018.384-1.648.384a3.674 3.674 0 0 1-1.984-.56c-.597-.384-1.072-.923-1.424-1.616-.341-.704-.512-1.515-.512-2.432zm6.688.016c0-.683-.192-1.221-.576-1.616a1.818 1.818 0 0 0-1.376-.592 1.87 1.87 0 0 0-1.392.592c-.373.384-.56.917-.56 1.6s.187 1.227.56 1.632a1.87 1.87 0 0 0 1.392.592c.544 0 1.003-.197 1.376-.592.384-.395.576-.933.576-1.616zm7.452-3.2a2.96 2.96 0 0 1 1.104-1.008c.469-.256 1.018-.384 1.648-.384.736 0 1.402.187 2 .56.597.373 1.066.907 1.408 1.6.352.693.528 1.499.528 2.416 0 .917-.176 1.728-.528 2.432-.342.693-.811 1.232-1.408 1.616a3.701 3.701 0 0 1-2 .56c-.619 0-1.168-.128-1.648-.384a3.015 3.015 0 0 1-1.104-.992v5.504h-2.736V39.072h2.736zm3.904 3.184c0-.683-.192-1.216-.576-1.6a1.839 1.839 0 0 0-1.392-.592 1.87 1.87 0 0 0-1.392.592c-.374.395-.56.933-.56 1.616s.186 1.221.56 1.616a1.87 1.87 0 0 0 1.392.592 1.87 1.87 0 0 0 1.392-.592c.384-.405.576-.949.576-1.632zm3.675 0c0-.917.171-1.723.512-2.416.352-.693.827-1.227 1.424-1.6a3.699 3.699 0 0 1 2-.56c.629 0 1.179.128 1.648.384.48.256.848.592 1.104 1.008v-1.264h2.736V48h-2.736v-1.264c-.267.416-.64.752-1.12 1.008-.469.256-1.019.384-1.648.384a3.671 3.671 0 0 1-1.984-.56c-.597-.384-1.072-.923-1.424-1.616-.341-.704-.512-1.515-.512-2.432zm6.688.016c0-.683-.192-1.221-.576-1.616a1.818 1.818 0 0 0-1.376-.592 1.87 1.87 0 0 0-1.392.592c-.373.384-.56.917-.56 1.6s.187 1.227.56 1.632a1.87 1.87 0 0 0 1.392.592c.544 0 1.003-.197 1.376-.592.384-.395.576-.933.576-1.616zm4.171 0c0-.928.187-1.739.56-2.432a4.012 4.012 0 0 1 1.584-1.6c.683-.373 1.462-.56 2.336-.56 1.12 0 2.054.293 2.8.88.758.587 1.254 1.413 1.488 2.48h-2.912c-.245-.683-.72-1.024-1.424-1.024-.501 0-.901.197-1.2.592-.298.384-.448.939-.448 1.664s.15 1.285.448 1.68c.299.384.699.576 1.2.576.704 0 1.179-.341 1.424-1.024h2.912c-.234 1.045-.73 1.867-1.488 2.464-.757.597-1.69.896-2.8.896-.874 0-1.653-.187-2.336-.56a4.012 4.012 0 0 1-1.584-1.6c-.373-.693-.56-1.504-.56-2.432zm11.608-5.392c-.48 0-.875-.139-1.184-.416a1.41 1.41 0 0 1-.448-1.056c0-.427.149-.779.448-1.056.309-.288.704-.432 1.184-.432.469 0 .853.144 1.152.432.309.277.464.629.464 1.056 0 .416-.155.768-.464 1.056-.299.277-.683.416-1.152.416zm1.36.928V48h-2.736v-8.928zm6.959 6.608V48h-1.392c-.992 0-1.766-.24-2.32-.72-.555-.491-.832-1.285-.832-2.384v-3.552h-1.088v-2.272h1.088v-2.176h2.736v2.176h1.792v2.272h-1.792v3.584c0 .267.064.459.192.576.128.117.341.176.64.176zm10.644-6.608-5.6 13.168h-2.944l2.048-4.544-3.632-8.624h3.056l2.064 5.584 2.048-5.584zm-98.026 34.272c-1.035-.992-1.84-2.272-2.416-3.84-.576-1.568-.864-3.259-.864-5.072 0-1.835.298-3.547.896-5.136.597-1.6 1.445-2.901 2.544-3.904h2.688v.256c-1.12 1.109-1.984 2.443-2.592 4a12.966 12.966 0 0 0-.912 4.784c0 1.632.293 3.205.88 4.72.586 1.515 1.413 2.827 2.48 3.936v.256zm6.681-10.784c.32-.491.72-.875 1.2-1.152a3.05 3.05 0 0 1 1.6-.432v2.896h-.752c-.683 0-1.195.149-1.536.448-.342.288-.512.8-.512 1.536V70h-2.736v-8.928h2.736zm12.523 2.832c0 .256-.016.523-.048.8h-6.192c.043.555.219.981.528 1.28.32.288.71.432 1.168.432.683 0 1.158-.288 1.424-.864h2.912a3.932 3.932 0 0 1-.816 1.584 3.976 3.976 0 0 1-1.456 1.104c-.586.267-1.242.4-1.968.4-.874 0-1.653-.187-2.336-.56a3.987 3.987 0 0 1-1.6-1.6c-.384-.693-.576-1.504-.576-2.432 0-.928.187-1.739.56-2.432a3.987 3.987 0 0 1 1.6-1.6c.683-.373 1.467-.56 2.352-.56.864 0 1.632.181 2.304.544.672.363 1.195.88 1.568 1.552.384.672.576 1.456.576 2.352zm-2.8-.72c0-.469-.16-.843-.48-1.12-.32-.277-.72-.416-1.2-.416-.458 0-.848.133-1.168.4-.309.267-.501.645-.576 1.136zm3.7.864c0-.928.186-1.739.56-2.432a4.012 4.012 0 0 1 1.584-1.6c.682-.373 1.461-.56 2.336-.56 1.12 0 2.053.293 2.8.88.757.587 1.253 1.413 1.488 2.48h-2.912c-.246-.683-.72-1.024-1.424-1.024-.502 0-.902.197-1.2.592-.299.384-.448.939-.448 1.664s.149 1.285.448 1.68c.298.384.698.576 1.2.576.704 0 1.178-.341 1.424-1.024h2.912c-.235 1.045-.731 1.867-1.488 2.464-.758.597-1.691.896-2.8.896-.875 0-1.654-.187-2.336-.56a4.012 4.012 0 0 1-1.584-1.6c-.374-.693-.56-1.504-.56-2.432zm19.047-4.464V70h-2.736v-1.216a3.046 3.046 0 0 1-1.136.96 3.452 3.452 0 0 1-1.568.352c-.682 0-1.285-.149-1.808-.448a3.128 3.128 0 0 1-1.216-1.328c-.288-.576-.432-1.253-.432-2.032v-5.216h2.72v4.848c0 .597.155 1.061.464 1.392.31.331.726.496 1.248.496.534 0 .955-.165 1.264-.496.31-.331.464-.795.464-1.392v-4.848zm4.702 1.488c.32-.491.72-.875 1.2-1.152a3.05 3.05 0 0 1 1.6-.432v2.896h-.752c-.683 0-1.195.149-1.536.448-.342.288-.512.8-.512 1.536V70h-2.736v-8.928h2.736zm6.843 0c.32-.491.72-.875 1.2-1.152a3.052 3.052 0 0 1 1.6-.432v2.896h-.752c-.682 0-1.194.149-1.536.448-.341.288-.512.8-.512 1.536V70h-2.736v-8.928h2.736zm5.484-2.416c-.48 0-.875-.139-1.184-.416a1.41 1.41 0 0 1-.448-1.056c0-.427.149-.779.448-1.056.309-.288.704-.432 1.184-.432.469 0 .853.144 1.152.432.309.277.464.629.464 1.056 0 .416-.155.768-.464 1.056-.299.277-.683.416-1.152.416zm1.36.928V70h-2.736v-8.928zm7.423-.096c1.045 0 1.877.341 2.496 1.024.629.672.944 1.6.944 2.784V70h-2.72v-4.848c0-.597-.155-1.061-.464-1.392-.31-.331-.726-.496-1.248-.496-.523 0-.939.165-1.248.496-.31.331-.464.795-.464 1.392V70h-2.736v-8.928h2.736v1.184c.277-.395.65-.704 1.12-.928a3.487 3.487 0 0 1 1.584-.352zm8.733-.032c.629 0 1.179.128 1.648.384.48.256.848.592 1.104 1.008v-1.264h2.736v8.912c0 .821-.165 1.563-.496 2.224a3.648 3.648 0 0 1-1.488 1.6c-.661.395-1.488.592-2.48.592-1.323 0-2.395-.315-3.216-.944-.821-.619-1.291-1.461-1.408-2.528h2.704c.085.341.288.608.608.8.32.203.715.304 1.184.304.565 0 1.013-.165 1.344-.496.341-.32.512-.837.512-1.552V68.72a3.11 3.11 0 0 1-1.104 1.024c-.469.256-1.019.384-1.648.384a3.699 3.699 0 0 1-2-.56c-.597-.384-1.072-.923-1.424-1.616-.341-.704-.512-1.515-.512-2.432s.171-1.723.512-2.416c.352-.693.827-1.227 1.424-1.6a3.699 3.699 0 0 1 2-.56zm2.752 4.592c0-.683-.192-1.221-.576-1.616a1.818 1.818 0 0 0-1.376-.592 1.87 1.87 0 0 0-1.392.592c-.373.384-.56.917-.56 1.6s.187 1.227.56 1.632a1.87 1.87 0 0 0 1.392.592c.544 0 1.003-.197 1.376-.592.384-.395.576-.933.576-1.616zm3.979 7.808v-.256c1.067-1.109 1.894-2.421 2.48-3.936.587-1.515.88-3.088.88-4.72 0-1.643-.304-3.237-.912-4.784-.608-1.557-1.472-2.891-2.592-4v-.256h2.688c1.099 1.003 1.947 2.304 2.544 3.904.598 1.589.896 3.301.896 5.136 0 1.813-.288 3.504-.864 5.072-.576 1.568-1.381 2.848-2.416 3.84z"/>
  <path id="rect8" fill="#fff" d="M166 477h140v42H166z"/>
  <path id="path9" fill="#242527" d="M181.947 483.96v2.272h3.664v2.112h-3.664v2.464h4.144V493h-6.88v-11.232h6.88v2.192zm5.376 4.56c0-.917.171-1.723.512-2.416.352-.693.827-1.227 1.424-1.6a3.699 3.699 0 0 1 2-.56c.629 0 1.179.128 1.648.384.48.256.848.592 1.104 1.008v-1.264h2.736V493h-2.736v-1.264c-.267.416-.64.752-1.12 1.008-.469.256-1.019.384-1.648.384a3.671 3.671 0 0 1-1.984-.56c-.597-.384-1.072-.923-1.424-1.616-.341-.704-.512-1.515-.512-2.432zm6.688.016c0-.683-.192-1.221-.576-1.616a1.818 1.818 0 0 0-1.376-.592 1.87 1.87 0 0 0-1.392.592c-.373.384-.56.917-.56 1.6s.187 1.227.56 1.632a1.87 1.87 0 0 0 1.392.592c.544 0 1.003-.197 1.376-.592.384-.395.576-.933.576-1.616zm7.451-2.976c.32-.491.72-.875 1.2-1.152a3.052 3.052 0 0 1 1.6-.432v2.896h-.752c-.682 0-1.194.149-1.536.448-.341.288-.512.8-.512 1.536V493h-2.736v-8.928h2.736zm9.548-1.584c1.045 0 1.877.341 2.496 1.024.629.672.944 1.6.944 2.784V493h-2.72v-4.848c0-.597-.155-1.061-.464-1.392-.309-.331-.725-.496-1.248-.496s-.939.165-1.248.496c-.309.331-.464.795-.464 1.392V493h-2.736v-8.928h2.736v1.184a2.821 2.821 0 0 1 1.12-.928 3.487 3.487 0 0 1 1.584-.352zM225.47 493l-2.336-4.24h-.656V493h-2.736v-11.232h4.592c.885 0 1.637.155 2.256.464.629.309 1.099.736 1.408 1.28a3.51 3.51 0 0 1 .464 1.792c0 .747-.213 1.413-.64 2-.416.587-1.035 1.003-1.856 1.248l2.592 4.448zm-2.992-6.176h1.696c.501 0 .875-.123 1.12-.368.256-.245.384-.592.384-1.04 0-.427-.128-.763-.384-1.008-.245-.245-.619-.368-1.12-.368h-1.696zm16.117 1.568c0 .256-.015.523-.047.8h-6.192c.042.555.218.981.528 1.28.32.288.709.432 1.168.432.682 0 1.157-.288 1.424-.864h2.912a3.957 3.957 0 0 1-.816 1.584c-.384.469-.87.837-1.456 1.104-.587.267-1.243.4-1.968.4-.875 0-1.654-.187-2.336-.56a3.981 3.981 0 0 1-1.6-1.6c-.384-.693-.576-1.504-.576-2.432 0-.928.186-1.739.56-2.432a3.981 3.981 0 0 1 1.6-1.6c.682-.373 1.466-.56 2.352-.56.864 0 1.632.181 2.304.544a3.86 3.86 0 0 1 1.568 1.552c.384.672.575 1.456.575 2.352zm-2.799-.72c0-.469-.16-.843-.48-1.12-.32-.277-.72-.416-1.2-.416-.459 0-.848.133-1.168.4-.31.267-.502.645-.576 1.136zm17.059-3.6L250.439 493h-3.024l-1.408-5.792-1.456 5.792h-3.008l-2.432-8.928h2.736l1.264 6.384 1.504-6.384h2.896l1.52 6.352 1.248-6.352zm.499 4.448c0-.917.171-1.723.512-2.416.352-.693.827-1.227 1.424-1.6a3.701 3.701 0 0 1 2-.56c.63 0 1.179.128 1.648.384.48.256.848.592 1.104 1.008v-1.264h2.736V493h-2.736v-1.264c-.266.416-.64.752-1.12 1.008-.469.256-1.018.384-1.648.384a3.674 3.674 0 0 1-1.984-.56c-.597-.384-1.072-.923-1.424-1.616-.341-.704-.512-1.515-.512-2.432zm6.688.016c0-.683-.192-1.221-.576-1.616a1.818 1.818 0 0 0-1.376-.592 1.87 1.87 0 0 0-1.392.592c-.373.384-.56.917-.56 1.6s.187 1.227.56 1.632a1.87 1.87 0 0 0 1.392.592c.544 0 1.003-.197 1.376-.592.384-.395.576-.933.576-1.616zm7.452-2.976c.32-.491.72-.875 1.2-1.152a3.05 3.05 0 0 1 1.6-.432v2.896h-.752c-.683 0-1.195.149-1.536.448-.342.288-.512.8-.512 1.536V493h-2.736v-8.928h2.736zm3.563 2.96c0-.917.171-1.723.512-2.416.352-.693.827-1.227 1.424-1.6a3.701 3.701 0 0 1 2-.56c.587 0 1.12.123 1.6.368a2.91 2.91 0 0 1 1.152.992v-4.144h2.736V493h-2.736v-1.28a2.772 2.772 0 0 1-1.104 1.024c-.469.256-1.018.384-1.648.384a3.701 3.701 0 0 1-2-.56c-.597-.384-1.072-.923-1.424-1.616-.341-.704-.512-1.515-.512-2.432zm6.688.016c0-.683-.192-1.221-.576-1.616a1.818 1.818 0 0 0-1.376-.592 1.87 1.87 0 0 0-1.392.592c-.373.384-.56.917-.56 1.6s.187 1.227.56 1.632a1.87 1.87 0 0 0 1.392.592c.544 0 1.003-.197 1.376-.592.384-.395.576-.933.576-1.616zm8.348 4.592c-.779 0-1.472-.133-2.08-.4-.608-.267-1.088-.629-1.44-1.088a2.918 2.918 0 0 1-.592-1.568h2.704c.032.309.176.56.432.752.256.192.57.288.944.288.341 0 .602-.064.784-.192.192-.139.288-.315.288-.528 0-.256-.134-.443-.4-.56-.267-.128-.699-.267-1.296-.416a13.088 13.088 0 0 1-1.6-.464 2.871 2.871 0 0 1-1.104-.784c-.31-.363-.464-.848-.464-1.456 0-.512.138-.976.416-1.392.288-.427.704-.763 1.248-1.008.554-.245 1.21-.368 1.968-.368 1.12 0 2 .277 2.64.832.65.555 1.024 1.291 1.12 2.208h-2.528a1.082 1.082 0 0 0-.416-.736c-.224-.181-.523-.272-.896-.272-.32 0-.566.064-.736.192a.567.567 0 0 0-.256.496c0 .256.133.448.4.576.277.128.704.256 1.28.384.661.171 1.2.341 1.616.512.416.16.778.427 1.088.8.32.363.485.853.496 1.472 0 .523-.15.992-.448 1.408-.288.405-.71.725-1.264.96-.544.235-1.179.352-1.904.352zm-91.655 25.216c-1.035-.992-1.84-2.272-2.416-3.84-.576-1.568-.864-3.259-.864-5.072 0-1.835.298-3.547.896-5.136.597-1.6 1.445-2.901 2.544-3.904h2.688v.256c-1.12 1.109-1.984 2.443-2.592 4a12.966 12.966 0 0 0-.912 4.784c0 1.632.293 3.205.88 4.72.586 1.515 1.413 2.827 2.48 3.936v.256zm6.681-10.784c.32-.491.72-.875 1.2-1.152a3.05 3.05 0 0 1 1.6-.432v2.896h-.752c-.683 0-1.195.149-1.536.448-.342.288-.512.8-.512 1.536V515h-2.736v-8.928h2.736zm12.523 2.832c0 .256-.016.523-.048.8h-6.192c.043.555.219.981.528 1.28.32.288.71.432 1.168.432.683 0 1.158-.288 1.424-.864h2.912a3.932 3.932 0 0 1-.816 1.584 3.976 3.976 0 0 1-1.456 1.104c-.586.267-1.242.4-1.968.4-.874 0-1.653-.187-2.336-.56a3.987 3.987 0 0 1-1.6-1.6c-.384-.693-.576-1.504-.576-2.432 0-.928.187-1.739.56-2.432a3.987 3.987 0 0 1 1.6-1.6c.683-.373 1.467-.56 2.352-.56.864 0 1.632.181 2.304.544.672.363 1.195.88 1.568 1.552.384.672.576 1.456.576 2.352zm-2.8-.72c0-.469-.16-.843-.48-1.12-.32-.277-.72-.416-1.2-.416-.458 0-.848.133-1.168.4-.309.267-.501.645-.576 1.136zm3.7.864c0-.928.186-1.739.56-2.432a4.012 4.012 0 0 1 1.584-1.6c.682-.373 1.461-.56 2.336-.56 1.12 0 2.053.293 2.8.88.757.587 1.253 1.413 1.488 2.48h-2.912c-.246-.683-.72-1.024-1.424-1.024-.502 0-.902.197-1.2.592-.299.384-.448.939-.448 1.664s.149 1.285.448 1.68c.298.384.698.576 1.2.576.704 0 1.178-.341 1.424-1.024h2.912c-.235 1.045-.731 1.867-1.488 2.464-.758.597-1.691.896-2.8.896-.875 0-1.654-.187-2.336-.56a4.012 4.012 0 0 1-1.584-1.6c-.374-.693-.56-1.504-.56-2.432zm19.047-4.464V515h-2.736v-1.216a3.046 3.046 0 0 1-1.136.96 3.452 3.452 0 0 1-1.568.352c-.682 0-1.285-.149-1.808-.448a3.128 3.128 0 0 1-1.216-1.328c-.288-.576-.432-1.253-.432-2.032v-5.216h2.72v4.848c0 .597.155 1.061.464 1.392.31.331.726.496 1.248.496.534 0 .955-.165 1.264-.496.31-.331.464-.795.464-1.392v-4.848zm4.702 1.488c.32-.491.72-.875 1.2-1.152a3.05 3.05 0 0 1 1.6-.432v2.896h-.752c-.683 0-1.195.149-1.536.448-.342.288-.512.8-.512 1.536V515h-2.736v-8.928h2.736zm6.843 0c.32-.491.72-.875 1.2-1.152a3.052 3.052 0 0 1 1.6-.432v2.896h-.752c-.682 0-1.194.149-1.536.448-.341.288-.512.8-.512 1.536V515h-2.736v-8.928h2.736zm5.484-2.416c-.48 0-.875-.139-1.184-.416a1.41 1.41 0 0 1-.448-1.056c0-.427.149-.779.448-1.056.309-.288.704-.432 1.184-.432.469 0 .853.144 1.152.432.309.277.464.629.464 1.056 0 .416-.155.768-.464 1.056-.299.277-.683.416-1.152.416zm1.36.928V515h-2.736v-8.928zm7.423-.096c1.045 0 1.877.341 2.496 1.024.629.672.944 1.6.944 2.784V515h-2.72v-4.848c0-.597-.155-1.061-.464-1.392-.31-.331-.726-.496-1.248-.496-.523 0-.939.165-1.248.496-.31.331-.464.795-.464 1.392V515h-2.736v-8.928h2.736v1.184c.277-.395.65-.704 1.12-.928a3.487 3.487 0 0 1 1.584-.352zm8.733-.032c.629 0 1.179.128 1.648.384.48.256.848.592 1.104 1.008v-1.264h2.736v8.912c0 .821-.165 1.563-.496 2.224a3.648 3.648 0 0 1-1.488 1.6c-.661.395-1.488.592-2.48.592-1.323 0-2.395-.315-3.216-.944-.821-.619-1.291-1.461-1.408-2.528h2.704c.085.341.288.608.608.8.32.203.715.304 1.184.304.565 0 1.013-.165 1.344-.496.341-.32.512-.837.512-1.552v-1.264a3.11 3.11 0 0 1-1.104 1.024c-.469.256-1.019.384-1.648.384a3.699 3.699 0 0 1-2-.56c-.597-.384-1.072-.923-1.424-1.616-.341-.704-.512-1.515-.512-2.432s.171-1.723.512-2.416c.352-.693.827-1.227 1.424-1.6a3.699 3.699 0 0 1 2-.56zm2.752 4.592c0-.683-.192-1.221-.576-1.616a1.818 1.818 0 0 0-1.376-.592 1.87 1.87 0 0 0-1.392.592c-.373.384-.56.917-.56 1.6s.187 1.227.56 1.632a1.87 1.87 0 0 0 1.392.592c.544 0 1.003-.197 1.376-.592.384-.395.576-.933.576-1.616zm3.979 7.808v-.256c1.067-1.109 1.894-2.421 2.48-3.936.587-1.515.88-3.088.88-4.72 0-1.643-.304-3.237-.912-4.784-.608-1.557-1.472-2.891-2.592-4v-.256h2.688c1.099 1.003 1.947 2.304 2.544 3.904.598 1.589.896 3.301.896 5.136 0 1.813-.288 3.504-.864 5.072-.576 1.568-1.381 2.848-2.416 3.84z"/>
  <path id="rect9" fill="#fff" d="M236 228h134v42H236z"/>
  <path id="path10" fill="#242527" d="M253.337 255.112c-.821 0-1.557-.133-2.208-.4a3.66 3.66 0 0 1-1.568-1.184c-.384-.523-.586-1.152-.608-1.888h2.912c.043.416.187.736.432.96.246.213.566.32.96.32.406 0 .726-.091.96-.272.235-.192.352-.453.352-.784a.906.906 0 0 0-.288-.688 2.125 2.125 0 0 0-.688-.448c-.266-.117-.65-.251-1.152-.4-.725-.224-1.317-.448-1.776-.672a3.293 3.293 0 0 1-1.184-.992c-.33-.437-.496-1.008-.496-1.712 0-1.045.379-1.861 1.136-2.448.758-.597 1.744-.896 2.96-.896 1.238 0 2.235.299 2.992.896.758.587 1.163 1.408 1.216 2.464h-2.96c-.021-.363-.154-.645-.4-.848-.245-.213-.56-.32-.944-.32-.33 0-.597.091-.8.272-.202.171-.304.421-.304.752 0 .363.171.645.512.848.342.203.875.421 1.6.656.726.245 1.312.48 1.76.704.459.224.854.549 1.184.976.331.427.496.976.496 1.648 0 .64-.165 1.221-.496 1.744-.32.523-.789.939-1.408 1.248-.618.309-1.349.464-2.192.464zm10.756-2.432V255h-1.392c-.992 0-1.765-.24-2.32-.72-.555-.491-.832-1.285-.832-2.384v-3.552h-1.088v-2.272h1.088v-2.176h2.736v2.176h1.792v2.272h-1.792v3.584c0 .267.064.459.192.576.128.117.341.176.64.176zm.98-2.16c0-.917.171-1.723.512-2.416.352-.693.827-1.227 1.424-1.6a3.699 3.699 0 0 1 2-.56c.629 0 1.179.128 1.648.384.48.256.848.592 1.104 1.008v-1.264h2.736V255h-2.736v-1.264c-.267.416-.64.752-1.12 1.008-.469.256-1.019.384-1.648.384a3.671 3.671 0 0 1-1.984-.56c-.597-.384-1.072-.923-1.424-1.616-.341-.704-.512-1.515-.512-2.432zm6.688.016c0-.683-.192-1.221-.576-1.616a1.818 1.818 0 0 0-1.376-.592 1.87 1.87 0 0 0-1.392.592c-.373.384-.56.917-.56 1.6s.187 1.227.56 1.632a1.87 1.87 0 0 0 1.392.592c.544 0 1.003-.197 1.376-.592.384-.395.576-.933.576-1.616zM281.932 255l-2.72-3.744V255h-2.736v-11.84h2.736v6.544l2.704-3.632h3.376l-3.712 4.48 3.744 4.448zm12.851-4.608c0 .256-.016.523-.048.8h-6.192c.043.555.219.981.528 1.28.32.288.709.432 1.168.432.683 0 1.157-.288 1.424-.864h2.912a3.932 3.932 0 0 1-.816 1.584 3.976 3.976 0 0 1-1.456 1.104c-.587.267-1.243.4-1.968.4-.875 0-1.653-.187-2.336-.56a3.981 3.981 0 0 1-1.6-1.6c-.384-.693-.576-1.504-.576-2.432 0-.928.187-1.739.56-2.432a3.981 3.981 0 0 1 1.6-1.6c.683-.373 1.467-.56 2.352-.56.864 0 1.632.181 2.304.544.672.363 1.195.88 1.568 1.552.384.672.576 1.456.576 2.352zm-2.8-.72c0-.469-.16-.843-.48-1.12-.32-.277-.72-.416-1.2-.416-.459 0-.848.133-1.168.4-.309.267-.501.645-.576 1.136zm15.714-5.904v2.192h-2.976V255h-2.736v-9.04h-2.976v-2.192zm5.437 11.36c-.875 0-1.664-.187-2.368-.56a4.168 4.168 0 0 1-1.648-1.6c-.395-.693-.592-1.504-.592-2.432 0-.917.203-1.723.608-2.416a4.107 4.107 0 0 1 1.664-1.616c.704-.373 1.493-.56 2.368-.56.875 0 1.664.187 2.368.56a4.107 4.107 0 0 1 1.664 1.616c.405.693.608 1.499.608 2.416 0 .917-.208 1.728-.624 2.432a4.11 4.11 0 0 1-1.68 1.6c-.704.373-1.493.56-2.368.56zm0-2.368c.523 0 .965-.192 1.328-.576.373-.384.56-.933.56-1.648 0-.715-.181-1.264-.544-1.648a1.707 1.707 0 0 0-1.312-.576c-.533 0-.976.192-1.328.576-.352.373-.528.923-.528 1.648 0 .715.171 1.264.512 1.648.352.384.789.576 1.312.576zm11.58 2.24-2.72-3.744V255h-2.736v-11.84h2.736v6.544l2.704-3.632h3.376l-3.712 4.48 3.744 4.448zm12.85-4.608c0 .256-.016.523-.048.8h-6.192c.043.555.219.981.528 1.28.32.288.71.432 1.168.432.683 0 1.158-.288 1.424-.864h2.912a3.932 3.932 0 0 1-.816 1.584 3.976 3.976 0 0 1-1.456 1.104c-.586.267-1.242.4-1.968.4-.874 0-1.653-.187-2.336-.56a3.987 3.987 0 0 1-1.6-1.6c-.384-.693-.576-1.504-.576-2.432 0-.928.187-1.739.56-2.432a3.987 3.987 0 0 1 1.6-1.6c.683-.373 1.467-.56 2.352-.56.864 0 1.632.181 2.304.544.672.363 1.195.88 1.568 1.552.384.672.576 1.456.576 2.352zm-2.8-.72c0-.469-.16-.843-.48-1.12-.32-.277-.72-.416-1.2-.416-.458 0-.848.133-1.168.4-.309.267-.501.645-.576 1.136zm9.684-3.696c1.045 0 1.877.341 2.496 1.024.629.672.944 1.6.944 2.784V255h-2.72v-4.848c0-.597-.155-1.061-.464-1.392-.31-.331-.726-.496-1.248-.496-.523 0-.939.165-1.248.496-.31.331-.464.795-.464 1.392V255h-2.736v-8.928h2.736v1.184c.277-.395.65-.704 1.12-.928a3.487 3.487 0 0 1 1.584-.352zm8.973 9.152c-.779 0-1.472-.133-2.08-.4-.608-.267-1.088-.629-1.44-1.088a2.926 2.926 0 0 1-.592-1.568h2.704c.032.309.176.56.432.752.256.192.571.288.944.288.341 0 .603-.064.784-.192.192-.139.288-.315.288-.528 0-.256-.133-.443-.4-.56-.267-.128-.699-.267-1.296-.416a13.14 13.14 0 0 1-1.6-.464 2.871 2.871 0 0 1-1.104-.784c-.309-.363-.464-.848-.464-1.456 0-.512.139-.976.416-1.392.288-.427.704-.763 1.248-1.008.555-.245 1.211-.368 1.968-.368 1.12 0 2 .277 2.64.832.651.555 1.024 1.291 1.12 2.208h-2.528a1.078 1.078 0 0 0-.416-.736c-.224-.181-.523-.272-.896-.272-.32 0-.565.064-.736.192a.567.567 0 0 0-.256.496c0 .256.133.448.4.576.277.128.704.256 1.28.384.661.171 1.2.341 1.616.512.416.16.779.427 1.088.8.32.363.485.853.496 1.472 0 .523-.149.992-.448 1.408-.288.405-.709.725-1.264.96-.544.235-1.179.352-1.904.352z"/>
  <g id="g40" filter="url(#filter0_d_2321_3167)" transform="translate(-290 -244)">
    <g id="g39" filter="url(#filter1_d_2321_3167)">
      <rect id="rect10" width="265" height="126" x="1016" y="440" fill="#fff" rx="10" ry="10"/>
      <rect id="rect11" width="262" height="123" x="1017.5" y="441.5" stroke="#331e49" stroke-linecap="round" stroke-width="3" rx="8.5" ry="8.5"/>
      <path id="path11" stroke="#f03b3b" stroke-miterlimit="10" stroke-width="2" d="m1085.37 506.77 10.35 5.985"/>
      <path id="path12" stroke="#f03b3b" stroke-miterlimit="10" stroke-width="2" d="m1095.72 493.438-10.35 5.985"/>
      <path id="path13" stroke="#f03b3b" stroke-miterlimit="10" stroke-width="2" d="M1079 487.39v8.328"/>
      <path id="path14" stroke="#f03b3b" stroke-miterlimit="10" stroke-width="2" d="M1079 510.475v7.853"/>
      <path id="path15" stroke="#f03b3b" stroke-miterlimit="10" stroke-width="2" d="M1095.75 493.436v-5.256l-10.35-5.985V484l-6.4 3.673-6.4-3.673v-1.837l-10.35 5.985v5.288l-4.59 2.66v14.06l4.59 2.629v5.225l10.35 5.985V522l6.4-3.674 6.4 3.674v1.931l10.35-5.953v-5.193l4.5-2.597v-14.155z"/>
      <path id="path16" stroke="#f03b3b" stroke-miterlimit="10" stroke-width="2" d="m1072.6 506.77-10.32 5.985"/>
      <path id="path17" stroke="#f03b3b" stroke-miterlimit="10" stroke-width="2" d="m1061.68 493.089 10.92 6.302"/>
      <path id="path18" stroke="#242527" stroke-miterlimit="10" stroke-width="2" d="m1085.4 522-6.4-3.674-6.4 3.674v7.41l6.4 3.673 6.4-3.673z"/>
      <path id="path19" stroke="#242527" stroke-miterlimit="10" stroke-width="2" d="m1085.4 522-6.4 3.705-6.4-3.705"/>
      <path id="path20" stroke="#242527" stroke-miterlimit="10" stroke-width="2" d="M1079 533.083v-7.378"/>
      <path id="path21" stroke="#242527" stroke-miterlimit="10" stroke-width="2" d="m1062.25 486.059-6.37-3.673-6.39 3.673v7.378l6.39 3.705 6.37-3.705z"/>
      <path id="path22" stroke="#242527" stroke-miterlimit="10" stroke-width="2" d="m1062.25 486.06-6.37 3.705-6.39-3.705"/>
      <path id="path23" stroke="#242527" stroke-miterlimit="10" stroke-width="2" d="M1055.88 497.143v-7.378"/>
      <path id="path24" stroke="#242527" stroke-miterlimit="10" stroke-width="2" d="m1095.75 486.059 6.37-3.673 6.39 3.673v7.378l-6.39 3.705-6.37-3.705z"/>
      <path id="path25" stroke="#242527" stroke-miterlimit="10" stroke-width="2" d="m1095.75 486.06 6.37 3.705 6.39-3.705"/>
      <path id="path26" stroke="#242527" stroke-miterlimit="10" stroke-width="2" d="M1102.12 497.143v-7.378"/>
      <path id="path27" stroke="#242527" stroke-miterlimit="10" stroke-width="2" d="m1062.25 512.784-6.37-3.674-6.39 3.674v7.378l6.39 3.705 6.37-3.705z"/>
      <path id="path28" stroke="#242527" stroke-miterlimit="10" stroke-width="2" d="m1062.25 512.784-6.37 3.705-6.39-3.705"/>
      <path id="path29" stroke="#242527" stroke-miterlimit="10" stroke-width="2" d="M1055.88 523.868v-7.379"/>
      <path id="path30" stroke="#242527" stroke-miterlimit="10" stroke-width="2" d="m1095.75 512.784 6.37-3.674 6.39 3.674v7.378l-6.39 3.705-6.37-3.705z"/>
      <path id="path31" stroke="#242527" stroke-miterlimit="10" stroke-width="2" d="m1095.75 512.784 6.37 3.705 6.39-3.705"/>
      <path id="path32" stroke="#242527" stroke-miterlimit="10" stroke-width="2" d="M1102.12 523.868v-7.379"/>
      <path id="path33" stroke="#242527" stroke-miterlimit="10" stroke-width="2" d="m1085.4 476.622-6.4-3.705-6.4 3.705V484l6.4 3.674 6.4-3.674z"/>
      <path id="path34" stroke="#242527" stroke-miterlimit="10" stroke-width="2" d="m1085.4 476.621-6.4 3.673-6.4-3.673"/>
      <path id="path35" stroke="#242527" stroke-miterlimit="10" stroke-width="2" d="M1079 487.673v-7.378"/>
      <path id="path36" stroke="#242527" stroke-miterlimit="10" stroke-width="2" d="m1085.4 499.422-6.4-3.705-6.4 3.705v7.378l6.4 3.673 6.4-3.673z"/>
      <path id="path37" stroke="#242527" stroke-miterlimit="10" stroke-width="2" d="m1085.4 499.422-6.4 3.673-6.4-3.673"/>
      <path id="path38" stroke="#242527" stroke-miterlimit="10" stroke-width="2" d="M1079 510.474v-7.378"/>
      <path id="path39" fill="#242527" d="M1138.34 509.112c-1.05 0-2.02-.245-2.91-.736a5.594 5.594 0 0 1-2.09-2.048c-.52-.885-.77-1.877-.77-2.976s.25-2.085.77-2.96a5.594 5.594 0 0 1 2.09-2.048 5.925 5.925 0 0 1 2.91-.736c1.06 0 2.02.245 2.9.736a5.359 5.359 0 0 1 2.08 2.048c.51.875.77 1.861.77 2.96s-.26 2.091-.77 2.976a5.496 5.496 0 0 1-2.08 2.048c-.88.491-1.84.736-2.9.736zm0-2.496c.9 0 1.61-.299 2.15-.896.54-.597.81-1.387.81-2.368 0-.992-.27-1.781-.81-2.368-.54-.597-1.25-.896-2.15-.896-.9 0-1.63.293-2.17.88s-.8 1.381-.8 2.384c0 .992.26 1.787.8 2.384.54.587 1.27.88 2.17.88zm12.71-6.64c1.04 0 1.88.341 2.5 1.024.62.672.94 1.6.94 2.784V509h-2.72v-4.848c0-.597-.16-1.061-.46-1.392-.31-.331-.73-.496-1.25-.496-.53 0-.94.165-1.25.496-.31.331-.46.795-.46 1.392V509h-2.74v-8.928h2.74v1.184c.27-.395.65-.704 1.12-.928.46-.235.99-.352 1.58-.352zm12.22 2.272v2.272h-7.04v-2.272zm1.94 1.12c0-1.109.24-2.096.72-2.96a5.048 5.048 0 0 1 2-2.032c.86-.491 1.84-.736 2.93-.736 1.33 0 2.47.352 3.42 1.056.95.704 1.58 1.664 1.9 2.88h-3a2.486 2.486 0 0 0-.96-1.072 2.66 2.66 0 0 0-1.4-.368c-.84 0-1.52.293-2.04.88-.53.587-.79 1.371-.79 2.352 0 .981.26 1.765.79 2.352.52.587 1.2.88 2.04.88.53 0 .99-.123 1.4-.368.41-.245.73-.603.96-1.072h3c-.32 1.216-.95 2.176-1.9 2.88-.95.693-2.09 1.04-3.42 1.04-1.09 0-2.07-.24-2.93-.72a5.189 5.189 0 0 1-2-2.032c-.48-.864-.72-1.851-.72-2.96zm18.14-3.392c1.02 0 1.84.341 2.46 1.024.62.672.93 1.6.93 2.784V509h-2.72v-4.848c0-.597-.16-1.061-.46-1.392-.31-.331-.73-.496-1.25-.496-.53 0-.94.165-1.25.496-.31.331-.46.795-.46 1.392V509h-2.74v-11.84h2.74v4.112c.27-.395.65-.709 1.13-.944a3.635 3.635 0 0 1 1.62-.352zm4.75 4.544c0-.917.17-1.723.51-2.416.35-.693.83-1.227 1.42-1.6a3.72 3.72 0 0 1 2-.56c.63 0 1.18.128 1.65.384.48.256.85.592 1.1 1.008v-1.264h2.74V509h-2.74v-1.264c-.26.416-.64.752-1.12 1.008-.46.256-1.01.384-1.64.384-.73 0-1.39-.187-1.99-.56a4.084 4.084 0 0 1-1.42-1.616c-.34-.704-.51-1.515-.51-2.432zm6.68.016c0-.683-.19-1.221-.57-1.616a1.813 1.813 0 0 0-1.38-.592c-.54 0-1.01.197-1.39.592-.37.384-.56.917-.56 1.6s.19 1.227.56 1.632c.38.395.85.592 1.39.592.55 0 1.01-.197 1.38-.592.38-.395.57-.933.57-1.616zm6.1-5.392c-.48 0-.88-.139-1.19-.416-.3-.288-.45-.64-.45-1.056 0-.427.15-.779.45-1.056.31-.288.71-.432 1.19-.432.47 0 .85.144 1.15.432.31.277.46.629.46 1.056 0 .416-.15.768-.46 1.056-.3.277-.68.416-1.15.416zm1.36.928V509h-2.74v-8.928zm7.42-.096c1.04 0 1.88.341 2.49 1.024.63.672.95 1.6.95 2.784V509h-2.72v-4.848c0-.597-.16-1.061-.47-1.392-.3-.331-.72-.496-1.24-.496-.53 0-.94.165-1.25.496-.31.331-.47.795-.47 1.392V509h-2.73v-8.928h2.73v1.184c.28-.395.66-.704 1.12-.928.47-.235 1-.352 1.59-.352zm16.81-2.208v2.192h-2.98V509h-2.73v-9.04h-2.98v-2.192zm6.65 11.232-1.71-2.48-1.44 2.48h-2.96l2.95-4.56-3.03-4.368h3.07l1.72 2.464 1.44-2.464h2.96l-3 4.496 3.08 4.432zm9.57-9.024c1.05 0 1.88.341 2.5 1.024.63.672.94 1.6.94 2.784V509h-2.72v-4.848c0-.597-.15-1.061-.46-1.392-.31-.331-.73-.496-1.25-.496s-.94.165-1.25.496c-.31.331-.46.795-.46 1.392V509h-2.74v-8.928h2.74v1.184c.27-.395.65-.704 1.12-.928.47-.235.99-.352 1.58-.352zm8.97 9.152c-.78 0-1.47-.133-2.08-.4-.6-.267-1.08-.629-1.44-1.088a2.915 2.915 0 0 1-.59-1.568h2.71c.03.309.17.56.43.752.25.192.57.288.94.288.34 0 .6-.064.79-.192a.625.625 0 0 0 .28-.528c0-.256-.13-.443-.4-.56-.26-.128-.7-.267-1.29-.416-.64-.149-1.18-.304-1.6-.464-.43-.171-.8-.432-1.11-.784-.31-.363-.46-.848-.46-1.456 0-.512.14-.976.42-1.392.28-.427.7-.763 1.24-1.008.56-.245 1.21-.368 1.97-.368 1.12 0 2 .277 2.64.832.65.555 1.03 1.291 1.12 2.208h-2.53a1.079 1.079 0 0 0-.41-.736c-.23-.181-.53-.272-.9-.272-.32 0-.56.064-.73.192a.55.55 0 0 0-.26.496c0 .256.13.448.4.576.28.128.7.256 1.28.384.66.171 1.2.341 1.62.512.41.16.77.427 1.08.8.32.363.49.853.5 1.472 0 .523-.15.992-.45 1.408-.29.405-.71.725-1.26.96s-1.18.352-1.91.352z"/>
    </g>
  </g>
  <g id="g49" filter="url(#filter2_d_2321_3167)" transform="translate(-290 -244)">
    <rect id="rect40" width="129" height="135" x="701" y="244" fill="#fff" rx="10" ry="10"/>
    <rect id="rect41" width="126" height="132" x="702.5" y="245.5" stroke="#242527" stroke-linecap="round" stroke-width="3" rx="8.5" ry="8.5"/>
    <rect id="rect42" width="60" height="48" x="735.5" y="269" fill="#fff" rx="24" ry="24"/>
    <path id="path42" fill="#fff" stroke="#242527" stroke-width="2" d="m794.499 281-.045 31.409v.001c0 1.987-1.605 3.59-3.642 3.59h-50.67c-2.037 0-3.642-1.603-3.642-3.59V281Z"/>
    <path id="path43" fill="#fff" stroke="#242527" stroke-width="2" d="m794.494 281-.04-7.405v-.005c0-1.987-1.605-3.59-3.642-3.59h-50.67c-2.037 0-3.642 1.603-3.642 3.59V281Z"/>
    <ellipse id="ellipse43" cx="743.636" cy="275.5" fill="#242527" rx="1.525" ry="1.5"/>
    <ellipse id="ellipse44" cx="749.737" cy="275.5" fill="#242527" rx="1.525" ry="1.5"/>
    <ellipse id="ellipse45" cx="755.839" cy="275.5" fill="#242527" rx="1.525" ry="1.5"/>
    <path id="path45" fill="#242527" d="m778.621 297.494-5.799 4.779c-.55.439-.6 1.22-.15 1.707a1.243 1.243 0 0 0 1.75.147l6.899-5.706c.3-.244.45-.586.45-.927 0-.341-.15-.683-.45-.927l-6.899-5.706c-.5-.439-1.3-.39-1.75.147-.45.487-.4 1.268.15 1.707z"/>
    <path id="path46" fill="#242527" d="M749.229 297.494c0 .341.15.683.45.927l6.899 5.706a1.243 1.243 0 0 0 1.75-.147c.45-.487.4-1.268-.15-1.707l-5.799-4.779 5.799-4.779c.55-.439.6-1.171.15-1.707-.45-.537-1.2-.586-1.75-.147l-6.899 5.706c-.3.244-.45.586-.45.927z"/>
    <path id="path47" fill="#242527" d="m767.25 288.768-5.85 16.525c-.25.634.05 1.317.7 1.609.15.049.3.098.45.098.5 0 .95-.293 1.15-.78l5.9-16.525c.25-.634-.05-1.366-.7-1.609-.65-.244-1.4.048-1.65.682z"/>
    <path id="path48" fill="#fff" stroke="#242527" stroke-width="2" d="m794.499 281-.045 31.409v.001c0 1.987-1.605 3.59-3.642 3.59h-50.67c-2.037 0-3.642-1.603-3.642-3.59V281Z" opacity=".5"/>
    <path id="path49" fill="#242527" d="M735.935 341.384c0 .651-.15 1.248-.448 1.792-.299.533-.758.965-1.376 1.296-.619.331-1.387.496-2.304.496h-1.696V349h-2.736v-11.232h4.432c.896 0 1.653.155 2.272.464.618.309 1.082.736 1.392 1.28.309.544.464 1.168.464 1.872zm-4.336 1.408c.522 0 .912-.123 1.168-.368.256-.245.384-.592.384-1.04 0-.448-.128-.795-.384-1.04s-.646-.368-1.168-.368h-1.488v2.816zm8.496-1.232c.32-.491.72-.875 1.2-1.152a3.052 3.052 0 0 1 1.6-.432v2.896h-.752c-.682 0-1.194.149-1.536.448-.341.288-.512.8-.512 1.536V349h-2.736v-8.928h2.736zm8.172 7.568c-.875 0-1.664-.187-2.368-.56a4.168 4.168 0 0 1-1.648-1.6c-.395-.693-.592-1.504-.592-2.432 0-.917.203-1.723.608-2.416a4.107 4.107 0 0 1 1.664-1.616c.704-.373 1.493-.56 2.368-.56.875 0 1.664.187 2.368.56a4.107 4.107 0 0 1 1.664 1.616c.405.693.608 1.499.608 2.416 0 .917-.208 1.728-.624 2.432a4.11 4.11 0 0 1-1.68 1.6c-.704.373-1.493.56-2.368.56zm0-2.368c.523 0 .965-.192 1.328-.576.373-.384.56-.933.56-1.648 0-.715-.181-1.264-.544-1.648a1.707 1.707 0 0 0-1.312-.576c-.533 0-.976.192-1.328.576-.352.373-.528.923-.528 1.648 0 .715.171 1.264.512 1.648.352.384.789.576 1.312.576zm10.139-.32 1.936-6.368h2.912L760.086 349h-3.376l-3.168-8.928h2.928zm7.376-7.296c-.48 0-.875-.139-1.184-.416a1.41 1.41 0 0 1-.448-1.056c0-.427.149-.779.448-1.056.309-.288.704-.432 1.184-.432.469 0 .853.144 1.152.432.309.277.464.629.464 1.056 0 .416-.155.768-.464 1.056-.299.277-.683.416-1.152.416zm1.36.928V349h-2.736v-8.928zm1.439 4.448c0-.917.17-1.723.512-2.416.352-.693.826-1.227 1.424-1.6a3.699 3.699 0 0 1 2-.56c.586 0 1.12.123 1.6.368.49.245.874.576 1.152.992v-4.144h2.736V349h-2.736v-1.28a2.772 2.772 0 0 1-1.104 1.024c-.47.256-1.019.384-1.648.384a3.699 3.699 0 0 1-2-.56c-.598-.384-1.072-.923-1.424-1.616-.342-.704-.512-1.515-.512-2.432zm6.688.016c0-.683-.192-1.221-.576-1.616a1.82 1.82 0 0 0-1.376-.592 1.87 1.87 0 0 0-1.392.592c-.374.384-.56.917-.56 1.6s.186 1.227.56 1.632a1.87 1.87 0 0 0 1.392.592 1.82 1.82 0 0 0 1.376-.592c.384-.395.576-.933.576-1.616zm13.131-.144c0 .256-.016.523-.048.8h-6.192c.043.555.219.981.528 1.28.32.288.71.432 1.168.432.683 0 1.158-.288 1.424-.864h2.912a3.932 3.932 0 0 1-.816 1.584 3.976 3.976 0 0 1-1.456 1.104c-.586.267-1.242.4-1.968.4-.874 0-1.653-.187-2.336-.56a3.987 3.987 0 0 1-1.6-1.6c-.384-.693-.576-1.504-.576-2.432 0-.928.187-1.739.56-2.432a3.987 3.987 0 0 1 1.6-1.6c.683-.373 1.467-.56 2.352-.56.864 0 1.632.181 2.304.544.672.363 1.195.88 1.568 1.552.384.672.576 1.456.576 2.352zm-2.8-.72c0-.469-.16-.843-.48-1.12-.32-.277-.72-.416-1.2-.416-.458 0-.848.133-1.168.4-.309.267-.501.645-.576 1.136zm6.98-2.112c.32-.491.72-.875 1.2-1.152a3.05 3.05 0 0 1 1.6-.432v2.896h-.752c-.683 0-1.195.149-1.536.448-.342.288-.512.8-.512 1.536V349h-2.736v-8.928h2.736zm7.739 7.568c-.778 0-1.472-.133-2.08-.4-.608-.267-1.088-.629-1.44-1.088a2.926 2.926 0 0 1-.592-1.568h2.704c.032.309.176.56.432.752.256.192.571.288.944.288.342 0 .603-.064.784-.192.192-.139.288-.315.288-.528 0-.256-.133-.443-.4-.56-.266-.128-.698-.267-1.296-.416a13.14 13.14 0 0 1-1.6-.464 2.886 2.886 0 0 1-1.104-.784c-.309-.363-.464-.848-.464-1.456 0-.512.139-.976.416-1.392.288-.427.704-.763 1.248-1.008.555-.245 1.211-.368 1.968-.368 1.12 0 2 .277 2.64.832.651.555 1.024 1.291 1.12 2.208h-2.528a1.074 1.074 0 0 0-.416-.736c-.224-.181-.522-.272-.896-.272-.32 0-.565.064-.736.192a.569.569 0 0 0-.256.496c0 .256.134.448.4.576.278.128.704.256 1.28.384.662.171 1.2.341 1.616.512.416.16.779.427 1.088.8.32.363.486.853.496 1.472 0 .523-.149.992-.448 1.408-.288.405-.709.725-1.264.96-.544.235-1.178.352-1.904.352z"/>
  </g>
  <rect id="rect49" width="113" height="159" x="414.5" y="362.5" fill="#fff" rx="8.5" ry="8.5"/>
  <rect id="rect50" width="113" height="159" x="414.5" y="362.5" stroke="#242527" stroke-linecap="round" stroke-width="3" rx="8.5" ry="8.5"/>
  <path id="rect51" fill="#fff" d="M433 381h76v85h-76z"/>
  <path id="rect52" stroke="#fff" stroke-width="10" d="M433 381h76v85h-76z"/>
  <path id="path52" fill="#fff" d="M485.757 413.488a5.736 5.736 0 0 0 5.731-5.737c0-3.159-2.56-5.751-5.731-5.751a5.735 5.735 0 0 0-5.73 5.737 5.67 5.67 0 0 0 1.222 3.538l-8.479 9.318a4.622 4.622 0 0 0-2.313-.626c-.742 0-1.454.174-2.08.495l-4.828-5.941a3.664 3.664 0 0 0 .712-2.184 3.732 3.732 0 0 0-3.723-3.727 3.732 3.732 0 0 0-3.723 3.727 3.733 3.733 0 0 0 3.723 3.728c.538 0 1.062-.117 1.527-.335l4.814 5.94a4.548 4.548 0 0 0-1.018 2.883c0 .335.044.67.102.99l-6.472 2.956a4.927 4.927 0 0 0-4.014-2.068 4.953 4.953 0 0 0-4.945 4.95 4.944 4.944 0 1 0 9.89 0c0-.393-.044-.771-.131-1.135l6.472-2.956c.843 1.121 2.181 1.864 3.679 1.864.888 0 1.702-.248 2.4-.685l5.134 5.373a6.446 6.446 0 0 0-1.367 3.975c0 3.581 2.909 6.493 6.487 6.493 3.578 0 6.486-2.912 6.486-6.493 0-3.582-2.908-6.494-6.486-6.494a6.389 6.389 0 0 0-3.738 1.194l-5.134-5.372c.509-.743.8-1.631.8-2.578 0-.99-.32-1.921-.858-2.664l8.479-9.318a5.886 5.886 0 0 0 3.112.903zm-30.266 20.907a3.025 3.025 0 0 1-3.025-3.028 3.025 3.025 0 1 1 6.05 0 3.024 3.024 0 0 1-3.025 3.028zm30.266-30.473a3.817 3.817 0 0 1 3.811 3.815 3.816 3.816 0 0 1-3.811 3.814 3.825 3.825 0 0 1-3.81-3.814 3.816 3.816 0 0 1 3.81-3.815zm-27.022 8.415c0-.99.814-1.805 1.803-1.805s1.804.815 1.804 1.805-.815 1.806-1.804 1.806a1.814 1.814 0 0 1-1.803-1.806zm11.722 14.88a2.665 2.665 0 0 1 0-5.329 2.665 2.665 0 0 1 0 5.329zm17.22 10.6a4.577 4.577 0 0 1-4.567 4.571 4.577 4.577 0 0 1-4.567-4.571 4.577 4.577 0 0 1 4.567-4.572 4.577 4.577 0 0 1 4.567 4.572z"/>
  <path id="path53" fill="#fff" d="M455.491 434.395a3.025 3.025 0 0 1-3.025-3.028 3.025 3.025 0 1 1 6.05 0 3.024 3.024 0 0 1-3.025 3.028z"/>
  <path id="path54" fill="#fff" d="M470.457 427.217a2.665 2.665 0 0 1 0-5.329 2.665 2.665 0 0 1 0 5.329z"/>
  <path id="path55" fill="#fff" d="M458.735 412.337c0-.99.814-1.805 1.803-1.805s1.804.815 1.804 1.805-.815 1.806-1.804 1.806a1.814 1.814 0 0 1-1.803-1.806z"/>
  <path id="path56" fill="#fff" d="M487.677 437.817a4.577 4.577 0 0 1-4.567 4.571 4.577 4.577 0 0 1-4.567-4.571 4.577 4.577 0 0 1 4.567-4.572 4.577 4.577 0 0 1 4.567 4.572z"/>
  <path id="path57" fill="#fff" d="M485.757 403.922a3.817 3.817 0 0 1 3.811 3.815 3.816 3.816 0 0 1-3.811 3.814 3.825 3.825 0 0 1-3.81-3.814 3.816 3.816 0 0 1 3.81-3.815z"/>
  <path id="path58" fill="#fff" d="M485.757 413.488a5.736 5.736 0 0 0 5.731-5.737c0-3.159-2.56-5.751-5.731-5.751a5.735 5.735 0 0 0-5.73 5.737 5.67 5.67 0 0 0 1.222 3.538l-8.479 9.318a4.622 4.622 0 0 0-2.313-.626c-.742 0-1.454.174-2.08.495l-4.828-5.941a3.664 3.664 0 0 0 .712-2.184 3.732 3.732 0 0 0-3.723-3.727 3.732 3.732 0 0 0-3.723 3.727 3.733 3.733 0 0 0 3.723 3.728c.538 0 1.062-.117 1.527-.335l4.814 5.94a4.548 4.548 0 0 0-1.018 2.883c0 .335.044.67.102.99l-6.472 2.956a4.927 4.927 0 0 0-4.014-2.068 4.953 4.953 0 0 0-4.945 4.95 4.944 4.944 0 1 0 9.89 0c0-.393-.044-.771-.131-1.135l6.472-2.956c.843 1.121 2.181 1.864 3.679 1.864.888 0 1.702-.248 2.4-.685l5.134 5.373a6.446 6.446 0 0 0-1.367 3.975c0 3.581 2.909 6.493 6.487 6.493 3.578 0 6.486-2.912 6.486-6.493 0-3.582-2.908-6.494-6.486-6.494a6.389 6.389 0 0 0-3.738 1.194l-5.134-5.372c.509-.743.8-1.631.8-2.578 0-.99-.32-1.921-.858-2.664l8.479-9.318a5.886 5.886 0 0 0 3.112.903zm-30.266 20.907a3.025 3.025 0 0 1-3.025-3.028 3.025 3.025 0 1 1 6.05 0 3.024 3.024 0 0 1-3.025 3.028zm30.266-30.473a3.817 3.817 0 0 1 3.811 3.815 3.816 3.816 0 0 1-3.811 3.814 3.825 3.825 0 0 1-3.81-3.814 3.816 3.816 0 0 1 3.81-3.815zm-27.022 8.415c0-.99.814-1.805 1.803-1.805s1.804.815 1.804 1.805-.815 1.806-1.804 1.806a1.814 1.814 0 0 1-1.803-1.806zm11.722 14.88a2.665 2.665 0 0 1 0-5.329 2.665 2.665 0 0 1 0 5.329zm17.22 10.6a4.577 4.577 0 0 1-4.567 4.571 4.577 4.577 0 0 1-4.567-4.571 4.577 4.577 0 0 1 4.567-4.572 4.577 4.577 0 0 1 4.567 4.572z"/>
  <path id="path59" fill="#242527" d="M451.766 481.768v6.72c0 .672.165 1.189.496 1.552.331.363.816.544 1.456.544s1.131-.181 1.472-.544c.341-.363.512-.88.512-1.552v-6.72h2.736v6.704c0 1.003-.213 1.851-.64 2.544a4.093 4.093 0 0 1-1.728 1.568c-.715.352-1.515.528-2.4.528s-1.68-.171-2.384-.512a3.954 3.954 0 0 1-1.648-1.568c-.405-.704-.608-1.557-.608-2.56v-6.704zm12.225 11.36c-.778 0-1.472-.133-2.08-.4-.608-.267-1.088-.629-1.44-1.088a2.926 2.926 0 0 1-.592-1.568h2.704c.032.309.176.56.432.752.256.192.571.288.944.288.342 0 .603-.064.784-.192.192-.139.288-.315.288-.528 0-.256-.133-.443-.4-.56-.266-.128-.698-.267-1.296-.416a13.14 13.14 0 0 1-1.6-.464 2.886 2.886 0 0 1-1.104-.784c-.309-.363-.464-.848-.464-1.456 0-.512.139-.976.416-1.392.288-.427.704-.763 1.248-1.008.555-.245 1.211-.368 1.968-.368 1.12 0 2 .277 2.64.832.651.555 1.024 1.291 1.12 2.208h-2.528a1.074 1.074 0 0 0-.416-.736c-.224-.181-.522-.272-.896-.272-.32 0-.565.064-.736.192a.569.569 0 0 0-.256.496c0 .256.134.448.4.576.278.128.704.256 1.28.384.662.171 1.2.341 1.616.512.416.16.779.427 1.088.8.32.363.486.853.496 1.472 0 .523-.149.992-.448 1.408-.288.405-.709.725-1.264.96-.544.235-1.178.352-1.904.352zm13.706-4.736c0 .256-.016.523-.048.8h-6.192c.043.555.219.981.528 1.28.32.288.709.432 1.168.432.683 0 1.157-.288 1.424-.864h2.912a3.932 3.932 0 0 1-.816 1.584 3.976 3.976 0 0 1-1.456 1.104c-.587.267-1.243.4-1.968.4-.875 0-1.653-.187-2.336-.56a3.981 3.981 0 0 1-1.6-1.6c-.384-.693-.576-1.504-.576-2.432 0-.928.187-1.739.56-2.432a3.981 3.981 0 0 1 1.6-1.6c.683-.373 1.467-.56 2.352-.56.864 0 1.632.181 2.304.544.672.363 1.195.88 1.568 1.552.384.672.576 1.456.576 2.352zm-2.8-.72c0-.469-.16-.843-.48-1.12-.32-.277-.72-.416-1.2-.416-.459 0-.848.133-1.168.4-.309.267-.501.645-.576 1.136zm6.979-2.112c.32-.491.72-.875 1.2-1.152a3.052 3.052 0 0 1 1.6-.432v2.896h-.752c-.682 0-1.194.149-1.536.448-.341.288-.512.8-.512 1.536V493h-2.736v-8.928h2.736zm7.74 7.568c-.778 0-1.472-.133-2.08-.4-.608-.267-1.088-.629-1.44-1.088a2.926 2.926 0 0 1-.592-1.568h2.704c.032.309.176.56.432.752.256.192.571.288.944.288.342 0 .603-.064.784-.192.192-.139.288-.315.288-.528 0-.256-.133-.443-.4-.56-.266-.128-.698-.267-1.296-.416a13.14 13.14 0 0 1-1.6-.464 2.886 2.886 0 0 1-1.104-.784c-.309-.363-.464-.848-.464-1.456 0-.512.139-.976.416-1.392.288-.427.704-.763 1.248-1.008.555-.245 1.211-.368 1.968-.368 1.12 0 2 .277 2.64.832.651.555 1.024 1.291 1.12 2.208h-2.528a1.074 1.074 0 0 0-.416-.736c-.224-.181-.522-.272-.896-.272-.32 0-.565.064-.736.192a.569.569 0 0 0-.256.496c0 .256.134.448.4.576.278.128.704.256 1.28.384.662.171 1.2.341 1.616.512.416.16.779.427 1.088.8.32.363.486.853.496 1.472 0 .523-.149.992-.448 1.408-.288.405-.709.725-1.264.96-.544.235-1.178.352-1.904.352z"/>
  <path id="path60" fill="#242527" d="M480.936 406.305c.004-.119.006-.236.006-.349 0-5.498-4.125-9.956-9.982-9.956-5.857 0-10.605 4.458-10.605 9.956 0 .249.01.514.029.792.002.606.069 1.219.225 1.824.031.183.065.368.101.556l-.09-.002c-.812 0-1.645.632-.753 3.781.694 2.454 1.341 3.143 1.831 3.182.275 1.774.892 3.84 2.222 5.563-.113.715-.336 1.718-.762 2.412l-.023.015c-.303.192-5.408 1.355-8.244 3.412-1.476 1.071-2.402 1.663-3.434 3.188-1.935 2.86-1.28 13.005-1.457 13.107h40.675c-.176-.102.478-10.247-1.457-13.107-1.032-1.525-1.951-2.127-3.434-3.188-2.791-1.995-8.122-3.214-8.122-3.214-.543-.715-.803-1.927-.922-2.719 1.182-1.576 1.781-3.426 2.074-5.074.107.073.23.122.366.122.494 0 1.159-.654 1.876-3.184.742-2.618.291-3.496-.35-3.717.263-1.258.324-2.387.23-3.4z"/>
  <path id="path61" fill="#242527" d="M471.061 156.939a1.502 1.502 0 0 0-2.122 0l-9.546 9.546a1.502 1.502 0 0 0 0 2.122 1.502 1.502 0 0 0 2.122 0l8.485-8.486 8.485 8.486a1.502 1.502 0 0 0 2.122 0 1.502 1.502 0 0 0 0-2.122zM470 158h-1.5v194h3V158Z"/>
  <path id="rect61" fill="#fff" d="M435 271h70v57h-70z"/>
  <path id="path62" fill="#242527" d="M448.126 294.612c-.821 0-1.557-.133-2.208-.4a3.66 3.66 0 0 1-1.568-1.184c-.384-.523-.586-1.152-.608-1.888h2.912c.043.416.187.736.432.96.246.213.566.32.96.32.406 0 .726-.091.96-.272.235-.192.352-.453.352-.784a.906.906 0 0 0-.288-.688 2.125 2.125 0 0 0-.688-.448c-.266-.117-.65-.251-1.152-.4-.725-.224-1.317-.448-1.776-.672a3.293 3.293 0 0 1-1.184-.992c-.33-.437-.496-1.008-.496-1.712 0-1.045.379-1.861 1.136-2.448.758-.597 1.744-.896 2.96-.896 1.238 0 2.235.299 2.992.896.758.587 1.163 1.408 1.216 2.464h-2.96c-.021-.363-.154-.645-.4-.848-.245-.213-.56-.32-.944-.32-.33 0-.597.091-.8.272-.202.171-.304.421-.304.752 0 .363.171.645.512.848.342.203.875.421 1.6.656.726.245 1.312.48 1.76.704.459.224.854.549 1.184.976.331.427.496.976.496 1.648 0 .64-.165 1.221-.496 1.744-.32.523-.789.939-1.408 1.248-.618.309-1.349.464-2.192.464zm14.196-4.72c0 .256-.016.523-.048.8h-6.192c.043.555.219.981.528 1.28.32.288.709.432 1.168.432.683 0 1.157-.288 1.424-.864h2.912a3.932 3.932 0 0 1-.816 1.584 3.976 3.976 0 0 1-1.456 1.104c-.587.267-1.243.4-1.968.4-.875 0-1.653-.187-2.336-.56a3.981 3.981 0 0 1-1.6-1.6c-.384-.693-.576-1.504-.576-2.432 0-.928.187-1.739.56-2.432a3.981 3.981 0 0 1 1.6-1.6c.683-.373 1.467-.56 2.352-.56.864 0 1.632.181 2.304.544.672.363 1.195.88 1.568 1.552.384.672.576 1.456.576 2.352zm-2.8-.72c0-.469-.16-.843-.48-1.12-.32-.277-.72-.416-1.2-.416-.459 0-.848.133-1.168.4-.309.267-.501.645-.576 1.136zm6.979-6.512v11.84h-2.736v-11.84zm10.399 7.232c0 .256-.016.523-.048.8h-6.192c.043.555.219.981.528 1.28.32.288.71.432 1.168.432.683 0 1.158-.288 1.424-.864h2.912a3.932 3.932 0 0 1-.816 1.584 3.976 3.976 0 0 1-1.456 1.104c-.586.267-1.242.4-1.968.4-.874 0-1.653-.187-2.336-.56a3.987 3.987 0 0 1-1.6-1.6c-.384-.693-.576-1.504-.576-2.432 0-.928.187-1.739.56-2.432a3.987 3.987 0 0 1 1.6-1.6c.683-.373 1.467-.56 2.352-.56.864 0 1.632.181 2.304.544.672.363 1.195.88 1.568 1.552.384.672.576 1.456.576 2.352zm-2.8-.72c0-.469-.16-.843-.48-1.12-.32-.277-.72-.416-1.2-.416-.458 0-.848.133-1.168.4-.309.267-.501.645-.576 1.136zm3.7.864c0-.928.186-1.739.56-2.432a4.012 4.012 0 0 1 1.584-1.6c.682-.373 1.461-.56 2.336-.56 1.12 0 2.053.293 2.8.88.757.587 1.253 1.413 1.488 2.48h-2.912c-.246-.683-.72-1.024-1.424-1.024-.502 0-.902.197-1.2.592-.299.384-.448.939-.448 1.664s.149 1.285.448 1.68c.298.384.698.576 1.2.576.704 0 1.178-.341 1.424-1.024h2.912c-.235 1.045-.731 1.867-1.488 2.464-.758.597-1.691.896-2.8.896-.875 0-1.654-.187-2.336-.56a4.012 4.012 0 0 1-1.584-1.6c-.374-.693-.56-1.504-.56-2.432zm15.207 2.144v2.32h-1.392c-.992 0-1.765-.24-2.32-.72-.555-.491-.832-1.285-.832-2.384v-3.552h-1.088v-2.272h1.088v-2.176h2.736v2.176h1.792v2.272h-1.792v3.584c0 .267.064.459.192.576.128.117.341.176.64.176zm-48.622 13.088v2.192h-2.976v9.04h-2.736v-9.04h-2.976v-2.192zm5.437 11.36c-.875 0-1.664-.187-2.368-.56a4.162 4.162 0 0 1-1.648-1.6c-.395-.693-.592-1.504-.592-2.432 0-.917.202-1.723.608-2.416a4.107 4.107 0 0 1 1.664-1.616c.704-.373 1.493-.56 2.368-.56.874 0 1.664.187 2.368.56a4.113 4.113 0 0 1 1.664 1.616c.405.693.608 1.499.608 2.416 0 .917-.208 1.728-.624 2.432a4.123 4.123 0 0 1-1.68 1.6c-.704.373-1.494.56-2.368.56zm0-2.368c.522 0 .965-.192 1.328-.576.373-.384.56-.933.56-1.648 0-.715-.182-1.264-.544-1.648a1.708 1.708 0 0 0-1.312-.576c-.534 0-.976.192-1.328.576-.352.373-.528.923-.528 1.648 0 .715.17 1.264.512 1.648.352.384.789.576 1.312.576zm16.314-3.52c.65.139 1.173.464 1.568.976.394.501.592 1.077.592 1.728 0 .939-.331 1.685-.992 2.24-.651.544-1.563.816-2.736.816h-5.232v-11.232h5.056c1.141 0 2.032.261 2.672.784.65.523.976 1.232.976 2.128 0 .661-.176 1.211-.528 1.648-.342.437-.8.741-1.376.912zm-4.064-.928h1.792c.448 0 .789-.096 1.024-.288.245-.203.368-.496.368-.88s-.123-.677-.368-.88c-.235-.203-.576-.304-1.024-.304h-1.792zm2.016 4.48c.458 0 .81-.101 1.056-.304.256-.213.384-.517.384-.912s-.134-.704-.4-.928c-.256-.224-.614-.336-1.072-.336h-1.984v2.48zm9.859 2.336c-.875 0-1.664-.187-2.368-.56a4.162 4.162 0 0 1-1.648-1.6c-.395-.693-.592-1.504-.592-2.432 0-.917.202-1.723.608-2.416a4.107 4.107 0 0 1 1.664-1.616c.704-.373 1.493-.56 2.368-.56.874 0 1.664.187 2.368.56a4.113 4.113 0 0 1 1.664 1.616c.405.693.608 1.499.608 2.416 0 .917-.208 1.728-.624 2.432a4.123 4.123 0 0 1-1.68 1.6c-.704.373-1.494.56-2.368.56zm0-2.368c.522 0 .965-.192 1.328-.576.373-.384.56-.933.56-1.648 0-.715-.182-1.264-.544-1.648a1.708 1.708 0 0 0-1.312-.576c-.534 0-.976.192-1.328.576-.352.373-.528.923-.528 1.648 0 .715.17 1.264.512 1.648.352.384.789.576 1.312.576zm10.187 2.368c-.875 0-1.664-.187-2.368-.56a4.168 4.168 0 0 1-1.648-1.6c-.395-.693-.592-1.504-.592-2.432 0-.917.203-1.723.608-2.416a4.107 4.107 0 0 1 1.664-1.616c.704-.373 1.493-.56 2.368-.56.875 0 1.664.187 2.368.56a4.107 4.107 0 0 1 1.664 1.616c.405.693.608 1.499.608 2.416 0 .917-.208 1.728-.624 2.432a4.11 4.11 0 0 1-1.68 1.6c-.704.373-1.493.56-2.368.56zm0-2.368c.523 0 .965-.192 1.328-.576.373-.384.56-.933.56-1.648 0-.715-.181-1.264-.544-1.648a1.707 1.707 0 0 0-1.312-.576c-.533 0-.976.192-1.328.576-.352.373-.528.923-.528 1.648 0 .715.171 1.264.512 1.648.352.384.789.576 1.312.576zm9.756 2.368c-.779 0-1.472-.133-2.08-.4-.608-.267-1.088-.629-1.44-1.088a2.918 2.918 0 0 1-.592-1.568h2.704c.032.309.176.56.432.752.256.192.57.288.944.288.341 0 .602-.064.784-.192.192-.139.288-.315.288-.528 0-.256-.134-.443-.4-.56-.267-.128-.699-.267-1.296-.416a13.088 13.088 0 0 1-1.6-.464 2.871 2.871 0 0 1-1.104-.784c-.31-.363-.464-.848-.464-1.456 0-.512.138-.976.416-1.392.288-.427.704-.763 1.248-1.008.554-.245 1.21-.368 1.968-.368 1.12 0 2 .277 2.64.832.65.555 1.024 1.291 1.12 2.208h-2.528a1.082 1.082 0 0 0-.416-.736c-.224-.181-.523-.272-.896-.272-.32 0-.566.064-.736.192a.567.567 0 0 0-.256.496c0 .256.133.448.4.576.277.128.704.256 1.28.384.661.171 1.2.341 1.616.512.416.16.778.427 1.088.8.32.363.485.853.496 1.472 0 .523-.15.992-.448 1.408-.288.405-.71.725-1.264.96-.544.235-1.179.352-1.904.352zm10.266-2.448v2.32h-1.392c-.992 0-1.766-.24-2.32-.72-.555-.491-.832-1.285-.832-2.384v-3.552h-1.088v-2.272h1.088v-2.176h2.736v2.176h1.792v2.272h-1.792v3.584c0 .267.064.459.192.576.128.117.341.176.64.176z"/>
  <g id="g65" filter="url(#filter3_d_2321_3167)" transform="translate(-290 -244)">
    <rect id="rect62" width="152" height="200" x="290" y="440" fill="#fff" rx="10" ry="10"/>
    <rect id="rect63" width="149" height="197" x="291.5" y="441.5" stroke="#242527" stroke-linecap="round" stroke-width="3" rx="8.5" ry="8.5"/>
    <path id="path63" fill="#36b07d" d="M391.973 486.983a.554.554 0 0 0-.416-.429c-6.864-1.678-22.723 4.302-31.315 12.891a37.175 37.175 0 0 0-4.175 4.934c-2.65-.235-5.299-.039-7.558.945-6.371 2.805-8.226 10.122-8.743 13.269-.029.173-.018.349.032.517a1.142 1.142 0 0 0 .691.733c.164.06.34.082.513.063l10.232-1.129c.007.772.054 1.542.139 2.309.052.532.288 1.03.668 1.406l3.963 3.953c.376.38.874.616 1.406.668a22.56 22.56 0 0 0 2.295.139l-1.122 10.219a1.133 1.133 0 0 0 .796 1.204c.167.05.344.061.516.032 3.142-.503 10.472-2.359 13.26-8.73.984-2.258 1.186-4.895.959-7.532a37.212 37.212 0 0 0 4.946-4.176c8.619-8.576 14.565-24.081 12.913-31.286zm-21.512 21.055a5.624 5.624 0 0 1 3.976-9.603 5.619 5.619 0 0 1 5.197 3.473 5.624 5.624 0 0 1-3.045 7.35 5.614 5.614 0 0 1-6.128-1.22z"/>
    <path id="path64" fill="#36b07d" d="M355.734 529.308c-.642.644-1.672.894-2.912 1.109-2.785.474-5.245-1.933-4.745-4.749.191-1.067.756-2.564 1.108-2.915a.512.512 0 0 0-.428-.873 7.03 7.03 0 0 0-4.117 2.006c-2.755 2.757-3.015 12.989-3.015 12.989s10.238-.26 12.993-3.018a7.002 7.002 0 0 0 2.007-4.12c.043-.49-.553-.782-.891-.429z"/>
    <path id="path65" fill="#242527" d="M330.991 563.879c0 .907-.209 1.74-.625 2.499-.417.744-1.056 1.346-1.919 1.807-.863.462-1.934.692-3.213.692h-2.365v5.623h-3.816v-15.664h6.181c1.249 0 2.306.216 3.168.647.863.432 1.51 1.027 1.942 1.785.431.759.647 1.629.647 2.611zm-6.047 1.964c.729 0 1.272-.171 1.629-.514.357-.342.535-.825.535-1.45s-.178-1.108-.535-1.45c-.357-.342-.9-.513-1.629-.513h-2.075v3.927zm11.849-1.719a4.93 4.93 0 0 1 1.673-1.606 4.248 4.248 0 0 1 2.231-.602v4.038h-1.048c-.952 0-1.666.208-2.142.625-.476.402-.714 1.116-.714 2.142v5.779h-3.816v-12.451h3.816zm11.396 10.555c-1.22 0-2.321-.261-3.303-.781a5.814 5.814 0 0 1-2.298-2.232c-.55-.967-.826-2.097-.826-3.391 0-1.28.283-2.403.848-3.37a5.737 5.737 0 0 1 2.321-2.253c.982-.521 2.082-.781 3.302-.781 1.22 0 2.321.26 3.302.781a5.73 5.73 0 0 1 2.321 2.253c.565.967.848 2.09.848 3.37 0 1.279-.29 2.409-.87 3.391a5.75 5.75 0 0 1-2.343 2.232c-.982.52-2.083.781-3.302.781zm0-3.303c.728 0 1.346-.268 1.852-.803.52-.536.78-1.302.78-2.298 0-.997-.252-1.763-.758-2.299a2.383 2.383 0 0 0-1.83-.803c-.744 0-1.361.268-1.852.803-.491.521-.736 1.287-.736 2.299 0 .996.238 1.762.714 2.298a2.383 2.383 0 0 0 1.83.803zm14.14-.446 2.7-8.881h4.06l-4.417 12.451h-4.709l-4.417-12.451h4.083zm10.285-10.175c-.669 0-1.219-.193-1.651-.58a1.97 1.97 0 0 1-.625-1.473c0-.595.209-1.085.625-1.472.432-.402.982-.603 1.651-.603.655 0 1.19.201 1.607.603.431.387.647.877.647 1.472 0 .581-.216 1.071-.647 1.473-.417.387-.952.58-1.607.58zm1.897 1.294V574.5h-3.816v-12.451zm2.006 6.203c0-1.279.238-2.402.714-3.369.491-.967 1.153-1.711 1.986-2.231.833-.521 1.763-.781 2.789-.781.819 0 1.562.171 2.232.513.684.342 1.219.803 1.606 1.383v-5.779h3.816V574.5h-3.816v-1.785c-.357.595-.87 1.071-1.539 1.428-.655.357-1.421.536-2.299.536-1.026 0-1.956-.261-2.789-.781-.833-.536-1.495-1.287-1.986-2.254-.476-.982-.714-2.112-.714-3.392zm9.327.023c0-.952-.268-1.704-.803-2.254a2.54 2.54 0 0 0-1.919-.825c-.759 0-1.406.275-1.941.825-.521.536-.781 1.279-.781 2.231s.26 1.711.781 2.276a2.606 2.606 0 0 0 1.941.826c.759 0 1.398-.275 1.919-.826.535-.55.803-1.301.803-2.253zm18.313-.201c0 .357-.023.729-.067 1.116h-8.635c.059.773.305 1.368.736 1.785.446.401.989.602 1.629.602.952 0 1.614-.402 1.986-1.205h4.061a5.512 5.512 0 0 1-1.138 2.209 5.543 5.543 0 0 1-2.031 1.54c-.818.372-1.733.558-2.744.558-1.22 0-2.306-.261-3.258-.781a5.554 5.554 0 0 1-2.231-2.232c-.536-.967-.804-2.097-.804-3.391s.261-2.425.781-3.392a5.554 5.554 0 0 1 2.232-2.231c.952-.521 2.045-.781 3.28-.781 1.205 0 2.276.253 3.213.759a5.366 5.366 0 0 1 2.186 2.164c.536.937.804 2.03.804 3.28zm-3.905-1.004c0-.655-.223-1.175-.669-1.562-.447-.387-1.005-.58-1.674-.58-.64 0-1.183.186-1.629.558-.431.371-.699.9-.803 1.584zm9.733-2.946a4.924 4.924 0 0 1 1.674-1.606 4.248 4.248 0 0 1 2.231-.602v4.038h-1.049c-.952 0-1.666.208-2.142.625-.476.402-.714 1.116-.714 2.142v5.779h-3.815v-12.451h3.815zm-83.813 32.343c.907.194 1.636.647 2.187 1.361.55.7.825 1.503.825 2.41 0 1.309-.461 2.351-1.383 3.124-.908.759-2.179 1.138-3.816 1.138h-7.296v-15.664h7.051c1.592 0 2.834.365 3.726 1.094.908.729 1.361 1.718 1.361 2.967 0 .923-.245 1.689-.736 2.299-.476.609-1.116 1.033-1.919 1.271zm-5.667-1.294h2.499c.624 0 1.1-.134 1.428-.401.342-.283.513-.692.513-1.228 0-.535-.171-.944-.513-1.227-.328-.282-.804-.424-1.428-.424h-2.499zm2.811 6.248c.64 0 1.131-.141 1.473-.424.357-.298.535-.722.535-1.272s-.186-.982-.558-1.294c-.357-.312-.855-.469-1.495-.469h-2.766v3.459zm13.749 3.258c-1.22 0-2.321-.261-3.303-.781a5.82 5.82 0 0 1-2.298-2.232c-.55-.967-.825-2.097-.825-3.391 0-1.28.282-2.403.848-3.37a5.728 5.728 0 0 1 2.32-2.253c.982-.521 2.083-.781 3.302-.781 1.22 0 2.321.26 3.303.781a5.734 5.734 0 0 1 2.32 2.253c.566.967.848 2.09.848 3.37 0 1.279-.29 2.409-.87 3.391a5.738 5.738 0 0 1-2.343 2.232c-.982.52-2.082.781-3.302.781zm0-3.303c.729 0 1.346-.268 1.852-.803.52-.536.781-1.302.781-2.298 0-.997-.253-1.763-.759-2.299a2.383 2.383 0 0 0-1.83-.803c-.743 0-1.361.268-1.852.803-.49.521-.736 1.287-.736 2.299 0 .996.238 1.762.714 2.298a2.383 2.383 0 0 0 1.83.803zm14.207 3.303c-1.22 0-2.321-.261-3.302-.781a5.823 5.823 0 0 1-2.299-2.232c-.55-.967-.825-2.097-.825-3.391 0-1.28.282-2.403.848-3.37a5.728 5.728 0 0 1 2.32-2.253c.982-.521 2.083-.781 3.302-.781 1.22 0 2.321.26 3.303.781a5.728 5.728 0 0 1 2.32 2.253c.566.967.848 2.09.848 3.37 0 1.279-.29 2.409-.87 3.391a5.738 5.738 0 0 1-2.343 2.232c-.982.52-2.082.781-3.302.781zm0-3.303c.729 0 1.346-.268 1.852-.803.52-.536.781-1.302.781-2.298 0-.997-.253-1.763-.759-2.299a2.383 2.383 0 0 0-1.83-.803c-.743 0-1.361.268-1.852.803-.49.521-.736 1.287-.736 2.299 0 .996.238 1.762.714 2.298a2.383 2.383 0 0 0 1.83.803zm13.604 3.303c-1.085 0-2.052-.186-2.9-.558-.848-.372-1.518-.878-2.008-1.518a4.079 4.079 0 0 1-.826-2.186h3.771c.045.431.245.781.602 1.048.357.268.796.402 1.317.402.476 0 .84-.089 1.093-.268.268-.193.402-.439.402-.736 0-.357-.186-.617-.558-.781-.372-.178-.974-.372-1.807-.58-.893-.208-1.637-.424-2.232-.647a4.002 4.002 0 0 1-1.539-1.094c-.432-.505-.647-1.182-.647-2.03 0-.714.193-1.361.58-1.941.401-.595.982-1.064 1.74-1.406.774-.342 1.689-.513 2.745-.513 1.562 0 2.789.387 3.681 1.16.908.774 1.428 1.8 1.562 3.079h-3.525a1.507 1.507 0 0 0-.58-1.026c-.313-.253-.729-.379-1.25-.379-.446 0-.788.089-1.026.267a.793.793 0 0 0-.357.692c0 .357.186.625.558.803.386.179.981.357 1.785.536.922.238 1.673.476 2.253.714a3.66 3.66 0 0 1 1.517 1.116c.447.505.677 1.19.692 2.052 0 .729-.208 1.384-.625 1.964-.401.565-.989 1.011-1.762 1.339-.759.327-1.644.491-2.656.491zm14.317-3.414v3.235h-1.941c-1.384 0-2.462-.335-3.236-1.004-.773-.684-1.16-1.793-1.16-3.325v-4.953h-1.517v-3.169h1.517v-3.034h3.815v3.034h2.499v3.169h-2.499v4.998c0 .372.09.64.268.803.179.164.476.246.893.246zm4.044-10.51c-.669 0-1.22-.193-1.651-.58a1.966 1.966 0 0 1-.625-1.473c0-.595.208-1.085.625-1.472.431-.402.982-.603 1.651-.603.655 0 1.19.201 1.607.603.431.387.647.877.647 1.472 0 .581-.216 1.071-.647 1.473-.417.387-.952.58-1.607.58zm1.897 1.294V604.5h-3.816v-12.451zm10.351-.133c1.458 0 2.618.476 3.481 1.428.878.937 1.316 2.231 1.316 3.882v7.274h-3.793v-6.761c0-.833-.216-1.48-.647-1.941-.431-.461-1.011-.692-1.74-.692-.729 0-1.309.231-1.741.692-.431.461-.647 1.108-.647 1.941v6.761h-3.815v-12.451h3.815v1.652a3.945 3.945 0 0 1 1.562-1.295c.655-.327 1.391-.49 2.209-.49zm12.179-.045c.878 0 1.644.178 2.298.535.67.357 1.183.826 1.54 1.406v-1.763h3.815v12.429c0 1.145-.23 2.179-.691 3.101-.447.937-1.138 1.681-2.075 2.231-.923.551-2.075.826-3.459.826-1.844 0-3.339-.439-4.485-1.316-1.145-.863-1.8-2.038-1.963-3.526h3.771c.119.476.401.848.847 1.116.447.282.997.424 1.652.424.788 0 1.413-.231 1.874-.692.476-.446.714-1.168.714-2.164v-1.763c-.372.58-.885 1.056-1.54 1.428-.654.357-1.42.536-2.298.536-1.026 0-1.956-.261-2.789-.781-.833-.536-1.495-1.287-1.986-2.254-.476-.982-.714-2.112-.714-3.392 0-1.279.238-2.402.714-3.369.491-.967 1.153-1.711 1.986-2.231.833-.521 1.763-.781 2.789-.781zm3.838 6.404c0-.952-.268-1.704-.803-2.254a2.54 2.54 0 0 0-1.919-.825c-.759 0-1.406.275-1.941.825-.521.536-.781 1.279-.781 2.231s.26 1.711.781 2.276a2.606 2.606 0 0 0 1.941.826c.758 0 1.398-.275 1.919-.826.535-.55.803-1.301.803-2.253z"/>
  </g>
  <defs id="defs73">
    <filter id="filter0_d_2321_3167" width="295" height="156" x="1011" y="435" color-interpolation-filters="sRGB" filterUnits="userSpaceOnUse">
      <feFlood id="feFlood65" flood-opacity="0" result="BackgroundImageFix"/>
      <feColorMatrix id="feColorMatrix65" in="SourceAlpha" result="hardAlpha" type="matrix" values="0 0 0 0 0 0 0 0 0 0 0 0 0 0 0 0 0 0 127 0"/>
      <feOffset id="feOffset65" dx="10" dy="10"/>
      <feColorMatrix id="feColorMatrix66" type="matrix" values="0 0 0 0 0.19967 0 0 0 0 0.213215 0 0 0 0 0.220833 0 0 0 0.8 0"/>
      <feBlend id="feBlend66" in2="BackgroundImageFix" mode="normal" result="effect1_dropShadow_2321_3167"/>
      <feBlend id="feBlend67" in="SourceGraphic" in2="effect1_dropShadow_2321_3167" mode="normal" result="shape"/>
    </filter>
    <filter id="filter1_d_2321_3167" width="272" height="133" x="1016" y="440" color-interpolation-filters="sRGB" filterUnits="userSpaceOnUse">
      <feFlood id="feFlood67" flood-opacity="0" result="BackgroundImageFix"/>
      <feColorMatrix id="feColorMatrix67" in="SourceAlpha" result="hardAlpha" type="matrix" values="0 0 0 0 0 0 0 0 0 0 0 0 0 0 0 0 0 0 127 0"/>
      <feMorphology id="feMorphology67" in="SourceAlpha" operator="erode" radius="3" result="effect1_dropShadow_2321_3167"/>
      <feOffset id="feOffset67" dx="10" dy="10"/>
      <feColorMatrix id="feColorMatrix68" type="matrix" values="0 0 0 0 0.92 0 0 0 0 0.92 0 0 0 0 0.92 0 0 0 1 0"/>
      <feBlend id="feBlend68" in2="BackgroundImageFix" mode="normal" result="effect1_dropShadow_2321_3167"/>
      <feBlend id="feBlend69" in="SourceGraphic" in2="effect1_dropShadow_2321_3167" mode="normal" result="shape"/>
    </filter>
    <filter id="filter2_d_2321_3167" width="136" height="142" x="701" y="244" color-interpolation-filters="sRGB" filterUnits="userSpaceOnUse">
      <feFlood id="feFlood69" flood-opacity="0" result="BackgroundImageFix"/>
      <feColorMatrix id="feColorMatrix69" in="SourceAlpha" result="hardAlpha" type="matrix" values="0 0 0 0 0 0 0 0 0 0 0 0 0 0 0 0 0 0 127 0"/>
      <feMorphology id="feMorphology69" in="SourceAlpha" operator="erode" radius="3" result="effect1_dropShadow_2321_3167"/>
      <feOffset id="feOffset69" dx="10" dy="10"/>
      <feColorMatrix id="feColorMatrix70" type="matrix" values="0 0 0 0 0.92 0 0 0 0 0.92 0 0 0 0 0.92 0 0 0 1 0"/>
      <feBlend id="feBlend70" in2="BackgroundImageFix" mode="normal" result="effect1_dropShadow_2321_3167"/>
      <feBlend id="feBlend71" in="SourceGraphic" in2="effect1_dropShadow_2321_3167" mode="normal" result="shape"/>
    </filter>
    <filter id="filter3_d_2321_3167" width="161.762" height="209.762" x="290" y="440" color-interpolation-filters="sRGB" filterUnits="userSpaceOnUse">
      <feFlood id="feFlood71" flood-opacity="0" result="BackgroundImageFix"/>
      <feColorMatrix id="feColorMatrix71" in="SourceAlpha" result="hardAlpha" type="matrix" values="0 0 0 0 0 0 0 0 0 0 0 0 0 0 0 0 0 0 127 0"/>
      <feMorphology id="feMorphology71" in="SourceAlpha" operator="erode" radius="4.184" result="effect1_dropShadow_2321_3167"/>
      <feOffset id="feOffset71" dx="13.946" dy="13.946"/>
      <feColorMatrix id="feColorMatrix72" type="matrix" values="0 0 0 0 0.92 0 0 0 0 0.92 0 0 0 0 0.92 0 0 0 1 0"/>
      <feBlend id="feBlend72" in2="BackgroundImageFix" mode="normal" result="effect1_dropShadow_2321_3167"/>
      <feBlend id="feBlend73" in="SourceGraphic" in2="effect1_dropShadow_2321_3167" mode="normal" result="shape"/>
    </filter>
  </defs>
</svg>
