<svg viewBox="0 0 596 365" xmlns="http://www.w3.org/2000/svg"><g fill="#a7a9ac"><g opacity=".8"><path d="m343.13 248.01h.19v105.02h-.19z"/><path d="m358.15 248.01h.19v105.02h-.19z"/><path d="m373.16 248.01h.19v105.02h-.19z"/><path d="m388.18 248.01h.19v105.02h-.19z"/><path d="m403.19 248.01h.19v105.02h-.19z"/><path d="m418.21 248.01h.19v105.02h-.19z"/><path d="m433.22 248.01h.19v105.02h-.19z"/></g><g opacity=".8"><path d="m343 263.31h101.12v.19h-101.12z"/><path d="m343 278.32h101.12v.19h-101.12z"/><path d="m343 293.34h101.12v.19h-101.12z"/><path d="m343 308.35h101.12v.19h-101.12z"/><path d="m343 323.37h101.12v.19h-101.12z"/><path d="m343 338.39h101.12v.19h-101.12z"/></g><g opacity=".8"><path d="m76.43 260h.19v61h-.19z"/><path d="m91.45 260h.19v61h-.19z"/><path d="m106.46 260h.19v61h-.19z"/></g><g opacity=".8"><path d="m65 268.74h52.36v.19h-52.36z"/><path d="m65 283.75h52.36v.19h-52.36z"/><path d="m65 298.77h52.36v.19h-52.36z"/><path d="m65 313.79h52.36v.19h-52.36z"/></g><g opacity=".8"><path d="m402.84 30.97h.19v61h-.19z"/><path d="m417.85 30.97h.19v61h-.19z"/><path d="m432.87 30.97h.19v61h-.19z"/></g><g opacity=".8"><path d="m391.41 39.71h52.36v.19h-52.36z"/><path d="m391.41 54.72h52.36v.19h-52.36z"/><path d="m391.41 69.74h52.36v.19h-52.36z"/><path d="m391.41 84.75h52.36v.19h-52.36z"/></g></g><path d="m266.6 139.31v-10.92l7.82-4.68 9.31 4.68-.3 10.92-8.12 4.69z" fill="#ffd647"/><path d="m317.39 224.43v-10.92l7.82-4.69 9.31 4.68-.3 10.93-8.12 4.68z" fill="#ffd647"/><path d="m215.92 224.41v-10.92l7.82-4.68 9.31 4.68-.3 10.92-8.11 4.69z" fill="#ffd647"/><path d="m288.59 141.19-4.64-2.68v-9.37s0 0 0 0c0-.05 0-.1-.02-.15 0 0 0 0 0-.01 0-.02-.01-.04-.02-.06 0 0 0 0 0-.01 0-.02-.02-.04-.03-.07-.01-.02-.03-.04-.04-.06-.01-.02-.03-.03-.04-.05-.04-.04-.08-.07-.12-.09l-8.12-4.69v-3.3c0-.33-.27-.6-.6-.6s-.6.27-.6.6v3.3l-8.12 4.69s0 0 0 0c-.04.02-.08.05-.12.09-.01.01-.03.03-.04.05-.01.02-.03.04-.04.06s-.02.04-.03.07v.01c0 .02-.01.04-.02.06v.01c-.01.05-.02.1-.02.15v9.37l-4.64 2.68c-.29.16-.38.53-.22.81.11.19.31.3.52.3.1 0 .2-.03.3-.08l4.64-2.68 8.12 4.69s0 0 0 0l.06.03h.02c.02 0 .03.01.05.02h.03.04.03.05.02s.01 0 .02 0h.05.03.04.03c.02 0 .03-.01.05-.02h.02c.02 0 .04-.02.06-.03l8.12-4.69 4.64 2.68c.09.05.2.08.3.08.21 0 .41-.11.52-.3.16-.29.07-.65-.22-.81zm-13.66-16.22 7.22 4.17-7.22 4.17-7.22-4.17zm-7.82 5.2 5.42 3.13 1.81 1.04v8.34l-7.22-4.17v-8.34zm8.41 12.51v-8.34l1.81-1.04 5.42-3.13v8.34l-7.22 4.17z" fill="#19455e"/><path d="m339.57 226.06-4.64-2.68v-9.37s0 0 0 0c0-.05 0-.1-.02-.15 0 0 0 0 0-.01 0-.02-.01-.04-.02-.06 0 0 0 0 0-.01 0-.02-.02-.04-.03-.07-.01-.02-.03-.04-.04-.06-.01-.02-.03-.03-.04-.05-.04-.04-.08-.07-.12-.09l-8.12-4.69v-3.3c0-.33-.27-.6-.6-.6s-.6.27-.6.6v3.3l-8.12 4.69s0 0 0 0c-.04.02-.08.05-.12.09-.01.01-.03.03-.04.05-.01.02-.03.04-.04.06s-.02.04-.03.07v.01c0 .02-.01.04-.02.06v.01c-.01.05-.02.1-.02.15v9.37l-4.64 2.68c-.29.16-.38.53-.22.81.11.19.31.3.52.3.1 0 .2-.03.3-.08l4.64-2.68 8.12 4.69s0 0 0 0l.06.03h.02c.02 0 .03.01.05.02h.03.04.03.05.02s.01 0 .02 0h.05.03.04.03c.02 0 .03-.01.05-.02h.02c.02 0 .04-.02.06-.03l8.12-4.69 4.64 2.68c.09.05.2.08.3.08.21 0 .41-.11.52-.3.16-.29.07-.65-.22-.81zm-13.66-16.22 7.22 4.17-7.22 4.17-7.22-4.17zm-7.82 5.2 5.42 3.13 1.81 1.04v8.34l-7.22-4.17v-8.34zm8.41 12.51v-8.34l1.81-1.04 5.42-3.13v8.34l-7.22 4.17z" fill="#19455e"/><path d="m237.99 226.06-4.64-2.68v-9.37s0 0 0 0c0-.05 0-.1-.02-.15 0 0 0 0 0-.01 0-.02-.01-.04-.02-.06 0 0 0 0 0-.01 0-.02-.02-.04-.03-.07-.01-.02-.03-.04-.04-.06-.01-.02-.03-.03-.04-.05-.04-.04-.08-.07-.12-.09l-8.12-4.69v-3.3c0-.33-.27-.6-.6-.6s-.6.27-.6.6v3.3l-8.12 4.69s0 0 0 0c-.04.02-.08.05-.12.09-.01.01-.03.03-.04.05-.01.02-.03.04-.04.06s-.02.04-.03.07v.01c0 .02-.01.04-.02.06v.01c-.01.05-.02.1-.02.15v9.37l-4.64 2.68c-.29.16-.38.53-.22.81.11.19.31.3.52.3.1 0 .2-.03.3-.08l4.64-2.68 8.12 4.69s0 0 0 0c.02.01.04.02.06.03h.02c.02 0 .03.01.05.02h.03.04.03.05.02s.01 0 .02 0h.05.03.04.03c.02 0 .03-.01.05-.02h.02c.02 0 .04-.02.06-.03l8.12-4.69 4.64 2.68c.09.05.2.08.3.08.21 0 .41-.11.52-.3.16-.29.07-.65-.22-.81zm-13.66-16.22 7.22 4.17-7.22 4.17-7.22-4.17zm-7.82 5.2 5.42 3.13 1.81 1.04v8.34l-7.22-4.17v-8.34zm8.41 12.51v-8.34l1.81-1.04 5.42-3.13v8.34l-7.22 4.17z" fill="#19455e"/><path d="m215.71 205.17c-1.46-4.85-2.25-9.97-2.25-15.25 0-24.74 17.16-45.79 41.12-53.63" fill="none" stroke="#14313f" stroke-miterlimit="10" stroke-width="2"/><path d="m251.15 146.33-1.78-.92 4.52-8.76-9.07-3.88.79-1.84 11.05 4.72z" fill="#14313f"/><path d="m334.93 203.08c1.09-4.22 1.66-8.63 1.66-13.16 0-25.45-18.15-46.99-43.19-54.27" fill="none" stroke="#14313f" stroke-miterlimit="10" stroke-width="2"/><path d="m344.27 198.39-1.13-1.65-8.14 5.56-4.96-8.52-1.73 1.01 6.04 10.38z" fill="#14313f"/><path d="m236.12 233.9c3.12 3.05 6.65 5.75 10.57 8.02 22.04 12.71 49.77 7.75 68.59-10.3" fill="none" stroke="#14313f" stroke-miterlimit="10" stroke-width="2"/><path d="m235.52 244.32 1.99-.15-.75-9.83 9.86-.04-.01-2-12.01.05z" fill="#14313f"/><text fill="#18465e" font-family="Poppins-Bold, Poppins" font-size="14" font-weight="700" transform="translate(26.14 230.89)"><tspan x="0" y="0">EMAIL VERIFICATION</tspan></text><path d="m304.63 165.36-28.39-8.51h-.83l-28.39 8.45c-1.29.41-2.17 1.61-2.17 2.97l-.82 30.54c-.13 4.47 1.19 8.86 3.75 12.53 3.66 5.15 11.39 12.88 27.42 20.46h.08c.17.08.35.13.54.14.19 0 .37-.04.54-.12h.07c16.03-7.6 23.79-15.33 27.43-20.48 2.57-3.67 3.88-8.06 3.75-12.53l-.78-30.54c-.03-1.35-.93-2.52-2.21-2.9zm-3.12 44.3c-3.42 4.8-10.67 12-25.69 19.22-15.02-7.22-22.27-14.43-25.69-19.22-2.21-3.15-3.34-6.94-3.22-10.78l.75-30.54c0-.09.06-.17.15-.21l28.01-8.35 27.98 8.33c.09.03.15.11.15.21l.78 30.54c.12 3.86-1.01 7.65-3.22 10.8z" fill="#19455e"/><circle cx="275.83" cy="192.06" fill="#19455e" r="17.56"/><path d="m268.79 181.68v22.54h3.96v-7l7.95-3.4-.1-4.02-7.82 3.3v-7.65h10.08v-3.77z" fill="#00b6af"/><text fill="#18465e" font-family="Poppins-Bold, Poppins" font-size="14" font-weight="700" transform="translate(226.93 333.36)"><tspan x="0" y="0">PERMISSIONS</tspan></text><path d="m42.2 116.55c-.56 0-1.02-.46-1.02-1.02v-3.99c0-.56.46-1.02 1.02-1.02s1.02.46 1.02 1.02v3.99c0 .56-.46 1.02-1.02 1.02z" fill="#19455e"/><path d="m42.2 146.82c-.56 0-1.02-.46-1.02-1.02v-20.05c0-.56.46-1.02 1.02-1.02s1.02.46 1.02 1.02v20.05c0 .56-.46 1.02-1.02 1.02z" fill="#19455e"/><path d="m42.31 126.26c-3.24 0-5.88-2.64-5.88-5.88s2.64-5.88 5.88-5.88 5.88 2.64 5.88 5.88-2.64 5.88-5.88 5.88zm0-9.72c-2.12 0-3.84 1.72-3.84 3.84s1.72 3.84 3.84 3.84 3.84-1.72 3.84-3.84-1.72-3.84-3.84-3.84z" fill="#f77c47"/><path d="m54.99 130.36c-.56 0-1.02-.46-1.02-1.02v-17.8c0-.56.46-1.02 1.02-1.02s1.02.46 1.02 1.02v17.8c0 .56-.46 1.02-1.02 1.02z" fill="#19455e"/><path d="m54.99 146.82c-.56 0-1.02-.46-1.02-1.02v-5.73c0-.56.46-1.02 1.02-1.02s1.02.46 1.02 1.02v5.73c0 .56-.46 1.02-1.02 1.02z" fill="#19455e"/><path d="m55.09 141.1c-3.24 0-5.88-2.64-5.88-5.88s2.64-5.88 5.88-5.88 5.88 2.64 5.88 5.88-2.64 5.88-5.88 5.88zm0-9.72c-2.12 0-3.84 1.72-3.84 3.84s1.72 3.84 3.84 3.84 3.84-1.72 3.84-3.84-1.72-3.84-3.84-3.84z" fill="#f77c47"/><path d="m29.42 126.78c-.56 0-1.02-.46-1.02-1.02v-14.22c0-.56.46-1.02 1.02-1.02s1.02.46 1.02 1.02v14.22c0 .56-.46 1.02-1.02 1.02z" fill="#19455e"/><path d="m29.42 146.82c-.56 0-1.02-.46-1.02-1.02v-9.82c0-.56.46-1.02 1.02-1.02s1.02.46 1.02 1.02v9.82c0 .56-.46 1.02-1.02 1.02z" fill="#19455e"/><path d="m29.52 136.49c-3.24 0-5.88-2.64-5.88-5.88s2.64-5.88 5.88-5.88 5.88 2.64 5.88 5.88-2.64 5.88-5.88 5.88zm0-9.72c-2.12 0-3.84 1.72-3.84 3.84s1.72 3.84 3.84 3.84 3.84-1.72 3.84-3.84-1.72-3.84-3.84-3.84z" fill="#f77c47"/><text fill="#18465e" font-family="Poppins-Bold, Poppins" font-size="14" font-weight="700" transform="translate(68.92 132.92)"><tspan x="0" y="0">USER CONTROL</tspan></text><text fill="#18465e" font-family="Poppins-Bold, Poppins" font-size="14" font-weight="700" transform="translate(375.35 230.89)"><tspan x="0" y="0">UNIVERSAL HANDLE</tspan></text><text fill="#18465e" font-family="Poppins-Bold, Poppins" font-size="14" font-weight="700" transform="translate(375.18 132.92)"><tspan x="0" y="0">TRUSTED COMMUNICATIONS</tspan></text><text fill="#18465e" font-family="Poppins-Bold, Poppins" font-size="14" font-weight="700" transform="translate(195.59 82.69)"><tspan x="0" y="0">DECENTRALIZED IDENTITY</tspan></text><ellipse cx="270.75" cy="257.75" fill="#19455e" opacity=".1" rx="104.25" ry="6.75" stroke="#19455e" stroke-miterlimit="10" stroke-width=".25"/><path d="m84.99 189.13h24.59c.79 0 1.5.32 2.02.84s.84 1.23.84 2.02v16.16c0 .79-.32 1.5-.84 2.02s-1.23.84-2.02.84h-24.59c-.79 0-1.5-.32-2.02-.84s-.84-1.23-.84-2.02v-16.16c0-.79.32-1.5.84-2.02s1.23-.84 2.02-.84zm25.42 20.09-9.53-8.17-1.37 1.18c-.61.53-1.42.79-2.21.8-.8 0-1.6-.26-2.21-.78l-1.39-1.19-9.53 8.17c.23.18.52.28.82.28h24.59c.31 0 .6-.11.83-.28zm-26.78-1.51 8.92-7.65-8.92-7.65v15.29zm.53-16.8 10.01 8.58h.01s1.87 1.62 1.87 1.62c.33.28.78.43 1.23.42.46 0 .91-.15 1.25-.44l1.85-1.59h.02s10-8.59 10-8.59c-.23-.18-.52-.28-.83-.28h-24.59c-.31 0-.59.11-.82.28zm26.77 1.52-8.91 7.64 8.91 7.64z" fill="#19455e" fill-rule="evenodd"/><path d="m280.49 24.57c-.17 0-.34-.04-.49-.12-3.81-1.96-10.77-2.24-14.06-.57-.53.27-1.18.06-1.45-.47s-.06-1.18.47-1.45c3.85-1.95 11.63-1.64 16.01.57.53.27.75.91.48 1.44-.18.37-.56.6-.97.6z" fill="#19455e"/><path d="m284.58 40.68c-.4 0-.76-.22-.95-.57-2.26-4.23-6.76-7.1-12.02-7.66-5.48-.59-10.77 1.41-13.82 5.23-.38.46-1.06.53-1.52.15-.45-.37-.53-1.03-.17-1.49 3.5-4.39 9.53-6.7 15.74-6.03 5.97.65 11.09 3.93 13.69 8.79.28.52.08 1.18-.44 1.46-.16.08-.33.12-.51.12z" fill="#19455e"/><path d="m277.08 26.26c-6.19-1.8-13.36-.95-17.53 2.07-.02.02-.05.03-.07.05-.47.37-.55 1.05-.18 1.51.37.47 1.05.55 1.51.18 3.82-2.76 10.73-3.42 16.42-1.52 0 0 .9.32 1.2-.66.16-.53.03-1.24-1.36-1.63z" fill="#f77c47"/><path d="m285.09 30.87c-.04-.06-.94-1.07-2-1.79-.73-.54-1.48-1-2.24-1.36-.72-.34-1.26-.01-1.49.53-.23.55.02 1.18.57 1.41 1.1.52 2.18 1.3 3.2 2.26.12.12.24.25.35.38.38.46 1.05.53 1.52.16.46-.38.62-.98.1-1.58z" fill="#f77c47"/><path d="m278.51 56.66c-.05.37-.11.74-.2 1.1-.78 2.89-3.75 4.6-6.64 3.82-2.84-.85-4.59-3.72-4.03-6.64.59-3.29.45-2.57.94-4.25.27-.79 1.08-.92 1.58-.6.85.56.29 1.4-.38 5.2-.4 1.83.67 3.66 2.45 4.23 1.73.46 3.52-.57 3.98-2.3 0 0 0-.02 0-.03l.13-.84c.27-1.68 2.39-1.3 2.16.3z" fill="#19455e"/><path d="m278.09 54.35c-.07 0-.15 0-.22-.02-.58-.12-.95-.69-.83-1.26.02-.08 1-5.04-1.29-8.34-1.08-1.55-2.75-2.51-4.97-2.86-2.11-.33-3.99.22-5.6 1.61-2.89 2.51-4.08 7.02-4.07 8.4 0 .59-.47 1.07-1.06 1.08 0 0 0 0-.01 0-.58 0-1.06-.47-1.07-1.06-.02-1.96 1.4-7.09 4.8-10.04 2.11-1.83 4.58-2.54 7.33-2.11 2.82.44 4.98 1.7 6.4 3.76 2.82 4.07 1.67 9.74 1.62 9.98-.11.5-.55.85-1.04.85z" fill="#19455e"/><path d="m265.69 48.59c-.16-.06-.34-.09-.51-.07-1.06.14-1.43 2.12-1.54 2.59-.43 1.64-.78 3.79-.37 6.13.07.4.36.73.74.85.17.05.35.07.52.04.59-.1.98-.67.88-1.26-.4-2.23.03-4.27.49-5.79.1-.31.29-.79.4-1.08.22-.56-.06-1.19-.62-1.4z" fill="#f77c47"/><path d="m270.56 44.23c-1.42-.28-3.35-.04-4.78 1.45-.28.29-.38.72-.26 1.1.05.17.15.32.27.44.43.42 1.12.41 1.53-.02.13-.14.27-.34.7-.57.63-.33 1.36-.46 2.11-.31 1.82.44 3 2.2 2.73 4.05-.42 3.83-.57 3.84-.98 4.89-.22.56.05 1.19.61 1.41s1.19-.05 1.41-.61c.66-1.65.76-2.17 1.12-5.49.36-2.95-1.57-5.69-4.47-6.35z" fill="#f77c47"/><path d="m283.6 46.17c-.89-5.56-6.35-10.86-11.9-11.54-2.9-.35-5.05.15-5.36.23-.02 0-1.05.17-.84 1.32.11.59.73.9 1.31.78.22-.05.43-.08.64-.11.73-.1 1.92-.34 3.98-.09 4.63.57 9.3 5.14 10.05 9.77.09.52.55.91 1.08.9l.15-.02s0 0 0 0c.59-.1.98-.65.89-1.24z" fill="#f77c47"/><path d="m263.56 36.23c-.37 0-.9.31-.9.32 0 0-5 2.95-6.92 9.33 0 .02-.01.04-.02.05-.15.58.2 1.16.78 1.31s1.14-.21 1.31-.78c1.52-5.11 5.59-7.85 5.59-7.85.11-.06.56-.42.69-.52.85-.65.08-1.86-.53-1.86z" fill="#f77c47"/><path d="m283.44 271c-5.83 0-10.56 4.73-10.56 10.56v18.89c0 4.6-3.73 8.33-8.33 8.33s-8.33-3.73-8.33-8.33 3.73-8.33 8.33-8.33h5c.61 0 1.11-.5 1.11-1.11s-.5-1.11-1.11-1.11h-5c-5.83 0-10.56 4.73-10.56 10.56s4.73 10.56 10.56 10.56 10.56-4.73 10.56-10.56v-18.89c0-4.6 3.73-8.33 8.33-8.33s8.33 3.73 8.33 8.33-3.73 8.33-8.33 8.33h-5c-.61 0-1.11.5-1.11 1.11s.5 1.11 1.11 1.11h5c5.83 0 10.56-4.73 10.56-10.56s-4.73-10.56-10.56-10.56z" fill="#19455e"/><path d="m268.22 296.88-4.84 4.84-2.56-2.13c-.47-.39-1.17-.33-1.57.14-.39.47-.33 1.17.14 1.57l3.33 2.78c.44.37 1.09.33 1.49-.07l5.56-5.56c.46-.41.49-1.11.08-1.57s-1.11-.49-1.57-.08c-.03.02-.05.05-.08.08z" fill="#f77c47"/><path d="m279.33 285.67c.43.43 1.13.43 1.57 0l2.55-2.54 2.55 2.54c.47.4 1.17.34 1.57-.12.36-.42.36-1.03 0-1.45l-2.54-2.55 2.54-2.55c.4-.47.34-1.17-.12-1.57-.42-.36-1.03-.36-1.45 0l-2.55 2.54-2.55-2.54c-.47-.4-1.17-.34-1.57.12-.36.42-.36 1.03 0 1.45l2.54 2.55-2.54 2.55c-.43.43-.43 1.13 0 1.57z" fill="#f77c47"/><path d="m489.99 88.53h-7.13v-1.84c0-1.96-1.59-3.55-3.55-3.56h-18.64c-1.96 0-3.55 1.6-3.55 3.56v12.02c0 1.96 1.59 3.55 3.55 3.56h1.53v5.62c0 .31.2.59.5.69s.63 0 .81-.26l4.27-5.77v1.56c0 1.96 1.6 3.55 3.56 3.55h11.32l4.48 6.05c.19.25.52.36.81.26.3-.1.5-.38.5-.69v-5.62h1.53c1.96 0 3.55-1.59 3.55-3.55v-12.02c0-1.96-1.59-3.55-3.55-3.55zm-22.94 12.57-3.38 4.57v-4.14c0-.19-.08-.38-.21-.52-.14-.14-.32-.21-.52-.21h-2.26c-1.16 0-2.09-.94-2.09-2.1v-12.02c0-1.16.93-2.1 2.09-2.1h18.64c1.16 0 2.09.94 2.09 2.1v12.02c0 1.16-.93 2.1-2.09 2.1h-11.68c-.23 0-.45.11-.58.29zm25.03 3c0 1.15-.94 2.09-2.09 2.09h-2.26c-.4 0-.73.33-.73.73v4.14l-3.38-4.57c-.14-.19-.35-.29-.58-.29h-11.69c-1.16 0-2.1-.93-2.1-2.09v-1.84h10.07c1.96 0 3.55-1.6 3.55-3.56v-8.72h7.13c1.15 0 2.09.94 2.09 2.09v12.03z" fill="#19455e"/><path d="m462.22 89h15.5" fill="none" stroke="#f77c47" stroke-linecap="round" stroke-miterlimit="10" stroke-width="2"/><path d="m462.22 93.77h9" fill="none" stroke="#f77c47" stroke-linecap="round" stroke-miterlimit="10" stroke-width="2"/><path d="m454.54 197c0-7.51-6.11-13.63-13.63-13.63-1.87 0-3.69.39-5.42 1.13-2.93-1.96-7.77-4.66-9.76-2.68-1.98 1.98.72 6.83 2.68 9.76-.74 1.73-1.13 3.54-1.13 5.42 0 7.51 6.11 13.63 13.63 13.63 1.87 0 3.69-.39 5.42-1.13 2.21 1.47 5.5 3.37 7.84 3.37.76 0 1.43-.2 1.92-.69 1.98-1.98-.72-6.83-2.68-9.76.74-1.73 1.13-3.54 1.13-5.42zm-1.44 0c0 1.8-.39 3.55-1.15 5.19-.3.62-.64 1.22-1.04 1.78-.13.18-.29.34-.43.52-.28.36-.56.72-.88 1.05-.19.19-.41.36-.61.54-.31.27-.61.55-.94.79-.23.17-.49.31-.74.46-.28.17-.55.34-.84.49-.33-.23-.67-.49-1.01-.73-.34-.25-.68-.49-1.03-.76-.42-.33-.85-.68-1.28-1.03-.33-.27-.65-.52-.99-.8-.49-.41-.98-.86-1.47-1.3-.27-.24-.54-.47-.81-.72-.76-.7-1.52-1.43-2.27-2.18s-1.48-1.51-2.19-2.28c-.22-.24-.43-.49-.65-.73-.47-.52-.94-1.04-1.38-1.56-.24-.29-.46-.56-.69-.85-.39-.47-.78-.95-1.15-1.42-.23-.29-.43-.58-.64-.87-.29-.38-.57-.77-.83-1.15.15-.29.32-.57.49-.85.15-.25.29-.5.46-.74.24-.33.52-.64.8-.95.18-.2.34-.42.53-.61.33-.32.7-.61 1.06-.89.17-.14.33-.29.51-.42.56-.39 1.15-.74 1.78-1.04 1.65-.76 3.39-1.15 5.2-1.15 6.72 0 12.19 5.47 12.19 12.19zm-26.34-14.15c.18-.18.49-.29.92-.29 1.2 0 3.33.78 6.32 2.69-.03.02-.05.04-.08.05-.41.25-.81.52-1.19.81-.1.08-.2.16-.3.24-.8.64-1.53 1.37-2.17 2.17-.08.1-.16.2-.24.31-.29.38-.55.77-.8 1.18-.02.03-.04.06-.06.09-2.59-4.05-3.1-6.54-2.4-7.24zm14.15 26.34c-6.72 0-12.19-5.47-12.19-12.19 0-1.37.23-2.72.67-4.01.17.23.36.47.53.7.22.3.45.6.68.9.36.46.74.93 1.12 1.39.23.28.46.56.7.84.44.52.9 1.03 1.37 1.55.21.23.41.47.63.7.7.75 1.41 1.5 2.15 2.24s1.49 1.45 2.24 2.15c.25.23.5.45.75.67.5.45 1 .9 1.5 1.33.3.25.59.49.88.73.45.38.91.74 1.36 1.09.31.24.61.47.91.69.23.17.47.36.69.53-1.29.45-2.63.67-4.01.67zm14.15 1.97c-.7.7-3.19.19-7.24-2.4.03-.02.05-.04.08-.05.41-.25.81-.52 1.19-.81.1-.08.21-.16.31-.24.8-.64 1.53-1.36 2.17-2.17.08-.1.17-.21.25-.32.28-.37.54-.75.78-1.15.02-.04.05-.07.07-.11 2.59 4.05 3.1 6.54 2.4 7.24zm-5-26.16c2.66 0 4.82-2.16 4.82-4.82s-2.16-4.82-4.82-4.82-4.82 2.16-4.82 4.82 2.16 4.82 4.82 4.82zm0-8.04c1.77 0 3.22 1.44 3.22 3.22s-1.44 3.22-3.22 3.22-3.22-1.44-3.22-3.22 1.44-3.22 3.22-3.22zm11.77-3.05c-1.19 0-2.16.97-2.16 2.16s.97 2.16 2.16 2.16 2.16-.97 2.16-2.16-.97-2.16-2.16-2.16zm0 2.89c-.4 0-.72-.32-.72-.72s.32-.72.72-.72.72.32.72.72-.32.72-.72.72z" fill="#19455e"/><path d="m451.19 178.15c.26.13.46.32.6.55s.21.51.21.82c0 .25-.04.48-.13.7s-.22.39-.39.52-.37.19-.6.19c-.16 0-.29-.03-.39-.09s-.17-.15-.21-.26c-.08.12-.19.2-.32.27-.13.06-.27.1-.43.1-.22 0-.39-.07-.52-.2s-.19-.31-.19-.54c0-.22.04-.42.13-.61s.21-.34.37-.46.33-.17.53-.17c.25 0 .42.09.5.27l.04-.23h.61l-.19 1.11c0 .05-.01.1-.01.14 0 .13.06.19.17.19.14 0 .25-.09.33-.27.07-.18.11-.39.11-.63 0-.34-.11-.61-.32-.8s-.51-.29-.9-.29c-.33 0-.63.08-.9.24s-.48.38-.64.65c-.15.28-.23.58-.23.91 0 .36.1.64.31.83s.5.3.88.3c.29 0 .55-.05.78-.16l.12.48c-.29.13-.61.19-.98.19-.34 0-.63-.06-.89-.19s-.45-.31-.59-.55-.21-.52-.21-.84c0-.45.11-.85.32-1.21s.5-.65.87-.85c.37-.21.78-.31 1.23-.31.35 0 .65.07.91.2zm-1.17 2.17c.07-.05.13-.12.17-.2s.06-.17.06-.27-.03-.18-.08-.25c-.06-.06-.13-.1-.23-.1-.13 0-.24.06-.32.17-.09.11-.13.25-.13.4 0 .1.02.18.07.23s.12.09.22.09c.08 0 .16-.03.23-.08z" fill="#f77c47"/></svg>