<svg xmlns="http://www.w3.org/2000/svg" id="Layer_1" version="1.1" viewBox="0 0 596 365"><defs id="defs1"><style id="style1">.st0,.st1{fill:#331e49}.st1,.st3{isolation:isolate}.st5{fill:none;stroke:#ff9a02;stroke-miterlimit:10}.st1{font-family:Poppins-Bold,Poppins;font-size:14px;font-weight:700}.st7{opacity:.8}.st8{fill:#790e70}.st9{fill:#ff9a02}.st10{fill:#a7a9ac}</style></defs><g id="g29"><g id="g14"><g id="g7" class="st7"><path id="rect1" d="M343.13 248.01h.19v105.02h-.19z" class="st10"/><path id="rect2" d="M358.15 248.01h.19v105.02h-.19z" class="st10"/><path id="rect3" d="M373.16 248.01h.19v105.02h-.19z" class="st10"/><path id="rect4" d="M388.18 248.01h.19v105.02h-.19z" class="st10"/><path id="rect5" d="M403.19 248.01h.19v105.02h-.19z" class="st10"/><path id="rect6" d="M418.21 248.01h.19v105.02h-.19z" class="st10"/><path id="rect7" d="M433.22 248.01h.19v105.02h-.19z" class="st10"/></g><g id="g13" class="st7"><path id="rect8" d="M343 263.31h101.12v.19H343z" class="st10"/><path id="rect9" d="M343 278.32h101.12v.19H343z" class="st10"/><path id="rect10" d="M343 293.34h101.12v.19H343z" class="st10"/><path id="rect11" d="M343 308.35h101.12v.19H343z" class="st10"/><path id="rect12" d="M343 323.37h101.12v.19H343z" class="st10"/><path id="rect13" d="M343 338.39h101.12v.19H343z" class="st10"/></g></g><g id="g21"><g id="g16" class="st7"><path id="rect14" d="M76.43 260h.19v61h-.19z" class="st10"/><path id="rect15" d="M91.45 260h.19v61h-.19z" class="st10"/><path id="rect16" d="M106.46 260h.19v61h-.19z" class="st10"/></g><g id="g20" class="st7"><path id="rect17" d="M65 268.74h52.36v.19H65z" class="st10"/><path id="rect18" d="M65 283.75h52.36v.19H65z" class="st10"/><path id="rect19" d="M65 298.77h52.36v.19H65z" class="st10"/><path id="rect20" d="M65 313.79h52.36v.19H65z" class="st10"/></g></g><g id="g28"><g id="g23" class="st7"><path id="rect21" d="M402.84 30.97h.19v61h-.19z" class="st10"/><path id="rect22" d="M417.85 30.97h.19v61h-.19z" class="st10"/><path id="rect23" d="M432.87 30.97h.19v61h-.19z" class="st10"/></g><g id="g27" class="st7"><path id="rect24" d="M391.41 39.71h52.36v.19h-52.36z" class="st10"/><path id="rect25" d="M391.41 54.72h52.36v.19h-52.36z" class="st10"/><path id="rect26" d="M391.41 69.74h52.36v.19h-52.36z" class="st10"/><path id="rect27" d="M391.41 84.75h52.36v.19h-52.36z" class="st10"/></g></g></g><path id="polygon29" d="M266.6 139.31v-10.92l7.82-4.68 9.31 4.68-.3 10.92-8.12 4.69z" class="st9"/><path id="polygon30" d="M317.39 224.43v-10.92l7.82-4.69 9.31 4.68-.3 10.93-8.12 4.68z" class="st9"/><path id="polygon31" d="M215.92 224.41v-10.92l7.82-4.68 9.31 4.68-.3 10.92-8.11 4.69z" class="st9"/><path id="path31" d="m288.59 141.19-4.64-2.68v-9.37c0-.05 0-.1-.02-.15s-.01-.05-.02-.07-.02-.05-.03-.08c-.01-.02-.03-.04-.04-.06s-.03-.03-.04-.05-.08-.07-.12-.09l-8.12-4.69v-3.3c0-.33-.27-.6-.6-.6s-.6.27-.6.6v3.3l-8.12 4.69s-.08.05-.12.09-.03.03-.04.05-.03.04-.04.06-.02.04-.03.07-.01.05-.02.07c-.01.06-.02.11-.02.16v9.37l-4.64 2.68c-.29.16-.38.53-.22.81a.6.6 0 0 0 .82.22l4.64-2.68 8.12 4.69.06.03h.02s.03 0 .05.02h.34s.03 0 .05-.02h.02l.06-.03 8.12-4.69 4.64 2.68a.6.6 0 0 0 .82-.22.59.59 0 0 0-.22-.81zm-13.66-16.22 7.22 4.17-7.22 4.17-7.22-4.17zm-7.82 5.2 5.42 3.13 1.81 1.04v8.34l-7.22-4.17v-8.34zm8.41 12.51v-8.34l1.81-1.04 5.42-3.13v8.34l-7.22 4.17z" class="st0"/><path id="path32" d="m339.57 226.06-4.64-2.68v-9.37c0-.05 0-.1-.02-.15s-.01-.05-.02-.07-.02-.05-.03-.08c-.01-.02-.03-.04-.04-.06s-.03-.03-.04-.05-.08-.07-.12-.09l-8.12-4.69v-3.3c0-.33-.27-.6-.6-.6s-.6.27-.6.6v3.3l-8.12 4.69s-.08.05-.12.09-.03.03-.04.05-.03.04-.04.06-.02.04-.03.07-.01.05-.02.07c-.01.06-.02.11-.02.16v9.37l-4.64 2.68c-.29.16-.38.53-.22.81a.6.6 0 0 0 .82.22l4.64-2.68 8.12 4.69.06.03h.02s.03 0 .05.02h.34s.03 0 .05-.02h.02l.06-.03 8.12-4.69 4.64 2.68a.6.6 0 0 0 .82-.22.59.59 0 0 0-.22-.81zm-13.66-16.22 7.22 4.17-7.22 4.17-7.22-4.17zm-7.82 5.2 5.42 3.13 1.81 1.04v8.34l-7.22-4.17v-8.34zm8.41 12.51v-8.34l1.81-1.04 5.42-3.13v8.34l-7.22 4.17z" class="st0"/><path id="path33" d="m237.99 226.06-4.64-2.68v-9.37c0-.05 0-.1-.02-.15s0-.05-.02-.07-.02-.05-.03-.08c0-.02-.03-.04-.04-.06s-.03-.03-.04-.05-.08-.07-.12-.09l-8.12-4.69v-3.3c0-.33-.27-.6-.6-.6s-.6.27-.6.6v3.3l-8.12 4.69s-.08.05-.12.09-.03.03-.04.05-.03.04-.04.06-.02.04-.03.07 0 .05-.02.07c0 .06-.02.11-.02.16v9.37l-4.64 2.68c-.29.16-.38.53-.22.81a.6.6 0 0 0 .82.22l4.64-2.68 8.12 4.69.06.03h.02s.03 0 .05.02h.34s.03 0 .05-.02h.02l.06-.03 8.12-4.69 4.64 2.68a.6.6 0 0 0 .82-.22.59.59 0 0 0-.22-.81zm-13.66-16.22 7.22 4.17-7.22 4.17-7.22-4.17zm-7.82 5.2 5.42 3.13 1.81 1.04v8.34l-7.22-4.17v-8.34Zm8.41 12.51v-8.34l1.81-1.04 5.42-3.13v8.34l-7.22 4.17Z" class="st0"/><g id="g34"><path id="path34" d="M214.75 205.46a53.9 53.9 0 0 1-2.29-15.54c0-24.46 16.8-46.4 41.81-54.58l.62 1.9c-24.18 7.91-40.43 29.08-40.43 52.68 0 5.06.74 10.1 2.21 14.96z" class="st8"/><path id="polygon34" d="m251.15 146.33-1.78-.92 4.52-8.76-9.07-3.88.79-1.84 11.05 4.72z" class="st8"/></g><g id="g35"><path id="path35" d="m335.9 203.33-1.94-.5c1.08-4.18 1.63-8.53 1.63-12.91 0-24.5-17.07-45.92-42.47-53.31l.56-1.92c26.26 7.64 43.91 29.83 43.91 55.23 0 4.55-.57 9.06-1.69 13.41" class="st8"/><path id="polygon35" d="m344.27 198.39-1.13-1.65-8.14 5.56-4.96-8.52-1.73 1.01 6.04 10.38z" class="st8"/></g><g id="g36"><path id="path36" d="M273.48 250.05c-9.45 0-18.81-2.38-27.29-7.27a54.4 54.4 0 0 1-10.77-8.17l1.4-1.43c3.1 3.03 6.59 5.68 10.37 7.87 21.22 12.24 48.3 8.16 67.4-10.16l1.38 1.44c-12.14 11.64-27.42 17.71-42.5 17.71h.01Z" class="st8"/><path id="polygon36" d="m235.52 244.32 1.99-.15-.75-9.83 9.86-.04-.01-2-12.01.05z" class="st8"/></g><g id="g38" class="st3"><g id="g37" class="st3"><text id="text36" class="st1" transform="translate(26.14 230.89)"><tspan id="tspan36" x="0" y="0">EMAIL VERIFICATION</tspan></text></g></g><path id="path38" d="m304.63 165.36-28.39-8.51h-.83l-28.39 8.45a3.115 3.115 0 0 0-2.17 2.97l-.82 30.54c-.13 4.47 1.19 8.86 3.75 12.53 3.66 5.15 11.39 12.88 27.42 20.46h.08c.17.08.35.13.54.14q.285 0 .54-.12h.07c16.03-7.6 23.79-15.33 27.43-20.48 2.57-3.67 3.88-8.06 3.75-12.53l-.78-30.54a3.1 3.1 0 0 0-2.21-2.9Z" class="st0"/><g id="g40" class="st3"><g id="g39" class="st3"><text id="text38" class="st1" transform="translate(226.93 333.36)"><tspan id="tspan38" x="0" y="0">PERMISSIONS</tspan></text></g></g><g id="g48"><path id="path40" d="M42.2 116.55c-.56 0-1.02-.46-1.02-1.02v-3.99c0-.56.46-1.02 1.02-1.02s1.02.46 1.02 1.02v3.99c0 .56-.46 1.02-1.02 1.02" class="st0"/><path id="path41" d="M42.2 146.82c-.56 0-1.02-.46-1.02-1.02v-20.05c0-.56.46-1.02 1.02-1.02s1.02.46 1.02 1.02v20.05c0 .56-.46 1.02-1.02 1.02" class="st0"/><path id="path42" d="M42.31 126.26c-3.24 0-5.88-2.64-5.88-5.88s2.64-5.88 5.88-5.88 5.88 2.64 5.88 5.88-2.64 5.88-5.88 5.88m0-9.72a3.841 3.841 0 0 0 0 7.68 3.841 3.841 0 0 0 0-7.68" class="st9"/><path id="path43" d="M54.99 130.36c-.56 0-1.02-.46-1.02-1.02v-17.8c0-.56.46-1.02 1.02-1.02s1.02.46 1.02 1.02v17.8c0 .56-.46 1.02-1.02 1.02" class="st0"/><path id="path44" d="M54.99 146.82c-.56 0-1.02-.46-1.02-1.02v-5.73c0-.56.46-1.02 1.02-1.02s1.02.46 1.02 1.02v5.73c0 .56-.46 1.02-1.02 1.02" class="st0"/><path id="path45" d="M55.09 141.1c-3.24 0-5.88-2.64-5.88-5.88s2.64-5.88 5.88-5.88 5.88 2.64 5.88 5.88-2.64 5.88-5.88 5.88m0-9.72a3.841 3.841 0 0 0 0 7.68 3.841 3.841 0 0 0 0-7.68" class="st9"/><path id="path46" d="M29.42 126.78c-.56 0-1.02-.46-1.02-1.02v-14.22c0-.56.46-1.02 1.02-1.02s1.02.46 1.02 1.02v14.22c0 .56-.46 1.02-1.02 1.02" class="st0"/><path id="path47" d="M29.42 146.82c-.56 0-1.02-.46-1.02-1.02v-9.82c0-.56.46-1.02 1.02-1.02s1.02.46 1.02 1.02v9.82c0 .56-.46 1.02-1.02 1.02" class="st0"/><path id="path48" d="M29.52 136.49c-3.24 0-5.88-2.64-5.88-5.88s2.64-5.88 5.88-5.88 5.88 2.64 5.88 5.88-2.64 5.88-5.88 5.88m0-9.72a3.841 3.841 0 0 0 0 7.68 3.841 3.841 0 0 0 0-7.68" class="st9"/></g><g id="g50" class="st3"><g id="g49" class="st3"><text id="text48" class="st1" transform="translate(68.92 132.92)"><tspan id="tspan48" x="0" y="0">USER CONTROL</tspan></text></g></g><g id="g52" class="st3"><g id="g51" class="st3"><text id="text50" class="st1" transform="translate(375.35 230.89)"><tspan id="tspan50" x="0" y="0">UNIVERSAL HANDLE</tspan></text></g></g><g id="g54" class="st3"><g id="g53" class="st3"><text id="text52" class="st1" transform="translate(375.18 132.92)"><tspan id="tspan52" x="0" y="0">TRUSTED COMMUNICATIONS</tspan></text></g></g><g id="g56" class="st3"><g id="g55" class="st3"><text id="text54" class="st1" transform="translate(195.59 82.69)"><tspan id="tspan54" x="0" y="0">DECENTRALIZED IDENTITY</tspan></text></g></g><ellipse id="ellipse56" cx="270.75" cy="257.75" rx="104.25" ry="6.75" style="isolation:isolate;stroke-miterlimit:10;fill:#19455e;opacity:.1;stroke:#19455e;stroke-width:.25px"/><path id="path56" d="M84.99 189.13h24.59c.79 0 1.5.32 2.02.84s.84 1.23.84 2.02v16.16c0 .79-.32 1.5-.84 2.02s-1.23.84-2.02.84H84.99c-.79 0-1.5-.32-2.02-.84s-.84-1.23-.84-2.02v-16.16c0-.79.32-1.5.84-2.02s1.23-.84 2.02-.84m25.42 20.09-9.53-8.17-1.37 1.18c-.61.53-1.42.79-2.21.8-.8 0-1.6-.26-2.21-.78l-1.39-1.19-9.53 8.17c.23.18.52.28.82.28h24.59c.31 0 .6-.11.83-.28Zm-26.78-1.51 8.92-7.65-8.92-7.65v15.29Zm.53-16.8 10.01 8.58h.01l1.87 1.62c.33.28.78.43 1.23.42.46 0 .91-.15 1.25-.44l1.85-1.59h.02l10-8.59a1.34 1.34 0 0 0-.83-.28H84.98c-.31 0-.59.11-.82.28m26.77 1.52-8.91 7.64 8.91 7.64z" style="fill:#331e49;fill-rule:evenodd"/><g id="g67"><path id="path57" d="M280.49 24.57c-.17 0-.34-.04-.49-.12-3.81-1.96-10.77-2.24-14.06-.57a1.078 1.078 0 0 1-.98-1.92c3.85-1.95 11.63-1.64 16.01.57.53.27.75.91.48 1.44-.18.37-.56.6-.97.6Z" class="st0"/><path id="path58" d="M284.58 40.68c-.4 0-.76-.22-.95-.57-2.26-4.23-6.76-7.1-12.02-7.66-5.48-.59-10.77 1.41-13.82 5.23-.38.46-1.06.53-1.52.15-.45-.37-.53-1.03-.17-1.49 3.5-4.39 9.53-6.7 15.74-6.03 5.97.65 11.09 3.93 13.69 8.79.28.52.08 1.18-.44 1.46q-.24.12-.51.12" class="st0"/><g id="g60"><path id="path59" d="M277.08 26.26c-6.19-1.8-13.36-.95-17.53 2.07-.02.02-.05.03-.07.05a1.07 1.07 0 0 0-.18 1.51c.37.47 1.05.55 1.51.18 3.82-2.76 10.73-3.42 16.42-1.52 0 0 .9.32 1.2-.66.16-.53.03-1.24-1.36-1.63Z" class="st9"/><path id="path60" d="M285.09 30.87c-.04-.06-.94-1.07-2-1.79-.73-.54-1.48-1-2.24-1.36-.72-.34-1.26-.01-1.49.53-.23.55.02 1.18.57 1.41 1.1.52 2.18 1.3 3.2 2.26.12.12.24.25.35.38.38.46 1.05.53 1.52.16.46-.38.62-.98.1-1.58h-.01Z" class="st9"/></g><path id="path61" d="M278.51 56.66c-.05.37-.11.74-.2 1.1a5.414 5.414 0 0 1-6.64 3.82 5.8 5.8 0 0 1-4.03-6.64c.59-3.29.45-2.57.94-4.25.27-.79 1.08-.92 1.58-.6.85.56.29 1.4-.38 5.2-.4 1.83.67 3.66 2.45 4.23 1.73.46 3.52-.57 3.98-2.3v-.03l.13-.84c.27-1.68 2.39-1.3 2.16.3h.01Z" class="st0"/><path id="path62" d="M278.09 54.35c-.07 0-.15 0-.22-.02-.58-.12-.95-.69-.83-1.26.02-.08 1-5.04-1.29-8.34-1.08-1.55-2.75-2.51-4.97-2.86-2.11-.33-3.99.22-5.6 1.61-2.89 2.51-4.08 7.02-4.07 8.4 0 .59-.47 1.07-1.06 1.08h-.01c-.58 0-1.06-.47-1.07-1.06-.02-1.96 1.4-7.09 4.8-10.04 2.11-1.83 4.58-2.54 7.33-2.11 2.82.44 4.98 1.7 6.4 3.76 2.82 4.07 1.67 9.74 1.62 9.98-.11.5-.55.85-1.04.85h.01Z" class="st0"/><g id="g64"><path id="path63" d="M265.69 48.59a1.1 1.1 0 0 0-.51-.07c-1.06.14-1.43 2.12-1.54 2.59-.43 1.64-.78 3.79-.37 6.13.07.4.36.73.74.85.17.05.35.07.52.04.59-.1.98-.67.88-1.26-.4-2.23.03-4.27.49-5.79.1-.31.29-.79.4-1.08.22-.56-.06-1.19-.62-1.4h.01Z" class="st9"/><path id="path64" d="M270.56 44.23c-1.42-.28-3.35-.04-4.78 1.45-.28.29-.38.72-.26 1.1a1.077 1.077 0 0 0 1.8.42c.13-.14.27-.34.7-.57a3.17 3.17 0 0 1 2.11-.31c1.82.44 3 2.2 2.73 4.05-.42 3.83-.57 3.84-.98 4.89-.22.56.05 1.19.61 1.41s1.19-.05 1.41-.61c.66-1.65.76-2.17 1.12-5.49a5.793 5.793 0 0 0-4.47-6.35h.01Z" class="st9"/></g><g id="g66"><path id="path65" d="M283.6 46.17c-.89-5.56-6.35-10.86-11.9-11.54-2.9-.35-5.05.15-5.36.23-.02 0-1.05.17-.84 1.32.11.59.73.9 1.31.78.22-.05.43-.08.64-.11.73-.1 1.92-.34 3.98-.09 4.63.57 9.3 5.14 10.05 9.77.09.52.55.91 1.08.9l.15-.02c.59-.1.98-.65.89-1.24" class="st9"/><path id="path66" d="M263.56 36.23c-.37 0-.9.31-.9.32 0 0-5 2.95-6.92 9.33 0 .02 0 .04-.02.05-.15.58.2 1.16.78 1.31s1.14-.21 1.31-.78c1.52-5.11 5.59-7.85 5.59-7.85.11-.06.56-.42.69-.52.85-.65.08-1.86-.53-1.86" class="st9"/></g></g><path id="path67" d="M283.44 271c-5.83 0-10.56 4.73-10.56 10.56v18.89a8.33 8.33 0 1 1-8.33-8.33h5c.61 0 1.11-.5 1.11-1.11s-.5-1.11-1.11-1.11h-5c-5.83 0-10.56 4.73-10.56 10.56s4.73 10.56 10.56 10.56 10.56-4.73 10.56-10.56v-18.89a8.33 8.33 0 1 1 8.33 8.33h-5c-.61 0-1.11.5-1.11 1.11s.5 1.11 1.11 1.11h5c5.83 0 10.56-4.73 10.56-10.56S289.27 271 283.44 271" class="st0"/><path id="path68" d="m268.22 296.88-4.84 4.84-2.56-2.13c-.47-.39-1.17-.33-1.57.14-.39.47-.33 1.17.14 1.57l3.33 2.78c.44.37 1.09.33 1.49-.07l5.56-5.56c.46-.41.49-1.11.08-1.57s-1.11-.49-1.57-.08c-.03.02-.05.05-.08.08z" class="st9"/><path id="path69" d="M279.33 285.67c.43.43 1.13.43 1.57 0l2.55-2.54 2.55 2.54c.47.4 1.17.34 1.57-.12.36-.42.36-1.03 0-1.45l-2.54-2.55 2.54-2.55c.4-.47.34-1.17-.12-1.57-.42-.36-1.03-.36-1.45 0l-2.55 2.54-2.55-2.54a1.12 1.12 0 0 0-1.57.12c-.36.42-.36 1.03 0 1.45l2.54 2.55-2.54 2.55c-.43.43-.43 1.13 0 1.57" class="st9"/><g id="g71"><path id="path70" d="M489.99 88.53h-7.13v-1.84c0-1.96-1.59-3.55-3.55-3.56h-18.64a3.56 3.56 0 0 0-3.55 3.56v12.02c0 1.96 1.59 3.55 3.55 3.56h1.53v5.62c0 .31.2.59.5.69s.63 0 .81-.26l4.27-5.77v1.56c0 1.96 1.6 3.55 3.56 3.55h11.32l4.48 6.05c.19.25.52.36.81.26.3-.1.5-.38.5-.69v-5.62h1.53a3.55 3.55 0 0 0 3.55-3.55V92.09a3.55 3.55 0 0 0-3.55-3.55h.01Zm-22.94 12.57-3.38 4.57v-4.14c0-.19-.08-.38-.21-.52a.72.72 0 0 0-.52-.21h-2.26c-1.16 0-2.09-.94-2.09-2.1V86.68c0-1.16.93-2.1 2.09-2.1h18.64c1.16 0 2.09.94 2.09 2.1V98.7c0 1.16-.93 2.1-2.09 2.1h-11.68a.72.72 0 0 0-.58.29h-.01Zm25.03 3c0 1.15-.94 2.09-2.09 2.09h-2.26c-.4 0-.73.33-.73.73v4.14l-3.38-4.57a.7.7 0 0 0-.58-.29h-11.69c-1.16 0-2.1-.93-2.1-2.09v-1.84h10.07c1.96 0 3.55-1.6 3.55-3.56v-8.72H490c1.15 0 2.09.94 2.09 2.09v12.03Z" class="st0"/><path id="line70" d="M462.22 89h15.5" class="st5"/><path id="line71" d="M462.22 93.77h9" class="st5"/></g><path id="path71" d="M454.54 197c0-7.51-6.11-13.63-13.63-13.63-1.87 0-3.69.39-5.42 1.13-2.93-1.96-7.77-4.66-9.76-2.68-1.98 1.98.72 6.83 2.68 9.76-.74 1.73-1.13 3.54-1.13 5.42 0 7.51 6.11 13.63 13.63 13.63 1.87 0 3.69-.39 5.42-1.13 2.21 1.47 5.5 3.37 7.84 3.37.76 0 1.43-.2 1.92-.69 1.98-1.98-.72-6.83-2.68-9.76.74-1.73 1.13-3.54 1.13-5.42m-1.44 0c0 1.8-.39 3.55-1.15 5.19-.3.62-.64 1.22-1.04 1.78-.13.18-.29.34-.43.52-.28.36-.56.72-.88 1.05-.19.19-.41.36-.61.54-.31.27-.61.55-.94.79-.23.17-.49.31-.74.46-.28.17-.55.34-.84.49-.33-.23-.67-.49-1.01-.73-.34-.25-.68-.49-1.03-.76-.42-.33-.85-.68-1.28-1.03-.33-.27-.65-.52-.99-.8-.49-.41-.98-.86-1.47-1.3-.27-.24-.54-.47-.81-.72a77 77 0 0 1-4.46-4.46c-.22-.24-.43-.49-.65-.73-.47-.52-.94-1.04-1.38-1.56-.24-.29-.46-.56-.69-.85-.39-.47-.78-.95-1.15-1.42-.23-.29-.43-.58-.64-.87-.29-.38-.57-.77-.83-1.15.15-.29.32-.57.49-.85.15-.25.29-.5.46-.74.24-.33.52-.64.8-.95.18-.2.34-.42.53-.61.33-.32.7-.61 1.06-.89.17-.14.33-.29.51-.42.56-.39 1.15-.74 1.78-1.04a12.3 12.3 0 0 1 5.2-1.15c6.72 0 12.19 5.47 12.19 12.19zm-26.34-14.15c.18-.18.49-.29.92-.29 1.2 0 3.33.78 6.32 2.69-.03.02-.05.04-.08.05-.41.25-.81.52-1.19.81l-.3.24c-.8.64-1.53 1.37-2.17 2.17-.08.1-.16.2-.24.31-.29.38-.55.77-.8 1.18l-.06.09c-2.59-4.05-3.1-6.54-2.4-7.24Zm14.15 26.34c-6.72 0-12.19-5.47-12.19-12.19 0-1.37.23-2.72.67-4.01.17.23.36.47.53.7.22.3.45.6.68.9.36.46.74.93 1.12 1.39.23.28.46.56.7.84.44.52.9 1.03 1.37 1.55.21.23.41.47.63.7.7.75 1.41 1.5 2.15 2.24s1.49 1.45 2.24 2.15c.25.23.5.45.75.67.5.45 1 .9 1.5 1.33l.88.73c.45.38.91.74 1.36 1.09.31.24.61.47.91.69.23.17.47.36.69.53-1.29.45-2.63.67-4.01.67zm14.15 1.97c-.7.7-3.19.19-7.24-2.4.03-.02.05-.04.08-.05.41-.25.81-.52 1.19-.81.1-.08.21-.16.31-.24.8-.64 1.53-1.36 2.17-2.17.08-.1.17-.21.25-.32.28-.37.54-.75.78-1.15.02-.04.05-.07.07-.11 2.59 4.05 3.1 6.54 2.4 7.24h-.01Zm-5-26.16c2.66 0 4.82-2.16 4.82-4.82s-2.16-4.82-4.82-4.82-4.82 2.16-4.82 4.82 2.16 4.82 4.82 4.82m0-8.04c1.77 0 3.22 1.44 3.22 3.22s-1.44 3.22-3.22 3.22-3.22-1.44-3.22-3.22 1.44-3.22 3.22-3.22m11.77-3.05c-1.19 0-2.16.97-2.16 2.16s.97 2.16 2.16 2.16 2.16-.97 2.16-2.16-.97-2.16-2.16-2.16m0 2.89c-.4 0-.72-.32-.72-.72s.32-.72.72-.72.72.32.72.72-.32.72-.72.72" class="st0"/><path id="path72" d="M451.19 178.15c.26.13.46.32.6.55s.21.51.21.82c0 .25-.04.48-.13.7s-.22.39-.39.52-.37.19-.6.19q-.24 0-.39-.09c-.15-.09-.17-.15-.21-.26-.08.12-.19.2-.32.27-.13.06-.27.1-.43.1a.7.7 0 0 1-.52-.2c-.13-.13-.19-.31-.19-.54s.04-.42.13-.61.21-.34.37-.46a.84.84 0 0 1 .53-.17c.25 0 .42.09.5.27l.04-.23h.61l-.19 1.11c0 .05-.01.1-.01.14 0 .13.06.19.17.19q.21 0 .33-.27c.07-.18.11-.39.11-.63 0-.34-.11-.61-.32-.8s-.51-.29-.9-.29q-.495 0-.9.24c-.405.24-.48.38-.64.65-.15.28-.23.58-.23.91 0 .36.1.64.31.83s.5.3.88.3c.29 0 .55-.05.78-.16l.12.48c-.29.13-.61.19-.98.19-.34 0-.63-.06-.89-.19s-.45-.31-.59-.55q-.21-.36-.21-.84c0-.45.11-.85.32-1.21s.5-.65.87-.85c.37-.21.78-.31 1.23-.31.35 0 .65.07.91.2zm-1.17 2.17a.55.55 0 0 0 .23-.47c0-.1-.03-.18-.08-.25a.3.3 0 0 0-.23-.1c-.13 0-.24.06-.32.17a.62.62 0 0 0-.13.4c0 .1.02.18.07.23s.12.09.22.09a.4.4 0 0 0 .23-.08Z" class="st9"/><circle id="circle72" cx="275.7" cy="190.63" r="16.35" style="fill:#fcf3e4"/><path id="path73" d="M287.01 183.78c-.12-.51-.58-.87-1.1-.87h-18.16c-.63 0-1.14.51-1.14 1.14v15.89a1.14 1.14 0 0 0 1.65 1.02l13.62-6.81c.47-.24.72-.76.6-1.28s-.58-.87-1.1-.87h-8.81l13.86-6.93c.47-.24.72-.76.6-1.28h-.02Z" class="st8"/></svg>