<svg id="Layer_1" data-name="Layer 1" viewBox="0 0 596 365" version="1.1" xmlns="http://www.w3.org/2000/svg" xmlns:svg="http://www.w3.org/2000/svg"><defs id="defs1"><style id="style1">.cls-1{fill:#00b6af}.cls-2{fill:#f15a24}.cls-3{fill:#ffd647}.cls-4{fill:#a7a9ac}.cls-5{fill:#14313f}.cls-6,.cls-7,.cls-8{fill:#19455e}.cls-9{fill:#18465e;font-family:Poppins-Bold,Poppins;font-size:14px;font-weight:700}.cls-10{stroke:#f15a24;stroke-linecap:round}.cls-10,.cls-11{fill:none;stroke-width:2px}.cls-10,.cls-11,.cls-7{stroke-miterlimit:10}.cls-11{stroke:#14313f}.cls-7{opacity:.1;stroke:#19455e;stroke-width:.25px}.cls-12{opacity:.8}.cls-8{fill-rule:evenodd}</style></defs><rect style="font-variation-settings:'wght' 300" id="rect65" width="596" height="365" x="0" y="0" opacity="1" fill="#fff" stroke-width="1.002" stroke-linecap="round"/><g id="g29"><g id="g14"><g class="cls-12" id="g7"><rect class="cls-4" x="343.13" y="248.01" width=".19" height="105.02" id="rect1"/><rect class="cls-4" x="358.15" y="248.01" width=".19" height="105.02" id="rect2"/><rect class="cls-4" x="373.16" y="248.01" width=".19" height="105.02" id="rect3"/><rect class="cls-4" x="388.18" y="248.01" width=".19" height="105.02" id="rect4"/><rect class="cls-4" x="403.19" y="248.01" width=".19" height="105.02" id="rect5"/><rect class="cls-4" x="418.21" y="248.01" width=".19" height="105.02" id="rect6"/><rect class="cls-4" x="433.22" y="248.01" width=".19" height="105.02" id="rect7"/></g><g class="cls-12" id="g13"><rect class="cls-4" x="343" y="263.31" width="101.12" height=".19" id="rect8"/><rect class="cls-4" x="343" y="278.32" width="101.12" height=".19" id="rect9"/><rect class="cls-4" x="343" y="293.34" width="101.12" height=".19" id="rect10"/><rect class="cls-4" x="343" y="308.35" width="101.12" height=".19" id="rect11"/><rect class="cls-4" x="343" y="323.37" width="101.12" height=".19" id="rect12"/><rect class="cls-4" x="343" y="338.39" width="101.12" height=".19" id="rect13"/></g></g><g id="g21"><g class="cls-12" id="g16"><rect class="cls-4" x="76.43" y="260" width=".19" height="61" id="rect14"/><rect class="cls-4" x="91.45" y="260" width=".19" height="61" id="rect15"/><rect class="cls-4" x="106.46" y="260" width=".19" height="61" id="rect16"/></g><g class="cls-12" id="g20"><rect class="cls-4" x="65" y="268.74" width="52.36" height=".19" id="rect17"/><rect class="cls-4" x="65" y="283.75" width="52.36" height=".19" id="rect18"/><rect class="cls-4" x="65" y="298.77" width="52.36" height=".19" id="rect19"/><rect class="cls-4" x="65" y="313.79" width="52.36" height=".19" id="rect20"/></g></g><g id="g28"><g class="cls-12" id="g23"><rect class="cls-4" x="402.84" y="30.97" width=".19" height="61" id="rect21"/><rect class="cls-4" x="417.85" y="30.97" width=".19" height="61" id="rect22"/><rect class="cls-4" x="432.87" y="30.97" width=".19" height="61" id="rect23"/></g><g class="cls-12" id="g27"><rect class="cls-4" x="391.41" y="39.71" width="52.36" height=".19" id="rect24"/><rect class="cls-4" x="391.41" y="54.72" width="52.36" height=".19" id="rect25"/><rect class="cls-4" x="391.41" y="69.74" width="52.36" height=".19" id="rect26"/><rect class="cls-4" x="391.41" y="84.75" width="52.36" height=".19" id="rect27"/></g></g></g><polygon class="cls-3" points="266.6 139.31 266.6 128.39 274.42 123.71 283.73 128.39 283.43 139.31 275.31 144 266.6 139.31" id="polygon29"/><polygon class="cls-3" points="317.39 224.43 317.39 213.51 325.21 208.82 334.52 213.5 334.22 224.43 326.1 229.11 317.39 224.43" id="polygon30"/><polygon class="cls-3" points="215.92 224.41 215.92 213.49 223.74 208.81 233.05 213.49 232.75 224.41 224.64 229.1 215.92 224.41" id="polygon31"/><path class="cls-6" d="m288.59,141.19l-4.64-2.68v-9.37s0,0,0,0c0-.05,0-.1-.02-.15,0,0,0,0,0-.01,0-.02-.01-.04-.02-.06,0,0,0,0,0-.01,0-.02-.02-.04-.03-.07-.01-.02-.03-.04-.04-.06,0,0,0,0,0,0-.01-.02-.03-.03-.04-.05,0,0,0,0,0,0-.04-.04-.08-.07-.12-.09,0,0,0,0,0,0l-8.12-4.69v-3.3c0-.33-.27-.6-.6-.6s-.6.27-.6.6v3.3l-8.12,4.69s0,0,0,0c-.04.02-.08.05-.12.09,0,0,0,0,0,0-.01.01-.03.03-.04.05,0,0,0,0,0,0-.01.02-.03.04-.04.06-.01.02-.02.04-.03.07,0,0,0,0,0,.01,0,.02-.01.04-.02.06,0,0,0,0,0,.01-.01.05-.02.1-.02.15,0,0,0,0,0,0v9.37l-4.64,2.68c-.29.16-.38.53-.22.81.11.19.31.3.52.3.1,0,.2-.03.3-.08l4.64-2.68,8.12,4.69s0,0,0,0c.02.01.04.02.06.03,0,0,.01,0,.02,0,.02,0,.03.01.05.02,0,0,.02,0,.03,0,.01,0,.03,0,.04,0,0,0,.02,0,.03,0,.02,0,.03,0,.05,0,0,0,.01,0,.02,0s.01,0,.02,0c.02,0,.03,0,.05,0,0,0,.02,0,.03,0,.01,0,.03,0,.04,0,0,0,.02,0,.03,0,.02,0,.03-.01.05-.02,0,0,.01,0,.02,0,.02,0,.04-.02.06-.03,0,0,0,0,0,0l8.12-4.69,4.64,2.68c.09.05.2.08.3.08.21,0,.41-.11.52-.3.16-.29.07-.65-.22-.81Zm-13.66-16.22l7.22,4.17-7.22,4.17-7.22-4.17,7.22-4.17Zm-7.82,5.2l5.42,3.13,1.81,1.04v8.34l-7.22-4.17v-8.34Zm8.41,12.51v-8.34l1.81-1.04,5.42-3.13v8.34l-7.22,4.17Z" id="path31"/><path class="cls-6" d="m339.57,226.06l-4.64-2.68v-9.37s0,0,0,0c0-.05,0-.1-.02-.15,0,0,0,0,0-.01,0-.02-.01-.04-.02-.06,0,0,0,0,0-.01,0-.02-.02-.04-.03-.07-.01-.02-.03-.04-.04-.06,0,0,0,0,0,0-.01-.02-.03-.03-.04-.05,0,0,0,0,0,0-.04-.04-.08-.07-.12-.09,0,0,0,0,0,0l-8.12-4.69v-3.3c0-.33-.27-.6-.6-.6s-.6.27-.6.6v3.3l-8.12,4.69s0,0,0,0c-.04.02-.08.05-.12.09,0,0,0,0,0,0-.01.01-.03.03-.04.05,0,0,0,0,0,0-.01.02-.03.04-.04.06-.01.02-.02.04-.03.07,0,0,0,0,0,.01,0,.02-.01.04-.02.06,0,0,0,0,0,.01-.01.05-.02.1-.02.15,0,0,0,0,0,0v9.37l-4.64,2.68c-.29.16-.38.53-.22.81.11.19.31.3.52.3.1,0,.2-.03.3-.08l4.64-2.68,8.12,4.69s0,0,0,0c.02.01.04.02.06.03,0,0,.01,0,.02,0,.02,0,.03.01.05.02,0,0,.02,0,.03,0,.01,0,.03,0,.04,0,0,0,.02,0,.03,0,.02,0,.03,0,.05,0,0,0,.01,0,.02,0s.01,0,.02,0c.02,0,.03,0,.05,0,0,0,.02,0,.03,0,.01,0,.03,0,.04,0,0,0,.02,0,.03,0,.02,0,.03-.01.05-.02,0,0,.01,0,.02,0,.02,0,.04-.02.06-.03,0,0,0,0,0,0l8.12-4.69,4.64,2.68c.09.05.2.08.3.08.21,0,.41-.11.52-.3.16-.29.07-.65-.22-.81Zm-13.66-16.22l7.22,4.17-7.22,4.17-7.22-4.17,7.22-4.17Zm-7.82,5.2l5.42,3.13,1.81,1.04v8.34l-7.22-4.17v-8.34Zm8.41,12.51v-8.34l1.81-1.04,5.42-3.13v8.34l-7.22,4.17Z" id="path32"/><path class="cls-6" d="m237.99,226.06l-4.64-2.68v-9.37s0,0,0,0c0-.05,0-.1-.02-.15,0,0,0,0,0-.01,0-.02-.01-.04-.02-.06,0,0,0,0,0-.01,0-.02-.02-.04-.03-.07-.01-.02-.03-.04-.04-.06,0,0,0,0,0,0-.01-.02-.03-.03-.04-.05,0,0,0,0,0,0-.04-.04-.08-.07-.12-.09,0,0,0,0,0,0l-8.12-4.69v-3.3c0-.33-.27-.6-.6-.6s-.6.27-.6.6v3.3l-8.12,4.69s0,0,0,0c-.04.02-.08.05-.12.09,0,0,0,0,0,0-.01.01-.03.03-.04.05,0,0,0,0,0,0-.01.02-.03.04-.04.06-.01.02-.02.04-.03.07,0,0,0,0,0,.01,0,.02-.01.04-.02.06,0,0,0,0,0,.01-.01.05-.02.1-.02.15,0,0,0,0,0,0v9.37l-4.64,2.68c-.29.16-.38.53-.22.81.11.19.31.3.52.3.1,0,.2-.03.3-.08l4.64-2.68,8.12,4.69s0,0,0,0c.02.01.04.02.06.03,0,0,.01,0,.02,0,.02,0,.03.01.05.02,0,0,.02,0,.03,0,.01,0,.03,0,.04,0,0,0,.02,0,.03,0,.02,0,.03,0,.05,0,0,0,.01,0,.02,0s.01,0,.02,0c.02,0,.03,0,.05,0,0,0,.02,0,.03,0,.01,0,.03,0,.04,0,0,0,.02,0,.03,0,.02,0,.03-.01.05-.02,0,0,.01,0,.02,0,.02,0,.04-.02.06-.03,0,0,0,0,0,0l8.12-4.69,4.64,2.68c.09.05.2.08.3.08.21,0,.41-.11.52-.3.16-.29.07-.65-.22-.81Zm-13.66-16.22l7.22,4.17-7.22,4.17-7.22-4.17,7.22-4.17Zm-7.82,5.2l5.42,3.13,1.81,1.04v8.34l-7.22-4.17v-8.34Zm8.41,12.51v-8.34l1.81-1.04,5.42-3.13v8.34l-7.22,4.17Z" id="path33"/><g id="g34"><path class="cls-11" d="m215.71,205.17c-1.46-4.85-2.25-9.97-2.25-15.25,0-24.74,17.16-45.79,41.12-53.63" id="path34"/><polygon class="cls-5" points="251.15 146.33 249.37 145.41 253.89 136.65 244.82 132.77 245.61 130.93 256.66 135.65 251.15 146.33" id="polygon34"/></g><g id="g35"><path class="cls-11" d="m334.93,203.08c1.09-4.22,1.66-8.63,1.66-13.16,0-25.45-18.15-46.99-43.19-54.27" id="path35"/><polygon class="cls-5" points="344.27 198.39 343.14 196.74 335 202.3 330.04 193.78 328.31 194.79 334.35 205.17 344.27 198.39" id="polygon35"/></g><g id="g36"><path class="cls-11" d="m236.12,233.9c3.12,3.05,6.65,5.75,10.57,8.02,22.04,12.71,49.77,7.75,68.59-10.3" id="path36"/><polygon class="cls-5" points="235.52 244.32 237.51 244.17 236.76 234.34 246.62 234.3 246.61 232.3 234.6 232.35 235.52 244.32" id="polygon36"/></g><text class="cls-9" transform="translate(26.14 230.89)" id="text36"><tspan x="0" y="0" id="tspan36">EMAIL VERIFICATION</tspan></text><path class="cls-6" d="m304.63,165.36l-28.39-8.51h-.83l-28.39,8.45c-1.29.41-2.17,1.61-2.17,2.97l-.82,30.54c-.13,4.47,1.19,8.86,3.75,12.53,3.66,5.15,11.39,12.88,27.42,20.46h.08c.17.08.35.13.54.14.19,0,.37-.04.54-.12h.07c16.03-7.6,23.79-15.33,27.43-20.48,2.57-3.67,3.88-8.06,3.75-12.53l-.78-30.54c-.03-1.35-.93-2.52-2.21-2.9h0Zm-3.12,44.3c-3.42,4.8-10.67,12-25.69,19.22-15.02-7.22-22.27-14.43-25.69-19.22-2.21-3.15-3.34-6.94-3.22-10.78l.75-30.54c0-.09.06-.17.15-.21l28.01-8.35,27.98,8.33c.09.03.15.11.15.21l.78,30.54h0c.12,3.86-1.01,7.65-3.22,10.8h0Z" id="path37"/><circle class="cls-6" cx="275.83" cy="192.06" r="17.56" id="circle37"/><polygon class="cls-1" points="268.79 181.68 268.79 204.22 272.75 204.22 272.75 197.22 280.7 193.82 280.6 189.8 272.78 193.1 272.78 185.45 282.86 185.45 282.86 181.68 268.79 181.68 268.79 181.68" id="polygon37"/><text class="cls-9" transform="translate(226.93 333.36)" id="text37"><tspan x="0" y="0" id="tspan37">PERMISSIONS</tspan></text><g id="g46"><path class="cls-6" d="m42.2,116.55c-.56,0-1.02-.46-1.02-1.02v-3.99c0-.56.46-1.02,1.02-1.02s1.02.46,1.02,1.02v3.99c0,.56-.46,1.02-1.02,1.02Z" id="path38"/><path class="cls-6" d="m42.2,146.82c-.56,0-1.02-.46-1.02-1.02v-20.05c0-.56.46-1.02,1.02-1.02s1.02.46,1.02,1.02v20.05c0,.56-.46,1.02-1.02,1.02Z" id="path39"/><path class="cls-2" d="m42.31,126.26c-3.24,0-5.88-2.64-5.88-5.88s2.64-5.88,5.88-5.88,5.88,2.64,5.88,5.88-2.64,5.88-5.88,5.88Zm0-9.72c-2.12,0-3.84,1.72-3.84,3.84s1.72,3.84,3.84,3.84,3.84-1.72,3.84-3.84-1.72-3.84-3.84-3.84Z" id="path40"/><path class="cls-6" d="m54.99,130.36c-.56,0-1.02-.46-1.02-1.02v-17.8c0-.56.46-1.02,1.02-1.02s1.02.46,1.02,1.02v17.8c0,.56-.46,1.02-1.02,1.02Z" id="path41"/><path class="cls-6" d="m54.99,146.82c-.56,0-1.02-.46-1.02-1.02v-5.73c0-.56.46-1.02,1.02-1.02s1.02.46,1.02,1.02v5.73c0,.56-.46,1.02-1.02,1.02Z" id="path42"/><path class="cls-2" d="m55.09,141.1c-3.24,0-5.88-2.64-5.88-5.88s2.64-5.88,5.88-5.88,5.88,2.64,5.88,5.88-2.64,5.88-5.88,5.88Zm0-9.72c-2.12,0-3.84,1.72-3.84,3.84s1.72,3.84,3.84,3.84,3.84-1.72,3.84-3.84-1.72-3.84-3.84-3.84Z" id="path43"/><path class="cls-6" d="m29.42,126.78c-.56,0-1.02-.46-1.02-1.02v-14.22c0-.56.46-1.02,1.02-1.02s1.02.46,1.02,1.02v14.22c0,.56-.46,1.02-1.02,1.02Z" id="path44"/><path class="cls-6" d="m29.42,146.82c-.56,0-1.02-.46-1.02-1.02v-9.82c0-.56.46-1.02,1.02-1.02s1.02.46,1.02,1.02v9.82c0,.56-.46,1.02-1.02,1.02Z" id="path45"/><path class="cls-2" d="m29.52,136.49c-3.24,0-5.88-2.64-5.88-5.88s2.64-5.88,5.88-5.88,5.88,2.64,5.88,5.88-2.64,5.88-5.88,5.88Zm0-9.72c-2.12,0-3.84,1.72-3.84,3.84s1.72,3.84,3.84,3.84,3.84-1.72,3.84-3.84-1.72-3.84-3.84-3.84Z" id="path46"/></g><text class="cls-9" transform="translate(68.92 132.92)" id="text46"><tspan x="0" y="0" id="tspan46">USER CONTROL</tspan></text><text class="cls-9" transform="translate(375.35 230.89)" id="text47"><tspan x="0" y="0" id="tspan47">UNIVERSAL HANDLE</tspan></text><text class="cls-9" transform="translate(375.18 132.92)" id="text48"><tspan x="0" y="0" id="tspan48">TRUSTED COMMUNICATIONS</tspan></text><text class="cls-9" transform="translate(195.59 82.69)" id="text49"><tspan x="0" y="0" id="tspan49">DECENTRALIZED IDENTITY</tspan></text><ellipse class="cls-7" cx="270.75" cy="257.75" rx="104.25" ry="6.75" id="ellipse49"/><path class="cls-8" d="m84.99,189.13h24.59c.79,0,1.5.32,2.02.84.52.52.84,1.23.84,2.02v16.16c0,.79-.32,1.5-.84,2.02-.52.52-1.23.84-2.02.84h-24.59c-.79,0-1.5-.32-2.02-.84s-.84-1.23-.84-2.02v-16.16c0-.79.32-1.5.84-2.02.52-.52,1.23-.84,2.02-.84h0Zm25.42,20.09l-9.53-8.17-1.37,1.18c-.61.53-1.42.79-2.21.8-.8,0-1.6-.26-2.21-.78l-1.39-1.19-9.53,8.17c.23.18.52.28.82.28h24.59c.31,0,.6-.11.83-.28h0Zm-26.78-1.51l8.92-7.65-8.92-7.65v15.29Zm.53-16.8l10.01,8.58h.01s1.87,1.62,1.87,1.62c.33.28.78.43,1.23.42.46,0,.91-.15,1.25-.44l1.85-1.59h.02s10-8.59,10-8.59c-.23-.18-.52-.28-.83-.28h-24.59c-.31,0-.59.11-.82.28h0Zm26.77,1.52l-8.91,7.64,8.91,7.64v-15.28h0Z" id="path49"/><g id="g60"><path class="cls-6" d="m280.49,24.57c-.17,0-.34-.04-.49-.12-3.81-1.96-10.77-2.24-14.06-.57-.53.27-1.18.06-1.45-.47-.27-.53-.06-1.18.47-1.45,3.85-1.95,11.63-1.64,16.01.57.53.27.75.91.48,1.44-.18.37-.56.6-.97.6Z" id="path50"/><path class="cls-6" d="m284.58,40.68c-.4,0-.76-.22-.95-.57-2.26-4.23-6.76-7.1-12.02-7.66-5.48-.59-10.77,1.41-13.82,5.23-.38.46-1.06.53-1.52.15-.45-.37-.53-1.03-.17-1.49,3.5-4.39,9.53-6.7,15.74-6.03,5.97.65,11.09,3.93,13.69,8.79.28.52.08,1.18-.44,1.46,0,0,0,0,0,0-.16.08-.33.12-.51.12Z" id="path51"/><g id="g53"><path class="cls-2" d="m277.08,26.26c-6.19-1.8-13.36-.95-17.53,2.07-.02.02-.05.03-.07.05-.47.37-.55,1.05-.18,1.51.37.47,1.05.55,1.51.18,3.82-2.76,10.73-3.42,16.42-1.52,0,0,.9.32,1.2-.66.16-.53.03-1.24-1.36-1.63Z" id="path52"/><path class="cls-2" d="m285.09,30.87c-.04-.06-.94-1.07-2-1.79-.73-.54-1.48-1-2.24-1.36-.72-.34-1.26-.01-1.49.53-.23.55.02,1.18.57,1.41,1.1.52,2.18,1.3,3.2,2.26.12.12.24.25.35.38.38.46,1.05.53,1.52.16.46-.38.62-.98.1-1.58Z" id="path53"/></g><path class="cls-6" d="m278.51,56.66c-.05.37-.11.74-.2,1.1-.78,2.89-3.75,4.6-6.64,3.82-2.84-.85-4.59-3.72-4.03-6.64.59-3.29.45-2.57.94-4.25.27-.79,1.08-.92,1.58-.6.85.56.29,1.4-.38,5.2-.4,1.83.67,3.66,2.45,4.23,1.73.46,3.52-.57,3.98-2.3,0,0,0-.02,0-.03l.13-.84c.27-1.68,2.39-1.3,2.16.3Z" id="path54"/><path class="cls-6" d="m278.09,54.35c-.07,0-.15,0-.22-.02-.58-.12-.95-.69-.83-1.26.02-.08,1-5.04-1.29-8.34-1.08-1.55-2.75-2.51-4.97-2.86-2.11-.33-3.99.22-5.6,1.61-2.89,2.51-4.08,7.02-4.07,8.4,0,.59-.47,1.07-1.06,1.08,0,0,0,0-.01,0-.58,0-1.06-.47-1.07-1.06-.02-1.96,1.4-7.09,4.8-10.04,2.11-1.83,4.58-2.54,7.33-2.11,2.82.44,4.98,1.7,6.4,3.76,2.82,4.07,1.67,9.74,1.62,9.98-.11.5-.55.85-1.04.85Z" id="path55"/><g id="g57"><path class="cls-2" d="m265.69,48.59c-.16-.06-.34-.09-.51-.07-1.06.14-1.43,2.12-1.54,2.59h0c-.43,1.64-.78,3.79-.37,6.13.07.4.36.73.74.85.17.05.35.07.52.04.59-.1.98-.67.88-1.26,0,0,0,0,0,0-.4-2.23.03-4.27.49-5.79.1-.31.29-.79.4-1.08,0,0,0,0,0,0,.22-.56-.06-1.19-.62-1.4Z" id="path56"/><path class="cls-2" d="m270.56,44.23c-1.42-.28-3.35-.04-4.78,1.45-.28.29-.38.72-.26,1.1.05.17.15.32.27.44.43.42,1.12.41,1.53-.02,0,0,0,0,0,0,.13-.14.27-.34.7-.57.63-.33,1.36-.46,2.11-.31,1.82.44,3,2.2,2.73,4.05-.42,3.83-.57,3.84-.98,4.89-.22.56.05,1.19.61,1.41s1.19-.05,1.41-.61c.66-1.65.76-2.17,1.12-5.49.36-2.95-1.57-5.69-4.47-6.35Z" id="path57"/></g><g id="g59"><path class="cls-2" d="m283.6,46.17c-.89-5.56-6.35-10.86-11.9-11.54-2.9-.35-5.05.15-5.36.23-.02,0-1.05.17-.84,1.32.11.59.73.9,1.31.78.22-.05.43-.08.64-.11.73-.1,1.92-.34,3.98-.09,4.63.57,9.3,5.14,10.05,9.77.09.52.55.91,1.08.9l.15-.02s0,0,0,0c.59-.1.98-.65.89-1.24Z" id="path58"/><path class="cls-2" d="m263.56,36.23c-.37,0-.9.31-.9.32,0,0-5,2.95-6.92,9.33,0,.02-.01.04-.02.05-.15.58.2,1.16.78,1.31.58.15,1.14-.21,1.31-.78,1.52-5.11,5.59-7.85,5.59-7.85.11-.06.56-.42.69-.52.85-.65.08-1.86-.53-1.86Z" id="path59"/></g></g><path class="cls-6" d="m283.44,271c-5.83,0-10.56,4.73-10.56,10.56v18.89c0,4.6-3.73,8.33-8.33,8.33s-8.33-3.73-8.33-8.33,3.73-8.33,8.33-8.33h5c.61,0,1.11-.5,1.11-1.11s-.5-1.11-1.11-1.11h-5c-5.83,0-10.56,4.73-10.56,10.56s4.73,10.56,10.56,10.56,10.56-4.73,10.56-10.56v-18.89c0-4.6,3.73-8.33,8.33-8.33s8.33,3.73,8.33,8.33-3.73,8.33-8.33,8.33h-5c-.61,0-1.11.5-1.11,1.11s.5,1.11,1.11,1.11h5c5.83,0,10.56-4.73,10.56-10.56s-4.73-10.56-10.56-10.56Z" id="path60"/><path class="cls-2" d="m268.22,296.88l-4.84,4.84-2.56-2.13c-.47-.39-1.17-.33-1.57.14-.39.47-.33,1.17.14,1.57h0l3.33,2.78c.44.37,1.09.33,1.49-.07l5.56-5.56c.46-.41.49-1.11.08-1.57s-1.11-.49-1.57-.08c-.03.02-.05.05-.08.08Z" id="path61"/><path class="cls-2" d="m279.33,285.67c.43.43,1.13.43,1.57,0l2.55-2.54,2.55,2.54c.47.4,1.17.34,1.57-.12.36-.42.36-1.03,0-1.45l-2.54-2.55,2.54-2.55c.4-.47.34-1.17-.12-1.57-.42-.36-1.03-.36-1.45,0l-2.55,2.54-2.55-2.54c-.47-.4-1.17-.34-1.57.12-.36.42-.36,1.03,0,1.45l2.54,2.55-2.54,2.55c-.43.43-.43,1.13,0,1.57Z" id="path62"/><g id="g64"><path class="cls-6" d="m489.99,88.53h-7.13v-1.84c0-1.96-1.59-3.55-3.55-3.56h-18.64c-1.96,0-3.55,1.6-3.55,3.56v12.02c0,1.96,1.59,3.55,3.55,3.56h1.53v5.62c0,.31.2.59.5.69.3.1.63,0,.81-.26l4.27-5.77v1.56c0,1.96,1.6,3.55,3.56,3.55h11.32l4.48,6.05c.19.25.52.36.81.26.3-.1.5-.38.5-.69v-5.62h1.53,0c1.96,0,3.55-1.59,3.55-3.55v-12.02c0-1.96-1.59-3.55-3.55-3.55h0Zm-22.94,12.57l-3.38,4.57v-4.14c0-.19-.08-.38-.21-.52-.14-.14-.32-.21-.52-.21h-2.26c-1.16,0-2.09-.94-2.09-2.1v-12.02c0-1.16.93-2.1,2.09-2.1h18.64c1.16,0,2.09.94,2.09,2.1v12.02c0,1.16-.93,2.1-2.09,2.1h-11.68c-.23,0-.45.11-.58.29h0Zm25.03,3h0c0,1.15-.94,2.09-2.09,2.09h-2.26c-.4,0-.73.33-.73.73v4.14l-3.38-4.57c-.14-.19-.35-.29-.58-.29h-11.69c-1.16,0-2.1-.93-2.1-2.09v-1.84h10.07c1.96,0,3.55-1.6,3.55-3.56v-8.72h7.13c1.15,0,2.09.94,2.09,2.09v12.03Z" id="path63"/><line class="cls-10" x1="462.22" y1="89" x2="477.72" y2="89" id="line63"/><line class="cls-10" x1="462.22" y1="93.77" x2="471.22" y2="93.77" id="line64"/></g><path class="cls-6" d="m454.54,197c0-7.51-6.11-13.63-13.63-13.63-1.87,0-3.69.39-5.42,1.13-2.93-1.96-7.77-4.66-9.76-2.68-1.98,1.98.72,6.83,2.68,9.76-.74,1.73-1.13,3.54-1.13,5.42,0,7.51,6.11,13.63,13.63,13.63,1.87,0,3.69-.39,5.42-1.13,2.21,1.47,5.5,3.37,7.84,3.37.76,0,1.43-.2,1.92-.69,1.98-1.98-.72-6.83-2.68-9.76.74-1.73,1.13-3.54,1.13-5.42h0Zm-1.44,0c0,1.8-.39,3.55-1.15,5.19-.3.62-.64,1.22-1.04,1.78-.13.18-.29.34-.43.52-.28.36-.56.72-.88,1.05-.19.19-.41.36-.61.54-.31.27-.61.55-.94.79-.23.17-.49.31-.74.46-.28.17-.55.34-.84.49-.33-.23-.67-.49-1.01-.73-.34-.25-.68-.49-1.03-.76-.42-.33-.85-.68-1.28-1.03-.33-.27-.65-.52-.99-.8-.49-.41-.98-.86-1.47-1.3-.27-.24-.54-.47-.81-.72-.76-.7-1.52-1.43-2.27-2.18s-1.48-1.51-2.19-2.28c-.22-.24-.43-.49-.65-.73-.47-.52-.94-1.04-1.38-1.56-.24-.29-.46-.56-.69-.85-.39-.47-.78-.95-1.15-1.42-.23-.29-.43-.58-.64-.87-.29-.38-.57-.77-.83-1.15.15-.29.32-.57.49-.85.15-.25.29-.5.46-.74.24-.33.52-.64.8-.95.18-.2.34-.42.53-.61.33-.32.7-.61,1.06-.89.17-.14.33-.29.51-.42.56-.39,1.15-.74,1.78-1.04,1.65-.76,3.39-1.15,5.2-1.15,6.72,0,12.19,5.47,12.19,12.19h0Zm-26.34-14.15c.18-.18.49-.29.92-.29,1.2,0,3.33.78,6.32,2.69-.03.02-.05.04-.08.05-.41.25-.81.52-1.19.81-.1.08-.2.16-.3.24-.8.64-1.53,1.37-2.17,2.17-.08.1-.16.2-.24.31-.29.38-.55.77-.8,1.18-.02.03-.04.06-.06.09-2.59-4.05-3.1-6.54-2.4-7.24h0Zm14.15,26.34c-6.72,0-12.19-5.47-12.19-12.19,0-1.37.23-2.72.67-4.01.17.23.36.47.53.7.22.3.45.6.68.9.36.46.74.93,1.12,1.39.23.28.46.56.7.84.44.52.9,1.03,1.37,1.55.21.23.41.47.63.7.7.75,1.41,1.5,2.15,2.24s1.49,1.45,2.24,2.15c.25.23.5.45.75.67.5.45,1,.9,1.5,1.33.3.25.59.49.88.73.45.38.91.74,1.36,1.09.31.24.61.47.91.69.23.17.47.36.69.53-1.29.45-2.63.67-4.01.67h0Zm14.15,1.97c-.7.7-3.19.19-7.24-2.4.03-.02.05-.04.08-.05.41-.25.81-.52,1.19-.81.1-.08.21-.16.31-.24.8-.64,1.53-1.36,2.17-2.17.08-.1.17-.21.25-.32.28-.37.54-.75.78-1.15.02-.04.05-.07.07-.11,2.59,4.05,3.1,6.54,2.4,7.24h0Zm-5-26.16c2.66,0,4.82-2.16,4.82-4.82s-2.16-4.82-4.82-4.82-4.82,2.16-4.82,4.82,2.16,4.82,4.82,4.82Zm0-8.04c1.77,0,3.22,1.44,3.22,3.22s-1.44,3.22-3.22,3.22-3.22-1.44-3.22-3.22,1.44-3.22,3.22-3.22Zm11.77-3.05c-1.19,0-2.16.97-2.16,2.16s.97,2.16,2.16,2.16,2.16-.97,2.16-2.16-.97-2.16-2.16-2.16Zm0,2.89c-.4,0-.72-.32-.72-.72s.32-.72.72-.72.72.32.72.72-.32.72-.72.72Z" id="path64"/><path class="cls-2" d="m451.19,178.15c.26.13.46.32.6.55s.21.51.21.82c0,.25-.04.48-.13.7-.09.22-.22.39-.39.52-.17.13-.37.19-.6.19-.16,0-.29-.03-.39-.09-.1-.06-.17-.15-.21-.26-.08.12-.19.2-.32.27-.13.06-.27.1-.43.1-.22,0-.39-.07-.52-.2-.13-.13-.19-.31-.19-.54,0-.22.04-.42.13-.61s.21-.34.37-.46c.16-.12.33-.17.53-.17.25,0,.42.09.5.27l.04-.23h.61l-.19,1.11c0,.05-.01.1-.01.14,0,.13.06.19.17.19.14,0,.25-.09.33-.27.07-.18.11-.39.11-.63,0-.34-.11-.61-.32-.8-.21-.19-.51-.29-.9-.29-.33,0-.63.08-.9.24-.27.16-.48.38-.64.65-.15.28-.23.58-.23.91,0,.36.1.64.31.83s.5.3.88.3c.29,0,.55-.05.78-.16l.12.48c-.29.13-.61.19-.98.19-.34,0-.63-.06-.89-.19-.26-.13-.45-.31-.59-.55-.14-.24-.21-.52-.21-.84,0-.45.11-.85.32-1.21.21-.36.5-.65.87-.85.37-.21.78-.31,1.23-.31.35,0,.65.07.91.2Zm-1.17,2.17c.07-.05.13-.12.17-.2.04-.08.06-.17.06-.27s-.03-.18-.08-.25c-.06-.06-.13-.1-.23-.1-.13,0-.24.06-.32.17-.09.11-.13.25-.13.4,0,.1.02.18.07.23s.12.09.22.09c.08,0,.16-.03.23-.08Z" id="path65"/></svg>