<svg xmlns="http://www.w3.org/2000/svg" viewBox="0 0 596 365" xmlns:v="https://vecta.io/nano"><style><![CDATA[.E,.H,.G{isolation:isolate}.L{fill:#fcf3e4}.M{fill:#ff9a02}.N{opacity:.8}.O{fill:#a7a9ac}.P{font-family:Poppins-Bold,Poppins}.Q{font-size:14px}.R{font-weight:700}]]></style><g class="N O"><use href="#B"/><use href="#B" x="15.02"/><use href="#B" x="30.03"/><use href="#B" x="45.05"/><use href="#B" x="60.06"/><use href="#B" x="75.08"/><use href="#B" x="90.09"/></g><g class="N O"><use href="#C"/><use href="#C" y="15.01"/><use href="#C" y="30.03"/><use href="#C" y="45.04"/><use href="#C" y="60.06"/><use href="#C" y="75.08"/></g><g class="N O"><path d="M76.05 259.87h.19v61h-.19zm15.02 0h.19v61h-.19zm15.01 0h.19v61h-.19z"/></g><g class="N O"><use href="#D"/><use href="#D" y="15.01"/><use href="#D" y="30.03"/><use href="#D" y="45.05"/></g><g class="N O"><path d="M402.46 30.84h.19v61h-.19zm15.01 0h.19v61h-.19zm15.02 0h.19v61h-.19z"/></g><g class="N O"><use href="#E"/><use href="#E" y="15.01"/><use href="#E" y="30.03"/><use href="#E" y="45.04"/></g><path d="M266.22 139.18v-10.92l8.16-4.23 8.72 4.98-.05 10.17-8.12 4.69-8.71-4.69zm50.79 85.12v-10.92l7.82-4.69 9.31 4.68-.3 10.93-8.12 4.68-8.71-4.68zm-101.47-.02v-10.92l7.82-4.68 9.31 4.68-.3 10.92-8.11 4.69-8.72-4.69z" class="M"/><g class="L"><use href="#F"/><use href="#F" x="50.98" y="84.87"/><path d="M237.61 225.93l-4.64-2.68v-9.37h0c0-.05 0-.1-.02-.15h0s0-.05-.02-.07h0l-.03-.08c0-.02-.03-.04-.04-.06h0s-.03-.03-.04-.05h0s-.08-.07-.12-.09h0l-8.12-4.69v-3.3a.6.6 0 0 0-1.2 0v3.3l-8.12 4.69h0s-.08.05-.12.09h0s-.03.03-.04.05h0s-.03.04-.04.06-.02.04-.03.07h0s0 .05-.02.07h0c0 .06-.02.11-.02.16h0v9.37l-4.64 2.68c-.29.16-.38.53-.22.81a.6.6 0 0 0 .52.3c.1 0 .2-.03.3-.08l4.64-2.68 8.12 4.69h0l.06.03h.02s.03 0 .05.02h.34s.03 0 .05-.02h.02l.06-.03h0l8.12-4.69 4.64 2.68a.64.64 0 0 0 .3.08.6.6 0 0 0 .52-.3c.16-.29.07-.65-.22-.81h-.06zm-13.66-16.22l7.22 4.17-7.22 4.17-7.22-4.17 7.22-4.17zm-7.82 5.2l5.42 3.13 1.81 1.04v8.34l-7.22-4.17v-8.34h0zm8.41 12.51v-8.34l1.81-1.04 5.42-3.13v8.34l-7.22 4.17h0zm-10.17-22.09a53.89 53.89 0 0 1-2.29-15.54c0-24.46 16.8-46.4 41.81-54.58l.62 1.9c-24.18 7.91-40.43 29.08-40.43 52.68 0 5.06.74 10.1 2.21 14.96l-1.92.58h0z"/><path d="M250.77 146.2l-1.78-.92 4.52-8.76-9.07-3.88.79-1.84 11.05 4.72-5.51 10.68zm84.75 57l-1.94-.5c1.08-4.18 1.63-8.53 1.63-12.91 0-24.5-17.07-45.92-42.47-53.31l.56-1.92c26.26 7.64 43.91 29.83 43.91 55.23 0 4.55-.57 9.06-1.69 13.41z"/><path d="M343.89 198.26l-1.13-1.65-8.14 5.56-4.96-8.52-1.73 1.01 6.04 10.38 9.92-6.78zm-70.79 51.66c-9.45 0-18.81-2.38-27.29-7.27-3.92-2.27-7.55-5.02-10.77-8.17l1.4-1.43a52.5 52.5 0 0 0 10.37 7.87c21.22 12.24 48.3 8.16 67.4-10.16l1.38 1.44c-12.14 11.64-27.42 17.71-42.5 17.71h.01z"/><path d="M235.14 244.19l1.99-.15-.75-9.83 9.86-.04-.01-2-12.01.05.92 11.97z"/><text class="E P Q R"><tspan x="25.76" y="230.76">EMAIL VERIFICATION</tspan><tspan x="226.55" y="333.23">PERMISSIONS</tspan></text><path d="M41.82 116.42c-.56 0-1.02-.46-1.02-1.02v-3.99c0-.56.46-1.02 1.02-1.02s1.02.46 1.02 1.02v3.99c0 .56-.46 1.02-1.02 1.02zm0 30.27c-.56 0-1.02-.46-1.02-1.02v-20.05c0-.56.46-1.02 1.02-1.02s1.02.46 1.02 1.02v20.05c0 .56-.46 1.02-1.02 1.02z"/></g><use href="#G" class="M"/><path d="M54.61 130.23c-.56 0-1.02-.46-1.02-1.02v-17.8c0-.56.46-1.02 1.02-1.02s1.02.46 1.02 1.02v17.8c0 .56-.46 1.02-1.02 1.02zm0 16.46c-.56 0-1.02-.46-1.02-1.02v-5.73c0-.56.46-1.02 1.02-1.02s1.02.46 1.02 1.02v5.73c0 .56-.46 1.02-1.02 1.02z" class="L"/><use href="#G" x="12.78" y="14.84" class="M"/><path d="M29.04 126.65c-.56 0-1.02-.46-1.02-1.02v-14.22c0-.56.46-1.02 1.02-1.02s1.02.46 1.02 1.02v14.22c0 .56-.46 1.02-1.02 1.02zm0 20.04c-.56 0-1.02-.46-1.02-1.02v-9.82c0-.56.46-1.02 1.02-1.02s1.02.46 1.02 1.02v9.82c0 .56-.46 1.02-1.02 1.02h0z" class="L"/><path d="M29.14 136.36a5.89 5.89 0 0 1-5.88-5.88 5.89 5.89 0 0 1 5.88-5.88 5.89 5.89 0 0 1 5.88 5.88 5.89 5.89 0 0 1-5.88 5.88zm0-9.72a3.84 3.84 0 0 0 0 7.68 3.84 3.84 0 1 0 0-7.68z" class="M"/><text class="E L P Q R"><tspan x="68.54" y="132.79">USER CONTROL</tspan><tspan x="374.97" y="230.76">UNIVERSAL HANDLE</tspan></text><text class="G E L P Q R"><tspan x="374.8" y="132.79">TRUSTED COMMUNICATIONS</tspan></text><text class="E L P Q R"><tspan x="195.21" y="82.56">DECENTRALIZED IDENTITY</tspan></text><ellipse class="H" cx="270.37" cy="257.62" rx="104.25" ry="6.75" fill="#19455e" opacity=".1" stroke="#19455e" stroke-width=".25"/><g class="L"><path d="M84.61 189h24.59a2.84 2.84 0 0 1 2.86 2.86v16.16a2.84 2.84 0 0 1-2.86 2.86H84.61a2.84 2.84 0 0 1-2.86-2.86v-16.16a2.84 2.84 0 0 1 2.86-2.86h0zm25.42 20.09l-9.53-8.17-1.37 1.18c-.61.53-1.42.79-2.21.8-.8 0-1.6-.26-2.21-.78l-1.39-1.19-9.53 8.17c.23.18.52.28.82.28h24.59c.31 0 .6-.11.83-.28h0zm-26.78-1.51l8.92-7.65-8.92-7.65v15.29h0zm.53-16.8l10.01 8.58h.01l1.87 1.62c.33.28.78.43 1.23.42.46 0 .91-.15 1.25-.44l1.85-1.59h.02l10-8.59a1.34 1.34 0 0 0-.83-.28H84.6c-.31 0-.59.11-.82.28h0zm26.77 1.52l-8.91 7.64 8.91 7.64V192.3h0z" fill-rule="evenodd"/><path d="M280.11 24.44c-.17 0-.34-.04-.49-.12-3.81-1.96-10.77-2.24-14.06-.57a1.08 1.08 0 0 1-1.45-.47 1.08 1.08 0 0 1 .47-1.45c3.85-1.95 11.63-1.64 16.01.57a1.07 1.07 0 0 1 .48 1.44c-.18.37-.56.6-.97.6h0zm4.09 16.11a1.08 1.08 0 0 1-.95-.57c-2.26-4.23-6.76-7.1-12.02-7.66-5.48-.59-10.77 1.41-13.82 5.23a1.08 1.08 0 0 1-1.52.15c-.45-.37-.53-1.03-.17-1.49 3.5-4.39 9.53-6.7 15.74-6.03 5.97.65 11.09 3.93 13.69 8.79.28.52.08 1.18-.44 1.46h0c-.16.08-.33.12-.51.12h0z"/></g><path d="M276.7 26.13c-6.19-1.8-13.36-.95-17.53 2.07-.02.02-.05.03-.07.05a1.075 1.075 0 0 0 1.33 1.69c3.82-2.76 10.73-3.42 16.42-1.52 0 0 .9.32 1.2-.66.16-.53.03-1.24-1.36-1.63h0zm8.01 4.61c-.04-.06-.94-1.07-2-1.79-.73-.54-1.48-1-2.24-1.36-.72-.34-1.26-.01-1.49.53-.23.55.02 1.18.57 1.41 1.1.52 2.18 1.3 3.2 2.26l.35.38a1.09 1.09 0 0 0 1.52.16c.46-.38.62-.98.1-1.58h-.01z" class="M"/><path d="M278.13 56.53l-.2 1.1c-.78 2.89-3.75 4.6-6.64 3.82a5.8 5.8 0 0 1-4.03-6.64l.94-4.25c.27-.79 1.08-.92 1.58-.6.85.56.29 1.4-.38 5.2-.4 1.83.67 3.66 2.45 4.23 1.73.46 3.52-.57 3.98-2.3v-.03l.13-.84c.27-1.68 2.39-1.3 2.16.3h.01zm-.42-2.31c-.07 0-.15 0-.22-.02a1.07 1.07 0 0 1-.83-1.26c.02-.08 1-5.04-1.29-8.34-1.08-1.55-2.75-2.51-4.97-2.86-2.11-.33-3.99.22-5.6 1.61-2.89 2.51-4.08 7.02-4.07 8.4a1.08 1.08 0 0 1-1.06 1.08h-.01c-.58 0-1.06-.47-1.07-1.06-.02-1.96 1.4-7.09 4.8-10.04 2.11-1.83 4.58-2.54 7.33-2.11 2.82.44 4.98 1.7 6.4 3.76 2.82 4.07 1.67 9.74 1.62 9.98-.11.5-.55.85-1.04.85h.01z" class="L"/><path d="M265.31 48.46a1.11 1.11 0 0 0-.51-.07c-1.06.14-1.43 2.12-1.54 2.59h0c-.43 1.64-.78 3.79-.37 6.13a1.09 1.09 0 0 0 .74.85c.17.05.35.07.52.04a1.09 1.09 0 0 0 .88-1.26h0c-.4-2.23.03-4.27.49-5.79l.4-1.08h0c.22-.56-.06-1.19-.62-1.4h.01zm4.87-4.36c-1.42-.28-3.35-.04-4.78 1.45-.28.29-.38.72-.26 1.1a1.05 1.05 0 0 0 .27.44c.43.42 1.12.41 1.53-.02h0c.13-.14.27-.34.7-.57a3.17 3.17 0 0 1 2.11-.31c1.82.44 3 2.2 2.73 4.05-.42 3.83-.57 3.84-.98 4.89-.22.56.05 1.19.61 1.41s1.19-.05 1.41-.61c.66-1.65.76-2.17 1.12-5.49.36-2.95-1.57-5.69-4.47-6.35h.01zm13.04 1.94c-.89-5.56-6.35-10.86-11.9-11.54-2.9-.35-5.05.15-5.36.23a1.04 1.04 0 0 0-.84 1.32c.11.59.73.9 1.31.78.22-.05.43-.08.64-.11.73-.1 1.92-.34 3.98-.09 4.63.57 9.3 5.14 10.05 9.77.09.52.55.91 1.08.9l.15-.02h0c.59-.1.98-.65.89-1.24h0zm-20.04-9.94c-.37 0-.9.31-.9.32 0 0-5 2.95-6.92 9.33 0 .02 0 .04-.02.05-.15.58.2 1.16.78 1.31s1.14-.21 1.31-.78c1.52-5.11 5.59-7.85 5.59-7.85.11-.06.56-.42.69-.52.85-.65.08-1.86-.53-1.86z" class="M"/><path d="M283.06,270.87c-5.83,0-10.56,4.73-10.56,10.56v18.89c0,4.6-3.73,8.33-8.33,8.33s-8.33-3.73-8.33-8.33,3.73-8.33,8.33-8.33h5c.61,0,1.11-.5,1.11-1.11s-.5-1.11-1.11-1.11h-5c-5.83,0-10.56,4.73-10.56,10.56s4.73,10.56,10.56,10.56,10.56-4.73,10.56-10.56v-18.89c0-4.6,3.73-8.33,8.33-8.33s8.33,3.73,8.33,8.33-3.73,8.33-8.33,8.33h-5c-.61,0-1.11.5-1.11,1.11s.5,1.11,1.11,1.11h5c5.83,0,10.56-4.73,10.56-10.56s-4.73-10.56-10.56-10.56h0Z" class="L"/><path d="M267.84 296.75l-4.84 4.84-2.56-2.13a1.12 1.12 0 0 0-1.57.14 1.12 1.12 0 0 0 .14 1.57h0l3.33 2.78c.44.37 1.09.33 1.49-.07l5.56-5.56c.46-.41.49-1.11.08-1.57s-1.11-.49-1.57-.08c-.03.02-.05.05-.08.08h.02zm11.11-11.21c.43.43 1.13.43 1.57 0l2.55-2.54 2.55 2.54a1.12 1.12 0 0 0 1.57-.12 1.11 1.11 0 0 0 0-1.45l-2.54-2.55 2.54-2.55a1.12 1.12 0 0 0-.12-1.57 1.11 1.11 0 0 0-1.45 0l-2.55 2.54-2.55-2.54a1.12 1.12 0 0 0-1.57.12 1.11 1.11 0 0 0 0 1.45l2.54 2.55-2.54 2.55c-.43.43-.43 1.13 0 1.57z" class="M"/><path d="M489.61 88.4h-7.13v-1.84c0-1.96-1.59-3.55-3.55-3.56h-18.64a3.56 3.56 0 0 0-3.55 3.56v12.02c0 1.96 1.59 3.55 3.55 3.56h1.53v5.62a.73.73 0 0 0 .5.69c.3.1.63 0 .81-.26l4.27-5.77v1.56a3.56 3.56 0 0 0 3.56 3.55h11.32l4.48 6.05c.19.25.52.36.81.26a.73.73 0 0 0 .5-.69v-5.62h1.53a3.55 3.55 0 0 0 3.55-3.55V91.96a3.55 3.55 0 0 0-3.55-3.55h.01zm-22.94 12.57l-3.38 4.57v-4.14a.78.78 0 0 0-.21-.52c-.14-.14-.32-.21-.52-.21h-2.26a2.09 2.09 0 0 1-2.09-2.1V86.55a2.09 2.09 0 0 1 2.09-2.1h18.64a2.09 2.09 0 0 1 2.09 2.1v12.02a2.09 2.09 0 0 1-2.09 2.1h-11.68a.72.72 0 0 0-.58.29h-.01zm25.03 3h0c0 1.15-.94 2.09-2.09 2.09h-2.26c-.4 0-.73.33-.73.73v4.14l-3.38-4.57c-.14-.19-.35-.29-.58-.29h-11.69a2.09 2.09 0 0 1-2.1-2.09v-1.84h10.07a3.56 3.56 0 0 0 3.55-3.56v-8.72h7.13c1.15 0 2.09.94 2.09 2.09v12.03h0z" class="L"/><path d="M461.84 88.87h15.5m-15.5 4.77h9" fill="none" stroke="#ff9a02" stroke-miterlimit="10"/><path d="M454.16 196.87a13.65 13.65 0 0 0-13.63-13.63 13.71 13.71 0 0 0-5.42 1.13c-2.93-1.96-7.77-4.66-9.76-2.68-1.98 1.98.72 6.83 2.68 9.76-.74 1.73-1.13 3.54-1.13 5.42a13.65 13.65 0 0 0 13.63 13.63 13.71 13.71 0 0 0 5.42-1.13c2.21 1.47 5.5 3.37 7.84 3.37.76 0 1.43-.2 1.92-.69 1.98-1.98-.72-6.83-2.68-9.76.74-1.73 1.13-3.54 1.13-5.42h0zm-1.44 0c0 1.8-.39 3.55-1.15 5.19a12.17 12.17 0 0 1-1.04 1.78c-.13.18-.29.34-.43.52-.28.36-.56.72-.88 1.05-.19.19-.41.36-.61.54-.31.27-.61.55-.94.79-.23.17-.49.31-.74.46-.28.17-.55.34-.84.49-.33-.23-.67-.49-1.01-.73l-1.03-.76-1.28-1.03-.99-.8c-.49-.41-.98-.86-1.47-1.3l-.81-.72a76.81 76.81 0 0 1-2.27-2.18c-.75-.75-1.48-1.51-2.19-2.28-.22-.24-.43-.49-.65-.73l-1.38-1.56-.69-.85-1.15-1.42c-.23-.29-.43-.58-.64-.87-.29-.38-.57-.77-.83-1.15.15-.29.32-.57.49-.85.15-.25.29-.5.46-.74.24-.33.52-.64.8-.95.18-.2.34-.42.53-.61a12.8 12.8 0 0 1 1.06-.89c.17-.14.33-.29.51-.42.56-.39 1.15-.74 1.78-1.04a12.32 12.32 0 0 1 5.2-1.15 12.21 12.21 0 0 1 12.19 12.19h0v.02h0zm-26.34-14.15c.18-.18.49-.29.92-.29 1.2 0 3.33.78 6.32 2.69-.03.02-.05.04-.08.05a13.84 13.84 0 0 0-1.19.81l-.3.24c-.8.64-1.53 1.37-2.17 2.17-.08.1-.16.2-.24.31-.29.38-.55.77-.8 1.18l-.06.09c-2.59-4.05-3.1-6.54-2.4-7.24h0zm14.15 26.34a12.21 12.21 0 0 1-12.19-12.19c0-1.37.23-2.72.67-4.01l.53.7.68.9 1.12 1.39.7.84a63.46 63.46 0 0 0 1.37 1.55c.21.23.41.47.63.7l2.15 2.24c.74.74 1.49 1.45 2.24 2.15.25.23.5.45.75.67l1.5 1.33.88.73c.45.38.91.74 1.36 1.09l.91.69c.23.17.47.36.69.53-1.29.45-2.63.67-4.01.67h0l.02.02h0zm14.15 1.97c-.7.7-3.19.19-7.24-2.4.03-.02.05-.04.08-.05a13.84 13.84 0 0 0 1.19-.81c.1-.08.21-.16.31-.24.8-.64 1.53-1.36 2.17-2.17.08-.1.17-.21.25-.32.28-.37.54-.75.78-1.15.02-.04.05-.07.07-.11 2.59 4.05 3.1 6.54 2.4 7.24h-.01zm-5-26.16c2.66 0 4.82-2.16 4.82-4.82s-2.16-4.82-4.82-4.82-4.82 2.16-4.82 4.82 2.16 4.82 4.82 4.82zm0-8.04c1.77 0 3.22 1.44 3.22 3.22a3.22 3.22 0 1 1-6.44 0 3.22 3.22 0 0 1 3.22-3.22zm11.77-3.05c-1.19 0-2.16.97-2.16 2.16s.97 2.16 2.16 2.16 2.16-.97 2.16-2.16-.97-2.16-2.16-2.16zm0 2.89c-.4 0-.72-.32-.72-.72s.32-.72.72-.72.72.32.72.72-.32.72-.72.72z" class="L"/><path d="M450.81,178.02c.26.13.46.32.6.55s.21.51.21.82c0,.25-.04.48-.13.7s-.22.39-.39.52-.37.19-.6.19c-.16,0-.29-.03-.39-.09s-.17-.15-.21-.26c-.08.12-.19.2-.32.27-.13.06-.27.1-.43.1-.22,0-.39-.07-.52-.2-.13-.13-.19-.31-.19-.54s.04-.42.13-.61.21-.34.37-.46c.16-.12.33-.17.53-.17.25,0,.42.09.5.27l.04-.23h.61l-.19,1.11c0,.05-.01.1-.01.14,0,.13.06.19.17.19.14,0,.25-.09.33-.27.07-.18.11-.39.11-.63,0-.34-.11-.61-.32-.8-.21-.19-.51-.29-.9-.29-.33,0-.63.08-.9.24s-.48.38-.64.65c-.15.28-.23.58-.23.91,0,.36.1.64.31.83s.5.3.88.3c.29,0,.55-.05.78-.16l.12.48c-.29.13-.61.19-.98.19-.34,0-.63-.06-.89-.19s-.45-.31-.59-.55c-.14-.24-.21-.52-.21-.84,0-.45.11-.85.32-1.21.21-.36.5-.65.87-.85.37-.21.78-.31,1.23-.31.35,0,.65.07.91.2h.02ZM449.64,180.19c.07-.05.13-.12.17-.2s.06-.17.06-.27-.03-.18-.08-.25c-.06-.06-.13-.1-.23-.1-.13,0-.24.06-.32.17-.09.11-.13.25-.13.4,0,.1.02.18.07.23s.12.09.22.09c.08,0,.16-.03.23-.08h0Z" class="M"/><circle cx="275.32" cy="190.5" r="16.35" fill="#790e70"/><path d="M286.63,183.65c-.12-.51-.58-.87-1.1-.87h-18.16c-.63,0-1.14.51-1.14,1.14v15.89c0,.39.2.76.54.97.18.11.39.17.6.17.17,0,.35-.04.51-.12l13.62-6.81c.47-.24.72-.76.6-1.28s-.58-.87-1.1-.87h-8.81l13.86-6.93c.47-.24.72-.76.6-1.28h-.02Z" class="L"/><defs ><path id="B" d="M342.75 247.88h.19V352.9h-.19z"/><path id="C" d="M342.62 263.18h101.12v.19H342.62z"/><path id="D" d="M64.62 268.61h52.36v.19H64.62z"/><path id="E" d="M391.03 39.58h52.36v.19h-52.36z"/><path id="F" d="M288.21 141.06l-4.64-2.68v-9.37h0c0-.05 0-.1-.02-.15h0s-.01-.05-.02-.07h0l-.03-.08c-.01-.02-.03-.04-.04-.06h0s-.03-.03-.04-.05h0s-.08-.07-.12-.09h0l-8.12-4.69v-3.3a.6.6 0 1 0-1.2 0v3.3l-8.12 4.69h0s-.08.05-.12.09h0s-.03.03-.04.05h0s-.03.04-.04.06-.02.04-.03.07h0s-.01.05-.02.07h0c-.01.06-.02.11-.02.16h0v9.37l-4.64 2.68c-.29.16-.38.53-.22.81a.6.6 0 0 0 .52.3c.1 0 .2-.03.3-.08l4.64-2.68 8.12 4.69h0l.06.03h.02s.03 0 .05.02h.34s.03 0 .05-.02h.02l.06-.03h0l8.12-4.69 4.64 2.68a.64.64 0 0 0 .3.08.6.6 0 0 0 .52-.3c.16-.29.07-.65-.22-.81h-.06 0zm-13.66-16.22l7.22 4.17-7.22 4.17-7.22-4.17 7.22-4.17zm-7.82 5.2l5.42 3.13 1.81 1.04v8.34l-7.22-4.17v-8.34h-.01zm8.41 12.51v-8.34l1.81-1.04 5.42-3.13v8.34l-7.22 4.17h-.01z"/><path id="G" d="M41.93 126.13a5.89 5.89 0 0 1-5.88-5.88 5.89 5.89 0 0 1 5.88-5.88 5.89 5.89 0 0 1 5.88 5.88 5.89 5.89 0 0 1-5.88 5.88zm0-9.72a3.84 3.84 0 1 0 0 7.68 3.84 3.84 0 1 0 0-7.68z"/></defs></svg>
