<svg fill="none" viewBox="0 0 1581 1015" xmlns="http://www.w3.org/2000/svg" xmlns:xlink="http://www.w3.org/1999/xlink"><linearGradient id="a" gradientUnits="userSpaceOnUse" x1="730.245" x2="449.298" y1="236.514" y2="236.514"><stop offset="0" stop-color="#48c578"/><stop offset=".5" stop-color="#67cf8c"/><stop offset="1" stop-color="#89daa3"/></linearGradient><linearGradient id="b" gradientUnits="userSpaceOnUse" x1="449.298" x2="297.298" y1="381.363" y2="381.363"><stop offset="0" stop-color="#89daa3"/><stop offset=".5" stop-color="#8edba7"/><stop offset="1" stop-color="#62cd89"/></linearGradient><linearGradient id="c" gradientUnits="userSpaceOnUse" x1="730.245" x2="631.914" y1="441.651" y2="441.651"><stop offset="0" stop-color="#ffd647"/><stop offset=".5" stop-color="#fcdf7b"/><stop offset="1" stop-color="#ffeba3"/></linearGradient><linearGradient id="d" gradientUnits="userSpaceOnUse" x1="632.2" x2="579" y1="491.988" y2="491.988"><stop offset="0" stop-color="#ffeba3"/><stop offset=".5" stop-color="#ffe075"/><stop offset="1" stop-color="#ffd647"/></linearGradient><linearGradient id="e" gradientUnits="userSpaceOnUse" x1="578.714" x2="297.298" y1="507.016" y2="507.016"><stop offset="0" stop-color="#3bbc6b"/><stop offset="1" stop-color="#3bbc6b"/></linearGradient><linearGradient id="f" gradientUnits="userSpaceOnUse" x1="580.056" x2="299.279" y1="497.821" y2="497.821"><stop offset="0" stop-color="#f99a2a"/><stop offset="1" stop-color="#f99a2a"/></linearGradient><linearGradient id="g" gradientUnits="userSpaceOnUse" x1="299.279" x2="291.49" y1="509.834" y2="509.834"><stop offset="0" stop-color="#4571f0"/><stop offset=".5" stop-color="#3567ef"/><stop offset="1" stop-color="#255eed"/></linearGradient><linearGradient id="h" gradientUnits="userSpaceOnUse" x1="580.057" x2="577.33" y1="532.019" y2="532.019"><stop offset="0" stop-color="#ffaa47"/><stop offset=".5" stop-color="#ffaa48"/><stop offset="1" stop-color="#ffab49"/></linearGradient><linearGradient id="i" gradientUnits="userSpaceOnUse" x1="307.076" x2="291.49" y1="592.222" y2="592.222"><stop offset="0" stop-color="#f99929"/><stop offset=".5" stop-color="#ed8102"/><stop offset="1" stop-color="#da7600"/></linearGradient><linearGradient id="j" gradientUnits="userSpaceOnUse" x1="615.792" x2="401.38" y1="707.004" y2="707.004"><stop offset="0" stop-color="#7894f4"/><stop offset="1" stop-color="#7894f4"/></linearGradient><linearGradient id="k" gradientUnits="userSpaceOnUse" x1="401.38" x2="307.076" y1="712.922" y2="712.922"><stop offset="0" stop-color="#e27e00"/><stop offset=".5" stop-color="#f58d13"/><stop offset="1" stop-color="#f99a2a"/></linearGradient><linearGradient id="l" gradientUnits="userSpaceOnUse" x1="640.776" x2="615.792" y1="637.962" y2="637.962"><stop offset="0" stop-color="#cb6500"/><stop offset=".5" stop-color="#bc5c00"/><stop offset="1" stop-color="#ac5300"/></linearGradient><linearGradient id="m" gradientUnits="userSpaceOnUse" x1="615.792" x2="401.38" y1="707.004" y2="707.004"><stop offset="0" stop-color="#ffb873"/><stop offset="1" stop-color="#ffb873"/></linearGradient><linearGradient id="n" gradientUnits="userSpaceOnUse" x1="640.777" x2="472.764" y1="743.41" y2="743.41"><stop offset="0" stop-color="#ffbf85"/><stop offset="1" stop-color="#ffbf85"/></linearGradient><linearGradient id="o" gradientUnits="userSpaceOnUse" x1="472.763" x2="401.38" y1="812.452" y2="812.452"><stop offset="0" stop-color="#ffbf85"/><stop offset=".5" stop-color="#ffae4c"/><stop offset="1" stop-color="#e48002"/></linearGradient><linearGradient id="p" gradientUnits="userSpaceOnUse" x1="735.391" x2="691.314" y1="671.21" y2="671.21"><stop offset="0" stop-color="#1a88a2"/><stop offset=".5" stop-color="#187891"/><stop offset="1" stop-color="#15687f"/></linearGradient><linearGradient id="q" gradientUnits="userSpaceOnUse" x1="691.314" x2="518.718" y1="758.443" y2="758.443"><stop offset="0" stop-color="#67c8e6"/><stop offset="1" stop-color="#67c8e6"/></linearGradient><linearGradient id="r" gradientUnits="userSpaceOnUse" x1="735.391" x2="644.652" y1="793.573" y2="793.573"><stop offset="0" stop-color="#3abedf"/><stop offset="1" stop-color="#3abedf"/></linearGradient><linearGradient id="s" gradientUnits="userSpaceOnUse" x1="644.652" x2="518.718" y1="880.806" y2="880.806"><stop offset="0" stop-color="#2f80ed"/><stop offset=".5" stop-color="#0b68e5"/><stop offset="1" stop-color="#1a79f8"/></linearGradient><linearGradient id="t" gradientUnits="userSpaceOnUse" x1="840.869" x2="804.067" y1="314.093" y2="314.093"><stop offset="0" stop-color="#7661ff"/><stop offset="1" stop-color="#7661ff"/></linearGradient><linearGradient id="u" gradientUnits="userSpaceOnUse" x1="804" x2="784" y1="431.8" y2="431.8"><stop offset="0" stop-color="#543bff"/><stop offset=".5" stop-color="#5a43ff"/><stop offset="1" stop-color="#5f4aff"/></linearGradient><linearGradient id="v" gradientUnits="userSpaceOnUse" x1="866.151" x2="804.415" y1="439.918" y2="439.918"><stop offset=".0223893" stop-color="#58cec6"/><stop offset="1" stop-color="#59ddd5"/></linearGradient><linearGradient id="w" gradientUnits="userSpaceOnUse" x1="913.958" x2="866.15" y1="466.665" y2="466.665"><stop offset="0" stop-color="#4ab9b1"/><stop offset="1" stop-color="#58cec6"/></linearGradient><linearGradient id="x" gradientUnits="userSpaceOnUse" x1="939.672" x2="913.958" y1="509.09" y2="509.09"><stop offset="0" stop-color="#59b6b1"/><stop offset=".95" stop-color="#4ab9b1"/></linearGradient><linearGradient id="y" gradientUnits="userSpaceOnUse" x1="1236.35" x2="1225.47" y1="598.396" y2="598.396"><stop offset="0" stop-color="#5dc3bc"/><stop offset=".5" stop-color="#5cc2bb"/><stop offset="1" stop-color="#5dc3bc"/></linearGradient><linearGradient id="z" gradientUnits="userSpaceOnUse" x1="1225.47" x2="1147.97" y1="707.282" y2="707.282"><stop offset="0" stop-color="#5dc3bc"/><stop offset=".5" stop-color="#89f0ec"/><stop offset="1" stop-color="#d1f9f6"/></linearGradient><linearGradient id="A" gradientUnits="userSpaceOnUse" x1="1147.98" x2="1008.42" y1="826.455" y2="826.455"><stop offset="0" stop-color="#d1f9f6"/><stop offset=".5" stop-color="#8febe5"/><stop offset="1" stop-color="#6ee4dd"/></linearGradient><linearGradient id="B" gradientUnits="userSpaceOnUse" x1="1008.13" x2="830.348" y1="900.469" y2="900.469"><stop offset="0" stop-color="#6ee4dd"/><stop offset=".5" stop-color="#62dad2"/><stop offset="1" stop-color="#72d0c8"/></linearGradient><linearGradient id="C" gradientUnits="userSpaceOnUse" x1="830.643" x2="645" y1="915.917" y2="915.917"><stop offset="0" stop-color="#72d0c8"/><stop offset=".5" stop-color="#61c0ba"/><stop offset="1" stop-color="#55b1ab"/></linearGradient><path d="m0 0h1581v1015h-1581z" fill="none"/><path d="m297.298 507.914c19.219-81.49 72.972-155.007 152-207.887s178.382-81.812 280.947-81.812v115.863 115.862c-35.898 0-70.672 10.127-98.331 28.635-27.66 18.508-46.474 44.239-53.2 72.76z" fill="#ffd647"/><path d="m730.245 173c-102.565 0-201.919 28.932-280.947 81.812v45.216c79.028-52.88 178.382-81.812 280.947-81.812z" fill="url(#a)"/><path d="m449.298 254.812c-79.028 52.88-132.781 126.397-152 207.887v45.215c19.219-81.489 72.972-155.006 152-207.886z" fill="url(#b)"/><path d="m631.914 433.36c27.659-18.508 62.433-28.634 98.331-28.634v45.215c-35.898 0-70.672 10.126-98.331 28.634z" fill="url(#c)"/><path d="m579 505.76c6.726-28.521 25.54-54.252 53.2-72.76v45.216c-27.66 18.508-46.474 44.239-53.2 72.76z" fill="url(#d)"/><path d="m297.298 462.698 281.416 43.421v45.216l-281.416-43.421z" fill="url(#e)"/><path d="m296.811 462.699c19.23-81.49 73.013-155.007 152.085-207.887s178.482-81.812 281.104-81.812v231.725c-35.918 0-70.711 10.126-98.386 28.634-27.676 18.508-46.5 44.239-53.23 72.761z" fill="#ffd647"/><path d="m401.38 808.64c-44.351-41.771-76.608-91.411-94.304-145.124-10.369-31.471-15.578-63.852-15.586-96.275-.006-22.915 2.586-45.85 7.789-68.501l280.778 44.475c-1.817 7.909-2.724 15.918-2.726 23.92-.003 11.367 1.82 22.719 5.455 33.751 6.194 18.8 17.484 36.174 33.006 50.794z" fill="#537ff1"/><path d="m580.056 496.902-280.777-44.474v46.312l280.777 44.475z" fill="url(#f)"/><path d="m299.279 452.428c-5.203 22.65-7.795 45.586-7.789 68.5v46.155c.006-22.862 2.597-45.744 7.789-68.343z" fill="url(#g)"/><path d="m577.33 520.823c.002-8.002.91-16.011 2.727-23.921v46.313c-1.817 7.91-2.725 15.919-2.727 23.921z" fill="url(#h)"/><path d="m577.33 520.876c0-.018 0-.036 0-.054v.054c.003 11.348 1.826 22.682 5.456 33.697v46.313c-3.635-11.033-5.458-22.385-5.456-33.751z" fill="#f77c47"/><path d="m577.33 520.822v.054z" fill="#f77c47"/><path d="m291.49 520.928c.008 32.423 5.217 64.803 15.586 96.275v46.312c-10.369-31.471-15.578-63.852-15.586-96.275z" fill="url(#i)"/><path d="m615.792 605.367c-15.523-14.62-26.813-31.994-33.007-50.794v46.313c6.194 18.799 17.484 36.174 33.007 50.794z" fill="#f99a2a"/><path d="m401.38 762.328 214.412-156.961v46.313l-214.412 156.961z" fill="url(#j)"/><path d="m307.076 617.203c17.697 53.713 49.954 103.354 94.304 145.125v46.313c-44.35-41.772-76.607-91.412-94.304-145.125z" fill="url(#k)"/><path d="m400.951 762.379c-44.375-41.754-76.65-91.374-94.356-145.065-17.707-53.691-20.375-110.03-7.801-164.708l280.934 44.456c-4.401 19.137-3.467 38.856 2.73 57.648s17.494 36.159 33.025 50.773z" fill="#f99a2a"/><path d="m472.763 862.575c-26.105-15.749-50.044-33.836-71.383-53.935l214.412-156.96c7.469 7.034 15.847 13.365 24.984 18.877z" fill="#ffae4c"/><path d="m640.776 624.244c-9.137-5.512-17.515-11.842-24.984-18.877v46.313c7.469 7.034 15.847 13.365 24.984 18.877z" fill="url(#l)"/><path d="m615.792 605.367-214.412 156.961v46.313l214.412-156.961z" fill="url(#m)"/><path d="m472.764 816.262 168.013-192.018v46.313l-168.013 192.018z" fill="url(#n)"/><path d="m401.38 762.328c21.339 20.099 45.278 38.186 71.383 53.935v46.312c-26.105-15.749-50.044-33.836-71.383-53.934z" fill="url(#o)"/><path d="m472.375 816.291c-26.121-15.742-50.073-33.822-71.424-53.912l214.532-156.896c7.473 7.031 15.856 13.359 24.998 18.869z" fill="#ffae4c"/><path d="m644.652 930.065c-45.085-11.881-87.583-29.445-125.934-52.045l172.596-192.682c13.423 7.91 28.297 14.057 44.077 18.216z" fill="#3cc3df"/><path d="m735.391 657.081c-15.78-4.159-30.654-10.306-44.077-18.216v46.473c13.423 7.91 28.297 14.057 44.077 18.216z" fill="url(#p)"/><path d="m691.314 638.865-172.596 192.683v46.473l172.596-192.683z" fill="url(#q)"/><path d="m644.652 883.593 90.739-226.512v46.473l-90.739 226.512z" fill="url(#r)"/><path d="m518.718 831.547c38.351 22.6 80.849 40.163 125.934 52.045v46.473c-45.085-11.882-87.583-29.445-125.934-52.045z" fill="url(#s)"/><path d="m644.979 884.062c-45.06-11.884-87.534-29.452-125.864-52.057l172.5-192.728c13.416 7.912 28.282 14.06 44.053 18.22z" fill="#2f80ed"/><path d="m784.25 335.353c0-59.469 0-118.937 0-118.937 18.929 0 37.839.963 56.619 2.885l-36.369 235.499c-6.573-.673-13.875-1-20.5-1 0 0 .25-58.979.25-118.447z" fill="#8979ff"/><path d="m804.067 408.884 36.802-235.998v46.416l-36.369 235.498z" fill="url(#t)"/><path d="m784 408.3c6.686 0 13.866.033 20.5.7v45.8c-6.634-.667-13.814-1-20.5-1z" fill="url(#u)"/><path d="m784.5 170c18.919 0 37.819.965 56.588 2.89l-36.782 236.346c-6.57-.673-13.184-1.011-19.806-1.011z" fill="#5e69ff"/><path d="m804.5 408c21.845 2.238 42.787 8.153 61.651 17.364v46.473c-18.864-9.211-39.891-15.125-61.736-17.364v-45.473z" fill="url(#v)"/><path d="m866.15 425.364c18.864 9.212 35.147 21.517 47.808 36.128v46.473c-12.661-14.611-28.944-26.916-47.808-36.128z" fill="url(#w)"/><path d="m913.958 461.492c12.66 14.611 21.595 31.112 25.89 48.628l-.176 46.567c-4.295-17.516-13.054-34.111-25.714-48.722z" fill="url(#x)"/><path d="m939.672 556.687.176-46.568c.825 3.365 1.886 6.614 2.5 10.001.895 4.937 1.001 10.025 1 15l-.638 46.614c.003-8.387-1.009-16.777-3.038-25.047z" fill="#55b1ab"/><path d="m942.71 535.262c-.002 9.375-1.272 18.748-3.808 27.947v46.473c2.536-9.199 3.806-18.572 3.808-27.947z" fill="#55b1ab"/><path d="m1236.35 535.155v.156z" fill="url(#y)"/><path d="m1236.35 535.155v.156 46.317c.01 26.841-3.62 53.673-10.88 80.009v-46.473c7.24-26.285 10.87-53.064 10.88-79.853z" fill="url(#y)"/><path d="m1147.97 752.927c37.38-41.043 63.77-87.966 77.5-137.763v46.473c-13.73 49.797-40.12 96.72-77.5 137.763z" fill="url(#z)"/><path d="m1007 854.5c54.65-25.281 103.6-60.53 140.98-101.573v46.473c-37.38 41.043-87.33 76.819-141.98 102.1z" fill="url(#A)"/><path d="m830.348 900.346c62.582-5.201 123.134-20.946 177.782-46.227v46.473c-54.648 25.281-115.2 41.026-177.782 46.227z" fill="url(#B)"/><path d="m645 883.714c59.83 15.768 123.061 21.226 185.643 16.025v46.473c-62.582 5.201-125.813-.257-185.643-16.025z" fill="url(#C)"/><path d="m841.088 172.89c62.379 6.397 122.424 23.299 176.292 49.623 53.86 26.325 100.36 61.491 136.51 103.248 36.16 41.756 61.17 89.181 73.43 139.238 12.27 50.057 11.52 101.642-2.19 151.451-13.72 49.808-40.1 96.742-77.45 137.795-37.36 41.054-84.87 75.321-139.48 100.608-54.615 25.288-115.134 41.036-177.681 46.238s-125.743-.257-185.54-16.029l90.689-226.565c20.929 5.52 43.047 7.431 64.939 5.61 21.891-1.821 43.073-7.333 62.188-16.183 19.115-8.851 35.742-20.844 48.816-35.213 13.075-14.369 22.308-30.796 27.108-48.229 4.801-17.433 5.063-35.487.77-53.007-4.294-17.52-13.047-34.119-25.701-48.734-12.653-14.615-28.928-26.923-47.781-36.136-18.853-9.214-39.869-15.13-61.701-17.369z" fill="#55b1ab"/><g fill="#18465e"><path d="m1209.46 126.152v3.288h-6.87v3.552h5.14v3.192h-5.14v6.816h-4.1v-16.848zm8.25 17.04c-1.31 0-2.5-.28-3.55-.84-1.04-.56-1.87-1.36-2.47-2.4s-.89-2.256-.89-3.648c0-1.376.3-2.584.91-3.624.61-1.056 1.44-1.864 2.5-2.424 1.05-.56 2.24-.84 3.55-.84s2.49.28 3.55.84 1.89 1.368 2.5 2.424c.6 1.04.91 2.248.91 3.624s-.31 2.592-.94 3.648c-.61 1.04-1.45 1.84-2.52 2.4-1.05.56-2.24.84-3.55.84zm0-3.552c.78 0 1.45-.288 1.99-.864.56-.576.84-1.4.84-2.472s-.27-1.896-.81-2.472c-.53-.576-1.19-.864-1.97-.864-.8 0-1.47.288-1.99.864-.53.56-.8 1.384-.8 2.472 0 1.072.26 1.896.77 2.472.53.576 1.19.864 1.97.864zm22.41-10.032v13.392h-4.11v-1.824c-.41.592-.98 1.072-1.7 1.44-.7.352-1.49.528-2.35.528-1.03 0-1.93-.224-2.71-.672-.79-.464-1.4-1.128-1.83-1.992s-.65-1.88-.65-3.048v-7.824h4.08v7.272c0 .896.24 1.592.7 2.088s1.09.744 1.87.744c.8 0 1.43-.248 1.9-.744.46-.496.69-1.192.69-2.088v-7.272zm11.11-.144c1.56 0 2.81.512 3.74 1.536.94 1.008 1.42 2.4 1.42 4.176v7.824h-4.08v-7.272c0-.896-.24-1.592-.7-2.088s-1.09-.744-1.87-.744c-.79 0-1.41.248-1.87.744-.47.496-.7 1.192-.7 2.088v7.272h-4.1v-13.392h4.1v1.776c.42-.592.98-1.056 1.68-1.392.7-.352 1.5-.528 2.38-.528zm7.19 6.816c0-1.376.26-2.584.77-3.624.53-1.04 1.24-1.84 2.14-2.4.89-.56 1.89-.84 3-.84.88 0 1.68.184 2.4.552.73.368 1.31.864 1.72 1.488v-6.216h4.11v17.76h-4.11v-1.92c-.38.64-.93 1.152-1.65 1.536-.71.384-1.53.576-2.47.576-1.11 0-2.11-.28-3-.84-.9-.576-1.61-1.384-2.14-2.424-.51-1.056-.77-2.272-.77-3.648zm10.03.024c0-1.024-.28-1.832-.86-2.424-.56-.592-1.25-.888-2.06-.888-.82 0-1.52.296-2.09.888-.56.576-.84 1.376-.84 2.4s.28 1.84.84 2.448c.57.592 1.27.888 2.09.888.81 0 1.5-.296 2.06-.888.58-.592.86-1.4.86-2.424zm6.26-.024c0-1.376.26-2.584.77-3.624.53-1.04 1.24-1.84 2.14-2.4.89-.56 1.89-.84 3-.84.94 0 1.76.192 2.47.576.72.384 1.27.888 1.65 1.512v-1.896h4.11v13.392h-4.11v-1.896c-.4.624-.96 1.128-1.68 1.512-.7.384-1.52.576-2.47.576-1.09 0-2.08-.28-2.97-.84-.9-.576-1.61-1.384-2.14-2.424-.51-1.056-.77-2.272-.77-3.648zm10.03.024c0-1.024-.28-1.832-.86-2.424-.56-.592-1.25-.888-2.06-.888-.82 0-1.52.296-2.09.888-.56.576-.84 1.376-.84 2.4s.28 1.84.84 2.448c.57.592 1.27.888 2.09.888.81 0 1.5-.296 2.06-.888.58-.592.86-1.4.86-2.424zm14.54 3.216v3.48h-2.09c-1.49 0-2.65-.36-3.48-1.08-.83-.736-1.25-1.928-1.25-3.576v-5.328h-1.63v-3.408h1.63v-3.264h4.11v3.264h2.69v3.408h-2.69v5.376c0 .4.09.688.29.864.19.176.51.264.96.264zm4.35-11.304c-.72 0-1.31-.208-1.78-.624-.44-.432-.67-.96-.67-1.584 0-.64.23-1.168.67-1.584.47-.432 1.06-.648 1.78-.648.7 0 1.28.216 1.73.648.46.416.69.944.69 1.584 0 .624-.23 1.152-.69 1.584-.45.416-1.03.624-1.73.624zm2.04 1.392v13.392h-4.1v-13.392zm9.07 13.584c-1.31 0-2.5-.28-3.55-.84-1.04-.56-1.87-1.36-2.47-2.4s-.89-2.256-.89-3.648c0-1.376.3-2.584.91-3.624.61-1.056 1.44-1.864 2.5-2.424 1.05-.56 2.24-.84 3.55-.84s2.49.28 3.55.84 1.89 1.368 2.5 2.424c.6 1.04.91 2.248.91 3.624s-.31 2.592-.94 3.648c-.61 1.04-1.45 1.84-2.52 2.4-1.05.56-2.24.84-3.55.84zm0-3.552c.78 0 1.45-.288 1.99-.864.56-.576.84-1.4.84-2.472s-.27-1.896-.81-2.472c-.53-.576-1.19-.864-1.97-.864-.8 0-1.47.288-1.99.864-.53.56-.8 1.384-.8 2.472 0 1.072.26 1.896.77 2.472.53.576 1.19.864 1.97.864zm17.35-10.176c1.56 0 2.81.512 3.74 1.536.94 1.008 1.42 2.4 1.42 4.176v7.824h-4.08v-7.272c0-.896-.24-1.592-.7-2.088s-1.09-.744-1.87-.744c-.79 0-1.41.248-1.87.744-.47.496-.7 1.192-.7 2.088v7.272h-4.1v-13.392h4.1v1.776c.42-.592.98-1.056 1.68-1.392.7-.352 1.5-.528 2.38-.528z"/><path d="m1280.34 172.712c.54-.432.79-.632.74-.6 1.57-1.296 2.8-2.36 3.7-3.192.91-.832 1.68-1.704 2.3-2.616s.94-1.8.94-2.664c0-.656-.16-1.168-.46-1.536s-.76-.552-1.37-.552-1.09.232-1.44.696c-.33.448-.5 1.088-.5 1.92h-3.96c.03-1.36.32-2.496.86-3.408.56-.912 1.29-1.584 2.19-2.016.91-.432 1.92-.648 3.02-.648 1.9 0 3.34.488 4.3 1.464.97.976 1.46 2.248 1.46 3.816 0 1.712-.58 3.304-1.75 4.776-1.17 1.456-2.66 2.88-4.47 4.272h6.48v3.336h-12.04zm16.18 3.48c-.72 0-1.31-.208-1.78-.624-.45-.432-.67-.96-.67-1.584 0-.64.22-1.176.67-1.608.47-.432 1.06-.648 1.78-.648.7 0 1.28.216 1.73.648.46.432.69.968.69 1.608 0 .624-.23 1.152-.69 1.584-.45.416-1.03.624-1.73.624zm4.44-9.192c0-2.752.53-4.92 1.59-6.504 1.07-1.584 2.79-2.376 5.16-2.376s4.08.792 5.13 2.376c1.08 1.584 1.61 3.752 1.61 6.504 0 2.784-.53 4.968-1.61 6.552-1.05 1.584-2.76 2.376-5.13 2.376s-4.09-.792-5.16-2.376c-1.06-1.584-1.59-3.768-1.59-6.552zm9.46 0c0-1.616-.18-2.856-.53-3.72-.35-.88-1.08-1.32-2.18-1.32-1.11 0-1.83.44-2.19 1.32-.35.864-.52 2.104-.52 3.72 0 1.088.06 1.992.19 2.712.13.704.38 1.28.77 1.728.4.432.98.648 1.75.648s1.34-.216 1.73-.648c.4-.448.66-1.024.79-1.728.13-.72.19-1.624.19-2.712zm5.86-4.104c0-1.296.37-2.296 1.11-3 .75-.704 1.72-1.056 2.9-1.056 1.19 0 2.15.352 2.88 1.056.74.704 1.11 1.704 1.11 3s-.37 2.296-1.11 3c-.73.704-1.69 1.056-2.88 1.056-1.18 0-2.15-.352-2.9-1.056-.74-.704-1.11-1.704-1.11-3zm16.3-3.792-9.24 16.896h-3.96l9.24-16.896zm-12.31 2.136c-.77 0-1.15.552-1.15 1.656 0 1.088.38 1.632 1.15 1.632.37 0 .65-.136.86-.408s.31-.68.31-1.224c0-1.104-.39-1.656-1.17-1.656zm7.44 10.968c0-1.296.37-2.296 1.1-3 .74-.704 1.7-1.056 2.88-1.056 1.19 0 2.15.352 2.88 1.056.74.704 1.11 1.704 1.11 3s-.37 2.296-1.11 3c-.73.704-1.69 1.056-2.88 1.056-1.18 0-2.14-.352-2.88-1.056-.73-.704-1.1-1.704-1.1-3zm3.96-1.656c-.37 0-.66.136-.87.408-.19.272-.28.688-.28 1.248 0 1.088.38 1.632 1.15 1.632.37 0 .65-.136.86-.408s.31-.68.31-1.224-.1-.952-.31-1.224c-.21-.288-.49-.432-.86-.432z"/><path d="m808 187.482c0 4.419 3.582 8 8 8s8-3.581 8-8c0-4.418-3.582-8-8-8s-8 3.582-8 8zm10.484-35.793v-1.5h-1.4l-.097 1.397zm-.988 35.897 2.484-35.793-2.993-.207-2.483 35.792zm.988-34.397h520.516v-3h-520.516z"/><path d="m1294.46 592.168c-1.59 0-3.04-.368-4.37-1.104-1.31-.736-2.36-1.76-3.15-3.072-.76-1.328-1.15-2.816-1.15-4.464s.39-3.128 1.15-4.44c.79-1.312 1.84-2.336 3.15-3.072 1.33-.736 2.78-1.104 4.37-1.104 1.58 0 3.03.368 4.34 1.104 1.33.736 2.37 1.76 3.12 3.072.77 1.312 1.15 2.792 1.15 4.44s-.38 3.136-1.15 4.464c-.77 1.312-1.81 2.336-3.12 3.072s-2.76 1.104-4.34 1.104zm0-3.744c1.34 0 2.41-.448 3.21-1.344.82-.896 1.23-2.08 1.23-3.552 0-1.488-.41-2.672-1.23-3.552-.8-.896-1.87-1.344-3.21-1.344-1.36 0-2.45.44-3.27 1.32-.8.88-1.2 2.072-1.2 3.576 0 1.488.4 2.68 1.2 3.576.82.88 1.91 1.32 3.27 1.32zm19.05-9.96c1.57 0 2.82.512 3.75 1.536.94 1.008 1.41 2.4 1.41 4.176v7.824h-4.08v-7.272c0-.896-.23-1.592-.69-2.088-.47-.496-1.09-.744-1.87-.744-.79 0-1.41.248-1.88.744-.46.496-.69 1.192-.69 2.088v7.272h-4.11v-13.392h4.11v1.776c.41-.592.97-1.056 1.68-1.392.7-.352 1.49-.528 2.37-.528zm18.34 3.408v3.408h-10.56v-3.408zm2.9 1.68c0-1.664.36-3.144 1.08-4.44.72-1.312 1.72-2.328 3-3.048 1.3-.736 2.76-1.104 4.39-1.104 2 0 3.72.528 5.14 1.584s2.38 2.496 2.86 4.32h-4.52c-.33-.704-.81-1.24-1.44-1.608-.6-.368-1.3-.552-2.08-.552-1.27 0-2.29.44-3.08 1.32-.78.88-1.17 2.056-1.17 3.528s.39 2.648 1.17 3.528c.79.88 1.81 1.32 3.08 1.32.78 0 1.48-.184 2.08-.552.63-.368 1.11-.904 1.44-1.608h4.52c-.48 1.824-1.44 3.264-2.86 4.32-1.42 1.04-3.14 1.56-5.14 1.56-1.63 0-3.09-.36-4.39-1.08-1.28-.736-2.28-1.752-3-3.048s-1.08-2.776-1.08-4.44zm27.21-5.088c1.54 0 2.77.512 3.7 1.536.93 1.008 1.39 2.4 1.39 4.176v7.824h-4.08v-7.272c0-.896-.23-1.592-.7-2.088-.46-.496-1.08-.744-1.87-.744-.78 0-1.41.248-1.87.744s-.7 1.192-.7 2.088v7.272h-4.1v-17.76h4.1v6.168c.42-.592.99-1.064 1.71-1.416s1.53-.528 2.42-.528zm7.13 6.816c0-1.376.25-2.584.76-3.624.53-1.04 1.24-1.84 2.14-2.4s1.9-.84 3-.84c.94 0 1.77.192 2.47.576.72.384 1.27.888 1.66 1.512v-1.896h4.1v13.392h-4.1v-1.896c-.4.624-.96 1.128-1.68 1.512-.71.384-1.53.576-2.47.576-1.09 0-2.08-.28-2.98-.84-.9-.576-1.61-1.384-2.14-2.424-.51-1.056-.76-2.272-.76-3.648zm10.03.024c0-1.024-.29-1.832-.87-2.424-.56-.592-1.24-.888-2.06-.888s-1.51.296-2.09.888c-.56.576-.84 1.376-.84 2.4s.28 1.84.84 2.448c.58.592 1.27.888 2.09.888s1.5-.296 2.06-.888c.58-.592.87-1.4.87-2.424zm9.13-8.088c-.72 0-1.31-.208-1.77-.624-.45-.432-.67-.96-.67-1.584 0-.64.22-1.168.67-1.584.46-.432 1.05-.648 1.77-.648.71 0 1.28.216 1.73.648.47.416.7.944.7 1.584 0 .624-.23 1.152-.7 1.584-.45.416-1.02.624-1.73.624zm2.04 1.392v13.392h-4.1v-13.392zm11.14-.144c1.57 0 2.82.512 3.74 1.536.95 1.008 1.42 2.4 1.42 4.176v7.824h-4.08v-7.272c0-.896-.23-1.592-.7-2.088-.46-.496-1.08-.744-1.87-.744-.78 0-1.41.248-1.87.744s-.7 1.192-.7 2.088v7.272h-4.1v-13.392h4.1v1.776c.42-.592.98-1.056 1.68-1.392.71-.352 1.5-.528 2.38-.528zm25.22-3.312v3.288h-4.47v13.56h-4.1v-13.56h-4.47v-3.288zm6.16 5.688c.48-.736 1.08-1.312 1.8-1.728.72-.432 1.52-.648 2.4-.648v4.344h-1.13c-1.02 0-1.79.224-2.3.672-.51.432-.77 1.2-.77 2.304v6.216h-4.1v-13.392h4.1zm18.79 4.248c0 .384-.03.784-.08 1.2h-9.28c.06.832.32 1.472.79 1.92.48.432 1.06.648 1.75.648 1.02 0 1.74-.432 2.14-1.296h4.36c-.22.88-.63 1.672-1.22 2.376-.58.704-1.3 1.256-2.18 1.656s-1.87.6-2.96.6c-1.31 0-2.48-.28-3.5-.84s-1.82-1.36-2.4-2.4-.86-2.256-.86-3.648.28-2.608.84-3.648c.57-1.04 1.37-1.84 2.4-2.4 1.02-.56 2.2-.84 3.52-.84 1.3 0 2.45.272 3.46.816s1.79 1.32 2.35 2.328c.58 1.008.87 2.184.87 3.528zm-4.2-1.08c0-.704-.24-1.264-.72-1.68s-1.08-.624-1.8-.624c-.69 0-1.28.2-1.76.6-.46.4-.75.968-.86 1.704zm5.55 1.272c0-1.376.25-2.584.76-3.624.53-1.04 1.24-1.84 2.14-2.4s1.9-.84 3-.84c.94 0 1.77.192 2.47.576.72.384 1.27.888 1.66 1.512v-1.896h4.1v13.392h-4.1v-1.896c-.4.624-.96 1.128-1.68 1.512-.71.384-1.53.576-2.47.576-1.09 0-2.08-.28-2.98-.84-.9-.576-1.61-1.384-2.14-2.424-.51-1.056-.76-2.272-.76-3.648zm10.03.024c0-1.024-.29-1.832-.87-2.424-.56-.592-1.24-.888-2.06-.888s-1.51.296-2.09.888c-.56.576-.84 1.376-.84 2.4s.28 1.84.84 2.448c.58.592 1.27.888 2.09.888s1.5-.296 2.06-.888c.58-.592.87-1.4.87-2.424zm12.52 6.888c-1.17 0-2.21-.2-3.12-.6s-1.63-.944-2.16-1.632c-.53-.704-.83-1.488-.89-2.352h4.06c.04.464.26.84.64 1.128.39.288.86.432 1.42.432.51 0 .9-.096 1.18-.288.28-.208.43-.472.43-.792 0-.384-.2-.664-.6-.84-.4-.192-1.05-.4-1.95-.624-.96-.224-1.76-.456-2.4-.696-.64-.256-1.19-.648-1.65-1.176-.47-.544-.7-1.272-.7-2.184 0-.768.21-1.464.63-2.088.43-.64 1.05-1.144 1.87-1.512.83-.368 1.81-.552 2.95-.552 1.68 0 3 .416 3.96 1.248.98.832 1.54 1.936 1.68 3.312h-3.79c-.07-.464-.27-.832-.63-1.104-.33-.272-.78-.408-1.34-.408-.48 0-.85.096-1.1.288-.26.176-.39.424-.39.744 0 .384.2.672.6.864.42.192 1.06.384 1.92.576.99.256 1.8.512 2.43.768.62.24 1.16.64 1.63 1.2.48.544.73 1.28.74 2.208 0 .784-.22 1.488-.67 2.112-.43.608-1.06 1.088-1.9 1.44-.81.352-1.76.528-2.85.528zm21.16-13.584v13.392h-4.11v-1.824c-.41.592-.98 1.072-1.7 1.44-.7.352-1.49.528-2.35.528-1.03 0-1.93-.224-2.71-.672-.79-.464-1.4-1.128-1.83-1.992s-.65-1.88-.65-3.048v-7.824h4.08v7.272c0 .896.24 1.592.7 2.088s1.09.744 1.87.744c.8 0 1.43-.248 1.9-.744.46-.496.69-1.192.69-2.088v-7.272zm7.05 2.232c.48-.736 1.08-1.312 1.8-1.728.72-.432 1.52-.648 2.4-.648v4.344h-1.13c-1.02 0-1.79.224-2.3.672-.52.432-.77 1.2-.77 2.304v6.216h-4.11v-13.392h4.11zm19.84-2.232-8.4 19.752h-4.42l3.08-6.816-5.45-12.936h4.58l3.1 8.376 3.07-8.376z"/><path d="m1463.42 612.056h-7.49v3.312c.32-.352.77-.64 1.34-.864.58-.224 1.2-.336 1.87-.336 1.2 0 2.2.272 2.98.816.8.544 1.38 1.248 1.75 2.112s.55 1.8.55 2.808c0 1.872-.52 3.36-1.58 4.464-1.06 1.088-2.54 1.632-4.46 1.632-1.28 0-2.4-.216-3.34-.648-.94-.448-1.67-1.064-2.18-1.848-.52-.784-.8-1.688-.84-2.712h4c.1.496.33.912.7 1.248.37.32.87.48 1.51.48.75 0 1.31-.24 1.68-.72s.55-1.12.55-1.92c0-.784-.19-1.384-.57-1.8-.39-.416-.95-.624-1.68-.624-.55 0-.99.136-1.35.408-.35.256-.58.6-.69 1.032h-3.96v-10.44h11.21zm3.41 1.368c.07-1.712.63-3.032 1.68-3.96 1.06-.928 2.49-1.392 4.3-1.392 1.2 0 2.22.208 3.07.624.87.416 1.51.984 1.95 1.704s.67 1.528.67 2.424c0 1.056-.27 1.92-.79 2.592-.53.656-1.15 1.104-1.85 1.344v.096c.91.304 1.63.808 2.16 1.512s.79 1.608.79 2.712c0 .992-.23 1.872-.7 2.64-.44.752-1.11 1.344-1.99 1.776-.86.432-1.89.648-3.09.648-1.92 0-3.46-.472-4.61-1.416-1.14-.944-1.74-2.368-1.8-4.272h3.98c.02.704.22 1.264.6 1.68.39.4.95.6 1.68.6.63 0 1.11-.176 1.44-.528.35-.368.53-.848.53-1.44 0-.768-.25-1.32-.74-1.656-.48-.352-1.26-.528-2.33-.528h-.77v-3.336h.77c.81 0 1.47-.136 1.97-.408.51-.288.76-.792.76-1.512 0-.576-.16-1.024-.48-1.344s-.76-.48-1.32-.48c-.6 0-1.06.184-1.36.552-.29.368-.46.824-.51 1.368zm16.72 12.768c-.72 0-1.31-.208-1.78-.624-.45-.432-.67-.96-.67-1.584 0-.64.22-1.176.67-1.608.47-.432 1.06-.648 1.78-.648.7 0 1.28.216 1.73.648.46.432.69.968.69 1.608 0 .624-.23 1.152-.69 1.584-.45.416-1.03.624-1.73.624zm4.44-9.192c0-2.752.53-4.92 1.59-6.504 1.07-1.584 2.79-2.376 5.16-2.376s4.08.792 5.13 2.376c1.08 1.584 1.61 3.752 1.61 6.504 0 2.784-.53 4.968-1.61 6.552-1.05 1.584-2.76 2.376-5.13 2.376s-4.09-.792-5.16-2.376c-1.06-1.584-1.59-3.768-1.59-6.552zm9.46 0c0-1.616-.18-2.856-.53-3.72-.35-.88-1.08-1.32-2.18-1.32-1.11 0-1.83.44-2.19 1.32-.35.864-.52 2.104-.52 3.72 0 1.088.06 1.992.19 2.712.13.704.38 1.28.77 1.728.4.432.98.648 1.75.648s1.34-.216 1.73-.648c.4-.448.66-1.024.79-1.728.13-.72.19-1.624.19-2.712zm5.86-4.104c0-1.296.37-2.296 1.11-3 .75-.704 1.72-1.056 2.9-1.056 1.19 0 2.15.352 2.88 1.056.74.704 1.11 1.704 1.11 3s-.37 2.296-1.11 3c-.73.704-1.69 1.056-2.88 1.056-1.18 0-2.15-.352-2.9-1.056-.74-.704-1.11-1.704-1.11-3zm16.3-3.792-9.24 16.896h-3.96l9.24-16.896zm-12.31 2.136c-.77 0-1.15.552-1.15 1.656 0 1.088.38 1.632 1.15 1.632.37 0 .65-.136.86-.408s.31-.68.31-1.224c0-1.104-.39-1.656-1.17-1.656zm7.44 10.968c0-1.296.37-2.296 1.1-3 .74-.704 1.7-1.056 2.88-1.056 1.19 0 2.15.352 2.88 1.056.74.704 1.11 1.704 1.11 3s-.37 2.296-1.11 3c-.73.704-1.69 1.056-2.88 1.056-1.18 0-2.14-.352-2.88-1.056-.73-.704-1.1-1.704-1.1-3zm3.96-1.656c-.37 0-.66.136-.87.408-.19.272-.28.688-.28 1.248 0 1.088.38 1.632 1.15 1.632.37 0 .65-.136.86-.408s.31-.68.31-1.224-.1-.952-.31-1.224c-.21-.288-.49-.432-.86-.432z"/><path d="m1161 593c0 4.418 3.58 8 8 8s8-3.582 8-8-3.58-8-8-8-8 3.582-8 8zm87.31 8-.15 1.492.07.008h.08zm-79.46-6.508 79.31 8 .3-2.984-79.31-8zm79.46 8.008h275.69v-3h-275.69z"/><path d="m310.584 876.168c-1.232 0-2.336-.2-3.312-.6s-1.76-.992-2.352-1.776c-.576-.784-.88-1.728-.912-2.832h4.368c.064.624.28 1.104.648 1.44.368.32.848.48 1.44.48.608 0 1.088-.136 1.44-.408.352-.288.528-.68.528-1.176 0-.416-.144-.76-.432-1.032-.272-.272-.616-.496-1.032-.672-.4-.176-.976-.376-1.728-.6-1.088-.336-1.976-.672-2.664-1.008s-1.28-.832-1.776-1.488-.744-1.512-.744-2.568c0-1.568.568-2.792 1.704-3.672 1.136-.896 2.616-1.344 4.44-1.344 1.856 0 3.352.448 4.488 1.344 1.136.88 1.744 2.112 1.824 3.696h-4.44c-.032-.544-.232-.968-.6-1.272-.368-.32-.84-.48-1.416-.48-.496 0-.896.136-1.2.408-.304.256-.456.632-.456 1.128 0 .544.256.968.768 1.272s1.312.632 2.4.984c1.088.368 1.968.72 2.64 1.056.688.336 1.28.824 1.776 1.464s.744 1.464.744 2.472c0 .96-.248 1.832-.744 2.616-.48.784-1.184 1.408-2.112 1.872s-2.024.696-3.288.696zm16.134-3.648v3.48h-2.088c-1.488 0-2.648-.36-3.48-1.08-.832-.736-1.248-1.928-1.248-3.576v-5.328h-1.632v-3.408h1.632v-3.264h4.104v3.264h2.688v3.408h-2.688v5.376c0 .4.096.688.288.864s.512.264.96.264zm6.39-7.68c.48-.736 1.08-1.312 1.8-1.728.72-.432 1.52-.648 2.4-.648v4.344h-1.128c-1.024 0-1.792.224-2.304.672-.512.432-.768 1.2-.768 2.304v6.216h-4.104v-13.392h4.104zm5.345 4.44c0-1.376.256-2.584.768-3.624.528-1.04 1.24-1.84 2.136-2.4s1.896-.84 3-.84c.944 0 1.768.192 2.472.576.72.384 1.272.888 1.656 1.512v-1.896h4.104v13.392h-4.104v-1.896c-.4.624-.96 1.128-1.68 1.512-.704.384-1.528.576-2.472.576-1.088 0-2.08-.28-2.976-.84-.896-.576-1.608-1.384-2.136-2.424-.512-1.056-.768-2.272-.768-3.648zm10.032.024c0-1.024-.288-1.832-.864-2.424-.56-.592-1.248-.888-2.064-.888s-1.512.296-2.088.888c-.56.576-.84 1.376-.84 2.4s.28 1.84.84 2.448c.576.592 1.272.888 2.088.888s1.504-.296 2.064-.888c.576-.592.864-1.4.864-2.424zm14.537 3.216v3.48h-2.088c-1.488 0-2.648-.36-3.48-1.08-.832-.736-1.248-1.928-1.248-3.576v-5.328h-1.632v-3.408h1.632v-3.264h4.104v3.264h2.688v3.408h-2.688v5.376c0 .4.096.688.288.864s.512.264.96.264zm14.91-3.432c0 .384-.024.784-.072 1.2h-9.288c.064.832.328 1.472.792 1.92.48.432 1.064.648 1.752.648 1.024 0 1.736-.432 2.136-1.296h4.368c-.224.88-.632 1.672-1.224 2.376-.576.704-1.304 1.256-2.184 1.656s-1.864.6-2.952.6c-1.312 0-2.48-.28-3.504-.84s-1.824-1.36-2.4-2.4-.864-2.256-.864-3.648.28-2.608.84-3.648c.576-1.04 1.376-1.84 2.4-2.4s2.2-.84 3.528-.84c1.296 0 2.448.272 3.456.816s1.792 1.32 2.352 2.328c.576 1.008.864 2.184.864 3.528zm-4.2-1.08c0-.704-.24-1.264-.72-1.68s-1.08-.624-1.8-.624c-.688 0-1.272.2-1.752.6-.464.4-.752.968-.864 1.704zm11.453-5.592c.944 0 1.768.192 2.472.576.72.384 1.272.888 1.656 1.512v-1.896h4.104v13.368c0 1.232-.248 2.344-.744 3.336-.48 1.008-1.224 1.808-2.232 2.4-.992.592-2.232.888-3.72.888-1.984 0-3.592-.472-4.824-1.416-1.232-.928-1.936-2.192-2.112-3.792h4.056c.128.512.432.912.912 1.2.48.304 1.072.456 1.776.456.848 0 1.52-.248 2.016-.744.512-.48.768-1.256.768-2.328v-1.896c-.4.624-.952 1.136-1.656 1.536-.704.384-1.528.576-2.472.576-1.104 0-2.104-.28-3-.84-.896-.576-1.608-1.384-2.136-2.424-.512-1.056-.768-2.272-.768-3.648s.256-2.584.768-3.624c.528-1.04 1.24-1.84 2.136-2.4s1.896-.84 3-.84zm4.128 6.888c0-1.024-.288-1.832-.864-2.424-.56-.592-1.248-.888-2.064-.888s-1.512.296-2.088.888c-.56.576-.84 1.376-.84 2.4s.28 1.84.84 2.448c.576.592 1.272.888 2.088.888s1.504-.296 2.064-.888c.576-.592.864-1.4.864-2.424zm9.137-8.088c-.72 0-1.312-.208-1.776-.624-.448-.432-.672-.96-.672-1.584 0-.64.224-1.168.672-1.584.464-.432 1.056-.648 1.776-.648.704 0 1.28.216 1.728.648.464.416.696.944.696 1.584 0 .624-.232 1.152-.696 1.584-.448.416-1.024.624-1.728.624zm2.04 1.392v13.392h-4.104v-13.392zm2.159 6.696c0-1.392.28-2.608.84-3.648.576-1.04 1.368-1.84 2.376-2.4 1.024-.56 2.192-.84 3.504-.84 1.68 0 3.08.44 4.2 1.32 1.136.88 1.88 2.12 2.232 3.72h-4.368c-.368-1.024-1.08-1.536-2.136-1.536-.752 0-1.352.296-1.8.888-.448.576-.672 1.408-.672 2.496s.224 1.928.672 2.52c.448.576 1.048.864 1.8.864 1.056 0 1.768-.512 2.136-1.536h4.368c-.352 1.568-1.096 2.8-2.232 3.696s-2.536 1.344-4.2 1.344c-1.312 0-2.48-.28-3.504-.84-1.008-.56-1.8-1.36-2.376-2.4-.56-1.04-.84-2.256-.84-3.648zm33.273-4.728c0 .976-.224 1.872-.672 2.688-.448.8-1.136 1.448-2.064 1.944s-2.08.744-3.456.744h-2.544v6.048h-4.104v-16.848h6.648c1.344 0 2.48.232 3.408.696s1.624 1.104 2.088 1.92.696 1.752.696 2.808zm-6.504 2.112c.784 0 1.368-.184 1.752-.552s.576-.888.576-1.56-.192-1.192-.576-1.56-.968-.552-1.752-.552h-2.232v4.224zm7.824 2.592c0-1.376.256-2.584.768-3.624.528-1.04 1.24-1.84 2.136-2.4s1.896-.84 3-.84c.944 0 1.768.192 2.472.576.72.384 1.272.888 1.656 1.512v-1.896h4.104v13.392h-4.104v-1.896c-.4.624-.96 1.128-1.68 1.512-.704.384-1.528.576-2.472.576-1.088 0-2.08-.28-2.976-.84-.896-.576-1.608-1.384-2.136-2.424-.512-1.056-.768-2.272-.768-3.648zm10.032.024c0-1.024-.288-1.832-.864-2.424-.56-.592-1.248-.888-2.064-.888s-1.512.296-2.088.888c-.56.576-.84 1.376-.84 2.4s.28 1.84.84 2.448c.576.592 1.272.888 2.088.888s1.504-.296 2.064-.888c.576-.592.864-1.4.864-2.424zm11.177-4.464c.48-.736 1.08-1.312 1.8-1.728.72-.432 1.52-.648 2.4-.648v4.344h-1.128c-1.024 0-1.792.224-2.304.672-.512.432-.768 1.2-.768 2.304v6.216h-4.104v-13.392h4.104zm13.626 7.68v3.48h-2.088c-1.488 0-2.648-.36-3.48-1.08-.832-.736-1.248-1.928-1.248-3.576v-5.328h-1.632v-3.408h1.632v-3.264h4.104v3.264h2.688v3.408h-2.688v5.376c0 .4.096.688.288.864s.512.264.96.264zm10.446-10.056c1.568 0 2.816.512 3.744 1.536.944 1.008 1.416 2.4 1.416 4.176v7.824h-4.08v-7.272c0-.896-.232-1.592-.696-2.088s-1.088-.744-1.872-.744-1.408.248-1.872.744-.696 1.192-.696 2.088v7.272h-4.104v-13.392h4.104v1.776c.416-.592.976-1.056 1.68-1.392.704-.352 1.496-.528 2.376-.528zm20.636 6.624c0 .384-.024.784-.072 1.2h-9.288c.064.832.328 1.472.792 1.92.48.432 1.064.648 1.752.648 1.024 0 1.736-.432 2.136-1.296h4.368c-.224.88-.632 1.672-1.224 2.376-.576.704-1.304 1.256-2.184 1.656s-1.864.6-2.952.6c-1.312 0-2.48-.28-3.504-.84s-1.824-1.36-2.4-2.4-.864-2.256-.864-3.648.28-2.608.84-3.648c.576-1.04 1.376-1.84 2.4-2.4s2.2-.84 3.528-.84c1.296 0 2.448.272 3.456.816s1.792 1.32 2.352 2.328c.576 1.008.864 2.184.864 3.528zm-4.2-1.08c0-.704-.24-1.264-.72-1.68s-1.08-.624-1.8-.624c-.688 0-1.272.2-1.752.6-.464.4-.752.968-.864 1.704zm10.469-3.168c.48-.736 1.08-1.312 1.8-1.728.72-.432 1.52-.648 2.4-.648v4.344h-1.128c-1.024 0-1.792.224-2.304.672-.512.432-.768 1.2-.768 2.304v6.216h-4.104v-13.392h4.104zm11.61 11.352c-1.168 0-2.208-.2-3.12-.6s-1.632-.944-2.16-1.632c-.528-.704-.824-1.488-.888-2.352h4.056c.048.464.264.84.648 1.128s.856.432 1.416.432c.512 0 .904-.096 1.176-.288.288-.208.432-.472.432-.792 0-.384-.2-.664-.6-.84-.4-.192-1.048-.4-1.944-.624-.96-.224-1.76-.456-2.4-.696-.64-.256-1.192-.648-1.656-1.176-.464-.544-.696-1.272-.696-2.184 0-.768.208-1.464.624-2.088.432-.64 1.056-1.144 1.872-1.512.832-.368 1.816-.552 2.952-.552 1.68 0 3 .416 3.96 1.248.976.832 1.536 1.936 1.68 3.312h-3.792c-.064-.464-.272-.832-.624-1.104-.336-.272-.784-.408-1.344-.408-.48 0-.848.096-1.104.288-.256.176-.384.424-.384.744 0 .384.2.672.6.864.416.192 1.056.384 1.92.576.992.256 1.8.512 2.424.768.624.24 1.168.64 1.632 1.2.48.544.728 1.28.744 2.208 0 .784-.224 1.488-.672 2.112-.432.608-1.064 1.088-1.896 1.44-.816.352-1.768.528-2.856.528z"/><path d="m316.416 895.056h-7.488v3.312c.32-.352.768-.64 1.344-.864s1.2-.336 1.872-.336c1.2 0 2.192.272 2.976.816.8.544 1.384 1.248 1.752 2.112s.552 1.8.552 2.808c0 1.872-.528 3.36-1.584 4.464-1.056 1.088-2.544 1.632-4.464 1.632-1.28 0-2.392-.216-3.336-.648-.944-.448-1.672-1.064-2.184-1.848s-.792-1.688-.84-2.712h4.008c.096.496.328.912.696 1.248.368.32.872.48 1.512.48.752 0 1.312-.24 1.68-.72s.552-1.12.552-1.92c0-.784-.192-1.384-.576-1.8s-.944-.624-1.68-.624c-.544 0-.992.136-1.344.408-.352.256-.584.6-.696 1.032h-3.96v-10.44h11.208zm5.601 14.136c-.72 0-1.312-.208-1.776-.624-.448-.432-.672-.96-.672-1.584 0-.64.224-1.176.672-1.608.464-.432 1.056-.648 1.776-.648.704 0 1.28.216 1.728.648.464.432.696.968.696 1.608 0 .624-.232 1.152-.696 1.584-.448.416-1.024.624-1.728.624zm4.446-9.192c0-2.752.528-4.92 1.584-6.504 1.072-1.584 2.792-2.376 5.16-2.376s4.08.792 5.136 2.376c1.072 1.584 1.608 3.752 1.608 6.504 0 2.784-.536 4.968-1.608 6.552-1.056 1.584-2.768 2.376-5.136 2.376s-4.088-.792-5.16-2.376c-1.056-1.584-1.584-3.768-1.584-6.552zm9.456 0c0-1.616-.176-2.856-.528-3.72-.352-.88-1.08-1.32-2.184-1.32s-1.832.44-2.184 1.32c-.352.864-.528 2.104-.528 3.72 0 1.088.064 1.992.192 2.712.128.704.384 1.28.768 1.728.4.432.984.648 1.752.648s1.344-.216 1.728-.648c.4-.448.664-1.024.792-1.728.128-.72.192-1.624.192-2.712zm6.2 0c0-2.752.528-4.92 1.584-6.504 1.072-1.584 2.792-2.376 5.16-2.376s4.08.792 5.136 2.376c1.072 1.584 1.608 3.752 1.608 6.504 0 2.784-.536 4.968-1.608 6.552-1.056 1.584-2.768 2.376-5.136 2.376s-4.088-.792-5.16-2.376c-1.056-1.584-1.584-3.768-1.584-6.552zm9.456 0c0-1.616-.176-2.856-.528-3.72-.352-.88-1.08-1.32-2.184-1.32s-1.832.44-2.184 1.32c-.352.864-.528 2.104-.528 3.72 0 1.088.064 1.992.192 2.712.128.704.384 1.28.768 1.728.4.432.984.648 1.752.648s1.344-.216 1.728-.648c.4-.448.664-1.024.792-1.728.128-.72.192-1.624.192-2.712zm5.864-4.104c0-1.296.368-2.296 1.104-3 .752-.704 1.72-1.056 2.904-1.056s2.144.352 2.88 1.056 1.104 1.704 1.104 3-.368 2.296-1.104 3-1.696 1.056-2.88 1.056-2.152-.352-2.904-1.056c-.736-.704-1.104-1.704-1.104-3zm16.296-3.792-9.24 16.896h-3.96l9.24-16.896zm-12.312 2.136c-.768 0-1.152.552-1.152 1.656 0 1.088.384 1.632 1.152 1.632.368 0 .656-.136.864-.408s.312-.68.312-1.224c0-1.104-.392-1.656-1.176-1.656zm7.44 10.968c0-1.296.368-2.296 1.104-3s1.696-1.056 2.88-1.056 2.144.352 2.88 1.056 1.104 1.704 1.104 3-.368 2.296-1.104 3-1.696 1.056-2.88 1.056-2.144-.352-2.88-1.056-1.104-1.704-1.104-3zm3.96-1.656c-.368 0-.656.136-.864.408-.192.272-.288.688-.288 1.248 0 1.088.384 1.632 1.152 1.632.368 0 .656-.136.864-.408s.312-.68.312-1.224-.104-.952-.312-1.224c-.208-.288-.496-.432-.864-.432z"/><path d="m585 853c0 4.418 3.582 8 8 8s8-3.582 8-8-3.582-8-8-8-8 3.582-8 8zm-5.964 32v1.5h.983l.392-.9zm12.589-32.6-13.963 32 2.749 1.2 13.964-32zm-12.589 31.1h-276.036v3h276.036z"/><path d="m144.608 785.152v3.288h-4.464v13.56h-4.104v-13.56h-4.464v-3.288zm6.164 5.688c.48-.736 1.08-1.312 1.8-1.728.72-.432 1.52-.648 2.4-.648v4.344h-1.128c-1.024 0-1.792.224-2.304.672-.512.432-.768 1.2-.768 2.304v6.216h-4.104v-13.392h4.104zm18.785 4.248c0 .384-.024.784-.072 1.2h-9.288c.064.832.328 1.472.792 1.92.48.432 1.064.648 1.752.648 1.024 0 1.736-.432 2.136-1.296h4.368c-.224.88-.632 1.672-1.224 2.376-.576.704-1.304 1.256-2.184 1.656s-1.864.6-2.952.6c-1.312 0-2.48-.28-3.504-.84s-1.824-1.36-2.4-2.4-.864-2.256-.864-3.648.28-2.608.84-3.648c.576-1.04 1.376-1.84 2.4-2.4s2.2-.84 3.528-.84c1.296 0 2.448.272 3.456.816s1.792 1.32 2.352 2.328c.576 1.008.864 2.184.864 3.528zm-4.2-1.08c0-.704-.24-1.264-.72-1.68s-1.08-.624-1.8-.624c-.688 0-1.272.2-1.752.6-.464.4-.752.968-.864 1.704zm5.549 1.272c0-1.376.256-2.584.768-3.624.528-1.04 1.24-1.84 2.136-2.4s1.896-.84 3-.84c.944 0 1.768.192 2.472.576.72.384 1.272.888 1.656 1.512v-1.896h4.104v13.392h-4.104v-1.896c-.4.624-.96 1.128-1.68 1.512-.704.384-1.528.576-2.472.576-1.088 0-2.08-.28-2.976-.84-.896-.576-1.608-1.384-2.136-2.424-.512-1.056-.768-2.272-.768-3.648zm10.032.024c0-1.024-.288-1.832-.864-2.424-.56-.592-1.248-.888-2.064-.888s-1.512.296-2.088.888c-.56.576-.84 1.376-.84 2.4s.28 1.84.84 2.448c.576.592 1.272.888 2.088.888s1.504-.296 2.064-.888c.576-.592.864-1.4.864-2.424zm12.521 6.888c-1.168 0-2.208-.2-3.12-.6s-1.632-.944-2.16-1.632c-.528-.704-.824-1.488-.888-2.352h4.056c.048.464.264.84.648 1.128s.856.432 1.416.432c.512 0 .904-.096 1.176-.288.288-.208.432-.472.432-.792 0-.384-.2-.664-.6-.84-.4-.192-1.048-.4-1.944-.624-.96-.224-1.76-.456-2.4-.696-.64-.256-1.192-.648-1.656-1.176-.464-.544-.696-1.272-.696-2.184 0-.768.208-1.464.624-2.088.432-.64 1.056-1.144 1.872-1.512.832-.368 1.816-.552 2.952-.552 1.68 0 3 .416 3.96 1.248.976.832 1.536 1.936 1.68 3.312h-3.792c-.064-.464-.272-.832-.624-1.104-.336-.272-.784-.408-1.344-.408-.48 0-.848.096-1.104.288-.256.176-.384.424-.384.744 0 .384.2.672.6.864.416.192 1.056.384 1.92.576.992.256 1.8.512 2.424.768.624.24 1.168.64 1.632 1.2.48.544.728 1.28.744 2.208 0 .784-.224 1.488-.672 2.112-.432.608-1.064 1.088-1.896 1.44-.816.352-1.768.528-2.856.528zm21.159-13.584v13.392h-4.104v-1.824c-.416.592-.984 1.072-1.704 1.44-.704.352-1.488.528-2.352.528-1.024 0-1.928-.224-2.712-.672-.784-.464-1.392-1.128-1.824-1.992s-.648-1.88-.648-3.048v-7.824h4.08v7.272c0 .896.232 1.592.696 2.088s1.088.744 1.872.744c.8 0 1.432-.248 1.896-.744s.696-1.192.696-2.088v-7.272zm7.052 2.232c.48-.736 1.08-1.312 1.8-1.728.72-.432 1.52-.648 2.4-.648v4.344h-1.128c-1.024 0-1.792.224-2.304.672-.512.432-.768 1.2-.768 2.304v6.216h-4.104v-13.392h4.104zm19.842-2.232-8.4 19.752h-4.416l3.072-6.816-5.448-12.936h4.584l3.096 8.376 3.072-8.376z"/><path d="m132.224 822.424c.064-1.712.624-3.032 1.68-3.96s2.488-1.392 4.296-1.392c1.2 0 2.224.208 3.072.624.864.416 1.512.984 1.944 1.704.448.72.672 1.528.672 2.424 0 1.056-.264 1.92-.792 2.592-.528.656-1.144 1.104-1.848 1.344v.096c.912.304 1.632.808 2.16 1.512s.792 1.608.792 2.712c0 .992-.232 1.872-.696 2.64-.448.752-1.112 1.344-1.992 1.776-.864.432-1.896.648-3.096.648-1.92 0-3.456-.472-4.608-1.416-1.136-.944-1.736-2.368-1.8-4.272h3.984c.016.704.216 1.264.6 1.68.384.4.944.6 1.68.6.624 0 1.104-.176 1.44-.528.352-.368.528-.848.528-1.44 0-.768-.248-1.32-.744-1.656-.48-.352-1.256-.528-2.328-.528h-.768v-3.336h.768c.816 0 1.472-.136 1.968-.408.512-.288.768-.792.768-1.512 0-.576-.16-1.024-.48-1.344s-.76-.48-1.32-.48c-.608 0-1.064.184-1.368.552-.288.368-.456.824-.504 1.368zm16.715 12.768c-.72 0-1.312-.208-1.776-.624-.448-.432-.672-.96-.672-1.584 0-.64.224-1.176.672-1.608.464-.432 1.056-.648 1.776-.648.704 0 1.28.216 1.728.648.464.432.696.968.696 1.608 0 .624-.232 1.152-.696 1.584-.448.416-1.024.624-1.728.624zm16.782-14.136h-7.488v3.312c.32-.352.768-.64 1.344-.864s1.2-.336 1.872-.336c1.2 0 2.192.272 2.976.816.8.544 1.384 1.248 1.752 2.112s.552 1.8.552 2.808c0 1.872-.528 3.36-1.584 4.464-1.056 1.088-2.544 1.632-4.464 1.632-1.28 0-2.392-.216-3.336-.648-.944-.448-1.672-1.064-2.184-1.848s-.792-1.688-.84-2.712h4.008c.096.496.328.912.696 1.248.368.32.872.48 1.512.48.752 0 1.312-.24 1.68-.72s.552-1.12.552-1.92c0-.784-.192-1.384-.576-1.8s-.944-.624-1.68-.624c-.544 0-.992.136-1.344.408-.352.256-.584.6-.696 1.032h-3.96v-10.44h11.208zm2.937.84c0-1.296.368-2.296 1.104-3 .752-.704 1.72-1.056 2.904-1.056s2.144.352 2.88 1.056 1.104 1.704 1.104 3-.368 2.296-1.104 3-1.696 1.056-2.88 1.056-2.152-.352-2.904-1.056c-.736-.704-1.104-1.704-1.104-3zm16.296-3.792-9.24 16.896h-3.96l9.24-16.896zm-12.312 2.136c-.768 0-1.152.552-1.152 1.656 0 1.088.384 1.632 1.152 1.632.368 0 .656-.136.864-.408s.312-.68.312-1.224c0-1.104-.392-1.656-1.176-1.656zm7.44 10.968c0-1.296.368-2.296 1.104-3s1.696-1.056 2.88-1.056 2.144.352 2.88 1.056 1.104 1.704 1.104 3-.368 2.296-1.104 3-1.696 1.056-2.88 1.056-2.144-.352-2.88-1.056-1.104-1.704-1.104-3zm3.96-1.656c-.368 0-.656.136-.864.408-.192.272-.288.688-.288 1.248 0 1.088.384 1.632 1.152 1.632.368 0 .656-.136.864-.408s.312-.68.312-1.224-.104-.952-.312-1.224c-.208-.288-.496-.432-.864-.432z"/><path d="m450.489 783.673c0 4.418 3.581 8 8 8 4.418 0 8-3.582 8-8s-3.582-8-8-8c-4.419 0-8 3.582-8 8zm-22.171 26.526v1.5h.565l.425-.374zm29.18-27.653-30.171 26.526 1.981 2.253 30.171-26.526zm-29.18 26.153h-297.318v3h297.318z"/><path d="m318 609c0 4.418 3.582 8 8 8s8-3.582 8-8-3.582-8-8-8-8 3.582-8 8zm-49.719 10v1.5h.129l.127-.022zm57.463-11.478-57.719 10 .512 2.956 57.719-10zm-57.463 9.978h-210.281v3h210.281z"/><path d="m102.592 199.152v16.848h-4.104v-16.848zm11.134 3.312c1.568 0 2.816.512 3.744 1.536.944 1.008 1.416 2.4 1.416 4.176v7.824h-4.08v-7.272c0-.896-.232-1.592-.696-2.088s-1.088-.744-1.872-.744-1.408.248-1.872.744-.696 1.192-.696 2.088v7.272h-4.104v-13.392h4.104v1.776c.416-.592.976-1.056 1.68-1.392.704-.352 1.496-.528 2.376-.528zm14.036 9.696 2.904-9.552h4.368l-4.752 13.392h-5.064l-4.752-13.392h4.392zm21.623-3.072c0 .384-.024.784-.072 1.2h-9.288c.064.832.328 1.472.792 1.92.48.432 1.064.648 1.752.648 1.024 0 1.736-.432 2.136-1.296h4.368c-.224.88-.632 1.672-1.224 2.376-.576.704-1.304 1.256-2.184 1.656s-1.864.6-2.952.6c-1.312 0-2.48-.28-3.504-.84s-1.824-1.36-2.4-2.4-.864-2.256-.864-3.648.28-2.608.84-3.648c.576-1.04 1.376-1.84 2.4-2.4s2.2-.84 3.528-.84c1.296 0 2.448.272 3.456.816s1.792 1.32 2.352 2.328c.576 1.008.864 2.184.864 3.528zm-4.2-1.08c0-.704-.24-1.264-.72-1.68s-1.08-.624-1.8-.624c-.688 0-1.272.2-1.752.6-.464.4-.752.968-.864 1.704zm11.814 8.184c-1.168 0-2.208-.2-3.12-.6s-1.632-.944-2.16-1.632c-.528-.704-.824-1.488-.888-2.352h4.056c.048.464.264.84.648 1.128s.856.432 1.416.432c.512 0 .904-.096 1.176-.288.288-.208.432-.472.432-.792 0-.384-.2-.664-.6-.84-.4-.192-1.048-.4-1.944-.624-.96-.224-1.76-.456-2.4-.696-.64-.256-1.192-.648-1.656-1.176-.464-.544-.696-1.272-.696-2.184 0-.768.208-1.464.624-2.088.432-.64 1.056-1.144 1.872-1.512.832-.368 1.816-.552 2.952-.552 1.68 0 3 .416 3.96 1.248.976.832 1.536 1.936 1.68 3.312h-3.792c-.064-.464-.272-.832-.624-1.104-.336-.272-.784-.408-1.344-.408-.48 0-.848.096-1.104.288-.256.176-.384.424-.384.744 0 .384.2.672.6.864.416.192 1.056.384 1.92.576.992.256 1.8.512 2.424.768.624.24 1.168.64 1.632 1.2.48.544.728 1.28.744 2.208 0 .784-.224 1.488-.672 2.112-.432.608-1.064 1.088-1.896 1.44-.816.352-1.768.528-2.856.528zm15.398-3.672v3.48h-2.088c-1.488 0-2.648-.36-3.48-1.08-.832-.736-1.248-1.928-1.248-3.576v-5.328h-1.632v-3.408h1.632v-3.264h4.104v3.264h2.688v3.408h-2.688v5.376c0 .4.096.688.288.864s.512.264.96.264zm8.382 3.672c-1.312 0-2.496-.28-3.552-.84-1.04-.56-1.864-1.36-2.472-2.4-.592-1.04-.888-2.256-.888-3.648 0-1.376.304-2.584.912-3.624.608-1.056 1.44-1.864 2.496-2.424s2.24-.84 3.552-.84 2.496.28 3.552.84 1.888 1.368 2.496 2.424c.608 1.04.912 2.248.912 3.624s-.312 2.592-.936 3.648c-.608 1.04-1.448 1.84-2.52 2.4-1.056.56-2.24.84-3.552.84zm0-3.552c.784 0 1.448-.288 1.992-.864.56-.576.84-1.4.84-2.472s-.272-1.896-.816-2.472c-.528-.576-1.184-.864-1.968-.864-.8 0-1.464.288-1.992.864-.528.56-.792 1.384-.792 2.472 0 1.072.256 1.896.768 2.472.528.576 1.184.864 1.968.864zm13.29-7.8c.48-.736 1.08-1.312 1.8-1.728.72-.432 1.52-.648 2.4-.648v4.344h-1.128c-1.024 0-1.792.224-2.304.672-.512.432-.768 1.2-.768 2.304v6.216h-4.104v-13.392h4.104zm11.609 11.352c-1.168 0-2.208-.2-3.12-.6s-1.632-.944-2.16-1.632c-.528-.704-.824-1.488-.888-2.352h4.056c.048.464.264.84.648 1.128s.856.432 1.416.432c.512 0 .904-.096 1.176-.288.288-.208.432-.472.432-.792 0-.384-.2-.664-.6-.84-.4-.192-1.048-.4-1.944-.624-.96-.224-1.76-.456-2.4-.696-.64-.256-1.192-.648-1.656-1.176-.464-.544-.696-1.272-.696-2.184 0-.768.208-1.464.624-2.088.432-.64 1.056-1.144 1.872-1.512.832-.368 1.816-.552 2.952-.552 1.68 0 3 .416 3.96 1.248.976.832 1.536 1.936 1.68 3.312h-3.792c-.064-.464-.272-.832-.624-1.104-.336-.272-.784-.408-1.344-.408-.48 0-.848.096-1.104.288-.256.176-.384.424-.384.744 0 .384.2.672.6.864.416.192 1.056.384 1.92.576.992.256 1.8.512 2.424.768.624.24 1.168.64 1.632 1.2.48.544.728 1.28.744 2.208 0 .784-.224 1.488-.672 2.112-.432.608-1.064 1.088-1.896 1.44-.816.352-1.768.528-2.856.528z"/><path d="m97.936 245.712c.544-.432.792-.632.744-.6 1.568-1.296 2.8-2.36 3.696-3.192.912-.832 1.68-1.704 2.304-2.616s.936-1.8.936-2.664c0-.656-.152-1.168-.456-1.536s-.76-.552-1.368-.552-1.088.232-1.44.696c-.336.448-.504 1.088-.504 1.92h-3.96c.032-1.36.32-2.496.864-3.408.56-.912 1.288-1.584 2.184-2.016.912-.432 1.92-.648 3.024-.648 1.904 0 3.336.488 4.296 1.464.976.976 1.464 2.248 1.464 3.816 0 1.712-.584 3.304-1.752 4.776-1.168 1.456-2.656 2.88-4.464 4.272h6.48v3.336h-12.048zm13.711 0c.544-.432.792-.632.744-.6 1.568-1.296 2.8-2.36 3.696-3.192.912-.832 1.68-1.704 2.304-2.616s.936-1.8.936-2.664c0-.656-.152-1.168-.456-1.536s-.76-.552-1.368-.552-1.088.232-1.44.696c-.336.448-.504 1.088-.504 1.92h-3.96c.032-1.36.32-2.496.864-3.408.56-.912 1.288-1.584 2.184-2.016.912-.432 1.92-.648 3.024-.648 1.904 0 3.336.488 4.296 1.464.976.976 1.464 2.248 1.464 3.816 0 1.712-.584 3.304-1.752 4.776-1.168 1.456-2.656 2.88-4.464 4.272h6.48v3.336h-12.048zm16.183 3.48c-.72 0-1.312-.208-1.776-.624-.448-.432-.672-.96-.672-1.584 0-.64.224-1.176.672-1.608.464-.432 1.056-.648 1.776-.648.704 0 1.28.216 1.728.648.464.432.696.968.696 1.608 0 .624-.232 1.152-.696 1.584-.448.416-1.024.624-1.728.624zm4.445-9.192c0-2.752.528-4.92 1.584-6.504 1.072-1.584 2.792-2.376 5.16-2.376s4.08.792 5.136 2.376c1.072 1.584 1.608 3.752 1.608 6.504 0 2.784-.536 4.968-1.608 6.552-1.056 1.584-2.768 2.376-5.136 2.376s-4.088-.792-5.16-2.376c-1.056-1.584-1.584-3.768-1.584-6.552zm9.456 0c0-1.616-.176-2.856-.528-3.72-.352-.88-1.08-1.32-2.184-1.32s-1.832.44-2.184 1.32c-.352.864-.528 2.104-.528 3.72 0 1.088.064 1.992.192 2.712.128.704.384 1.28.768 1.728.4.432.984.648 1.752.648s1.344-.216 1.728-.648c.4-.448.664-1.024.792-1.728.128-.72.192-1.624.192-2.712zm6.201 0c0-2.752.528-4.92 1.584-6.504 1.072-1.584 2.792-2.376 5.16-2.376s4.08.792 5.136 2.376c1.072 1.584 1.608 3.752 1.608 6.504 0 2.784-.536 4.968-1.608 6.552-1.056 1.584-2.768 2.376-5.136 2.376s-4.088-.792-5.16-2.376c-1.056-1.584-1.584-3.768-1.584-6.552zm9.456 0c0-1.616-.176-2.856-.528-3.72-.352-.88-1.08-1.32-2.184-1.32s-1.832.44-2.184 1.32c-.352.864-.528 2.104-.528 3.72 0 1.088.064 1.992.192 2.712.128.704.384 1.28.768 1.728.4.432.984.648 1.752.648s1.344-.216 1.728-.648c.4-.448.664-1.024.792-1.728.128-.72.192-1.624.192-2.712zm5.864-4.104c0-1.296.368-2.296 1.104-3 .752-.704 1.72-1.056 2.904-1.056s2.144.352 2.88 1.056 1.104 1.704 1.104 3-.368 2.296-1.104 3-1.696 1.056-2.88 1.056-2.152-.352-2.904-1.056c-.736-.704-1.104-1.704-1.104-3zm16.296-3.792-9.24 16.896h-3.96l9.24-16.896zm-12.312 2.136c-.768 0-1.152.552-1.152 1.656 0 1.088.384 1.632 1.152 1.632.368 0 .656-.136.864-.408s.312-.68.312-1.224c0-1.104-.392-1.656-1.176-1.656zm7.44 10.968c0-1.296.368-2.296 1.104-3s1.696-1.056 2.88-1.056 2.144.352 2.88 1.056 1.104 1.704 1.104 3-.368 2.296-1.104 3-1.696 1.056-2.88 1.056-2.144-.352-2.88-1.056-1.104-1.704-1.104-3zm3.96-1.656c-.368 0-.656.136-.864.408-.192.272-.288.688-.288 1.248 0 1.088.384 1.632 1.152 1.632.368 0 .656-.136.864-.408s.312-.68.312-1.224-.104-.952-.312-1.224c-.208-.288-.496-.432-.864-.432z"/><path d="m471.956 252.633c0 4.419 3.582 8 8 8 4.419 0 8-3.581 8-8 0-4.418-3.581-8-8-8-4.418 0-8 3.582-8 8zm-23.908-27.633.982-1.134-.423-.366h-.559zm32.89 26.499-31.908-27.633-1.964 2.268 31.908 27.633zm-32.89-27.999h-351.048v3h351.048z"/><path d="m71.608 593.152v3.288h-4.464v13.56h-4.104v-13.56h-4.464v-3.288zm14.6837 9.936c0 .384-.024.784-.072 1.2h-9.288c.064.832.328 1.472.792 1.92.48.432 1.064.648 1.752.648 1.024 0 1.736-.432 2.136-1.296h4.368c-.224.88-.632 1.672-1.224 2.376-.576.704-1.304 1.256-2.184 1.656s-1.864.6-2.952.6c-1.312 0-2.48-.28-3.504-.84s-1.824-1.36-2.4-2.4-.864-2.256-.864-3.648.28-2.608.84-3.648c.576-1.04 1.376-1.84 2.4-2.4s2.2-.84 3.528-.84c1.296 0 2.448.272 3.456.816s1.792 1.32 2.352 2.328c.576 1.008.864 2.184.864 3.528zm-4.2-1.08c0-.704-.24-1.264-.72-1.68s-1.08-.624-1.8-.624c-.688 0-1.272.2-1.752.6-.464.4-.752.968-.864 1.704zm5.5491 1.272c0-1.376.256-2.584.768-3.624.528-1.04 1.24-1.84 2.136-2.4s1.896-.84 3-.84c.944 0 1.768.192 2.472.576.72.384 1.272.888 1.656 1.512v-1.896h4.1042v13.392h-4.1042v-1.896c-.4.624-.96 1.128-1.68 1.512-.704.384-1.528.576-2.472.576-1.088 0-2.08-.28-2.976-.84-.896-.576-1.608-1.384-2.136-2.424-.512-1.056-.768-2.272-.768-3.648zm10.032.024c0-1.024-.288-1.832-.864-2.424-.56-.592-1.248-.888-2.064-.888s-1.512.296-2.088.888c-.56.576-.84 1.376-.84 2.4s.28 1.84.84 2.448c.576.592 1.272.888 2.088.888s1.504-.296 2.064-.888c.576-.592.864-1.4.864-2.424zm24.1612-6.84c1.664 0 2.984.504 3.96 1.512.992 1.008 1.488 2.408 1.488 4.2v7.824h-4.08v-7.272c0-.864-.232-1.528-.696-1.992-.448-.48-1.072-.72-1.872-.72s-1.432.24-1.896.72c-.448.464-.672 1.128-.672 1.992v7.272h-4.08v-7.272c0-.864-.232-1.528-.696-1.992-.448-.48-1.072-.72-1.872-.72s-1.432.24-1.896.72c-.448.464-.672 1.128-.672 1.992v7.272h-4.104v-13.392h4.104v1.68c.416-.56.96-1 1.632-1.32.672-.336 1.432-.504 2.28-.504 1.008 0 1.904.216 2.688.648.8.432 1.424 1.048 1.872 1.848.464-.736 1.096-1.336 1.896-1.8s1.672-.696 2.616-.696z"/><path d="m58.648 629.296v-3.816h6.648v17.52h-4.272v-13.704zm9.5514 10.584v-3.312l7.584-10.848h4.584v10.608h1.968v3.552h-1.968v3.12h-4.104v-3.12zm8.352-9.648-4.032 6.096h4.032zm10.1222 12.96c-.72 0-1.312-.208-1.776-.624-.448-.432-.672-.96-.672-1.584 0-.64.224-1.176.672-1.608.464-.432 1.056-.648 1.776-.648.704 0 1.28.216 1.728.648.464.432.696.968.696 1.608 0 .624-.232 1.152-.696 1.584-.448.416-1.024.624-1.728.624zm16.7814-14.136h-7.4879v3.312c.32-.352.768-.64 1.344-.864s1.2-.336 1.872-.336c1.1999 0 2.1919.272 2.9759.816.8.544 1.384 1.248 1.752 2.112s.552 1.8.552 2.808c0 1.872-.528 3.36-1.584 4.464-1.056 1.088-2.544 1.632-4.4639 1.632-1.28 0-2.392-.216-3.336-.648-.944-.448-1.672-1.064-2.184-1.848s-.792-1.688-.84-2.712h4.008c.096.496.328.912.696 1.248.368.32.872.48 1.512.48.752 0 1.312-.24 1.68-.72.3679-.48.5519-1.12.5519-1.92 0-.784-.192-1.384-.5759-1.8-.384-.416-.944-.624-1.68-.624-.544 0-.992.136-1.344.408-.352.256-.584.6-.696 1.032h-3.96v-10.44h11.2079zm2.937.84c0-1.296.368-2.296 1.104-3 .752-.704 1.72-1.056 2.904-1.056s2.144.352 2.88 1.056 1.104 1.704 1.104 3-.368 2.296-1.104 3-1.696 1.056-2.88 1.056-2.152-.352-2.904-1.056c-.736-.704-1.104-1.704-1.104-3zm16.296-3.792-9.24 16.896h-3.96l9.24-16.896zm-12.312 2.136c-.768 0-1.152.552-1.152 1.656 0 1.088.384 1.632 1.152 1.632.368 0 .656-.136.864-.408s.312-.68.312-1.224c0-1.104-.392-1.656-1.176-1.656zm7.44 10.968c0-1.296.368-2.296 1.104-3s1.696-1.056 2.88-1.056 2.144.352 2.88 1.056 1.104 1.704 1.104 3-.368 2.296-1.104 3-1.696 1.056-2.88 1.056-2.144-.352-2.88-1.056-1.104-1.704-1.104-3zm3.96-1.656c-.368 0-.656.136-.864.408-.192.272-.288.688-.288 1.248 0 1.088.384 1.632 1.152 1.632.368 0 .656-.136.864-.408s.312-.68.312-1.224-.104-.952-.312-1.224c-.208-.288-.496-.432-.864-.432z"/><path d="m902.762 81.5898c.195.1433.221.306.078.4883-1.367 1.7969-3.047 3.1966-5.039 4.1992s-4.102 1.5039-6.328 1.5039c-1.953 0-3.815-.3906-5.586-1.1718-1.771-.7813-3.301-1.8295-4.59-3.1446s-2.318-2.8776-3.086-4.6875c-.755-1.8229-1.133-3.7304-1.133-5.7226s.378-3.8932 1.133-5.7031c.768-1.823 1.797-3.392 3.086-4.7071s2.819-2.3633 4.59-3.1445 3.633-1.1719 5.586-1.1719c2.356 0 4.563.5469 6.621 1.6407 1.784.9505 3.314 2.233 4.59 3.8476.143.1823.117.3451-.079.4883l-4.746 3.4961c-.182.1302-.345.1107-.488-.0586-1.562-1.8229-3.529-2.7344-5.898-2.7344-2.175 0-4.03.7878-5.567 2.3633-1.536 1.5755-2.304 3.47-2.304 5.6836 0 2.2135.768 4.1081 2.304 5.6836 1.537 1.5755 3.392 2.3633 5.567 2.3633 1.172 0 2.291-.2539 3.359-.7618 1.068-.5208 1.973-1.2434 2.715-2.1679.13-.1563.28-.1758.449-.0586zm5.761-14.6289c1.732-1.0026 3.614-1.5039 5.645-1.5039s3.913.5013 5.644 1.5039c1.732.9896 3.099 2.3373 4.102 4.043s1.504 3.5612 1.504 5.5664c0 1.4974-.3 2.9362-.898 4.3164-.586 1.3672-1.387 2.5456-2.403 3.5352-1.002.9896-2.2 1.7773-3.594 2.3633-1.38.5859-2.832.8789-4.355.8789-2.031 0-3.913-.4948-5.645-1.4844-1.731-.9896-3.105-2.3373-4.121-4.043-1.002-1.7057-1.504-3.5612-1.504-5.5664s.502-3.8607 1.504-5.5664c1.016-1.7057 2.39-3.0534 4.121-4.043zm2.168 13.0274c.964.9375 2.123 1.4062 3.477 1.4062s2.506-.4687 3.457-1.4062c.964-.9375 1.445-2.0768 1.445-3.418 0-1.3411-.481-2.4805-1.445-3.418-.951-.9505-2.103-1.4257-3.457-1.4257s-2.513.4752-3.477 1.4257c-.963.9375-1.445 2.0769-1.445 3.418 0 1.3412.482 2.4805 1.445 3.418zm44.825-12.3242c1.028 1.0286 1.705 2.0507 2.031 3.0664.338 1.0026.508 2.3372.508 4.0039v11.9336c0 .2213-.117.332-.352.332h-6.328c-.221 0-.332-.1107-.332-.332v-11.6016c0-1.0807-.124-1.888-.371-2.4219-.143-.2994-.345-.5534-.606-.7617-.377-.2995-.898-.4492-1.562-.4492-.612 0-1.139.0976-1.582.293-.443.1953-.736.4622-.879.8007-.221.4688-.332 1.3151-.332 2.5391v11.6016c0 .2213-.117.332-.352.332h-6.152c-.221 0-.332-.1107-.332-.332l-.02-11.6016c0-1.0807-.123-1.888-.371-2.4219-.143-.2994-.345-.5534-.605-.7617-.378-.2995-.899-.4492-1.563-.4492-.612 0-1.139.0976-1.582.293-.442.1953-.735.4622-.879.8007-.221.4688-.332 1.3151-.332 2.5391v11.6016c0 .2213-.117.332-.351.332h-6.328c-.222 0-.332-.1107-.332-.332v-20.5274c0-.2344.11-.3515.332-.3515h5.937c.222 0 .332.1171.332.3515v.5664c0 .0651.026.1172.078.1563.066.026.131.0195.196-.0195.898-.612 1.836-1.0157 2.812-1.211.99-.1953 1.849-.2213 2.578-.0781.743.1302 1.446.332 2.11.6055.664.2734 1.139.5078 1.425.7031.3.1953.482.3255.547.3906.183.1432.339.28.469.4102.052.052.117.1237.195.2148.079.0781.137.1367.176.1758.169.1823.339.1758.508-.0195.365-.4428.801-.8399 1.309-1.1914.677-.4948 1.347-.8269 2.011-.9961 2.084-.7162 4.239-.4688 6.465.7421.13.0651.482.2865 1.055.6641zm33.164 0c1.028 1.0286 1.705 2.0507 2.031 3.0664.338 1.0026.508 2.3372.508 4.0039v11.9336c0 .2213-.117.332-.352.332h-6.328c-.221 0-.332-.1107-.332-.332v-11.6016c0-1.0807-.124-1.888-.371-2.4219-.143-.2994-.345-.5534-.606-.7617-.377-.2995-.898-.4492-1.562-.4492-.612 0-1.139.0976-1.582.293-.443.1953-.736.4622-.879.8007-.221.4688-.332 1.3151-.332 2.5391v11.6016c0 .2213-.117.332-.352.332h-6.152c-.221 0-.332-.1107-.332-.332l-.019-11.6016c0-1.0807-.124-1.888-.372-2.4219-.143-.2994-.345-.5534-.605-.7617-.378-.2995-.898-.4492-1.563-.4492-.612 0-1.139.0976-1.582.293-.442.1953-.735.4622-.878.8007-.222.4688-.332 1.3151-.332 2.5391v11.6016c0 .2213-.118.332-.352.332h-6.328c-.222 0-.332-.1107-.332-.332v-20.5274c0-.2344.11-.3515.332-.3515h5.937c.222 0 .332.1171.332.3515v.5664c0 .0651.026.1172.078.1563.066.026.131.0195.196-.0195.898-.612 1.836-1.0157 2.812-1.211.99-.1953 1.849-.2213 2.578-.0781.743.1302 1.446.332 2.11.6055.664.2734 1.139.5078 1.426.7031.299.1953.481.3255.546.3906.183.1432.339.28.469.4102.052.052.117.1237.196.2148.078.0781.136.1367.175.1758.17.1823.339.1758.508-.0195.365-.4428.801-.8399 1.309-1.1914.677-.4948 1.347-.8269 2.011-.9961 2.084-.7162 4.239-.4688 6.465.7421.13.0651.482.2865 1.055.6641zm22.93-1.875c.22 0 .33.1171.33.3515v20.5274c0 .2213-.11.332-.33.332h-5.94c-.22 0-.33-.1107-.33-.332v-.586c0-.0651-.03-.1106-.1-.1367-.05-.0391-.1-.0391-.15 0-1.33.9115-2.76 1.3672-4.28 1.3672-1.85 0-3.569-.5794-5.158-1.7383l-.039-.0195c-.169-.1432-.332-.2865-.488-.4297-1.029-1.0286-1.706-2.0378-2.031-3.0273-.326-1.0026-.489-2.3438-.489-4.0235v-11.9336c0-.2344.111-.3515.333-.3515h6.328c.221 0 .332.1171.332.3515v11.6016c0 1.0677.123 1.8685.371 2.4023.141.2995.341.5534.601.7617.39.3126.92.4688 1.57.4688.61 0 1.14-.0977 1.58-.293s.73-.4622.88-.8008c.23-.4947.35-1.3411.35-2.539v-11.6016c0-.2344.11-.3515.33-.3515zm19.02 1.875c1.03 1.0286 1.71 2.0442 2.03 3.0468.33 1.0026.49 2.3438.49 4.0235v11.9336c0 .2213-.11.332-.33.332h-6.33c-.22 0-.33-.1107-.33-.332v-11.6016c0-1.0807-.12-1.888-.37-2.4219-.14-.2994-.35-.5534-.61-.7617-.37-.2995-.89-.4492-1.56-.4492-.61 0-1.14.0976-1.58.293-.44.1953-.74.4622-.88.8007-.22.4688-.33 1.3151-.33 2.5391v11.6016c0 .2213-.12.332-.35.332h-6.33c-.22 0-.33-.1107-.33-.332v-20.5274c0-.2344.11-.3515.33-.3515h5.94c.22 0 .33.1171.33.3515v.5664c0 .0651.02.1172.08.1563.06.026.13.0195.19-.0195.9-.612 1.84-1.0157 2.81-1.211.99-.1953 1.85-.2213 2.58-.0781.74.1302 1.45.332 2.11.6055.67.2734 1.14.5078 1.43.7031.3.1953.48.3255.54.3906.06.0391.11.0846.16.1367.05.0391.1.0912.16.1563.06.0521.11.0911.15.1172zm10.43-1.875c.22 0 .33.1171.33.3515v20.5274c0 .2213-.11.332-.33.332h-5.94c-.22 0-.33-.1107-.33-.332v-20.5274c0-.2344.11-.3515.33-.3515zm0-6.6602c.22 0 .33.1107.33.332v4.3164c0 .2344-.11.3516-.33.3516h-5.94c-.22 0-.33-.1172-.33-.3516v-4.3164c0-.2213.11-.332.33-.332zm13.79 22.3633c.11 0 .19.039.26.1172.07.0781.1.1692.07.2734l-.76 5c-.02.1953-.13.293-.31.293-1.93.1041-3.01.1562-3.26.1562h-.12c-1.8-.1041-3.16-.6054-4.1-1.5039-.94-.9114-1.41-2.194-1.41-3.8476v-10.1758c0-.2214-.11-.332-.33-.332h-2.21c-.22 0-.33-.1172-.33-.3516v-5c0-.2344.11-.3516.33-.3516h2.21c.22 0 .33-.1106.33-.332v-5.8203c0-.2214.12-.332.35-.332h5.92c.22 0 .33.1106.33.332v5.8203c0 .2214.12.332.36.332h2.18c.09 0 .17.0391.24.1172.08.0651.11.1432.11.2344v5c0 .0911-.03.1758-.11.2539-.07.0651-.15.0977-.24.0977h-2.18c-.24 0-.36.1106-.36.332v7.0117.1563c-.02 1.0286.13 1.7122.47 2.0507.32.3125.78.4688 1.41.4688zm21.45-15.7031c.11 0 .21.052.27.1562.08.1042.1.2083.06.3125l-6.68 18.5352-3.11 8.8281c-.04.1432-.15.2148-.33.2148h-6.58c-.12 0-.21-.0455-.27-.1367-.07-.0911-.08-.1888-.04-.293l2.58-7.6562c.01-.0781.01-.1497 0-.2148l-7.06-19.2774c-.03-.1042-.02-.2083.04-.3125.07-.1042.16-.1562.28-.1562h5.9c.14 0 .24.0781.31.2343l3.87 10.4493c.06.1432.17.2148.33.2148.15-.013.26-.0911.31-.2344l3.55-10.4297c.04-.1562.15-.2343.34-.2343z"/><path d="m434.418 61.043c1.029.8724 1.823 1.9596 2.383 3.2617.56 1.2891.84 2.6823.84 4.1797 0 1.4453-.267 2.8515-.801 4.2187-.521 1.3542-1.218 2.4089-2.09 3.1641-.977.8594-2.038 1.4779-3.184 1.8555-1.145.3776-2.747.5664-4.804.5664h-2.285c-.235 0-.352.1106-.352.332v8.0469c0 .2213-.111.332-.332.332h-6.445c-.235 0-.352-.1107-.352-.332v-27.3438c0-.2213.117-.332.352-.332h8.632c2.344 0 4.128.1693 5.352.5078 1.237.3255 2.266.8398 3.086 1.543zm-5.195 10.3906c1.054-.4688 1.582-1.4128 1.582-2.832 0-1.3542-.554-2.2722-1.66-2.7539-.625-.2735-1.569-.4102-2.833-.4102h-1.835c-.235 0-.352.1107-.352.332v5.7227c0 .1042.033.1888.098.2539s.149.0977.254.0977h2.089c1.172 0 2.058-.1368 2.657-.4102zm20.664-5.625c.221 0 .332.1172.332.3516l-.196 4.9609c0 .0911-.039.1693-.117.2344-.065.0651-.149.0911-.254.0781-1.041-.1042-1.849-.0912-2.422.0391-.338.0781-.625.2278-.859.4492-.234.2083-.391.4101-.469.6054-.221.4688-.332 1.2045-.332 2.2071v11.9336c0 .2213-.117.332-.351.332h-6.328c-.222 0-.332-.1107-.332-.332v-20.5274c0-.2344.11-.3515.332-.3515h5.937c.221 0 .332.1171.332.3515v.586c0 .0651.026.1172.078.1562.065.0261.124.0195.176-.0195 1.081-.6771 2.572-1.0287 4.473-1.0547zm5.761 1.1523c1.732-1.0026 3.614-1.5039 5.645-1.5039s3.913.5013 5.645 1.5039c1.731.9896 3.098 2.3373 4.101 4.043s1.504 3.5612 1.504 5.5664c0 1.4974-.3 2.9362-.898 4.3164-.586 1.3672-1.387 2.5456-2.403 3.5352-1.002.9896-2.2 1.7773-3.594 2.3633-1.38.5859-2.832.8789-4.355.8789-2.031 0-3.913-.4948-5.645-1.4844-1.731-.9896-3.105-2.3373-4.121-4.043-1.002-1.7057-1.504-3.5612-1.504-5.5664s.502-3.8607 1.504-5.5664c1.016-1.7057 2.39-3.0534 4.121-4.043zm2.168 13.0274c.964.9375 2.123 1.4062 3.477 1.4062s2.506-.4687 3.457-1.4062c.964-.9375 1.445-2.0768 1.445-3.418 0-1.3411-.481-2.4805-1.445-3.418-.951-.9505-2.103-1.4257-3.457-1.4257s-2.513.4752-3.477 1.4257c-.963.9375-1.445 2.0769-1.445 3.418 0 1.3412.482 2.4805 1.445 3.418zm22.09-20.8594c.222 0 .332.1107.332.332v4.3164c0 .2344-.11.3516-.332.3516h-5.918c-.091 0-.176-.0325-.254-.0977-.065-.0781-.097-.1627-.097-.2539v-4.3164c0-.2213.117-.332.351-.332zm0 6.6602c.222 0 .332.1171.332.3515v22.8711c0 .8985-.143 1.6862-.429 2.3633-.274.6901-.612 1.2174-1.016 1.582-.391.3776-.859.6901-1.406.9375s-1.022.4102-1.426.4883-.807.1237-1.211.1367h-1.348-2.793c-.091 0-.169-.039-.234-.1172-.078-.0781-.111-.1692-.098-.2734l.645-5c.026-.1953.137-.293.332-.293h.527c.625 0 1.094-.1562 1.407-.4687.338-.3516.494-1.0352.468-2.0508l-.019-.1367v-20.0391c0-.1041.032-.1888.097-.2539.078-.0651.163-.0976.254-.0976zm23.496 7.6367c.313 1.0156.469 2.0638.469 3.1445 0 .6511-.059 1.3021-.176 1.9531-.026.1954-.136.293-.332.293h-14.863c-.13 0-.228.0586-.293.1758-.065.1042-.065.2148 0 .332.456.7813 1.068 1.3998 1.836 1.8555.781.4427 1.621.6641 2.519.6641 1.628 0 2.956-.6641 3.985-1.9922.078-.1042.189-.1433.332-.1172l5.683 1.0156c.105.026.183.0911.235.1953.065.1042.071.2018.019.293-.195.3906-.325.6445-.39.7617l-.098.1562c-.026.0391-.117.1889-.273.4493-.039.0521-.104.1432-.196.2734-.078.1302-.136.2214-.175.2734l-.079.0977v-.0195l-.117.1757-.078.0782c-.026.026-.065.0716-.117.1367-.052.0521-.091.0977-.117.1367l-.059.0781c-.078.0912-.208.2279-.39.4102l-.079.0781-.273.2735-.02.0195c-.026.026-.078.0716-.156.1367-.065.0521-.117.0977-.156.1367l-.098.0977-.136-.1172.117.1367c-.104.0912-.261.2149-.469.3711l-.117.0781c-.039.0261-.222.1498-.547.3711l-.039.0391c-.143.0911-.358.2148-.645.3711l-.058.039c-.013.0131-.039.0261-.078.0391s-.065.026-.078.0391l-.04.0195c-.156.0911-.247.1432-.273.1562l-.039.0196c-.13.0651-.326.1497-.586.2539l-.039.0195c-.13.0521-.247.0977-.352.1367l-.136.0391c-.157.0651-.3.1172-.43.1562h-.02c-.039.0131-.117.0326-.234.0586-.104.0391-.189.0651-.254.0782l-.137.039c-.221.0521-.54.1172-.957.1953l-.117.0196c-.234.039-.573.0716-1.015.0976h-.137c-.065 0-.156 0-.274 0-.104.0131-.182.0196-.234.0196s-.137-.0065-.254-.0196c-.117 0-.208 0-.273 0h-.117-.039c-.105 0-.235-.013-.391-.039h-.039-.098c-.234-.0261-.403-.0456-.508-.0586v-.0196h-.097c-.052-.013-.124-.026-.215-.039s-.156-.0261-.195-.0391l-.137-.039c-.039-.0131-.104-.0261-.196-.0391-.078-.013-.136-.026-.175-.0391h-.039c-.013 0-.033-.0065-.059-.0195-.013-.013-.026-.0195-.039-.0195-.026-.0131-.189-.0586-.488-.1368-.104-.026-.261-.0781-.469-.1562-.013 0-.033-.0065-.059-.0195-.026-.0131-.045-.0196-.058-.0196h-.02c-.039-.013-.097-.0325-.176-.0586-.065-.039-.117-.0651-.156-.0781l-.039-.0195c-.013 0-.032-.0065-.058-.0195-.013-.0131-.026-.0196-.039-.0196-.157-.0651-.306-.1302-.45-.1953h-.019c-.143-.0651-.287-.1367-.43-.2148-.013-.0131-.032-.0261-.059-.0391-.013-.013-.026-.0195-.039-.0195l-.019-.0196c-.026-.013-.078-.039-.156-.0781-.065-.039-.118-.0716-.157-.0976l-.136-.0782c-.183-.1041-.319-.1888-.411-.2539-1.354-.8984-2.46-2.0507-3.32-3.457-.13-.1953-.202-.306-.215-.332l-.019-.0586c-.013-.0391-.046-.0977-.098-.1758-.039-.0781-.071-.1367-.098-.1758l-.019-.0586c-.013-.013-.026-.026-.039-.039-.013-.0261-.02-.0456-.02-.0586-.221-.4427-.41-.8985-.566-1.3672-.065-.1823-.137-.4167-.215-.7031-.013-.0521-.032-.1368-.058-.254-.027-.1302-.046-.2278-.059-.2929-.13-.586-.202-1.1393-.215-1.6602-.013-.1302-.019-.319-.019-.5664 0-.2604.006-.4557.019-.5859.065-1.0156.247-1.9792.547-2.8906.117-.3777.221-.6641.312-.8594.04-.1042.111-.2474.215-.4297 0-.013.007-.0326.02-.0586s.019-.0456.019-.0586l.059-.0781c.013-.013.019-.0261.019-.0391 0-.026.007-.0456.02-.0586l.059-.1172.097-.1757c.026-.0521.065-.1237.117-.2149.066-.0911.111-.1562.137-.1953.86-1.4063 1.966-2.5586 3.32-3.457.092-.0651.228-.1498.411-.2539l.136-.0782c.039-.026.092-.0586.157-.0976.078-.0391.13-.0651.156-.0781l.019-.0196c.013-.013.026-.0195.039-.0195.027 0 .046-.0065.059-.0195.091-.0521.241-.1303.449-.2344.144-.0651.293-.1302.45-.1953.013-.0131.026-.0196.039-.0196.026 0 .045-.0065.058-.0195l.039-.0195c.039-.013.091-.0326.156-.0586.079-.0391.137-.0651.176-.0781h.039c.013-.0131.026-.0196.039-.0196.026 0 .046-.0065.059-.0195.208-.0781.365-.1302.469-.1563.078-.026.241-.0716.488-.1367.013 0 .026-.0065.039-.0195.026-.013.046-.0195.059-.0195h.039c.065-.0261.189-.0521.371-.0782l.078-.0195c.13-.0391.306-.0716.527-.0976h.039c.052 0 .131-.0066.235-.0196.117-.026.208-.0456.273-.0586h.098.058c.157-.026.28-.039.372-.039h.039.117.273c.117-.0131.202-.0196.254-.0196s.13.0065.234.0196h.274.117c.247.013.586.0455 1.016.0976l.136.0196c.469.0911.788.1562.957.1953l.137.039c.026 0 .189.0456.488.1367h.02c.104.0261.247.0782.43.1563.013.013.032.0195.058.0195s.046.0065.059.0196c.052.013.117.039.195.0781.078.026.13.0456.156.0586l.059.0195c.352.1563.54.2409.566.2539l.059.0195.273.1368.02.0195-.059.1562.079-.1367c.013 0 .039.013.078.0391.039.026.065.0391.078.0391.052.026.117.0651.195.1171.091.0521.182.1107.274.1758.104.0521.175.0912.214.1172l.02.0195c.26.1563.449.28.566.3711l.039.0196c.013 0 .026.013.039.039.026.0261.046.0456.059.0586.039.0261.085.0651.137.1172.065.0391.123.0781.176.1172.052.0391.104.0781.156.1172l.078.0781c.039.0391.098.0977.176.1758.078.0651.136.1107.175.1367l.04.0391c.039.026.091.0716.156.1367s.097.1042.097.1172l.079.0781c.182.1823.312.319.39.4102l-.117.1367.137-.1172.058.0781c.026.0261.059.0716.098.1367.052.0521.091.0912.117.1172l.078.0977c.026.039.065.0976.117.1758.066.0651.111.1171.137.1562.026.026.059.0716.098.1367.039.0521.071.0977.098.1367l.117.1954c.013.026.032.0651.058.1171.039.0521.072.0912.098.1172l.215.3516c.429.7682.755 1.5365.976 2.3047zm-6.504.7226c.105 0 .189-.039.254-.1172.078-.0911.105-.1888.078-.2929-.13-.7943-.605-1.4518-1.425-1.9727-.808-.5338-1.784-.8008-2.93-.8008-1.055 0-2.012.2735-2.871.8204-.859.5338-1.361 1.1849-1.504 1.9531-.026.1041-.007.2018.059.2929.078.0782.169.1172.273.1172zm28.008 7.7539c.209.1172.248.28.117.4883-.052.0651-.143.2018-.273.4102-.117.1953-.202.3255-.254.3906h-.019c-.287.3646-.508.6315-.665.8008l-.019.0195-.352.3516c-.013.013-.019.0195-.019.0195 0 .0261-.007.0391-.02.0391-.039.026-.097.0716-.175.1367-.066.0651-.111.1172-.137.1562-.013.0131-.039.0391-.078.0782-.039.039-.072.0651-.098.0781-.013.013-.039.0325-.078.0586-.026.026-.046.0456-.059.0586-1.666 1.4062-3.587 2.2591-5.761 2.5586-.026 0-.065 0-.118 0-.039.013-.071.0195-.097.0195-.13.026-.222.0391-.274.0391-.182.026-.319.039-.41.039h-.156c-.052 0-.13 0-.234 0-.105.0131-.189.0196-.254.0196-2.032 0-3.913-.4948-5.645-1.4844-1.732-1.0026-3.105-2.3568-4.121-4.0625-1.003-1.7057-1.504-3.5612-1.504-5.5664s.501-3.8607 1.504-5.5664c1.016-1.7058 2.389-3.0534 4.121-4.043s3.613-1.4844 5.645-1.4844h.488c.026 0 .052.0065.078.0196h.078c.182 0 .319.0065.41.0195.052 0 .144.013.274.0391.026 0 .058.0065.097.0195h.118c2.148.2995 4.069 1.1588 5.761 2.5781.013.013.033.0326.059.0586.039.013.065.026.078.0391l.176.1757c.026.0391.071.0912.137.1563.078.0521.136.0911.175.1172l.059.0586c.143.1432.247.2539.312.332l.039.0391c.157.1692.378.4362.665.8008l.019.0195c.195.2474.391.5338.586.8594.104.1562.072.2799-.098.3711l-3.007 1.7382-1.739.9961c-.182.1172-.332.0847-.449-.0976-1.029-1.5625-2.357-2.3438-3.984-2.3438-1.589 0-2.91.612-3.965 1.836-.86.9244-1.289 2.0117-1.289 3.2617s.429 2.3372 1.289 3.2617c1.055 1.224 2.376 1.8359 3.965 1.8359 1.627 0 2.955-.7747 3.984-2.3242.117-.1953.267-.2344.449-.1172zm12.735-.4101c.104 0 .188.039.254.1172.078.0781.104.1692.078.2734l-.762 5c-.026.1953-.13.293-.313.293-1.927.1041-3.014.1562-3.261.1562h-.117c-1.797-.1041-3.165-.6054-4.102-1.5039-.938-.9114-1.406-2.194-1.406-3.8476v-10.1758c0-.2214-.111-.332-.332-.332h-2.207c-.222 0-.332-.1172-.332-.3516v-5c0-.2344.11-.3516.332-.3516h2.207c.221 0 .332-.1106.332-.332v-5.8203c0-.2214.117-.332.351-.332h5.918c.222 0 .332.1106.332.332v5.8203c0 .2214.117.332.352.332h2.187c.091 0 .17.0391.235.1172.078.0651.117.1432.117.2344v5c0 .0911-.039.1758-.117.2539-.065.0651-.144.0977-.235.0977h-2.187c-.235 0-.352.1106-.352.332v7.0117.1563c-.026 1.0286.13 1.7122.469 2.0507.313.3125.781.4688 1.406.4688zm23.32-.9375c.091 0 .169.0391.234.1172.078.0651.111.1497.098.2539l-.605 5.7812c-.027.1953-.137.293-.333.293h-15.195c-.234 0-.351-.1107-.351-.332v-27.3633c0-.2214.117-.332.351-.332h6.445c.222 0 .333.1106.333.332v20.918c0 .2213.117.332.351.332zm7.187-14.7656c.222 0 .332.1171.332.3515v20.5274c0 .2213-.11.332-.332.332h-5.937c-.221 0-.332-.1107-.332-.332v-20.5274c0-.2344.111-.3515.332-.3515zm0-6.6602c.222 0 .332.1107.332.332v4.3164c0 .2344-.11.3516-.332.3516h-5.937c-.221 0-.332-.1172-.332-.3516v-4.3164c0-.2213.111-.332.332-.332zm14.649 6.3281c2.031 0 3.913.4948 5.644 1.4844 1.732.9896 3.099 2.3372 4.102 4.043 1.016 1.7057 1.523 3.5612 1.523 5.5664s-.507 3.8607-1.523 5.5664c-1.003 1.7057-2.37 3.0599-4.102 4.0625-1.731.9896-3.613 1.4844-5.644 1.4844-1.992 0-3.854-.4883-5.586-1.4649-.052-.026-.111-.026-.176 0-.052.0261-.078.0716-.078.1367v.3125c0 .2214-.111.3321-.332.3321h-5.937c-.222 0-.333-.1107-.333-.3321v-27.207c0-.2213.111-.332.333-.332h5.937c.221 0 .332.1107.332.332v7.3242c0 .0651.026.1172.078.1563.052.026.111.026.176 0 1.732-.9766 3.594-1.4649 5.586-1.4649zm-1.016 16.1914c1.433 0 2.65-.4948 3.653-1.4843 1.015-1.0026 1.523-2.2071 1.523-3.6133 0-1.4063-.508-2.6042-1.523-3.5938-1.003-1.0026-2.22-1.5039-3.653-1.5039-1.406 0-2.565.4948-3.476 1.4844-.899.9766-1.348 2.181-1.348 3.6133s.449 2.6432 1.348 3.6328c.911.9766 2.07 1.4648 3.476 1.4648zm34.668-8.2226c.313 1.0156.469 2.0638.469 3.1445 0 .6511-.059 1.3021-.176 1.9531-.026.1954-.137.293-.332.293h-14.863c-.13 0-.228.0586-.293.1758-.065.1042-.065.2148 0 .332.456.7813 1.068 1.3998 1.836 1.8555.781.4427 1.621.6641 2.519.6641 1.628 0 2.956-.6641 3.985-1.9922.078-.1042.189-.1433.332-.1172l5.683 1.0156c.105.026.183.0911.235.1953.065.1042.071.2018.019.293-.195.3906-.325.6445-.39.7617l-.098.1562c-.026.0391-.117.1889-.273.4493-.04.0521-.105.1432-.196.2734-.078.1302-.136.2214-.176.2734l-.078.0977v-.0195l-.117.1757-.078.0782c-.026.026-.065.0716-.117.1367-.052.0521-.091.0977-.117.1367l-.059.0781c-.078.0912-.208.2279-.391.4102l-.078.0781-.273.2735-.02.0195c-.026.026-.078.0716-.156.1367-.065.0521-.117.0977-.156.1367l-.098.0977-.137-.1172.118.1367c-.105.0912-.261.2149-.469.3711l-.117.0781c-.039.0261-.222.1498-.547.3711l-.039.0391c-.143.0911-.358.2148-.645.3711l-.058.039c-.013.0131-.039.0261-.078.0391-.04.013-.066.026-.079.0391l-.039.0195c-.156.0911-.247.1432-.273.1562l-.039.0196c-.13.0651-.326.1497-.586.2539l-.039.0195c-.13.0521-.248.0977-.352.1367l-.136.0391c-.157.0651-.3.1172-.43.1562h-.02c-.039.0131-.117.0326-.234.0586-.104.0391-.189.0651-.254.0782l-.137.039c-.221.0521-.54.1172-.957.1953l-.117.0196c-.234.039-.573.0716-1.016.0976h-.136c-.065 0-.156 0-.274 0-.104.0131-.182.0196-.234.0196s-.137-.0065-.254-.0196c-.117 0-.208 0-.273 0h-.118-.039c-.104 0-.234-.013-.39-.039h-.039-.098c-.234-.0261-.404-.0456-.508-.0586v-.0196h-.097c-.053-.013-.124-.026-.215-.039s-.157-.0261-.196-.0391l-.136-.039c-.039-.0131-.104-.0261-.196-.0391-.078-.013-.136-.026-.175-.0391h-.039c-.013 0-.033-.0065-.059-.0195-.013-.013-.026-.0195-.039-.0195-.026-.0131-.189-.0586-.488-.1368-.105-.026-.261-.0781-.469-.1562-.013 0-.033-.0065-.059-.0195-.026-.0131-.045-.0196-.058-.0196h-.02c-.039-.013-.098-.0325-.176-.0586-.065-.039-.117-.0651-.156-.0781l-.039-.0195c-.013 0-.033-.0065-.059-.0195-.013-.0131-.026-.0196-.039-.0196-.156-.0651-.306-.1302-.449-.1953h-.019c-.144-.0651-.287-.1367-.43-.2148-.013-.0131-.033-.0261-.059-.0391-.013-.013-.026-.0195-.039-.0195l-.019-.0196c-.026-.013-.078-.039-.157-.0781-.065-.039-.117-.0716-.156-.0976l-.136-.0782c-.183-.1041-.319-.1888-.411-.2539-1.354-.8984-2.461-2.0507-3.32-3.457-.13-.1953-.202-.306-.215-.332l-.019-.0586c-.013-.0391-.046-.0977-.098-.1758-.039-.0781-.072-.1367-.098-.1758l-.019-.0586c-.013-.013-.026-.026-.039-.039-.013-.0261-.02-.0456-.02-.0586-.221-.4427-.41-.8985-.566-1.3672-.065-.1823-.137-.4167-.215-.7031-.013-.0521-.033-.1368-.059-.254-.026-.1302-.045-.2278-.058-.2929-.13-.586-.202-1.1393-.215-1.6602-.013-.1302-.02-.319-.02-.5664 0-.2604.007-.4557.02-.5859.065-1.0156.247-1.9792.547-2.8906.117-.3777.221-.6641.312-.8594.039-.1042.111-.2474.215-.4297 0-.013.007-.0326.02-.0586s.019-.0456.019-.0586l.059-.0781c.013-.013.019-.0261.019-.0391 0-.026.007-.0456.02-.0586l.059-.1172.097-.1757c.026-.0521.065-.1237.117-.2149.065-.0911.111-.1562.137-.1953.859-1.4063 1.966-2.5586 3.32-3.457.092-.0651.228-.1498.411-.2539l.136-.0782c.039-.026.091-.0586.156-.0976.079-.0391.131-.0651.157-.0781l.019-.0196c.013-.013.026-.0195.039-.0195.026 0 .046-.0065.059-.0195.091-.0521.241-.1303.449-.2344.143-.0651.293-.1302.449-.1953.013-.0131.026-.0196.039-.0196.026 0 .046-.0065.059-.0195l.039-.0195c.039-.013.091-.0326.156-.0586.078-.0391.137-.0651.176-.0781h.039c.013-.0131.026-.0196.039-.0196.026 0 .046-.0065.059-.0195.208-.0781.364-.1302.469-.1563.078-.026.24-.0716.488-.1367.013 0 .026-.0065.039-.0195.026-.013.046-.0195.059-.0195h.039c.065-.0261.188-.0521.371-.0782l.078-.0195c.13-.0391.306-.0716.527-.0976h.039c.052 0 .13-.0066.235-.0196.117-.026.208-.0456.273-.0586h.098.058c.157-.026.28-.039.371-.039h.039.118.273c.117-.0131.202-.0196.254-.0196s.13.0065.234.0196h.274.117c.247.013.586.0455 1.016.0976l.136.0196c.469.0911.788.1562.957.1953l.137.039c.026 0 .189.0456.488.1367h.02c.104.0261.247.0782.43.1563.013.013.032.0195.058.0195s.046.0065.059.0196c.052.013.117.039.195.0781.078.026.13.0456.156.0586l.059.0195c.351.1563.54.2409.566.2539l.059.0195.273.1368.02.0195-.059.1562.078-.1367c.013 0 .039.013.079.0391.039.026.065.0391.078.0391.052.026.117.0651.195.1171.091.0521.182.1107.273.1758.105.0521.176.0912.215.1172l.02.0195c.26.1563.449.28.566.3711l.039.0196c.013 0 .026.013.039.039.026.0261.046.0456.059.0586.039.0261.085.0651.137.1172.065.0391.123.0781.175.1172s.105.0781.157.1172l.078.0781c.039.0391.097.0977.176.1758.078.0651.136.1107.175.1367l.039.0391c.039.026.092.0716.157.1367s.097.1042.097.1172l.078.0781c.183.1823.313.319.391.4102l-.117.1367.137-.1172.058.0781c.026.0261.059.0716.098.1367.052.0521.091.0912.117.1172l.078.0977c.026.039.065.0976.117.1758.065.0651.111.1171.137.1562.026.026.059.0716.098.1367.039.0521.071.0977.097.1367l.118.1954c.013.026.032.0651.058.1171.039.0521.072.0912.098.1172l.215.3516c.429.7682.755 1.5365.976 2.3047zm-6.504.7226c.104 0 .189-.039.254-.1172.078-.0911.104-.1888.078-.2929-.13-.7943-.605-1.4518-1.425-1.9727-.808-.5338-1.784-.8008-2.93-.8008-1.055 0-2.012.2735-2.871.8204-.86.5338-1.361 1.1849-1.504 1.9531-.026.1041-.007.2018.058.2929.079.0782.17.1172.274.1172zm19.395-8.3398c.221 0 .332.1172.332.3516l-.195 4.9609c0 .0911-.039.1693-.118.2344-.065.0651-.149.0911-.254.0781-1.041-.1042-1.848-.0912-2.421.0391-.339.0781-.625.2278-.86.4492-.234.2083-.39.4101-.469.6054-.221.4688-.332 1.2045-.332 2.2071v11.9336c0 .2213-.117.332-.351.332h-6.328c-.222 0-.332-.1107-.332-.332v-20.5274c0-.2344.11-.3515.332-.3515h5.937c.222 0 .332.1171.332.3515v.586c0 .0651.026.1172.078.1562.066.0261.124.0195.176-.0195 1.081-.6771 2.572-1.0287 4.473-1.0547zm13.848 15.6836c.104 0 .188.039.253.1172.079.0781.105.1692.079.2734l-.762 5c-.026.1953-.13.293-.313.293-1.927.1041-3.014.1562-3.261.1562h-.118c-1.796-.1041-3.164-.6054-4.101-1.5039-.938-.9114-1.406-2.194-1.406-3.8476v-10.1758c0-.2214-.111-.332-.332-.332h-2.207c-.222 0-.332-.1172-.332-.3516v-5c0-.2344.11-.3516.332-.3516h2.207c.221 0 .332-.1106.332-.332v-5.8203c0-.2214.117-.332.351-.332h5.918c.221 0 .332.1106.332.332v5.8203c0 .2214.117.332.352.332h2.187c.091 0 .169.0391.235.1172.078.0651.117.1432.117.2344v5c0 .0911-.039.1758-.117.2539-.066.0651-.144.0977-.235.0977h-2.187c-.235 0-.352.1106-.352.332v7.0117.1563c-.026 1.0286.13 1.7122.469 2.0507.312.3125.781.4688 1.406.4688zm21.445-15.7031c.117 0 .208.052.273.1562.078.1042.098.2083.059.3125l-6.68 18.5352-3.105 8.8281c-.039.1432-.15.2148-.332.2148h-6.582c-.118 0-.209-.0455-.274-.1367-.065-.0911-.078-.1888-.039-.293l2.578-7.6562c.013-.0781.013-.1497 0-.2148l-7.051-19.2774c-.039-.1042-.026-.2083.04-.3125.065-.1042.156-.1562.273-.1562h5.898c.144 0 .248.0781.313.2343l3.867 10.4493c.065.1432.176.2148.332.2148.156-.013.261-.0911.313-.2344l3.554-10.4297c.039-.1562.15-.2343.332-.2343z"/></g></svg>
