<svg fill="none" viewBox="0 0 1581 1015" xmlns="http://www.w3.org/2000/svg" xmlns:xlink="http://www.w3.org/1999/xlink"><linearGradient id="a" gradientUnits="userSpaceOnUse" x1="730.245" x2="449.298" y1="236.514" y2="236.514"><stop offset="0" stop-color="#48c578"/><stop offset=".5" stop-color="#67cf8c"/><stop offset="1" stop-color="#89daa3"/></linearGradient><linearGradient id="b" gradientUnits="userSpaceOnUse" x1="449.298" x2="297.298" y1="381.363" y2="381.363"><stop offset="0" stop-color="#89daa3"/><stop offset=".5" stop-color="#8edba7"/><stop offset="1" stop-color="#62cd89"/></linearGradient><linearGradient id="c" gradientUnits="userSpaceOnUse" x1="730.245" x2="631.914" y1="441.65" y2="441.65"><stop offset="0" stop-color="#ffd647"/><stop offset=".5" stop-color="#fcdf7b"/><stop offset="1" stop-color="#ffeba3"/></linearGradient><linearGradient id="d" gradientUnits="userSpaceOnUse" x1="632.2" x2="579" y1="491.988" y2="491.988"><stop offset="0" stop-color="#ffeba3"/><stop offset=".5" stop-color="#ffe075"/><stop offset="1" stop-color="#ffd647"/></linearGradient><linearGradient id="e" gradientUnits="userSpaceOnUse" x1="578.714" x2="297.298" y1="507.016" y2="507.016"><stop offset="0" stop-color="#3bbc6b"/><stop offset="1" stop-color="#3bbc6b"/></linearGradient><linearGradient id="f" gradientUnits="userSpaceOnUse" x1="580.057" x2="299.279" y1="497.821" y2="497.821"><stop offset="0" stop-color="#f99a2a"/><stop offset="1" stop-color="#f99a2a"/></linearGradient><linearGradient id="g" gradientUnits="userSpaceOnUse" x1="299.279" x2="291.49" y1="509.834" y2="509.834"><stop offset="0" stop-color="#4571f0"/><stop offset=".5" stop-color="#3567ef"/><stop offset="1" stop-color="#255eed"/></linearGradient><linearGradient id="h" gradientUnits="userSpaceOnUse" x1="580.057" x2="577.331" y1="532.019" y2="532.019"><stop offset="0" stop-color="#ffaa47"/><stop offset=".5" stop-color="#ffaa48"/><stop offset="1" stop-color="#ffab49"/></linearGradient><linearGradient id="i" gradientUnits="userSpaceOnUse" x1="307.076" x2="291.49" y1="592.222" y2="592.222"><stop offset="0" stop-color="#f99929"/><stop offset=".5" stop-color="#ed8102"/><stop offset="1" stop-color="#da7600"/></linearGradient><linearGradient id="j" gradientUnits="userSpaceOnUse" x1="615.792" x2="401.38" y1="707.004" y2="707.004"><stop offset="0" stop-color="#7894f4"/><stop offset="1" stop-color="#7894f4"/></linearGradient><linearGradient id="k" gradientUnits="userSpaceOnUse" x1="401.38" x2="307.076" y1="712.922" y2="712.922"><stop offset="0" stop-color="#e27e00"/><stop offset=".5" stop-color="#f58d13"/><stop offset="1" stop-color="#f99a2a"/></linearGradient><linearGradient id="l" gradientUnits="userSpaceOnUse" x1="640.776" x2="615.792" y1="637.962" y2="637.962"><stop offset="0" stop-color="#cb6500"/><stop offset=".5" stop-color="#bc5c00"/><stop offset="1" stop-color="#ac5300"/></linearGradient><linearGradient id="m" gradientUnits="userSpaceOnUse" x1="615.792" x2="401.38" y1="707.004" y2="707.004"><stop offset="0" stop-color="#ffb873"/><stop offset="1" stop-color="#ffb873"/></linearGradient><linearGradient id="n" gradientUnits="userSpaceOnUse" x1="640.777" x2="472.764" y1="743.41" y2="743.41"><stop offset="0" stop-color="#ffbf85"/><stop offset="1" stop-color="#ffbf85"/></linearGradient><linearGradient id="o" gradientUnits="userSpaceOnUse" x1="472.764" x2="401.38" y1="812.452" y2="812.452"><stop offset="0" stop-color="#ffbf85"/><stop offset=".5" stop-color="#ffae4c"/><stop offset="1" stop-color="#e48002"/></linearGradient><linearGradient id="p" gradientUnits="userSpaceOnUse" x1="735.391" x2="691.314" y1="671.21" y2="671.21"><stop offset="0" stop-color="#1a88a2"/><stop offset=".5" stop-color="#187891"/><stop offset="1" stop-color="#15687f"/></linearGradient><linearGradient id="q" gradientUnits="userSpaceOnUse" x1="691.314" x2="518.718" y1="758.443" y2="758.443"><stop offset="0" stop-color="#67c8e6"/><stop offset="1" stop-color="#67c8e6"/></linearGradient><linearGradient id="r" gradientUnits="userSpaceOnUse" x1="735.391" x2="644.652" y1="793.573" y2="793.573"><stop offset="0" stop-color="#3abedf"/><stop offset="1" stop-color="#3abedf"/></linearGradient><linearGradient id="s" gradientUnits="userSpaceOnUse" x1="644.652" x2="518.718" y1="880.806" y2="880.806"><stop offset="0" stop-color="#2f80ed"/><stop offset=".5" stop-color="#0b68e5"/><stop offset="1" stop-color="#1a79f8"/></linearGradient><linearGradient id="t" gradientUnits="userSpaceOnUse" x1="840.869" x2="804.067" y1="314.093" y2="314.093"><stop offset="0" stop-color="#7661ff"/><stop offset="1" stop-color="#7661ff"/></linearGradient><linearGradient id="u" gradientUnits="userSpaceOnUse" x1="804" x2="784" y1="431.8" y2="431.8"><stop offset="0" stop-color="#543bff"/><stop offset=".5" stop-color="#5a43ff"/><stop offset="1" stop-color="#5f4aff"/></linearGradient><linearGradient id="v" gradientUnits="userSpaceOnUse" x1="866.15" x2="804.415" y1="439.918" y2="439.918"><stop offset=".0223893" stop-color="#58cec6"/><stop offset="1" stop-color="#59ddd5"/></linearGradient><linearGradient id="w" gradientUnits="userSpaceOnUse" x1="913.958" x2="866.15" y1="466.664" y2="466.664"><stop offset="0" stop-color="#4ab9b1"/><stop offset="1" stop-color="#58cec6"/></linearGradient><linearGradient id="x" gradientUnits="userSpaceOnUse" x1="939.672" x2="913.958" y1="509.089" y2="509.089"><stop offset="0" stop-color="#59b6b1"/><stop offset=".95" stop-color="#4ab9b1"/></linearGradient><linearGradient id="y" gradientUnits="userSpaceOnUse" x1="1236.35" x2="1225.47" y1="598.396" y2="598.396"><stop offset="0" stop-color="#5dc3bc"/><stop offset=".5" stop-color="#5cc2bb"/><stop offset="1" stop-color="#5dc3bc"/></linearGradient><linearGradient id="z" gradientUnits="userSpaceOnUse" x1="1225.47" x2="1147.97" y1="707.282" y2="707.282"><stop offset="0" stop-color="#5dc3bc"/><stop offset=".5" stop-color="#89f0ec"/><stop offset="1" stop-color="#d1f9f6"/></linearGradient><linearGradient id="A" gradientUnits="userSpaceOnUse" x1="1147.98" x2="1008.42" y1="826.455" y2="826.455"><stop offset="0" stop-color="#d1f9f6"/><stop offset=".5" stop-color="#8febe5"/><stop offset="1" stop-color="#6ee4dd"/></linearGradient><linearGradient id="B" gradientUnits="userSpaceOnUse" x1="1008.13" x2="830.348" y1="900.469" y2="900.469"><stop offset="0" stop-color="#6ee4dd"/><stop offset=".5" stop-color="#62dad2"/><stop offset="1" stop-color="#72d0c8"/></linearGradient><linearGradient id="C" gradientUnits="userSpaceOnUse" x1="830.643" x2="645" y1="915.916" y2="915.916"><stop offset="0" stop-color="#72d0c8"/><stop offset=".5" stop-color="#61c0ba"/><stop offset="1" stop-color="#55b1ab"/></linearGradient><path d="m297.298 507.914c19.218-81.49 72.972-155.007 152-207.887s178.382-81.812 280.947-81.812v115.863 115.862c-35.898 0-70.672 10.127-98.332 28.635-27.659 18.508-46.473 44.239-53.199 72.76z" fill="#ffd647"/><path d="m730.245 173c-102.565 0-201.919 28.932-280.947 81.812v45.216c79.028-52.88 178.382-81.812 280.947-81.812z" fill="url(#a)"/><path d="m449.298 254.812c-79.028 52.88-132.782 126.397-152 207.887v45.215c19.218-81.489 72.972-155.006 152-207.886z" fill="url(#b)"/><path d="m631.914 433.359c27.659-18.508 62.433-28.634 98.331-28.634v45.216c-35.898 0-70.672 10.126-98.331 28.634z" fill="url(#c)"/><path d="m579 505.76c6.726-28.521 25.54-54.252 53.2-72.76v45.216c-27.66 18.508-46.474 44.239-53.2 72.76z" fill="url(#d)"/><path d="m297.298 462.698 281.416 43.421v45.216l-281.416-43.421z" fill="url(#e)"/><path d="m296.811 462.699c19.23-81.49 73.013-155.007 152.085-207.887s178.482-81.812 281.104-81.812v231.725c-35.918 0-70.711 10.126-98.386 28.634-27.676 18.508-46.5 44.239-53.23 72.761z" fill="#ffd647"/><path d="m401.38 808.64c-44.35-41.771-76.608-91.411-94.304-145.124-10.369-31.471-15.578-63.852-15.586-96.275-.006-22.915 2.586-45.85 7.789-68.501l280.778 44.475c-1.817 7.909-2.724 15.918-2.726 23.92-.003 11.367 1.82 22.719 5.455 33.751 6.194 18.8 17.484 36.174 33.006 50.794z" fill="#537ff1"/><path d="m580.057 496.902-280.778-44.474v46.312l280.778 44.475z" fill="url(#f)"/><path d="m299.279 452.428c-5.203 22.65-7.795 45.586-7.789 68.5v46.155c.006-22.862 2.598-45.744 7.789-68.343z" fill="url(#g)"/><path d="m577.331 520.823c.002-8.002.909-16.011 2.726-23.921v46.313c-1.817 7.91-2.724 15.919-2.726 23.921z" fill="url(#h)"/><path d="m577.331 520.876c0-.018 0-.036 0-.054v.054c.002 11.348 1.826 22.682 5.455 33.697v46.313c-3.635-11.033-5.458-22.385-5.455-33.751z" fill="#f77c47"/><path d="m577.331 520.822v.054z" fill="#f77c47"/><path d="m291.49 520.928c.008 32.423 5.217 64.803 15.586 96.275v46.312c-10.369-31.471-15.578-63.852-15.586-96.275z" fill="url(#i)"/><path d="m615.792 605.367c-15.523-14.62-26.813-31.994-33.007-50.794v46.313c6.194 18.799 17.484 36.174 33.007 50.794z" fill="#f99a2a"/><path d="m401.38 762.328 214.412-156.961v46.313l-214.412 156.961z" fill="url(#j)"/><path d="m307.076 617.203c17.697 53.713 49.954 103.354 94.304 145.125v46.313c-44.35-41.772-76.607-91.412-94.304-145.125z" fill="url(#k)"/><path d="m400.951 762.379c-44.375-41.754-76.65-91.374-94.356-145.065-17.707-53.691-20.375-110.03-7.801-164.708l280.934 44.456c-4.401 19.137-3.467 38.856 2.73 57.648s17.494 36.159 33.025 50.773z" fill="#f99a2a"/><path d="m472.764 862.575c-26.106-15.749-50.045-33.836-71.384-53.935l214.412-156.96c7.469 7.034 15.848 13.365 24.984 18.877z" fill="#ffae4c"/><path d="m640.776 624.244c-9.137-5.512-17.515-11.842-24.984-18.877v46.313c7.469 7.034 15.847 13.365 24.984 18.877z" fill="url(#l)"/><path d="m615.792 605.367-214.412 156.961v46.313l214.412-156.961z" fill="url(#m)"/><path d="m472.764 816.262 168.013-192.018v46.313l-168.013 192.018z" fill="url(#n)"/><path d="m401.38 762.328c21.339 20.099 45.278 38.186 71.384 53.935v46.312c-26.106-15.749-50.045-33.836-71.384-53.934z" fill="url(#o)"/><path d="m472.375 816.291c-26.121-15.742-50.073-33.822-71.424-53.912l214.532-156.896c7.473 7.031 15.856 13.359 24.998 18.869z" fill="#ffae4c"/><path d="m644.652 930.066c-45.085-11.882-87.583-29.445-125.934-52.045l172.596-192.683c13.423 7.91 28.297 14.058 44.077 18.216z" fill="#3cc3df"/><path d="m735.391 657.081c-15.78-4.159-30.654-10.306-44.077-18.216v46.473c13.423 7.91 28.297 14.057 44.077 18.216z" fill="url(#p)"/><path d="m691.314 638.865-172.596 192.683v46.473l172.596-192.683z" fill="url(#q)"/><path d="m644.652 883.593 90.739-226.512v46.473l-90.739 226.512z" fill="url(#r)"/><path d="m518.718 831.547c38.351 22.6 80.849 40.163 125.934 52.045v46.473c-45.085-11.882-87.583-29.445-125.934-52.045z" fill="url(#s)"/><path d="m644.979 884.062c-45.06-11.884-87.534-29.452-125.864-52.057l172.5-192.728c13.416 7.912 28.282 14.06 44.053 18.22z" fill="#2f80ed"/><path d="m784.25 335.353c0-59.469 0-118.937 0-118.937 18.929 0 37.839.963 56.619 2.885l-36.369 235.499c-6.573-.673-13.875-1-20.5-1 0 0 .25-58.979.25-118.447z" fill="#8979ff"/><path d="m804.067 408.884 36.802-235.998v46.416l-36.369 235.498z" fill="url(#t)"/><path d="m784 408.3c6.686 0 13.866.033 20.5.7v45.8c-6.634-.667-13.814-1-20.5-1z" fill="url(#u)"/><path d="m784.5 170c18.919 0 37.819.965 56.588 2.89l-36.782 236.346c-6.57-.673-13.184-1.011-19.806-1.011z" fill="#5e69ff"/><path d="m804.5 408c21.845 2.238 42.787 8.153 61.65 17.364v46.473c-18.863-9.212-39.89-15.126-61.735-17.364v-45.473z" fill="url(#v)"/><path d="m866.15 425.364c18.864 9.211 35.147 21.517 47.808 36.128v46.473c-12.661-14.611-28.944-26.917-47.808-36.128z" fill="url(#w)"/><path d="m913.958 461.491c12.66 14.611 21.595 31.112 25.89 48.628l-.176 46.567c-4.295-17.516-13.054-34.111-25.714-48.722z" fill="url(#x)"/><path d="m939.672 556.686.176-46.567c.825 3.365 1.886 6.613 2.5 10 .895 4.938 1.001 10.026 1 15l-.638 46.614c.003-8.387-1.009-16.776-3.038-25.047z" fill="#55b1ab"/><path d="m942.71 535.261c-.002 9.375-1.272 18.748-3.808 27.947v46.473c2.536-9.199 3.806-18.572 3.808-27.947z" fill="#55b1ab"/><path d="m1236.35 535.155v.156z" fill="url(#y)"/><path d="m1236.35 535.155v.156 46.317c.01 26.841-3.62 53.673-10.88 80.009v-46.473c7.24-26.285 10.87-53.064 10.88-79.853z" fill="url(#y)"/><path d="m1147.97 752.927c37.38-41.044 63.78-87.967 77.5-137.763v46.472c-13.72 49.797-40.12 96.72-77.5 137.764z" fill="url(#z)"/><path d="m1007 854.5c54.64-25.282 103.6-60.53 140.98-101.574v46.473c-37.38 41.044-87.34 76.819-141.98 102.101z" fill="url(#A)"/><path d="m830.348 900.346c62.582-5.201 123.134-20.946 177.782-46.227v46.473c-54.648 25.281-115.2 41.026-177.782 46.227z" fill="url(#B)"/><path d="m645 883.713c59.83 15.768 123.061 21.226 185.643 16.025v46.473c-62.582 5.201-125.813-.257-185.643-16.025z" fill="url(#C)"/><path d="m841.088 172.89c62.379 6.397 122.424 23.299 176.292 49.623 53.86 26.325 100.36 61.491 136.51 103.248 36.16 41.756 61.17 89.181 73.43 139.238 12.27 50.057 11.52 101.642-2.19 151.451-13.72 49.808-40.1 96.742-77.45 137.795-37.36 41.054-84.87 75.321-139.48 100.608-54.615 25.288-115.134 41.036-177.681 46.238s-125.743-.257-185.54-16.029l90.689-226.565c20.929 5.52 43.047 7.431 64.939 5.61 21.891-1.821 43.073-7.333 62.188-16.183 19.115-8.851 35.742-20.844 48.816-35.213 13.075-14.369 22.308-30.796 27.108-48.229 4.801-17.433 5.063-35.487.77-53.007-4.294-17.52-13.047-34.119-25.701-48.734-12.653-14.615-28.928-26.923-47.781-36.136-18.853-9.214-39.869-15.13-61.701-17.369z" fill="#55b1ab"/><g fill="#fff"><path d="m1209.46 126.152v3.288h-6.87v3.552h5.14v3.192h-5.14v6.816h-4.1v-16.848zm8.25 17.04c-1.31 0-2.5-.28-3.55-.84-1.04-.56-1.87-1.36-2.47-2.4s-.89-2.256-.89-3.648c0-1.376.3-2.584.91-3.624.61-1.056 1.44-1.864 2.5-2.424 1.05-.56 2.24-.84 3.55-.84s2.49.28 3.55.84 1.89 1.368 2.5 2.424c.6 1.04.91 2.248.91 3.624s-.31 2.592-.94 3.648c-.61 1.04-1.45 1.84-2.52 2.4-1.05.56-2.24.84-3.55.84zm0-3.552c.78 0 1.45-.288 1.99-.864.56-.576.84-1.4.84-2.472s-.27-1.896-.81-2.472c-.53-.576-1.19-.864-1.97-.864-.8 0-1.47.288-1.99.864-.53.56-.8 1.384-.8 2.472 0 1.072.26 1.896.77 2.472.53.576 1.19.864 1.97.864zm22.41-10.032v13.392h-4.11v-1.824c-.41.592-.98 1.072-1.7 1.44-.7.352-1.49.528-2.35.528-1.03 0-1.93-.224-2.71-.672-.79-.464-1.4-1.128-1.83-1.992s-.65-1.88-.65-3.048v-7.824h4.08v7.272c0 .896.24 1.592.7 2.088s1.09.744 1.87.744c.8 0 1.43-.248 1.9-.744.46-.496.69-1.192.69-2.088v-7.272zm11.11-.144c1.56 0 2.81.512 3.74 1.536.94 1.008 1.42 2.4 1.42 4.176v7.824h-4.08v-7.272c0-.896-.24-1.592-.7-2.088s-1.09-.744-1.87-.744c-.79 0-1.41.248-1.87.744-.47.496-.7 1.192-.7 2.088v7.272h-4.1v-13.392h4.1v1.776c.42-.592.98-1.056 1.68-1.392.7-.352 1.5-.528 2.38-.528zm7.19 6.816c0-1.376.26-2.584.77-3.624.53-1.04 1.24-1.84 2.14-2.4.89-.56 1.89-.84 3-.84.88 0 1.68.184 2.4.552.73.368 1.31.864 1.72 1.488v-6.216h4.11v17.76h-4.11v-1.92c-.38.64-.93 1.152-1.65 1.536-.71.384-1.53.576-2.47.576-1.11 0-2.11-.28-3-.84-.9-.576-1.61-1.384-2.14-2.424-.51-1.056-.77-2.272-.77-3.648zm10.03.024c0-1.024-.28-1.832-.86-2.424-.56-.592-1.25-.888-2.06-.888-.82 0-1.52.296-2.09.888-.56.576-.84 1.376-.84 2.4s.28 1.84.84 2.448c.57.592 1.27.888 2.09.888.81 0 1.5-.296 2.06-.888.58-.592.86-1.4.86-2.424zm6.26-.024c0-1.376.26-2.584.77-3.624.53-1.04 1.24-1.84 2.14-2.4.89-.56 1.89-.84 3-.84.94 0 1.76.192 2.47.576.72.384 1.27.888 1.65 1.512v-1.896h4.11v13.392h-4.11v-1.896c-.4.624-.96 1.128-1.68 1.512-.7.384-1.52.576-2.47.576-1.09 0-2.08-.28-2.97-.84-.9-.576-1.61-1.384-2.14-2.424-.51-1.056-.77-2.272-.77-3.648zm10.03.024c0-1.024-.28-1.832-.86-2.424-.56-.592-1.25-.888-2.06-.888-.82 0-1.52.296-2.09.888-.56.576-.84 1.376-.84 2.4s.28 1.84.84 2.448c.57.592 1.27.888 2.09.888.81 0 1.5-.296 2.06-.888.58-.592.86-1.4.86-2.424zm14.54 3.216v3.48h-2.09c-1.49 0-2.65-.36-3.48-1.08-.83-.736-1.25-1.928-1.25-3.576v-5.328h-1.63v-3.408h1.63v-3.264h4.11v3.264h2.69v3.408h-2.69v5.376c0 .4.09.688.29.864.19.176.51.264.96.264zm4.35-11.304c-.72 0-1.31-.208-1.78-.624-.44-.432-.67-.96-.67-1.584 0-.64.23-1.168.67-1.584.47-.432 1.06-.648 1.78-.648.7 0 1.28.216 1.73.648.46.416.69.944.69 1.584 0 .624-.23 1.152-.69 1.584-.45.416-1.03.624-1.73.624zm2.04 1.392v13.392h-4.1v-13.392zm9.07 13.584c-1.31 0-2.5-.28-3.55-.84-1.04-.56-1.87-1.36-2.47-2.4s-.89-2.256-.89-3.648c0-1.376.3-2.584.91-3.624.61-1.056 1.44-1.864 2.5-2.424 1.05-.56 2.24-.84 3.55-.84s2.49.28 3.55.84 1.89 1.368 2.5 2.424c.6 1.04.91 2.248.91 3.624s-.31 2.592-.94 3.648c-.61 1.04-1.45 1.84-2.52 2.4-1.05.56-2.24.84-3.55.84zm0-3.552c.78 0 1.45-.288 1.99-.864.56-.576.84-1.4.84-2.472s-.27-1.896-.81-2.472c-.53-.576-1.19-.864-1.97-.864-.8 0-1.47.288-1.99.864-.53.56-.8 1.384-.8 2.472 0 1.072.26 1.896.77 2.472.53.576 1.19.864 1.97.864zm17.35-10.176c1.56 0 2.81.512 3.74 1.536.94 1.008 1.42 2.4 1.42 4.176v7.824h-4.08v-7.272c0-.896-.24-1.592-.7-2.088s-1.09-.744-1.87-.744c-.79 0-1.41.248-1.87.744-.47.496-.7 1.192-.7 2.088v7.272h-4.1v-13.392h4.1v1.776c.42-.592.98-1.056 1.68-1.392.7-.352 1.5-.528 2.38-.528z"/><path d="m1280.34 172.712c.54-.432.79-.632.74-.6 1.57-1.296 2.8-2.36 3.7-3.192.91-.832 1.68-1.704 2.3-2.616s.94-1.8.94-2.664c0-.656-.16-1.168-.46-1.536s-.76-.552-1.37-.552-1.09.232-1.44.696c-.33.448-.5 1.088-.5 1.92h-3.96c.03-1.36.32-2.496.86-3.408.56-.912 1.29-1.584 2.19-2.016.91-.432 1.92-.648 3.02-.648 1.9 0 3.34.488 4.3 1.464.97.976 1.46 2.248 1.46 3.816 0 1.712-.58 3.304-1.75 4.776-1.17 1.456-2.66 2.88-4.47 4.272h6.48v3.336h-12.04zm16.18 3.48c-.72 0-1.31-.208-1.78-.624-.45-.432-.67-.96-.67-1.584 0-.64.22-1.176.67-1.608.47-.432 1.06-.648 1.78-.648.7 0 1.28.216 1.73.648.46.432.69.968.69 1.608 0 .624-.23 1.152-.69 1.584-.45.416-1.03.624-1.73.624zm4.44-9.192c0-2.752.53-4.92 1.59-6.504 1.07-1.584 2.79-2.376 5.16-2.376s4.08.792 5.13 2.376c1.08 1.584 1.61 3.752 1.61 6.504 0 2.784-.53 4.968-1.61 6.552-1.05 1.584-2.76 2.376-5.13 2.376s-4.09-.792-5.16-2.376c-1.06-1.584-1.59-3.768-1.59-6.552zm9.46 0c0-1.616-.18-2.856-.53-3.72-.35-.88-1.08-1.32-2.18-1.32-1.11 0-1.83.44-2.19 1.32-.35.864-.52 2.104-.52 3.72 0 1.088.06 1.992.19 2.712.13.704.38 1.28.77 1.728.4.432.98.648 1.75.648s1.34-.216 1.73-.648c.4-.448.66-1.024.79-1.728.13-.72.19-1.624.19-2.712zm5.86-4.104c0-1.296.37-2.296 1.11-3 .75-.704 1.72-1.056 2.9-1.056 1.19 0 2.15.352 2.88 1.056.74.704 1.11 1.704 1.11 3s-.37 2.296-1.11 3c-.73.704-1.69 1.056-2.88 1.056-1.18 0-2.15-.352-2.9-1.056-.74-.704-1.11-1.704-1.11-3zm16.3-3.792-9.24 16.896h-3.96l9.24-16.896zm-12.31 2.136c-.77 0-1.15.552-1.15 1.656 0 1.088.38 1.632 1.15 1.632.37 0 .65-.136.86-.408s.31-.68.31-1.224c0-1.104-.39-1.656-1.17-1.656zm7.44 10.968c0-1.296.37-2.296 1.1-3 .74-.704 1.7-1.056 2.88-1.056 1.19 0 2.15.352 2.88 1.056.74.704 1.11 1.704 1.11 3s-.37 2.296-1.11 3c-.73.704-1.69 1.056-2.88 1.056-1.18 0-2.14-.352-2.88-1.056-.73-.704-1.1-1.704-1.1-3zm3.96-1.656c-.37 0-.66.136-.87.408-.19.272-.28.688-.28 1.248 0 1.088.38 1.632 1.15 1.632.37 0 .65-.136.86-.408s.31-.68.31-1.224-.1-.952-.31-1.224c-.21-.288-.49-.432-.86-.432z"/><path d="m808 187.482c0 4.419 3.582 8 8 8s8-3.581 8-8c0-4.418-3.582-8-8-8s-8 3.582-8 8zm10.484-35.793v-1.5h-1.4l-.097 1.397zm-.988 35.897 2.484-35.793-2.993-.207-2.483 35.792zm.988-34.397h520.516v-3h-520.516z"/><path d="m1294.46 592.168c-1.59 0-3.04-.368-4.37-1.104-1.31-.736-2.36-1.76-3.15-3.072-.76-1.328-1.15-2.816-1.15-4.464s.39-3.128 1.15-4.44c.79-1.312 1.84-2.336 3.15-3.072 1.33-.736 2.78-1.104 4.37-1.104 1.58 0 3.03.368 4.34 1.104 1.33.736 2.37 1.76 3.12 3.072.77 1.312 1.15 2.792 1.15 4.44s-.38 3.136-1.15 4.464c-.77 1.312-1.81 2.336-3.12 3.072s-2.76 1.104-4.34 1.104zm0-3.744c1.34 0 2.41-.448 3.21-1.344.82-.896 1.23-2.08 1.23-3.552 0-1.488-.41-2.672-1.23-3.552-.8-.896-1.87-1.344-3.21-1.344-1.36 0-2.45.44-3.27 1.32-.8.88-1.2 2.072-1.2 3.576 0 1.488.4 2.68 1.2 3.576.82.88 1.91 1.32 3.27 1.32zm19.05-9.96c1.57 0 2.82.512 3.75 1.536.94 1.008 1.41 2.4 1.41 4.176v7.824h-4.08v-7.272c0-.896-.23-1.592-.69-2.088-.47-.496-1.09-.744-1.87-.744-.79 0-1.41.248-1.88.744-.46.496-.69 1.192-.69 2.088v7.272h-4.11v-13.392h4.11v1.776c.41-.592.97-1.056 1.68-1.392.7-.352 1.49-.528 2.37-.528zm18.34 3.408v3.408h-10.56v-3.408zm2.9 1.68c0-1.664.36-3.144 1.08-4.44.72-1.312 1.72-2.328 3-3.048 1.3-.736 2.76-1.104 4.39-1.104 2 0 3.72.528 5.14 1.584s2.38 2.496 2.86 4.32h-4.52c-.33-.704-.81-1.24-1.44-1.608-.6-.368-1.3-.552-2.08-.552-1.27 0-2.29.44-3.08 1.32-.78.88-1.17 2.056-1.17 3.528s.39 2.648 1.17 3.528c.79.88 1.81 1.32 3.08 1.32.78 0 1.48-.184 2.08-.552.63-.368 1.11-.904 1.44-1.608h4.52c-.48 1.824-1.44 3.264-2.86 4.32-1.42 1.04-3.14 1.56-5.14 1.56-1.63 0-3.09-.36-4.39-1.08-1.28-.736-2.28-1.752-3-3.048s-1.08-2.776-1.08-4.44zm27.21-5.088c1.54 0 2.77.512 3.7 1.536.93 1.008 1.39 2.4 1.39 4.176v7.824h-4.08v-7.272c0-.896-.23-1.592-.7-2.088-.46-.496-1.08-.744-1.87-.744-.78 0-1.41.248-1.87.744s-.7 1.192-.7 2.088v7.272h-4.1v-17.76h4.1v6.168c.42-.592.99-1.064 1.71-1.416s1.53-.528 2.42-.528zm7.13 6.816c0-1.376.25-2.584.76-3.624.53-1.04 1.24-1.84 2.14-2.4s1.9-.84 3-.84c.94 0 1.77.192 2.47.576.72.384 1.27.888 1.66 1.512v-1.896h4.1v13.392h-4.1v-1.896c-.4.624-.96 1.128-1.68 1.512-.71.384-1.53.576-2.47.576-1.09 0-2.08-.28-2.98-.84-.9-.576-1.61-1.384-2.14-2.424-.51-1.056-.76-2.272-.76-3.648zm10.03.024c0-1.024-.29-1.832-.87-2.424-.56-.592-1.24-.888-2.06-.888s-1.51.296-2.09.888c-.56.576-.84 1.376-.84 2.4s.28 1.84.84 2.448c.58.592 1.27.888 2.09.888s1.5-.296 2.06-.888c.58-.592.87-1.4.87-2.424zm9.13-8.088c-.72 0-1.31-.208-1.77-.624-.45-.432-.67-.96-.67-1.584 0-.64.22-1.168.67-1.584.46-.432 1.05-.648 1.77-.648.71 0 1.28.216 1.73.648.47.416.7.944.7 1.584 0 .624-.23 1.152-.7 1.584-.45.416-1.02.624-1.73.624zm2.04 1.392v13.392h-4.1v-13.392zm11.14-.144c1.57 0 2.81.512 3.74 1.536.95 1.008 1.42 2.4 1.42 4.176v7.824h-4.08v-7.272c0-.896-.23-1.592-.7-2.088-.46-.496-1.09-.744-1.87-.744s-1.41.248-1.87.744c-.47.496-.7 1.192-.7 2.088v7.272h-4.1v-13.392h4.1v1.776c.42-.592.98-1.056 1.68-1.392.71-.352 1.5-.528 2.38-.528zm25.22-3.312v3.288h-4.47v13.56h-4.1v-13.56h-4.47v-3.288zm6.16 5.688c.48-.736 1.08-1.312 1.8-1.728.72-.432 1.52-.648 2.4-.648v4.344h-1.13c-1.02 0-1.79.224-2.3.672-.51.432-.77 1.2-.77 2.304v6.216h-4.1v-13.392h4.1zm18.79 4.248c0 .384-.03.784-.08 1.2h-9.28c.06.832.32 1.472.79 1.92.48.432 1.06.648 1.75.648 1.02 0 1.74-.432 2.14-1.296h4.36c-.22.88-.63 1.672-1.22 2.376-.58.704-1.3 1.256-2.18 1.656s-1.87.6-2.96.6c-1.31 0-2.48-.28-3.5-.84s-1.82-1.36-2.4-2.4-.86-2.256-.86-3.648.28-2.608.84-3.648c.57-1.04 1.37-1.84 2.4-2.4 1.02-.56 2.2-.84 3.52-.84 1.3 0 2.45.272 3.46.816s1.79 1.32 2.35 2.328c.58 1.008.87 2.184.87 3.528zm-4.2-1.08c0-.704-.24-1.264-.72-1.68s-1.08-.624-1.8-.624c-.69 0-1.28.2-1.76.6-.46.4-.75.968-.86 1.704zm5.54 1.272c0-1.376.26-2.584.77-3.624.53-1.04 1.24-1.84 2.14-2.4.89-.56 1.89-.84 3-.84.94 0 1.77.192 2.47.576.72.384 1.27.888 1.66 1.512v-1.896h4.1v13.392h-4.1v-1.896c-.4.624-.96 1.128-1.68 1.512-.71.384-1.53.576-2.48.576-1.08 0-2.08-.28-2.97-.84-.9-.576-1.61-1.384-2.14-2.424-.51-1.056-.77-2.272-.77-3.648zm10.04.024c0-1.024-.29-1.832-.87-2.424-.56-.592-1.25-.888-2.06-.888-.82 0-1.51.296-2.09.888-.56.576-.84 1.376-.84 2.4s.28 1.84.84 2.448c.58.592 1.27.888 2.09.888.81 0 1.5-.296 2.06-.888.58-.592.87-1.4.87-2.424zm12.52 6.888c-1.17 0-2.21-.2-3.12-.6s-1.63-.944-2.16-1.632c-.53-.704-.83-1.488-.89-2.352h4.06c.04.464.26.84.64 1.128.39.288.86.432 1.42.432.51 0 .9-.096 1.18-.288.28-.208.43-.472.43-.792 0-.384-.2-.664-.6-.84-.4-.192-1.05-.4-1.95-.624-.96-.224-1.76-.456-2.4-.696-.64-.256-1.19-.648-1.65-1.176-.47-.544-.7-1.272-.7-2.184 0-.768.21-1.464.63-2.088.43-.64 1.05-1.144 1.87-1.512.83-.368 1.81-.552 2.95-.552 1.68 0 3 .416 3.96 1.248.98.832 1.54 1.936 1.68 3.312h-3.79c-.07-.464-.27-.832-.63-1.104-.33-.272-.78-.408-1.34-.408-.48 0-.85.096-1.1.288-.26.176-.39.424-.39.744 0 .384.2.672.6.864.42.192 1.06.384 1.92.576.99.256 1.8.512 2.43.768.62.24 1.16.64 1.63 1.2.48.544.73 1.28.74 2.208 0 .784-.22 1.488-.67 2.112-.43.608-1.06 1.088-1.9 1.44-.81.352-1.76.528-2.85.528zm21.16-13.584v13.392h-4.11v-1.824c-.41.592-.98 1.072-1.7 1.44-.71.352-1.49.528-2.35.528-1.03 0-1.93-.224-2.72-.672-.78-.464-1.39-1.128-1.82-1.992s-.65-1.88-.65-3.048v-7.824h4.08v7.272c0 .896.23 1.592.7 2.088.46.496 1.09.744 1.87.744.8 0 1.43-.248 1.9-.744.46-.496.69-1.192.69-2.088v-7.272zm7.05 2.232c.48-.736 1.08-1.312 1.8-1.728.72-.432 1.52-.648 2.4-.648v4.344h-1.13c-1.02 0-1.79.224-2.3.672-.52.432-.77 1.2-.77 2.304v6.216h-4.11v-13.392h4.11zm19.84-2.232-8.4 19.752h-4.42l3.08-6.816-5.45-12.936h4.58l3.1 8.376 3.07-8.376z"/><path d="m1463.42 612.056h-7.49v3.312c.32-.352.77-.64 1.34-.864.58-.224 1.2-.336 1.87-.336 1.2 0 2.2.272 2.98.816.8.544 1.38 1.248 1.75 2.112s.55 1.8.55 2.808c0 1.872-.52 3.36-1.58 4.464-1.06 1.088-2.54 1.632-4.46 1.632-1.28 0-2.4-.216-3.34-.648-.94-.448-1.67-1.064-2.18-1.848-.52-.784-.8-1.688-.84-2.712h4c.1.496.33.912.7 1.248.37.32.87.48 1.51.48.75 0 1.31-.24 1.68-.72s.55-1.12.55-1.92c0-.784-.19-1.384-.57-1.8-.39-.416-.95-.624-1.68-.624-.55 0-.99.136-1.35.408-.35.256-.58.6-.69 1.032h-3.96v-10.44h11.21zm3.41 1.368c.07-1.712.63-3.032 1.68-3.96 1.06-.928 2.49-1.392 4.3-1.392 1.2 0 2.22.208 3.07.624.86.416 1.51.984 1.94 1.704.45.72.68 1.528.68 2.424 0 1.056-.27 1.92-.8 2.592-.52.656-1.14 1.104-1.84 1.344v.096c.91.304 1.63.808 2.16 1.512.52.704.79 1.608.79 2.712 0 .992-.23 1.872-.7 2.64-.45.752-1.11 1.344-1.99 1.776-.86.432-1.9.648-3.1.648-1.92 0-3.45-.472-4.6-1.416-1.14-.944-1.74-2.368-1.8-4.272h3.98c.02.704.22 1.264.6 1.68.38.4.94.6 1.68.6.62 0 1.1-.176 1.44-.528.35-.368.53-.848.53-1.44 0-.768-.25-1.32-.75-1.656-.48-.352-1.25-.528-2.32-.528h-.77v-3.336h.77c.81 0 1.47-.136 1.96-.408.52-.288.77-.792.77-1.512 0-.576-.16-1.024-.48-1.344s-.76-.48-1.32-.48c-.61 0-1.06.184-1.37.552-.28.368-.45.824-.5 1.368zm16.72 12.768c-.72 0-1.31-.208-1.78-.624-.45-.432-.67-.96-.67-1.584 0-.64.22-1.176.67-1.608.47-.432 1.06-.648 1.78-.648.7 0 1.28.216 1.73.648.46.432.69.968.69 1.608 0 .624-.23 1.152-.69 1.584-.45.416-1.03.624-1.73.624zm4.44-9.192c0-2.752.53-4.92 1.59-6.504 1.07-1.584 2.79-2.376 5.16-2.376s4.08.792 5.13 2.376c1.08 1.584 1.61 3.752 1.61 6.504 0 2.784-.53 4.968-1.61 6.552-1.05 1.584-2.76 2.376-5.13 2.376s-4.09-.792-5.16-2.376c-1.06-1.584-1.59-3.768-1.59-6.552zm9.46 0c0-1.616-.18-2.856-.53-3.72-.35-.88-1.08-1.32-2.18-1.32-1.11 0-1.83.44-2.19 1.32-.35.864-.52 2.104-.52 3.72 0 1.088.06 1.992.19 2.712.13.704.38 1.28.77 1.728.4.432.98.648 1.75.648s1.34-.216 1.73-.648c.4-.448.66-1.024.79-1.728.13-.72.19-1.624.19-2.712zm5.86-4.104c0-1.296.37-2.296 1.11-3 .75-.704 1.72-1.056 2.9-1.056 1.19 0 2.15.352 2.88 1.056.74.704 1.11 1.704 1.11 3s-.37 2.296-1.11 3c-.73.704-1.69 1.056-2.88 1.056-1.18 0-2.15-.352-2.9-1.056-.74-.704-1.11-1.704-1.11-3zm16.3-3.792-9.24 16.896h-3.96l9.24-16.896zm-12.31 2.136c-.77 0-1.15.552-1.15 1.656 0 1.088.38 1.632 1.15 1.632.37 0 .65-.136.86-.408s.31-.68.31-1.224c0-1.104-.39-1.656-1.17-1.656zm7.44 10.968c0-1.296.37-2.296 1.1-3 .74-.704 1.7-1.056 2.88-1.056 1.19 0 2.15.352 2.88 1.056.74.704 1.11 1.704 1.11 3s-.37 2.296-1.11 3c-.73.704-1.69 1.056-2.88 1.056-1.18 0-2.14-.352-2.88-1.056-.73-.704-1.1-1.704-1.1-3zm3.96-1.656c-.37 0-.66.136-.87.408-.19.272-.28.688-.28 1.248 0 1.088.38 1.632 1.15 1.632.37 0 .65-.136.86-.408s.31-.68.31-1.224-.1-.952-.31-1.224c-.21-.288-.49-.432-.86-.432z"/><path d="m1161 593c0 4.418 3.58 8 8 8s8-3.582 8-8-3.58-8-8-8-8 3.582-8 8zm87.31 8-.15 1.492.07.008h.08zm-79.46-6.508 79.31 8 .3-2.984-79.31-8zm79.46 8.008h275.69v-3h-275.69z"/><path d="m310.584 876.168c-1.232 0-2.336-.2-3.312-.6s-1.76-.992-2.352-1.776c-.576-.784-.88-1.728-.912-2.832h4.368c.064.624.28 1.104.648 1.44.368.32.848.48 1.44.48.608 0 1.088-.136 1.44-.408.352-.288.528-.68.528-1.176 0-.416-.144-.76-.432-1.032-.272-.272-.616-.496-1.032-.672-.4-.176-.976-.376-1.728-.6-1.088-.336-1.976-.672-2.664-1.008s-1.28-.832-1.776-1.488-.744-1.512-.744-2.568c0-1.568.568-2.792 1.704-3.672 1.136-.896 2.616-1.344 4.44-1.344 1.856 0 3.352.448 4.488 1.344 1.136.88 1.744 2.112 1.824 3.696h-4.44c-.032-.544-.232-.968-.6-1.272-.368-.32-.84-.48-1.416-.48-.496 0-.896.136-1.2.408-.304.256-.456.632-.456 1.128 0 .544.256.968.768 1.272s1.312.632 2.4.984c1.088.368 1.968.72 2.64 1.056.688.336 1.28.824 1.776 1.464s.744 1.464.744 2.472c0 .96-.248 1.832-.744 2.616-.48.784-1.184 1.408-2.112 1.872s-2.024.696-3.288.696zm16.134-3.648v3.48h-2.088c-1.488 0-2.648-.36-3.48-1.08-.832-.736-1.248-1.928-1.248-3.576v-5.328h-1.632v-3.408h1.632v-3.264h4.104v3.264h2.688v3.408h-2.688v5.376c0 .4.096.688.288.864s.512.264.96.264zm6.39-7.68c.48-.736 1.08-1.312 1.8-1.728.72-.432 1.52-.648 2.4-.648v4.344h-1.128c-1.024 0-1.792.224-2.304.672-.512.432-.768 1.2-.768 2.304v6.216h-4.104v-13.392h4.104zm5.345 4.44c0-1.376.256-2.584.768-3.624.528-1.04 1.24-1.84 2.136-2.4s1.896-.84 3-.84c.944 0 1.768.192 2.472.576.72.384 1.272.888 1.656 1.512v-1.896h4.104v13.392h-4.104v-1.896c-.4.624-.96 1.128-1.68 1.512-.704.384-1.528.576-2.472.576-1.088 0-2.08-.28-2.976-.84-.896-.576-1.608-1.384-2.136-2.424-.512-1.056-.768-2.272-.768-3.648zm10.032.024c0-1.024-.288-1.832-.864-2.424-.56-.592-1.248-.888-2.064-.888s-1.512.296-2.088.888c-.56.576-.84 1.376-.84 2.4s.28 1.84.84 2.448c.576.592 1.272.888 2.088.888s1.504-.296 2.064-.888c.576-.592.864-1.4.864-2.424zm14.537 3.216v3.48h-2.088c-1.488 0-2.648-.36-3.48-1.08-.832-.736-1.248-1.928-1.248-3.576v-5.328h-1.632v-3.408h1.632v-3.264h4.104v3.264h2.688v3.408h-2.688v5.376c0 .4.096.688.288.864s.512.264.96.264zm14.91-3.432c0 .384-.024.784-.072 1.2h-9.288c.064.832.328 1.472.792 1.92.48.432 1.064.648 1.752.648 1.024 0 1.736-.432 2.136-1.296h4.368c-.224.88-.632 1.672-1.224 2.376-.576.704-1.304 1.256-2.184 1.656s-1.864.6-2.952.6c-1.312 0-2.48-.28-3.504-.84s-1.824-1.36-2.4-2.4-.864-2.256-.864-3.648.28-2.608.84-3.648c.576-1.04 1.376-1.84 2.4-2.4s2.2-.84 3.528-.84c1.296 0 2.448.272 3.456.816s1.792 1.32 2.352 2.328c.576 1.008.864 2.184.864 3.528zm-4.2-1.08c0-.704-.24-1.264-.72-1.68s-1.08-.624-1.8-.624c-.688 0-1.272.2-1.752.6-.464.4-.752.968-.864 1.704zm11.453-5.592c.944 0 1.768.192 2.472.576.72.384 1.272.888 1.656 1.512v-1.896h4.104v13.368c0 1.232-.248 2.344-.744 3.336-.48 1.008-1.224 1.808-2.232 2.4-.992.592-2.232.888-3.72.888-1.984 0-3.592-.472-4.824-1.416-1.232-.928-1.936-2.192-2.112-3.792h4.056c.128.512.432.912.912 1.2.48.304 1.072.456 1.776.456.848 0 1.52-.248 2.016-.744.512-.48.768-1.256.768-2.328v-1.896c-.4.624-.952 1.136-1.656 1.536-.704.384-1.528.576-2.472.576-1.104 0-2.104-.28-3-.84-.896-.576-1.608-1.384-2.136-2.424-.512-1.056-.768-2.272-.768-3.648s.256-2.584.768-3.624c.528-1.04 1.24-1.84 2.136-2.4s1.896-.84 3-.84zm4.128 6.888c0-1.024-.288-1.832-.864-2.424-.56-.592-1.248-.888-2.064-.888s-1.512.296-2.088.888c-.56.576-.84 1.376-.84 2.4s.28 1.84.84 2.448c.576.592 1.272.888 2.088.888s1.504-.296 2.064-.888c.576-.592.864-1.4.864-2.424zm9.137-8.088c-.72 0-1.312-.208-1.776-.624-.448-.432-.672-.96-.672-1.584 0-.64.224-1.168.672-1.584.464-.432 1.056-.648 1.776-.648.704 0 1.28.216 1.728.648.464.416.696.944.696 1.584 0 .624-.232 1.152-.696 1.584-.448.416-1.024.624-1.728.624zm2.04 1.392v13.392h-4.104v-13.392zm2.159 6.696c0-1.392.28-2.608.84-3.648.576-1.04 1.368-1.84 2.376-2.4 1.024-.56 2.192-.84 3.504-.84 1.68 0 3.08.44 4.2 1.32 1.136.88 1.88 2.12 2.232 3.72h-4.368c-.368-1.024-1.08-1.536-2.136-1.536-.752 0-1.352.296-1.8.888-.448.576-.672 1.408-.672 2.496s.224 1.928.672 2.52c.448.576 1.048.864 1.8.864 1.056 0 1.768-.512 2.136-1.536h4.368c-.352 1.568-1.096 2.8-2.232 3.696s-2.536 1.344-4.2 1.344c-1.312 0-2.48-.28-3.504-.84-1.008-.56-1.8-1.36-2.376-2.4-.56-1.04-.84-2.256-.84-3.648zm33.273-4.728c0 .976-.224 1.872-.672 2.688-.448.8-1.136 1.448-2.064 1.944s-2.08.744-3.456.744h-2.544v6.048h-4.104v-16.848h6.648c1.344 0 2.48.232 3.408.696s1.624 1.104 2.088 1.92.696 1.752.696 2.808zm-6.504 2.112c.784 0 1.368-.184 1.752-.552s.576-.888.576-1.56-.192-1.192-.576-1.56-.968-.552-1.752-.552h-2.232v4.224zm7.824 2.592c0-1.376.256-2.584.768-3.624.528-1.04 1.24-1.84 2.136-2.4s1.896-.84 3-.84c.944 0 1.768.192 2.472.576.72.384 1.272.888 1.656 1.512v-1.896h4.104v13.392h-4.104v-1.896c-.4.624-.96 1.128-1.68 1.512-.704.384-1.528.576-2.472.576-1.088 0-2.08-.28-2.976-.84-.896-.576-1.608-1.384-2.136-2.424-.512-1.056-.768-2.272-.768-3.648zm10.032.024c0-1.024-.288-1.832-.864-2.424-.56-.592-1.248-.888-2.064-.888s-1.512.296-2.088.888c-.56.576-.84 1.376-.84 2.4s.28 1.84.84 2.448c.576.592 1.272.888 2.088.888s1.504-.296 2.064-.888c.576-.592.864-1.4.864-2.424zm11.177-4.464c.48-.736 1.08-1.312 1.8-1.728.72-.432 1.52-.648 2.4-.648v4.344h-1.128c-1.024 0-1.792.224-2.304.672-.512.432-.768 1.2-.768 2.304v6.216h-4.104v-13.392h4.104zm13.626 7.68v3.48h-2.088c-1.488 0-2.648-.36-3.48-1.08-.832-.736-1.248-1.928-1.248-3.576v-5.328h-1.632v-3.408h1.632v-3.264h4.104v3.264h2.688v3.408h-2.688v5.376c0 .4.096.688.288.864s.512.264.96.264zm10.446-10.056c1.568 0 2.816.512 3.744 1.536.944 1.008 1.416 2.4 1.416 4.176v7.824h-4.08v-7.272c0-.896-.232-1.592-.696-2.088s-1.088-.744-1.872-.744-1.408.248-1.872.744-.696 1.192-.696 2.088v7.272h-4.104v-13.392h4.104v1.776c.416-.592.976-1.056 1.68-1.392.704-.352 1.496-.528 2.376-.528zm20.636 6.624c0 .384-.024.784-.072 1.2h-9.288c.064.832.328 1.472.792 1.92.48.432 1.064.648 1.752.648 1.024 0 1.736-.432 2.136-1.296h4.368c-.224.88-.632 1.672-1.224 2.376-.576.704-1.304 1.256-2.184 1.656s-1.864.6-2.952.6c-1.312 0-2.48-.28-3.504-.84s-1.824-1.36-2.4-2.4-.864-2.256-.864-3.648.28-2.608.84-3.648c.576-1.04 1.376-1.84 2.4-2.4s2.2-.84 3.528-.84c1.296 0 2.448.272 3.456.816s1.792 1.32 2.352 2.328c.576 1.008.864 2.184.864 3.528zm-4.2-1.08c0-.704-.24-1.264-.72-1.68s-1.08-.624-1.8-.624c-.688 0-1.272.2-1.752.6-.464.4-.752.968-.864 1.704zm10.469-3.168c.48-.736 1.08-1.312 1.8-1.728.72-.432 1.52-.648 2.4-.648v4.344h-1.128c-1.024 0-1.792.224-2.304.672-.512.432-.768 1.2-.768 2.304v6.216h-4.104v-13.392h4.104zm11.61 11.352c-1.168 0-2.208-.2-3.12-.6s-1.632-.944-2.16-1.632c-.528-.704-.824-1.488-.888-2.352h4.056c.048.464.264.84.648 1.128s.856.432 1.416.432c.512 0 .904-.096 1.176-.288.288-.208.432-.472.432-.792 0-.384-.2-.664-.6-.84-.4-.192-1.048-.4-1.944-.624-.96-.224-1.76-.456-2.4-.696-.64-.256-1.192-.648-1.656-1.176-.464-.544-.696-1.272-.696-2.184 0-.768.208-1.464.624-2.088.432-.64 1.056-1.144 1.872-1.512.832-.368 1.816-.552 2.952-.552 1.68 0 3 .416 3.96 1.248.976.832 1.536 1.936 1.68 3.312h-3.792c-.064-.464-.272-.832-.624-1.104-.336-.272-.784-.408-1.344-.408-.48 0-.848.096-1.104.288-.256.176-.384.424-.384.744 0 .384.2.672.6.864.416.192 1.056.384 1.92.576.992.256 1.8.512 2.424.768.624.24 1.168.64 1.632 1.2.48.544.728 1.28.744 2.208 0 .784-.224 1.488-.672 2.112-.432.608-1.064 1.088-1.896 1.44-.816.352-1.768.528-2.856.528z"/><path d="m316.416 895.056h-7.488v3.312c.32-.352.768-.64 1.344-.864s1.2-.336 1.872-.336c1.2 0 2.192.272 2.976.816.8.544 1.384 1.248 1.752 2.112s.552 1.8.552 2.808c0 1.872-.528 3.36-1.584 4.464-1.056 1.088-2.544 1.632-4.464 1.632-1.28 0-2.392-.216-3.336-.648-.944-.448-1.672-1.064-2.184-1.848s-.792-1.688-.84-2.712h4.008c.096.496.328.912.696 1.248.368.32.872.48 1.512.48.752 0 1.312-.24 1.68-.72s.552-1.12.552-1.92c0-.784-.192-1.384-.576-1.8s-.944-.624-1.68-.624c-.544 0-.992.136-1.344.408-.352.256-.584.6-.696 1.032h-3.96v-10.44h11.208zm5.601 14.136c-.72 0-1.312-.208-1.776-.624-.448-.432-.672-.96-.672-1.584 0-.64.224-1.176.672-1.608.464-.432 1.056-.648 1.776-.648.704 0 1.28.216 1.728.648.464.432.696.968.696 1.608 0 .624-.232 1.152-.696 1.584-.448.416-1.024.624-1.728.624zm4.446-9.192c0-2.752.528-4.92 1.584-6.504 1.072-1.584 2.792-2.376 5.16-2.376s4.08.792 5.136 2.376c1.072 1.584 1.608 3.752 1.608 6.504 0 2.784-.536 4.968-1.608 6.552-1.056 1.584-2.768 2.376-5.136 2.376s-4.088-.792-5.16-2.376c-1.056-1.584-1.584-3.768-1.584-6.552zm9.456 0c0-1.616-.176-2.856-.528-3.72-.352-.88-1.08-1.32-2.184-1.32s-1.832.44-2.184 1.32c-.352.864-.528 2.104-.528 3.72 0 1.088.064 1.992.192 2.712.128.704.384 1.28.768 1.728.4.432.984.648 1.752.648s1.344-.216 1.728-.648c.4-.448.664-1.024.792-1.728.128-.72.192-1.624.192-2.712zm6.2 0c0-2.752.528-4.92 1.584-6.504 1.072-1.584 2.792-2.376 5.16-2.376s4.08.792 5.136 2.376c1.072 1.584 1.608 3.752 1.608 6.504 0 2.784-.536 4.968-1.608 6.552-1.056 1.584-2.768 2.376-5.136 2.376s-4.088-.792-5.16-2.376c-1.056-1.584-1.584-3.768-1.584-6.552zm9.456 0c0-1.616-.176-2.856-.528-3.72-.352-.88-1.08-1.32-2.184-1.32s-1.832.44-2.184 1.32c-.352.864-.528 2.104-.528 3.72 0 1.088.064 1.992.192 2.712.128.704.384 1.28.768 1.728.4.432.984.648 1.752.648s1.344-.216 1.728-.648c.4-.448.664-1.024.792-1.728.128-.72.192-1.624.192-2.712zm5.864-4.104c0-1.296.368-2.296 1.104-3 .752-.704 1.72-1.056 2.904-1.056s2.144.352 2.88 1.056 1.104 1.704 1.104 3-.368 2.296-1.104 3-1.696 1.056-2.88 1.056-2.152-.352-2.904-1.056c-.736-.704-1.104-1.704-1.104-3zm16.296-3.792-9.24 16.896h-3.96l9.24-16.896zm-12.312 2.136c-.768 0-1.152.552-1.152 1.656 0 1.088.384 1.632 1.152 1.632.368 0 .656-.136.864-.408s.312-.68.312-1.224c0-1.104-.392-1.656-1.176-1.656zm7.44 10.968c0-1.296.368-2.296 1.104-3s1.696-1.056 2.88-1.056 2.144.352 2.88 1.056 1.104 1.704 1.104 3-.368 2.296-1.104 3-1.696 1.056-2.88 1.056-2.144-.352-2.88-1.056-1.104-1.704-1.104-3zm3.96-1.656c-.368 0-.656.136-.864.408-.192.272-.288.688-.288 1.248 0 1.088.384 1.632 1.152 1.632.368 0 .656-.136.864-.408s.312-.68.312-1.224-.104-.952-.312-1.224c-.208-.288-.496-.432-.864-.432z"/><path d="m585 853c0 4.418 3.582 8 8 8s8-3.582 8-8-3.582-8-8-8-8 3.582-8 8zm-5.964 32v1.5h.983l.392-.9zm12.589-32.6-13.963 32 2.749 1.2 13.964-32zm-12.589 31.1h-276.036v3h276.036z"/><path d="m144.608 785.152v3.288h-4.464v13.56h-4.104v-13.56h-4.464v-3.288zm6.164 5.688c.48-.736 1.08-1.312 1.8-1.728.72-.432 1.52-.648 2.4-.648v4.344h-1.128c-1.024 0-1.792.224-2.304.672-.512.432-.768 1.2-.768 2.304v6.216h-4.104v-13.392h4.104zm18.785 4.248c0 .384-.024.784-.072 1.2h-9.288c.064.832.328 1.472.792 1.92.48.432 1.064.648 1.752.648 1.024 0 1.736-.432 2.136-1.296h4.368c-.224.88-.632 1.672-1.224 2.376-.576.704-1.304 1.256-2.184 1.656s-1.864.6-2.952.6c-1.312 0-2.48-.28-3.504-.84s-1.824-1.36-2.4-2.4-.864-2.256-.864-3.648.28-2.608.84-3.648c.576-1.04 1.376-1.84 2.4-2.4s2.2-.84 3.528-.84c1.296 0 2.448.272 3.456.816s1.792 1.32 2.352 2.328c.576 1.008.864 2.184.864 3.528zm-4.2-1.08c0-.704-.24-1.264-.72-1.68s-1.08-.624-1.8-.624c-.688 0-1.272.2-1.752.6-.464.4-.752.968-.864 1.704zm5.549 1.272c0-1.376.256-2.584.768-3.624.528-1.04 1.24-1.84 2.136-2.4s1.896-.84 3-.84c.944 0 1.768.192 2.472.576.72.384 1.272.888 1.656 1.512v-1.896h4.104v13.392h-4.104v-1.896c-.4.624-.96 1.128-1.68 1.512-.704.384-1.528.576-2.472.576-1.088 0-2.08-.28-2.976-.84-.896-.576-1.608-1.384-2.136-2.424-.512-1.056-.768-2.272-.768-3.648zm10.032.024c0-1.024-.288-1.832-.864-2.424-.56-.592-1.248-.888-2.064-.888s-1.512.296-2.088.888c-.56.576-.84 1.376-.84 2.4s.28 1.84.84 2.448c.576.592 1.272.888 2.088.888s1.504-.296 2.064-.888c.576-.592.864-1.4.864-2.424zm12.521 6.888c-1.168 0-2.208-.2-3.12-.6s-1.632-.944-2.16-1.632c-.528-.704-.824-1.488-.888-2.352h4.056c.048.464.264.84.648 1.128s.856.432 1.416.432c.512 0 .904-.096 1.176-.288.288-.208.432-.472.432-.792 0-.384-.2-.664-.6-.84-.4-.192-1.048-.4-1.944-.624-.96-.224-1.76-.456-2.4-.696-.64-.256-1.192-.648-1.656-1.176-.464-.544-.696-1.272-.696-2.184 0-.768.208-1.464.624-2.088.432-.64 1.056-1.144 1.872-1.512.832-.368 1.816-.552 2.952-.552 1.68 0 3 .416 3.96 1.248.976.832 1.536 1.936 1.68 3.312h-3.792c-.064-.464-.272-.832-.624-1.104-.336-.272-.784-.408-1.344-.408-.48 0-.848.096-1.104.288-.256.176-.384.424-.384.744 0 .384.2.672.6.864.416.192 1.056.384 1.92.576.992.256 1.8.512 2.424.768.624.24 1.168.64 1.632 1.2.48.544.728 1.28.744 2.208 0 .784-.224 1.488-.672 2.112-.432.608-1.064 1.088-1.896 1.44-.816.352-1.768.528-2.856.528zm21.159-13.584v13.392h-4.104v-1.824c-.416.592-.984 1.072-1.704 1.44-.704.352-1.488.528-2.352.528-1.024 0-1.928-.224-2.712-.672-.784-.464-1.392-1.128-1.824-1.992s-.648-1.88-.648-3.048v-7.824h4.08v7.272c0 .896.232 1.592.696 2.088s1.088.744 1.872.744c.8 0 1.432-.248 1.896-.744s.696-1.192.696-2.088v-7.272zm7.052 2.232c.48-.736 1.08-1.312 1.8-1.728.72-.432 1.52-.648 2.4-.648v4.344h-1.128c-1.024 0-1.792.224-2.304.672-.512.432-.768 1.2-.768 2.304v6.216h-4.104v-13.392h4.104zm19.842-2.232-8.4 19.752h-4.416l3.072-6.816-5.448-12.936h4.584l3.096 8.376 3.072-8.376z"/><path d="m132.224 822.424c.064-1.712.624-3.032 1.68-3.96s2.488-1.392 4.296-1.392c1.2 0 2.224.208 3.072.624.864.416 1.512.984 1.944 1.704.448.72.672 1.528.672 2.424 0 1.056-.264 1.92-.792 2.592-.528.656-1.144 1.104-1.848 1.344v.096c.912.304 1.632.808 2.16 1.512s.792 1.608.792 2.712c0 .992-.232 1.872-.696 2.64-.448.752-1.112 1.344-1.992 1.776-.864.432-1.896.648-3.096.648-1.92 0-3.456-.472-4.608-1.416-1.136-.944-1.736-2.368-1.8-4.272h3.984c.016.704.216 1.264.6 1.68.384.4.944.6 1.68.6.624 0 1.104-.176 1.44-.528.352-.368.528-.848.528-1.44 0-.768-.248-1.32-.744-1.656-.48-.352-1.256-.528-2.328-.528h-.768v-3.336h.768c.816 0 1.472-.136 1.968-.408.512-.288.768-.792.768-1.512 0-.576-.16-1.024-.48-1.344s-.76-.48-1.32-.48c-.608 0-1.064.184-1.368.552-.288.368-.456.824-.504 1.368zm16.715 12.768c-.72 0-1.312-.208-1.776-.624-.448-.432-.672-.96-.672-1.584 0-.64.224-1.176.672-1.608.464-.432 1.056-.648 1.776-.648.704 0 1.28.216 1.728.648.464.432.696.968.696 1.608 0 .624-.232 1.152-.696 1.584-.448.416-1.024.624-1.728.624zm16.782-14.136h-7.488v3.312c.32-.352.768-.64 1.344-.864s1.2-.336 1.872-.336c1.2 0 2.192.272 2.976.816.8.544 1.384 1.248 1.752 2.112s.552 1.8.552 2.808c0 1.872-.528 3.36-1.584 4.464-1.056 1.088-2.544 1.632-4.464 1.632-1.28 0-2.392-.216-3.336-.648-.944-.448-1.672-1.064-2.184-1.848s-.792-1.688-.84-2.712h4.008c.096.496.328.912.696 1.248.368.32.872.48 1.512.48.752 0 1.312-.24 1.68-.72s.552-1.12.552-1.92c0-.784-.192-1.384-.576-1.8s-.944-.624-1.68-.624c-.544 0-.992.136-1.344.408-.352.256-.584.6-.696 1.032h-3.96v-10.44h11.208zm2.937.84c0-1.296.368-2.296 1.104-3 .752-.704 1.72-1.056 2.904-1.056s2.144.352 2.88 1.056 1.104 1.704 1.104 3-.368 2.296-1.104 3-1.696 1.056-2.88 1.056-2.152-.352-2.904-1.056c-.736-.704-1.104-1.704-1.104-3zm16.296-3.792-9.24 16.896h-3.96l9.24-16.896zm-12.312 2.136c-.768 0-1.152.552-1.152 1.656 0 1.088.384 1.632 1.152 1.632.368 0 .656-.136.864-.408s.312-.68.312-1.224c0-1.104-.392-1.656-1.176-1.656zm7.44 10.968c0-1.296.368-2.296 1.104-3s1.696-1.056 2.88-1.056 2.144.352 2.88 1.056 1.104 1.704 1.104 3-.368 2.296-1.104 3-1.696 1.056-2.88 1.056-2.144-.352-2.88-1.056-1.104-1.704-1.104-3zm3.96-1.656c-.368 0-.656.136-.864.408-.192.272-.288.688-.288 1.248 0 1.088.384 1.632 1.152 1.632.368 0 .656-.136.864-.408s.312-.68.312-1.224-.104-.952-.312-1.224c-.208-.288-.496-.432-.864-.432z"/><path d="m450.489 783.672c0 4.419 3.581 8 8 8 4.418 0 8-3.581 8-8 0-4.418-3.582-8-8-8-4.419 0-8 3.582-8 8zm-22.171 26.526v1.5h.565l.425-.373zm29.18-27.652-30.171 26.526 1.981 2.253 30.171-26.526zm-29.18 26.152h-297.318v3h297.318z"/><path d="m318 609c0 4.419 3.582 8 8 8s8-3.581 8-8c0-4.418-3.582-8-8-8s-8 3.582-8 8zm-49.719 10v1.5h.129l.127-.022zm57.463-11.477-57.719 10 .512 2.955 57.719-10zm-57.463 9.977h-210.281v3h210.281z"/><path d="m102.592 199.152v16.848h-4.104v-16.848zm11.134 3.312c1.568 0 2.816.512 3.744 1.536.944 1.008 1.416 2.4 1.416 4.176v7.824h-4.08v-7.272c0-.896-.232-1.592-.696-2.088s-1.088-.744-1.872-.744-1.408.248-1.872.744-.696 1.192-.696 2.088v7.272h-4.104v-13.392h4.104v1.776c.416-.592.976-1.056 1.68-1.392.704-.352 1.496-.528 2.376-.528zm14.036 9.696 2.904-9.552h4.368l-4.752 13.392h-5.064l-4.752-13.392h4.392zm21.623-3.072c0 .384-.024.784-.072 1.2h-9.288c.064.832.328 1.472.792 1.92.48.432 1.064.648 1.752.648 1.024 0 1.736-.432 2.136-1.296h4.368c-.224.88-.632 1.672-1.224 2.376-.576.704-1.304 1.256-2.184 1.656s-1.864.6-2.952.6c-1.312 0-2.48-.28-3.504-.84s-1.824-1.36-2.4-2.4-.864-2.256-.864-3.648.28-2.608.84-3.648c.576-1.04 1.376-1.84 2.4-2.4s2.2-.84 3.528-.84c1.296 0 2.448.272 3.456.816s1.792 1.32 2.352 2.328c.576 1.008.864 2.184.864 3.528zm-4.2-1.08c0-.704-.24-1.264-.72-1.68s-1.08-.624-1.8-.624c-.688 0-1.272.2-1.752.6-.464.4-.752.968-.864 1.704zm11.814 8.184c-1.168 0-2.208-.2-3.12-.6s-1.632-.944-2.16-1.632c-.528-.704-.824-1.488-.888-2.352h4.056c.048.464.264.84.648 1.128s.856.432 1.416.432c.512 0 .904-.096 1.176-.288.288-.208.432-.472.432-.792 0-.384-.2-.664-.6-.84-.4-.192-1.048-.4-1.944-.624-.96-.224-1.76-.456-2.4-.696-.64-.256-1.192-.648-1.656-1.176-.464-.544-.696-1.272-.696-2.184 0-.768.208-1.464.624-2.088.432-.64 1.056-1.144 1.872-1.512.832-.368 1.816-.552 2.952-.552 1.68 0 3 .416 3.96 1.248.976.832 1.536 1.936 1.68 3.312h-3.792c-.064-.464-.272-.832-.624-1.104-.336-.272-.784-.408-1.344-.408-.48 0-.848.096-1.104.288-.256.176-.384.424-.384.744 0 .384.2.672.6.864.416.192 1.056.384 1.92.576.992.256 1.8.512 2.424.768.624.24 1.168.64 1.632 1.2.48.544.728 1.28.744 2.208 0 .784-.224 1.488-.672 2.112-.432.608-1.064 1.088-1.896 1.44-.816.352-1.768.528-2.856.528zm15.398-3.672v3.48h-2.088c-1.488 0-2.648-.36-3.48-1.08-.832-.736-1.248-1.928-1.248-3.576v-5.328h-1.632v-3.408h1.632v-3.264h4.104v3.264h2.688v3.408h-2.688v5.376c0 .4.096.688.288.864s.512.264.96.264zm8.382 3.672c-1.312 0-2.496-.28-3.552-.84-1.04-.56-1.864-1.36-2.472-2.4-.592-1.04-.888-2.256-.888-3.648 0-1.376.304-2.584.912-3.624.608-1.056 1.44-1.864 2.496-2.424s2.24-.84 3.552-.84 2.496.28 3.552.84 1.888 1.368 2.496 2.424c.608 1.04.912 2.248.912 3.624s-.312 2.592-.936 3.648c-.608 1.04-1.448 1.84-2.52 2.4-1.056.56-2.24.84-3.552.84zm0-3.552c.784 0 1.448-.288 1.992-.864.56-.576.84-1.4.84-2.472s-.272-1.896-.816-2.472c-.528-.576-1.184-.864-1.968-.864-.8 0-1.464.288-1.992.864-.528.56-.792 1.384-.792 2.472 0 1.072.256 1.896.768 2.472.528.576 1.184.864 1.968.864zm13.29-7.8c.48-.736 1.08-1.312 1.8-1.728.72-.432 1.52-.648 2.4-.648v4.344h-1.128c-1.024 0-1.792.224-2.304.672-.512.432-.768 1.2-.768 2.304v6.216h-4.104v-13.392h4.104zm11.609 11.352c-1.168 0-2.208-.2-3.12-.6s-1.632-.944-2.16-1.632c-.528-.704-.824-1.488-.888-2.352h4.056c.048.464.264.84.648 1.128s.856.432 1.416.432c.512 0 .904-.096 1.176-.288.288-.208.432-.472.432-.792 0-.384-.2-.664-.6-.84-.4-.192-1.048-.4-1.944-.624-.96-.224-1.76-.456-2.4-.696-.64-.256-1.192-.648-1.656-1.176-.464-.544-.696-1.272-.696-2.184 0-.768.208-1.464.624-2.088.432-.64 1.056-1.144 1.872-1.512.832-.368 1.816-.552 2.952-.552 1.68 0 3 .416 3.96 1.248.976.832 1.536 1.936 1.68 3.312h-3.792c-.064-.464-.272-.832-.624-1.104-.336-.272-.784-.408-1.344-.408-.48 0-.848.096-1.104.288-.256.176-.384.424-.384.744 0 .384.2.672.6.864.416.192 1.056.384 1.92.576.992.256 1.8.512 2.424.768.624.24 1.168.64 1.632 1.2.48.544.728 1.28.744 2.208 0 .784-.224 1.488-.672 2.112-.432.608-1.064 1.088-1.896 1.44-.816.352-1.768.528-2.856.528z"/><path d="m97.936 245.712c.544-.432.792-.632.744-.6 1.568-1.296 2.8-2.36 3.696-3.192.912-.832 1.68-1.704 2.304-2.616s.936-1.8.936-2.664c0-.656-.152-1.168-.456-1.536s-.76-.552-1.368-.552-1.088.232-1.44.696c-.336.448-.504 1.088-.504 1.92h-3.96c.032-1.36.32-2.496.864-3.408.56-.912 1.288-1.584 2.184-2.016.912-.432 1.92-.648 3.024-.648 1.904 0 3.336.488 4.296 1.464.976.976 1.464 2.248 1.464 3.816 0 1.712-.584 3.304-1.752 4.776-1.168 1.456-2.656 2.88-4.464 4.272h6.48v3.336h-12.048zm13.711 0c.544-.432.792-.632.744-.6 1.568-1.296 2.8-2.36 3.696-3.192.912-.832 1.68-1.704 2.304-2.616s.936-1.8.936-2.664c0-.656-.152-1.168-.456-1.536s-.76-.552-1.368-.552-1.088.232-1.44.696c-.336.448-.504 1.088-.504 1.92h-3.96c.032-1.36.32-2.496.864-3.408.56-.912 1.288-1.584 2.184-2.016.912-.432 1.92-.648 3.024-.648 1.904 0 3.336.488 4.296 1.464.976.976 1.464 2.248 1.464 3.816 0 1.712-.584 3.304-1.752 4.776-1.168 1.456-2.656 2.88-4.464 4.272h6.48v3.336h-12.048zm16.183 3.48c-.72 0-1.312-.208-1.776-.624-.448-.432-.672-.96-.672-1.584 0-.64.224-1.176.672-1.608.464-.432 1.056-.648 1.776-.648.704 0 1.28.216 1.728.648.464.432.696.968.696 1.608 0 .624-.232 1.152-.696 1.584-.448.416-1.024.624-1.728.624zm4.445-9.192c0-2.752.528-4.92 1.584-6.504 1.072-1.584 2.792-2.376 5.16-2.376s4.08.792 5.136 2.376c1.072 1.584 1.608 3.752 1.608 6.504 0 2.784-.536 4.968-1.608 6.552-1.056 1.584-2.768 2.376-5.136 2.376s-4.088-.792-5.16-2.376c-1.056-1.584-1.584-3.768-1.584-6.552zm9.456 0c0-1.616-.176-2.856-.528-3.72-.352-.88-1.08-1.32-2.184-1.32s-1.832.44-2.184 1.32c-.352.864-.528 2.104-.528 3.72 0 1.088.064 1.992.192 2.712.128.704.384 1.28.768 1.728.4.432.984.648 1.752.648s1.344-.216 1.728-.648c.4-.448.664-1.024.792-1.728.128-.72.192-1.624.192-2.712zm6.201 0c0-2.752.528-4.92 1.584-6.504 1.072-1.584 2.792-2.376 5.16-2.376s4.08.792 5.136 2.376c1.072 1.584 1.608 3.752 1.608 6.504 0 2.784-.536 4.968-1.608 6.552-1.056 1.584-2.768 2.376-5.136 2.376s-4.088-.792-5.16-2.376c-1.056-1.584-1.584-3.768-1.584-6.552zm9.456 0c0-1.616-.176-2.856-.528-3.72-.352-.88-1.08-1.32-2.184-1.32s-1.832.44-2.184 1.32c-.352.864-.528 2.104-.528 3.72 0 1.088.064 1.992.192 2.712.128.704.384 1.28.768 1.728.4.432.984.648 1.752.648s1.344-.216 1.728-.648c.4-.448.664-1.024.792-1.728.128-.72.192-1.624.192-2.712zm5.864-4.104c0-1.296.368-2.296 1.104-3 .752-.704 1.72-1.056 2.904-1.056s2.144.352 2.88 1.056 1.104 1.704 1.104 3-.368 2.296-1.104 3-1.696 1.056-2.88 1.056-2.152-.352-2.904-1.056c-.736-.704-1.104-1.704-1.104-3zm16.296-3.792-9.24 16.896h-3.96l9.24-16.896zm-12.312 2.136c-.768 0-1.152.552-1.152 1.656 0 1.088.384 1.632 1.152 1.632.368 0 .656-.136.864-.408s.312-.68.312-1.224c0-1.104-.392-1.656-1.176-1.656zm7.44 10.968c0-1.296.368-2.296 1.104-3s1.696-1.056 2.88-1.056 2.144.352 2.88 1.056 1.104 1.704 1.104 3-.368 2.296-1.104 3-1.696 1.056-2.88 1.056-2.144-.352-2.88-1.056-1.104-1.704-1.104-3zm3.96-1.656c-.368 0-.656.136-.864.408-.192.272-.288.688-.288 1.248 0 1.088.384 1.632 1.152 1.632.368 0 .656-.136.864-.408s.312-.68.312-1.224-.104-.952-.312-1.224c-.208-.288-.496-.432-.864-.432z"/><path d="m471.956 252.633c0 4.419 3.582 8 8 8 4.419 0 8-3.581 8-8 0-4.418-3.581-8-8-8-4.418 0-8 3.582-8 8zm-23.908-27.633.982-1.134-.423-.366h-.559zm32.89 26.499-31.908-27.633-1.964 2.268 31.908 27.633zm-32.89-27.999h-351.048v3h351.048z"/><path d="m71.608 593.152v3.288h-4.464v13.56h-4.104v-13.56h-4.464v-3.288zm14.6837 9.936c0 .384-.024.784-.072 1.2h-9.288c.064.832.328 1.472.792 1.92.48.432 1.064.648 1.752.648 1.024 0 1.736-.432 2.136-1.296h4.368c-.224.88-.632 1.672-1.224 2.376-.576.704-1.304 1.256-2.184 1.656s-1.864.6-2.952.6c-1.312 0-2.48-.28-3.504-.84s-1.824-1.36-2.4-2.4-.864-2.256-.864-3.648.28-2.608.84-3.648c.576-1.04 1.376-1.84 2.4-2.4s2.2-.84 3.528-.84c1.296 0 2.448.272 3.456.816s1.792 1.32 2.352 2.328c.576 1.008.864 2.184.864 3.528zm-4.2-1.08c0-.704-.24-1.264-.72-1.68s-1.08-.624-1.8-.624c-.688 0-1.272.2-1.752.6-.464.4-.752.968-.864 1.704zm5.5491 1.272c0-1.376.256-2.584.768-3.624.528-1.04 1.24-1.84 2.136-2.4s1.896-.84 3-.84c.944 0 1.768.192 2.472.576.72.384 1.272.888 1.656 1.512v-1.896h4.1042v13.392h-4.1042v-1.896c-.4.624-.96 1.128-1.68 1.512-.704.384-1.528.576-2.472.576-1.088 0-2.08-.28-2.976-.84-.896-.576-1.608-1.384-2.136-2.424-.512-1.056-.768-2.272-.768-3.648zm10.032.024c0-1.024-.288-1.832-.864-2.424-.56-.592-1.248-.888-2.064-.888s-1.512.296-2.088.888c-.56.576-.84 1.376-.84 2.4s.28 1.84.84 2.448c.576.592 1.272.888 2.088.888s1.504-.296 2.064-.888c.576-.592.864-1.4.864-2.424zm24.1612-6.84c1.664 0 2.984.504 3.96 1.512.992 1.008 1.488 2.408 1.488 4.2v7.824h-4.08v-7.272c0-.864-.232-1.528-.696-1.992-.448-.48-1.072-.72-1.872-.72s-1.432.24-1.896.72c-.448.464-.672 1.128-.672 1.992v7.272h-4.08v-7.272c0-.864-.232-1.528-.696-1.992-.448-.48-1.072-.72-1.872-.72s-1.432.24-1.896.72c-.448.464-.672 1.128-.672 1.992v7.272h-4.104v-13.392h4.104v1.68c.416-.56.96-1 1.632-1.32.672-.336 1.432-.504 2.28-.504 1.008 0 1.904.216 2.688.648.8.432 1.424 1.048 1.872 1.848.464-.736 1.096-1.336 1.896-1.8s1.672-.696 2.616-.696z"/><path d="m58.648 629.296v-3.816h6.648v17.52h-4.272v-13.704zm9.5514 10.584v-3.312l7.584-10.848h4.584v10.608h1.968v3.552h-1.968v3.12h-4.104v-3.12zm8.352-9.648-4.032 6.096h4.032zm10.1222 12.96c-.72 0-1.312-.208-1.776-.624-.448-.432-.672-.96-.672-1.584 0-.64.224-1.176.672-1.608.464-.432 1.056-.648 1.776-.648.704 0 1.28.216 1.728.648.464.432.696.968.696 1.608 0 .624-.232 1.152-.696 1.584-.448.416-1.024.624-1.728.624zm16.7814-14.136h-7.4879v3.312c.32-.352.768-.64 1.344-.864s1.2-.336 1.872-.336c1.1999 0 2.1919.272 2.9759.816.8.544 1.384 1.248 1.752 2.112s.552 1.8.552 2.808c0 1.872-.528 3.36-1.584 4.464-1.056 1.088-2.544 1.632-4.4639 1.632-1.28 0-2.392-.216-3.336-.648-.944-.448-1.672-1.064-2.184-1.848s-.792-1.688-.84-2.712h4.008c.096.496.328.912.696 1.248.368.32.872.48 1.512.48.752 0 1.312-.24 1.68-.72.3679-.48.5519-1.12.5519-1.92 0-.784-.192-1.384-.5759-1.8-.384-.416-.944-.624-1.68-.624-.544 0-.992.136-1.344.408-.352.256-.584.6-.696 1.032h-3.96v-10.44h11.2079zm2.937.84c0-1.296.368-2.296 1.104-3 .752-.704 1.72-1.056 2.904-1.056s2.144.352 2.88 1.056 1.104 1.704 1.104 3-.368 2.296-1.104 3-1.696 1.056-2.88 1.056-2.152-.352-2.904-1.056c-.736-.704-1.104-1.704-1.104-3zm16.296-3.792-9.24 16.896h-3.96l9.24-16.896zm-12.312 2.136c-.768 0-1.152.552-1.152 1.656 0 1.088.384 1.632 1.152 1.632.368 0 .656-.136.864-.408s.312-.68.312-1.224c0-1.104-.392-1.656-1.176-1.656zm7.44 10.968c0-1.296.368-2.296 1.104-3s1.696-1.056 2.88-1.056 2.144.352 2.88 1.056 1.104 1.704 1.104 3-.368 2.296-1.104 3-1.696 1.056-2.88 1.056-2.144-.352-2.88-1.056-1.104-1.704-1.104-3zm3.96-1.656c-.368 0-.656.136-.864.408-.192.272-.288.688-.288 1.248 0 1.088.384 1.632 1.152 1.632.368 0 .656-.136.864-.408s.312-.68.312-1.224-.104-.952-.312-1.224c-.208-.288-.496-.432-.864-.432z"/><path d="m902.72 81.6c.16.12.2.36.08.52-2.72 3.56-6.92 5.68-11.36 5.68-7.92 0-14.36-6.6-14.36-14.72s6.44-14.72 14.36-14.72c2.36 0 4.56.52 6.64 1.64 1.76.92 3.32 2.24 4.6 3.84.12.16.08.36-.08.48l-4.76 3.48c-.16.12-.36.12-.48-.04-1.48-1.76-3.6-2.72-5.92-2.72-4.32 0-7.88 3.6-7.88 8.04s3.56 8.04 7.88 8.04c2.36 0 4.6-1.08 6.08-2.92.12-.16.32-.16.48-.08zm11.422-16.12c6.2 0 11.24 5 11.24 11.12s-5.04 11.08-11.24 11.08-11.24-4.96-11.24-11.08 5.04-11.12 11.24-11.12zm0 15.96c2.72 0 4.92-2.2 4.92-4.84 0-2.68-2.2-4.84-4.92-4.84s-4.92 2.16-4.92 4.84c0 2.64 2.2 4.84 4.92 4.84zm41.372-13.76c2.16 2.2 2.52 3.96 2.52 7.08v11.92c0 .2-.16.32-.36.32h-6.32c-.16 0-.32-.12-.32-.32v-11.6c0-.8-.04-1.68-.4-2.4-.12-.32-.32-.56-.56-.76-.4-.32-.92-.48-1.6-.48-1.2 0-2.16.44-2.44 1.12-.36.72-.36 1.72-.36 2.52v11.6c0 .2-.16.32-.32.32h-6.16c-.2 0-.36-.12-.36-.32v-11.6c0-.8-.04-1.68-.36-2.4-.16-.32-.36-.56-.6-.76-.4-.32-.92-.48-1.56-.48-1.24 0-2.16.44-2.48 1.12-.32.72-.32 1.72-.32 2.52v11.6c0 .2-.16.32-.36.32h-6.32c-.2 0-.32-.12-.32-.32v-20.52c0-.2.12-.36.32-.36h5.92c.2 0 .36.16.36.36v.56c0 .16.12.24.24.16 4.8-3.32 9.44.36 9.48.4.16.12.32.28.48.4.12.12.24.28.36.4.16.16.4.12.52-.04.36-.4.8-.84 1.28-1.2.68-.44 1.36-.8 2.04-.96 4-1.36 7.48 1.36 7.52 1.4.16.12.32.28.48.4zm33.164 0c2.16 2.2 2.52 3.96 2.52 7.08v11.92c0 .2-.16.32-.36.32h-6.32c-.16 0-.32-.12-.32-.32v-11.6c0-.8-.04-1.68-.4-2.4-.12-.32-.32-.56-.56-.76-.4-.32-.92-.48-1.6-.48-1.2 0-2.16.44-2.44 1.12-.36.72-.36 1.72-.36 2.52v11.6c0 .2-.16.32-.32.32h-6.16c-.2 0-.36-.12-.36-.32v-11.6c0-.8-.04-1.68-.36-2.4-.16-.32-.36-.56-.6-.76-.4-.32-.92-.48-1.56-.48-1.24 0-2.16.44-2.48 1.12-.32.72-.32 1.72-.32 2.52v11.6c0 .2-.16.32-.36.32h-6.32c-.2 0-.32-.12-.32-.32v-20.52c0-.2.12-.36.32-.36h5.92c.2 0 .36.16.36.36v.56c0 .16.12.24.24.16 4.8-3.32 9.44.36 9.48.4.16.12.32.28.48.4.12.12.24.28.36.4.16.16.4.12.52-.04.36-.4.8-.84 1.28-1.2.68-.44 1.36-.8 2.04-.96 4-1.36 7.48 1.36 7.52 1.4.16.12.32.28.48.4zm22.922-1.88c.16 0 .32.16.32.36v20.52c0 .2-.16.32-.32.32h-5.96c-.16 0-.32-.12-.32-.32v-.56c0-.16-.16-.24-.28-.16-1.48 1.04-2.92 1.4-4.24 1.4-2.958 0-5.198-1.76-5.198-1.8-.2-.12-.36-.28-.48-.4-2.16-2.2-2.52-3.96-2.52-7.08v-11.92c0-.2.12-.36.32-.36h6.32c.2 0 .36.16.36.36v11.6c0 .8.04 1.68.36 2.4.158.32.358.56.598.76.4.32.88.48 1.56.48 1.2 0 2.16-.44 2.48-1.12.32-.72.32-1.72.32-2.52v-11.6c0-.2.16-.36.36-.36zm19.02 1.88c2.16 2.2 2.52 3.96 2.52 7.08v11.92c0 .2-.16.32-.32.32h-6.32c-.2 0-.36-.12-.36-.32v-11.6c0-.8-.04-1.68-.36-2.4-.16-.32-.36-.56-.6-.76-.4-.32-.92-.48-1.56-.48-1.24 0-2.16.44-2.48 1.12-.32.72-.32 1.72-.32 2.52v11.6c0 .2-.16.32-.36.32h-6.32c-.2 0-.32-.12-.32-.32v-20.52c0-.2.12-.36.32-.36h5.92c.2 0 .36.16.36.36v.56c0 .16.12.24.24.16 4.8-3.32 9.44.36 9.48.4.16.12.32.28.48.4zm10.42-1.88c.2 0 .36.16.36.36v20.52c0 .2-.16.32-.36.32h-5.92c-.2 0-.32-.12-.32-.32v-20.52c0-.2.12-.36.32-.36zm0-6.68c.2 0 .36.16.36.36v4.32c0 .2-.16.36-.36.36h-5.92c-.2 0-.32-.16-.32-.36v-4.32c0-.2.12-.36.32-.36zm13.79 22.4c.2 0 .36.16.32.36l-.76 5.04c0 .16-.16.28-.32.28-.72.04-2.64.16-3.24.16-.04 0-.08 0-.12 0-3.6-.2-5.52-2.04-5.52-5.36v-10.16c0-.2-.12-.36-.32-.36h-2.2c-.2 0-.32-.16-.32-.32v-5.04c0-.16.12-.32.32-.32h2.2c.2 0 .32-.16.32-.36v-5.8c0-.2.16-.32.36-.32h5.92c.2 0 .36.12.36.32v5.8c0 .2.12.36.32.36h2.2c.2 0 .32.16.32.32v5.04c0 .16-.12.32-.32.32h-2.2c-.2 0-.32.16-.32.36-.04 1.76-.04 6.96-.04 7v.16c0 .64-.04 1.52.48 2.04.32.32.76.48 1.4.48zm21.45-15.72c.24 0 .4.24.32.48l-6.68 18.52-3.08 8.84c-.08.12-.2.24-.32.24h-6.6c-.24 0-.4-.24-.32-.48l2.56-7.64c.04-.04.04-.12 0-.2l-7.04-19.28c-.08-.24.08-.48.32-.48h5.92c.12 0 .24.12.28.24l3.88 10.44c.12.32.52.28.64 0l3.56-10.44c.04-.12.16-.24.32-.24z"/><path d="m434.4 61.08c2.04 1.72 3.24 4.44 3.24 7.44 0 2.88-1.2 5.84-2.92 7.36-1.84 1.56-3.64 2.44-8 2.44h-2.28c-.16 0-.32.12-.32.32v8.04c0 .2-.16.32-.36.32h-6.44c-.2 0-.32-.12-.32-.32v-27.32c0-.2.12-.36.32-.36h8.64c5 0 6.92.8 8.44 2.08zm-5.2 10.36c1.32-.56 1.6-1.84 1.6-2.84 0-1.36-.56-2.24-1.68-2.72-.92-.44-2.08-.44-2.84-.44h-1.84c-.16 0-.32.16-.32.36v5.72c0 .2.16.32.32.32h2.12c.64 0 1.72 0 2.64-.4zm20.681-5.64c.16 0 .32.16.32.36l-.2 4.96c0 .2-.16.36-.36.32-.6-.04-1.76-.12-2.44.04-.76.2-1.2.8-1.32 1.08-.32.72-.32 1.36-.32 2.2v11.92c0 .2-.16.32-.36.32h-6.32c-.2 0-.32-.12-.32-.32v-20.52c0-.2.12-.36.32-.36h5.92c.2 0 .36.16.36.36v.6c0 .12.12.2.24.12 1.4-.88 3.08-1.04 4.48-1.08zm11.386-.32c6.2 0 11.24 5 11.24 11.12s-5.04 11.08-11.24 11.08-11.24-4.96-11.24-11.08 5.04-11.12 11.24-11.12zm0 15.96c2.72 0 4.92-2.2 4.92-4.84 0-2.68-2.2-4.84-4.92-4.84s-4.92 2.16-4.92 4.84c0 2.64 2.2 4.84 4.92 4.84zm18.612-22.32c.2 0 .36.16.36.36v4.32c0 .2-.16.36-.36.36h-5.92c-.2 0-.32-.16-.32-.36v-4.32c0-.2.12-.36.32-.36zm0 6.68c.2 0 .36.16.36.36v22.88c0 4.68-3.88 5.4-5.52 5.48-.16.04-.68.04-1.32.04-.92 0-2.16-.04-2.8-.04-.2 0-.36-.16-.32-.36l.6-5c.04-.16.2-.32.36-.32h.52c.64 0 1.12-.12 1.4-.44.52-.52.48-1.4.48-2.08v-.12-20.04c0-.2.12-.36.32-.36zm23.516 7.64c.32 1.04.44 2.08.44 3.16 0 .6-.04 1.32-.16 1.96-.04.16-.16.28-.36.28h-14.84c-.24 0-.4.28-.28.52.92 1.52 2.56 2.52 4.36 2.52 1.52 0 2.96-.68 3.96-2 .08-.08.2-.16.36-.12l5.68 1c.2.04.32.28.24.48-.12.28-.28.6-.4.76l-.08.16c-.08.16-.16.32-.28.48-.12.2-.24.36-.36.52l-.08.12c-.04.04-.08.08-.12.12l-.08.08c-.08.12-.16.2-.24.28l-.04.08c-.16.16-.28.28-.4.44l-.08.08c-.08.08-.16.16-.28.24v.04c-.12.08-.2.2-.32.28l-.12.08-.12-.12.12.16c-.16.12-.32.24-.48.36l-.12.08c-.16.12-.36.24-.52.36l-.08.04c-.2.16-.4.28-.64.4l-.04.04c-.04 0-.12.04-.16.08h-.04c-.08.04-.16.08-.28.16h-.04c-.2.12-.4.2-.56.28h-.04c-.16.04-.24.08-.36.12l-.16.08c-.12.04-.28.08-.4.12h-.04c-.16.08-.32.12-.48.16l-.12.04c-.32.08-.64.12-1 .2h-.12c-.32.04-.68.08-1 .12h-.12c-.2 0-.36 0-.52 0s-.32 0-.52 0c-.04 0-.08 0-.12 0h-.04c-.12-.04-.24-.04-.36-.04h-.04c-.04 0-.08 0-.12-.04-.2 0-.36 0-.52-.04h-.08c-.16-.04-.28-.08-.4-.08l-.16-.04c-.12-.04-.24-.04-.36-.08h-.04c-.04-.04-.08-.04-.12-.04-.16-.04-.32-.08-.48-.12-.16-.08-.32-.12-.48-.16 0-.04-.04-.04-.08-.04l-.04-.04c-.12-.04-.24-.08-.32-.12h-.04c-.04-.04-.08-.04-.12-.04-.16-.08-.28-.16-.44-.2-.16-.08-.28-.16-.44-.24-.04 0-.08-.04-.12-.04v-.04c-.12-.04-.2-.08-.32-.16l-.12-.08c-.16-.08-.28-.16-.4-.24-1.36-.92-2.52-2.08-3.36-3.48-.08-.08-.12-.2-.2-.32l-.04-.08c-.04-.08-.12-.2-.16-.32l-.04-.08c0-.04-.04-.04-.04-.08-.24-.44-.4-.92-.56-1.4-.12-.24-.16-.48-.24-.68-.04-.16-.08-.36-.12-.56-.12-.52-.16-1.08-.2-1.64 0-.2 0-.4 0-.56 0-.2 0-.4 0-.6.04-.96.24-1.96.56-2.88.08-.32.2-.6.32-.84.04-.16.12-.32.2-.48 0 0 .04-.04.04-.08l.04-.08c0-.04.04-.08.04-.12.04-.04.04-.08.08-.08l.08-.2c.08-.12.16-.28.24-.4.84-1.36 2-2.56 3.36-3.48.12-.08.24-.16.4-.24l.12-.08c.12-.04.2-.12.32-.16v-.04c.04 0 .08-.04.12-.04.16-.08.28-.16.44-.24.16-.04.28-.12.44-.2.04 0 .08 0 .12-.04h.04c.08-.04.2-.08.32-.12l.04-.04c.04 0 .08 0 .08-.04.16-.04.32-.08.48-.16.16-.04.32-.08.48-.12.04 0 .08 0 .12-.04h.04c.12-.04.24-.04.36-.08h.08c.16-.04.4-.08.52-.12h.04c.16 0 .32-.04.52-.04.04 0 .08-.04.12-.04h.04.36.04c.04-.04.08-.04.12-.04h.52.52.12c.32.04.68.08 1 .12l.16.04c.32.04.64.08.96.16l.12.04c.16.04.32.12.48.16h.04c.12.04.28.08.4.12.04.04.08.04.12.08.16.04.24.08.36.12h.08c.16.08.36.2.56.28h.04c.12.08.2.12.28.16h.04l-.08.16.08-.16c.04.04.12.08.16.12.2.08.48.28.68.4h.04c.2.12.36.24.56.4.04.04.08.08.12.08.16.12.32.24.48.4l.08.04c.12.12.24.24.36.32v.04c.12.08.2.16.28.24l.08.08c.12.16.24.28.36.44l-.08.12.12-.12.04.08c.08.08.16.16.24.28l.08.08c.08.08.16.2.24.32s.16.2.2.28l.12.2c.04.08.12.16.16.24l.2.36c.44.72.76 1.48 1 2.28zm-6.52.72c.2 0 .36-.2.36-.4-.28-1.56-2.08-2.76-4.4-2.76-2.08 0-4.08 1.2-4.36 2.76-.04.2.12.4.32.4zm28.012 7.76c.16.12.24.32.12.48-.16.28-.4.64-.56.8-.2.28-.4.56-.64.8l-.04.04c-.08.08-.24.24-.32.36-.04 0-.04.04-.08.04-.08.12-.2.2-.28.28s-.12.12-.2.16c-.04.04-.08.08-.12.12-1.64 1.36-3.64 2.28-5.76 2.56-.08 0-.16.04-.24.04s-.16 0-.24.04c-.16 0-.28 0-.44 0-.04 0-.08.04-.16.04-.16 0-.32 0-.48 0-6.2 0-11.24-5-11.24-11.12s5.04-11.08 11.24-11.08h.48.16c.16 0 .28.04.44.04.08 0 .16.04.24.04h.24c2.12.32 4.12 1.2 5.76 2.6.04.04.08.04.12.08.08.08.12.12.2.16.08.12.2.2.28.32.04 0 .04.04.08.04.08.12.2.2.28.32.04.04.04.04.08.04.24.28.44.52.64.8.24.28.44.6.6.88.08.12.04.28-.08.36l-3 1.76-1.76 1c-.12.08-.32.04-.44-.12-.96-1.48-2.36-2.32-4-2.32-1.56 0-3 .72-3.96 1.84-.8.84-1.28 2-1.28 3.24 0 1.28.48 2.4 1.28 3.28.96 1.12 2.4 1.84 3.96 1.84 1.64 0 3.04-.84 4-2.36.12-.12.32-.16.44-.08zm12.734-.4c.2 0 .36.16.32.36l-.76 5.04c0 .16-.16.28-.32.28-.72.04-2.64.16-3.24.16-.04 0-.08 0-.12 0-3.6-.2-5.52-2.04-5.52-5.36v-10.16c0-.2-.12-.36-.32-.36h-2.2c-.2 0-.32-.16-.32-.32v-5.04c0-.16.12-.32.32-.32h2.2c.2 0 .32-.16.32-.36v-5.8c0-.2.16-.32.36-.32h5.92c.2 0 .36.12.36.32v5.8c0 .2.12.36.32.36h2.2c.2 0 .32.16.32.32v5.04c0 .16-.12.32-.32.32h-2.2c-.2 0-.32.16-.32.36-.04 1.76-.04 6.96-.04 7v.16c0 .64-.04 1.52.48 2.04.32.32.76.48 1.4.48zm23.312-.96c.2 0 .36.2.36.4l-.6 5.76c-.04.16-.2.32-.36.32h-15.201c-.199 0-.319-.16-.319-.36v-27.36c0-.16.12-.32.319-.32h6.441c.2 0 .36.16.36.32v20.92c0 .2.16.32.32.32zm7.188-14.76c.2 0 .36.16.36.36v20.52c0 .2-.16.32-.36.32h-5.92c-.2 0-.32-.12-.32-.32v-20.52c0-.2.12-.36.32-.36zm0-6.68c.2 0 .36.16.36.36v4.32c0 .2-.16.36-.36.36h-5.92c-.2 0-.32-.16-.32-.36v-4.32c0-.2.12-.36.32-.36zm14.677 6.36c6.2 0 11.24 4.96 11.24 11.08s-5.04 11.12-11.24 11.12c-2 0-3.92-.52-5.6-1.48-.12-.04-.24.04-.24.16v.32c0 .16-.16.32-.36.32h-5.92c-.2 0-.32-.16-.32-.32v-27.2c0-.2.12-.36.32-.36h5.92c.2 0 .36.16.36.36v7.32c0 .12.12.2.24.12 1.68-.96 3.6-1.44 5.6-1.44zm-1.04 16.2c2.84 0 5.16-2.28 5.16-5.12 0-2.8-2.32-5.08-5.16-5.08s-4.8 2.28-4.8 5.08c0 2.84 1.96 5.12 4.8 5.12zm34.684-8.24c.32 1.04.44 2.08.44 3.16 0 .6-.04 1.32-.16 1.96-.04.16-.16.28-.36.28h-14.84c-.24 0-.4.28-.28.52.92 1.52 2.56 2.52 4.36 2.52 1.52 0 2.96-.68 3.96-2 .08-.08.2-.16.36-.12l5.68 1c.2.04.32.28.24.48-.12.28-.28.6-.4.76l-.08.16c-.08.16-.16.32-.28.48-.12.2-.24.36-.36.52l-.08.12c-.04.04-.08.08-.12.12l-.08.08c-.08.12-.16.2-.24.28l-.04.08c-.16.16-.28.28-.4.44l-.08.08c-.08.08-.16.16-.28.24v.04c-.12.08-.2.2-.32.28l-.12.08-.12-.12.12.16c-.16.12-.32.24-.48.36l-.12.08c-.16.12-.36.24-.52.36l-.08.04c-.2.16-.4.28-.64.4l-.04.04c-.04 0-.12.04-.16.08h-.04c-.08.04-.16.08-.28.16h-.04c-.2.12-.4.2-.56.28h-.04c-.16.04-.24.08-.36.12l-.16.08c-.12.04-.28.08-.4.12h-.04c-.16.08-.32.12-.48.16l-.12.04c-.32.08-.64.12-1 .2h-.12c-.32.04-.68.08-1 .12h-.12c-.2 0-.36 0-.52 0s-.32 0-.52 0c-.04 0-.08 0-.12 0h-.04c-.12-.04-.24-.04-.36-.04h-.04c-.04 0-.08 0-.12-.04-.2 0-.36 0-.52-.04h-.08c-.16-.04-.28-.08-.4-.08l-.16-.04c-.12-.04-.24-.04-.36-.08h-.04c-.04-.04-.08-.04-.12-.04-.16-.04-.32-.08-.48-.12-.16-.08-.32-.12-.48-.16 0-.04-.04-.04-.08-.04l-.04-.04c-.12-.04-.24-.08-.32-.12h-.04c-.04-.04-.08-.04-.12-.04-.16-.08-.28-.16-.44-.2-.16-.08-.28-.16-.44-.24-.04 0-.08-.04-.12-.04v-.04c-.12-.04-.2-.08-.32-.16l-.12-.08c-.16-.08-.28-.16-.4-.24-1.36-.92-2.52-2.08-3.36-3.48-.08-.08-.12-.2-.2-.32l-.04-.08c-.04-.08-.12-.2-.16-.32l-.04-.08c0-.04-.04-.04-.04-.08-.24-.44-.4-.92-.56-1.4-.12-.24-.16-.48-.24-.68-.04-.16-.08-.36-.12-.56-.12-.52-.16-1.08-.2-1.64 0-.2 0-.4 0-.56 0-.2 0-.4 0-.6.04-.96.24-1.96.56-2.88.08-.32.2-.6.32-.84.04-.16.12-.32.2-.48 0 0 .04-.04.04-.08l.04-.08c0-.04.04-.08.04-.12.04-.04.04-.08.08-.08l.08-.2c.08-.12.16-.28.24-.4.84-1.36 2-2.56 3.36-3.48.12-.08.24-.16.4-.24l.12-.08c.12-.04.2-.12.32-.16v-.04c.04 0 .08-.04.12-.04.16-.08.28-.16.44-.24.16-.04.28-.12.44-.2.04 0 .08 0 .12-.04h.04c.08-.04.2-.08.32-.12l.04-.04c.04 0 .08 0 .08-.04.16-.04.32-.08.48-.16.16-.04.32-.08.48-.12.04 0 .08 0 .12-.04h.04c.12-.04.24-.04.36-.08h.08c.16-.04.4-.08.52-.12h.04c.16 0 .32-.04.52-.04.04 0 .08-.04.12-.04h.04.36.04c.04-.04.08-.04.12-.04h.52.52.12c.32.04.68.08 1 .12l.16.04c.32.04.64.08.96.16l.12.04c.16.04.32.12.48.16h.04c.12.04.28.08.4.12.04.04.08.04.12.08.16.04.24.08.36.12h.08c.16.08.36.2.56.28h.04c.12.08.2.12.28.16h.04l-.08.16.08-.16c.04.04.12.08.16.12.2.08.48.28.68.4h.04c.2.12.36.24.56.4.04.04.08.08.12.08.16.12.32.24.48.4l.08.04c.12.12.24.24.36.32v.04c.12.08.2.16.28.24l.08.08c.12.16.24.28.36.44l-.08.12.12-.12.04.08c.08.08.16.16.24.28l.08.08c.08.08.16.2.24.32s.16.2.2.28l.12.2c.04.08.12.16.16.24l.2.36c.44.72.76 1.48 1 2.28zm-6.52.72c.2 0 .36-.2.36-.4-.28-1.56-2.08-2.76-4.4-2.76-2.08 0-4.08 1.2-4.36 2.76-.04.2.12.4.32.4zm19.412-8.36c.16 0 .32.16.32.36l-.2 4.96c0 .2-.16.36-.36.32-.6-.04-1.76-.12-2.44.04-.76.2-1.2.8-1.32 1.08-.32.72-.32 1.36-.32 2.2v11.92c0 .2-.16.32-.36.32h-6.32c-.2 0-.32-.12-.32-.32v-20.52c0-.2.12-.36.32-.36h5.92c.2 0 .36.16.36.36v.6c0 .12.12.2.24.12 1.4-.88 3.08-1.04 4.48-1.08zm13.834 15.72c.2 0 .36.16.32.36l-.76 5.04c0 .16-.16.28-.32.28-.72.04-2.64.16-3.24.16-.04 0-.08 0-.12 0-3.6-.2-5.52-2.04-5.52-5.36v-10.16c0-.2-.12-.36-.32-.36h-2.2c-.2 0-.32-.16-.32-.32v-5.04c0-.16.12-.32.32-.32h2.2c.2 0 .32-.16.32-.36v-5.8c0-.2.16-.32.36-.32h5.92c.2 0 .36.12.36.32v5.8c0 .2.12.36.32.36h2.2c.2 0 .32.16.32.32v5.04c0 .16-.12.32-.32.32h-2.2c-.2 0-.32.16-.32.36-.04 1.76-.04 6.96-.04 7v.16c0 .64-.04 1.52.48 2.04.32.32.76.48 1.4.48zm21.445-15.72c.24 0 .4.24.32.48l-6.68 18.52-3.08 8.84c-.08.12-.2.24-.32.24h-6.6c-.24 0-.4-.24-.32-.48l2.56-7.64c.04-.04.04-.12 0-.2l-7.04-19.28c-.08-.24.08-.48.32-.48h5.92c.12 0 .24.12.28.24l3.88 10.44c.12.32.52.28.64 0l3.56-10.44c.04-.12.16-.24.32-.24z"/></g></svg>
