<svg xmlns="http://www.w3.org/2000/svg" width="1581" height="1015" fill="none" xmlns:v="https://vecta.io/nano"><path d="M298.298 506.914c19.219-81.49 72.972-155.007 152-207.887s178.382-81.812 280.947-81.812v115.863V448.94c-35.897 0-70.672 10.127-98.331 28.635s-46.474 44.239-53.2 72.76l-281.416-43.421z" fill="#ffd647"/><path d="M731.245 172c-102.565 0-201.919 28.932-280.947 81.812v45.216c79.028-52.88 178.382-81.812 280.947-81.812V172z" fill="url(#A)"/><path d="M450.298 253.812c-79.028 52.88-132.781 126.397-152 207.886v45.216c19.219-81.49 72.972-155.007 152-207.887v-45.215z" fill="url(#B)"/><path d="M632.914 432.359c27.659-18.508 62.433-28.634 98.331-28.634v45.216c-35.898 0-70.672 10.126-98.331 28.634v-45.216z" fill="url(#C)"/><path d="M580 504.76c6.727-28.521 25.54-54.252 53.2-72.76v45.216c-27.66 18.508-46.473 44.239-53.2 72.76V504.76z" fill="url(#D)"/><path d="M298.298 461.698l281.416 43.421v45.216l-281.416-43.421v-45.216z" fill="url(#E)"/><path d="M297.811 461.699c19.23-81.49 73.013-155.007 152.085-207.887S628.378 172 731 172v231.725c-35.918 0-70.711 10.126-98.386 28.634s-46.5 44.239-53.23 72.761l-281.573-43.421z" fill="#ffd647"/><path d="M402.38 807.64c-44.351-41.771-76.608-91.411-94.304-145.124-10.369-31.471-15.578-63.852-15.586-96.275-.006-22.915 2.585-45.85 7.789-68.501l280.778 44.475c-1.817 7.909-2.724 15.918-2.726 23.92-.003 11.367 1.82 22.719 5.455 33.751 6.193 18.8 17.483 36.174 33.006 50.794L402.38 807.64z" fill="#537ff1"/><path d="M581.056 495.902l-280.778-44.474v46.312l280.778 44.475v-46.313z" fill="url(#F)"/><path d="M300.279 451.428c-5.204 22.65-7.795 45.586-7.789 68.5v46.155c.006-22.862 2.597-45.744 7.789-68.343v-46.312z" fill="url(#G)"/><path d="M578.33 519.823c.002-8.002.909-16.011 2.726-23.921v46.313c-1.817 7.91-2.724 15.919-2.726 23.921v-46.313z" fill="url(#H)"/><path d="M578.33 519.876v-.054.054c.003 11.348 1.826 22.682 5.455 33.697v46.313c-3.635-11.033-5.458-22.385-5.455-33.751v-46.259z" fill="url(#I)"/><path d="M578.33 519.822v.054-.054z" fill="url(#I)"/><path d="M292.49 519.928c.008 32.423 5.217 64.803 15.586 96.275v46.312c-10.369-31.471-15.578-63.852-15.586-96.275v-46.312z" fill="url(#J)"/><path d="M616.791 604.367c-15.522-14.62-26.812-31.994-33.006-50.794v46.313c6.194 18.799 17.484 36.174 33.006 50.794v-46.313z" fill="url(#K)"/><path d="M402.379 761.328L616.792 604.367V650.68L402.379 807.641V761.328Z" fill="url(#L)"/><path d="M308.076 616.203c17.697 53.713 49.954 103.354 94.304 145.125v46.313c-44.35-41.772-76.607-91.412-94.304-145.125v-46.313z" fill="url(#M)"/><path d="M401.951 761.379c-44.375-41.754-76.65-91.374-94.356-145.065s-20.375-110.03-7.801-164.708l280.934 44.456c-4.401 19.137-3.467 38.856 2.73 57.648s17.494 36.159 33.025 50.773L401.951 761.379z" fill="#ff9a02"/><path d="M473.764 861.575c-26.106-15.749-50.045-33.836-71.384-53.935l214.412-156.96c7.469 7.034 15.848 13.365 24.984 18.877L473.764 861.575z" fill="#ffae4c"/><path d="M641.776 623.244c-9.137-5.512-17.515-11.842-24.984-18.877v46.313c7.469 7.034 15.847 13.365 24.984 18.877v-46.313z" fill="url(#N)"/><path d="M616.792 604.367L402.38 761.328v46.313L616.792 650.68v-46.313z" fill="url(#O)"/><path d="M473.764 815.262l168.013-192.018v46.313L473.764 861.575v-46.313z" fill="url(#P)"/><path d="M402.38 761.328c21.339 20.099 45.278 38.186 71.384 53.935v46.312c-26.106-15.749-50.045-33.836-71.384-53.934v-46.313z" fill="url(#Q)"/><path d="M473.375 815.291c-26.121-15.742-50.073-33.822-71.424-53.912l214.532-156.896c7.473 7.031 15.856 13.359 24.998 18.869L473.375 815.291z" fill="#ffae4c"/><path d="M645.652 929.066c-45.085-11.882-87.583-29.445-125.934-52.045l172.596-192.683c13.423 7.91 28.297 14.057 44.077 18.216l-90.739 226.512z" fill="#3cc3df"/><path d="M736.391 656.081c-15.78-4.159-30.654-10.306-44.077-18.216v46.473c13.423 7.91 28.297 14.057 44.077 18.216v-46.473z" fill="url(#R)"/><path d="M692.314 637.865L519.718 830.548v46.473l172.596-192.683v-46.473z" fill="url(#S)"/><path d="M645.652 882.593l90.739-226.512v46.473l-90.739 226.512v-46.473z" fill="url(#T)"/><path d="M519.718 830.547c38.351 22.601 80.849 40.164 125.934 52.045v46.473c-45.085-11.881-87.583-29.445-125.934-52.045v-46.473z" fill="url(#U)"/><path d="M645.979 883.062c-45.06-11.884-87.534-29.452-125.864-52.057l172.5-192.728c13.416 7.912 28.282 14.06 44.053 18.22l-90.689 226.565z" fill="#2d80ef"/><path d="M785.25 334.353V215.416a556.3 556.3 0 0 1 56.619 2.885L805.5 453.8c-6.573-.673-13.875-1-20.5-1l.25-118.447z" fill="#34e098"/><path d="M805.067 407.884l36.802-235.998v46.416L805.5 453.8l-.433-45.916z" fill="url(#V)"/><path d="M785 407.3c6.686 0 13.866.033 20.5.7v45.8c-6.634-.667-13.814-1-20.5-1v-45.5z" fill="url(#W)"/><path d="M785.5 169a554.82 554.82 0 0 1 56.588 2.89l-36.782 236.346c-6.57-.673-13.184-1.011-19.806-1.011V169z" fill="#36b07d"/><path d="M805.5 407c21.845 2.238 42.787 8.153 61.65 17.364v46.473c-18.863-9.212-39.89-15.126-61.735-17.364V408l.085-1z" fill="url(#X)"/><path d="M867.15 424.364c18.864 9.211 35.147 21.517 47.808 36.128v46.473c-12.661-14.611-28.944-26.917-47.808-36.128v-46.473z" fill="#bc86b7"/><path d="M914.958 460.491c12.66 14.611 21.595 31.112 25.89 48.628l-.176 46.567c-4.295-17.516-13.054-34.111-25.714-48.722v-46.473z" fill="url(#Y)"/><path d="M940.672 555.686l.176-46.567c.825 3.365 1.886 6.613 2.5 10 .895 4.938 1.001 10.026 1 15l-.638 46.614c.003-8.387-1.009-16.776-3.038-25.047z" fill="#9a4a94"/><path d="M943.71 534.261c-.002 9.376-1.272 18.748-3.808 27.948v46.473c2.536-9.2 3.806-18.572 3.808-27.948v-46.473z" fill="url(#Z)"/><g fill="#ddc3db"><path d="M1237.35 534.155v.156-.156z"/><path d="M1237.35 534.155v.156 46.317c.01 26.841-3.62 53.673-10.88 80.009v-46.473c7.24-26.285 10.87-53.064 10.88-79.853v-.156z"/></g><path d="M1148.97 751.927c37.38-41.044 63.78-87.967 77.5-137.763v46.472c-13.72 49.797-40.12 96.72-77.5 137.764v-46.473z" fill="url(#a)"/><path d="M1008 853.5c54.64-25.282 103.6-60.53 140.98-101.574v46.473c-37.38 41.044-87.34 76.819-141.98 102.101l1-47z" fill="#bc86b7"/><path d="M831.348 899.346c62.582-5.201 123.134-20.946 177.782-46.227v46.473c-54.648 25.281-115.2 41.026-177.782 46.227v-46.473z" fill="url(#b)"/><path d="M646 882.713c59.83 15.768 123.061 21.226 185.643 16.025v46.473c-62.582 5.201-125.813-.257-185.643-16.025v-46.473z" fill="#9a4a94"/><path d="M842.088 171.89c62.379 6.397 122.424 23.299 176.292 49.623 53.86 26.325 100.36 61.491 136.51 103.248 36.16 41.756 61.17 89.181 73.43 139.238 12.27 50.057 11.52 101.642-2.19 151.451-13.72 49.808-40.1 96.742-77.45 137.795-37.36 41.054-84.87 75.321-139.48 100.608-54.615 25.288-115.134 41.036-177.681 46.238s-125.743-.257-185.54-16.029l90.689-226.565c20.929 5.52 43.047 7.431 64.939 5.61s43.073-7.333 62.188-16.183 35.742-20.844 48.816-35.213 22.308-30.796 27.108-48.229 5.063-35.487.77-53.007-13.047-34.119-25.701-48.734-28.928-26.923-47.781-36.136-39.869-15.13-61.701-17.369l36.782-236.346z" fill="#790e70"/><g fill="#242527"><path d="M1209.46 126.152v3.288h-6.87v3.552h5.14v3.192h-5.14V143h-4.1v-16.848h10.97zm8.25 17.04c-1.31 0-2.5-.28-3.55-.84-1.04-.56-1.87-1.36-2.47-2.4s-.89-2.256-.89-3.648c0-1.376.3-2.584.91-3.624.61-1.056 1.44-1.864 2.5-2.424 1.05-.56 2.24-.84 3.55-.84s2.49.28 3.55.84 1.89 1.368 2.5 2.424c.6 1.04.91 2.248.91 3.624s-.31 2.592-.94 3.648c-.61 1.04-1.45 1.84-2.52 2.4-1.05.56-2.24.84-3.55.84zm0-3.552a2.63 2.63 0 0 0 1.99-.864c.56-.576.84-1.4.84-2.472s-.27-1.896-.81-2.472a2.57 2.57 0 0 0-1.97-.864 2.57 2.57 0 0 0-1.99.864c-.53.56-.8 1.384-.8 2.472 0 1.072.26 1.896.77 2.472a2.57 2.57 0 0 0 1.97.864zm22.41-10.032V143h-4.11v-1.824c-.41.592-.98 1.072-1.7 1.44-.7.352-1.49.528-2.35.528-1.03 0-1.93-.224-2.71-.672-.79-.464-1.4-1.128-1.83-1.992s-.65-1.88-.65-3.048v-7.824h4.08v7.272c0 .896.24 1.592.7 2.088s1.09.744 1.87.744c.8 0 1.43-.248 1.9-.744.46-.496.69-1.192.69-2.088v-7.272h4.11zm11.11-.144c1.56 0 2.81.512 3.74 1.536.94 1.008 1.42 2.4 1.42 4.176V143h-4.08v-7.272c0-.896-.24-1.592-.7-2.088s-1.09-.744-1.87-.744c-.79 0-1.41.248-1.87.744-.47.496-.7 1.192-.7 2.088V143h-4.1v-13.392h4.1v1.776c.42-.592.98-1.056 1.68-1.392.7-.352 1.5-.528 2.38-.528zm7.19 6.816c0-1.376.26-2.584.77-3.624.53-1.04 1.24-1.84 2.14-2.4.89-.56 1.89-.84 3-.84.88 0 1.68.184 2.4.552.73.368 1.31.864 1.72 1.488v-6.216h4.11V143h-4.11v-1.92c-.38.64-.93 1.152-1.65 1.536-.71.384-1.53.576-2.47.576-1.11 0-2.11-.28-3-.84-.9-.576-1.61-1.384-2.14-2.424-.51-1.056-.77-2.272-.77-3.648zm10.03.024c0-1.024-.28-1.832-.86-2.424a2.73 2.73 0 0 0-2.06-.888c-.82 0-1.52.296-2.09.888-.56.576-.84 1.376-.84 2.4s.28 1.84.84 2.448c.57.592 1.27.888 2.09.888a2.73 2.73 0 0 0 2.06-.888c.58-.592.86-1.4.86-2.424zm6.26-.024c0-1.376.26-2.584.77-3.624.53-1.04 1.24-1.84 2.14-2.4.89-.56 1.89-.84 3-.84.94 0 1.76.192 2.47.576.72.384 1.27.888 1.65 1.512v-1.896h4.11V143h-4.11v-1.896c-.4.624-.96 1.128-1.68 1.512-.7.384-1.52.576-2.47.576-1.09 0-2.08-.28-2.97-.84-.9-.576-1.61-1.384-2.14-2.424-.51-1.056-.77-2.272-.77-3.648zm10.03.024c0-1.024-.28-1.832-.86-2.424a2.73 2.73 0 0 0-2.06-.888c-.82 0-1.52.296-2.09.888-.56.576-.84 1.376-.84 2.4s.28 1.84.84 2.448c.57.592 1.27.888 2.09.888a2.73 2.73 0 0 0 2.06-.888c.58-.592.86-1.4.86-2.424zm14.54 3.216V143h-2.09c-1.49 0-2.65-.36-3.48-1.08-.83-.736-1.25-1.928-1.25-3.576v-5.328h-1.63v-3.408h1.63v-3.264h4.11v3.264h2.69v3.408h-2.69v5.376c0 .4.09.688.29.864.19.176.51.264.96.264h1.46zm4.35-11.304c-.72 0-1.31-.208-1.78-.624-.44-.432-.67-.96-.67-1.584 0-.64.23-1.168.67-1.584.47-.432 1.06-.648 1.78-.648.7 0 1.28.216 1.73.648a2.04 2.04 0 0 1 .69 1.584 2.09 2.09 0 0 1-.69 1.584c-.45.416-1.03.624-1.73.624zm2.04 1.392V143h-4.1v-13.392h4.1zm9.07 13.584c-1.31 0-2.5-.28-3.55-.84-1.04-.56-1.87-1.36-2.47-2.4s-.89-2.256-.89-3.648c0-1.376.3-2.584.91-3.624.61-1.056 1.44-1.864 2.5-2.424 1.05-.56 2.24-.84 3.55-.84s2.49.28 3.55.84 1.89 1.368 2.5 2.424c.6 1.04.91 2.248.91 3.624s-.31 2.592-.94 3.648c-.61 1.04-1.45 1.84-2.52 2.4-1.05.56-2.24.84-3.55.84zm0-3.552a2.63 2.63 0 0 0 1.99-.864c.56-.576.84-1.4.84-2.472s-.27-1.896-.81-2.472a2.57 2.57 0 0 0-1.97-.864 2.57 2.57 0 0 0-1.99.864c-.53.56-.8 1.384-.8 2.472 0 1.072.26 1.896.77 2.472a2.57 2.57 0 0 0 1.97.864zm17.35-10.176c1.56 0 2.81.512 3.74 1.536.94 1.008 1.42 2.4 1.42 4.176V143h-4.08v-7.272c0-.896-.24-1.592-.7-2.088s-1.09-.744-1.87-.744c-.79 0-1.41.248-1.87.744-.47.496-.7 1.192-.7 2.088V143h-4.1v-13.392h4.1v1.776c.42-.592.98-1.056 1.68-1.392.7-.352 1.5-.528 2.38-.528zm-51.75 43.248l.74-.6 3.7-3.192c.91-.832 1.68-1.704 2.3-2.616s.94-1.8.94-2.664c0-.656-.16-1.168-.46-1.536s-.76-.552-1.37-.552-1.09.232-1.44.696c-.33.448-.5 1.088-.5 1.92h-3.96c.03-1.36.32-2.496.86-3.408.56-.912 1.29-1.584 2.19-2.016.91-.432 1.92-.648 3.02-.648 1.9 0 3.34.488 4.3 1.464.97.976 1.46 2.248 1.46 3.816 0 1.712-.58 3.304-1.75 4.776-1.17 1.456-2.66 2.88-4.47 4.272h6.48v3.336h-12.04v-3.048zm16.18 3.48c-.72 0-1.31-.208-1.78-.624-.45-.432-.67-.96-.67-1.584 0-.64.22-1.176.67-1.608.47-.432 1.06-.648 1.78-.648.7 0 1.28.216 1.73.648.46.432.69.968.69 1.608a2.09 2.09 0 0 1-.69 1.584c-.45.416-1.03.624-1.73.624zm4.44-9.192c0-2.752.53-4.92 1.59-6.504 1.07-1.584 2.79-2.376 5.16-2.376s4.08.792 5.13 2.376c1.08 1.584 1.61 3.752 1.61 6.504 0 2.784-.53 4.968-1.61 6.552-1.05 1.584-2.76 2.376-5.13 2.376s-4.09-.792-5.16-2.376c-1.06-1.584-1.59-3.768-1.59-6.552zm9.46 0c0-1.616-.18-2.856-.53-3.72-.35-.88-1.08-1.32-2.18-1.32-1.11 0-1.83.44-2.19 1.32-.35.864-.52 2.104-.52 3.72 0 1.088.06 1.992.19 2.712.13.704.38 1.28.77 1.728.4.432.98.648 1.75.648s1.34-.216 1.73-.648c.4-.448.66-1.024.79-1.728.13-.72.19-1.624.19-2.712zm5.86-4.104c0-1.296.37-2.296 1.11-3 .75-.704 1.72-1.056 2.9-1.056 1.19 0 2.15.352 2.88 1.056.74.704 1.11 1.704 1.11 3s-.37 2.296-1.11 3c-.73.704-1.69 1.056-2.88 1.056-1.18 0-2.15-.352-2.9-1.056-.74-.704-1.11-1.704-1.11-3zm16.3-3.792L1323.34 176h-3.96l9.24-16.896h3.96zm-12.31 2.136c-.77 0-1.15.552-1.15 1.656 0 1.088.38 1.632 1.15 1.632.37 0 .65-.136.86-.408s.31-.68.31-1.224c0-1.104-.39-1.656-1.17-1.656zm7.44 10.968c0-1.296.37-2.296 1.1-3 .74-.704 1.7-1.056 2.88-1.056 1.19 0 2.15.352 2.88 1.056.74.704 1.11 1.704 1.11 3s-.37 2.296-1.11 3c-.73.704-1.69 1.056-2.88 1.056-1.18 0-2.14-.352-2.88-1.056-.73-.704-1.1-1.704-1.1-3zm3.96-1.656c-.37 0-.66.136-.87.408-.19.272-.28.688-.28 1.248 0 1.088.38 1.632 1.15 1.632.37 0 .65-.136.86-.408s.31-.68.31-1.224-.1-.952-.31-1.224c-.21-.288-.49-.432-.86-.432zM808 187.482a8 8 0 1 0 16 0 8 8 0 1 0-16 0zm10.484-35.793v-1.5h-1.4l-.097 1.397 1.497.103zM816 187.482l1.496.104 2.484-35.793-1.496-.104-1.497-.103-2.483 35.792 1.496.104zm2.484-35.793v1.5H1339v-1.5-1.5H818.484v1.5zm475.976 440.479c-1.59 0-3.04-.368-4.37-1.104-1.31-.736-2.36-1.76-3.15-3.072-.76-1.328-1.15-2.816-1.15-4.464s.39-3.128 1.15-4.44c.79-1.312 1.84-2.336 3.15-3.072 1.33-.736 2.78-1.104 4.37-1.104 1.58 0 3.03.368 4.34 1.104a7.97 7.97 0 0 1 3.12 3.072c.77 1.312 1.15 2.792 1.15 4.44s-.38 3.136-1.15 4.464c-.77 1.312-1.81 2.336-3.12 3.072s-2.76 1.104-4.34 1.104zm0-3.744c1.34 0 2.41-.448 3.21-1.344.82-.896 1.23-2.08 1.23-3.552 0-1.488-.41-2.672-1.23-3.552-.8-.896-1.87-1.344-3.21-1.344-1.36 0-2.45.44-3.27 1.32-.8.88-1.2 2.072-1.2 3.576 0 1.488.4 2.68 1.2 3.576.82.88 1.91 1.32 3.27 1.32zm19.05-9.96c1.57 0 2.82.512 3.75 1.536.94 1.008 1.41 2.4 1.41 4.176V592h-4.08v-7.272c0-.896-.23-1.592-.69-2.088-.47-.496-1.09-.744-1.87-.744-.79 0-1.41.248-1.88.744-.46.496-.69 1.192-.69 2.088V592h-4.11v-13.392h4.11v1.776c.41-.592.97-1.056 1.68-1.392.7-.352 1.49-.528 2.37-.528zm18.34 3.408v3.408h-10.56v-3.408h10.56zm2.9 1.68c0-1.664.36-3.144 1.08-4.44.72-1.312 1.72-2.328 3-3.048 1.3-.736 2.76-1.104 4.39-1.104 2 0 3.72.528 5.14 1.584s2.38 2.496 2.86 4.32h-4.52c-.33-.704-.81-1.24-1.44-1.608-.6-.368-1.3-.552-2.08-.552-1.27 0-2.29.44-3.08 1.32-.78.88-1.17 2.056-1.17 3.528s.39 2.648 1.17 3.528c.79.88 1.81 1.32 3.08 1.32.78 0 1.48-.184 2.08-.552.63-.368 1.11-.904 1.44-1.608h4.52c-.48 1.824-1.44 3.264-2.86 4.32-1.42 1.04-3.14 1.56-5.14 1.56-1.63 0-3.09-.36-4.39-1.08-1.28-.736-2.28-1.752-3-3.048s-1.08-2.776-1.08-4.44zm27.21-5.088c1.54 0 2.77.512 3.7 1.536.93 1.008 1.39 2.4 1.39 4.176V592h-4.08v-7.272c0-.896-.23-1.592-.7-2.088-.46-.496-1.08-.744-1.87-.744-.78 0-1.41.248-1.87.744s-.7 1.192-.7 2.088V592h-4.1v-17.76h4.1v6.168c.42-.592.99-1.064 1.71-1.416s1.53-.528 2.42-.528zm7.13 6.816c0-1.376.25-2.584.76-3.624.53-1.04 1.24-1.84 2.14-2.4s1.9-.84 3-.84c.94 0 1.77.192 2.47.576.72.384 1.27.888 1.66 1.512v-1.896h4.1V592h-4.1v-1.896c-.4.624-.96 1.128-1.68 1.512-.71.384-1.53.576-2.47.576a5.52 5.52 0 0 1-2.98-.84c-.9-.576-1.61-1.384-2.14-2.424-.51-1.056-.76-2.272-.76-3.648zm10.03.024c0-1.024-.29-1.832-.87-2.424-.56-.592-1.24-.888-2.06-.888a2.81 2.81 0 0 0-2.09.888c-.56.576-.84 1.376-.84 2.4s.28 1.84.84 2.448a2.81 2.81 0 0 0 2.09.888c.82 0 1.5-.296 2.06-.888.58-.592.87-1.4.87-2.424zm9.13-8.088c-.72 0-1.31-.208-1.77-.624-.45-.432-.67-.96-.67-1.584 0-.64.22-1.168.67-1.584.46-.432 1.05-.648 1.77-.648.71 0 1.28.216 1.73.648.47.416.7.944.7 1.584 0 .624-.23 1.152-.7 1.584-.45.416-1.02.624-1.73.624zm2.04 1.392V592h-4.1v-13.392h4.1zm11.14-.144c1.57 0 2.81.512 3.74 1.536.95 1.008 1.42 2.4 1.42 4.176V592h-4.08v-7.272c0-.896-.23-1.592-.7-2.088-.46-.496-1.09-.744-1.87-.744s-1.41.248-1.87.744c-.47.496-.7 1.192-.7 2.088V592h-4.1v-13.392h4.1v1.776c.42-.592.98-1.056 1.68-1.392.71-.352 1.5-.528 2.38-.528zm25.22-3.312v3.288h-4.47V592h-4.1v-13.56h-4.47v-3.288h13.04zm6.16 5.688a5.3 5.3 0 0 1 1.8-1.728c.72-.432 1.52-.648 2.4-.648v4.344h-1.13c-1.02 0-1.79.224-2.3.672-.51.432-.77 1.2-.77 2.304V592h-4.1v-13.392h4.1v2.232zm18.79 4.248a10.1 10.1 0 0 1-.08 1.2h-9.28c.06.832.32 1.472.79 1.92.48.432 1.06.648 1.75.648 1.02 0 1.74-.432 2.14-1.296h4.36c-.22.88-.63 1.672-1.22 2.376-.58.704-1.3 1.256-2.18 1.656s-1.87.6-2.96.6c-1.31 0-2.48-.28-3.5-.84s-1.82-1.36-2.4-2.4-.86-2.256-.86-3.648.28-2.608.84-3.648a5.9 5.9 0 0 1 2.4-2.4c1.02-.56 2.2-.84 3.52-.84 1.3 0 2.45.272 3.46.816s1.79 1.32 2.35 2.328c.58 1.008.87 2.184.87 3.528zm-4.2-1.08c0-.704-.24-1.264-.72-1.68s-1.08-.624-1.8-.624c-.69 0-1.28.2-1.76.6-.46.4-.75.968-.86 1.704h5.14zm5.54 1.272c0-1.376.26-2.584.77-3.624.53-1.04 1.24-1.84 2.14-2.4.89-.56 1.89-.84 3-.84.94 0 1.77.192 2.47.576.72.384 1.27.888 1.66 1.512v-1.896h4.1V592h-4.1v-1.896c-.4.624-.96 1.128-1.68 1.512-.71.384-1.53.576-2.48.576-1.08 0-2.08-.28-2.97-.84-.9-.576-1.61-1.384-2.14-2.424-.51-1.056-.77-2.272-.77-3.648zm10.04.024c0-1.024-.29-1.832-.87-2.424a2.73 2.73 0 0 0-2.06-.888 2.81 2.81 0 0 0-2.09.888c-.56.576-.84 1.376-.84 2.4s.28 1.84.84 2.448a2.81 2.81 0 0 0 2.09.888 2.73 2.73 0 0 0 2.06-.888c.58-.592.87-1.4.87-2.424zm12.52 6.888c-1.17 0-2.21-.2-3.12-.6s-1.63-.944-2.16-1.632a4.34 4.34 0 0 1-.89-2.352h4.06c.04.464.26.84.64 1.128.39.288.86.432 1.42.432.51 0 .9-.096 1.18-.288.28-.208.43-.472.43-.792 0-.384-.2-.664-.6-.84-.4-.192-1.05-.4-1.95-.624-.96-.224-1.76-.456-2.4-.696a4.26 4.26 0 0 1-1.65-1.176c-.47-.544-.7-1.272-.7-2.184 0-.768.21-1.464.63-2.088.43-.64 1.05-1.144 1.87-1.512.83-.368 1.81-.552 2.95-.552 1.68 0 3 .416 3.96 1.248.98.832 1.54 1.936 1.68 3.312h-3.79c-.07-.464-.27-.832-.63-1.104-.33-.272-.78-.408-1.34-.408-.48 0-.85.096-1.1.288-.26.176-.39.424-.39.744 0 .384.2.672.6.864.42.192 1.06.384 1.92.576.99.256 1.8.512 2.43.768.62.24 1.16.64 1.63 1.2.48.544.73 1.28.74 2.208 0 .784-.22 1.488-.67 2.112-.43.608-1.06 1.088-1.9 1.44-.81.352-1.76.528-2.85.528zm21.16-13.584V592h-4.11v-1.824c-.41.592-.98 1.072-1.7 1.44-.71.352-1.49.528-2.35.528-1.03 0-1.93-.224-2.72-.672-.78-.464-1.39-1.128-1.82-1.992s-.65-1.88-.65-3.048v-7.824h4.08v7.272c0 .896.23 1.592.7 2.088.46.496 1.09.744 1.87.744.8 0 1.43-.248 1.9-.744.46-.496.69-1.192.69-2.088v-7.272h4.11zm7.05 2.232a5.3 5.3 0 0 1 1.8-1.728c.72-.432 1.52-.648 2.4-.648v4.344h-1.13c-1.02 0-1.79.224-2.3.672-.52.432-.77 1.2-.77 2.304V592h-4.11v-13.392h4.11v2.232zm19.84-2.232l-8.4 19.752h-4.42l3.08-6.816-5.45-12.936h4.58l3.1 8.376 3.07-8.376h4.44zm-60.13 33.448h-7.49v3.312c.32-.352.77-.64 1.34-.864.58-.224 1.2-.336 1.87-.336 1.2 0 2.2.272 2.98.816.8.544 1.38 1.248 1.75 2.112s.55 1.8.55 2.808c0 1.872-.52 3.36-1.58 4.464-1.06 1.088-2.54 1.632-4.46 1.632-1.28 0-2.4-.216-3.34-.648-.94-.448-1.67-1.064-2.18-1.848-.52-.784-.8-1.688-.84-2.712h4c.1.496.33.912.7 1.248.37.32.87.48 1.51.48.75 0 1.31-.24 1.68-.72s.55-1.12.55-1.92c0-.784-.19-1.384-.57-1.8-.39-.416-.95-.624-1.68-.624-.55 0-.99.136-1.35.408-.35.256-.58.6-.69 1.032h-3.96v-10.44h11.21v3.6zm3.41 1.368c.07-1.712.63-3.032 1.68-3.96 1.06-.928 2.49-1.392 4.3-1.392 1.2 0 2.22.208 3.07.624.86.416 1.51.984 1.94 1.704.45.72.68 1.528.68 2.424 0 1.056-.27 1.92-.8 2.592-.52.656-1.14 1.104-1.84 1.344v.096c.91.304 1.63.808 2.16 1.512.52.704.79 1.608.79 2.712 0 .992-.23 1.872-.7 2.64-.45.752-1.11 1.344-1.99 1.776-.86.432-1.9.648-3.1.648-1.92 0-3.45-.472-4.6-1.416-1.14-.944-1.74-2.368-1.8-4.272h3.98c.02.704.22 1.264.6 1.68.38.4.94.6 1.68.6.62 0 1.1-.176 1.44-.528.35-.368.53-.848.53-1.44 0-.768-.25-1.32-.75-1.656-.48-.352-1.25-.528-2.32-.528h-.77v-3.336h.77c.81 0 1.47-.136 1.96-.408.52-.288.77-.792.77-1.512 0-.576-.16-1.024-.48-1.344s-.76-.48-1.32-.48c-.61 0-1.06.184-1.37.552-.28.368-.45.824-.5 1.368h-4.01zm16.72 12.768c-.72 0-1.31-.208-1.78-.624-.45-.432-.67-.96-.67-1.584 0-.64.22-1.176.67-1.608.47-.432 1.06-.648 1.78-.648.7 0 1.28.216 1.73.648.46.432.69.968.69 1.608a2.09 2.09 0 0 1-.69 1.584c-.45.416-1.03.624-1.73.624zm4.44-9.192c0-2.752.53-4.92 1.59-6.504 1.07-1.584 2.79-2.376 5.16-2.376s4.08.792 5.13 2.376c1.08 1.584 1.61 3.752 1.61 6.504 0 2.784-.53 4.968-1.61 6.552-1.05 1.584-2.76 2.376-5.13 2.376s-4.09-.792-5.16-2.376c-1.06-1.584-1.59-3.768-1.59-6.552zm9.46 0c0-1.616-.18-2.856-.53-3.72-.35-.88-1.08-1.32-2.18-1.32-1.11 0-1.83.44-2.19 1.32-.35.864-.52 2.104-.52 3.72 0 1.088.06 1.992.19 2.712.13.704.38 1.28.77 1.728.4.432.98.648 1.75.648s1.34-.216 1.73-.648c.4-.448.66-1.024.79-1.728.13-.72.19-1.624.19-2.712zm5.86-4.104c0-1.296.37-2.296 1.11-3 .75-.704 1.72-1.056 2.9-1.056 1.19 0 2.15.352 2.88 1.056.74.704 1.11 1.704 1.11 3s-.37 2.296-1.11 3c-.73.704-1.69 1.056-2.88 1.056-1.18 0-2.15-.352-2.9-1.056-.74-.704-1.11-1.704-1.11-3zm16.3-3.792L1510.37 626h-3.96l9.24-16.896h3.96zm-12.31 2.136c-.77 0-1.15.552-1.15 1.656 0 1.088.38 1.632 1.15 1.632.37 0 .65-.136.86-.408s.31-.68.31-1.224c0-1.104-.39-1.656-1.17-1.656zm7.44 10.968c0-1.296.37-2.296 1.1-3 .74-.704 1.7-1.056 2.88-1.056 1.19 0 2.15.352 2.88 1.056.74.704 1.11 1.704 1.11 3s-.37 2.296-1.11 3c-.73.704-1.69 1.056-2.88 1.056-1.18 0-2.14-.352-2.88-1.056-.73-.704-1.1-1.704-1.1-3zm3.96-1.656c-.37 0-.66.136-.87.408-.19.272-.28.688-.28 1.248 0 1.088.38 1.632 1.15 1.632.37 0 .65-.136.86-.408s.31-.68.31-1.224-.1-.952-.31-1.224c-.21-.288-.49-.432-.86-.432zM1161 593a8 8 0 1 0 16 0 8 8 0 1 0-16 0zm87.31 8l-.15 1.492.07.008h.08V601zm-79.31-8l-.15 1.492 79.31 8 .15-1.492.15-1.493-79.31-8L1169 593zm79.31 8v1.5H1524V601v-1.5h-275.69v1.5z"/><path d="M310.584 876.168c-1.232 0-2.336-.2-3.312-.6s-1.76-.992-2.352-1.776c-.576-.784-.88-1.728-.912-2.832h4.368c.064.624.28 1.104.648 1.44.368.32.848.48 1.44.48.608 0 1.088-.136 1.44-.408.352-.288.528-.68.528-1.176 0-.416-.144-.76-.432-1.032-.272-.272-.616-.496-1.032-.672-.4-.176-.976-.376-1.728-.6-1.088-.336-1.976-.672-2.664-1.008s-1.28-.832-1.776-1.488-.744-1.512-.744-2.568c0-1.568.568-2.792 1.704-3.672 1.136-.896 2.616-1.344 4.44-1.344 1.856 0 3.352.448 4.488 1.344 1.136.88 1.744 2.112 1.824 3.696h-4.44c-.032-.544-.232-.968-.6-1.272-.368-.32-.84-.48-1.416-.48-.496 0-.896.136-1.2.408-.304.256-.456.632-.456 1.128 0 .544.256.968.768 1.272s1.312.632 2.4.984c1.088.368 1.968.72 2.64 1.056.688.336 1.28.824 1.776 1.464s.744 1.464.744 2.472c0 .96-.248 1.832-.744 2.616-.48.784-1.184 1.408-2.112 1.872s-2.024.696-3.288.696zm16.134-3.648V876h-2.088c-1.488 0-2.648-.36-3.48-1.08-.832-.736-1.248-1.928-1.248-3.576v-5.328h-1.632v-3.408h1.632v-3.264h4.104v3.264h2.688v3.408h-2.688v5.376c0 .4.096.688.288.864s.512.264.96.264h1.464zm6.39-7.68a5.3 5.3 0 0 1 1.8-1.728c.72-.432 1.52-.648 2.4-.648v4.344h-1.128c-1.024 0-1.792.224-2.304.672-.512.432-.768 1.2-.768 2.304V876h-4.104v-13.392h4.104v2.232zm5.345 4.44c0-1.376.256-2.584.768-3.624.528-1.04 1.24-1.84 2.136-2.4s1.896-.84 3-.84c.944 0 1.768.192 2.472.576.72.384 1.272.888 1.656 1.512v-1.896h4.104V876h-4.104v-1.896c-.4.624-.96 1.128-1.68 1.512-.704.384-1.528.576-2.472.576-1.088 0-2.08-.28-2.976-.84-.896-.576-1.608-1.384-2.136-2.424-.512-1.056-.768-2.272-.768-3.648zm10.032.024c0-1.024-.288-1.832-.864-2.424a2.73 2.73 0 0 0-2.064-.888c-.816 0-1.512.296-2.088.888-.56.576-.84 1.376-.84 2.4s.28 1.84.84 2.448c.576.592 1.272.888 2.088.888a2.73 2.73 0 0 0 2.064-.888c.576-.592.864-1.4.864-2.424zm14.537 3.216V876h-2.088c-1.488 0-2.648-.36-3.48-1.08-.832-.736-1.248-1.928-1.248-3.576v-5.328h-1.632v-3.408h1.632v-3.264h4.104v3.264h2.688v3.408h-2.688v5.376c0 .4.096.688.288.864s.512.264.96.264h1.464zm14.91-3.432c0 .384-.024.784-.072 1.2h-9.288c.064.832.328 1.472.792 1.92.48.432 1.064.648 1.752.648 1.024 0 1.736-.432 2.136-1.296h4.368c-.224.88-.632 1.672-1.224 2.376-.576.704-1.304 1.256-2.184 1.656s-1.864.6-2.952.6c-1.312 0-2.48-.28-3.504-.84s-1.824-1.36-2.4-2.4-.864-2.256-.864-3.648.28-2.608.84-3.648c.576-1.04 1.376-1.84 2.4-2.4s2.2-.84 3.528-.84c1.296 0 2.448.272 3.456.816a5.78 5.78 0 0 1 2.352 2.328c.576 1.008.864 2.184.864 3.528zm-4.2-1.08c0-.704-.24-1.264-.72-1.68s-1.08-.624-1.8-.624c-.688 0-1.272.2-1.752.6-.464.4-.752.968-.864 1.704h5.136zm11.453-5.592c.944 0 1.768.192 2.472.576.72.384 1.272.888 1.656 1.512v-1.896h4.104v13.368c0 1.232-.248 2.344-.744 3.336-.48 1.008-1.224 1.808-2.232 2.4-.992.592-2.232.888-3.72.888-1.984 0-3.592-.472-4.824-1.416-1.232-.928-1.936-2.192-2.112-3.792h4.056c.128.512.432.912.912 1.2.48.304 1.072.456 1.776.456.848 0 1.52-.248 2.016-.744.512-.48.768-1.256.768-2.328v-1.896c-.4.624-.952 1.136-1.656 1.536-.704.384-1.528.576-2.472.576-1.104 0-2.104-.28-3-.84-.896-.576-1.608-1.384-2.136-2.424-.512-1.056-.768-2.272-.768-3.648s.256-2.584.768-3.624c.528-1.04 1.24-1.84 2.136-2.4s1.896-.84 3-.84zm4.128 6.888c0-1.024-.288-1.832-.864-2.424a2.73 2.73 0 0 0-2.064-.888c-.816 0-1.512.296-2.088.888-.56.576-.84 1.376-.84 2.4s.28 1.84.84 2.448c.576.592 1.272.888 2.088.888a2.73 2.73 0 0 0 2.064-.888c.576-.592.864-1.4.864-2.424zm9.137-8.088c-.72 0-1.312-.208-1.776-.624-.448-.432-.672-.96-.672-1.584 0-.64.224-1.168.672-1.584.464-.432 1.056-.648 1.776-.648.704 0 1.28.216 1.728.648.464.416.696.944.696 1.584a2.08 2.08 0 0 1-.696 1.584c-.448.416-1.024.624-1.728.624zm2.04 1.392V876h-4.104v-13.392h4.104zm2.159 6.696c0-1.392.28-2.608.84-3.648.576-1.04 1.368-1.84 2.376-2.4 1.024-.56 2.192-.84 3.504-.84 1.68 0 3.08.44 4.2 1.32 1.136.88 1.88 2.12 2.232 3.72h-4.368c-.368-1.024-1.08-1.536-2.136-1.536a2.14 2.14 0 0 0-1.8.888c-.448.576-.672 1.408-.672 2.496s.224 1.928.672 2.52c.448.576 1.048.864 1.8.864 1.056 0 1.768-.512 2.136-1.536h4.368c-.352 1.568-1.096 2.8-2.232 3.696s-2.536 1.344-4.2 1.344c-1.312 0-2.48-.28-3.504-.84-1.008-.56-1.8-1.36-2.376-2.4-.56-1.04-.84-2.256-.84-3.648zm33.273-4.728c0 .976-.224 1.872-.672 2.688-.448.8-1.136 1.448-2.064 1.944s-2.08.744-3.456.744h-2.544V876h-4.104v-16.848h6.648c1.344 0 2.48.232 3.408.696s1.624 1.104 2.088 1.92.696 1.752.696 2.808zm-6.504 2.112c.784 0 1.368-.184 1.752-.552s.576-.888.576-1.56-.192-1.192-.576-1.56-.968-.552-1.752-.552h-2.232v4.224h2.232zm7.824 2.592c0-1.376.256-2.584.768-3.624.528-1.04 1.24-1.84 2.136-2.4s1.896-.84 3-.84c.944 0 1.768.192 2.472.576.72.384 1.272.888 1.656 1.512v-1.896h4.104V876h-4.104v-1.896c-.4.624-.96 1.128-1.68 1.512-.704.384-1.528.576-2.472.576-1.088 0-2.08-.28-2.976-.84-.896-.576-1.608-1.384-2.136-2.424-.512-1.056-.768-2.272-.768-3.648zm10.032.024c0-1.024-.288-1.832-.864-2.424a2.73 2.73 0 0 0-2.064-.888c-.816 0-1.512.296-2.088.888-.56.576-.84 1.376-.84 2.4s.28 1.84.84 2.448c.576.592 1.272.888 2.088.888a2.73 2.73 0 0 0 2.064-.888c.576-.592.864-1.4.864-2.424zm11.177-4.464a5.3 5.3 0 0 1 1.8-1.728c.72-.432 1.52-.648 2.4-.648v4.344h-1.128c-1.024 0-1.792.224-2.304.672-.512.432-.768 1.2-.768 2.304V876h-4.104v-13.392h4.104v2.232zm13.626 7.68V876h-2.088c-1.488 0-2.648-.36-3.48-1.08-.832-.736-1.248-1.928-1.248-3.576v-5.328h-1.632v-3.408h1.632v-3.264h4.104v3.264h2.688v3.408h-2.688v5.376c0 .4.096.688.288.864s.512.264.96.264h1.464zm10.446-10.056c1.568 0 2.816.512 3.744 1.536.944 1.008 1.416 2.4 1.416 4.176V876h-4.08v-7.272c0-.896-.232-1.592-.696-2.088s-1.088-.744-1.872-.744-1.408.248-1.872.744-.696 1.192-.696 2.088V876h-4.104v-13.392h4.104v1.776c.416-.592.976-1.056 1.68-1.392.704-.352 1.496-.528 2.376-.528zm20.636 6.624c0 .384-.024.784-.072 1.2h-9.288c.064.832.328 1.472.792 1.92.48.432 1.064.648 1.752.648 1.024 0 1.736-.432 2.136-1.296h4.368c-.224.88-.632 1.672-1.224 2.376-.576.704-1.304 1.256-2.184 1.656s-1.864.6-2.952.6c-1.312 0-2.48-.28-3.504-.84s-1.824-1.36-2.4-2.4-.864-2.256-.864-3.648.28-2.608.84-3.648c.576-1.04 1.376-1.84 2.4-2.4s2.2-.84 3.528-.84c1.296 0 2.448.272 3.456.816a5.78 5.78 0 0 1 2.352 2.328c.576 1.008.864 2.184.864 3.528zm-4.2-1.08c0-.704-.24-1.264-.72-1.68s-1.08-.624-1.8-.624c-.688 0-1.272.2-1.752.6-.464.4-.752.968-.864 1.704h5.136zm10.469-3.168a5.3 5.3 0 0 1 1.8-1.728c.72-.432 1.52-.648 2.4-.648v4.344H512.5c-1.024 0-1.792.224-2.304.672-.512.432-.768 1.2-.768 2.304V876h-4.104v-13.392h4.104v2.232zm11.61 11.352c-1.168 0-2.208-.2-3.12-.6s-1.632-.944-2.16-1.632c-.528-.704-.824-1.488-.888-2.352h4.056c.048.464.264.84.648 1.128s.856.432 1.416.432c.512 0 .904-.096 1.176-.288.288-.208.432-.472.432-.792 0-.384-.2-.664-.6-.84-.4-.192-1.048-.4-1.944-.624-.96-.224-1.76-.456-2.4-.696a4.31 4.31 0 0 1-1.656-1.176c-.464-.544-.696-1.272-.696-2.184a3.68 3.68 0 0 1 .624-2.088c.432-.64 1.056-1.144 1.872-1.512.832-.368 1.816-.552 2.952-.552 1.68 0 3 .416 3.96 1.248.976.832 1.536 1.936 1.68 3.312h-3.792c-.064-.464-.272-.832-.624-1.104-.336-.272-.784-.408-1.344-.408-.48 0-.848.096-1.104.288a.85.85 0 0 0-.384.744c0 .384.2.672.6.864.416.192 1.056.384 1.92.576.992.256 1.8.512 2.424.768.624.24 1.168.64 1.632 1.2.48.544.728 1.28.744 2.208 0 .784-.224 1.488-.672 2.112-.432.608-1.064 1.088-1.896 1.44-.816.352-1.768.528-2.856.528zm-204.622 18.864h-7.488v3.312c.32-.352.768-.64 1.344-.864a5.12 5.12 0 0 1 1.872-.336c1.2 0 2.192.272 2.976.816.8.544 1.384 1.248 1.752 2.112a7.09 7.09 0 0 1 .552 2.808c0 1.872-.528 3.36-1.584 4.464-1.056 1.088-2.544 1.632-4.464 1.632-1.28 0-2.392-.216-3.336-.648-.944-.448-1.672-1.064-2.184-1.848s-.792-1.688-.84-2.712h4.008c.096.496.328.912.696 1.248.368.32.872.48 1.512.48.752 0 1.312-.24 1.68-.72s.552-1.12.552-1.92c0-.784-.192-1.384-.576-1.8s-.944-.624-1.68-.624c-.544 0-.992.136-1.344.408a1.79 1.79 0 0 0-.696 1.032h-3.96v-10.44h11.208v3.6zm5.601 14.136c-.72 0-1.312-.208-1.776-.624-.448-.432-.672-.96-.672-1.584 0-.64.224-1.176.672-1.608.464-.432 1.056-.648 1.776-.648.704 0 1.28.216 1.728.648.464.432.696.968.696 1.608a2.08 2.08 0 0 1-.696 1.584c-.448.416-1.024.624-1.728.624zm4.446-9.192c0-2.752.528-4.92 1.584-6.504 1.072-1.584 2.792-2.376 5.16-2.376s4.08.792 5.136 2.376c1.072 1.584 1.608 3.752 1.608 6.504 0 2.784-.536 4.968-1.608 6.552-1.056 1.584-2.768 2.376-5.136 2.376s-4.088-.792-5.16-2.376c-1.056-1.584-1.584-3.768-1.584-6.552zm9.456 0c0-1.616-.176-2.856-.528-3.72-.352-.88-1.08-1.32-2.184-1.32s-1.832.44-2.184 1.32c-.352.864-.528 2.104-.528 3.72 0 1.088.064 1.992.192 2.712.128.704.384 1.28.768 1.728.4.432.984.648 1.752.648s1.344-.216 1.728-.648c.4-.448.664-1.024.792-1.728.128-.72.192-1.624.192-2.712zm6.2 0c0-2.752.528-4.92 1.584-6.504 1.072-1.584 2.792-2.376 5.16-2.376s4.08.792 5.136 2.376c1.072 1.584 1.608 3.752 1.608 6.504 0 2.784-.536 4.968-1.608 6.552-1.056 1.584-2.768 2.376-5.136 2.376s-4.088-.792-5.16-2.376c-1.056-1.584-1.584-3.768-1.584-6.552zm9.456 0c0-1.616-.176-2.856-.528-3.72-.352-.88-1.08-1.32-2.184-1.32s-1.832.44-2.184 1.32c-.352.864-.528 2.104-.528 3.72 0 1.088.064 1.992.192 2.712.128.704.384 1.28.768 1.728.4.432.984.648 1.752.648s1.344-.216 1.728-.648c.4-.448.664-1.024.792-1.728.128-.72.192-1.624.192-2.712zm5.864-4.104c0-1.296.368-2.296 1.104-3 .752-.704 1.72-1.056 2.904-1.056s2.144.352 2.88 1.056 1.104 1.704 1.104 3-.368 2.296-1.104 3-1.696 1.056-2.88 1.056-2.152-.352-2.904-1.056c-.736-.704-1.104-1.704-1.104-3zm16.296-3.792L364.495 909h-3.96l9.24-16.896h3.96zm-12.312 2.136c-.768 0-1.152.552-1.152 1.656 0 1.088.384 1.632 1.152 1.632.368 0 .656-.136.864-.408s.312-.68.312-1.224c0-1.104-.392-1.656-1.176-1.656zm7.44 10.968c0-1.296.368-2.296 1.104-3s1.696-1.056 2.88-1.056 2.144.352 2.88 1.056 1.104 1.704 1.104 3-.368 2.296-1.104 3-1.696 1.056-2.88 1.056-2.144-.352-2.88-1.056-1.104-1.704-1.104-3zm3.96-1.656c-.368 0-.656.136-.864.408-.192.272-.288.688-.288 1.248 0 1.088.384 1.632 1.152 1.632.368 0 .656-.136.864-.408s.312-.68.312-1.224-.104-.952-.312-1.224c-.208-.288-.496-.432-.864-.432zM585 853a8 8 0 1 0 16 0 8 8 0 1 0-16 0zm-5.964 32v1.5h.983l.392-.9-1.375-.6zM593 853l-1.375-.6-13.963 32 1.374.6 1.375.6 13.964-32L593 853zm-13.964 32v-1.5H303v1.5 1.5h276.036V885zm-434.428-99.848v3.288h-4.464V802h-4.104v-13.56h-4.464v-3.288h13.032zm6.164 5.688a5.3 5.3 0 0 1 1.8-1.728c.72-.432 1.52-.648 2.4-.648v4.344h-1.128c-1.024 0-1.792.224-2.304.672-.512.432-.768 1.2-.768 2.304V802h-4.104v-13.392h4.104v2.232zm18.785 4.248c0 .384-.024.784-.072 1.2h-9.288c.064.832.328 1.472.792 1.92.48.432 1.064.648 1.752.648 1.024 0 1.736-.432 2.136-1.296h4.368c-.224.88-.632 1.672-1.224 2.376-.576.704-1.304 1.256-2.184 1.656s-1.864.6-2.952.6c-1.312 0-2.48-.28-3.504-.84s-1.824-1.36-2.4-2.4-.864-2.256-.864-3.648.28-2.608.84-3.648c.576-1.04 1.376-1.84 2.4-2.4s2.2-.84 3.528-.84c1.296 0 2.448.272 3.456.816a5.78 5.78 0 0 1 2.352 2.328c.576 1.008.864 2.184.864 3.528zm-4.2-1.08c0-.704-.24-1.264-.72-1.68s-1.08-.624-1.8-.624c-.688 0-1.272.2-1.752.6-.464.4-.752.968-.864 1.704h5.136zm5.549 1.272c0-1.376.256-2.584.768-3.624.528-1.04 1.24-1.84 2.136-2.4s1.896-.84 3-.84c.944 0 1.768.192 2.472.576.72.384 1.272.888 1.656 1.512v-1.896h4.104V802h-4.104v-1.896c-.4.624-.96 1.128-1.68 1.512-.704.384-1.528.576-2.472.576-1.088 0-2.08-.28-2.976-.84-.896-.576-1.608-1.384-2.136-2.424-.512-1.056-.768-2.272-.768-3.648zm10.032.024c0-1.024-.288-1.832-.864-2.424a2.73 2.73 0 0 0-2.064-.888c-.816 0-1.512.296-2.088.888-.56.576-.84 1.376-.84 2.4s.28 1.84.84 2.448c.576.592 1.272.888 2.088.888a2.73 2.73 0 0 0 2.064-.888c.576-.592.864-1.4.864-2.424zm12.521 6.888c-1.168 0-2.208-.2-3.12-.6s-1.632-.944-2.16-1.632c-.528-.704-.824-1.488-.888-2.352h4.056c.048.464.264.84.648 1.128s.856.432 1.416.432c.512 0 .904-.096 1.176-.288.288-.208.432-.472.432-.792 0-.384-.2-.664-.6-.84-.4-.192-1.048-.4-1.944-.624-.96-.224-1.76-.456-2.4-.696a4.31 4.31 0 0 1-1.656-1.176c-.464-.544-.696-1.272-.696-2.184a3.68 3.68 0 0 1 .624-2.088c.432-.64 1.056-1.144 1.872-1.512.832-.368 1.816-.552 2.952-.552 1.68 0 3 .416 3.96 1.248.976.832 1.536 1.936 1.68 3.312h-3.792c-.064-.464-.272-.832-.624-1.104-.336-.272-.784-.408-1.344-.408-.48 0-.848.096-1.104.288a.85.85 0 0 0-.384.744c0 .384.2.672.6.864.416.192 1.056.384 1.92.576.992.256 1.8.512 2.424.768.624.24 1.168.64 1.632 1.2.48.544.728 1.28.744 2.208 0 .784-.224 1.488-.672 2.112-.432.608-1.064 1.088-1.896 1.44-.816.352-1.768.528-2.856.528zm21.159-13.584V802h-4.104v-1.824c-.416.592-.984 1.072-1.704 1.44-.704.352-1.488.528-2.352.528-1.024 0-1.928-.224-2.712-.672-.784-.464-1.392-1.128-1.824-1.992s-.648-1.88-.648-3.048v-7.824h4.08v7.272c0 .896.232 1.592.696 2.088s1.088.744 1.872.744c.8 0 1.432-.248 1.896-.744s.696-1.192.696-2.088v-7.272h4.104zm7.052 2.232a5.3 5.3 0 0 1 1.8-1.728c.72-.432 1.52-.648 2.4-.648v4.344h-1.128c-1.024 0-1.792.224-2.304.672-.512.432-.768 1.2-.768 2.304V802h-4.104v-13.392h4.104v2.232zm19.842-2.232l-8.4 19.752h-4.416l3.072-6.816-5.448-12.936h4.584l3.096 8.376 3.072-8.376h4.44zm-109.288 33.816c.064-1.712.624-3.032 1.68-3.96s2.488-1.392 4.296-1.392c1.2 0 2.224.208 3.072.624.864.416 1.512.984 1.944 1.704.448.72.672 1.528.672 2.424 0 1.056-.264 1.92-.792 2.592-.528.656-1.144 1.104-1.848 1.344v.096c.912.304 1.632.808 2.16 1.512s.792 1.608.792 2.712c0 .992-.232 1.872-.696 2.64-.448.752-1.112 1.344-1.992 1.776-.864.432-1.896.648-3.096.648-1.92 0-3.456-.472-4.608-1.416-1.136-.944-1.736-2.368-1.8-4.272h3.984c.016.704.216 1.264.6 1.68.384.4.944.6 1.68.6.624 0 1.104-.176 1.44-.528.352-.368.528-.848.528-1.44 0-.768-.248-1.32-.744-1.656-.48-.352-1.256-.528-2.328-.528h-.768v-3.336h.768c.816 0 1.472-.136 1.968-.408.512-.288.768-.792.768-1.512 0-.576-.16-1.024-.48-1.344s-.76-.48-1.32-.48c-.608 0-1.064.184-1.368.552-.288.368-.456.824-.504 1.368h-4.008zm16.715 12.768c-.72 0-1.312-.208-1.776-.624-.448-.432-.672-.96-.672-1.584 0-.64.224-1.176.672-1.608.464-.432 1.056-.648 1.776-.648.704 0 1.28.216 1.728.648.464.432.696.968.696 1.608a2.08 2.08 0 0 1-.696 1.584c-.448.416-1.024.624-1.728.624zm16.782-14.136h-7.488v3.312c.32-.352.768-.64 1.344-.864a5.12 5.12 0 0 1 1.872-.336c1.2 0 2.192.272 2.976.816.8.544 1.384 1.248 1.752 2.112a7.09 7.09 0 0 1 .552 2.808c0 1.872-.528 3.36-1.584 4.464-1.056 1.088-2.544 1.632-4.464 1.632-1.28 0-2.392-.216-3.336-.648-.944-.448-1.672-1.064-2.184-1.848s-.792-1.688-.84-2.712h4.008c.096.496.328.912.696 1.248.368.32.872.48 1.512.48.752 0 1.312-.24 1.68-.72s.552-1.12.552-1.92c0-.784-.192-1.384-.576-1.8s-.944-.624-1.68-.624c-.544 0-.992.136-1.344.408a1.79 1.79 0 0 0-.696 1.032h-3.96v-10.44h11.208v3.6zm2.937.84c0-1.296.368-2.296 1.104-3 .752-.704 1.72-1.056 2.904-1.056s2.144.352 2.88 1.056 1.104 1.704 1.104 3-.368 2.296-1.104 3-1.696 1.056-2.88 1.056-2.152-.352-2.904-1.056c-.736-.704-1.104-1.704-1.104-3zm16.296-3.792L175.714 835h-3.96l9.24-16.896h3.96zm-12.312 2.136c-.768 0-1.152.552-1.152 1.656 0 1.088.384 1.632 1.152 1.632.368 0 .656-.136.864-.408s.312-.68.312-1.224c0-1.104-.392-1.656-1.176-1.656zm7.44 10.968c0-1.296.368-2.296 1.104-3s1.696-1.056 2.88-1.056 2.144.352 2.88 1.056 1.104 1.704 1.104 3-.368 2.296-1.104 3-1.696 1.056-2.88 1.056-2.144-.352-2.88-1.056-1.104-1.704-1.104-3zm3.96-1.656c-.368 0-.656.136-.864.408-.192.272-.288.688-.288 1.248 0 1.088.384 1.632 1.152 1.632.368 0 .656-.136.864-.408s.312-.68.312-1.224-.104-.952-.312-1.224c-.208-.288-.496-.432-.864-.432zm266.447-45.88a8 8 0 1 0 16 0 8 8 0 1 0-16 0zm-22.171 26.526v1.5h.565l.425-.373-.99-1.127zm30.171-26.526l-.991-1.126-30.171 26.526.991 1.126.99 1.127 30.171-26.526-.99-1.127zm-30.171 26.526v-1.5H131v1.5 1.5h297.318v-1.5zM318 609a8 8 0 1 0 16 0 8 8 0 1 0-16 0zm-49.719 10v1.5h.129l.127-.022-.256-1.478zM326 609l-.256-1.477-57.719 10 .256 1.477.256 1.478 57.719-10L326 609zm-57.719 10v-1.5H58v1.5 1.5h210.281V619z"/><path d="M102.592 199.152V216h-4.104v-16.848h4.104zm11.134 3.312c1.568 0 2.816.512 3.744 1.536.944 1.008 1.416 2.4 1.416 4.176V216h-4.08v-7.272c0-.896-.232-1.592-.696-2.088s-1.088-.744-1.872-.744-1.408.248-1.872.744-.696 1.192-.696 2.088V216h-4.104v-13.392h4.104v1.776c.416-.592.976-1.056 1.68-1.392.704-.352 1.496-.528 2.376-.528zm14.036 9.696l2.904-9.552h4.368L130.282 216h-5.064l-4.752-13.392h4.392l2.904 9.552zm21.623-3.072c0 .384-.024.784-.072 1.2h-9.288c.064.832.328 1.472.792 1.92.48.432 1.064.648 1.752.648 1.024 0 1.736-.432 2.136-1.296h4.368c-.224.88-.632 1.672-1.224 2.376-.576.704-1.304 1.256-2.184 1.656s-1.864.6-2.952.6c-1.312 0-2.48-.28-3.504-.84s-1.824-1.36-2.4-2.4-.864-2.256-.864-3.648.28-2.608.84-3.648c.576-1.04 1.376-1.84 2.4-2.4s2.2-.84 3.528-.84c1.296 0 2.448.272 3.456.816a5.78 5.78 0 0 1 2.352 2.328c.576 1.008.864 2.184.864 3.528zm-4.2-1.08c0-.704-.24-1.264-.72-1.68s-1.08-.624-1.8-.624c-.688 0-1.272.2-1.752.6-.464.4-.752.968-.864 1.704h5.136zm11.814 8.184c-1.168 0-2.208-.2-3.12-.6s-1.632-.944-2.16-1.632c-.528-.704-.824-1.488-.888-2.352h4.056c.048.464.264.84.648 1.128s.856.432 1.416.432c.512 0 .904-.096 1.176-.288.288-.208.432-.472.432-.792 0-.384-.2-.664-.6-.84-.4-.192-1.048-.4-1.944-.624-.96-.224-1.76-.456-2.4-.696a4.31 4.31 0 0 1-1.656-1.176c-.464-.544-.696-1.272-.696-2.184a3.68 3.68 0 0 1 .624-2.088c.432-.64 1.056-1.144 1.872-1.512.832-.368 1.816-.552 2.952-.552 1.68 0 3 .416 3.96 1.248.976.832 1.536 1.936 1.68 3.312h-3.792c-.064-.464-.272-.832-.624-1.104-.336-.272-.784-.408-1.344-.408-.48 0-.848.096-1.104.288a.85.85 0 0 0-.384.744c0 .384.2.672.6.864.416.192 1.056.384 1.92.576.992.256 1.8.512 2.424.768.624.24 1.168.64 1.632 1.2.48.544.728 1.28.744 2.208 0 .784-.224 1.488-.672 2.112-.432.608-1.064 1.088-1.896 1.44-.816.352-1.768.528-2.856.528zm15.398-3.672V216h-2.088c-1.488 0-2.648-.36-3.48-1.08-.832-.736-1.248-1.928-1.248-3.576v-5.328h-1.632v-3.408h1.632v-3.264h4.104v3.264h2.688v3.408h-2.688v5.376c0 .4.096.688.288.864s.512.264.96.264h1.464zm8.382 3.672c-1.312 0-2.496-.28-3.552-.84-1.04-.56-1.864-1.36-2.472-2.4-.592-1.04-.888-2.256-.888-3.648 0-1.376.304-2.584.912-3.624.608-1.056 1.44-1.864 2.496-2.424s2.24-.84 3.552-.84 2.496.28 3.552.84 1.888 1.368 2.496 2.424c.608 1.04.912 2.248.912 3.624s-.312 2.592-.936 3.648a6.17 6.17 0 0 1-2.52 2.4c-1.056.56-2.24.84-3.552.84zm0-3.552c.784 0 1.448-.288 1.992-.864.56-.576.84-1.4.84-2.472s-.272-1.896-.816-2.472a2.56 2.56 0 0 0-1.968-.864c-.8 0-1.464.288-1.992.864-.528.56-.792 1.384-.792 2.472 0 1.072.256 1.896.768 2.472a2.56 2.56 0 0 0 1.968.864zm13.29-7.8a5.3 5.3 0 0 1 1.8-1.728c.72-.432 1.52-.648 2.4-.648v4.344h-1.128c-1.024 0-1.792.224-2.304.672-.512.432-.768 1.2-.768 2.304V216h-4.104v-13.392h4.104v2.232zm11.609 11.352c-1.168 0-2.208-.2-3.12-.6s-1.632-.944-2.16-1.632c-.528-.704-.824-1.488-.888-2.352h4.056c.048.464.264.84.648 1.128s.856.432 1.416.432c.512 0 .904-.096 1.176-.288.288-.208.432-.472.432-.792 0-.384-.2-.664-.6-.84-.4-.192-1.048-.4-1.944-.624-.96-.224-1.76-.456-2.4-.696a4.31 4.31 0 0 1-1.656-1.176c-.464-.544-.696-1.272-.696-2.184a3.68 3.68 0 0 1 .624-2.088c.432-.64 1.056-1.144 1.872-1.512.832-.368 1.816-.552 2.952-.552 1.68 0 3 .416 3.96 1.248.976.832 1.536 1.936 1.68 3.312h-3.792c-.064-.464-.272-.832-.624-1.104-.336-.272-.784-.408-1.344-.408-.48 0-.848.096-1.104.288a.85.85 0 0 0-.384.744c0 .384.2.672.6.864.416.192 1.056.384 1.92.576.992.256 1.8.512 2.424.768.624.24 1.168.64 1.632 1.2.48.544.728 1.28.744 2.208 0 .784-.224 1.488-.672 2.112-.432.608-1.064 1.088-1.896 1.44-.816.352-1.768.528-2.856.528zm-107.742 29.52l.744-.6 3.696-3.192c.912-.832 1.68-1.704 2.304-2.616s.936-1.8.936-2.664c0-.656-.152-1.168-.456-1.536s-.76-.552-1.368-.552-1.088.232-1.44.696c-.336.448-.504 1.088-.504 1.92h-3.96c.032-1.36.32-2.496.864-3.408.56-.912 1.288-1.584 2.184-2.016.912-.432 1.92-.648 3.024-.648 1.904 0 3.336.488 4.296 1.464.976.976 1.464 2.248 1.464 3.816 0 1.712-.584 3.304-1.752 4.776-1.168 1.456-2.656 2.88-4.464 4.272h6.48v3.336H97.936v-3.048zm13.711 0l.744-.6 3.696-3.192c.912-.832 1.68-1.704 2.304-2.616s.936-1.8.936-2.664c0-.656-.152-1.168-.456-1.536s-.76-.552-1.368-.552-1.088.232-1.44.696c-.336.448-.504 1.088-.504 1.92h-3.96c.032-1.36.32-2.496.864-3.408.56-.912 1.288-1.584 2.184-2.016.912-.432 1.92-.648 3.024-.648 1.904 0 3.336.488 4.296 1.464.976.976 1.464 2.248 1.464 3.816 0 1.712-.584 3.304-1.752 4.776-1.168 1.456-2.656 2.88-4.464 4.272h6.48v3.336h-12.048v-3.048zm16.183 3.48c-.72 0-1.312-.208-1.776-.624-.448-.432-.672-.96-.672-1.584 0-.64.224-1.176.672-1.608.464-.432 1.056-.648 1.776-.648.704 0 1.28.216 1.728.648.464.432.696.968.696 1.608a2.08 2.08 0 0 1-.696 1.584c-.448.416-1.024.624-1.728.624zm4.445-9.192c0-2.752.528-4.92 1.584-6.504 1.072-1.584 2.792-2.376 5.16-2.376s4.08.792 5.136 2.376c1.072 1.584 1.608 3.752 1.608 6.504 0 2.784-.536 4.968-1.608 6.552-1.056 1.584-2.768 2.376-5.136 2.376s-4.088-.792-5.16-2.376c-1.056-1.584-1.584-3.768-1.584-6.552zm9.456 0c0-1.616-.176-2.856-.528-3.72-.352-.88-1.08-1.32-2.184-1.32s-1.832.44-2.184 1.32c-.352.864-.528 2.104-.528 3.72 0 1.088.064 1.992.192 2.712.128.704.384 1.28.768 1.728.4.432.984.648 1.752.648s1.344-.216 1.728-.648c.4-.448.664-1.024.792-1.728.128-.72.192-1.624.192-2.712zm6.201 0c0-2.752.528-4.92 1.584-6.504 1.072-1.584 2.792-2.376 5.16-2.376s4.08.792 5.136 2.376c1.072 1.584 1.608 3.752 1.608 6.504 0 2.784-.536 4.968-1.608 6.552-1.056 1.584-2.768 2.376-5.136 2.376s-4.088-.792-5.16-2.376c-1.056-1.584-1.584-3.768-1.584-6.552zm9.456 0c0-1.616-.176-2.856-.528-3.72-.352-.88-1.08-1.32-2.184-1.32s-1.832.44-2.184 1.32c-.352.864-.528 2.104-.528 3.72 0 1.088.064 1.992.192 2.712.128.704.384 1.28.768 1.728.4.432.984.648 1.752.648s1.344-.216 1.728-.648c.4-.448.664-1.024.792-1.728.128-.72.192-1.624.192-2.712zm5.864-4.104c0-1.296.368-2.296 1.104-3 .752-.704 1.72-1.056 2.904-1.056s2.144.352 2.88 1.056 1.104 1.704 1.104 3-.368 2.296-1.104 3-1.696 1.056-2.88 1.056-2.152-.352-2.904-1.056c-.736-.704-1.104-1.704-1.104-3zm16.296-3.792L170.308 249h-3.96l9.24-16.896h3.96zm-12.312 2.136c-.768 0-1.152.552-1.152 1.656 0 1.088.384 1.632 1.152 1.632.368 0 .656-.136.864-.408s.312-.68.312-1.224c0-1.104-.392-1.656-1.176-1.656zm7.44 10.968c0-1.296.368-2.296 1.104-3s1.696-1.056 2.88-1.056 2.144.352 2.88 1.056 1.104 1.704 1.104 3-.368 2.296-1.104 3-1.696 1.056-2.88 1.056-2.144-.352-2.88-1.056-1.104-1.704-1.104-3zm3.96-1.656c-.368 0-.656.136-.864.408-.192.272-.288.688-.288 1.248 0 1.088.384 1.632 1.152 1.632.368 0 .656-.136.864-.408s.312-.68.312-1.224-.104-.952-.312-1.224c-.208-.288-.496-.432-.864-.432zm293.32 9.081a8 8 0 1 0 16 0 8 8 0 1 0-16 0zM448.048 225l.982-1.134-.423-.366h-.559v1.5zm31.908 27.633l.982-1.134-31.908-27.633-.982 1.134-.982 1.134 31.908 27.633.982-1.134zM448.048 225v-1.5H97v1.5 1.5h351.048V225zM71.608 593.152v3.288h-4.464V610H63.04v-13.56h-4.464v-3.288h13.032zm14.684 9.936c0 .384-.024.784-.072 1.2h-9.288c.064.832.328 1.472.792 1.92.48.432 1.064.648 1.752.648 1.024 0 1.736-.432 2.136-1.296h4.368c-.224.88-.632 1.672-1.224 2.376-.576.704-1.304 1.256-2.184 1.656s-1.864.6-2.952.6c-1.312 0-2.48-.28-3.504-.84s-1.824-1.36-2.4-2.4-.864-2.256-.864-3.648.28-2.608.84-3.648c.576-1.04 1.376-1.84 2.4-2.4s2.2-.84 3.528-.84c1.296 0 2.448.272 3.456.816a5.78 5.78 0 0 1 2.352 2.328c.576 1.008.864 2.184.864 3.528zm-4.2-1.08c0-.704-.24-1.264-.72-1.68s-1.08-.624-1.8-.624c-.688 0-1.272.2-1.752.6-.464.4-.752.968-.864 1.704h5.136zm5.549 1.272c0-1.376.256-2.584.768-3.624.528-1.04 1.24-1.84 2.136-2.4s1.896-.84 3-.84c.944 0 1.768.192 2.472.576.72.384 1.272.888 1.656 1.512v-1.896h4.104V610h-4.104v-1.896c-.4.624-.96 1.128-1.68 1.512-.704.384-1.528.576-2.472.576-1.088 0-2.08-.28-2.976-.84-.896-.576-1.608-1.384-2.136-2.424-.512-1.056-.768-2.272-.768-3.648zm10.032.024c0-1.024-.288-1.832-.864-2.424a2.73 2.73 0 0 0-2.064-.888c-.816 0-1.512.296-2.088.888-.56.576-.84 1.376-.84 2.4s.28 1.84.84 2.448c.576.592 1.272.888 2.088.888a2.73 2.73 0 0 0 2.064-.888c.576-.592.864-1.4.864-2.424zm24.161-6.84c1.664 0 2.984.504 3.96 1.512.992 1.008 1.488 2.408 1.488 4.2V610h-4.08v-7.272c0-.864-.232-1.528-.696-1.992-.448-.48-1.072-.72-1.872-.72s-1.432.24-1.896.72c-.448.464-.672 1.128-.672 1.992V610h-4.08v-7.272c0-.864-.232-1.528-.696-1.992-.448-.48-1.072-.72-1.872-.72s-1.432.24-1.896.72c-.448.464-.672 1.128-.672 1.992V610h-4.104v-13.392h4.104v1.68c.416-.56.96-1 1.632-1.32.672-.336 1.432-.504 2.28-.504 1.008 0 1.904.216 2.688.648.8.432 1.424 1.048 1.872 1.848.464-.736 1.096-1.336 1.896-1.8s1.672-.696 2.616-.696zm-63.186 32.832v-3.816h6.648V643h-4.272v-13.704h-2.376zm9.551 10.584v-3.312l7.584-10.848h4.584v10.608h1.968v3.552h-1.968V643h-4.104v-3.12h-8.064zm8.352-9.648l-4.032 6.096h4.032v-6.096zm10.122 12.96c-.72 0-1.312-.208-1.776-.624-.448-.432-.672-.96-.672-1.584 0-.64.224-1.176.672-1.608.464-.432 1.056-.648 1.776-.648.704 0 1.28.216 1.728.648.464.432.696.968.696 1.608a2.08 2.08 0 0 1-.696 1.584c-.448.416-1.024.624-1.728.624zm16.781-14.136h-7.488v3.312c.32-.352.768-.64 1.344-.864a5.12 5.12 0 0 1 1.872-.336c1.2 0 2.192.272 2.976.816.8.544 1.384 1.248 1.752 2.112a7.09 7.09 0 0 1 .552 2.808c0 1.872-.528 3.36-1.584 4.464-1.056 1.088-2.544 1.632-4.464 1.632-1.28 0-2.392-.216-3.336-.648-.944-.448-1.672-1.064-2.184-1.848s-.792-1.688-.84-2.712h4.008c.096.496.328.912.696 1.248.368.32.872.48 1.512.48.752 0 1.312-.24 1.68-.72s.552-1.12.552-1.92c0-.784-.192-1.384-.576-1.8s-.944-.624-1.68-.624c-.544 0-.992.136-1.344.408a1.79 1.79 0 0 0-.696 1.032h-3.96v-10.44h11.208v3.6zm2.937.84c0-1.296.368-2.296 1.104-3 .752-.704 1.72-1.056 2.904-1.056s2.144.352 2.88 1.056 1.104 1.704 1.104 3-.368 2.296-1.104 3-1.696 1.056-2.88 1.056-2.152-.352-2.904-1.056c-.736-.704-1.104-1.704-1.104-3zm16.296-3.792L113.448 643h-3.96l9.24-16.896h3.96zm-12.312 2.136c-.768 0-1.152.552-1.152 1.656 0 1.088.384 1.632 1.152 1.632.368 0 .656-.136.864-.408s.312-.68.312-1.224c0-1.104-.392-1.656-1.176-1.656zm7.44 10.968c0-1.296.368-2.296 1.104-3s1.696-1.056 2.88-1.056 2.144.352 2.88 1.056 1.104 1.704 1.104 3-.368 2.296-1.104 3-1.696 1.056-2.88 1.056-2.144-.352-2.88-1.056-1.104-1.704-1.104-3zm3.96-1.656c-.368 0-.656.136-.864.408-.192.272-.288.688-.288 1.248 0 1.088.384 1.632 1.152 1.632.368 0 .656-.136.864-.408s.312-.68.312-1.224-.104-.952-.312-1.224c-.208-.288-.496-.432-.864-.432zM878.32 75.92c0-2.773.6-5.24 1.8-7.4a12.73 12.73 0 0 1 5-5.08c2.16-1.227 4.6-1.84 7.32-1.84 3.333 0 6.187.88 8.56 2.64s3.96 4.16 4.76 7.2h-7.52c-.56-1.173-1.36-2.067-2.4-2.68-1.013-.613-2.173-.92-3.48-.92-2.107 0-3.813.733-5.12 2.2s-1.96 3.427-1.96 5.88.653 4.413 1.96 5.88 3.013 2.2 5.12 2.2c1.307 0 2.467-.307 3.48-.92 1.04-.613 1.84-1.507 2.4-2.68h7.52c-.8 3.04-2.387 5.44-4.76 7.2-2.373 1.733-5.227 2.6-8.56 2.6-2.72 0-5.16-.6-7.32-1.8a13.08 13.08 0 0 1-5-5.08c-1.2-2.16-1.8-4.627-1.8-7.4zm41.789 14.4c-2.187 0-4.16-.467-5.92-1.4-1.734-.933-3.107-2.267-4.12-4-.987-1.733-1.48-3.76-1.48-6.08 0-2.293.506-4.307 1.52-6.04 1.013-1.76 2.4-3.107 4.16-4.04s3.733-1.4 5.92-1.4 4.16.467 5.92 1.4a10.28 10.28 0 0 1 4.16 4.04c1.013 1.733 1.52 3.747 1.52 6.04s-.52 4.32-1.56 6.08c-1.014 1.733-2.414 3.067-4.2 4-1.76.933-3.734 1.4-5.92 1.4zm0-5.92a4.39 4.39 0 0 0 3.32-1.44c.933-.96 1.4-2.333 1.4-4.12s-.454-3.16-1.36-4.12c-.88-.96-1.974-1.44-3.28-1.44-1.334 0-2.44.48-3.32 1.44-.88.933-1.32 2.307-1.32 4.12 0 1.787.426 3.16 1.28 4.12.88.96 1.973 1.44 3.28 1.44zm43.789-16.96c2.773 0 4.973.84 6.6 2.52 1.653 1.68 2.48 4.013 2.48 7V90h-6.8V77.88c0-1.44-.387-2.547-1.16-3.32-.747-.8-1.787-1.2-3.12-1.2s-2.387.4-3.16 1.2c-.747.773-1.12 1.88-1.12 3.32V90h-6.8V77.88c0-1.44-.387-2.547-1.16-3.32-.747-.8-1.787-1.2-3.12-1.2s-2.387.4-3.16 1.2c-.747.773-1.12 1.88-1.12 3.32V90h-6.84V67.68h6.84v2.8c.693-.933 1.6-1.667 2.72-2.2 1.12-.56 2.386-.84 3.8-.84 1.68 0 3.173.36 4.48 1.08a7.71 7.71 0 0 1 3.12 3.08c.773-1.227 1.826-2.227 3.16-3a8.54 8.54 0 0 1 4.36-1.16zm42.342 0c2.77 0 4.97.84 6.6 2.52 1.65 1.68 2.48 4.013 2.48 7V90h-6.8V77.88c0-1.44-.39-2.547-1.16-3.32-.75-.8-1.79-1.2-3.12-1.2s-2.39.4-3.16 1.2c-.75.773-1.119 1.88-1.119 3.32V90h-6.8V77.88c0-1.44-.386-2.547-1.16-3.32-.746-.8-1.786-1.2-3.12-1.2s-2.386.4-3.16 1.2c-.746.773-1.12 1.88-1.12 3.32V90h-6.84V67.68h6.84v2.8c.694-.933 1.6-1.667 2.72-2.2 1.12-.56 2.387-.84 3.8-.84 1.68 0 3.174.36 4.48 1.08a7.7 7.7 0 0 1 3.12 3.08c.774-1.227 1.829-2.227 3.159-3a8.54 8.54 0 0 1 4.36-1.16zm35.91.24V90h-6.84v-3.04c-.7.987-1.64 1.787-2.84 2.4-1.18.587-2.48.88-3.92.88-1.71 0-3.22-.373-4.52-1.12-1.31-.773-2.32-1.88-3.04-3.32s-1.08-3.133-1.08-5.08V67.68h6.8V79.8c0 1.493.38 2.653 1.16 3.48.77.827 1.81 1.24 3.12 1.24 1.33 0 2.38-.413 3.16-1.24.77-.827 1.16-1.987 1.16-3.48V67.68h6.84zm18.51-.24c2.61 0 4.69.853 6.24 2.56 1.57 1.68 2.36 4 2.36 6.96V90h-6.8V77.88c0-1.493-.39-2.653-1.16-3.48-.78-.827-1.82-1.24-3.12-1.24-1.31 0-2.35.413-3.12 1.24-.78.827-1.16 1.987-1.16 3.48V90h-6.84V67.68h6.84v2.96c.69-.987 1.62-1.76 2.8-2.32 1.17-.587 2.49-.88 3.96-.88zm16.79-2.08c-1.2 0-2.19-.347-2.96-1.04-.75-.72-1.12-1.6-1.12-2.64 0-1.067.37-1.947 1.12-2.64.77-.72 1.76-1.08 2.96-1.08 1.17 0 2.13.36 2.88 1.08.77.693 1.16 1.573 1.16 2.64 0 1.04-.39 1.92-1.16 2.64-.75.693-1.71 1.04-2.88 1.04zm3.4 2.32V90h-6.84V67.68h6.84zm17.4 16.52V90h-3.48c-2.48 0-4.42-.6-5.8-1.8-1.39-1.227-2.08-3.213-2.08-5.96v-8.88h-2.72v-5.68h2.72v-5.44h6.84v5.44h4.48v5.68h-4.48v8.96c0 .667.16 1.147.48 1.44s.85.44 1.6.44h2.44zm26.61-16.52l-14 32.92h-7.36l5.12-11.36-9.08-21.56h7.64l5.16 13.96 5.12-13.96h7.4z"/><path d="M384.88 70.96c0 1.627-.373 3.12-1.12 4.48-.747 1.333-1.893 2.413-3.44 3.24s-3.467 1.24-5.76 1.24h-4.24V90h-6.84V61.92h11.08c2.24 0 4.133.387 5.68 1.16s2.707 1.84 3.48 3.2 1.16 2.92 1.16 4.68zm-10.84 3.52c1.307 0 2.28-.307 2.92-.92s.96-1.48.96-2.6-.32-1.987-.96-2.6-1.613-.92-2.92-.92h-3.72v7.04h3.72zm21.241-3.08c.8-1.227 1.8-2.187 3-2.88 1.2-.72 2.533-1.08 4-1.08v7.24h-1.88c-1.707 0-2.987.373-3.84 1.12-.853.72-1.28 2-1.28 3.84V90h-6.84V67.68h6.84v3.72zm20.429 18.92c-2.186 0-4.16-.467-5.92-1.4-1.733-.933-3.106-2.267-4.12-4-.986-1.733-1.48-3.76-1.48-6.08 0-2.293.507-4.307 1.52-6.04a10.28 10.28 0 0 1 4.16-4.04c1.76-.933 3.734-1.4 5.92-1.4s4.16.467 5.92 1.4 3.147 2.28 4.16 4.04c1.014 1.733 1.52 3.747 1.52 6.04s-.52 4.32-1.56 6.08a10.28 10.28 0 0 1-4.2 4c-1.76.933-3.733 1.4-5.92 1.4zm0-5.92c1.307 0 2.414-.48 3.32-1.44.934-.96 1.4-2.333 1.4-4.12s-.453-3.16-1.36-4.12c-.88-.96-1.973-1.44-3.28-1.44a4.31 4.31 0 0 0-3.32 1.44c-.88.933-1.32 2.307-1.32 4.12 0 1.787.427 3.16 1.28 4.12.88.96 1.974 1.44 3.28 1.44zm18.709-19.04c-1.2 0-2.187-.347-2.96-1.04-.747-.72-1.12-1.6-1.12-2.64 0-1.067.373-1.947 1.12-2.64.773-.72 1.76-1.08 2.96-1.08 1.173 0 2.133.36 2.88 1.08.773.693 1.16 1.573 1.16 2.64 0 1.04-.387 1.92-1.16 2.64-.747.693-1.707 1.04-2.88 1.04zm3.44 27.52c0 2.747-.693 4.72-2.08 5.92-1.387 1.227-3.32 1.84-5.8 1.84h-2.68v-5.8h1.64c.747 0 1.28-.147 1.6-.44s.48-.773.48-1.44V67.68h6.84v25.2zm25.958-14.4a17.46 17.46 0 0 1-.12 2h-15.48c.107 1.387.547 2.453 1.32 3.2.8.72 1.773 1.08 2.92 1.08 1.707 0 2.893-.72 3.56-2.16h7.28a9.85 9.85 0 0 1-2.04 3.96c-.96 1.173-2.173 2.093-3.64 2.76s-3.107 1-4.92 1c-2.187 0-4.133-.467-5.84-1.4s-3.04-2.267-4-4-1.44-3.76-1.44-6.08.467-4.347 1.4-6.08c.96-1.733 2.293-3.067 4-4s3.667-1.4 5.88-1.4c2.16 0 4.08.453 5.76 1.36a9.63 9.63 0 0 1 3.92 3.88c.96 1.68 1.44 3.64 1.44 5.88zm-7-1.8c0-1.173-.4-2.107-1.2-2.8s-1.8-1.04-3-1.04c-1.147 0-2.12.333-2.92 1-.773.667-1.253 1.613-1.44 2.84h8.56zm9.248 2.16c0-2.32.467-4.347 1.4-6.08.96-1.733 2.28-3.067 3.96-4 1.707-.933 3.654-1.4 5.84-1.4 2.8 0 5.134.733 7 2.2 1.894 1.467 3.134 3.533 3.72 6.2h-7.28c-.613-1.707-1.8-2.56-3.56-2.56-1.253 0-2.253.493-3 1.48-.746.96-1.12 2.347-1.12 4.16s.374 3.213 1.12 4.2c.747.96 1.747 1.44 3 1.44 1.76 0 2.947-.853 3.56-2.56h7.28c-.586 2.613-1.826 4.667-3.72 6.16s-4.226 2.24-7 2.24c-2.186 0-4.133-.467-5.84-1.4-1.68-.933-3-2.267-3.96-4-.933-1.733-1.4-3.76-1.4-6.08zm38.019 5.36V90h-3.48c-2.48 0-4.413-.6-5.8-1.8-1.387-1.227-2.08-3.213-2.08-5.96v-8.88h-2.72v-5.68h2.72v-5.44h6.84v5.44h4.48v5.68h-4.48v8.96c0 .667.16 1.147.48 1.44s.853.44 1.6.44h2.44zm19.127.52h8.96V90h-15.8V61.92h6.84v22.8zm15.662-19.36c-1.2 0-2.187-.347-2.96-1.04-.747-.72-1.12-1.6-1.12-2.64 0-1.067.373-1.947 1.12-2.64.773-.72 1.76-1.08 2.96-1.08 1.173 0 2.133.36 2.88 1.08.773.693 1.16 1.573 1.16 2.64 0 1.04-.387 1.92-1.16 2.64-.747.693-1.707 1.04-2.88 1.04zm3.4 2.32V90h-6.84V67.68h6.84zm11.797 3.16c.64-1.04 1.56-1.88 2.76-2.52s2.573-.96 4.12-.96c1.84 0 3.507.467 5 1.4s2.667 2.267 3.52 4c.88 1.733 1.32 3.747 1.32 6.04s-.44 4.32-1.32 6.08c-.853 1.733-2.027 3.08-3.52 4.04-1.493.933-3.16 1.4-5 1.4-1.573 0-2.947-.307-4.12-.92-1.173-.64-2.093-1.48-2.76-2.52V90h-6.84V60.4h6.84v10.44zm9.76 7.96c0-1.707-.48-3.04-1.44-4-.933-.987-2.093-1.48-3.48-1.48-1.36 0-2.52.493-3.48 1.48-.933.987-1.4 2.333-1.4 4.04s.467 3.053 1.4 4.04c.96.987 2.12 1.48 3.48 1.48s2.52-.493 3.48-1.48c.96-1.013 1.44-2.373 1.44-4.08zm31.588-.32a17.46 17.46 0 0 1-.12 2h-15.48c.107 1.387.547 2.453 1.32 3.2.8.72 1.774 1.08 2.92 1.08 1.707 0 2.894-.72 3.56-2.16h7.28a9.85 9.85 0 0 1-2.04 3.96c-.96 1.173-2.173 2.093-3.64 2.76s-3.106 1-4.92 1c-2.186 0-4.133-.467-5.84-1.4a9.96 9.96 0 0 1-4-4c-.96-1.733-1.44-3.76-1.44-6.08s.467-4.347 1.4-6.08a9.96 9.96 0 0 1 4-4c1.707-.933 3.667-1.4 5.88-1.4 2.16 0 4.08.453 5.76 1.36a9.63 9.63 0 0 1 3.92 3.88c.96 1.68 1.44 3.64 1.44 5.88zm-7-1.8c0-1.173-.4-2.107-1.2-2.8s-1.8-1.04-3-1.04c-1.146 0-2.12.333-2.92 1-.773.667-1.253 1.613-1.44 2.84h8.56zm17.449-5.28c.8-1.227 1.8-2.187 3-2.88 1.2-.72 2.533-1.08 4-1.08v7.24h-1.88c-1.707 0-2.987.373-3.84 1.12-.853.72-1.28 2-1.28 3.84V90h-6.84V67.68h6.84v3.72zm22.709 12.8V90h-3.48c-2.48 0-4.413-.6-5.8-1.8-1.386-1.227-2.08-3.213-2.08-5.96v-8.88h-2.72v-5.68h2.72v-5.44h6.84v5.44h4.48v5.68h-4.48v8.96c0 .667.16 1.147.48 1.44s.854.44 1.6.44h2.44zm26.61-16.52l-14 32.92h-7.36l5.12-11.36-9.08-21.56h7.64l5.16 13.96 5.12-13.96h7.4z"/></g><defs><linearGradient id="A" x1="731.245" y1="235.514" x2="450.298" y2="235.514" href="#c"><stop stop-color="#48c578"/><stop offset=".5" stop-color="#67cf8c"/><stop offset="1" stop-color="#89daa3"/></linearGradient><linearGradient id="B" x1="450.298" y1="380.363" x2="298.298" y2="380.363" href="#c"><stop stop-color="#89daa3"/><stop offset=".5" stop-color="#8edba7"/><stop offset="1" stop-color="#62cd89"/></linearGradient><linearGradient id="C" x1="731.245" y1="440.65" x2="632.914" y2="440.65" href="#c"><stop stop-color="#ffd647"/><stop offset=".5" stop-color="#fcdf7b"/><stop offset="1" stop-color="#ffeba3"/></linearGradient><linearGradient id="D" x1="633.2" y1="490.988" x2="580" y2="490.988" href="#c"><stop stop-color="#ffeba3"/><stop offset=".5" stop-color="#ffe075"/><stop offset="1" stop-color="#ffd647"/></linearGradient><linearGradient id="E" x1="579.714" y1="506.017" x2="298.298" y2="506.017" href="#c"><stop stop-color="#3bbc6b"/></linearGradient><linearGradient id="F" x1="581.056" y1="496.821" x2="300.278" y2="496.821" href="#c"><stop stop-color="#f99a2a"/></linearGradient><linearGradient id="G" x1="300.279" y1="508.834" x2="292.49" y2="508.834" href="#c"><stop stop-color="#4571f0"/><stop offset=".5" stop-color="#3567ef"/><stop offset="1" stop-color="#255eed"/></linearGradient><linearGradient id="H" x1="581.056" y1="531.019" x2="578.33" y2="531.019" href="#c"><stop stop-color="#ffaa47"/><stop offset=".5" stop-color="#ffaa48"/><stop offset="1" stop-color="#ffab49"/></linearGradient><linearGradient id="I" x1="583.785" y1="559.854" x2="578.33" y2="559.854" href="#c"><stop offset="1" stop-color="#f77c47"/></linearGradient><linearGradient id="J" x1="308.076" y1="591.222" x2="292.49" y2="591.222" href="#c"><stop stop-color="#f99929"/><stop offset=".5" stop-color="#ed8102"/><stop offset="1" stop-color="#da7600"/></linearGradient><linearGradient id="K" x1="616.791" y1="602.126" x2="583.785" y2="602.126" href="#c"><stop offset="1" stop-color="#f99a2a"/></linearGradient><linearGradient id="L" x1="616.792" y1="706.004" x2="402.379" y2="706.004" href="#c"><stop stop-color="#7894f4"/></linearGradient><linearGradient id="M" x1="402.38" y1="711.922" x2="308.076" y2="711.922" href="#c"><stop stop-color="#e27e00"/><stop offset=".5" stop-color="#f58d13"/><stop offset="1" stop-color="#f99a2a"/></linearGradient><linearGradient id="N" x1="641.776" y1="636.962" x2="616.792" y2="636.962" href="#c"><stop stop-color="#cb6500"/><stop offset=".5" stop-color="#bc5c00"/><stop offset="1" stop-color="#ac5300"/></linearGradient><linearGradient id="O" x1="616.792" y1="706.004" x2="402.38" y2="706.004" href="#c"><stop stop-color="#ffb873"/></linearGradient><linearGradient id="P" x1="641.777" y1="742.41" x2="473.764" y2="742.41" href="#c"><stop stop-color="#ffbf85"/></linearGradient><linearGradient id="Q" x1="473.764" y1="811.452" x2="402.38" y2="811.452" href="#c"><stop stop-color="#ffbf85"/><stop offset=".5" stop-color="#ffae4c"/><stop offset="1" stop-color="#e48002"/></linearGradient><linearGradient id="R" x1="736.391" y1="670.21" x2="692.314" y2="670.21" href="#c"><stop stop-color="#1a88a2"/><stop offset=".5" stop-color="#187891"/><stop offset="1" stop-color="#15687f"/></linearGradient><linearGradient id="S" x1="692.314" y1="757.443" x2="519.718" y2="757.443" href="#c"><stop stop-color="#67c8e6"/></linearGradient><linearGradient id="T" x1="736.391" y1="792.574" x2="645.652" y2="792.574" href="#c"><stop stop-color="#3abedf"/></linearGradient><linearGradient id="U" x1="645.652" y1="879.806" x2="519.718" y2="879.806" href="#c"><stop stop-color="#2f80ed"/><stop offset=".5" stop-color="#0b68e5"/><stop offset="1" stop-color="#1a79f8"/></linearGradient><linearGradient id="V" x1="841.869" y1="313.093" x2="805.067" y2="313.093" href="#c"><stop stop-color="#7661ff"/></linearGradient><linearGradient id="W" x1="805" y1="430.8" x2="785" y2="430.8" href="#c"><stop stop-color="#36b07d"/><stop offset=".5" stop-color="#36b07d" stop-opacity=".5"/><stop offset="1" stop-color="#36b07d" stop-opacity="0"/></linearGradient><linearGradient id="X" x1="867.15" y1="438.918" x2="805.415" y2="438.918" href="#c"><stop offset=".022" stop-color="#bc86b7"/><stop offset="1" stop-color="#ddc3db"/></linearGradient><linearGradient id="Y" x1="941" y1="534.5" x2="914.958" y2="508.089" href="#c"><stop offset=".389" stop-color="#9a4a94" stop-opacity=".95"/><stop offset="1" stop-color="#bc86b7"/></linearGradient><linearGradient id="Z" x1="943.71" y1="571.471" x2="939.902" y2="571.471" href="#c"><stop offset="1" stop-color="#55b1ab"/></linearGradient><linearGradient id="a" x1="1169" y1="784.5" x2="1241" y2="706" href="#c"><stop stop-color="#bc86b7"/><stop offset="1" stop-color="#ddc3db"/></linearGradient><linearGradient id="b" x1="1009.13" y1="899.469" x2="831.348" y2="899.469" href="#c"><stop stop-color="#bc86b7"/><stop offset=".5" stop-color="#9d4d97"/><stop offset="1" stop-color="#9a4a94"/></linearGradient><linearGradient id="c" gradientUnits="userSpaceOnUse"/></defs></svg>
